<svg xmlns="http://www.w3.org/2000/svg" width="776.325" height="271.05"><g data-name="组 4183"><g data-name="组 4181"><g data-name="组 4178"><path data-name="路径 12544" d="M136.849 56.603l-8.725 8.639 31.045 31.079 8.663-8.578a19.8 19.8 0 11-.051 27.994l-58.945-59.155a63.3 63.3 0 00-45.03-18.718h-.116a63.71 63.71 0 1044.951 108.868l8.827-8.727-31.013-31.111-8.791 8.689a19.8 19.8 0 11.053-28l45.558 45.727 13.4 13.436a63.725 63.725 0 10.174-90.145z" fill="#4444fd"/></g><g data-name="组 4179"><path data-name="路径 14839" d="M447.17 168.993h-.324a67.225 67.225 0 01-47.44-19.78l-58.951-59.157a16.3 16.3 0 00-11.5-4.794h-.077a16.3 16.3 0 00-.011 32.592h.082a16.282 16.282 0 0011.459-4.744l11.287-11.155 35.955 36.066-11.326 11.2a67.26 67.26 0 01-47.25 19.563h-.354a67.21 67.21 0 01.2-134.42h.2a67.219 67.219 0 0147.419 19.754l58.939 59.146a16.294 16.294 0 0011.5 4.8h.083a16.3 16.3 0 10-11.545-27.837l-11.143 11.037-35.992-36.032L399.6 54.125a67.228 67.228 0 1147.57 114.872zm-.253-7h.236a60.227 60.227 0 10-42.619-102.906v.005l-6.227 6.165 26.1 26.127 6.188-6.127a23.3 23.3 0 1116.486 39.807h-.118a23.321 23.321 0 01-16.45-6.863l-58.939-59.147a60.189 60.189 0 00-42.461-17.69h-.4a60.21 60.21 0 00.017 120.42h.318a60.227 60.227 0 0042.332-17.527l6.342-6.271-26.067-26.152-6.312 6.238a23.148 23.148 0 01-16.442 6.782h-.054a23.3 23.3 0 01.013-46.592h.11a23.333 23.333 0 0116.45 6.858l58.951 59.156a60.2 60.2 0 0042.491 17.716z" fill="#20f4ad"/></g><g data-name="组 4180"><path data-name="路径 14840" d="M711.311 166.993h-.316a65.21 65.21 0 01-46.024-19.188l-58.955-59.161a18.321 18.321 0 00-12.921-5.38h-.086a18.3 18.3 0 000 36.592h.093a18.291 18.291 0 0012.864-5.331l9.859-9.746 33.131 33.235-9.9 9.786a65.445 65.445 0 01-46.122 18.985h-.061a65.21 65.21 0 01-.024-130.42h.412a65.209 65.209 0 0146 19.162l58.943 59.153a18.31 18.31 0 0012.92 5.385h.092a18.3 18.3 0 10-12.965-31.256l-9.727 9.63-33.165-33.2 9.795-9.7a65.229 65.229 0 1146.159 111.455zm-.252-3h.246a62.227 62.227 0 10-44.039-106.329l-7.655 7.579L688.536 94.2l7.6-7.527a21.3 21.3 0 1115.086 36.391h-.108a21.318 21.318 0 01-15.04-6.271l-58.942-59.151a62.194 62.194 0 00-43.875-18.278h-.406a62.21 62.21 0 00.086 124.42h.266a62.228 62.228 0 0043.735-18.113l7.762-7.675-28.894-28.984-7.728 7.637a21.3 21.3 0 01-14.973 6.205h-.11a21.3 21.3 0 010-42.592h.1a21.328 21.328 0 0115.041 6.266l58.956 59.16a62.2 62.2 0 0043.9 18.3z" fill="#fff"/></g></g><g data-name="组 4182"><g data-name="2020 12 15 - 2020 1 17"><g data-name="组 4350" style="isolation:isolate" fill="#fff"><path data-name="路径 14841" d="M26.638 268.95v-1.826l6.11-6.215a3.948 3.948 0 001.406-2.835 2.776 2.776 0 00-2.645-2.96c-1.826 0-2.772 1.553-2.772 3.233v.4h-2.183v-.083c-.021-2.288.881-4.3 3.087-5.186a4.74 4.74 0 011.784-.357 4.9 4.9 0 014.913 5.019c0 1.91-.9 3.086-2.162 4.387l-4.326 4.431h6.509v1.994z"/><path data-name="路径 14842" d="M52.487 263.953a4.762 4.762 0 01-1.134 3.507 5.126 5.126 0 01-3.926 1.784 5.022 5.022 0 01-3.926-1.89 5.216 5.216 0 01-1.071-3.569v-5.421a4.941 4.941 0 013.086-4.871 5.45 5.45 0 011.995-.4 4.967 4.967 0 014.976 5.123zm-2.183-5.731c0-1.764-.966-3.129-2.814-3.129a2.826 2.826 0 00-2.877 3.129v5.731c0 1.848.966 3.3 2.9 3.3a2.776 2.776 0 002.1-.986 2.89 2.89 0 00.694-2.268z"/><path data-name="路径 14843" d="M58.348 268.95v-1.826l6.109-6.215a3.949 3.949 0 001.407-2.835 2.777 2.777 0 00-2.645-2.96c-1.828 0-2.772 1.553-2.772 3.233v.4h-2.183v-.083c-.022-2.288.881-4.3 3.085-5.186a4.754 4.754 0 011.786-.357 4.9 4.9 0 014.913 5.019c0 1.91-.9 3.086-2.163 4.387l-4.326 4.431h6.509v1.994z"/><path data-name="路径 14844" d="M84.195 263.953a4.757 4.757 0 01-1.134 3.507 5.125 5.125 0 01-3.925 1.784 5.025 5.025 0 01-3.927-1.89 5.216 5.216 0 01-1.07-3.569v-5.421a4.942 4.942 0 013.085-4.871 5.455 5.455 0 012-.4 4.967 4.967 0 014.975 5.123zm-2.183-5.731c0-1.764-.966-3.129-2.814-3.129a2.825 2.825 0 00-2.876 3.129v5.731c0 1.848.966 3.3 2.9 3.3a2.779 2.779 0 002.1-.986 2.893 2.893 0 00.693-2.268z"/><path data-name="路径 14845" d="M92.451 271.05h-2.393l6.046-17.637h2.391z"/><path data-name="路径 14846" d="M109.271 268.95v-13.543h-2.289v-1.994h4.473v15.537z"/><path data-name="路径 14847" d="M120.595 268.95v-1.826l6.11-6.215a3.948 3.948 0 001.406-2.835 2.776 2.776 0 00-2.645-2.96c-1.826 0-2.772 1.553-2.772 3.233v.4h-2.183v-.083c-.021-2.288.882-4.3 3.087-5.186a4.74 4.74 0 011.784-.357 4.9 4.9 0 014.913 5.019c0 1.91-.9 3.086-2.162 4.387l-4.325 4.431h6.508v1.994z"/><path data-name="路径 14848" d="M138.84 271.05h-2.394l6.047-17.637h2.394z"/><path data-name="路径 14849" d="M155.66 268.95v-13.543h-2.289v-1.994h4.473v15.537z"/><path data-name="路径 14850" d="M171.934 269.244a5.237 5.237 0 01-5.291-5h2.184c.315 1.638 1.344 3 3.129 3a3.3 3.3 0 003.107-3.4c0-1.764-1.071-3.633-3.023-3.633a3.063 3.063 0 00-2.793 1.617l-1.89-.441 1.3-7.979h7.1v1.994h-5.292l-.588 3.444a3.587 3.587 0 012.163-.629 5.177 5.177 0 015.207 5.459 5.363 5.363 0 01-5.313 5.568z"/><path data-name="路径 14851" d="M192.368 263.974v-2.184h5.879v2.184z"/><path data-name="路径 14852" d="M213.704 268.95v-1.826l6.11-6.215a3.949 3.949 0 001.407-2.835 2.777 2.777 0 00-2.646-2.96c-1.826 0-2.771 1.553-2.771 3.233v.4h-2.184v-.083c-.021-2.288.882-4.3 3.087-5.186a4.744 4.744 0 011.784-.357 4.9 4.9 0 014.913 5.019c0 1.91-.9 3.086-2.162 4.387l-4.325 4.431h6.509v1.994z"/><path data-name="路径 14853" d="M239.554 263.953a4.766 4.766 0 01-1.134 3.507 5.129 5.129 0 01-3.927 1.784 5.023 5.023 0 01-3.926-1.89 5.216 5.216 0 01-1.071-3.569v-5.421a4.942 4.942 0 013.087-4.871 5.445 5.445 0 011.994-.4 4.968 4.968 0 014.977 5.123zm-2.184-5.731c0-1.764-.966-3.129-2.813-3.129a2.826 2.826 0 00-2.877 3.129v5.731c0 1.848.965 3.3 2.9 3.3a2.78 2.78 0 002.1-.986 2.893 2.893 0 00.693-2.268z"/><path data-name="路径 14854" d="M245.414 268.95v-1.826l6.109-6.215a3.95 3.95 0 001.408-2.835 2.778 2.778 0 00-2.646-2.96c-1.827 0-2.771 1.553-2.771 3.233v.4h-2.184v-.083c-.022-2.288.882-4.3 3.086-5.186a4.749 4.749 0 011.785-.357 4.9 4.9 0 014.913 5.019c0 1.91-.9 3.086-2.163 4.387l-4.325 4.431h6.509v1.994z"/><path data-name="路径 14855" d="M271.263 263.953a4.761 4.761 0 01-1.134 3.507 5.129 5.129 0 01-3.926 1.784 5.027 5.027 0 01-3.927-1.89 5.216 5.216 0 01-1.07-3.569v-5.421a4.943 4.943 0 013.086-4.871 5.45 5.45 0 011.995-.4 4.967 4.967 0 014.976 5.123zm-2.184-5.731c0-1.764-.966-3.129-2.813-3.129a2.825 2.825 0 00-2.876 3.129v5.731c0 1.848.965 3.3 2.9 3.3a2.783 2.783 0 002.1-.986 2.9 2.9 0 00.692-2.268z"/><path data-name="路径 14856" d="M279.517 271.05h-2.393l6.047-17.637h2.393z"/><path data-name="路径 14857" d="M296.338 268.95v-13.543h-2.289v-1.994h4.472v15.537z"/><path data-name="路径 14858" d="M310.051 271.05h-2.394l6.047-17.637h2.391z"/><path data-name="路径 14859" d="M326.871 268.95v-13.543h-2.288v-1.994h4.472v15.537z"/><path data-name="路径 14860" d="M342.139 268.95h-2.436l5.857-13.543h-6.739v-1.994h9.007v1.994z"/></g></g><g data-name="TiDB Hackathon 2020" style="isolation:isolate" fill="#fff"><g data-name="组 4351" style="isolation:isolate"><path data-name="路径 14861" d="M49.134 11.122v38.459H36.471V11.122h-9.782V0h32.16v11.122z"/><path data-name="路径 14862" d="M63.137 8.442V0h11.122v8.442zm0 41.139V12.395h11.122v37.186z"/><path data-name="路径 14863" d="M101.125 49.581H83.772V0h16.415c8.978 0 16.282 1.474 21.91 9.246a26.181 26.181 0 014.556 15.41c0 16.281-9.313 24.925-25.528 24.925zm.805-38.459h-5.495v27.342h5.428c8.643 0 12.127-5.562 12.127-13.6.005-7.913-3.619-13.742-12.06-13.742z"/><path data-name="路径 14864" d="M167.79 45.293c-5.092 4.355-9.782 4.288-16.214 4.288h-15.745V0h15.276c5.963 0 11.591.067 15.879 4.824a11.723 11.723 0 012.948 8.174 11.186 11.186 0 01-5.762 9.983c5.427 1.876 8.175 5.9 8.175 11.525a14.232 14.232 0 01-4.557 10.787zm-14.941-34.171h-4.891v7.7h4.824c2.747 0 5.025-.8 5.025-3.953s-2.345-3.747-4.958-3.747zm1.474 18.292h-6.365v9.05h6.3c3.149 0 5.963-1.072 5.963-4.757-.002-3.557-2.95-4.293-5.898-4.293z"/></g><g data-name="组 4352" style="isolation:isolate"><path data-name="路径 14865" d="M59.386 129.581v-19.832H43.171v19.832H30.508V80h12.663v18.626h16.215V80h12.663v49.581z"/><path data-name="路径 14866" d="M110.171 129.581v-4.017h-.134c-2.01 3.819-6.834 5.293-10.854 5.293-11.457 0-18.693-8.844-18.693-19.9 0-10.854 7.5-19.833 18.693-19.833 4.087 0 8.644 1.541 10.854 5.227h.134v-3.954h11.124v37.186zm-9.38-28.073c-5.427 0-9.179 4.288-9.179 9.581a9.281 9.281 0 1018.559-.134 9.136 9.136 0 00-9.376-9.447z"/><path data-name="路径 14867" d="M149.165 130.787a19.732 19.732 0 01-19.9-19.9 19.519 19.519 0 0119.63-19.765c9.514 0 17.755 6.164 19.7 15.611h-11.256a8.556 8.556 0 00-8.308-5.225c-5.36 0-8.576 4.422-8.576 9.447 0 5.226 3.417 9.447 8.844 9.447a8.553 8.553 0 008.04-4.959h11.323a19.815 19.815 0 01-19.497 15.344z"/><path data-name="路径 14868" d="M196.595 108.743l13.6 20.838h-12.6l-10.52-17.89h-.133v17.89H175.83V80h11.123v25.864h.133l10.319-13.467h13.2z"/><path data-name="路径 14869" d="M242.629 129.581v-4.017h-.134c-2.01 3.819-6.834 5.293-10.854 5.293-11.458 0-18.694-8.844-18.694-19.9 0-10.854 7.505-19.833 18.694-19.833 4.087 0 8.643 1.541 10.854 5.227h.134v-3.954h11.122v37.186zm-9.38-28.073c-5.427 0-9.179 4.288-9.179 9.581a9.281 9.281 0 1018.559-.134 9.136 9.136 0 00-9.38-9.447z"/><path data-name="路径 14870" d="M277.195 100.838v28.743h-11.118v-28.743h-5.494v-8.443h5.494V80h11.118v12.395h5.359v8.443z"/><path data-name="路径 14871" d="M312.374 129.581v-20.234c0-4.021-1.138-7.773-5.962-7.773s-6.232 3.15-6.232 7.37v20.637h-11.122V80h11.122v15.812h.134c1.943-3.484 5.829-4.69 9.581-4.69 3.619 0 7.705 1.273 10.118 4.087 3.551 4.088 3.484 8.51 3.484 13.6v20.77z"/><path data-name="路径 14872" d="M351.368 130.72c-11.39 0-20.034-8.375-20.034-19.765s8.644-19.766 20.034-19.766 20.033 8.375 20.033 19.766-8.643 19.765-20.033 19.765zm0-29.146a9.393 9.393 0 108.911 9.381 9.1 9.1 0 00-8.911-9.381z"/><path data-name="路径 14873" d="M402.689 129.581v-20.3c0-4.153-.8-7.7-5.829-7.7-5.159 0-6.365 3.351-6.365 7.773v20.234h-11.123V92.395h10.386v3.954h.133c2.346-3.82 5.629-5.227 10.119-5.227a16.109 16.109 0 019.513 3.216c3.551 2.948 4.288 7.639 4.288 11.994v23.249z"/></g><g data-name="组 4353" style="isolation:isolate"><path data-name="路径 14874" d="M29.436 209.581v-9.85c5.561-3.617 10.653-7.1 15.142-12.059 2.881-3.15 6.834-8.241 6.834-12.663a4.5 4.5 0 00-4.689-4.824c-4.557 0-5.495 4.153-5.7 7.838H28.967c.134-4.22.6-7.772 2.948-11.39 3.35-5.159 9.246-7.571 15.276-7.571 6.432 0 12.731 2.68 15.612 8.71a14.1 14.1 0 011.273 5.7c0 10.719-9.045 18.961-16.483 25.46h16.818v10.653z"/><path data-name="路径 14875" d="M98.178 208.71a19.143 19.143 0 01-8.174 1.81 19.609 19.609 0 01-7.571-1.542c-7.371-3.083-11.123-9.38-11.123-17.287v-13.8c0-7.974 3.685-14.339 11.19-17.354a20.779 20.779 0 017.5-1.474 19.677 19.677 0 017.571 1.608c7.236 3.149 10.72 9.447 10.72 17.22v13.8c.004 7.438-3.145 13.803-10.113 17.019zm-2.546-31.155c0-3.887-1.273-7.37-5.829-7.37-4.355 0-5.829 3.618-5.829 7.37v14.471c0 3.82 1.474 7.37 5.829 7.37 4.556 0 5.829-3.483 5.829-7.37z"/><path data-name="路径 14876" d="M115.595 209.581v-9.85c5.561-3.617 10.653-7.1 15.142-12.059 2.881-3.15 6.834-8.241 6.834-12.663a4.5 4.5 0 00-4.69-4.824c-4.556 0-5.494 4.153-5.7 7.838h-12.06c.134-4.22.6-7.772 2.948-11.39 3.35-5.159 9.246-7.571 15.276-7.571 6.432 0 12.73 2.68 15.611 8.71a14.1 14.1 0 011.273 5.7c0 10.719-9.045 18.961-16.482 25.46h16.817v10.653z"/><path data-name="路径 14877" d="M184.34 208.71a19.148 19.148 0 01-8.175 1.81 19.6 19.6 0 01-7.57-1.542c-7.371-3.083-11.123-9.38-11.123-17.287v-13.8c0-7.974 3.685-14.339 11.19-17.354a20.778 20.778 0 017.5-1.474 19.682 19.682 0 017.572 1.608c7.236 3.149 10.72 9.447 10.72 17.22v13.8c.003 7.438-3.146 13.803-10.114 17.019zm-2.545-31.155c0-3.887-1.274-7.37-5.829-7.37-4.356 0-5.829 3.618-5.829 7.37v14.471c0 3.82 1.473 7.37 5.829 7.37 4.555 0 5.829-3.483 5.829-7.37z"/></g></g></g></g></svg>