<svg xmlns="http://www.w3.org/2000/svg" xmlns:xlink="http://www.w3.org/1999/xlink" viewBox="0 0 224.06 135.92"><defs><style>.cls-1{fill:none;}.cls-2{fill:#20f4ad;}.cls-3{clip-path:url(#clip-path);}.cls-4{fill:#4444fd;}.cls-5{isolation:isolate;}.cls-6{fill:#fff;}</style><clipPath id="clip-path"><path class="cls-1" d="M179.86,50a41.58,41.58,0,0,0-58.72-.12l-5.68,5.63,20.23,20.26,5.65-5.59a12.9,12.9,0,1,1,0,18.24h0L102.88,49.87a41.19,41.19,0,0,0-29.34-12.2h-.08a41.52,41.52,0,1,0,29.3,71l5.75-5.69L88.3,82.66l-5.73,5.66a12.9,12.9,0,1,1,0-18.25l29.69,29.8,8.73,8.76a41.53,41.53,0,0,0,59.1-58.37c-.09-.09-.18-.17-.26-.26Z"/></clipPath></defs><g id="图层_2" data-name="图层 2"><g id="图层_1-2" data-name="图层 1"><g id="组_4289" data-name="组 4289"><g id="组_4255" data-name="组 4255"><path id="路径_13666" data-name="路径 13666" class="cls-2" d="M121.14,49.88l-5.68,5.63,20.23,20.26,5.65-5.59a12.9,12.9,0,1,1,0,18.24h0L102.88,49.87a41.19,41.19,0,0,0-29.34-12.2h-.08a41.52,41.52,0,1,0,29.3,71l5.75-5.69L88.3,82.66l-5.73,5.66a12.9,12.9,0,1,1,0-18.25l29.69,29.8,8.73,8.76a41.53,41.53,0,1,0,.12-58.75Z"/></g><g id="组_4258" data-name="组 4258"><g class="cls-3"><g id="组_4257" data-name="组 4257"><g id="组_4256" data-name="组 4256"><path id="路径_13667" data-name="路径 13667" class="cls-4" d="M142.23,96.69a5,5,0,0,0,2.65-4c0-1.46-1.17-2-2.65-1.27a4.55,4.55,0,0,0-2.64,3.72A1.71,1.71,0,0,0,141.14,97,1.74,1.74,0,0,0,142.23,96.69Z"/><path id="路径_13668" data-name="路径 13668" class="cls-4" d="M138.21,95.26a3.94,3.94,0,0,0,2.63-3.54c0-1.45-1.16-2.14-2.63-1.73a3.53,3.53,0,0,0-2.64,3.19,2.06,2.06,0,0,0,2.64,2.08Z"/><path id="路径_13669" data-name="路径 13669" class="cls-4" d="M136.67,90.89a3.56,3.56,0,0,0,2.63-3.33,2,2,0,0,0-1.94-2,1.82,1.82,0,0,0-.69.11,3.19,3.19,0,0,0-2.63,3,2.21,2.21,0,0,0,2.1,2.32A1.9,1.9,0,0,0,136.67,90.89Z"/><path id="路径_13670" data-name="路径 13670" class="cls-4" d="M148.45,96.63a5.85,5.85,0,0,0,2.4-4.13c0-1.32-1.06-1.59-2.4-.67a5.58,5.58,0,0,0-2.4,4C146.05,97.12,147.14,97.54,148.45,96.63Z"/><path id="路径_13671" data-name="路径 13671" class="cls-4" d="M143.46,100.19a4.78,4.78,0,0,0,2.4-3.75c0-1.32-1.06-1.74-2.4-1a4.45,4.45,0,0,0-2.4,3.52C141.06,100.24,142.15,100.87,143.46,100.19Z"/><path id="路径_13672" data-name="路径 13672" class="cls-4" d="M138.68,100.6a3.63,3.63,0,0,0,2.39-3.24c0-1.32-1.06-1.94-2.39-1.54a3.34,3.34,0,0,0-2.39,3A1.81,1.81,0,0,0,138,100.7,1.83,1.83,0,0,0,138.68,100.6Z"/><path id="路径_13673" data-name="路径 13673" class="cls-4" d="M135,98a2.88,2.88,0,0,0,2.39-2.8,2,2,0,0,0-2.39-2,2.6,2.6,0,0,0-2.39,2.5A2.21,2.21,0,0,0,134.7,98Z"/><path id="路径_13674" data-name="路径 13674" class="cls-4" d="M132.91,93.53A2.51,2.51,0,0,0,135.28,91a2.38,2.38,0,0,0-4.75,0A2.49,2.49,0,0,0,132.91,93.53Z"/><path id="路径_13675" data-name="路径 13675" class="cls-4" d="M132.91,88.51A2.52,2.52,0,0,0,135.28,86a2.38,2.38,0,0,0-4.75,0A2.49,2.49,0,0,0,132.91,88.51Z"/><path id="路径_13676" data-name="路径 13676" class="cls-4" d="M135,83.81A2.88,2.88,0,0,0,137.33,81a2,2,0,0,0-2.38-2,2.6,2.6,0,0,0-2.38,2.5,2.2,2.2,0,0,0,2.13,2.26Z"/><path id="路径_13677" data-name="路径 13677" class="cls-4" d="M160.82,75.23a5.71,5.71,0,0,0,2.14-3.8c0-1.19-1-1.42-2.14-.49a5.82,5.82,0,0,0-2.14,3.85C158.68,76,159.63,76.16,160.82,75.23Z"/><path id="路径_13678" data-name="路径 13678" class="cls-4" d="M160,80.84A5.77,5.77,0,0,0,162.18,77c0-1.19-1-1.41-2.15-.46a5.85,5.85,0,0,0-2.15,3.89C157.88,81.61,158.84,81.79,160,80.84Z"/><path id="路径_13679" data-name="路径 13679" class="cls-4" d="M157.74,87.17a6,6,0,0,0,2.16-3.89c0-1.19-1-1.38-2.16-.42a6,6,0,0,0-2.15,3.9C155.59,88,156.55,88.13,157.74,87.17Z"/><path id="路径_13680" data-name="路径 13680" class="cls-4" d="M154.18,93.61a5.91,5.91,0,0,0,2.16-3.89c0-1.19-1-1.37-2.16-.42A5.83,5.83,0,0,0,152,93.15C152,94.34,153,94.56,154.18,93.61Z"/><path id="路径_13681" data-name="路径 13681" class="cls-4" d="M149.69,99.33a5.45,5.45,0,0,0,2.16-3.76c0-1.18-1-1.41-2.16-.54a5.22,5.22,0,0,0-2.15,3.64C147.54,99.86,148.51,100.19,149.69,99.33Z"/><path id="路径_13682" data-name="路径 13682" class="cls-4" d="M144.72,103.34a4.5,4.5,0,0,0,2.14-3.44c0-1.18-1-1.52-2.14-.84a4.23,4.23,0,0,0-2.14,3.26C142.58,103.51,143.55,104,144.72,103.34Z"/><path id="路径_13683" data-name="路径 13683" class="cls-4" d="M139.74,104.86a3.48,3.48,0,0,0,2.15-3c0-1.18-.95-1.7-2.15-1.28a3.21,3.21,0,0,0-2.14,2.79,1.52,1.52,0,0,0,2.14,1.49Z"/><path id="路径_13684" data-name="路径 13684" class="cls-4" d="M135.26,103.66a2.64,2.64,0,0,0,2.14-2.54,1.77,1.77,0,0,0-1.74-1.79,1.81,1.81,0,0,0-.4,0,2.41,2.41,0,0,0-2.15,2.3,1.94,1.94,0,0,0,1.87,2Z"/><path id="路径_13685" data-name="路径 13685" class="cls-4" d="M131.69,100.2a2.09,2.09,0,0,0,2.14-2v-.09a2.2,2.2,0,0,0-2.14-2.14,1.9,1.9,0,0,0-2.11,1.64,2.11,2.11,0,0,0,0,.25A2.4,2.4,0,0,0,131.69,100.2Z"/><path id="路径_13686" data-name="路径 13686" class="cls-4" d="M129.41,95.44a1.8,1.8,0,0,0,2.1-1.47,1.29,1.29,0,0,0,0-.39,2.53,2.53,0,0,0-2.13-2.4,1.67,1.67,0,0,0-2.07,1.12,1.46,1.46,0,0,0-.06.51A2.76,2.76,0,0,0,129.41,95.44Z"/><path id="路径_13687" data-name="路径 13687" class="cls-4" d="M128.62,90.3A1.73,1.73,0,0,0,130.7,89a1.91,1.91,0,0,0,0-.48,2.66,2.66,0,0,0-2.12-2.47,1.58,1.58,0,0,0-2,1,1.41,1.41,0,0,0-.09.58A2.91,2.91,0,0,0,128.62,90.3Z"/><path id="路径_13688" data-name="路径 13688" class="cls-4" d="M129.41,85.48A1.8,1.8,0,0,0,131.5,84a1.75,1.75,0,0,0,0-.4,2.54,2.54,0,0,0-2.12-2.38,1.66,1.66,0,0,0-2.06,1.12,1.7,1.7,0,0,0-.06.51A2.75,2.75,0,0,0,129.41,85.48Z"/><path id="路径_13689" data-name="路径 13689" class="cls-4" d="M131.69,81.27a2.06,2.06,0,0,0,2.12-2,.14.14,0,0,0,0-.09A2.16,2.16,0,0,0,131.69,77a1.88,1.88,0,0,0-2.1,1.63,1.94,1.94,0,0,0,0,.24A2.41,2.41,0,0,0,131.69,81.27Z"/><path id="路径_13690" data-name="路径 13690" class="cls-4" d="M135.26,77.59a2.62,2.62,0,0,0,2.12-2.51,1.75,1.75,0,0,0-1.73-1.77,1.71,1.71,0,0,0-.39,0,2.39,2.39,0,0,0-2.13,2.28,1.93,1.93,0,0,0,1.86,2Z"/><path id="路径_13691" data-name="路径 13691" class="cls-4" d="M139.74,74.22a3.43,3.43,0,0,0,2.12-3c0-1.17-.93-1.68-2.12-1.27a3.19,3.19,0,0,0-2.12,2.76,1.53,1.53,0,0,0,1.4,1.62A1.59,1.59,0,0,0,139.74,74.22Z"/><path id="路径_13692" data-name="路径 13692" class="cls-4" d="M144.72,71.12a4.46,4.46,0,0,0,2.12-3.4c0-1.17-.94-1.5-2.12-.83a4.2,4.2,0,0,0-2.12,3.23C142.6,71.29,143.56,71.78,144.72,71.12Z"/><path id="路径_13693" data-name="路径 13693" class="cls-4" d="M149.69,68.69A5.39,5.39,0,0,0,151.83,65c0-1.18-1-1.4-2.14-.54A5.21,5.21,0,0,0,147.56,68C147.56,69.21,148.52,69.53,149.69,68.69Z"/><path id="路径_13694" data-name="路径 13694" class="cls-4" d="M154.18,67.54a5.83,5.83,0,0,0,2.13-3.85c0-1.18-.95-1.36-2.13-.41a5.73,5.73,0,0,0-2.13,3.8C152.05,68.26,153,68.47,154.18,67.54Z"/><path id="路径_13695" data-name="路径 13695" class="cls-4" d="M157.74,68.23a5.92,5.92,0,0,0,2.15-3.87c0-1.18-1-1.37-2.15-.42a6,6,0,0,0-2.14,3.89C155.6,69,156.56,69.19,157.74,68.23Z"/><path id="路径_13696" data-name="路径 13696" class="cls-4" d="M160,70.88a5.77,5.77,0,0,0,2.14-3.83c0-1.18-1-1.4-2.14-.46a5.86,5.86,0,0,0-2.14,3.87C157.89,71.64,158.84,71.82,160,70.88Z"/><path id="路径_13697" data-name="路径 13697" class="cls-4" d="M164.84,72a4.56,4.56,0,0,0,1.9-3.2c0-1-.85-1.34-1.9-.6a4.75,4.75,0,0,0-1.9,3.28C163,72.49,163.79,72.7,164.84,72Z"/><path id="路径_13698" data-name="路径 13698" class="cls-4" d="M164.21,77.41a4.66,4.66,0,0,0,1.9-3.23c0-1.05-.85-1.32-1.9-.57a4.85,4.85,0,0,0-1.9,3.32C162.31,78,163.16,78.17,164.21,77.41Z"/><path id="路径_13699" data-name="路径 13699" class="cls-4" d="M162.35,83.48a4.89,4.89,0,0,0,1.9-3.31c0-1-.85-1.28-1.9-.48a5,5,0,0,0-1.9,3.37C160.46,84.11,161.3,84.29,162.35,83.48Z"/><path id="路径_13700" data-name="路径 13700" class="cls-4" d="M159.39,89.9a5.23,5.23,0,0,0,1.9-3.41c0-1-.85-1.23-1.9-.39a5.22,5.22,0,0,0-1.9,3.44C157.49,90.58,158.34,90.74,159.39,89.9Z"/><path id="路径_13701" data-name="路径 13701" class="cls-4" d="M155.5,96.26a5.22,5.22,0,0,0,1.9-3.44c0-1-.85-1.2-1.9-.36a5.25,5.25,0,0,0-1.9,3.42C153.61,96.93,154.46,97.11,155.5,96.26Z"/><path id="路径_13702" data-name="路径 13702" class="cls-4" d="M150.94,102a4.91,4.91,0,0,0,1.9-3.35c0-1-.85-1.23-1.9-.45a4.79,4.79,0,0,0-1.9,3.28C149,102.52,149.9,102.77,150.94,102Z"/><path id="路径_13703" data-name="路径 13703" class="cls-4" d="M146,106.34a4.19,4.19,0,0,0,1.9-3.12c0-1-.84-1.32-1.9-.68a4.05,4.05,0,0,0-1.9,3C144.09,106.59,144.94,107,146,106.34Z"/><path id="路径_13704" data-name="路径 13704" class="cls-4" d="M141,108.62a3.31,3.31,0,0,0,1.9-2.76c0-1-.84-1.47-1.9-1a3.07,3.07,0,0,0-1.9,2.59,1.28,1.28,0,0,0,1.17,1.37A1.33,1.33,0,0,0,141,108.62Z"/><path id="路径_13705" data-name="路径 13705" class="cls-4" d="M136.15,108.45a2.44,2.44,0,0,0,1.89-2.3,1.49,1.49,0,0,0-1.45-1.52,1.3,1.3,0,0,0-.44.05,2.26,2.26,0,0,0-1.89,2.12,1.61,1.61,0,0,0,1.55,1.67A1.3,1.3,0,0,0,136.15,108.45Z"/><path id="路径_13706" data-name="路径 13706" class="cls-4" d="M131.89,106a1.85,1.85,0,0,0,1.89-1.82v-.06a1.94,1.94,0,0,0-1.89-1.89,1.71,1.71,0,0,0-1.88,1.52c0,.06,0,.12,0,.18A2.09,2.09,0,0,0,131.89,106Z"/><path id="路径_13707" data-name="路径 13707" class="cls-4" d="M128.44,101.84a1.5,1.5,0,0,0,1.83-1.07,1.44,1.44,0,0,0,0-.46,2.41,2.41,0,0,0-1.87-2.22,1.4,1.4,0,0,0-1.79.84,1.54,1.54,0,0,0-.09.52A2.6,2.6,0,0,0,128.44,101.84Z"/><path id="路径_13708" data-name="路径 13708" class="cls-4" d="M126,96.72a1.34,1.34,0,0,0,1.76-.67,1.28,1.28,0,0,0,.11-.64A2.79,2.79,0,0,0,126,93c-1.05-.37-1.88.1-1.88,1.14A3,3,0,0,0,126,96.72Z"/><path id="路径_13709" data-name="路径 13709" class="cls-4" d="M124.75,91.36a1.26,1.26,0,0,0,1.72-.48,1.28,1.28,0,0,0,.16-.71,3,3,0,0,0-1.88-2.56c-1-.42-1.87,0-1.87,1A3.25,3.25,0,0,0,124.75,91.36Z"/><path id="路径_13710" data-name="路径 13710" class="cls-4" d="M124.75,86.31a1.26,1.26,0,0,0,1.88-1.19,3,3,0,0,0-1.88-2.56c-1-.42-1.87,0-1.87,1A3.24,3.24,0,0,0,124.75,86.31Z"/><path id="路径_13711" data-name="路径 13711" class="cls-4" d="M126,81.89a1.32,1.32,0,0,0,1.75-.66,1.28,1.28,0,0,0,.11-.64A2.79,2.79,0,0,0,126,78.16c-1-.36-1.87.1-1.87,1.14A3,3,0,0,0,126,81.89Z"/><path id="路径_13712" data-name="路径 13712" class="cls-4" d="M128.44,78.17a1.49,1.49,0,0,0,1.82-1.08,1.64,1.64,0,0,0,0-.44,2.39,2.39,0,0,0-1.86-2.2,1.38,1.38,0,0,0-1.78.82,1.6,1.6,0,0,0-.09.53A2.58,2.58,0,0,0,128.44,78.17Z"/><path id="路径_13713" data-name="路径 13713" class="cls-4" d="M131.89,75a1.82,1.82,0,0,0,1.86-1.8v-.06a1.89,1.89,0,0,0-1.86-1.87,1.67,1.67,0,0,0-1.85,1.5,1.09,1.09,0,0,0,0,.18A2.06,2.06,0,0,0,131.89,75Z"/><path id="路径_13714" data-name="路径 13714" class="cls-4" d="M136.15,72A2.4,2.4,0,0,0,138,69.73a1.46,1.46,0,0,0-1.43-1.5,1.58,1.58,0,0,0-.43,0,2.22,2.22,0,0,0-1.86,2.1A1.57,1.57,0,0,0,135.81,72,1.3,1.3,0,0,0,136.15,72Z"/><path id="路径_13715" data-name="路径 13715" class="cls-4" d="M141,69.06a3.25,3.25,0,0,0,1.87-2.72c0-1-.83-1.46-1.87-1a3,3,0,0,0-1.88,2.55,1.27,1.27,0,0,0,1.16,1.36A1.29,1.29,0,0,0,141,69.06Z"/><path id="路径_13716" data-name="路径 13716" class="cls-4" d="M146,66.15a4.2,4.2,0,0,0,1.88-3.08c0-1-.83-1.31-1.88-.67a3.94,3.94,0,0,0-1.87,3C144.11,66.39,145,66.78,146,66.15Z"/><path id="路径_13717" data-name="路径 13717" class="cls-4" d="M150.94,63.69a4.85,4.85,0,0,0,1.87-3.31c0-1-.83-1.22-1.87-.44a4.79,4.79,0,0,0-1.88,3.24C149.06,64.22,149.91,64.46,150.94,63.69Z"/><path id="路径_13718" data-name="路径 13718" class="cls-4" d="M155.5,62.25a5.16,5.16,0,0,0,1.88-3.4c0-1-.84-1.19-1.88-.35a5.13,5.13,0,0,0-1.87,3.38C153.63,62.92,154.46,63.09,155.5,62.25Z"/><path id="路径_13719" data-name="路径 13719" class="cls-4" d="M159.39,62.33A5.15,5.15,0,0,0,161.28,59c0-1-.85-1.23-1.89-.39A5.18,5.18,0,0,0,157.5,62C157.5,63,158.34,63.17,159.39,62.33Z"/><path id="路径_13720" data-name="路径 13720" class="cls-4" d="M162.35,64.08a4.87,4.87,0,0,0,1.89-3.29c0-1-.85-1.27-1.89-.48a5,5,0,0,0-1.88,3.36C160.47,64.71,161.31,64.88,162.35,64.08Z"/><path id="路径_13721" data-name="路径 13721" class="cls-4" d="M164.21,67.4a4.66,4.66,0,0,0,1.9-3.23c0-1.05-.85-1.32-1.9-.57a4.85,4.85,0,0,0-1.9,3.32C162.31,68,163.16,68.16,164.21,67.4Z"/><path id="路径_13722" data-name="路径 13722" class="cls-4" d="M168.87,69.07a3.36,3.36,0,0,0,1.64-2.55c0-.91-.74-1.26-1.64-.73a3.47,3.47,0,0,0-1.64,2.64C167.23,69.34,168,69.6,168.87,69.07Z"/><path id="路径_13723" data-name="路径 13723" class="cls-4" d="M168.34,74.4A3.42,3.42,0,0,0,170,71.82c0-.91-.74-1.24-1.64-.7a3.59,3.59,0,0,0-1.64,2.68C166.7,74.7,167.43,75,168.34,74.4Z"/><path id="路径_13724" data-name="路径 13724" class="cls-4" d="M166.78,80.19a3.66,3.66,0,0,0,1.64-2.67c0-.91-.74-1.2-1.64-.61a3.84,3.84,0,0,0-1.64,2.75C165.14,80.57,165.87,80.79,166.78,80.19Z"/><path id="路径_13725" data-name="路径 13725" class="cls-4" d="M164.26,86.31a4.07,4.07,0,0,0,1.64-2.8c0-.91-.74-1.14-1.64-.49a4.12,4.12,0,0,0-1.64,2.86C162.62,86.79,163.35,87,164.26,86.31Z"/><path id="路径_13726" data-name="路径 13726" class="cls-4" d="M160.88,92.62a4.36,4.36,0,0,0,1.64-2.91c0-.91-.74-1.08-1.64-.37a4.39,4.39,0,0,0-1.64,3C159.24,93.2,160,93.34,160.88,92.62Z"/><path id="路径_13727" data-name="路径 13727" class="cls-4" d="M156.79,98.88a4.54,4.54,0,0,0,1.64-3c0-.91-.73-1-1.64-.31a4.52,4.52,0,0,0-1.64,3C155.15,99.47,155.89,99.61,156.79,98.88Z"/><path id="路径_13728" data-name="路径 13728" class="cls-4" d="M152.18,104.61a4.3,4.3,0,0,0,1.64-2.92c0-.91-.73-1.06-1.64-.36a4.32,4.32,0,0,0-1.64,2.89C150.54,105.12,151.28,105.31,152.18,104.61Z"/><path id="路径_13729" data-name="路径 13729" class="cls-4" d="M147.24,109.22a3.78,3.78,0,0,0,1.64-2.76c0-.9-.72-1.12-1.64-.52a3.69,3.69,0,0,0-1.64,2.66C145.6,109.51,146.34,109.81,147.24,109.22Z"/><path id="路径_13730" data-name="路径 13730" class="cls-4" d="M142.2,112.06a3,3,0,0,0,1.64-2.46c0-.9-.73-1.24-1.64-.82a2.87,2.87,0,0,0-1.64,2.34C140.55,112,141.3,112.48,142.2,112.06Z"/><path id="路径_13731" data-name="路径 13731" class="cls-4" d="M137.26,112.74a2.26,2.26,0,0,0,1.64-2.08,1.22,1.22,0,0,0-1.18-1.27,1,1,0,0,0-.46.07,2.11,2.11,0,0,0-1.65,2,1.31,1.31,0,0,0,1.24,1.37A1.15,1.15,0,0,0,137.26,112.74Z"/><path id="路径_13732" data-name="路径 13732" class="cls-4" d="M132.64,111.19a1.66,1.66,0,0,0,1.63-1.68,1.58,1.58,0,0,0-1.6-1.58h0A1.55,1.55,0,0,0,131,109.4s0,0,0,.07A1.72,1.72,0,0,0,132.64,111.19Z"/><path id="路径_13733" data-name="路径 13733" class="cls-4" d="M128.56,107.74a1.31,1.31,0,0,0,1.59-.95,1.26,1.26,0,0,0,0-.39,2.09,2.09,0,0,0-1.63-1.92,1.22,1.22,0,0,0-1.56.75,1.18,1.18,0,0,0-.07.45A2.23,2.23,0,0,0,128.56,107.74Z"/><path id="路径_13734" data-name="路径 13734" class="cls-4" d="M125.18,103a1.11,1.11,0,0,0,1.5-.46,1,1,0,0,0,.13-.6,2.58,2.58,0,0,0-1.63-2.2c-.91-.35-1.63,0-1.63.93A2.75,2.75,0,0,0,125.18,103Z"/><path id="路径_13735" data-name="路径 13735" class="cls-4" d="M122.66,97.46c.89.45,1.63,0,1.63-.87a3,3,0,0,0-1.63-2.39c-.91-.45-1.63-.13-1.63.77A3.11,3.11,0,0,0,122.66,97.46Z"/><path id="路径_13736" data-name="路径 13736" class="cls-4" d="M121.1,91.82c.88.5,1.61.13,1.61-.76a3.17,3.17,0,0,0-1.61-2.47c-.9-.5-1.62-.23-1.62.66A3.35,3.35,0,0,0,121.1,91.82Z"/><path id="路径_13737" data-name="路径 13737" class="cls-4" d="M120.57,86.5c.89.52,1.62.17,1.62-.73a3.33,3.33,0,0,0-1.62-2.51c-.9-.52-1.62-.26-1.62.64A3.42,3.42,0,0,0,120.57,86.5Z"/><path id="路径_13738" data-name="路径 13738" class="cls-4" d="M121.1,81.78c.88.5,1.61.13,1.61-.76a3.17,3.17,0,0,0-1.61-2.47c-.9-.5-1.62-.24-1.62.66A3.37,3.37,0,0,0,121.1,81.78Z"/><path id="路径_13739" data-name="路径 13739" class="cls-4" d="M122.66,77.81c.88.44,1.61,0,1.62-.87a3,3,0,0,0-1.62-2.37c-.9-.45-1.62-.13-1.62.76A3.1,3.1,0,0,0,122.66,77.81Z"/><path id="路径_13740" data-name="路径 13740" class="cls-4" d="M125.18,74.55a1.1,1.1,0,0,0,1.49-.44,1.18,1.18,0,0,0,.13-.61,2.57,2.57,0,0,0-1.62-2.18c-.9-.35-1.62,0-1.62.93A2.7,2.7,0,0,0,125.18,74.55Z"/><path id="路径_13741" data-name="路径 13741" class="cls-4" d="M128.56,71.84a1.31,1.31,0,0,0,1.58-.94,1.72,1.72,0,0,0,0-.39,2.07,2.07,0,0,0-1.62-1.91,1.22,1.22,0,0,0-1.55.75,1.31,1.31,0,0,0-.07.44A2.22,2.22,0,0,0,128.56,71.84Z"/><path id="路径_13742" data-name="路径 13742" class="cls-4" d="M132.64,69.35a1.66,1.66,0,0,0,1.62-1.67,1.58,1.58,0,0,0-1.59-1.57h0A1.54,1.54,0,0,0,131,67.58v.06A1.7,1.7,0,0,0,132.64,69.35Z"/><path id="路径_13743" data-name="路径 13743" class="cls-4" d="M137.26,66.78a2.23,2.23,0,0,0,1.61-2,1.19,1.19,0,0,0-1.16-1.25,1,1,0,0,0-.45.07,2.08,2.08,0,0,0-1.62,1.92,1.29,1.29,0,0,0,1.22,1.36A1.37,1.37,0,0,0,137.26,66.78Z"/><path id="路径_13744" data-name="路径 13744" class="cls-4" d="M142.19,64a3,3,0,0,0,1.62-2.43c0-.89-.72-1.23-1.62-.81a2.83,2.83,0,0,0-1.61,2.31C140.58,64,141.31,64.42,142.19,64Z"/><path id="路径_13745" data-name="路径 13745" class="cls-4" d="M147.24,61.16a3.72,3.72,0,0,0,1.62-2.72c0-.89-.72-1.11-1.62-.52a3.64,3.64,0,0,0-1.62,2.64C145.63,61.45,146.35,61.74,147.24,61.16Z"/><path id="路径_13746" data-name="路径 13746" class="cls-4" d="M152.18,58.67a4.33,4.33,0,0,0,1.63-2.91c0-.9-.73-1-1.63-.35a4.3,4.3,0,0,0-1.63,2.86C150.55,59.17,151.28,59.36,152.18,58.67Z"/><path id="路径_13747" data-name="路径 13747" class="cls-4" d="M156.79,57a4.46,4.46,0,0,0,1.63-2.95c0-.9-.73-1-1.63-.31a4.59,4.59,0,0,0-1.63,2.95C155.16,57.63,155.89,57.77,156.79,57Z"/><path id="路径_13748" data-name="路径 13748" class="cls-4" d="M160.88,56.72a4.37,4.37,0,0,0,1.63-2.89c0-.9-.73-1.07-1.63-.37a4.37,4.37,0,0,0-1.63,2.93C159.25,57.29,160,57.43,160.88,56.72Z"/><path id="路径_13749" data-name="路径 13749" class="cls-4" d="M164.26,57.91a4,4,0,0,0,1.63-2.78c0-.9-.74-1.13-1.63-.48a4.07,4.07,0,0,0-1.63,2.84C162.63,58.39,163.35,58.56,164.26,57.91Z"/><path id="路径_13750" data-name="路径 13750" class="cls-4" d="M166.78,60.54a3.66,3.66,0,0,0,1.64-2.67c0-.91-.74-1.2-1.64-.61A3.86,3.86,0,0,0,165.14,60C165.14,60.92,165.87,61.14,166.78,60.54Z"/><path id="路径_13751" data-name="路径 13751" class="cls-4" d="M168.34,64.36A3.43,3.43,0,0,0,170,61.78c0-.91-.74-1.24-1.64-.7a3.59,3.59,0,0,0-1.64,2.68C166.7,64.66,167.43,64.91,168.34,64.36Z"/><path id="路径_13752" data-name="路径 13752" class="cls-4" d="M172.89,66.78a2.28,2.28,0,0,0,1.39-1.92.92.92,0,0,0-.84-1,1,1,0,0,0-.55.13,2.41,2.41,0,0,0-1.38,2C171.51,66.78,172.12,67.1,172.89,66.78Z"/><path id="路径_13753" data-name="路径 13753" class="cls-4" d="M172.44,72a2.39,2.39,0,0,0,1.4-2c0-.77-.63-1.16-1.4-.82a2.47,2.47,0,0,0-1.4,2C171.05,72.05,171.67,72.36,172.44,72Z"/><path id="路径_13754" data-name="路径 13754" class="cls-4" d="M171.1,77.51a2.57,2.57,0,0,0,1.4-2c0-.77-.63-1.13-1.4-.75a2.66,2.66,0,0,0-1.4,2.13C169.7,77.62,170.32,77.9,171.1,77.51Z"/><path id="路径_13755" data-name="路径 13755" class="cls-4" d="M168.9,83.25a2.83,2.83,0,0,0,1.4-2.17c0-.77-.62-1.06-1.4-.62a3,3,0,0,0-1.4,2.24C167.51,83.48,168.13,83.7,168.9,83.25Z"/><path id="路径_13756" data-name="路径 13756" class="cls-4" d="M165.94,89.22a3.26,3.26,0,0,0,1.4-2.32c0-.77-.63-1-1.4-.47a3.32,3.32,0,0,0-1.4,2.37C164.54,89.57,165.16,89.75,165.94,89.22Z"/><path id="路径_13757" data-name="路径 13757" class="cls-4" d="M162.29,95.36a3.64,3.64,0,0,0,1.4-2.44c0-.77-.63-.93-1.4-.34a3.63,3.63,0,0,0-1.4,2.47C160.89,95.82,161.51,96,162.29,95.36Z"/><path id="路径_13758" data-name="路径 13758" class="cls-4" d="M158.07,101.49a3.91,3.91,0,0,0,1.4-2.52c0-.77-.63-.89-1.4-.27a3.85,3.85,0,0,0-1.4,2.53C156.68,102,157.3,102.12,158.07,101.49Z"/><path id="路径_13759" data-name="路径 13759" class="cls-4" d="M153.42,107.22a3.76,3.76,0,0,0,1.4-2.5c0-.77-.62-.9-1.4-.29a3.8,3.8,0,0,0-1.4,2.49C152,107.69,152.66,107.83,153.42,107.22Z"/><path id="路径_13760" data-name="路径 13760" class="cls-4" d="M148.5,112a3.33,3.33,0,0,0,1.38-2.36c0-.77-.61-.94-1.38-.4a3.22,3.22,0,0,0-1.38,2.31C147.11,112.33,147.74,112.54,148.5,112Z"/><path id="路径_13761" data-name="路径 13761" class="cls-4" d="M143.45,115.32a2.72,2.72,0,0,0,1.39-2.14c0-.76-.62-1-1.39-.63a2.61,2.61,0,0,0-1.38,2.06C142.07,115.37,142.69,115.71,143.45,115.32Z"/><path id="路径_13762" data-name="路径 13762" class="cls-4" d="M138.45,116.68a2,2,0,0,0,1.38-1.84,1,1,0,0,0-.93-1,.87.87,0,0,0-.45.09,1.93,1.93,0,0,0-1.38,1.74,1,1,0,0,0,1,1.09A1.16,1.16,0,0,0,138.45,116.68Z"/><path id="路径_13763" data-name="路径 13763" class="cls-4" d="M133.65,115.92a1.49,1.49,0,0,0,1.38-1.49,1.27,1.27,0,0,0-1.27-1.28h-.11a1.41,1.41,0,0,0-1.39,1.39,1.36,1.36,0,0,0,1.34,1.38Z"/><path id="路径_13764" data-name="路径 13764" class="cls-4" d="M129.2,113.2a1.15,1.15,0,0,0,1.36-.89.88.88,0,0,0,0-.28,1.69,1.69,0,0,0-1.38-1.6,1.07,1.07,0,0,0-1.34.73,1,1,0,0,0,0,.34A1.82,1.82,0,0,0,129.2,113.2Z"/><path id="路径_13765" data-name="路径 13765" class="cls-4" d="M125.25,108.91a.94.94,0,0,0,1.27-.39.91.91,0,0,0,.11-.51,2.17,2.17,0,0,0-1.38-1.87c-.77-.3-1.39,0-1.39.8A2.33,2.33,0,0,0,125.25,108.91Z"/><path id="路径_13766" data-name="路径 13766" class="cls-4" d="M121.92,103.57c.76.4,1.38.07,1.38-.69a2.64,2.64,0,0,0-1.38-2.06c-.76-.4-1.37-.14-1.37.61A2.73,2.73,0,0,0,121.92,103.57Z"/><path id="路径_13767" data-name="路径 13767" class="cls-4" d="M119.33,97.74c.76.47,1.38.2,1.38-.55a3,3,0,0,0-1.38-2.2c-.76-.48-1.37-.28-1.37.48A3.08,3.08,0,0,0,119.33,97.74Z"/><path id="路径_13768" data-name="路径 13768" class="cls-4" d="M117.56,91.85c.75.51,1.37.29,1.37-.47a3.19,3.19,0,0,0-1.37-2.28c-.76-.51-1.37-.34-1.37.42A3.27,3.27,0,0,0,117.56,91.85Z"/><path id="路径_13769" data-name="路径 13769" class="cls-4" d="M116.66,86.25c.75.53,1.37.33,1.37-.43a3.31,3.31,0,0,0-1.37-2.31c-.76-.54-1.37-.38-1.38.38A3.41,3.41,0,0,0,116.66,86.25Z"/><path id="路径_13770" data-name="路径 13770" class="cls-4" d="M116.65,81.19c.75.53,1.36.32,1.36-.43a3.27,3.27,0,0,0-1.36-2.3c-.75-.53-1.36-.37-1.36.38A3.35,3.35,0,0,0,116.65,81.19Z"/><path id="路径_13771" data-name="路径 13771" class="cls-4" d="M117.56,76.85c.75.5,1.36.28,1.36-.47a3.17,3.17,0,0,0-1.36-2.26c-.76-.51-1.36-.34-1.36.41A3.25,3.25,0,0,0,117.56,76.85Z"/><path id="路径_13772" data-name="路径 13772" class="cls-4" d="M119.33,73.28c.75.46,1.37.2,1.37-.55a3,3,0,0,0-1.37-2.18c-.75-.47-1.36-.27-1.36.48A3.08,3.08,0,0,0,119.33,73.28Z"/><path id="路径_13773" data-name="路径 13773" class="cls-4" d="M121.93,70.44c.74.39,1.36.07,1.36-.68a2.65,2.65,0,0,0-1.36-2.05c-.76-.4-1.37-.14-1.37.61A2.71,2.71,0,0,0,121.93,70.44Z"/><path id="路径_13774" data-name="路径 13774" class="cls-4" d="M125.25,68.16a.92.92,0,0,0,1.25-.38.89.89,0,0,0,.11-.51,2.16,2.16,0,0,0-1.36-1.84c-.76-.29-1.36,0-1.36.8A2.27,2.27,0,0,0,125.25,68.16Z"/><path id="路径_13775" data-name="路径 13775" class="cls-4" d="M129.2,66.15a1.13,1.13,0,0,0,1.34-.87,1.37,1.37,0,0,0,0-.29,1.68,1.68,0,0,0-1.36-1.57,1.06,1.06,0,0,0-1.32.73.91.91,0,0,0,0,.33A1.77,1.77,0,0,0,129.2,66.15Z"/><path id="路径_13776" data-name="路径 13776" class="cls-4" d="M133.65,64.08A1.49,1.49,0,0,0,135,62.61a1.27,1.27,0,0,0-1.26-1.26h-.1a1.39,1.39,0,0,0-1.37,1.37,1.33,1.33,0,0,0,1.32,1.35Z"/><path id="路径_13777" data-name="路径 13777" class="cls-4" d="M138.45,61.72a2,2,0,0,0,1.36-1.8,1,1,0,0,0-1.36-.93,1.9,1.9,0,0,0-1.36,1.71,1,1,0,0,0,.95,1.08A1.4,1.4,0,0,0,138.45,61.72Z"/><path id="路径_13778" data-name="路径 13778" class="cls-4" d="M143.45,59a2.66,2.66,0,0,0,1.37-2.1c0-.75-.6-1-1.37-.62a2.6,2.6,0,0,0-1.36,2C142.09,59.06,142.71,59.38,143.45,59Z"/><path id="路径_13779" data-name="路径 13779" class="cls-4" d="M148.5,56.17a3.33,3.33,0,0,0,1.37-2.35c0-.76-.61-.93-1.37-.4a3.21,3.21,0,0,0-1.37,2.29C147.13,56.47,147.75,56.69,148.5,56.17Z"/><path id="路径_13780" data-name="路径 13780" class="cls-4" d="M153.43,53.61a3.76,3.76,0,0,0,1.37-2.47c0-.76-.61-.88-1.37-.28a3.71,3.71,0,0,0-1.38,2.45C152.05,54.07,152.66,54.21,153.43,53.61Z"/><path id="路径_13781" data-name="路径 13781" class="cls-4" d="M158.07,51.85a3.82,3.82,0,0,0,1.38-2.48c0-.76-.62-.88-1.38-.27a3.83,3.83,0,0,0-1.37,2.49C156.7,52.35,157.31,52.46,158.07,51.85Z"/><path id="路径_13782" data-name="路径 13782" class="cls-4" d="M162.29,51.29a3.6,3.6,0,0,0,1.37-2.41c0-.76-.62-.92-1.37-.34A3.63,3.63,0,0,0,160.91,51C160.91,51.74,161.52,51.87,162.29,51.29Z"/><path id="路径_13783" data-name="路径 13783" class="cls-4" d="M165.94,52.12a3.21,3.21,0,0,0,1.37-2.28c0-.75-.62-1-1.37-.46a3.25,3.25,0,0,0-1.38,2.33C164.56,52.47,165.17,52.64,165.94,52.12Z"/><path id="路径_13784" data-name="路径 13784" class="cls-4" d="M168.91,54.34a2.86,2.86,0,0,0,1.38-2.16c0-.76-.62-1-1.38-.61a3,3,0,0,0-1.39,2.23C167.52,54.56,168.14,54.79,168.91,54.34Z"/><path id="路径_13785" data-name="路径 13785" class="cls-4" d="M171.1,57.71a2.54,2.54,0,0,0,1.38-2c0-.77-.62-1.12-1.38-.74a2.67,2.67,0,0,0-1.39,2.11C169.71,57.81,170.33,58.09,171.1,57.71Z"/><path id="路径_13786" data-name="路径 13786" class="cls-4" d="M172.44,61.94A2.34,2.34,0,0,0,173.82,60c0-.76-.62-1.15-1.38-.82a2.46,2.46,0,0,0-1.38,2C171.06,62,171.67,62.28,172.44,61.94Z"/><path id="路径_13787" data-name="路径 13787" class="cls-4" d="M176.92,65.23a1.48,1.48,0,0,0,1.14-1.36.91.91,0,0,0-.86-.95,1.33,1.33,0,0,0-.28,0,1.56,1.56,0,0,0-1.14,1.43.86.86,0,0,0,.83.9A1.12,1.12,0,0,0,176.92,65.23Z"/><path id="路径_13788" data-name="路径 13788" class="cls-4" d="M176.52,70.36A1.49,1.49,0,0,0,177.66,69a.87.87,0,0,0-.83-.92.8.8,0,0,0-.31,0,1.58,1.58,0,0,0-1.13,1.45.84.84,0,0,0,.81.88A.7.7,0,0,0,176.52,70.36Z"/><path id="路径_13789" data-name="路径 13789" class="cls-4" d="M175.34,75.6a1.63,1.63,0,0,0,1.14-1.46.84.84,0,0,0-.78-.88,1.13,1.13,0,0,0-.36.06,1.72,1.72,0,0,0-1.14,1.52.8.8,0,0,0,.77.83A.77.77,0,0,0,175.34,75.6Z"/><path id="路径_13790" data-name="路径 13790" class="cls-4" d="M173.41,80.94a1.84,1.84,0,0,0,1.14-1.55.76.76,0,0,0-.71-.82.72.72,0,0,0-.43.1,1.91,1.91,0,0,0-1.14,1.62C172.27,80.91,172.78,81.19,173.41,80.94Z"/><path id="路径_13791" data-name="路径 13791" class="cls-4" d="M170.77,86.45a2.15,2.15,0,0,0,1.14-1.69c0-.63-.52-.9-1.14-.59a2.2,2.2,0,0,0-1.14,1.75C169.63,86.54,170.14,86.77,170.77,86.45Z"/><path id="路径_13792" data-name="路径 13792" class="cls-4" d="M167.49,92.18a2.52,2.52,0,0,0,1.13-1.84c0-.63-.51-.84-1.13-.44a2.53,2.53,0,0,0-1.14,1.88C166.34,92.41,166.85,92.58,167.49,92.18Z"/><path id="路径_13793" data-name="路径 13793" class="cls-4" d="M163.65,98.11a2.91,2.91,0,0,0,1.14-2c0-.63-.52-.77-1.14-.31a2.9,2.9,0,0,0-1.14,2C162.51,98.46,163,98.57,163.65,98.11Z"/><path id="路径_13794" data-name="路径 13794" class="cls-4" d="M159.34,104.09a3.07,3.07,0,0,0,1.13-2c0-.62-.51-.73-1.13-.22a3.11,3.11,0,0,0-1.14,2.05C158.2,104.5,158.71,104.6,159.34,104.09Z"/><path id="路径_13795" data-name="路径 13795" class="cls-4" d="M154.67,109.81a3.17,3.17,0,0,0,1.14-2.06c0-.63-.51-.73-1.14-.22a3.13,3.13,0,0,0-1.14,2C153.53,110.2,154,110.31,154.67,109.81Z"/><path id="路径_13796" data-name="路径 13796" class="cls-4" d="M149.76,114.77a2.86,2.86,0,0,0,1.13-2c0-.63-.5-.76-1.13-.3a2.79,2.79,0,0,0-1.14,1.94C148.62,115.06,149.13,115.22,149.76,114.77Z"/><path id="路径_13797" data-name="路径 13797" class="cls-4" d="M144.72,118.44a2.39,2.39,0,0,0,1.14-1.81c0-.63-.51-.82-1.14-.47a2.33,2.33,0,0,0-1.14,1.76C143.58,118.55,144.09,118.79,144.72,118.44Z"/><path id="路径_13798" data-name="路径 13798" class="cls-4" d="M139.68,120.37a1.81,1.81,0,0,0,1.14-1.57c0-.63-.51-.93-1.14-.71a1.75,1.75,0,0,0-1.14,1.5.8.8,0,0,0,.75.85A.75.75,0,0,0,139.68,120.37Z"/><path id="路径_13799" data-name="路径 13799" class="cls-4" d="M134.77,120.3A1.32,1.32,0,0,0,135.9,119a1,1,0,0,0-1-1h-.16a1.25,1.25,0,0,0-1.13,1.21,1,1,0,0,0,1,1Z"/><path id="路径_13800" data-name="路径 13800" class="cls-4" d="M130.1,118.27a1,1,0,0,0,1.12-.82c0-.06,0-.12,0-.18A1.33,1.33,0,0,0,130.1,116a.93.93,0,0,0-1.11.72,1.49,1.49,0,0,0,0,.21A1.4,1.4,0,0,0,130.1,118.27Z"/><path id="路径_13801" data-name="路径 13801" class="cls-4" d="M125.79,114.54a.79.79,0,0,0,1.13-.76,1.75,1.75,0,0,0-1.13-1.5c-.62-.22-1.13.07-1.13.7A1.83,1.83,0,0,0,125.79,114.54Z"/><path id="路径_13802" data-name="路径 13802" class="cls-4" d="M122,109.54c.62.33,1.13.07,1.13-.55a2.16,2.16,0,0,0-1.13-1.7c-.63-.33-1.13-.12-1.13.5A2.24,2.24,0,0,0,122,109.54Z"/><path id="路径_13803" data-name="路径 13803" class="cls-4" d="M118.67,103.76c.61.4,1.11.2,1.11-.42a2.47,2.47,0,0,0-1.11-1.81c-.62-.4-1.12-.25-1.12.37A2.55,2.55,0,0,0,118.67,103.76Z"/><path id="路径_13804" data-name="路径 13804" class="cls-4" d="M116,97.64c.61.44,1.11.29,1.11-.33a2.74,2.74,0,0,0-1.11-1.9c-.62-.44-1.12-.32-1.12.3A2.82,2.82,0,0,0,116,97.64Z"/><path id="路径_13805" data-name="路径 13805" class="cls-4" d="M114.09,91.54c.62.47,1.12.34,1.12-.28a2.82,2.82,0,0,0-1.12-2c-.61-.47-1.11-.37-1.11.25A2.93,2.93,0,0,0,114.09,91.54Z"/><path id="路径_13806" data-name="路径 13806" class="cls-4" d="M112.92,85.71c.61.48,1.11.37,1.11-.25a3,3,0,0,0-1.11-2c-.62-.48-1.12-.38-1.12.24A3,3,0,0,0,112.92,85.71Z"/><path id="路径_13807" data-name="路径 13807" class="cls-4" d="M112.52,80.37c.61.48,1.11.37,1.11-.25a3,3,0,0,0-1.11-2c-.62-.48-1.12-.38-1.12.23A3.08,3.08,0,0,0,112.52,80.37Z"/><path id="路径_13808" data-name="路径 13808" class="cls-4" d="M112.92,75.64c.61.48,1.11.36,1.11-.25a2.91,2.91,0,0,0-1.11-2c-.62-.49-1.12-.38-1.12.23A3,3,0,0,0,112.92,75.64Z"/><path id="路径_13809" data-name="路径 13809" class="cls-4" d="M114.09,71.64c.62.47,1.12.34,1.12-.28a2.82,2.82,0,0,0-1.12-2c-.61-.47-1.11-.37-1.11.25A2.93,2.93,0,0,0,114.09,71.64Z"/><path id="路径_13810" data-name="路径 13810" class="cls-4" d="M116,68.39c.61.44,1.1.29,1.1-.32a2.77,2.77,0,0,0-1.1-1.89c-.61-.44-1.1-.31-1.11.3A2.76,2.76,0,0,0,116,68.39Z"/><path id="路径_13811" data-name="路径 13811" class="cls-4" d="M118.67,65.89c.61.4,1.1.2,1.1-.41a2.48,2.48,0,0,0-1.1-1.8c-.61-.4-1.1-.23-1.11.38A2.53,2.53,0,0,0,118.67,65.89Z"/><path id="路径_13812" data-name="路径 13812" class="cls-4" d="M122,64c.61.32,1.1.06,1.11-.55A2.11,2.11,0,0,0,122,61.78c-.61-.33-1.1-.12-1.1.5A2.19,2.19,0,0,0,122,64Z"/><path id="路径_13813" data-name="路径 13813" class="cls-4" d="M125.79,62.41a.77.77,0,0,0,1.11-.73,1.72,1.72,0,0,0-1.11-1.48c-.61-.21-1.1.07-1.1.68A1.77,1.77,0,0,0,125.79,62.41Z"/><path id="路径_13814" data-name="路径 13814" class="cls-4" d="M130.1,60.87a1,1,0,0,0,1.1-1,1.28,1.28,0,0,0-1.1-1.23.91.91,0,0,0-1.08.7,1.49,1.49,0,0,0,0,.21A1.36,1.36,0,0,0,130.1,60.87Z"/><path id="路径_13815" data-name="路径 13815" class="cls-4" d="M134.77,59a1.3,1.3,0,0,0,1.11-1.26,1,1,0,0,0-.95-1,.42.42,0,0,0-.16,0,1.22,1.22,0,0,0-1.12,1.2,1,1,0,0,0,1,1Z"/><path id="路径_13816" data-name="路径 13816" class="cls-4" d="M139.68,56.74a1.78,1.78,0,0,0,1.12-1.53c0-.62-.5-.92-1.12-.7A1.67,1.67,0,0,0,138.57,56a.78.78,0,0,0,.72.84A.76.76,0,0,0,139.68,56.74Z"/><path id="路径_13817" data-name="路径 13817" class="cls-4" d="M144.72,54a2.3,2.3,0,0,0,1.11-1.77c0-.62-.5-.81-1.11-.46a2.26,2.26,0,0,0-1.12,1.72C143.6,54.13,144.11,54.36,144.72,54Z"/><path id="路径_13818" data-name="路径 13818" class="cls-4" d="M149.76,51.14a2.85,2.85,0,0,0,1.11-1.94c0-.62-.5-.74-1.11-.29a2.72,2.72,0,0,0-1.12,1.9C148.64,51.43,149.14,51.58,149.76,51.14Z"/><path id="路径_13819" data-name="路径 13819" class="cls-4" d="M154.67,48.53a3,3,0,0,0,1.11-2c0-.62-.5-.71-1.11-.22a3.08,3.08,0,0,0-1.12,2C153.56,48.92,154.06,49,154.67,48.53Z"/><path id="路径_13820" data-name="路径 13820" class="cls-4" d="M159.34,46.69a3,3,0,0,0,1.11-2c0-.61-.5-.72-1.11-.22a3.08,3.08,0,0,0-1.12,2C158.22,47.09,158.72,47.19,159.34,46.69Z"/><path id="路径_13821" data-name="路径 13821" class="cls-4" d="M163.64,46a2.76,2.76,0,0,0,1.12-1.92c0-.62-.5-.76-1.12-.31a2.87,2.87,0,0,0-1.11,2C162.53,46.32,163,46.44,163.64,46Z"/><path id="路径_13822" data-name="路径 13822" class="cls-4" d="M167.49,46.63a2.46,2.46,0,0,0,1.12-1.82c0-.62-.5-.83-1.12-.43a2.53,2.53,0,0,0-1.13,1.86C166.36,46.86,166.86,47,167.49,46.63Z"/><path id="路径_13823" data-name="路径 13823" class="cls-4" d="M170.77,48.59a2.14,2.14,0,0,0,1.13-1.68c0-.62-.51-.89-1.13-.58a2.17,2.17,0,0,0-1.12,1.73C169.64,48.68,170.14,48.91,170.77,48.59Z"/><path id="路径_13824" data-name="路径 13824" class="cls-4" d="M173.41,51.69a1.82,1.82,0,0,0,1.13-1.54.76.76,0,0,0-.71-.81.79.79,0,0,0-.42.1,1.9,1.9,0,0,0-1.13,1.6C172.28,51.67,172.78,51.94,173.41,51.69Z"/><path id="路径_13825" data-name="路径 13825" class="cls-4" d="M175.34,55.69a1.62,1.62,0,0,0,1.13-1.44.81.81,0,0,0-.77-.87.87.87,0,0,0-.36,0,1.71,1.71,0,0,0-1.13,1.5.8.8,0,0,0,1.13.76Z"/><path id="路径_13826" data-name="路径 13826" class="cls-4" d="M176.52,60.29a1.51,1.51,0,0,0,1.14-1.39.88.88,0,0,0-.83-.93,1.06,1.06,0,0,0-.31,0,1.57,1.57,0,0,0-1.13,1.45.84.84,0,0,0,.81.88A1.13,1.13,0,0,0,176.52,60.29Z"/><path id="路径_13827" data-name="路径 13827" class="cls-4" d="M181,64.48a.88.88,0,1,0,.06-1.76H181a.93.93,0,0,0-.89.92.86.86,0,0,0,.86.85Z"/><path id="路径_13828" data-name="路径 13828" class="cls-4" d="M180.59,69.54a.9.9,0,0,0,.88-.9.86.86,0,0,0-.85-.87h0a.94.94,0,0,0-.88.93.84.84,0,0,0,.83.84Z"/><path id="路径_13829" data-name="路径 13829" class="cls-4" d="M179.54,74.54a1,1,0,0,0,.88-.94.8.8,0,0,0-.79-.82h-.09a1,1,0,0,0-.88,1,.78.78,0,0,0,.77.79Z"/><path id="路径_13830" data-name="路径 13830" class="cls-4" d="M177.81,79.53a1.09,1.09,0,0,0,.88-1,.72.72,0,0,0-.7-.76h-.18a1.13,1.13,0,0,0-.88,1.06.7.7,0,0,0,.67.73Z"/><path id="路径_13831" data-name="路径 13831" class="cls-4" d="M175.44,84.56a1.27,1.27,0,0,0,.88-1.13.65.65,0,0,0-.6-.68.66.66,0,0,0-.28,0,1.31,1.31,0,0,0-.88,1.17.61.61,0,0,0,.59.65A.58.58,0,0,0,175.44,84.56Z"/><path id="路径_13832" data-name="路径 13832" class="cls-4" d="M172.47,89.74a1.48,1.48,0,0,0,.88-1.25c0-.48-.4-.72-.88-.51a1.56,1.56,0,0,0-.88,1.29C171.59,89.75,172,90,172.47,89.74Z"/><path id="路径_13833" data-name="路径 13833" class="cls-4" d="M169,95.18a1.85,1.85,0,0,0,.88-1.38c0-.49-.4-.67-.88-.39a1.85,1.85,0,0,0-.88,1.41C168.08,95.31,168.47,95.46,169,95.18Z"/><path id="路径_13834" data-name="路径 13834" class="cls-4" d="M165,100.87a2.13,2.13,0,0,0,.88-1.5c0-.48-.4-.61-.88-.26a2.13,2.13,0,0,0-.89,1.51C164.09,101.11,164.49,101.22,165,100.87Z"/><path id="路径_13835" data-name="路径 13835" class="cls-4" d="M160.6,106.7a2.37,2.37,0,0,0,.88-1.58c0-.48-.4-.57-.88-.18a2.37,2.37,0,0,0-.88,1.58C159.72,107,160.11,107.08,160.6,106.7Z"/><path id="路径_13836" data-name="路径 13836" class="cls-4" d="M155.91,112.37a2.41,2.41,0,0,0,.88-1.6c0-.49-.39-.56-.88-.16a2.37,2.37,0,0,0-.88,1.59C155,112.69,155.43,112.77,155.91,112.37Z"/><path id="路径_13837" data-name="路径 13837" class="cls-4" d="M151,117.46a2.3,2.3,0,0,0,.88-1.56c0-.48-.39-.57-.88-.21a2.26,2.26,0,0,0-.88,1.54C150.13,117.71,150.52,117.83,151,117.46Z"/><path id="路径_13838" data-name="路径 13838" class="cls-4" d="M146,121.44a2,2,0,0,0,.89-1.43c0-.49-.4-.63-.89-.33a1.91,1.91,0,0,0-.88,1.41C145.1,121.57,145.5,121.74,146,121.44Z"/><path id="路径_13839" data-name="路径 13839" class="cls-4" d="M140.93,123.86a1.48,1.48,0,0,0,.88-1.26c0-.48-.39-.7-.88-.5a1.47,1.47,0,0,0-.88,1.23.59.59,0,0,0,.55.62A.66.66,0,0,0,140.93,123.86Z"/><path id="路径_13840" data-name="路径 13840" class="cls-4" d="M136,124.42a1.11,1.11,0,0,0,.88-1,.71.71,0,0,0-.7-.73.55.55,0,0,0-.18,0,1.08,1.08,0,0,0-.89,1,.75.75,0,0,0,.72.77Z"/><path id="路径_13841" data-name="路径 13841" class="cls-4" d="M131.15,123a.82.82,0,0,0,.88-.74v-.09a1,1,0,0,0-.88-.93.78.78,0,0,0-.88.66v.12A1,1,0,0,0,131.15,123Z"/><path id="路径_13842" data-name="路径 13842" class="cls-4" d="M126.6,119.89a.63.63,0,0,0,.83-.33.72.72,0,0,0,.06-.29,1.3,1.3,0,0,0-.89-1.14.61.61,0,0,0-.82.27.81.81,0,0,0-.06.31A1.34,1.34,0,0,0,126.6,119.89Z"/><path id="路径_13843" data-name="路径 13843" class="cls-4" d="M122.42,115.31c.48.24.87,0,.87-.45a1.65,1.65,0,0,0-.87-1.3c-.49-.24-.87-.07-.87.41A1.65,1.65,0,0,0,122.42,115.31Z"/><path id="路径_13844" data-name="路径 13844" class="cls-4" d="M118.66,109.74c.48.31.87.17.87-.31a1.93,1.93,0,0,0-.87-1.43c-.48-.31-.87-.18-.87.3A2,2,0,0,0,118.66,109.74Z"/><path id="路径_13845" data-name="路径 13845" class="cls-4" d="M115.42,103.62c.48.35.87.24.87-.24a2.2,2.2,0,0,0-.87-1.5c-.49-.35-.87-.26-.87.22A2.15,2.15,0,0,0,115.42,103.62Z"/><path id="路径_13846" data-name="路径 13846" class="cls-4" d="M112.73,97.3c.48.37.87.28.88-.2a2.3,2.3,0,0,0-.88-1.54c-.48-.38-.87-.3-.87.18A2.42,2.42,0,0,0,112.73,97.3Z"/><path id="路径_13847" data-name="路径 13847" class="cls-4" d="M110.68,91c.47.38.86.3.86-.17a2.38,2.38,0,0,0-.86-1.55c-.48-.38-.86-.31-.86.17A2.32,2.32,0,0,0,110.68,91Z"/><path id="路径_13848" data-name="路径 13848" class="cls-4" d="M109.29,85c.47.39.86.31.86-.16a2.45,2.45,0,0,0-.86-1.56c-.48-.38-.86-.31-.86.16A2.36,2.36,0,0,0,109.29,85Z"/><path id="路径_13849" data-name="路径 13849" class="cls-4" d="M108.58,79.47c.48.39.86.31.86-.16a2.36,2.36,0,0,0-.86-1.56c-.47-.38-.86-.31-.86.16A2.38,2.38,0,0,0,108.58,79.47Z"/><path id="路径_13850" data-name="路径 13850" class="cls-4" d="M108.58,74.42c.48.38.86.31.86-.17a2.32,2.32,0,0,0-.86-1.55c-.47-.39-.86-.32-.86.16A2.4,2.4,0,0,0,108.58,74.42Z"/><path id="路径_13851" data-name="路径 13851" class="cls-4" d="M109.29,70c.47.39.86.32.86-.16a2.4,2.4,0,0,0-.86-1.55c-.48-.39-.86-.32-.86.16A2.32,2.32,0,0,0,109.29,70Z"/><path id="路径_13852" data-name="路径 13852" class="cls-4" d="M110.68,66.25c.47.38.86.3.86-.17a2.38,2.38,0,0,0-.86-1.55c-.48-.38-.86-.31-.86.17A2.32,2.32,0,0,0,110.68,66.25Z"/><path id="路径_13853" data-name="路径 13853" class="cls-4" d="M112.73,63.27c.48.37.86.28.86-.19a2.29,2.29,0,0,0-.86-1.53c-.47-.37-.86-.29-.86.18A2.38,2.38,0,0,0,112.73,63.27Z"/><path id="路径_13854" data-name="路径 13854" class="cls-4" d="M115.41,61c.48.34.86.24.86-.24a2.14,2.14,0,0,0-.86-1.48c-.47-.35-.86-.26-.86.22A2.21,2.21,0,0,0,115.41,61Z"/><path id="路径_13855" data-name="路径 13855" class="cls-4" d="M118.66,59.41c.47.3.86.16.86-.32a1.93,1.93,0,0,0-.86-1.4c-.47-.31-.86-.18-.86.29A2,2,0,0,0,118.66,59.41Z"/><path id="路径_13856" data-name="路径 13856" class="cls-4" d="M122.42,58.2c.47.24.86,0,.86-.43a1.63,1.63,0,0,0-.86-1.28c-.48-.25-.86-.07-.86.4A1.64,1.64,0,0,0,122.42,58.2Z"/><path id="路径_13857" data-name="路径 13857" class="cls-4" d="M126.61,57.12a.62.62,0,0,0,.81-.32.87.87,0,0,0,0-.28,1.27,1.27,0,0,0-.86-1.11.59.59,0,0,0-.8.28.48.48,0,0,0-.06.28A1.3,1.3,0,0,0,126.61,57.12Z"/><path id="路径_13858" data-name="路径 13858" class="cls-4" d="M131.15,55.84a.78.78,0,0,0,.85-.71.28.28,0,0,0,0-.09.93.93,0,0,0-.86-.91.74.74,0,0,0-.85.65.41.41,0,0,0,0,.11A1,1,0,0,0,131.15,55.84Z"/><path id="路径_13859" data-name="路径 13859" class="cls-4" d="M136,54.1a1.07,1.07,0,0,0,.86-1,.7.7,0,0,0-.68-.72l-.18,0a1,1,0,0,0-.85,1,.71.71,0,0,0,.69.75Z"/><path id="路径_13860" data-name="路径 13860" class="cls-4" d="M140.93,51.79a1.46,1.46,0,0,0,.86-1.23c0-.47-.38-.68-.86-.49a1.44,1.44,0,0,0-.86,1.19.57.57,0,0,0,.53.61A.54.54,0,0,0,140.93,51.79Z"/><path id="路径_13861" data-name="路径 13861" class="cls-4" d="M146,49a1.87,1.87,0,0,0,.86-1.4c0-.47-.38-.61-.86-.32a1.86,1.86,0,0,0-.86,1.37C145.12,49.14,145.51,49.3,146,49Z"/><path id="路径_13862" data-name="路径 13862" class="cls-4" d="M151,46.08a2.21,2.21,0,0,0,.86-1.51c0-.47-.39-.56-.86-.2a2.19,2.19,0,0,0-.86,1.5C150.15,46.34,150.54,46.44,151,46.08Z"/><path id="路径_13863" data-name="路径 13863" class="cls-4" d="M155.91,43.44a2.34,2.34,0,0,0,.86-1.56c0-.47-.38-.54-.86-.16a2.45,2.45,0,0,0-.86,1.56C155.05,43.76,155.44,43.83,155.91,43.44Z"/><path id="路径_13864" data-name="路径 13864" class="cls-4" d="M160.6,41.57a2.37,2.37,0,0,0,.87-1.55c0-.49-.39-.57-.87-.19a2.31,2.31,0,0,0-.87,1.56C159.73,41.87,160.12,42,160.6,41.57Z"/><path id="路径_13865" data-name="路径 13865" class="cls-4" d="M165,40.8a2.16,2.16,0,0,0,.87-1.48c0-.48-.39-.6-.87-.27a2.17,2.17,0,0,0-.88,1.5C164.11,41,164.49,41.14,165,40.8Z"/><path id="路径_13866" data-name="路径 13866" class="cls-4" d="M169,41.33a1.81,1.81,0,0,0,.87-1.37c0-.48-.39-.65-.87-.37a1.79,1.79,0,0,0-.87,1.39C168.09,41.46,168.47,41.61,169,41.33Z"/><path id="路径_13867" data-name="路径 13867" class="cls-4" d="M172.47,43.16a1.49,1.49,0,0,0,.87-1.23c0-.48-.39-.72-.87-.51a1.53,1.53,0,0,0-.87,1.27C171.6,43.17,172,43.37,172.47,43.16Z"/><path id="路径_13868" data-name="路径 13868" class="cls-4" d="M175.44,46.15a1.23,1.23,0,0,0,.87-1.11.64.64,0,0,0-.87-.63,1.29,1.29,0,0,0-.87,1.15.62.62,0,0,0,.58.65A.58.58,0,0,0,175.44,46.15Z"/><path id="路径_13869" data-name="路径 13869" class="cls-4" d="M177.81,50.05a1.07,1.07,0,0,0,.87-1,.72.72,0,0,0-.69-.75.55.55,0,0,0-.18,0,1.11,1.11,0,0,0-.87,1,.7.7,0,0,0,.69.72Z"/><path id="路径_13870" data-name="路径 13870" class="cls-4" d="M179.54,54.57a1,1,0,0,0,.88-.94.8.8,0,0,0-.79-.82h-.09a1,1,0,0,0-.88,1,.77.77,0,0,0,.76.79Z"/><path id="路径_13871" data-name="路径 13871" class="cls-4" d="M180.59,59.45a.89.89,0,0,0,.88-.89.85.85,0,0,0-.85-.87h0a.94.94,0,0,0-.88.93.83.83,0,0,0,.83.83Z"/><path id="路径_13872" data-name="路径 13872" class="cls-4" d="M185,64.59a.5.5,0,0,0,.61-.34.38.38,0,0,0,0-.15.8.8,0,0,0-.62-.76.5.5,0,0,0-.61.37.78.78,0,0,0,0,.14A.8.8,0,0,0,185,64.59Z"/><path id="路径_13873" data-name="路径 13873" class="cls-4" d="M184.65,69.57a.5.5,0,0,0,.61-.35.77.77,0,0,0,0-.15.79.79,0,0,0-.63-.74.51.51,0,0,0-.61.39.3.3,0,0,0,0,.13A.75.75,0,0,0,184.65,69.57Z"/><path id="路径_13874" data-name="路径 13874" class="cls-4" d="M183.7,74.4a.53.53,0,0,0,.63-.43.41.41,0,0,0,0-.11.77.77,0,0,0-.64-.73.57.57,0,0,0-.63.47v.1A.72.72,0,0,0,183.7,74.4Z"/><path id="路径_13875" data-name="路径 13875" class="cls-4" d="M182.14,79.07a.59.59,0,0,0,.64-.54v-.06a.69.69,0,0,0-.64-.67.6.6,0,0,0-.63.58v0A.65.65,0,0,0,182.14,79.07Z"/><path id="路径_13876" data-name="路径 13876" class="cls-4" d="M180,83.67a.69.69,0,0,0,.64-.67.6.6,0,0,0-.6-.6h0a.7.7,0,0,0-.64.69.58.58,0,0,0,.58.58Z"/><path id="路径_13877" data-name="路径 13877" class="cls-4" d="M177.28,88.31a.82.82,0,0,0,.64-.76.51.51,0,0,0-.49-.53.39.39,0,0,0-.15,0,.81.81,0,0,0-.63.77.5.5,0,0,0,.48.52Z"/><path id="路径_13878" data-name="路径 13878" class="cls-4" d="M174.06,93.13a1,1,0,0,0,.64-.86.44.44,0,0,0-.41-.46.45.45,0,0,0-.23,0,1,1,0,0,0-.64.88A.43.43,0,0,0,174.06,93.13Z"/><path id="路径_13879" data-name="路径 13879" class="cls-4" d="M170.37,98.24a1.25,1.25,0,0,0,.64-1c0-.36-.29-.5-.64-.31a1.24,1.24,0,0,0-.63,1C169.74,98.3,170,98.42,170.37,98.24Z"/><path id="路径_13880" data-name="路径 13880" class="cls-4" d="M166.29,103.68a1.49,1.49,0,0,0,.63-1.06c0-.35-.28-.45-.63-.21a1.47,1.47,0,0,0-.64,1.06C165.65,103.82,165.93,103.91,166.29,103.68Z"/><path id="路径_13881" data-name="路径 13881" class="cls-4" d="M161.86,109.33a1.68,1.68,0,0,0,.63-1.13c0-.35-.28-.42-.63-.14a1.64,1.64,0,0,0-.64,1.13C161.22,109.54,161.5,109.6,161.86,109.33Z"/><path id="路径_13882" data-name="路径 13882" class="cls-4" d="M157.16,115a1.77,1.77,0,0,0,.63-1.16c0-.35-.28-.4-.63-.12a1.76,1.76,0,0,0-.64,1.16C156.52,115.18,156.81,115.23,157.16,115Z"/><path id="路径_13883" data-name="路径 13883" class="cls-4" d="M152.26,120.11a1.72,1.72,0,0,0,.63-1.12c0-.34-.28-.4-.63-.13a1.61,1.61,0,0,0-.62,1.1C151.64,120.31,151.92,120.37,152.26,120.11Z"/><path id="路径_13884" data-name="路径 13884" class="cls-4" d="M147.25,124.35a1.43,1.43,0,0,0,.62-1c0-.34-.28-.43-.62-.21a1.44,1.44,0,0,0-.63,1C146.62,124.47,146.9,124.57,147.25,124.35Z"/><path id="路径_13885" data-name="路径 13885" class="cls-4" d="M142.19,127.2a1.13,1.13,0,0,0,.63-.92c0-.34-.28-.49-.63-.33a1.11,1.11,0,0,0-.62.91C141.56,127.2,141.85,127.36,142.19,127.2Z"/><path id="路径_13886" data-name="路径 13886" class="cls-4" d="M137.18,128.31a.83.83,0,0,0,.62-.77.47.47,0,0,0-.46-.5l-.16,0a.83.83,0,0,0-.63.76.49.49,0,0,0,.47.51A.44.44,0,0,0,137.18,128.31Z"/><path id="路径_13887" data-name="路径 13887" class="cls-4" d="M132.28,127.54a.61.61,0,0,0,.63-.6h0a.65.65,0,0,0-.63-.64.6.6,0,0,0-.62.58v0A.65.65,0,0,0,132.28,127.54Z"/><path id="路径_13888" data-name="路径 13888" class="cls-4" d="M127.58,125a.47.47,0,0,0,.6-.28.58.58,0,0,0,0-.19.86.86,0,0,0-.63-.78.46.46,0,0,0-.59.25.32.32,0,0,0,0,.19A.89.89,0,0,0,127.58,125Z"/><path id="路径_13889" data-name="路径 13889" class="cls-4" d="M123.15,120.86c.35.17.63,0,.63-.33a1.16,1.16,0,0,0-.63-.92c-.34-.16-.62,0-.62.32A1.15,1.15,0,0,0,123.15,120.86Z"/><path id="路径_13890" data-name="路径 13890" class="cls-4" d="M119.06,115.59c.34.22.62.11.62-.23a1.37,1.37,0,0,0-.62-1c-.34-.21-.61-.12-.61.22A1.39,1.39,0,0,0,119.06,115.59Z"/><path id="路径_13891" data-name="路径 13891" class="cls-4" d="M115.38,109.6c.34.25.61.17.61-.17a1.57,1.57,0,0,0-.61-1.06c-.34-.25-.62-.18-.62.16A1.58,1.58,0,0,0,115.38,109.6Z"/><path id="路径_13892" data-name="路径 13892" class="cls-4" d="M112.16,103.23c.34.27.61.21.61-.13a1.63,1.63,0,0,0-.61-1.09c-.34-.27-.62-.22-.62.12A1.61,1.61,0,0,0,112.16,103.23Z"/><path id="路径_13893" data-name="路径 13893" class="cls-4" d="M109.45,96.79c.34.28.61.22.61-.12a1.7,1.7,0,0,0-.61-1.11c-.34-.27-.62-.22-.62.12A1.76,1.76,0,0,0,109.45,96.79Z"/><path id="路径_13894" data-name="路径 13894" class="cls-4" d="M107.3,90.47c.33.27.61.22.61-.12a1.7,1.7,0,0,0-.61-1.11c-.34-.27-.62-.22-.62.12A1.65,1.65,0,0,0,107.3,90.47Z"/><path id="路径_13895" data-name="路径 13895" class="cls-4" d="M105.73,84.41c.34.27.62.21.62-.12a1.67,1.67,0,0,0-.62-1.11c-.34-.27-.61-.21-.61.13A1.68,1.68,0,0,0,105.73,84.41Z"/><path id="路径_13896" data-name="路径 13896" class="cls-4" d="M104.78,78.68c.33.26.6.21.6-.13a1.62,1.62,0,0,0-.6-1.08c-.33-.26-.6-.19-.6.13A1.64,1.64,0,0,0,104.78,78.68Z"/><path id="路径_13897" data-name="路径 13897" class="cls-4" d="M104.47,73.39c.33.26.6.2.6-.13a1.64,1.64,0,0,0-.6-1.08c-.33-.26-.6-.2-.6.13A1.64,1.64,0,0,0,104.47,73.39Z"/><path id="路径_13898" data-name="路径 13898" class="cls-4" d="M104.78,68.59c.33.26.6.21.6-.12a1.58,1.58,0,0,0-.6-1.08c-.33-.27-.6-.2-.6.13A1.62,1.62,0,0,0,104.78,68.59Z"/><path id="路径_13899" data-name="路径 13899" class="cls-4" d="M105.73,64.38c.34.26.6.21.6-.12a1.62,1.62,0,0,0-.6-1.09c-.33-.26-.6-.21-.6.13A1.66,1.66,0,0,0,105.73,64.38Z"/><path id="路径_13900" data-name="路径 13900" class="cls-4" d="M107.3,60.83c.33.27.6.22.6-.12a1.7,1.7,0,0,0-.6-1.09c-.34-.27-.6-.22-.6.12A1.66,1.66,0,0,0,107.3,60.83Z"/><path id="路径_13901" data-name="路径 13901" class="cls-4" d="M109.45,58c.33.27.6.22.6-.11a1.66,1.66,0,0,0-.6-1.09c-.34-.27-.6-.22-.6.11A1.62,1.62,0,0,0,109.45,58Z"/><path id="路径_13902" data-name="路径 13902" class="cls-4" d="M112.16,55.91c.33.26.6.2.6-.13a1.66,1.66,0,0,0-.6-1.08c-.34-.26-.6-.21-.6.13A1.62,1.62,0,0,0,112.16,55.91Z"/><path id="路径_13903" data-name="路径 13903" class="cls-4" d="M115.38,54.48c.33.25.6.17.6-.16a1.55,1.55,0,0,0-.6-1c-.34-.25-.6-.18-.6.15A1.51,1.51,0,0,0,115.38,54.48Z"/><path id="路径_13904" data-name="路径 13904" class="cls-4" d="M119.06,53.56c.34.21.6.1.6-.23a1.32,1.32,0,0,0-.6-1c-.33-.21-.6-.12-.6.22A1.39,1.39,0,0,0,119.06,53.56Z"/><path id="路径_13905" data-name="路径 13905" class="cls-4" d="M123.15,52.87c.33.16.6,0,.6-.32a1.08,1.08,0,0,0-.6-.88c-.33-.16-.6,0-.6.3A1.1,1.1,0,0,0,123.15,52.87Z"/><path id="路径_13906" data-name="路径 13906" class="cls-4" d="M127.58,52.11a.46.46,0,0,0,.58-.28.47.47,0,0,0,0-.17.85.85,0,0,0-.6-.76.45.45,0,0,0-.57.25.57.57,0,0,0,0,.18A.87.87,0,0,0,127.58,52.11Z"/><path id="路径_13907" data-name="路径 13907" class="cls-4" d="M132.28,51a.58.58,0,0,0,.6-.58h0a.62.62,0,0,0-.6-.61.57.57,0,0,0-.6.54v0A.64.64,0,0,0,132.28,51Z"/><path id="路径_13908" data-name="路径 13908" class="cls-4" d="M137.18,49.22a.82.82,0,0,0,.6-.75.47.47,0,0,0-.45-.48l-.15,0a.79.79,0,0,0-.6.73.47.47,0,0,0,.45.49A.38.38,0,0,0,137.18,49.22Z"/><path id="路径_13909" data-name="路径 13909" class="cls-4" d="M142.19,46.84a1.1,1.1,0,0,0,.6-.89c0-.33-.27-.47-.6-.32a1.08,1.08,0,0,0-.6.88C141.59,46.84,141.86,47,142.19,46.84Z"/><path id="路径_13910" data-name="路径 13910" class="cls-4" d="M147.25,44a1.41,1.41,0,0,0,.61-1c0-.34-.27-.43-.61-.21a1.4,1.4,0,0,0-.62,1C146.63,44.12,146.91,44.22,147.25,44Z"/><path id="路径_13911" data-name="路径 13911" class="cls-4" d="M152.26,41a1.63,1.63,0,0,0,.61-1.09c0-.34-.27-.4-.61-.14a1.63,1.63,0,0,0-.61,1.09C151.65,41.22,151.92,41.28,152.26,41Z"/><path id="路径_13912" data-name="路径 13912" class="cls-4" d="M157.16,38.36a1.65,1.65,0,0,0,.61-1.11c0-.34-.27-.39-.61-.12a1.67,1.67,0,0,0-.62,1.12C156.54,38.59,156.82,38.64,157.16,38.36Z"/><path id="路径_13913" data-name="路径 13913" class="cls-4" d="M161.86,36.47a1.63,1.63,0,0,0,.61-1.09c0-.34-.27-.4-.61-.14a1.61,1.61,0,0,0-.62,1.09C161.24,36.67,161.52,36.73,161.86,36.47Z"/><path id="路径_13914" data-name="路径 13914" class="cls-4" d="M166.29,35.68a1.42,1.42,0,0,0,.61-1c0-.34-.28-.43-.61-.21a1.46,1.46,0,0,0-.62,1C165.67,35.82,166,35.91,166.29,35.68Z"/><path id="路径_13915" data-name="路径 13915" class="cls-4" d="M170.37,36.19a1.2,1.2,0,0,0,.62-.93c0-.34-.28-.47-.62-.3a1.25,1.25,0,0,0-.61.95C169.76,36.25,170,36.37,170.37,36.19Z"/><path id="路径_13916" data-name="路径 13916" class="cls-4" d="M174.06,38a1,1,0,0,0,.62-.84.43.43,0,0,0-.39-.46.46.46,0,0,0-.23,0,1,1,0,0,0-.63.86C173.43,38,173.71,38.14,174.06,38Z"/><path id="路径_13917" data-name="路径 13917" class="cls-4" d="M177.28,41a.81.81,0,0,0,.63-.74.52.52,0,0,0-.48-.53l-.15,0a.82.82,0,0,0-.62.76.49.49,0,0,0,.47.51Z"/><path id="路径_13918" data-name="路径 13918" class="cls-4" d="M180,44.88a.67.67,0,0,0,.62-.66.57.57,0,0,0-.57-.59h0a.69.69,0,0,0-.63.67.57.57,0,0,0,.57.58Z"/><path id="路径_13919" data-name="路径 13919" class="cls-4" d="M182.14,49.43a.6.6,0,0,0,.63-.54v0a.68.68,0,0,0-.63-.67.59.59,0,0,0-.62.57v0A.65.65,0,0,0,182.14,49.43Z"/><path id="路径_13920" data-name="路径 13920" class="cls-4" d="M183.7,54.37a.52.52,0,0,0,.62-.42.41.41,0,0,0,0-.11.75.75,0,0,0-.63-.72.56.56,0,0,0-.62.46v.1A.71.71,0,0,0,183.7,54.37Z"/><path id="路径_13921" data-name="路径 13921" class="cls-4" d="M184.65,59.49a.51.51,0,0,0,.61-.36.78.78,0,0,0,0-.14.8.8,0,0,0-.63-.75.51.51,0,0,0-.61.39.3.3,0,0,0,0,.13A.77.77,0,0,0,184.65,59.49Z"/><path id="路径_13922" data-name="路径 13922" class="cls-4" d="M189,65.53c.21.08.38,0,.38-.23a.63.63,0,0,0-.38-.53.25.25,0,0,0-.34.09.23.23,0,0,0,0,.14A.63.63,0,0,0,189,65.53Z"/><path id="路径_13923" data-name="路径 13923" class="cls-4" d="M188.7,70.47c.21.07.38,0,.38-.24a.6.6,0,0,0-.38-.52.25.25,0,0,0-.34.09.21.21,0,0,0,0,.15A.6.6,0,0,0,188.7,70.47Z"/><path id="路径_13924" data-name="路径 13924" class="cls-4" d="M187.84,75.14a.26.26,0,0,0,.35-.12.28.28,0,0,0,0-.13.57.57,0,0,0-.38-.51.26.26,0,0,0-.35.12.31.31,0,0,0,0,.13A.6.6,0,0,0,187.84,75.14Z"/><path id="路径_13925" data-name="路径 13925" class="cls-4" d="M186.42,79.56a.29.29,0,0,0,.36-.16.5.5,0,0,0,0-.12.54.54,0,0,0-.38-.48.28.28,0,0,0-.36.17.2.2,0,0,0,0,.11A.52.52,0,0,0,186.42,79.56Z"/><path id="路径_13926" data-name="路径 13926" class="cls-4" d="M184.45,83.79a.32.32,0,0,0,.37-.24.19.19,0,0,0,0-.08.46.46,0,0,0-.38-.44.3.3,0,0,0-.37.24.17.17,0,0,0,0,.07A.48.48,0,0,0,184.45,83.79Z"/><path id="路径_13927" data-name="路径 13927" class="cls-4" d="M182,87.93a.36.36,0,0,0,.38-.34v0a.4.4,0,0,0-.38-.4.35.35,0,0,0-.37.35v0A.39.39,0,0,0,182,87.93Z"/><path id="路径_13928" data-name="路径 13928" class="cls-4" d="M179,92.14a.43.43,0,0,0,.38-.42.33.33,0,0,0-.32-.34H179a.45.45,0,0,0-.38.43.33.33,0,0,0,.33.33Z"/><path id="路径_13929" data-name="路径 13929" class="cls-4" d="M175.58,96.57a.54.54,0,0,0,.37-.49.27.27,0,0,0-.26-.29l-.11,0a.55.55,0,0,0-.38.49.27.27,0,0,0,.25.29A.27.27,0,0,0,175.58,96.57Z"/><path id="路径_13930" data-name="路径 13930" class="cls-4" d="M171.76,101.34a.68.68,0,0,0,.38-.55c0-.21-.17-.3-.38-.2a.68.68,0,0,0-.38.56C171.38,101.35,171.55,101.44,171.76,101.34Z"/><path id="路径_13931" data-name="路径 13931" class="cls-4" d="M167.58,106.5a.84.84,0,0,0,.38-.61c0-.21-.17-.28-.38-.15a.88.88,0,0,0-.38.63C167.2,106.57,167.37,106.64,167.58,106.5Z"/><path id="路径_13932" data-name="路径 13932" class="cls-4" d="M163.11,112a1,1,0,0,0,.38-.66c0-.21-.17-.26-.38-.1a1,1,0,0,0-.38.66C162.73,112.08,162.9,112.13,163.11,112Z"/><path id="路径_13933" data-name="路径 13933" class="cls-4" d="M158.4,117.51a1,1,0,0,0,.38-.69c0-.21-.17-.24-.38-.07a1,1,0,0,0-.38.68C158,117.64,158.19,117.68,158.4,117.51Z"/><path id="路径_13934" data-name="路径 13934" class="cls-4" d="M153.51,122.74a1,1,0,0,0,.38-.68c0-.21-.17-.25-.38-.08a1,1,0,0,0-.38.68C153.13,122.87,153.3,122.9,153.51,122.74Z"/><path id="路径_13935" data-name="路径 13935" class="cls-4" d="M148.51,127.2a.94.94,0,0,0,.38-.65c0-.21-.17-.26-.38-.11a.88.88,0,0,0-.38.64C148.13,127.29,148.3,127.34,148.51,127.2Z"/><path id="路径_13936" data-name="路径 13936" class="cls-4" d="M143.45,130.42a.7.7,0,0,0,.38-.57c0-.21-.17-.29-.38-.18a.75.75,0,0,0-.38.57C143.07,130.45,143.24,130.53,143.45,130.42Z"/><path id="路径_13937" data-name="路径 13937" class="cls-4" d="M138.42,132a.58.58,0,0,0,.38-.5.26.26,0,0,0-.26-.28.17.17,0,0,0-.12,0,.52.52,0,0,0-.38.48.27.27,0,0,0,.26.29A.25.25,0,0,0,138.42,132Z"/><path id="路径_13938" data-name="路径 13938" class="cls-4" d="M133.46,131.82a.38.38,0,0,0,.37-.38.34.34,0,0,0-.35-.35h0a.37.37,0,0,0-.36.37.34.34,0,0,0,.35.36Z"/><path id="路径_13939" data-name="路径 13939" class="cls-4" d="M128.66,129.81a.27.27,0,0,0,.35-.2.14.14,0,0,0,0-.09.48.48,0,0,0-.36-.44.28.28,0,0,0-.36.19.28.28,0,0,0,0,.09A.48.48,0,0,0,128.66,129.81Z"/><path id="路径_13940" data-name="路径 13940" class="cls-4" d="M124.06,126.19c.2.09.37,0,.37-.21a.63.63,0,0,0-.37-.52c-.2-.09-.37,0-.37.2A.65.65,0,0,0,124.06,126.19Z"/><path id="路径_13941" data-name="路径 13941" class="cls-4" d="M119.73,121.3c.2.12.37.06.37-.15a.84.84,0,0,0-.37-.59c-.2-.12-.37-.06-.37.14A.78.78,0,0,0,119.73,121.3Z"/><path id="路径_13942" data-name="路径 13942" class="cls-4" d="M115.72,115.52c.2.14.37.1.37-.1a.9.9,0,0,0-.37-.64c-.2-.15-.36-.1-.36.1A.93.93,0,0,0,115.72,115.52Z"/><path id="路径_13943" data-name="路径 13943" class="cls-4" d="M112.1,109.22c.2.17.37.13.37-.07a1,1,0,0,0-.37-.66c-.2-.16-.37-.13-.37.07A1,1,0,0,0,112.1,109.22Z"/><path id="路径_13944" data-name="路径 13944" class="cls-4" d="M108.9,102.73c.2.17.37.14.37-.06a1,1,0,0,0-.37-.67c-.2-.17-.37-.14-.37.07A1,1,0,0,0,108.9,102.73Z"/><path id="路径_13945" data-name="路径 13945" class="cls-4" d="M106.17,96.26c.2.15.35.12.35-.07a1,1,0,0,0-.35-.65c-.2-.16-.36-.12-.36.07A1,1,0,0,0,106.17,96.26Z"/><path id="路径_13946" data-name="路径 13946" class="cls-4" d="M103.94,90c.2.15.35.12.35-.08a1,1,0,0,0-.35-.63c-.2-.16-.36-.12-.36.08A.93.93,0,0,0,103.94,90Z"/><path id="路径_13947" data-name="路径 13947" class="cls-4" d="M102.24,83.91c.2.14.35.11.35-.09a.88.88,0,0,0-.35-.63c-.2-.14-.36-.1-.36.1A.93.93,0,0,0,102.24,83.91Z"/><path id="路径_13948" data-name="路径 13948" class="cls-4" d="M101.09,78.15c.2.14.36.1.36-.1a.91.91,0,0,0-.36-.62c-.2-.14-.35-.09-.35.1A.86.86,0,0,0,101.09,78.15Z"/><path id="路径_13949" data-name="路径 13949" class="cls-4" d="M100.52,72.72c.2.13.35.09.35-.1a.82.82,0,0,0-.35-.61c-.2-.14-.36-.09-.36.1A.88.88,0,0,0,100.52,72.72Z"/><path id="路径_13950" data-name="路径 13950" class="cls-4" d="M100.52,67.66c.2.14.35.09.35-.1a.84.84,0,0,0-.35-.61c-.2-.14-.36-.09-.36.11A.86.86,0,0,0,100.52,67.66Z"/><path id="路径_13951" data-name="路径 13951" class="cls-4" d="M101.09,63.05c.2.14.36.1.36-.1a.91.91,0,0,0-.36-.62c-.2-.14-.35-.09-.35.1A.86.86,0,0,0,101.09,63.05Z"/><path id="路径_13952" data-name="路径 13952" class="cls-4" d="M102.24,59c.19.14.34.1.34-.09a.9.9,0,0,0-.34-.6c-.19-.14-.35-.1-.35.09A.89.89,0,0,0,102.24,59Z"/><path id="路径_13953" data-name="路径 13953" class="cls-4" d="M103.94,55.48c.19.15.34.11.34-.08a.92.92,0,0,0-.34-.61c-.19-.15-.35-.11-.35.08A.89.89,0,0,0,103.94,55.48Z"/><path id="路径_13954" data-name="路径 13954" class="cls-4" d="M106.17,52.7c.19.16.34.13.34-.06a1,1,0,0,0-.34-.63c-.19-.15-.35-.12-.35.07A.89.89,0,0,0,106.17,52.7Z"/><path id="路径_13955" data-name="路径 13955" class="cls-4" d="M108.9,50.66c.19.16.35.13.35-.06a1,1,0,0,0-.35-.63c-.19-.15-.35-.12-.35.07A1,1,0,0,0,108.9,50.66Z"/><path id="路径_13956" data-name="路径 13956" class="cls-4" d="M112.1,49.33c.19.15.35.12.35-.08a1,1,0,0,0-.35-.62c-.19-.15-.35-.12-.35.08A1,1,0,0,0,112.1,49.33Z"/><path id="路径_13957" data-name="路径 13957" class="cls-4" d="M115.72,48.57c.2.14.35.1.35-.1a.87.87,0,0,0-.35-.6c-.19-.14-.34-.1-.34.1A.84.84,0,0,0,115.72,48.57Z"/><path id="路径_13958" data-name="路径 13958" class="cls-4" d="M119.73,48.18c.19.12.34,0,.34-.14a.74.74,0,0,0-.34-.55c-.19-.12-.35-.06-.35.13A.76.76,0,0,0,119.73,48.18Z"/><path id="路径_13959" data-name="路径 13959" class="cls-4" d="M124.06,47.86c.19.08.34,0,.34-.2a.57.57,0,0,0-.34-.5c-.19-.09-.35,0-.35.19A.63.63,0,0,0,124.06,47.86Z"/><path id="路径_13960" data-name="路径 13960" class="cls-4" d="M128.66,47.28a.27.27,0,0,0,.33-.19.28.28,0,0,0,0-.09.44.44,0,0,0-.34-.41.26.26,0,0,0-.34.18.19.19,0,0,0,0,.08A.46.46,0,0,0,128.66,47.28Z"/><path id="路径_13961" data-name="路径 13961" class="cls-4" d="M133.46,46.16a.36.36,0,0,0,.35-.36.33.33,0,0,0-.33-.33h0a.35.35,0,0,0-.34.35.34.34,0,0,0,.33.34Z"/><path id="路径_13962" data-name="路径 13962" class="cls-4" d="M138.42,44.37a.52.52,0,0,0,.35-.47.26.26,0,0,0-.24-.27l-.11,0a.51.51,0,0,0-.36.46.25.25,0,0,0,.25.27A.22.22,0,0,0,138.42,44.37Z"/><path id="路径_13963" data-name="路径 13963" class="cls-4" d="M143.45,41.89a.68.68,0,0,0,.36-.55c0-.2-.16-.27-.36-.17a.68.68,0,0,0-.35.54C143.1,41.91,143.26,42,143.45,41.89Z"/><path id="路径_13964" data-name="路径 13964" class="cls-4" d="M148.51,39a.82.82,0,0,0,.35-.6c0-.2-.16-.25-.35-.11a.86.86,0,0,0-.36.6C148.15,39,148.31,39.09,148.51,39Z"/><path id="路径_13965" data-name="路径 13965" class="cls-4" d="M153.51,35.93a1,1,0,0,0,.36-.64c0-.2-.16-.23-.36-.07a.93.93,0,0,0-.36.64C153.15,36.05,153.31,36.09,153.51,35.93Z"/><path id="路径_13966" data-name="路径 13966" class="cls-4" d="M158.4,33.27a1,1,0,0,0,.36-.65c0-.2-.16-.22-.36-.06a1,1,0,0,0-.36.64C158,33.4,158.2,33.43,158.4,33.27Z"/><path id="路径_13967" data-name="路径 13967" class="cls-4" d="M163.11,31.4a.93.93,0,0,0,.36-.62c0-.2-.16-.24-.36-.09a.91.91,0,0,0-.36.62C162.75,31.51,162.91,31.55,163.11,31.4Z"/><path id="路径_13968" data-name="路径 13968" class="cls-4" d="M167.58,30.65a.81.81,0,0,0,.36-.58c0-.2-.16-.26-.36-.13a.81.81,0,0,0-.36.58C167.22,30.72,167.38,30.78,167.58,30.65Z"/><path id="路径_13969" data-name="路径 13969" class="cls-4" d="M171.75,31.21a.66.66,0,0,0,.37-.54c0-.2-.16-.29-.37-.2a.69.69,0,0,0-.36.55C171.39,31.22,171.55,31.3,171.75,31.21Z"/><path id="路径_13970" data-name="路径 13970" class="cls-4" d="M175.58,33.06a.54.54,0,0,0,.36-.48.27.27,0,0,0-.25-.28.2.2,0,0,0-.11,0,.54.54,0,0,0-.37.48.27.27,0,0,0,.25.28Z"/><path id="路径_13971" data-name="路径 13971" class="cls-4" d="M179,36.08a.42.42,0,0,0,.37-.41.32.32,0,0,0-.31-.33H179a.45.45,0,0,0-.37.42.32.32,0,0,0,.32.32Z"/><path id="路径_13972" data-name="路径 13972" class="cls-4" d="M182,40.05a.35.35,0,0,0,.37-.33v0a.38.38,0,0,0-.37-.38.34.34,0,0,0-.36.34v0A.38.38,0,0,0,182,40.05Z"/><path id="路径_13973" data-name="路径 13973" class="cls-4" d="M184.45,44.7a.3.3,0,0,0,.36-.22.19.19,0,0,0,0-.08.46.46,0,0,0-.37-.43.31.31,0,0,0-.36.24.17.17,0,0,0,0,.07A.44.44,0,0,0,184.45,44.7Z"/><path id="路径_13974" data-name="路径 13974" class="cls-4" d="M186.42,49.79a.27.27,0,0,0,.35-.16.36.36,0,0,0,0-.11.53.53,0,0,0-.37-.47.28.28,0,0,0-.35.17.2.2,0,0,0,0,.11A.51.51,0,0,0,186.42,49.79Z"/><path id="路径_13975" data-name="路径 13975" class="cls-4" d="M187.84,55.07a.26.26,0,0,0,.34-.11.31.31,0,0,0,0-.13.56.56,0,0,0-.37-.5.25.25,0,0,0-.34.12.28.28,0,0,0,0,.13A.58.58,0,0,0,187.84,55.07Z"/><path id="路径_13976" data-name="路径 13976" class="cls-4" d="M188.7,60.37c.21.08.38,0,.38-.23a.61.61,0,0,0-.38-.53.25.25,0,0,0-.34.1.17.17,0,0,0,0,.14A.59.59,0,0,0,188.7,60.37Z"/><path id="路径_13977" data-name="路径 13977" class="cls-4" d="M193,67.2c.07,0,.12,0,.12,0A.25.25,0,0,0,193,67c-.07,0-.12,0-.12.05A.22.22,0,0,0,193,67.2Z"/><path id="路径_13978" data-name="路径 13978" class="cls-4" d="M192.75,72.1c.07,0,.13,0,.13,0a.28.28,0,0,0-.13-.2c-.06,0-.12,0-.12.06A.25.25,0,0,0,192.75,72.1Z"/><path id="路径_13979" data-name="路径 13979" class="cls-4" d="M192,76.67c.07,0,.13,0,.13,0a.26.26,0,0,0-.13-.19c-.07,0-.12,0-.12.06A.22.22,0,0,0,192,76.67Z"/><path id="路径_13980" data-name="路径 13980" class="cls-4" d="M190.65,80.91c.07,0,.13,0,.13-.06a.23.23,0,0,0-.13-.18c-.06,0-.12,0-.12.06A.24.24,0,0,0,190.65,80.91Z"/><path id="路径_13981" data-name="路径 13981" class="cls-4" d="M188.84,84.86a.09.09,0,0,0,.13-.08.23.23,0,0,0-.13-.17c-.07,0-.12,0-.12.08A.2.2,0,0,0,188.84,84.86Z"/><path id="路径_13982" data-name="路径 13982" class="cls-4" d="M186.55,88.6a.08.08,0,0,0,.11,0,0,0,0,0,0,0,0,.16.16,0,0,0-.12-.16.09.09,0,0,0-.12,0s0,0,0,0A.18.18,0,0,0,186.55,88.6Z"/><path id="路径_13983" data-name="路径 13983" class="cls-4" d="M183.79,92.28a.09.09,0,0,0,.12-.07,0,0,0,0,0,0,0,.15.15,0,0,0-.13-.14.11.11,0,0,0-.12.08v0A.13.13,0,0,0,183.79,92.28Z"/><path id="路径_13984" data-name="路径 13984" class="cls-4" d="M180.61,96.05a.13.13,0,0,0,.13-.12.12.12,0,0,0-.12-.12h0a.12.12,0,0,0-.12.12.12.12,0,0,0,.12.12Z"/><path id="路径_13985" data-name="路径 13985" class="cls-4" d="M177,100.08a.16.16,0,0,0,.12-.15.1.1,0,0,0-.1-.1h0a.16.16,0,0,0-.12.15.09.09,0,0,0,.09.1Z"/><path id="路径_13986" data-name="路径 13986" class="cls-4" d="M173.11,104.51a.21.21,0,0,0,.12-.18c0-.07,0-.1-.12-.07a.19.19,0,0,0-.12.17C173,104.5,173,104.53,173.11,104.51Z"/><path id="路径_13987" data-name="路径 13987" class="cls-4" d="M168.87,109.38a.25.25,0,0,0,.12-.19c0-.07-.05-.09-.12,0a.22.22,0,0,0-.12.19C168.75,109.4,168.8,109.42,168.87,109.38Z"/><path id="路径_13988" data-name="路径 13988" class="cls-4" d="M164.36,114.64a.32.32,0,0,0,.13-.21c0-.07-.06-.08-.13,0a.34.34,0,0,0-.12.22C164.24,114.67,164.3,114.69,164.36,114.64Z"/><path id="路径_13989" data-name="路径 13989" class="cls-4" d="M159.64,120.08a.36.36,0,0,0,.13-.23c0-.06-.06-.07-.13,0a.34.34,0,0,0-.12.22C159.52,120.12,159.58,120.13,159.64,120.08Z"/><path id="路径_13990" data-name="路径 13990" class="cls-4" d="M154.76,125.33a.3.3,0,0,0,.12-.22c0-.06,0-.07-.12,0a.32.32,0,0,0-.12.22C154.64,125.38,154.69,125.39,154.76,125.33Z"/><path id="路径_13991" data-name="路径 13991" class="cls-4" d="M149.77,130a.3.3,0,0,0,.12-.21c0-.07,0-.09-.12,0a.32.32,0,0,0-.13.21C149.64,130,149.7,130,149.77,130Z"/><path id="路径_13992" data-name="路径 13992" class="cls-4" d="M144.72,133.53a.28.28,0,0,0,.12-.2c0-.07-.05-.09-.12-.05a.22.22,0,0,0-.12.19C144.6,133.54,144.65,133.56,144.72,133.53Z"/><path id="路径_13993" data-name="路径 13993" class="cls-4" d="M139.67,135.59a.18.18,0,0,0,.12-.17.07.07,0,0,0-.07-.08h-.05a.19.19,0,0,0-.12.17.08.08,0,0,0,.08.09Z"/><path id="路径_13994" data-name="路径 13994" class="cls-4" d="M134.68,135.92a.13.13,0,0,0,.12-.13.11.11,0,0,0-.11-.11h0a.14.14,0,0,0-.13.13.11.11,0,0,0,.11.11Z"/><path id="路径_13995" data-name="路径 13995" class="cls-4" d="M129.79,134.46a.1.1,0,0,0,.12-.07,0,0,0,0,0,0,0,.16.16,0,0,0-.13-.14.11.11,0,0,0-.12.07v0A.14.14,0,0,0,129.79,134.46Z"/><path id="路径_13996" data-name="路径 13996" class="cls-4" d="M125.07,131.34c.07,0,.13,0,.13-.08a.23.23,0,0,0-.13-.17.08.08,0,0,0-.12.08A.21.21,0,0,0,125.07,131.34Z"/><path id="路径_13997" data-name="路径 13997" class="cls-4" d="M120.57,126.83c.07,0,.12,0,.12,0a.25.25,0,0,0-.12-.19c-.07,0-.12,0-.12,0A.22.22,0,0,0,120.57,126.83Z"/><path id="路径_13998" data-name="路径 13998" class="cls-4" d="M116.33,121.31c.06,0,.11,0,.11,0a.27.27,0,0,0-.11-.19c-.06,0-.11,0-.11,0A.31.31,0,0,0,116.33,121.31Z"/><path id="路径_13999" data-name="路径 13999" class="cls-4" d="M112.4,115.16c.06,0,.11,0,.11,0a.31.31,0,0,0-.11-.2c-.06,0-.11,0-.11,0A.31.31,0,0,0,112.4,115.16Z"/><path id="路径_14000" data-name="路径 14000" class="cls-4" d="M108.83,108.71c.06.05.11,0,.11,0a.31.31,0,0,0-.11-.2c-.07,0-.12,0-.12,0A.28.28,0,0,0,108.83,108.71Z"/><path id="路径_14001" data-name="路径 14001" class="cls-4" d="M105.64,102.21c.07.05.12,0,.12,0a.28.28,0,0,0-.12-.2c-.06,0-.11,0-.11,0A.31.31,0,0,0,105.64,102.21Z"/><path id="路径_14002" data-name="路径 14002" class="cls-4" d="M102.89,95.83c.06,0,.11,0,.11,0a.31.31,0,0,0-.11-.2c-.06,0-.11,0-.11,0A.31.31,0,0,0,102.89,95.83Z"/><path id="路径_14003" data-name="路径 14003" class="cls-4" d="M100.6,89.64c.06,0,.11,0,.11,0a.27.27,0,0,0-.11-.19c-.07,0-.12,0-.12,0A.25.25,0,0,0,100.6,89.64Z"/><path id="路径_14004" data-name="路径 14004" class="cls-4" d="M98.78,83.68c.06,0,.1,0,.1,0a.21.21,0,0,0-.1-.17s-.1,0-.1,0A.27.27,0,0,0,98.78,83.68Z"/><path id="路径_14005" data-name="路径 14005" class="cls-4" d="M97.47,78c.06,0,.1,0,.1,0a.2.2,0,0,0-.1-.16s-.1,0-.1,0A.23.23,0,0,0,97.47,78Z"/><path id="路径_14006" data-name="路径 14006" class="cls-4" d="M96.68,72.51c.06,0,.1,0,.1,0a.18.18,0,0,0-.1-.16c-.05,0-.1,0-.1,0A.25.25,0,0,0,96.68,72.51Z"/><path id="路径_14007" data-name="路径 14007" class="cls-4" d="M96.42,67.31s.1,0,.1,0a.2.2,0,0,0-.1-.15c-.06,0-.1,0-.1,0A.23.23,0,0,0,96.42,67.31Z"/><path id="路径_14008" data-name="路径 14008" class="cls-4" d="M96.68,62.42c.06,0,.1,0,.1-.05a.2.2,0,0,0-.1-.16c-.05,0-.1,0-.1,0A.27.27,0,0,0,96.68,62.42Z"/><path id="路径_14009" data-name="路径 14009" class="cls-4" d="M97.47,57.89c.06,0,.1,0,.1,0a.18.18,0,0,0-.1-.16s-.1,0-.1,0A.27.27,0,0,0,97.47,57.89Z"/><path id="路径_14010" data-name="路径 14010" class="cls-4" d="M98.78,53.83c.06,0,.1,0,.1,0a.21.21,0,0,0-.1-.17s-.1,0-.1,0A.27.27,0,0,0,98.78,53.83Z"/><path id="路径_14011" data-name="路径 14011" class="cls-4" d="M100.59,50.34c.06,0,.1,0,.1,0a.21.21,0,0,0-.1-.17s-.1,0-.1,0A.27.27,0,0,0,100.59,50.34Z"/><path id="路径_14012" data-name="路径 14012" class="cls-4" d="M102.89,47.52c.06,0,.1,0,.1,0a.27.27,0,0,0-.1-.18c-.06,0-.1,0-.1,0A.27.27,0,0,0,102.89,47.52Z"/><path id="路径_14013" data-name="路径 14013" class="cls-4" d="M105.64,45.42c.06,0,.1,0,.1,0a.27.27,0,0,0-.1-.18s-.1,0-.1,0A.29.29,0,0,0,105.64,45.42Z"/><path id="路径_14014" data-name="路径 14014" class="cls-4" d="M108.83,44.06s.1,0,.1,0a.32.32,0,0,0-.1-.18c-.06,0-.1,0-.1,0A.22.22,0,0,0,108.83,44.06Z"/><path id="路径_14015" data-name="路径 14015" class="cls-4" d="M112.4,43.36c.06,0,.1,0,.1,0a.27.27,0,0,0-.1-.18c-.06,0-.1,0-.1,0A.25.25,0,0,0,112.4,43.36Z"/><path id="路径_14016" data-name="路径 14016" class="cls-4" d="M116.33,43.15s.1,0,.1,0a.27.27,0,0,0-.1-.17c-.06,0-.1,0-.1,0A.22.22,0,0,0,116.33,43.15Z"/><path id="路径_14017" data-name="路径 14017" class="cls-4" d="M120.57,43.15c.05,0,.1,0,.1,0a.23.23,0,0,0-.1-.16c-.06,0-.1,0-.1,0A.2.2,0,0,0,120.57,43.15Z"/><path id="路径_14018" data-name="路径 14018" class="cls-4" d="M125.07,43.07a.07.07,0,0,0,.1-.07.16.16,0,0,0-.1-.14.07.07,0,0,0-.1.07A.21.21,0,0,0,125.07,43.07Z"/><path id="路径_14019" data-name="路径 14019" class="cls-4" d="M129.79,42.57a.09.09,0,0,0,.1-.07v0a.11.11,0,0,0-.1-.11.09.09,0,0,0-.1.06v0A.13.13,0,0,0,129.79,42.57Z"/><path id="路径_14020" data-name="路径 14020" class="cls-4" d="M134.68,41.41a.11.11,0,0,0,.1-.11.09.09,0,0,0-.09-.09h0a.12.12,0,0,0-.1.11.09.09,0,0,0,.09.09Z"/><path id="路径_14021" data-name="路径 14021" class="cls-4" d="M139.67,39.5a.15.15,0,0,0,.1-.14.07.07,0,0,0-.07-.07h0a.14.14,0,0,0-.1.13.09.09,0,0,0,.06.08Z"/><path id="路径_14022" data-name="路径 14022" class="cls-4" d="M144.72,36.9a.23.23,0,0,0,.1-.16c0-.05,0-.07-.1,0a.18.18,0,0,0-.1.16C144.62,36.92,144.66,36.93,144.72,36.9Z"/><path id="路径_14023" data-name="路径 14023" class="cls-4" d="M149.77,33.88a.27.27,0,0,0,.1-.17c0-.06-.05-.07-.1,0a.21.21,0,0,0-.1.17C149.67,33.91,149.71,33.92,149.77,33.88Z"/><path id="路径_14024" data-name="路径 14024" class="cls-4" d="M154.76,30.82a.25.25,0,0,0,.1-.18c0-.05,0-.06-.1,0a.27.27,0,0,0-.1.18C154.66,30.86,154.71,30.87,154.76,30.82Z"/><path id="路径_14025" data-name="路径 14025" class="cls-4" d="M159.64,28.18a.22.22,0,0,0,.1-.18c0-.05,0-.06-.1,0a.32.32,0,0,0-.1.18C159.54,28.22,159.59,28.23,159.64,28.18Z"/><path id="路径_14026" data-name="路径 14026" class="cls-4" d="M164.36,26.38a.25.25,0,0,0,.12-.19c0-.06,0-.08-.12,0a.27.27,0,0,0-.11.19C164.25,26.41,164.3,26.43,164.36,26.38Z"/><path id="路径_14027" data-name="路径 14027" class="cls-4" d="M168.87,25.71a.25.25,0,0,0,.11-.18c0-.06,0-.08-.11,0a.22.22,0,0,0-.11.17C168.76,25.72,168.81,25.75,168.87,25.71Z"/><path id="路径_14028" data-name="路径 14028" class="cls-4" d="M173.11,26.34a.19.19,0,0,0,.11-.15c0-.07-.05-.1-.11-.07a.17.17,0,0,0-.11.16C173,26.34,173.05,26.37,173.11,26.34Z"/><path id="路径_14029" data-name="路径 14029" class="cls-4" d="M177,28.29a.15.15,0,0,0,.11-.14.08.08,0,0,0-.08-.09h0a.14.14,0,0,0-.11.14.08.08,0,0,0,.08.09Z"/><path id="路径_14030" data-name="路径 14030" class="cls-4" d="M180.61,31.4a.11.11,0,0,0,.11-.11.1.1,0,0,0-.1-.11h0a.11.11,0,0,0-.11.12.1.1,0,0,0,.11.1Z"/><path id="路径_14031" data-name="路径 14031" class="cls-4" d="M183.79,35.49a.1.1,0,0,0,.12-.08v0a.14.14,0,0,0-.12-.12.1.1,0,0,0-.11.08v0A.13.13,0,0,0,183.79,35.49Z"/><path id="路径_14032" data-name="路径 14032" class="cls-4" d="M186.55,40.31a.09.09,0,0,0,.11-.05.06.06,0,0,0,0,0,.17.17,0,0,0-.12-.16.1.1,0,0,0-.12,0s0,0,0,0A.2.2,0,0,0,186.55,40.31Z"/><path id="路径_14033" data-name="路径 14033" class="cls-4" d="M188.84,45.57c.07,0,.13,0,.13-.08a.23.23,0,0,0-.13-.17.08.08,0,0,0-.11,0,.09.09,0,0,0,0,0A.21.21,0,0,0,188.84,45.57Z"/><path id="路径_14034" data-name="路径 14034" class="cls-4" d="M190.65,51.06c.07,0,.13,0,.13-.06a.23.23,0,0,0-.13-.18.07.07,0,0,0-.12.06A.22.22,0,0,0,190.65,51.06Z"/><path id="路径_14035" data-name="路径 14035" class="cls-4" d="M192,56.59c.07,0,.13,0,.13-.06a.26.26,0,0,0-.13-.19c-.07,0-.12,0-.12.06A.25.25,0,0,0,192,56.59Z"/><path id="路径_14036" data-name="路径 14036" class="cls-4" d="M192.75,62c.07,0,.13,0,.13-.06a.26.26,0,0,0-.13-.19.07.07,0,0,0-.12.06A.25.25,0,0,0,192.75,62Z"/></g></g></g></g></g><g id="_15_000" data-name=" 15 000" class="cls-5"><g class="cls-5"><path class="cls-6" d="M16.7,50.81v7.11H10.62V50.81C4.1,49.15.38,44.73,0,38H6.66c.38,4.16,2.75,7.17,7.1,7.17s6.4-3.27,6.4-7.24c0-5-4.16-6.33-8.19-7.42C5.82,28.73,1.86,25.92,1.86,18.88c0-5.57,3.26-10.3,8.76-11.71V0H16.7V7.17c6,.7,9.28,5.25,9.47,11.07H19.52c-.26-3.39-2.18-5.38-5.63-5.38s-5.38,2.88-5.38,6c0,4.61,4,5.31,7.62,6.27,6.52,1.73,10.68,5.44,10.68,12.67C26.81,44.28,23.42,49.72,16.7,50.81Z"/><path class="cls-6" d="M47.61,52.67V11.39h-7V5.31H54.27V52.67Z"/><path class="cls-6" d="M84.41,53.56c-9,0-15.23-6.46-16.12-15.23h6.65c1,5,4.1,9.15,9.54,9.15S94,42.36,94,37.12s-3.26-11.07-9.22-11.07A9.33,9.33,0,0,0,76.22,31l-5.76-1.34,4-24.32H96.06v6.08H79.93l-1.79,10.5A10.91,10.91,0,0,1,84.73,20c9.48,0,15.87,7.36,15.87,16.64S93.89,53.56,84.41,53.56Z"/><path class="cls-6" d="M107.77,60.79v-4c2.12-.77,2.37-2,2.37-4.16h-2.37V44.86h6.66V52C114.43,56.64,112.64,59.84,107.77,60.79Z"/><path class="cls-6" d="M153,37.44c0,4.28-.58,7.29-3.46,10.68a15.61,15.61,0,0,1-12,5.44,15.32,15.32,0,0,1-12-5.76c-2.69-3.45-3.26-6.65-3.26-10.88V20.41c0-6.72,3.07-12.22,9.4-14.84a16.61,16.61,0,0,1,6.08-1.22c8.77,0,15.17,7,15.17,15.62ZM146.36,20c0-5.38-2.94-9.54-8.57-9.54S129,14.53,129,20V37.44c0,5.63,2.95,10,8.83,10a8.48,8.48,0,0,0,6.4-3c2-2.24,2.11-4.1,2.11-6.91Z"/><path class="cls-6" d="M188.54,37.44c0,4.28-.58,7.29-3.46,10.68a15.61,15.61,0,0,1-12,5.44,15.32,15.32,0,0,1-12-5.76c-2.69-3.45-3.26-6.65-3.26-10.88V20.41c0-6.72,3.07-12.22,9.4-14.84a16.61,16.61,0,0,1,6.08-1.22c8.77,0,15.17,7,15.17,15.62ZM181.88,20c0-5.38-2.94-9.54-8.57-9.54s-8.77,4.1-8.77,9.54V37.44c0,5.63,3,10,8.83,10a8.48,8.48,0,0,0,6.4-3c2-2.24,2.11-4.1,2.11-6.91Z"/><path class="cls-6" d="M224.06,37.44c0,4.28-.58,7.29-3.46,10.68a15.61,15.61,0,0,1-12,5.44,15.32,15.32,0,0,1-12-5.76c-2.69-3.45-3.26-6.65-3.26-10.88V20.41c0-6.72,3.07-12.22,9.4-14.84a16.61,16.61,0,0,1,6.08-1.22c8.77,0,15.17,7,15.17,15.62ZM217.4,20c0-5.38-2.94-9.54-8.57-9.54s-8.77,4.1-8.77,9.54V37.44c0,5.63,2.95,10,8.83,10a8.48,8.48,0,0,0,6.4-3c2-2.24,2.11-4.1,2.11-6.91Z"/></g></g></g></g></svg>