<svg xmlns="http://www.w3.org/2000/svg" width="250" height="128.118" viewBox="0 0 250 128.118">
  <g id="组_4294" data-name="组 4294" transform="translate(-2757 -3856)">
    <g id="组_4293" data-name="组 4293" transform="translate(2802 3881)">
      <g id="组_4291" data-name="组 4291" transform="translate(0 6.66)">
        <path id="路径_14446" data-name="路径 14446" d="M207.423,168.215l-5.686,5.63L221.969,194.1l5.646-5.59a12.9,12.9,0,1,1-.035,18.244h0L189.163,168.2A41.249,41.249,0,0,0,159.817,156h-.076a41.521,41.521,0,1,0,29.3,70.951l5.753-5.688-20.211-20.275-5.729,5.663a12.9,12.9,0,1,1,.034-18.246l29.691,29.8,8.73,8.757a41.531,41.531,0,1,0,.119-58.748Z" transform="translate(-118.233 -156)" fill="#172d72"/>
      </g>
      <g id="组_4292" data-name="组 4292" transform="translate(90.236 0)">
        <path id="路径_14447" data-name="路径 14447" d="M547.763,315.04c1.369.065,2.481-.692,2.482-1.7s-1.114-1.767-2.482-1.7-2.456.824-2.457,1.7S546.4,314.973,547.763,315.04Z" transform="translate(-517.021 -261.781)" fill="#e30c34"/>
        <path id="路径_14448" data-name="路径 14448" d="M560.369,314.752a1.953,1.953,0,1,0,0-3.756c-1.371.078-2.479.914-2.48,1.878S559,314.675,560.369,314.752Z" transform="translate(-526.112 -261.318)" fill="#e30c34"/>
        <path id="路径_14449" data-name="路径 14449" d="M551.655,323.479c1.369.162,2.479-.531,2.48-1.57a2.3,2.3,0,0,0-2.48-1.926c-1.362-.023-2.459.689-2.46,1.589S550.293,323.317,551.655,323.479Z" transform="translate(-519.831 -267.813)" fill="#e30c34"/>
        <path id="路径_14450" data-name="路径 14450" d="M537.786,319.98c1.345.1,2.441-.55,2.442-1.476s-1.1-1.668-2.442-1.659-2.4.675-2.4,1.488S536.454,319.876,537.786,319.98Z" transform="translate(-509.852 -265.547)" fill="#e30c34"/>
        <path id="路径_14451" data-name="路径 14451" d="M537.811,310.535c1.339.008,2.431-.73,2.432-1.653s-1.093-1.573-2.432-1.469-2.392.832-2.393,1.642S536.484,310.526,537.811,310.535Z" transform="translate(-509.877 -258.724)" fill="#e30c34"/>
        <path id="路径_14452" data-name="路径 14452" d="M551.655,306.407a2.3,2.3,0,0,0,2.48-1.927c0-1.039-1.111-1.731-2.48-1.569s-2.459,1.007-2.46,1.908S550.293,306.431,551.655,306.407Z" transform="translate(-519.831 -255.462)" fill="#e30c34"/>
        <path id="路径_14453" data-name="路径 14453" d="M573.507,314.632a1.979,1.979,0,1,0,0-3.9,1.98,1.98,0,1,0,0,3.9Z" transform="translate(-535.719 -261.126)" fill="#e30c34"/>
        <path id="路径_14454" data-name="路径 14454" d="M568.623,326.815a1.815,1.815,0,0,0,2.328-1.63,2.317,2.317,0,0,0-2.328-2.129c-1.287-.057-2.33.685-2.331,1.653S567.336,326.609,568.623,326.815Z" transform="translate(-532.183 -270.032)" fill="#e30c34"/>
        <path id="路径_14455" data-name="路径 14455" d="M555.945,332.587c1.286.247,2.327-.341,2.328-1.342a2.387,2.387,0,0,0-2.328-2.04c-1.281-.118-2.314.5-2.315,1.376S554.666,332.34,555.945,332.587Z" transform="translate(-523.035 -274.466)" fill="#e30c34"/>
        <path id="路径_14456" data-name="路径 14456" d="M540.546,330.893c1.26.2,2.285-.328,2.286-1.2s-1.026-1.676-2.286-1.774-2.253.462-2.254,1.237S539.3,330.694,540.546,330.893Z" transform="translate(-511.953 -273.537)" fill="#e30c34"/>
        <path id="路径_14457" data-name="路径 14457" d="M528.443,324.374c1.224.117,2.223-.416,2.224-1.209s-1-1.466-2.224-1.5-2.177.518-2.178,1.227S527.234,324.257,528.443,324.374Z" transform="translate(-503.264 -269.028)" fill="#e30c34"/>
        <path id="路径_14458" data-name="路径 14458" d="M523.922,315.674c1.208.038,2.2-.546,2.2-1.312s-.99-1.35-2.2-1.312c-1.193.039-2.146.624-2.147,1.312S522.729,315.635,523.922,315.674Z" transform="translate(-500.02 -262.804)" fill="#e30c34"/>
        <path id="路径_14459" data-name="路径 14459" d="M528.467,306.809c1.218-.034,2.214-.7,2.215-1.494s-1-1.32-2.215-1.2-2.168.77-2.169,1.476S527.263,306.842,528.467,306.809Z" transform="translate(-503.288 -256.335)" fill="#e30c34"/>
        <path id="路径_14460" data-name="路径 14460" d="M540.6,299.773c1.249-.1,2.266-.89,2.266-1.759s-1.017-1.392-2.266-1.194-2.234.96-2.235,1.728S539.357,299.869,540.6,299.773Z" transform="translate(-512.003 -251.049)" fill="#e30c34"/>
        <path id="路径_14461" data-name="路径 14461" d="M556,297.384a2.368,2.368,0,0,0,2.308-2.024c0-.992-1.033-1.574-2.308-1.329s-2.3,1.123-2.3,1.99S554.726,297.5,556,297.384Z" transform="translate(-523.085 -249.024)" fill="#e30c34"/>
        <path id="路径_14462" data-name="路径 14462" d="M568.648,302.62a2.309,2.309,0,0,0,2.318-2.121,1.807,1.807,0,0,0-2.318-1.622c-1.281.205-2.32,1.135-2.321,2.1S567.366,302.677,568.648,302.62Z" transform="translate(-532.208 -252.54)" fill="#e30c34"/>
        <path id="路径_14463" data-name="路径 14463" d="M586.76,314.59a1.978,1.978,0,1,0,0-3.952,1.979,1.979,0,1,0,0,3.952Z" transform="translate(-545.462 -261.06)" fill="#e30c34"/>
        <path id="路径_14464" data-name="路径 14464" d="M583.477,328.838a1.659,1.659,0,0,0,2.078-1.651A2.235,2.235,0,0,0,583.477,325a1.828,1.828,0,0,0-2.095,1.67A2.463,2.463,0,0,0,583.477,328.838Z" transform="translate(-543.085 -271.434)" fill="#e30c34"/>
        <path id="路径_14465" data-name="路径 14465" d="M574.162,338.721c1.161.3,2.1-.279,2.1-1.323a2.425,2.425,0,0,0-2.1-2.219c-1.162-.173-2.1.441-2.1,1.358A2.652,2.652,0,0,0,574.162,338.721Z" transform="translate(-536.348 -278.771)" fill="#e30c34"/>
        <path id="路径_14466" data-name="路径 14466" d="M560.434,342.329c1.164.315,2.1-.156,2.105-1.084a2.425,2.425,0,0,0-2.105-2.071c-1.16-.205-2.1.308-2.1,1.127S559.275,342.014,560.434,342.329Z" transform="translate(-526.434 -281.647)" fill="#e30c34"/>
        <path id="路径_14467" data-name="路径 14467" d="M544.854,340.532c1.15.268,2.082-.151,2.083-.967s-.934-1.636-2.083-1.815-2.06.283-2.061,1.009S543.714,340.266,544.854,340.532Z" transform="translate(-515.205 -280.623)" fill="#e30c34"/>
        <path id="路径_14468" data-name="路径 14468" d="M530.379,335.318c1.113.19,2.021-.221,2.022-.944s-.909-1.417-2.022-1.538-1.984.326-1.985.978S529.279,335.128,530.379,335.318Z" transform="translate(-504.802 -277.086)" fill="#e30c34"/>
        <path id="路径_14469" data-name="路径 14469" d="M519.456,328.24c1.078.115,1.96-.317,1.961-.983s-.883-1.259-1.961-1.317-1.913.4-1.914,1S518.393,328.125,519.456,328.24Z" transform="translate(-496.962 -272.114)" fill="#e30c34"/>
        <path id="路径_14470" data-name="路径 14470" d="M513.688,320.211c1.05.052,1.911-.414,1.912-1.05s-.862-1.153-1.912-1.154c-1.034,0-1.859.472-1.86,1.057S512.654,320.158,513.688,320.211Z" transform="translate(-492.834 -266.386)" fill="#e30c34"/>
        <path id="路径_14471" data-name="路径 14471" d="M513.688,311.81c1.05,0,1.911-.519,1.912-1.155s-.862-1.1-1.912-1.05c-1.034.053-1.859.563-1.86,1.148S512.654,311.811,513.688,311.81Z" transform="translate(-492.834 -260.313)" fill="#e30c34"/>
        <path id="路径_14472" data-name="路径 14472" d="M519.479,303.586c1.073-.058,1.951-.648,1.952-1.311s-.879-1.093-1.952-.979-1.9.685-1.906,1.29S518.421,303.642,519.479,303.586Z" transform="translate(-496.985 -254.3)" fill="#e30c34"/>
        <path id="路径_14473" data-name="路径 14473" d="M530.4,296.1c1.108-.12,2.011-.812,2.012-1.531s-.9-1.129-2.012-.939-1.975.849-1.976,1.5S529.307,296.223,530.4,296.1Z" transform="translate(-504.826 -248.744)" fill="#e30c34"/>
        <path id="路径_14474" data-name="路径 14474" d="M544.9,290.279c1.138-.178,2.063-.992,2.064-1.8s-.924-1.222-2.064-.957-2.041,1.038-2.042,1.758S543.773,290.455,544.9,290.279Z" transform="translate(-515.254 -244.305)" fill="#e30c34"/>
        <path id="路径_14475" data-name="路径 14475" d="M560.484,287.818a2.4,2.4,0,0,0,2.086-2.052c0-.919-.932-1.385-2.086-1.073s-2.078,1.2-2.079,2.01S559.335,288.022,560.484,287.818Z" transform="translate(-526.485 -242.247)" fill="#e30c34"/>
        <path id="路径_14476" data-name="路径 14476" d="M574.187,290.876a2.416,2.416,0,0,0,2.088-2.21c0-1.039-.931-1.616-2.088-1.316a2.64,2.64,0,0,0-2.1,2.175C572.093,290.438,573.031,291.049,574.187,290.876Z" transform="translate(-536.373 -244.18)" fill="#e30c34"/>
        <path id="路径_14477" data-name="路径 14477" d="M583.5,300.452a2.227,2.227,0,0,0,2.068-2.18,1.651,1.651,0,0,0-2.068-1.642,2.452,2.452,0,0,0-2.085,2.16A1.818,1.818,0,0,0,583.5,300.452Z" transform="translate(-543.11 -250.915)" fill="#e30c34"/>
        <path id="路径_14478" data-name="路径 14478" d="M599.876,314.594a1.981,1.981,0,0,0,0-3.945,1.978,1.978,0,0,0,0,3.945Z" transform="translate(-555.125 -261.067)" fill="#e30c34"/>
        <path id="路径_14479" data-name="路径 14479" d="M597.416,330.785a1.524,1.524,0,0,0,1.823-1.665,2.163,2.163,0,0,0-1.823-2.215,1.673,1.673,0,0,0-1.847,1.681A2.373,2.373,0,0,0,597.416,330.785Z" transform="translate(-553.335 -272.81)" fill="#e30c34"/>
        <path id="路径_14480" data-name="路径 14480" d="M590.3,343.573a1.325,1.325,0,0,0,1.848-1.33,2.433,2.433,0,0,0-1.848-2.312,1.445,1.445,0,0,0-1.867,1.36A2.656,2.656,0,0,0,590.3,343.573Z" transform="translate(-548.176 -282.198)" fill="#e30c34"/>
        <path id="路径_14481" data-name="路径 14481" d="M579.094,350.9c1.041.378,1.876-.076,1.877-1.043a2.543,2.543,0,0,0-1.877-2.259c-1.04-.27-1.885.224-1.886,1.084A2.756,2.756,0,0,0,579.094,350.9Z" transform="translate(-540.069 -287.713)" fill="#e30c34"/>
        <path id="路径_14482" data-name="路径 14482" d="M564.912,352.671c1.047.373,1.889.008,1.89-.848a2.477,2.477,0,0,0-1.89-2.078c-1.042-.279-1.887.131-1.888.894S563.872,352.3,564.912,352.671Z" transform="translate(-529.822 -289.253)" fill="#e30c34"/>
        <path id="路径_14483" data-name="路径 14483" d="M549.335,350.209c1.032.319,1.867,0,1.867-.748s-.836-1.569-1.867-1.814-1.852.122-1.853.794S548.312,349.891,549.335,350.209Z" transform="translate(-518.593 -287.746)" fill="#e30c34"/>
        <path id="路径_14484" data-name="路径 14484" d="M534.091,345.167c1.007.245,1.824-.071,1.825-.732s-.82-1.362-1.825-1.547-1.8.171-1.8.772S533.1,344.923,534.091,345.167Z" transform="translate(-507.619 -284.327)" fill="#e30c34"/>
        <path id="路径_14485" data-name="路径 14485" d="M520.843,338.789c.97.169,1.762-.162,1.763-.761s-.793-1.193-1.763-1.315-1.725.241-1.726.792S519.885,338.622,520.843,338.789Z" transform="translate(-498.1 -279.885)" fill="#e30c34"/>
        <path id="路径_14486" data-name="路径 14486" d="M510.8,331.7c.928.1,1.688-.25,1.689-.8s-.761-1.065-1.689-1.131-1.644.308-1.645.825S509.888,331.6,510.8,331.7Z" transform="translate(-490.904 -274.874)" fill="#e30c34"/>
        <path id="路径_14487" data-name="路径 14487" d="M504.589,324.136c.9.055,1.64-.326,1.641-.859s-.74-.986-1.641-1.008-1.591.369-1.592.869S503.7,324.082,504.589,324.136Z" transform="translate(-486.453 -269.465)" fill="#e30c34"/>
        <path id="路径_14488" data-name="路径 14488" d="M502.518,316.311c.886.015,1.614-.395,1.615-.918s-.729-.933-1.615-.918c-.871.016-1.564.426-1.564.918S501.648,316.3,502.518,316.311Z" transform="translate(-484.977 -263.834)" fill="#e30c34"/>
        <path id="路径_14489" data-name="路径 14489" d="M504.61,308.43c.9-.023,1.632-.473,1.632-1s-.737-.909-1.632-.854c-.881.055-1.583.5-1.584.993S503.729,308.452,504.61,308.43Z" transform="translate(-486.474 -258.121)" fill="#e30c34"/>
        <path id="路径_14490" data-name="路径 14490" d="M510.824,300.707c.923-.066,1.68-.574,1.68-1.126s-.757-.9-1.68-.8-1.635.592-1.636,1.106S509.915,300.772,510.824,300.707Z" transform="translate(-490.926 -252.483)" fill="#e30c34"/>
        <path id="路径_14491" data-name="路径 14491" d="M520.889,293.293c.959-.121,1.743-.71,1.744-1.3s-.784-.92-1.744-.753-1.707.726-1.708,1.271S519.941,293.411,520.889,293.293Z" transform="translate(-498.146 -247.015)" fill="#e30c34"/>
        <path id="路径_14492" data-name="路径 14492" d="M534.139,286.421c1-.184,1.805-.878,1.806-1.531s-.81-.966-1.806-.724-1.779.9-1.779,1.492S533.154,286.6,534.139,286.421Z" transform="translate(-507.668 -241.878)" fill="#e30c34"/>
        <path id="路径_14493" data-name="路径 14493" d="M549.385,280.747c1.02-.243,1.847-1.057,1.848-1.8s-.827-1.057-1.848-.74-1.833,1.085-1.834,1.751S548.371,280.988,549.385,280.747Z" transform="translate(-518.643 -237.547)" fill="#e30c34"/>
        <path id="路径_14494" data-name="路径 14494" d="M564.963,277.607a2.453,2.453,0,0,0,1.871-2.057c0-.846-.835-1.208-1.871-.838s-1.868,1.255-1.869,2.011S563.932,277.885,564.963,277.607Z" transform="translate(-529.872 -235.002)" fill="#e30c34"/>
        <path id="路径_14495" data-name="路径 14495" d="M579.145,278.84A2.519,2.519,0,0,0,581,276.6c0-.957-.827-1.405-1.857-1.032a2.729,2.729,0,0,0-1.867,2.2C577.279,278.62,578.116,279.108,579.145,278.84Z" transform="translate(-540.12 -235.633)" fill="#e30c34"/>
        <path id="路径_14496" data-name="路径 14496" d="M590.321,285.809a2.423,2.423,0,0,0,1.839-2.3,1.317,1.317,0,0,0-1.839-1.322,2.644,2.644,0,0,0-1.858,2.272A1.436,1.436,0,0,0,590.321,285.809Z" transform="translate(-548.201 -240.443)" fill="#e30c34"/>
        <path id="路径_14497" data-name="路径 14497" d="M597.441,298.432a2.153,2.153,0,0,0,1.814-2.2,1.516,1.516,0,0,0-1.814-1.655,2.362,2.362,0,0,0-1.837,2.189A1.663,1.663,0,0,0,597.441,298.432Z" transform="translate(-553.36 -249.429)" fill="#e30c34"/>
        <path id="路径_14498" data-name="路径 14498" d="M612.662,314.623c.856.055,1.543-.817,1.543-1.953s-.687-2.007-1.543-1.952a2,2,0,0,0,0,3.9Z" transform="translate(-564.549 -261.119)" fill="#e30c34"/>
        <path id="路径_14499" data-name="路径 14499" d="M610.764,332.9c.862.2,1.552-.531,1.553-1.648a2.085,2.085,0,0,0-1.553-2.19,1.521,1.521,0,0,0-1.58,1.66A2.273,2.273,0,0,0,610.764,332.9Z" transform="translate(-563.171 -274.37)" fill="#e30c34"/>
        <path id="路径_14500" data-name="路径 14500" d="M605.135,348.285c.878.322,1.579-.26,1.579-1.321a2.415,2.415,0,0,0-1.579-2.324,1.271,1.271,0,0,0-1.6,1.346A2.622,2.622,0,0,0,605.135,348.285Z" transform="translate(-559.089 -285.596)" fill="#e30c34"/>
        <path id="路径_14501" data-name="路径 14501" d="M596,358.757a1.048,1.048,0,0,0,1.614-1.021A2.614,2.614,0,0,0,596,355.4a1.126,1.126,0,0,0-1.632,1.055A2.824,2.824,0,0,0,596,358.757Z" transform="translate(-552.47 -293.335)" fill="#e30c34"/>
        <path id="路径_14502" data-name="路径 14502" d="M583.842,363.674c.914.432,1.645.095,1.646-.783a2.639,2.639,0,0,0-1.646-2.233c-.912-.344-1.656.034-1.656.825A2.834,2.834,0,0,0,583.842,363.674Z" transform="translate(-543.666 -297.109)" fill="#e30c34"/>
        <path id="路径_14503" data-name="路径 14503" d="M569.427,363.7c.922.414,1.663.147,1.664-.628a2.509,2.509,0,0,0-1.664-2.036c-.918-.338-1.664-.026-1.665.674A2.673,2.673,0,0,0,569.427,363.7Z" transform="translate(-533.245 -297.372)" fill="#e30c34"/>
        <path id="路径_14504" data-name="路径 14504" d="M553.827,360.245c.917.359,1.658.124,1.658-.555a2.283,2.283,0,0,0-1.658-1.786c-.911-.295-1.649-.017-1.65.6S552.917,359.888,553.827,360.245Z" transform="translate(-521.985 -295.126)" fill="#e30c34"/>
        <path id="路径_14505" data-name="路径 14505" d="M538.272,354.821c.9.285,1.626.052,1.626-.547s-.729-1.291-1.626-1.527-1.607.039-1.607.588S537.384,354.538,538.272,354.821Z" transform="translate(-510.778 -291.426)" fill="#e30c34"/>
        <path id="路径_14506" data-name="路径 14506" d="M523.975,348.508c.861.207,1.562-.041,1.562-.575s-.7-1.116-1.562-1.285-1.534.114-1.535.609S523.125,348.3,523.975,348.508Z" transform="translate(-500.501 -287.045)" fill="#e30c34"/>
        <path id="路径_14507" data-name="路径 14507" d="M511.835,341.806c.823.14,1.5-.13,1.5-.621s-.674-.987-1.5-1.1-1.461.187-1.461.647S511.024,341.668,511.835,341.806Z" transform="translate(-491.783 -282.323)" fill="#e30c34"/>
        <path id="路径_14508" data-name="路径 14508" d="M502.5,334.871c.781.087,1.421-.2,1.421-.665s-.641-.891-1.421-.955-1.382.246-1.382.682S501.735,334.785,502.5,334.871Z" transform="translate(-485.098 -277.395)" fill="#e30c34"/>
        <path id="路径_14509" data-name="路径 14509" d="M496.221,327.685c.752.049,1.369-.264,1.37-.707s-.619-.831-1.37-.861-1.326.294-1.327.718S495.483,327.636,496.221,327.685Z" transform="translate(-480.599 -272.245)" fill="#e30c34"/>
        <path id="路径_14510" data-name="路径 14510" d="M493.082,320.291c.736.021,1.341-.312,1.342-.749s-.606-.793-1.342-.8-1.3.334-1.3.752S492.36,320.27,493.082,320.291Z" transform="translate(-478.353 -266.92)" fill="#e30c34"/>
        <path id="路径_14511" data-name="路径 14511" d="M493.082,312.8c.736,0,1.341-.36,1.342-.8s-.606-.77-1.342-.749-1.3.375-1.3.793S492.36,312.8,493.082,312.8Z" transform="translate(-478.353 -261.507)" fill="#e30c34"/>
        <path id="路径_14512" data-name="路径 14512" d="M496.241,305.36c.747-.03,1.361-.414,1.362-.856s-.615-.752-1.362-.7-1.319.424-1.319.845S495.507,305.389,496.241,305.36Z" transform="translate(-480.619 -256.12)" fill="#e30c34"/>
        <path id="路径_14513" data-name="路径 14513" d="M502.524,298.049c.776-.064,1.412-.492,1.413-.949s-.637-.747-1.413-.66-1.373.5-1.374.932S501.76,298.111,502.524,298.049Z" transform="translate(-485.119 -250.793)" fill="#e30c34"/>
        <path id="路径_14514" data-name="路径 14514" d="M511.879,290.869c.813-.109,1.478-.6,1.478-1.085s-.665-.752-1.478-.614-1.444.6-1.444,1.059S511.077,290.976,511.879,290.869Z" transform="translate(-491.827 -245.526)" fill="#e30c34"/>
        <path id="路径_14515" data-name="路径 14515" d="M524.021,283.782c.85-.167,1.543-.743,1.544-1.27s-.693-.772-1.544-.568-1.516.747-1.517,1.236S523.18,283.946,524.021,283.782Z" transform="translate(-500.547 -240.28)" fill="#e30c34"/>
        <path id="路径_14516" data-name="路径 14516" d="M538.321,276.906c.887-.233,1.606-.918,1.607-1.509s-.72-.822-1.607-.54-1.588.926-1.589,1.468S537.442,277.136,538.321,276.906Z" transform="translate(-510.826 -235.125)" fill="#e30c34"/>
        <path id="路径_14517" data-name="路径 14517" d="M553.877,270.839a2.258,2.258,0,0,0,1.639-1.766c0-.67-.732-.9-1.639-.548s-1.629,1.111-1.63,1.721S552.977,271.131,553.877,270.839Z" transform="translate(-522.036 -230.517)" fill="#e30c34"/>
        <path id="路径_14518" data-name="路径 14518" d="M569.477,266.751a2.482,2.482,0,0,0,1.645-2.013c0-.765-.733-1.029-1.645-.62a2.643,2.643,0,0,0-1.645,1.968C567.833,266.778,568.57,267.085,569.477,266.751Z" transform="translate(-533.295 -227.314)" fill="#e30c34"/>
        <path id="路径_14519" data-name="路径 14519" d="M583.893,266.245a2.612,2.612,0,0,0,1.627-2.207c0-.866-.724-1.2-1.627-.773a2.8,2.8,0,0,0-1.637,2.166C582.257,266.213,582.991,266.586,583.893,266.245Z" transform="translate(-543.716 -226.702)" fill="#e30c34"/>
        <path id="路径_14520" data-name="路径 14520" d="M596.029,270.787a2.6,2.6,0,0,0,1.6-2.324,1.041,1.041,0,0,0-1.6-1.014,2.81,2.81,0,0,0-1.622,2.29A1.119,1.119,0,0,0,596.029,270.787Z" transform="translate(-552.495 -229.754)" fill="#e30c34"/>
        <path id="路径_14521" data-name="路径 14521" d="M605.16,281.071a2.4,2.4,0,0,0,1.57-2.311c0-1.054-.7-1.632-1.57-1.312a2.609,2.609,0,0,0-1.593,2.287A1.262,1.262,0,0,0,605.16,281.071Z" transform="translate(-559.113 -237.019)" fill="#e30c34"/>
        <path id="路径_14522" data-name="路径 14522" d="M610.764,296.362a2.087,2.087,0,0,0,1.553-2.191c0-1.116-.691-1.847-1.553-1.646a2.275,2.275,0,0,0-1.58,2.178A1.52,1.52,0,0,0,610.764,296.362Z" transform="translate(-563.171 -247.952)" fill="#e30c34"/>
        <path id="路径_14523" data-name="路径 14523" d="M625.024,314.728c.708.045,1.276-.8,1.276-1.886s-.568-1.931-1.276-1.885-1.3.89-1.3,1.886S624.308,314.681,625.024,314.728Z" transform="translate(-573.675 -261.292)" fill="#e30c34"/>
        <path id="路径_14524" data-name="路径 14524" d="M623.5,335.249c.714.185,1.284-.526,1.285-1.6s-.572-2.023-1.285-2.117-1.31.628-1.31,1.609A2.174,2.174,0,0,0,623.5,335.249Z" transform="translate(-572.571 -276.152)" fill="#e30c34"/>
        <path id="路径_14525" data-name="路径 14525" d="M618.96,353.2c.728.307,1.308-.263,1.309-1.292a2.392,2.392,0,0,0-1.309-2.27c-.732-.221-1.332.371-1.332,1.311A2.574,2.574,0,0,0,618.96,353.2Z" transform="translate(-569.272 -289.205)" fill="#e30c34"/>
        <path id="路径_14526" data-name="路径 14526" d="M611.46,366.626c.748.4,1.343-.037,1.344-1a2.663,2.663,0,0,0-1.344-2.326c-.749-.318-1.363.147-1.364,1.024A2.856,2.856,0,0,0,611.46,366.626Z" transform="translate(-563.83 -299.04)" fill="#e30c34"/>
        <path id="路径_14527" data-name="路径 14527" d="M601.181,374.575c.769.453,1.382.131,1.383-.743a2.771,2.771,0,0,0-1.383-2.283c-.768-.377-1.4-.021-1.4.777A2.961,2.961,0,0,0,601.181,374.575Z" transform="translate(-556.379 -304.96)" fill="#e30c34"/>
        <path id="路径_14528" data-name="路径 14528" d="M588.483,377.183c.787.465,1.416.229,1.416-.552a2.71,2.71,0,0,0-1.416-2.15c-.785-.4-1.425-.122-1.426.591A2.883,2.883,0,0,0,588.483,377.183Z" transform="translate(-547.185 -307.056)" fill="#e30c34"/>
        <path id="路径_14529" data-name="路径 14529" d="M573.945,375.454c.8.438,1.436.256,1.437-.432a2.521,2.521,0,0,0-1.437-1.95c-.793-.377-1.439-.156-1.44.473A2.663,2.663,0,0,0,573.945,375.454Z" transform="translate(-536.672 -306.036)" fill="#e30c34"/>
        <path id="路径_14530" data-name="路径 14530" d="M558.36,370.819c.8.381,1.436.223,1.437-.38a2.256,2.256,0,0,0-1.437-1.711c-.79-.33-1.432-.133-1.433.421A2.365,2.365,0,0,0,558.36,370.819Z" transform="translate(-525.417 -302.916)" fill="#e30c34"/>
        <path id="路径_14531" data-name="路径 14531" d="M542.65,364.664c.782.309,1.414.148,1.414-.382s-.633-1.194-1.414-1.464-1.4-.07-1.4.42S541.876,364.357,542.65,364.664Z" transform="translate(-514.089 -298.675)" fill="#e30c34"/>
        <path id="路径_14532" data-name="路径 14532" d="M527.743,357.977c.756.233,1.37.056,1.37-.417s-.615-1.034-1.37-1.237-1.35.009-1.351.451S527,357.745,527.743,357.977Z" transform="translate(-503.356 -294.013)" fill="#e30c34"/>
        <path id="路径_14533" data-name="路径 14533" d="M514.453,351.255c.717.164,1.3-.036,1.3-.464s-.585-.9-1.3-1.04-1.276.087-1.277.491S513.745,351.093,514.453,351.255Z" transform="translate(-493.808 -289.291)" fill="#e30c34"/>
        <path id="路径_14534" data-name="路径 14534" d="M503.292,344.579c.679.11,1.235-.115,1.236-.514s-.557-.8-1.236-.9-1.205.153-1.206.534S502.622,344.471,503.292,344.579Z" transform="translate(-485.795 -284.552)" fill="#e30c34"/>
        <path id="路径_14535" data-name="路径 14535" d="M494.585,337.862c.644.069,1.171-.176,1.172-.556s-.529-.738-1.172-.793-1.138.2-1.139.57S493.952,337.794,494.585,337.862Z" transform="translate(-479.553 -279.751)" fill="#e30c34"/>
        <path id="路径_14536" data-name="路径 14536" d="M488.424,330.992c.614.04,1.119-.221,1.12-.59s-.506-.694-1.12-.724-1.084.241-1.084.6S487.821,330.952,488.424,330.992Z" transform="translate(-475.142 -274.817)" fill="#e30c34"/>
        <path id="路径_14537" data-name="路径 14537" d="M484.792,323.943c.591.02,1.078-.253,1.078-.614s-.487-.662-1.078-.672-1.041.267-1.042.617S484.212,323.923,484.792,323.943Z" transform="translate(-472.548 -269.746)" fill="#e30c34"/>
        <path id="路径_14538" data-name="路径 14538" d="M483.585,316.759c.584,0,1.066-.282,1.066-.64s-.482-.645-1.066-.64-1.029.291-1.03.64S483.011,316.754,483.585,316.759Z" transform="translate(-471.685 -264.56)" fill="#e30c34"/>
        <path id="路径_14539" data-name="路径 14539" d="M484.792,309.563c.591-.011,1.078-.312,1.078-.673s-.487-.633-1.078-.613-1.041.318-1.042.669S484.212,309.573,484.792,309.563Z" transform="translate(-472.548 -259.356)" fill="#e30c34"/>
        <path id="路径_14540" data-name="路径 14540" d="M488.443,302.465c.61-.029,1.111-.352,1.112-.719s-.5-.626-1.112-.586-1.076.355-1.077.71S487.844,302.493,488.443,302.465Z" transform="translate(-475.16 -254.212)" fill="#e30c34"/>
        <path id="路径_14541" data-name="路径 14541" d="M494.6,295.5c.639-.055,1.163-.41,1.164-.788s-.525-.62-1.164-.552-1.13.41-1.131.774S493.976,295.558,494.6,295.5Z" transform="translate(-479.573 -249.152)" fill="#e30c34"/>
        <path id="路径_14542" data-name="路径 14542" d="M503.313,288.617c.674-.091,1.227-.494,1.227-.89s-.553-.619-1.227-.51-1.2.492-1.2.87S502.648,288.707,503.313,288.617Z" transform="translate(-485.816 -244.122)" fill="#e30c34"/>
        <path id="路径_14543" data-name="路径 14543" d="M514.476,281.654c.712-.14,1.292-.609,1.293-1.033s-.581-.624-1.293-.461-1.267.605-1.268,1.007S513.773,281.791,514.476,281.654Z" transform="translate(-493.831 -239.001)" fill="#e30c34"/>
        <path id="路径_14544" data-name="路径 14544" d="M527.791,274.492c.745-.2,1.351-.754,1.352-1.22s-.606-.642-1.352-.411-1.332.752-1.333,1.188S527.053,274.69,527.791,274.492Z" transform="translate(-503.404 -233.696)" fill="#e30c34"/>
        <path id="路径_14545" data-name="路径 14545" d="M542.7,267.243c.77-.267,1.395-.922,1.4-1.444s-.624-.681-1.4-.376-1.383.922-1.383,1.407S541.936,267.507,542.7,267.243Z" transform="translate(-514.139 -228.283)" fill="#e30c34"/>
        <path id="路径_14546" data-name="路径 14546" d="M558.41,260.456a2.228,2.228,0,0,0,1.418-1.688c0-.594-.633-.751-1.418-.374A2.333,2.333,0,0,0,557,260.041C557,260.588,557.631,260.782,558.41,260.456Z" transform="translate(-525.467 -223.17)" fill="#e30c34"/>
        <path id="路径_14547" data-name="路径 14547" d="M573.971,255.191a2.505,2.505,0,0,0,1.427-1.937c0-.683-.635-.863-1.427-.428a2.647,2.647,0,0,0-1.43,1.9C572.542,255.347,573.183,255.566,573.971,255.191Z" transform="translate(-536.698 -219.124)" fill="#e30c34"/>
        <path id="路径_14548" data-name="路径 14548" d="M588.508,252.949a2.7,2.7,0,0,0,1.407-2.136c0-.775-.625-1.009-1.407-.547a2.864,2.864,0,0,0-1.417,2.1C587.093,253.072,587.729,253.343,588.508,252.949Z" transform="translate(-547.21 -217.274)" fill="#e30c34"/>
        <path id="路径_14549" data-name="路径 14549" d="M601.206,255.2a2.755,2.755,0,0,0,1.373-2.268c0-.868-.61-1.188-1.373-.737a2.941,2.941,0,0,0-1.388,2.234C599.819,255.219,600.443,255.572,601.206,255.2Z" transform="translate(-556.405 -218.689)" fill="#e30c34"/>
        <path id="路径_14550" data-name="路径 14550" d="M611.484,262.944a2.648,2.648,0,0,0,1.335-2.311c0-.953-.592-1.387-1.335-.989a2.838,2.838,0,0,0-1.355,2.284C610.13,262.8,610.739,263.26,611.484,262.944Z" transform="translate(-563.854 -224.114)" fill="#e30c34"/>
        <path id="路径_14551" data-name="路径 14551" d="M618.96,276.269A2.4,2.4,0,0,0,620.269,274c0-1.028-.581-1.6-1.309-1.291a2.578,2.578,0,0,0-1.332,2.252C617.629,275.9,618.228,276.491,618.96,276.269Z" transform="translate(-569.272 -233.598)" fill="#e30c34"/>
        <path id="路径_14552" data-name="路径 14552" d="M623.5,294.206c.713-.1,1.284-1.045,1.285-2.119s-.571-1.784-1.285-1.6a2.176,2.176,0,0,0-1.31,2.109C622.195,293.58,622.784,294.3,623.5,294.206Z" transform="translate(-572.571 -246.484)" fill="#e30c34"/>
        <path id="路径_14553" data-name="路径 14553" d="M636.807,314.9c.565.035,1.017-.757,1.018-1.773s-.453-1.808-1.018-1.773-1.039.83-1.04,1.774S636.235,314.867,636.807,314.9Z" transform="translate(-582.377 -261.582)" fill="#e30c34"/>
        <path id="路径_14554" data-name="路径 14554" d="M635.549,337.841c.574.166,1.033-.512,1.034-1.524s-.46-1.912-1.034-2.007-1.055.592-1.055,1.532A2.089,2.089,0,0,0,635.549,337.841Z" transform="translate(-581.457 -278.158)" fill="#e30c34"/>
        <path id="路径_14555" data-name="路径 14555" d="M631.837,358.449c.587.285,1.054-.265,1.054-1.241a2.376,2.376,0,0,0-1.054-2.165c-.591-.216-1.075.35-1.075,1.256A2.533,2.533,0,0,0,631.837,358.449Z" transform="translate(-578.761 -293.111)" fill="#e30c34"/>
        <path id="路径_14556" data-name="路径 14556" d="M625.641,374.816c.605.382,1.086-.043,1.086-.963a2.707,2.707,0,0,0-1.086-2.246c-.607-.315-1.1.131-1.105.984A2.877,2.877,0,0,0,625.641,374.816Z" transform="translate(-574.263 -305.038)" fill="#e30c34"/>
        <path id="路径_14557" data-name="路径 14557" d="M617,385.809c.626.447,1.125.136,1.125-.713A2.885,2.885,0,0,0,617,382.85c-.626-.385-1.141-.048-1.141.738A3.059,3.059,0,0,0,617,385.809Z" transform="translate(-567.992 -313.119)" fill="#e30c34"/>
        <path id="路径_14558" data-name="路径 14558" d="M606.035,391.183c.648.48,1.164.261,1.164-.506a2.9,2.9,0,0,0-1.164-2.169c-.646-.421-1.176-.174-1.177.537A3.06,3.06,0,0,0,606.035,391.183Z" transform="translate(-560.046 -317.173)" fill="#e30c34"/>
        <path id="路径_14559" data-name="路径 14559" d="M593.03,391.519c.666.478,1.2.327,1.2-.356a2.754,2.754,0,0,0-1.2-2.024c-.663-.425-1.205-.243-1.206.39A2.9,2.9,0,0,0,593.03,391.519Z" transform="translate(-550.629 -317.611)" fill="#e30c34"/>
        <path id="路径_14560" data-name="路径 14560" d="M578.437,387.989c.677.445,1.219.335,1.219-.266a2.508,2.508,0,0,0-1.219-1.829c-.673-.4-1.222-.256-1.222.3A2.63,2.63,0,0,0,578.437,387.989Z" transform="translate(-540.074 -315.27)" fill="#e30c34"/>
        <path id="路径_14561" data-name="路径 14561" d="M562.9,382.02c.673.386,1.213.292,1.214-.23A2.194,2.194,0,0,0,562.9,380.2c-.668-.347-1.211-.221-1.212.265A2.283,2.283,0,0,0,562.9,382.02Z" transform="translate(-528.858 -311.176)" fill="#e30c34"/>
        <path id="路径_14562" data-name="路径 14562" d="M547.11,374.882c.664.317,1.2.218,1.2-.24a1.891,1.891,0,0,0-1.2-1.364c-.658-.285-1.191-.155-1.192.273S546.453,374.567,547.11,374.882Z" transform="translate(-517.463 -306.208)" fill="#e30c34"/>
        <path id="路径_14563" data-name="路径 14563" d="M531.844,367.53c.644.246,1.165.128,1.166-.279s-.522-.929-1.166-1.151-1.153-.075-1.153.309S531.207,367.287,531.844,367.53Z" transform="translate(-506.462 -301.058)" fill="#e30c34"/>
        <path id="路径_14564" data-name="路径 14564" d="M517.788,360.447c.615.179,1.116.037,1.116-.331s-.5-.808-1.116-.969-1.1.006-1.1.356S517.18,360.27,517.788,360.447Z" transform="translate(-496.346 -296.065)" fill="#e30c34"/>
        <path id="路径_14565" data-name="路径 14565" d="M505.464,353.727c.582.123,1.057-.043,1.057-.384s-.475-.714-1.057-.825-1.036.077-1.036.4S504.89,353.6,505.464,353.727Z" transform="translate(-487.487 -291.298)" fill="#e30c34"/>
        <path id="路径_14566" data-name="路径 14566" d="M495.194,347.235c.546.081.994-.107.994-.429s-.448-.646-.994-.717-.97.132-.97.444S494.656,347.155,495.194,347.235Z" transform="translate(-480.115 -286.664)" fill="#e30c34"/>
        <path id="路径_14567" data-name="路径 14567" d="M487.127,340.775c.51.05.927-.153.928-.461s-.418-.6-.928-.638-.9.172-.9.471S486.626,340.726,487.127,340.775Z" transform="translate(-474.336 -282.038)" fill="#e30c34"/>
        <path id="路径_14568" data-name="路径 14568" d="M481.206,334.179c.482.029.878-.186.878-.487s-.4-.565-.878-.589-.851.2-.851.493S480.733,334.149,481.206,334.179Z" transform="translate(-470.095 -277.292)" fill="#e30c34"/>
        <path id="路径_14569" data-name="路径 14569" d="M477.354,327.391c.462.016.843-.209.843-.506s-.381-.546-.843-.558-.815.218-.815.509S476.9,327.375,477.354,327.391Z" transform="translate(-467.338 -272.398)" fill="#e30c34"/>
        <path id="路径_14570" data-name="路径 14570" d="M475.462,320.444c.452.006.824-.226.825-.521s-.373-.535-.825-.537-.8.232-.8.522S475.019,320.437,475.462,320.444Z" transform="translate(-465.985 -267.383)" fill="#e30c34"/>
        <path id="路径_14571" data-name="路径 14571" d="M475.479,313.44c.448,0,.818-.24.818-.532s-.37-.523-.818-.517-.789.244-.79.531S475.039,313.441,475.479,313.44Z" transform="translate(-466.002 -262.329)" fill="#e30c34"/>
        <path id="路径_14572" data-name="路径 14572" d="M477.371,306.481c.458-.011.836-.259.836-.553s-.378-.517-.836-.5-.808.261-.808.549S476.922,306.492,477.371,306.481Z" transform="translate(-467.355 -257.297)" fill="#e30c34"/>
        <path id="路径_14573" data-name="路径 14573" d="M481.224,299.664c.478-.024.871-.287.871-.584s-.393-.512-.871-.483-.844.286-.844.578S480.755,299.687,481.224,299.664Z" transform="translate(-470.113 -252.361)" fill="#e30c34"/>
        <path id="路径_14574" data-name="路径 14574" d="M487.146,293.008c.505-.042.92-.328.92-.633s-.415-.507-.92-.457-.894.325-.895.622S486.648,293.05,487.146,293.008Z" transform="translate(-474.355 -247.532)" fill="#e30c34"/>
        <path id="路径_14575" data-name="路径 14575" d="M495.234,286.428c.538-.07.978-.389.978-.706s-.441-.5-.978-.422-.955.385-.955.692S494.7,286.5,495.234,286.428Z" transform="translate(-480.155 -242.743)" fill="#e30c34"/>
        <path id="路径_14576" data-name="路径 14576" d="M505.507,279.735c.572-.109,1.039-.476,1.04-.811s-.467-.5-1.04-.378-1.019.47-1.02.792S504.941,279.842,505.507,279.735Z" transform="translate(-487.53 -237.848)" fill="#e30c34"/>
        <path id="路径_14577" data-name="路径 14577" d="M517.834,272.7c.6-.159,1.1-.591,1.1-.954s-.493-.5-1.1-.326-1.081.585-1.082.93S517.235,272.852,517.834,272.7Z" transform="translate(-496.391 -232.67)" fill="#e30c34"/>
        <path id="路径_14578" data-name="路径 14578" d="M531.893,265.162c.633-.219,1.146-.732,1.147-1.133s-.513-.516-1.147-.275-1.134.727-1.135,1.1S531.265,265.378,531.893,265.162Z" transform="translate(-506.51 -227.099)" fill="#e30c34"/>
        <path id="路径_14579" data-name="路径 14579" d="M547.16,257.255a1.861,1.861,0,0,0,1.18-1.342c0-.451-.527-.548-1.18-.236s-1.172.889-1.173,1.31S546.512,257.536,547.16,257.255Z" transform="translate(-517.513 -221.223)" fill="#e30c34"/>
        <path id="路径_14580" data-name="路径 14580" d="M562.928,249.5a2.177,2.177,0,0,0,1.2-1.579c0-.518-.537-.611-1.2-.228a2.266,2.266,0,0,0-1.2,1.545C561.727,249.719,562.266,249.844,562.928,249.5Z" transform="translate(-528.884 -215.416)" fill="#e30c34"/>
        <path id="路径_14581" data-name="路径 14581" d="M578.488,242.936a2.471,2.471,0,0,0,1.2-1.8c0-.591-.534-.7-1.2-.262a2.589,2.589,0,0,0-1.2,1.766C577.286,243.189,577.826,243.329,578.488,242.936Z" transform="translate(-540.125 -210.467)" fill="#e30c34"/>
        <path id="路径_14582" data-name="路径 14582" d="M593.08,238.919a2.712,2.712,0,0,0,1.179-1.992c0-.672-.523-.82-1.179-.35a2.856,2.856,0,0,0-1.186,1.96C591.895,239.16,592.428,239.338,593.08,238.919Z" transform="translate(-550.68 -207.357)" fill="#e30c34"/>
        <path id="路径_14583" data-name="路径 14583" d="M606.084,238.9a2.853,2.853,0,0,0,1.146-2.135c0-.755-.508-.97-1.146-.5a3.012,3.012,0,0,0-1.158,2.106C604.927,239.075,605.448,239.318,606.084,238.9Z" transform="translate(-560.095 -207.153)" fill="#e30c34"/>
        <path id="路径_14584" data-name="路径 14584" d="M617.046,244.065a2.843,2.843,0,0,0,1.107-2.211c0-.835-.491-1.141-1.107-.7a3.01,3.01,0,0,0-1.123,2.186C615.923,244.114,616.429,244.444,617.046,244.065Z" transform="translate(-568.04 -210.716)" fill="#e30c34"/>
        <path id="路径_14585" data-name="路径 14585" d="M625.664,254.944a2.688,2.688,0,0,0,1.078-2.229c0-.913-.478-1.333-1.078-.955a2.856,2.856,0,0,0-1.1,2.209C624.569,254.816,625.063,255.257,625.664,254.944Z" transform="translate(-574.286 -218.424)" fill="#e30c34"/>
        <path id="路径_14586" data-name="路径 14586" d="M631.859,271.3a2.36,2.36,0,0,0,1.046-2.148c0-.969-.464-1.514-1.046-1.231a2.515,2.515,0,0,0-1.066,2.134C630.794,270.957,631.274,271.518,631.859,271.3Z" transform="translate(-578.784 -230.149)" fill="#e30c34"/>
        <path id="路径_14587" data-name="路径 14587" d="M635.572,291.934c.569-.1,1.025-.988,1.025-1.992s-.455-1.676-1.025-1.511a2.074,2.074,0,0,0-1.047,1.985C634.526,291.348,635,292.029,635.572,291.934Z" transform="translate(-581.48 -245)" fill="#e30c34"/>
        <path id="路径_14588" data-name="路径 14588" d="M647.868,315.141c.434.026.782-.7.782-1.623s-.348-1.649-.782-1.622-.8.753-.8,1.623S647.429,315.114,647.868,315.141Z" transform="translate(-590.543 -261.97)" fill="#e30c34"/>
        <path id="路径_14589" data-name="路径 14589" d="M646.858,340.753c.438.143.788-.477.788-1.391s-.35-1.73-.788-1.821-.8.535-.8,1.4S646.416,340.608,646.858,340.753Z" transform="translate(-589.808 -280.493)" fill="#e30c34"/>
        <path id="路径_14590" data-name="路径 14590" d="M643.809,364.167c.448.251.8-.256.805-1.142a2.32,2.32,0,0,0-.805-1.972c-.451-.2-.821.318-.821,1.152A2.444,2.444,0,0,0,643.809,364.167Z" transform="translate(-587.594 -297.456)" fill="#e30c34"/>
        <path id="路径_14591" data-name="路径 14591" d="M638.683,383.551c.464.343.831-.052.832-.894a2.692,2.692,0,0,0-.832-2.063c-.465-.294-.847.117-.847.909A2.83,2.83,0,0,0,638.683,383.551Z" transform="translate(-583.872 -311.535)" fill="#e30c34"/>
        <path id="路径_14592" data-name="路径 14592" d="M631.441,397.662c.483.412.866.12.866-.664a2.925,2.925,0,0,0-.866-2.091c-.482-.365-.879-.055-.879.682A3.067,3.067,0,0,0,631.441,397.662Z" transform="translate(-578.617 -321.834)" fill="#e30c34"/>
        <path id="路径_14593" data-name="路径 14593" d="M622.088,405.989c.5.455.9.253.9-.465a2.991,2.991,0,0,0-.9-2.055c-.5-.411-.915-.189-.915.486A3.135,3.135,0,0,0,622.088,405.989Z" transform="translate(-571.833 -327.982)" fill="#e30c34"/>
        <path id="路径_14594" data-name="路径 14594" d="M610.716,408.756c.523.471.939.341.94-.305a2.907,2.907,0,0,0-.94-1.962c-.521-.43-.949-.277-.949.329A3.04,3.04,0,0,0,610.716,408.756Z" transform="translate(-563.593 -330.136)" fill="#e30c34"/>
        <path id="路径_14595" data-name="路径 14595" d="M597.546,406.809c.54.46.971.38.971-.193a2.7,2.7,0,0,0-.971-1.819c-.537-.423-.977-.319-.977.219A2.815,2.815,0,0,0,597.546,406.809Z" transform="translate(-554.057 -328.902)" fill="#e30c34"/>
        <path id="路径_14596" data-name="路径 14596" d="M582.947,401.4c.551.426.992.375.992-.129a2.412,2.412,0,0,0-.992-1.639c-.547-.393-.994-.317-.995.156A2.506,2.506,0,0,0,582.947,401.4Z" transform="translate(-543.497 -325.176)" fill="#e30c34"/>
        <path id="路径_14597" data-name="路径 14597" d="M567.425,393.912c.554.374,1,.331,1-.11a2.093,2.093,0,0,0-1-1.439c-.55-.345-1-.278-1,.137A2.165,2.165,0,0,0,567.425,393.912Z" transform="translate(-532.28 -319.947)" fill="#e30c34"/>
        <path id="路径_14598" data-name="路径 14598" d="M551.59,385.589c.548.311.99.261.99-.126a1.779,1.779,0,0,0-.99-1.235c-.544-.287-.986-.214-.987.152A1.829,1.829,0,0,0,551.59,385.589Z" transform="translate(-520.848 -314.103)" fill="#e30c34"/>
        <path id="路径_14599" data-name="路径 14599" d="M536.088,377.339c.534.245.966.176.966-.166s-.433-.815-.966-1.043-.958-.136-.958.19S535.559,377.1,536.088,377.339Z" transform="translate(-509.669 -308.289)" fill="#e30c34"/>
        <path id="路径_14600" data-name="路径 14600" d="M521.546,369.657c.507.181.918.089.919-.216s-.412-.7-.919-.866-.907-.056-.908.236S521.044,369.478,521.546,369.657Z" transform="translate(-499.199 -302.865)" fill="#e30c34"/>
        <path id="路径_14601" data-name="路径 14601" d="M508.408,362.63c.48.128.87.012.87-.269s-.391-.611-.87-.729-.856.014-.857.285S507.933,362.5,508.408,362.63Z" transform="translate(-489.744 -297.874)" fill="#e30c34"/>
        <path id="路径_14602" data-name="路径 14602" d="M497.036,356.124c.449.086.815-.052.816-.315s-.367-.546-.816-.625-.8.072-.8.328S496.593,356.038,497.036,356.124Z" transform="translate(-481.569 -293.231)" fill="#e30c34"/>
        <path id="路径_14603" data-name="路径 14603" d="M487.6,349.885c.418.055.76-.1.76-.352s-.342-.5-.76-.55-.743.115-.743.362S487.19,349.831,487.6,349.885Z" transform="translate(-474.794 -288.759)" fill="#e30c34"/>
        <path id="路径_14604" data-name="路径 14604" d="M480.144,343.677c.385.033.7-.133.7-.375s-.316-.465-.7-.5-.683.144-.683.382S479.765,343.644,480.144,343.677Z" transform="translate(-469.449 -284.301)" fill="#e30c34"/>
        <path id="路径_14605" data-name="路径 14605" d="M474.546,337.318c.361.019.657-.156.658-.394s-.3-.446-.658-.463-.638.163-.639.4S474.191,337.3,474.546,337.318Z" transform="translate(-465.437 -279.718)" fill="#e30c34"/>
        <path id="路径_14606" data-name="路径 14606" d="M470.691,330.748c.342.011.624-.171.624-.406s-.282-.434-.624-.443-.6.175-.6.409S470.354,330.737,470.691,330.748Z" transform="translate(-462.676 -274.977)" fill="#e30c34"/>
        <path id="路径_14607" data-name="路径 14607" d="M468.444,323.985c.331,0,.6-.18.6-.415s-.273-.427-.6-.431-.584.183-.584.416S468.119,323.98,468.444,323.985Z" transform="translate(-461.068 -270.094)" fill="#e30c34"/>
        <path id="路径_14608" data-name="路径 14608" d="M467.707,317.11c.327,0,.6-.188.6-.422s-.27-.423-.6-.422-.577.19-.577.422S467.386,317.109,467.707,317.11Z" transform="translate(-460.54 -265.128)" fill="#e30c34"/>
        <path id="路径_14609" data-name="路径 14609" d="M468.444,310.232c.331,0,.6-.2.6-.431s-.273-.42-.6-.415-.584.2-.584.43S468.119,310.235,468.444,310.232Z" transform="translate(-461.068 -260.158)" fill="#e30c34"/>
        <path id="路径_14610" data-name="路径 14610" d="M470.691,303.462c.342-.008.624-.207.624-.443s-.282-.417-.624-.406-.6.207-.6.44S470.354,303.47,470.691,303.462Z" transform="translate(-462.676 -255.264)" fill="#e30c34"/>
        <path id="路径_14611" data-name="路径 14611" d="M474.562,296.882c.357-.017.651-.223.651-.458s-.294-.409-.651-.39-.632.221-.632.454S474.211,296.9,474.562,296.882Z" transform="translate(-465.453 -250.51)" fill="#e30c34"/>
        <path id="路径_14612" data-name="路径 14612" d="M480.162,290.488c.381-.03.694-.25.694-.49s-.313-.4-.694-.372-.676.247-.677.483S479.786,290.517,480.162,290.488Z" transform="translate(-469.466 -245.879)" fill="#e30c34"/>
        <path id="路径_14613" data-name="路径 14613" d="M487.639,284.2c.41-.049.745-.293.745-.539s-.335-.4-.745-.345-.728.288-.728.53S487.235,284.252,487.639,284.2Z" transform="translate(-474.832 -241.317)" fill="#e30c34"/>
        <path id="路径_14614" data-name="路径 14614" d="M497.077,277.836c.44-.078.8-.355.8-.613s-.359-.393-.8-.309-.784.349-.784.6S496.642,277.912,497.077,277.836Z" transform="translate(-481.61 -236.679)" fill="#e30c34"/>
        <path id="路径_14615" data-name="路径 14615" d="M508.452,271.111c.47-.116.852-.44.853-.715s-.383-.389-.853-.263-.839.433-.84.7S507.987,271.226,508.452,271.111Z" transform="translate(-489.788 -231.761)" fill="#e30c34"/>
        <path id="路径_14616" data-name="路径 14616" d="M521.569,263.741c.5-.167.909-.555.909-.857s-.407-.393-.909-.214-.9.548-.9.838S521.072,263.906,521.569,263.741Z" transform="translate(-499.222 -226.341)" fill="#e30c34"/>
        <path id="路径_14617" data-name="路径 14617" d="M536.137,255.6c.523-.224.947-.687.947-1.022s-.423-.4-.947-.163-.939.68-.94,1S535.618,255.827,536.137,255.6Z" transform="translate(-509.717 -220.342)" fill="#e30c34"/>
        <path id="路径_14618" data-name="路径 14618" d="M551.64,246.83a1.747,1.747,0,0,0,.971-1.211c0-.379-.434-.428-.971-.124a1.8,1.8,0,0,0-.967,1.186C550.674,247.04,551.107,247.112,551.64,246.83Z" transform="translate(-520.898 -213.854)" fill="#e30c34"/>
        <path id="路径_14619" data-name="路径 14619" d="M567.475,237.954a2.055,2.055,0,0,0,.98-1.411c0-.432-.437-.474-.98-.107a2.125,2.125,0,0,0-.979,1.385C566.5,238.228,566.936,238.294,567.475,237.954Z" transform="translate(-532.33 -207.273)" fill="#e30c34"/>
        <path id="路径_14620" data-name="路径 14620" d="M583,229.943a2.367,2.367,0,0,0,.973-1.607c0-.494-.433-.544-.973-.126a2.459,2.459,0,0,0-.975,1.581C582.023,230.255,582.461,230.329,583,229.943Z" transform="translate(-543.547 -201.306)" fill="#e30c34"/>
        <path id="路径_14621" data-name="路径 14621" d="M597.6,224.09a2.65,2.65,0,0,0,.952-1.783c0-.562-.423-.64-.952-.189a2.76,2.76,0,0,0-.958,1.758C596.639,224.4,597.071,224.505,597.6,224.09Z" transform="translate(-554.108 -196.897)" fill="#e30c34"/>
        <path id="路径_14622" data-name="路径 14622" d="M610.766,221.811a2.854,2.854,0,0,0,.922-1.924c0-.633-.409-.761-.922-.3a2.98,2.98,0,0,0-.93,1.9C609.835,222.084,610.255,222.233,610.766,221.811Z" transform="translate(-563.642 -195.081)" fill="#e30c34"/>
        <path id="路径_14623" data-name="路径 14623" d="M622.111,224.341a2.966,2.966,0,0,0,.895-2.036c0-.71-.4-.91-.895-.459a3.107,3.107,0,0,0-.906,2.015C621.206,224.529,621.614,224.749,622.111,224.341Z" transform="translate(-571.856 -196.738)" fill="#e30c34"/>
        <path id="路径_14624" data-name="路径 14624" d="M631.464,232.568a2.9,2.9,0,0,0,.858-2.071c0-.776-.38-1.065-.858-.657a3.04,3.04,0,0,0-.871,2.053C630.593,232.624,630.986,232.931,631.464,232.568Z" transform="translate(-578.639 -202.554)" fill="#e30c34"/>
        <path id="路径_14625" data-name="路径 14625" d="M638.706,246.664a2.67,2.67,0,0,0,.824-2.044c0-.833-.365-1.224-.824-.885a2.8,2.8,0,0,0-.839,2.03C637.867,246.55,638.245,246.956,638.706,246.664Z" transform="translate(-583.894 -212.638)" fill="#e30c34"/>
        <path id="路径_14626" data-name="路径 14626" d="M643.831,266.081a2.3,2.3,0,0,0,.8-1.953c0-.877-.354-1.378-.8-1.13a2.422,2.422,0,0,0-.813,1.943C643.018,265.767,643.385,266.28,643.831,266.081Z" transform="translate(-587.616 -226.597)" fill="#e30c34"/>
        <path id="路径_14627" data-name="路径 14627" d="M646.858,289.511c.437-.092.788-.909.788-1.822s-.35-1.533-.788-1.39-.8.956-.8,1.817S646.415,289.6,646.858,289.511Z" transform="translate(-589.808 -243.463)" fill="#e30c34"/>
        <path id="路径_14628" data-name="路径 14628" d="M658.146,315.5c.31.017.558-.607.558-1.4s-.248-1.413-.558-1.4-.569.643-.57,1.4S657.832,315.48,658.146,315.5Z" transform="translate(-598.134 -262.556)" fill="#e30c34"/>
        <path id="路径_14629" data-name="路径 14629" d="M657.318,344c.313.116.563-.419.563-1.2s-.251-1.484-.563-1.566-.574.458-.574,1.2S657,343.886,657.318,344Z" transform="translate(-597.533 -283.164)" fill="#e30c34"/>
        <path id="路径_14630" data-name="路径 14630" d="M654.816,370.416c.321.21.576-.232.576-.993a2.209,2.209,0,0,0-.576-1.7c-.322-.176-.586.273-.586,1A2.3,2.3,0,0,0,654.816,370.416Z" transform="translate(-595.716 -302.278)" fill="#e30c34"/>
        <path id="路径_14631" data-name="路径 14631" d="M650.584,392.942c.332.29.6-.058.6-.785a2.6,2.6,0,0,0-.6-1.789c-.333-.258-.607.1-.607.8A2.7,2.7,0,0,0,650.584,392.942Z" transform="translate(-592.643 -318.606)" fill="#e30c34"/>
        <path id="路径_14632" data-name="路径 14632" d="M644.547,410.283c.348.354.624.094.624-.589a2.866,2.866,0,0,0-.624-1.829c-.347-.323-.633-.051-.634.6A2.971,2.971,0,0,0,644.547,410.283Z" transform="translate(-588.262 -331.209)" fill="#e30c34"/>
        <path id="路径_14633" data-name="路径 14633" d="M636.642,421.743c.365.4.655.219.656-.413a2.974,2.974,0,0,0-.656-1.821c-.364-.37-.664-.176-.664.427A3.082,3.082,0,0,0,636.642,421.743Z" transform="translate(-582.53 -339.584)" fill="#e30c34"/>
        <path id="路径_14634" data-name="路径 14634" d="M626.855,427.267c.383.425.688.311.688-.264a2.932,2.932,0,0,0-.688-1.768c-.382-.4-.7-.268-.7.279A3.038,3.038,0,0,0,626.855,427.267Z" transform="translate(-575.435 -343.69)" fill="#e30c34"/>
        <path id="路径_14635" data-name="路径 14635" d="M615.252,427.389c.4.429.72.367.72-.148a2.768,2.768,0,0,0-.72-1.673c-.4-.4-.726-.326-.726.165A2.865,2.865,0,0,0,615.252,427.389Z" transform="translate(-567.031 -343.91)" fill="#e30c34"/>
        <path id="路径_14636" data-name="路径 14636" d="M602.012,423.116c.415.414.746.387.747-.069a2.518,2.518,0,0,0-.747-1.544c-.413-.39-.75-.347-.751.087A2.6,2.6,0,0,0,602.012,423.116Z" transform="translate(-557.447 -340.966)" fill="#e30c34"/>
        <path id="路径_14637" data-name="路径 14637" d="M587.443,415.735c.425.382.765.374.765-.027a2.211,2.211,0,0,0-.765-1.39c-.422-.361-.767-.336-.768.046A2.279,2.279,0,0,0,587.443,415.735Z" transform="translate(-546.909 -335.784)" fill="#e30c34"/>
        <path id="路径_14638" data-name="路径 14638" d="M571.973,406.6c.429.336.773.332.774-.019a1.9,1.9,0,0,0-.774-1.221c-.426-.317-.773-.3-.774.038A1.945,1.945,0,0,0,571.973,406.6Z" transform="translate(-535.728 -329.334)" fill="#e30c34"/>
        <path id="路径_14639" data-name="路径 14639" d="M556.124,396.913c.426.282.77.269.77-.038a1.589,1.589,0,0,0-.77-1.05c-.423-.267-.767-.238-.768.056A1.623,1.623,0,0,0,556.124,396.913Z" transform="translate(-524.282 -322.476)" fill="#e30c34"/>
        <path id="路径_14640" data-name="路径 14640" d="M540.458,387.561c.417.225.753.2.754-.076s-.337-.672-.754-.887-.749-.168-.749.093S540.045,387.337,540.458,387.561Z" transform="translate(-512.977 -315.844)" fill="#e30c34"/>
        <path id="路径_14641" data-name="路径 14641" d="M525.521,379.04c.4.171.725.119.726-.124s-.325-.579-.726-.742-.72-.1-.72.138S525.123,378.87,525.521,379.04Z" transform="translate(-502.206 -309.791)" fill="#e30c34"/>
        <path id="路径_14642" data-name="路径 14642" d="M511.779,371.48c.38.124.689.049.689-.173s-.309-.5-.689-.621-.68-.031-.681.185S511.4,371.357,511.779,371.48Z" transform="translate(-492.306 -304.409)" fill="#e30c34"/>
        <path id="路径_14643" data-name="路径 14643" d="M499.581,364.742c.355.085.645-.011.645-.218s-.29-.445-.645-.525-.636.025-.636.228S499.229,364.658,499.581,364.742Z" transform="translate(-483.526 -299.596)" fill="#e30c34"/>
        <path id="路径_14644" data-name="路径 14644" d="M489.15,358.553c.326.054.591-.056.591-.251s-.266-.4-.591-.449-.581.067-.581.259S488.828,358.5,489.15,358.553Z" transform="translate(-476.03 -295.165)" fill="#e30c34"/>
        <path id="路径_14645" data-name="路径 14645" d="M480.515,352.59c.3.033.545-.09.545-.278s-.246-.369-.545-.4-.534.1-.535.284S480.218,352.557,480.515,352.59Z" transform="translate(-469.824 -290.878)" fill="#e30c34"/>
        <path id="路径_14646" data-name="路径 14646" d="M473.649,346.611c.276.019.5-.113.5-.3s-.227-.35-.5-.369-.491.118-.491.3S473.377,346.592,473.649,346.611Z" transform="translate(-464.895 -286.57)" fill="#e30c34"/>
        <path id="路径_14647" data-name="路径 14647" d="M468.434,340.458c.256.011.467-.127.467-.31s-.211-.339-.467-.349-.455.13-.455.312S468.181,340.447,468.434,340.458Z" transform="translate(-461.154 -282.13)" fill="#e30c34"/>
        <path id="路径_14648" data-name="路径 14648" d="M464.726,334.073c.237.005.432-.134.432-.313s-.2-.329-.432-.334a.371.371,0,0,0-.42.315A.391.391,0,0,0,464.726,334.073Z" transform="translate(-458.5 -277.526)" fill="#e30c34"/>
        <path id="路径_14649" data-name="路径 14649" d="M462.344,327.455a.372.372,0,0,0,.413-.318.382.382,0,0,0-.413-.327.363.363,0,0,0-.4.319A.372.372,0,0,0,462.344,327.455Z" transform="translate(-456.794 -272.746)" fill="#e30c34"/>
        <path id="路径_14650" data-name="路径 14650" d="M461.185,320.683a.33.33,0,1,0,0-.644.328.328,0,1,0,0,.644Z" transform="translate(-455.963 -267.854)" fill="#e30c34"/>
        <path id="路径_14651" data-name="路径 14651" d="M461.185,313.856a.33.33,0,1,0,0-.644.328.328,0,1,0,0,.644Z" transform="translate(-455.963 -262.922)" fill="#e30c34"/>
        <path id="路径_14652" data-name="路径 14652" d="M462.344,307.084a.382.382,0,0,0,.413-.327.418.418,0,0,0-.813.009A.363.363,0,0,0,462.344,307.084Z" transform="translate(-456.794 -258.029)" fill="#e30c34"/>
        <path id="路径_14653" data-name="路径 14653" d="M464.726,300.463c.237,0,.432-.155.432-.334s-.2-.319-.432-.313a.391.391,0,0,0-.42.332A.372.372,0,0,0,464.726,300.463Z" transform="translate(-458.5 -253.244)" fill="#e30c34"/>
        <path id="路径_14654" data-name="路径 14654" d="M468.449,294.063c.253-.01.46-.165.461-.345s-.208-.317-.461-.306-.449.163-.449.342S468.2,294.073,468.449,294.063Z" transform="translate(-461.169 -248.617)" fill="#e30c34"/>
        <path id="路径_14655" data-name="路径 14655" d="M473.665,287.892c.273-.018.5-.182.5-.364s-.224-.313-.5-.293-.485.18-.485.361S473.4,287.909,473.665,287.892Z" transform="translate(-464.911 -244.152)" fill="#e30c34"/>
        <path id="路径_14656" data-name="路径 14656" d="M480.532,281.875c.3-.031.538-.209.538-.4s-.242-.308-.538-.275-.528.206-.528.39S480.239,281.906,480.532,281.875Z" transform="translate(-469.841 -239.794)" fill="#e30c34"/>
        <path id="路径_14657" data-name="路径 14657" d="M489.169,275.838c.321-.05.583-.251.583-.443s-.262-.3-.583-.248-.573.247-.573.436S488.852,275.888,489.169,275.838Z" transform="translate(-476.049 -235.411)" fill="#e30c34"/>
        <path id="路径_14658" data-name="路径 14658" d="M499.622,269.5c.346-.078.629-.309.629-.512s-.283-.295-.629-.212-.62.3-.62.5S499.279,269.581,499.622,269.5Z" transform="translate(-483.567 -230.799)" fill="#e30c34"/>
        <path id="路径_14659" data-name="路径 14659" d="M511.824,262.545c.37-.115.671-.388.671-.6s-.3-.289-.671-.169-.664.382-.664.593S511.457,262.658,511.824,262.545Z" transform="translate(-492.351 -225.715)" fill="#e30c34"/>
        <path id="路径_14660" data-name="路径 14660" d="M525.569,254.667c.39-.159.707-.486.707-.723s-.317-.288-.707-.121-.7.48-.7.709S525.181,254.825,525.569,254.667Z" transform="translate(-502.254 -219.944)" fill="#e30c34"/>
        <path id="路径_14661" data-name="路径 14661" d="M540.507,245.742c.406-.21.734-.6.735-.864s-.328-.294-.735-.074-.73.595-.73.849S540.1,245.95,540.507,245.742Z" transform="translate(-513.026 -213.392)" fill="#e30c34"/>
        <path id="路径_14662" data-name="路径 14662" d="M556.174,235.928a1.55,1.55,0,0,0,.75-1.023c0-.3-.335-.312-.75-.037a1.584,1.584,0,0,0-.748,1.007C555.426,236.16,555.762,236.188,556.174,235.928Z" transform="translate(-524.332 -206.177)" fill="#e30c34"/>
        <path id="路径_14663" data-name="路径 14663" d="M572.023,225.765a1.848,1.848,0,0,0,.754-1.191c0-.342-.336-.346-.754-.018a1.9,1.9,0,0,0-.754,1.173C571.269,226.055,571.608,226.075,572.023,225.765Z" transform="translate(-535.779 -198.695)" fill="#e30c34"/>
        <path id="路径_14664" data-name="路径 14664" d="M587.493,216.184a2.158,2.158,0,0,0,.746-1.355c0-.39-.332-.4-.746-.026a2.222,2.222,0,0,0-.748,1.337C586.745,216.513,587.081,216.536,587.493,216.184Z" transform="translate(-546.96 -191.626)" fill="#e30c34"/>
        <path id="路径_14665" data-name="路径 14665" d="M602.036,208.394a2.486,2.486,0,0,0,.737-1.525c0-.451-.328-.477-.737-.068a2.568,2.568,0,0,0-.741,1.507C601.3,208.738,601.629,208.78,602.036,208.394Z" transform="translate(-557.472 -185.833)" fill="#e30c34"/>
        <path id="路径_14666" data-name="路径 14666" d="M615.276,203.824a2.736,2.736,0,0,0,.711-1.652c0-.509-.316-.57-.711-.146a2.83,2.83,0,0,0-.717,1.636C614.559,204.147,614.882,204.223,615.276,203.824Z" transform="translate(-567.055 -182.389)" fill="#e30c34"/>
        <path id="路径_14667" data-name="路径 14667" d="M626.878,203.748a2.9,2.9,0,0,0,.68-1.746c0-.567-.3-.68-.68-.26a3,3,0,0,0-.687,1.731C626.191,204.014,626.5,204.14,626.878,203.748Z" transform="translate(-575.459 -182.205)" fill="#e30c34"/>
        <path id="路径_14668" data-name="路径 14668" d="M636.664,209.166a2.938,2.938,0,0,0,.647-1.8c0-.623-.287-.8-.647-.407a3.045,3.045,0,0,0-.656,1.785C636.009,209.34,636.3,209.531,636.664,209.166Z" transform="translate(-582.552 -186.006)" fill="#e30c34"/>
        <path id="路径_14669" data-name="路径 14669" d="M644.568,220.6a2.832,2.832,0,0,0,.616-1.806c0-.675-.273-.931-.616-.581a2.936,2.936,0,0,0-.625,1.795C643.942,220.648,644.225,220.916,644.568,220.6Z" transform="translate(-588.283 -194.172)" fill="#e30c34"/>
        <path id="路径_14670" data-name="路径 14670" d="M650.6,237.963a2.572,2.572,0,0,0,.589-1.766c0-.718-.261-1.061-.589-.775a2.671,2.671,0,0,0-.6,1.757C650,237.865,650.275,238.218,650.6,237.963Z" transform="translate(-592.663 -206.647)" fill="#e30c34"/>
        <path id="路径_14671" data-name="路径 14671" d="M654.816,260.513a2.211,2.211,0,0,0,.576-1.7c0-.761-.255-1.2-.576-.992a2.3,2.3,0,0,0-.586,1.693C654.23,260.241,654.495,260.69,654.816,260.513Z" transform="translate(-595.716 -222.865)" fill="#e30c34"/>
        <path id="路径_14672" data-name="路径 14672" d="M657.318,286.973c.312-.083.563-.785.563-1.567s-.25-1.317-.563-1.2-.574.816-.574,1.563S657,287.056,657.318,286.973Z" transform="translate(-597.533 -241.954)" fill="#e30c34"/>
        <path id="路径_14673" data-name="路径 14673" d="M667.525,315.97c.2.009.359-.482.359-1.1s-.16-1.108-.359-1.1-.366.5-.366,1.1S667.323,315.96,667.525,315.97Z" transform="translate(-605.057 -263.327)" fill="#e30c34"/>
        <path id="路径_14674" data-name="路径 14674" d="M666.851,347.655c.2.088.362-.334.362-.946s-.161-1.164-.362-1.233-.368.356-.369.949S666.648,347.566,666.851,347.655Z" transform="translate(-604.568 -286.227)" fill="#e30c34"/>
        <path id="路径_14675" data-name="路径 14675" d="M664.789,377.269c.211.164.378-.192.378-.8a2.032,2.032,0,0,0-.378-1.365c-.211-.145-.384.216-.384.8A2.091,2.091,0,0,0,664.789,377.269Z" transform="translate(-603.067 -307.615)" fill="#e30c34"/>
        <path id="路径_14676" data-name="路径 14676" d="M661.314,403.109c.219.23.393-.054.393-.637a2.417,2.417,0,0,0-.393-1.441c-.219-.211-.4.079-.4.644A2.482,2.482,0,0,0,661.314,403.109Z" transform="translate(-600.546 -326.319)" fill="#e30c34"/>
        <path id="路径_14677" data-name="路径 14677" d="M656.318,423.809c.23.283.413.069.413-.483a2.677,2.677,0,0,0-.413-1.482c-.229-.264-.418-.043-.418.491A2.747,2.747,0,0,0,656.318,423.809Z" transform="translate(-596.923 -341.325)" fill="#e30c34"/>
        <path id="路径_14678" data-name="路径 14678" d="M649.7,438.561c.243.323.436.172.436-.343a2.8,2.8,0,0,0-.436-1.488c-.242-.305-.441-.147-.442.351A2.87,2.87,0,0,0,649.7,438.561Z" transform="translate(-592.127 -352.049)" fill="#e30c34"/>
        <path id="路径_14679" data-name="路径 14679" d="M641.394,447.109c.257.349.462.253.462-.22a2.788,2.788,0,0,0-.462-1.462c-.256-.332-.467-.228-.467.228A2.86,2.86,0,0,0,641.394,447.109Z" transform="translate(-586.105 -358.304)" fill="#e30c34"/>
        <path id="路径_14680" data-name="路径 14680" d="M631.358,449.724c.271.361.488.31.488-.118a2.666,2.666,0,0,0-.488-1.405c-.271-.345-.492-.286-.493.127A2.732,2.732,0,0,0,631.358,449.724Z" transform="translate(-578.835 -360.286)" fill="#e30c34"/>
        <path id="路径_14681" data-name="路径 14681" d="M619.643,447.15c.285.358.513.342.513-.04a2.454,2.454,0,0,0-.513-1.322c-.284-.344-.516-.319-.516.05A2.516,2.516,0,0,0,619.643,447.15Z" transform="translate(-570.355 -358.53)" fill="#e30c34"/>
        <path id="路径_14682" data-name="路径 14682" d="M606.4,440.486c.3.342.534.349.534.011a2.188,2.188,0,0,0-.534-1.216c-.3-.329-.536-.327-.537,0A2.242,2.242,0,0,0,606.4,440.486Z" transform="translate(-560.773 -353.826)" fill="#e30c34"/>
        <path id="路径_14683" data-name="路径 14683" d="M591.893,431.034c.3.315.549.333.55.036a1.9,1.9,0,0,0-.55-1.094c-.3-.3-.551-.312-.551-.025A1.94,1.94,0,0,0,591.893,431.034Z" transform="translate(-550.281 -347.112)" fill="#e30c34"/>
        <path id="路径_14684" data-name="路径 14684" d="M576.516,420.14c.3.273.548.291.548.036a1.575,1.575,0,0,0-.548-.945c-.3-.263-.548-.273-.548-.026A1.606,1.606,0,0,0,576.516,420.14Z" transform="translate(-539.174 -339.371)" fill="#e30c34"/>
        <path id="路径_14685" data-name="路径 14685" d="M560.675,408.925c.3.231.547.241.547.018a1.307,1.307,0,0,0-.547-.814c-.3-.223-.546-.224-.546-.007A1.327,1.327,0,0,0,560.675,408.925Z" transform="translate(-527.73 -331.376)" fill="#e30c34"/>
        <path id="路径_14686" data-name="路径 14686" d="M544.9,398.29c.3.187.538.183.538-.014a1.069,1.069,0,0,0-.538-.689c-.3-.18-.535-.167-.536.024A1.083,1.083,0,0,0,544.9,398.29Z" transform="translate(-516.338 -323.789)" fill="#e30c34"/>
        <path id="路径_14687" data-name="路径 14687" d="M529.679,388.746c.287.144.519.122.52-.054s-.233-.435-.52-.575-.516-.109-.517.062S529.393,388.6,529.679,388.746Z" transform="translate(-505.357 -316.976)" fill="#e30c34"/>
        <path id="路径_14688" data-name="路径 14688" d="M515.467,380.451c.273.106.494.065.494-.095s-.221-.376-.494-.479-.49-.055-.49.1S515.2,380.345,515.467,380.451Z" transform="translate(-495.109 -311.047)" fill="#e30c34"/>
        <path id="路径_14689" data-name="路径 14689" d="M502.614,373.279c.256.074.464.016.464-.132s-.208-.329-.464-.4-.459-.008-.459.138S502.36,373.205,502.614,373.279Z" transform="translate(-485.845 -305.913)" fill="#e30c34"/>
        <path id="路径_14690" data-name="路径 14690" d="M491.354,366.938c.237.049.429-.023.429-.164s-.193-.295-.429-.342-.424.03-.424.169S491.119,366.89,491.354,366.938Z" transform="translate(-477.735 -301.362)" fill="#e30c34"/>
        <path id="路径_14691" data-name="路径 14691" d="M481.815,361.088c.213.03.387-.052.387-.185s-.174-.266-.387-.295-.382.057-.382.189S481.6,361.058,481.815,361.088Z" transform="translate(-470.874 -297.161)" fill="#e30c34"/>
        <path id="路径_14692" data-name="路径 14692" d="M473.953,355.395c.195.017.353-.073.353-.2s-.159-.25-.353-.267-.347.076-.347.205S473.761,355.377,473.953,355.395Z" transform="translate(-465.219 -293.057)" fill="#e30c34"/>
        <path id="路径_14693" data-name="路径 14693" d="M467.7,349.629c.177.009.322-.086.322-.214s-.145-.241-.322-.25-.316.088-.316.216S467.527,349.62,467.7,349.629Z" transform="translate(-460.725 -288.897)" fill="#e30c34"/>
        <path id="路径_14694" data-name="路径 14694" d="M462.912,343.649a.26.26,0,0,0,.3-.222.279.279,0,0,0-.3-.239.256.256,0,0,0-.289.223A.273.273,0,0,0,462.912,343.649Z" transform="translate(-457.284 -284.579)" fill="#e30c34"/>
        <path id="路径_14695" data-name="路径 14695" d="M459.416,337.4a.251.251,0,0,0,.274-.226.259.259,0,0,0-.274-.234.246.246,0,0,0-.267.226A.254.254,0,0,0,459.416,337.4Z" transform="translate(-454.774 -280.066)" fill="#e30c34"/>
        <path id="路径_14696" data-name="路径 14696" d="M457.053,330.9a.244.244,0,0,0,.258-.228.247.247,0,0,0-.258-.231.239.239,0,0,0-.251.228A.242.242,0,0,0,457.053,330.9Z" transform="translate(-453.079 -275.37)" fill="#e30c34"/>
        <path id="路径_14697" data-name="路径 14697" d="M455.7,324.217a.226.226,0,1,0,0-.45.226.226,0,1,0,0,.45Z" transform="translate(-452.113 -270.548)" fill="#e30c34"/>
        <path id="路径_14698" data-name="路径 14698" d="M455.259,317.425a.226.226,0,1,0,0-.45.225.225,0,1,0,0,.45Z" transform="translate(-451.795 -265.641)" fill="#e30c34"/>
        <path id="路径_14699" data-name="路径 14699" d="M455.7,310.634a.226.226,0,1,0,0-.45.226.226,0,1,0,0,.45Z" transform="translate(-452.113 -260.734)" fill="#e30c34"/>
        <path id="路径_14700" data-name="路径 14700" d="M457.064,303.944a.242.242,0,0,0,.253-.227.251.251,0,0,0-.5,0A.235.235,0,0,0,457.064,303.944Z" transform="translate(-453.09 -255.9)" fill="#e30c34"/>
        <path id="路径_14701" data-name="路径 14701" d="M459.428,297.442a.255.255,0,0,0,.269-.23.246.246,0,0,0-.269-.222.25.25,0,0,0-.262.229A.242.242,0,0,0,459.428,297.442Z" transform="translate(-454.786 -251.203)" fill="#e30c34"/>
        <path id="路径_14702" data-name="路径 14702" d="M462.926,291.192a.274.274,0,0,0,.29-.235.255.255,0,0,0-.29-.218.268.268,0,0,0-.284.234A.251.251,0,0,0,462.926,291.192Z" transform="translate(-457.298 -246.686)" fill="#e30c34"/>
        <path id="路径_14703" data-name="路径 14703" d="M467.717,285.2c.174-.009.316-.119.316-.245s-.142-.22-.316-.211-.311.118-.311.243S467.544,285.213,467.717,285.2Z" transform="translate(-460.74 -242.357)" fill="#e30c34"/>
        <path id="路径_14704" data-name="路径 14704" d="M473.97,279.422c.191-.017.347-.134.347-.262s-.156-.216-.347-.2-.341.133-.341.26S473.781,279.438,473.97,279.422Z" transform="translate(-465.236 -238.174)" fill="#e30c34"/>
        <path id="路径_14705" data-name="路径 14705" d="M481.832,273.692c.209-.028.38-.159.38-.289s-.171-.211-.38-.182-.375.157-.375.286S481.624,273.72,481.832,273.692Z" transform="translate(-470.891 -234.025)" fill="#e30c34"/>
        <path id="路径_14706" data-name="路径 14706" d="M491.393,267.762c.228-.046.414-.194.414-.33s-.186-.205-.414-.158-.409.191-.409.326S491.167,267.807,491.393,267.762Z" transform="translate(-477.774 -229.722)" fill="#e30c34"/>
        <path id="路径_14707" data-name="路径 14707" d="M502.657,261.295c.246-.069.447-.243.447-.387s-.2-.2-.447-.128-.442.24-.443.381S502.412,261.363,502.657,261.295Z" transform="translate(-485.888 -225.019)" fill="#e30c34"/>
        <path id="路径_14708" data-name="路径 14708" d="M515.512,253.926c.263-.1.476-.307.477-.462s-.214-.193-.477-.091-.473.3-.473.455S515.251,254.024,515.512,253.926Z" transform="translate(-495.154 -219.648)" fill="#e30c34"/>
        <path id="路径_14709" data-name="路径 14709" d="M529.726,245.36c.277-.135.5-.385.5-.555s-.224-.191-.5-.052-.5.382-.5.547S529.451,245.494,529.726,245.36Z" transform="translate(-505.405 -213.396)" fill="#e30c34"/>
        <path id="路径_14710" data-name="路径 14710" d="M544.946,235.486a1.032,1.032,0,0,0,.518-.664c0-.19-.232-.194-.518-.014a1.045,1.045,0,0,0-.516.656C544.43,235.648,544.661,235.659,544.946,235.486Z" transform="translate(-516.388 -206.181)" fill="#e30c34"/>
        <path id="路径_14711" data-name="路径 14711" d="M560.7,224.464a1.285,1.285,0,0,0,.537-.8c0-.22-.24-.21-.537.017a1.3,1.3,0,0,0-.537.79C560.164,224.685,560.4,224.683,560.7,224.464Z" transform="translate(-527.755 -198.111)" fill="#e30c34"/>
        <path id="路径_14712" data-name="路径 14712" d="M576.542,212.874a1.548,1.548,0,0,0,.538-.929c0-.251-.24-.233-.538.036a1.578,1.578,0,0,0-.538.919C576,213.142,576.246,213.133,576.542,212.874Z" transform="translate(-539.2 -189.631)" fill="#e30c34"/>
        <path id="路径_14713" data-name="路径 14713" d="M591.944,201.6a1.832,1.832,0,0,0,.53-1.056c0-.287-.236-.269-.53.035a1.872,1.872,0,0,0-.532,1.046C591.412,201.906,591.651,201.9,591.944,201.6Z" transform="translate(-550.331 -181.377)" fill="#e30c34"/>
        <path id="路径_14714" data-name="路径 14714" d="M606.45,191.846a2.115,2.115,0,0,0,.516-1.174c0-.327-.229-.32-.516.011a2.166,2.166,0,0,0-.518,1.164C605.932,192.163,606.165,192.164,606.45,191.846Z" transform="translate(-560.822 -174.215)" fill="#e30c34"/>
        <path id="路径_14715" data-name="路径 14715" d="M619.69,184.94a2.369,2.369,0,0,0,.5-1.276c0-.369-.22-.384-.5-.039a2.429,2.429,0,0,0-.5,1.267C619.192,185.249,619.417,185.272,619.69,184.94Z" transform="translate(-570.402 -169.118)" fill="#e30c34"/>
        <path id="路径_14716" data-name="路径 14716" d="M631.4,182.194a2.575,2.575,0,0,0,.471-1.356c0-.413-.21-.462-.471-.114a2.636,2.636,0,0,0-.475,1.348C630.927,182.472,631.141,182.528,631.4,182.194Z" transform="translate(-578.88 -167.035)" fill="#e30c34"/>
        <path id="路径_14717" data-name="路径 14717" d="M641.415,184.674a2.742,2.742,0,0,0,.454-1.437c0-.464-.2-.558-.454-.215a2.812,2.812,0,0,0-.459,1.428C640.956,184.9,641.163,185,641.415,184.674Z" transform="translate(-586.126 -168.713)" fill="#e30c34"/>
        <path id="路径_14718" data-name="路径 14718" d="M649.724,193.178a2.756,2.756,0,0,0,.428-1.463c0-.505-.19-.654-.428-.336a2.825,2.825,0,0,0-.434,1.455C649.29,193.323,649.486,193.478,649.724,193.178Z" transform="translate(-592.147 -174.78)" fill="#e30c34"/>
        <path id="路径_14719" data-name="路径 14719" d="M656.337,207.937a2.631,2.631,0,0,0,.405-1.457c0-.542-.18-.752-.405-.474a2.7,2.7,0,0,0-.411,1.449C655.926,207.98,656.111,208.2,656.337,207.937Z" transform="translate(-596.942 -185.379)" fill="#e30c34"/>
        <path id="路径_14720" data-name="路径 14720" d="M661.333,228.678a2.376,2.376,0,0,0,.386-1.416c0-.573-.171-.851-.386-.626a2.438,2.438,0,0,0-.392,1.41C660.941,228.6,661.117,228.885,661.333,228.678Z" transform="translate(-600.565 -200.316)" fill="#e30c34"/>
        <path id="路径_14721" data-name="路径 14721" d="M664.807,254.573a2,2,0,0,0,.372-1.342c0-.6-.165-.946-.372-.785a2.054,2.054,0,0,0-.377,1.337C664.43,254.361,664.6,254.715,664.807,254.573Z" transform="translate(-603.086 -218.991)" fill="#e30c34"/>
        <path id="路径_14722" data-name="路径 14722" d="M666.851,284.265c.2-.069.362-.622.362-1.234s-.161-1.033-.362-.946-.368.639-.369,1.231S666.648,284.334,666.851,284.265Z" transform="translate(-604.568 -240.426)" fill="#e30c34"/>
        <path id="路径_14723" data-name="路径 14723" d="M675.918,316.534c.108,0,.195-.328.195-.742s-.087-.745-.195-.741-.2.336-.2.742S675.81,316.53,675.918,316.534Z" transform="translate(-611.243 -264.251)" fill="#e30c34"/>
        <path id="路径_14724" data-name="路径 14724" d="M675.374,351.791c.109.059.2-.225.2-.636s-.088-.785-.2-.836-.2.235-.2.637S675.265,351.732,675.374,351.791Z" transform="translate(-610.849 -289.727)" fill="#e30c34"/>
        <path id="路径_14725" data-name="路径 14725" d="M673.719,384.989c.112.109.2-.126.2-.527a1.625,1.625,0,0,0-.2-.911c-.112-.1-.2.137-.2.53A1.655,1.655,0,0,0,673.719,384.989Z" transform="translate(-609.649 -313.723)" fill="#e30c34"/>
        <path id="路径_14726" data-name="路径 14726" d="M670.894,414.358c.117.152.21-.036.21-.422a1.947,1.947,0,0,0-.21-.964c-.117-.145-.213.046-.213.425A1.974,1.974,0,0,0,670.894,414.358Z" transform="translate(-607.602 -334.962)" fill="#e30c34"/>
        <path id="路径_14727" data-name="路径 14727" d="M666.8,438.556c.124.188.222.044.222-.323a2.149,2.149,0,0,0-.222-.993c-.123-.18-.224-.033-.224.327A2.179,2.179,0,0,0,666.8,438.556Z" transform="translate(-604.638 -352.474)" fill="#e30c34"/>
        <path id="路径_14728" data-name="路径 14728" d="M661.334,456.725c.131.215.236.112.236-.233a2.242,2.242,0,0,0-.236-1c-.131-.208-.238-.1-.238.236A2.283,2.283,0,0,0,661.334,456.725Z" transform="translate(-600.677 -365.639)" fill="#e30c34"/>
        <path id="路径_14729" data-name="路径 14729" d="M654.376,468.486c.14.234.252.167.252-.152a2.242,2.242,0,0,0-.252-.991c-.14-.227-.254-.157-.254.155A2.269,2.269,0,0,0,654.376,468.486Z" transform="translate(-595.638 -374.182)" fill="#e30c34"/>
        <path id="路径_14730" data-name="路径 14730" d="M645.841,473.917c.149.245.269.209.269-.082a2.143,2.143,0,0,0-.269-.962c-.149-.239-.271-.2-.271.085A2.172,2.172,0,0,0,645.841,473.917Z" transform="translate(-589.46 -378.161)" fill="#e30c34"/>
        <path id="路径_14731" data-name="路径 14731" d="M635.688,473.525c.159.248.286.238.286-.025a1.991,1.991,0,0,0-.286-.918c-.158-.243-.288-.229-.288.029A2.02,2.02,0,0,0,635.688,473.525Z" transform="translate(-582.112 -377.938)" fill="#e30c34"/>
        <path id="路径_14732" data-name="路径 14732" d="M623.953,468.183c.167.244.3.253.3.018a1.8,1.8,0,0,0-.3-.86c-.167-.238-.3-.244-.3-.014A1.822,1.822,0,0,0,623.953,468.183Z" transform="translate(-573.622 -374.145)" fill="#e30c34"/>
        <path id="路径_14733" data-name="路径 14733" d="M610.762,459.044c.175.231.316.253.316.045a1.577,1.577,0,0,0-.316-.789c-.175-.226-.317-.244-.317-.041A1.6,1.6,0,0,0,610.762,459.044Z" transform="translate(-564.082 -367.613)" fill="#e30c34"/>
        <path id="路径_14734" data-name="路径 14734" d="M596.344,447.409c.181.213.326.239.326.057a1.351,1.351,0,0,0-.326-.71c-.18-.208-.327-.231-.327-.052A1.367,1.367,0,0,0,596.344,447.409Z" transform="translate(-553.659 -359.28)" fill="#e30c34"/>
        <path id="路径_14735" data-name="路径 14735" d="M581.026,434.573c.184.188.332.213.332.054a1.13,1.13,0,0,0-.332-.625c-.183-.184-.332-.206-.332-.05A1.138,1.138,0,0,0,581.026,434.573Z" transform="translate(-542.588 -350.079)" fill="#e30c34"/>
        <path id="路径_14736" data-name="路径 14736" d="M565.213,421.679c.184.16.332.179.332.04a.922.922,0,0,0-.332-.539c-.184-.157-.332-.172-.333-.036A.934.934,0,0,0,565.213,421.679Z" transform="translate(-531.163 -340.833)" fill="#e30c34"/>
        <path id="路径_14737" data-name="路径 14737" d="M549.359,409.6c.181.131.328.14.328.017a.748.748,0,0,0-.328-.457c-.181-.129-.327-.134-.328-.013A.754.754,0,0,0,549.359,409.6Z" transform="translate(-519.712 -332.168)" fill="#e30c34"/>
        <path id="路径_14738" data-name="路径 14738" d="M533.924,398.856c.176.1.318.1.318-.01s-.143-.281-.318-.382-.317-.094-.318.014S533.749,398.753,533.924,398.856Z" transform="translate(-508.569 -324.463)" fill="#e30c34"/>
        <path id="路径_14739" data-name="路径 14739" d="M519.361,389.652c.163.074.295.058.295-.038s-.132-.234-.295-.307-.294-.054-.294.04S519.2,389.578,519.361,389.652Z" transform="translate(-498.064 -317.867)" fill="#e30c34"/>
        <path id="路径_14740" data-name="路径 14740" d="M505.973,381.859c.153.053.277.025.277-.064s-.124-.2-.277-.255-.276-.022-.276.066S505.82,381.807,505.973,381.859Z" transform="translate(-488.404 -312.269)" fill="#e30c34"/>
        <path id="路径_14741" data-name="路径 14741" d="M494.042,375.2c.142.035.257,0,.257-.086s-.115-.18-.257-.215-.255.005-.255.088S493.9,375.163,494.042,375.2Z" transform="translate(-479.799 -307.479)" fill="#e30c34"/>
        <path id="路径_14742" data-name="路径 14742" d="M483.714,369.292c.13.022.235-.024.235-.1s-.105-.163-.235-.186-.233.026-.233.105S483.585,369.27,483.714,369.292Z" transform="translate(-472.354 -303.226)" fill="#e30c34"/>
        <path id="路径_14743" data-name="路径 14743" d="M475.026,363.769c.118.013.213-.039.213-.117s-.1-.152-.213-.165-.211.04-.211.118S474.909,363.755,475.026,363.769Z" transform="translate(-466.093 -299.243)" fill="#e30c34"/>
        <path id="路径_14744" data-name="路径 14744" d="M467.924,358.322c.106.007.192-.049.192-.126s-.086-.145-.192-.152-.19.05-.19.127S467.819,358.315,467.924,358.322Z" transform="translate(-460.977 -295.311)" fill="#e30c34"/>
        <path id="路径_14745" data-name="路径 14745" d="M462.289,352.738a.152.152,0,0,0,.173-.132.165.165,0,0,0-.173-.144.151.151,0,0,0-.171.132A.164.164,0,0,0,462.289,352.738Z" transform="translate(-456.919 -291.279)" fill="#e30c34"/>
        <path id="路径_14746" data-name="路径 14746" d="M457.97,346.905a.141.141,0,0,0,.152-.132.146.146,0,0,0-.152-.136.14.14,0,0,0-.15.132A.145.145,0,0,0,457.97,346.905Z" transform="translate(-453.814 -287.072)" fill="#e30c34"/>
        <path id="路径_14747" data-name="路径 14747" d="M454.767,340.772a.134.134,0,1,0,0-.267.134.134,0,1,0,0,.267Z" transform="translate(-451.51 -282.641)" fill="#e30c34"/>
        <path id="路径_14748" data-name="路径 14748" d="M452.422,334.365a.133.133,0,1,0,0-.267.134.134,0,1,0,0,.267Z" transform="translate(-449.812 -278.012)" fill="#e30c34"/>
        <path id="路径_14749" data-name="路径 14749" d="M450.749,327.741a.141.141,0,0,0,.146-.134.139.139,0,0,0-.146-.133.134.134,0,1,0,0,.267Z" transform="translate(-448.598 -273.226)" fill="#e30c34"/>
        <path id="路径_14750" data-name="路径 14750" d="M449.877,320.978a.134.134,0,1,0,0-.267.135.135,0,1,0,0,.267Z" transform="translate(-447.966 -268.34)" fill="#e30c34"/>
        <path id="路径_14751" data-name="路径 14751" d="M449.877,314.168a.135.135,0,1,0-.151-.134A.144.144,0,0,0,449.877,314.168Z" transform="translate(-447.966 -263.42)" fill="#e30c34"/>
        <path id="路径_14752" data-name="路径 14752" d="M450.749,307.4a.134.134,0,1,0-.148-.134A.142.142,0,0,0,450.749,307.4Z" transform="translate(-448.598 -258.534)" fill="#e30c34"/>
        <path id="路径_14753" data-name="路径 14753" d="M452.433,300.788a.129.129,0,1,0,0-.259.13.13,0,1,0,0,.259Z" transform="translate(-449.823 -253.759)" fill="#e30c34"/>
        <path id="路径_14754" data-name="路径 14754" d="M454.778,294.381a.129.129,0,1,0,0-.259.129.129,0,1,0,0,.259Z" transform="translate(-451.521 -249.13)" fill="#e30c34"/>
        <path id="路径_14755" data-name="路径 14755" d="M457.982,288.247a.142.142,0,0,0,.147-.132.137.137,0,0,0-.147-.127.14.14,0,0,0-.145.131A.136.136,0,0,0,457.982,288.247Z" transform="translate(-453.826 -244.698)" fill="#e30c34"/>
        <path id="路径_14756" data-name="路径 14756" d="M462.316,282.406a.155.155,0,0,0,.162-.135.143.143,0,0,0-.162-.124.153.153,0,0,0-.161.135A.142.142,0,0,0,462.316,282.406Z" transform="translate(-456.946 -240.478)" fill="#e30c34"/>
        <path id="路径_14757" data-name="路径 14757" d="M467.954,276.816c.1-.006.181-.07.181-.143s-.081-.125-.181-.119-.178.07-.178.142S467.856,276.822,467.954,276.816Z" transform="translate(-461.007 -236.437)" fill="#e30c34"/>
        <path id="路径_14758" data-name="路径 14758" d="M475.058,271.355c.11-.012.2-.082.2-.155s-.09-.122-.2-.11-.2.081-.2.154S474.949,271.367,475.058,271.355Z" transform="translate(-466.125 -232.488)" fill="#e30c34"/>
        <path id="路径_14759" data-name="路径 14759" d="M483.75,265.8c.122-.021.221-.1.221-.174s-.1-.119-.221-.1-.219.1-.219.173S483.629,265.823,483.75,265.8Z" transform="translate(-472.39 -228.47)" fill="#e30c34"/>
        <path id="路径_14760" data-name="路径 14760" d="M494.082,259.84c.133-.033.241-.124.241-.2s-.108-.114-.241-.081-.24.122-.24.2S493.95,259.872,494.082,259.84Z" transform="translate(-479.84 -224.148)" fill="#e30c34"/>
        <path id="路径_14761" data-name="路径 14761" d="M506.016,253.083c.143-.049.26-.157.26-.24s-.117-.109-.26-.06-.259.155-.259.238S505.873,253.132,506.016,253.083Z" transform="translate(-488.448 -219.246)" fill="#e30c34"/>
        <path id="路径_14762" data-name="路径 14762" d="M519.407,245.148c.153-.069.277-.2.277-.289s-.124-.105-.277-.036-.276.2-.276.286S519.255,245.216,519.407,245.148Z" transform="translate(-498.11 -213.481)" fill="#e30c34"/>
        <path id="路径_14763" data-name="路径 14763" d="M533.973,235.729c.165-.1.3-.257.3-.359s-.134-.106-.3-.01-.3.255-.3.356S533.808,235.824,533.973,235.729Z" transform="translate(-508.617 -206.625)" fill="#e30c34"/>
        <path id="路径_14764" data-name="路径 14764" d="M549.408,224.76a.7.7,0,0,0,.309-.43c0-.115-.138-.107-.309.016a.711.711,0,0,0-.308.427C549.1,224.886,549.238,224.881,549.408,224.76Z" transform="translate(-519.762 -198.648)" fill="#e30c34"/>
        <path id="路径_14765" data-name="路径 14765" d="M565.264,212.432a.871.871,0,0,0,.313-.508c0-.131-.14-.114-.313.037a.877.877,0,0,0-.313.5C564.951,212.6,565.091,212.58,565.264,212.432Z" transform="translate(-531.214 -189.681)" fill="#e30c34"/>
        <path id="路径_14766" data-name="路径 14766" d="M581.077,199.292a1.061,1.061,0,0,0,.312-.588c0-.15-.139-.127-.312.051a1.074,1.074,0,0,0-.313.584C580.764,199.486,580.9,199.465,581.077,199.292Z" transform="translate(-542.638 -180.121)" fill="#e30c34"/>
        <path id="路径_14767" data-name="路径 14767" d="M596.394,186.225a1.271,1.271,0,0,0,.307-.668c0-.172-.137-.147-.307.053a1.283,1.283,0,0,0-.307.664C596.087,186.442,596.225,186.421,596.394,186.225Z" transform="translate(-553.709 -170.611)" fill="#e30c34"/>
        <path id="路径_14768" data-name="路径 14768" d="M610.81,174.387a1.484,1.484,0,0,0,.3-.743c0-.2-.133-.176-.3.042a1.5,1.5,0,0,0-.3.739C610.512,174.617,610.646,174.6,610.81,174.387Z" transform="translate(-564.131 -161.99)" fill="#e30c34"/>
        <path id="路径_14769" data-name="路径 14769" d="M624,165.084a1.69,1.69,0,0,0,.284-.809c0-.221-.127-.213-.284.017a1.714,1.714,0,0,0-.286.806C623.714,165.314,623.842,165.309,624,165.084Z" transform="translate(-573.669 -155.202)" fill="#e30c34"/>
        <path id="路径_14770" data-name="路径 14770" d="M635.71,159.584a1.935,1.935,0,0,0,.278-.891c0-.255-.124-.265-.278-.024a1.959,1.959,0,0,0-.279.888C635.431,159.806,635.556,159.819,635.71,159.584Z" transform="translate(-582.134 -151.141)" fill="#e30c34"/>
        <path id="路径_14771" data-name="路径 14771" d="M645.861,159.107a2.084,2.084,0,0,0,.261-.934c0-.283-.116-.317-.261-.079a2.113,2.113,0,0,0-.263.931C645.6,159.3,645.716,159.339,645.861,159.107Z" transform="translate(-589.48 -150.738)" fill="#e30c34"/>
        <path id="路径_14772" data-name="路径 14772" d="M654.4,164.492a2.173,2.173,0,0,0,.245-.962c0-.309-.109-.374-.245-.147a2.2,2.2,0,0,0-.247.958C654.149,164.645,654.26,164.713,654.4,164.492Z" transform="translate(-595.658 -154.576)" fill="#e30c34"/>
        <path id="路径_14773" data-name="路径 14773" d="M661.353,176.238a2.181,2.181,0,0,0,.229-.972c0-.334-.1-.434-.229-.225a2.209,2.209,0,0,0-.231.969C661.122,176.337,661.226,176.44,661.353,176.238Z" transform="translate(-600.696 -163.017)" fill="#e30c34"/>
        <path id="路径_14774" data-name="路径 14774" d="M666.821,194.42a2.093,2.093,0,0,0,.215-.964c0-.356-.1-.5-.215-.313a2.118,2.118,0,0,0-.218.961C666.6,194.453,666.7,194.6,666.821,194.42Z" transform="translate(-604.655 -176.117)" fill="#e30c34"/>
        <path id="路径_14775" data-name="路径 14775" d="M670.91,218.651a1.891,1.891,0,0,0,.2-.936c0-.375-.091-.557-.2-.409a1.912,1.912,0,0,0-.206.932C670.7,218.607,670.8,218.792,670.91,218.651Z" transform="translate(-607.618 -193.595)" fill="#e30c34"/>
        <path id="路径_14776" data-name="路径 14776" d="M673.735,248.062a1.578,1.578,0,0,0,.2-.884c0-.389-.087-.617-.2-.511a1.6,1.6,0,0,0-.2.882C673.537,247.93,673.626,248.161,673.735,248.062Z" transform="translate(-609.665 -214.825)" fill="#e30c34"/>
        <path id="路径_14777" data-name="路径 14777" d="M675.374,281.263c.109-.051.2-.426.2-.836s-.087-.694-.2-.635-.2.432-.2.835S675.264,281.313,675.374,281.263Z" transform="translate(-610.849 -238.771)" fill="#e30c34"/>
        <path id="路径_14778" data-name="路径 14778" d="M683.3,317.283c.031,0,.055-.12.055-.269s-.025-.269-.055-.269-.055.121-.055.269S683.273,317.282,683.3,317.283Z" transform="translate(-616.681 -265.475)" fill="#e30c34"/>
        <path id="路径_14779" data-name="路径 14779" d="M682.871,356.788c.031.023.056-.078.056-.226a.576.576,0,0,0-.056-.307c-.031-.022-.056.08-.056.226A.58.58,0,0,0,682.871,356.788Z" transform="translate(-616.368 -294.017)" fill="#e30c34"/>
        <path id="路径_14780" data-name="路径 14780" d="M681.551,394.045c.032.042.057-.04.057-.185a.775.775,0,0,0-.057-.337c-.032-.041-.058.042-.058.185A.778.778,0,0,0,681.551,394.045Z" transform="translate(-615.413 -320.938)" fill="#e30c34"/>
        <path id="路径_14781" data-name="路径 14781" d="M679.286,427.221c.033.058.06-.008.06-.147a.923.923,0,0,0-.06-.355c-.033-.057-.06.009-.06.147A.918.918,0,0,0,679.286,427.221Z" transform="translate(-613.775 -344.914)" fill="#e30c34"/>
        <path id="路径_14782" data-name="路径 14782" d="M675.984,455.024c.035.07.064.019.064-.113a1,1,0,0,0-.064-.365c-.035-.069-.064-.018-.064.114A1,1,0,0,0,675.984,455.024Z" transform="translate(-611.387 -365.011)" fill="#e30c34"/>
        <path id="路径_14783" data-name="路径 14783" d="M671.528,476.647c.038.079.068.042.068-.083a1.021,1.021,0,0,0-.068-.367c-.038-.078-.068-.041-.068.083A1.034,1.034,0,0,0,671.528,476.647Z" transform="translate(-608.165 -380.646)" fill="#e30c34"/>
        <path id="路径_14784" data-name="路径 14784" d="M665.793,491.688c.041.086.073.061.073-.055a1,1,0,0,0-.073-.363c-.041-.085-.074-.06-.074.056A1.008,1.008,0,0,0,665.793,491.688Z" transform="translate(-604.017 -391.529)" fill="#e30c34"/>
        <path id="路径_14785" data-name="路径 14785" d="M658.655,500.114c.044.09.079.076.079-.031a.959.959,0,0,0-.079-.355c-.044-.089-.079-.075-.079.031A.954.954,0,0,0,658.655,500.114Z" transform="translate(-598.856 -397.634)" fill="#e30c34"/>
        <path id="路径_14786" data-name="路径 14786" d="M650.023,502.245c.047.092.085.088.085-.009a.883.883,0,0,0-.085-.342c-.047-.091-.085-.087-.085.01A.89.89,0,0,0,650.023,502.245Z" transform="translate(-592.615 -399.193)" fill="#e30c34"/>
        <path id="路径_14787" data-name="路径 14787" d="M639.851,498.737c.05.092.091.1.091.007a.808.808,0,0,0-.091-.324c-.051-.091-.091-.094-.091-.007A.8.8,0,0,0,639.851,498.737Z" transform="translate(-585.262 -396.681)" fill="#e30c34"/>
        <path id="路径_14788" data-name="路径 14788" d="M628.163,490.543c.053.089.1.1.1.02a.713.713,0,0,0-.1-.3c-.053-.089-.1-.1-.1-.019A.713.713,0,0,0,628.163,490.543Z" transform="translate(-576.813 -390.783)" fill="#e30c34"/>
        <path id="路径_14789" data-name="路径 14789" d="M615.066,478.835c.056.084.1.1.1.027a.613.613,0,0,0-.1-.277c-.056-.084-.1-.1-.1-.027A.618.618,0,0,0,615.066,478.835Z" transform="translate(-567.348 -382.349)" fill="#e30c34"/>
        <path id="路径_14790" data-name="路径 14790" d="M600.764,464.9c.058.077.1.091.1.03a.52.52,0,0,0-.1-.249c-.058-.077-.1-.09-.1-.03A.522.522,0,0,0,600.764,464.9Z" transform="translate(-557.012 -372.308)" fill="#e30c34"/>
        <path id="路径_14791" data-name="路径 14791" d="M585.546,450.012c.059.069.107.081.107.028a.431.431,0,0,0-.107-.22c-.059-.068-.107-.08-.107-.028A.432.432,0,0,0,585.546,450.012Z" transform="translate(-546.016 -361.575)" fill="#e30c34"/>
        <path id="路径_14792" data-name="路径 14792" d="M569.78,435.287c.059.059.107.069.108.023a.351.351,0,0,0-.108-.19c-.06-.059-.108-.069-.108-.022A.35.35,0,0,0,569.78,435.287Z" transform="translate(-534.625 -350.961)" fill="#e30c34"/>
        <path id="路径_14793" data-name="路径 14793" d="M553.881,421.6c.059.049.107.055.107.015a.28.28,0,0,0-.107-.161c-.059-.048-.107-.054-.107-.014A.279.279,0,0,0,553.881,421.6Z" transform="translate(-523.139 -341.092)" fill="#e30c34"/>
        <path id="路径_14794" data-name="路径 14794" d="M538.278,409.487c.057.038.1.041.1,0a.221.221,0,0,0-.1-.135c-.057-.038-.1-.04-.1,0A.223.223,0,0,0,538.278,409.487Z" transform="translate(-511.868 -332.363)" fill="#e30c34"/>
        <path id="路径_14795" data-name="路径 14795" d="M523.383,399.174c.055.029.1.026.1-.006s-.045-.083-.1-.112-.1-.026-.1.006S523.328,399.145,523.383,399.174Z" transform="translate(-501.11 -324.928)" fill="#e30c34"/>
        <path id="路径_14796" data-name="路径 14796" d="M509.549,390.583c.052.021.094.014.094-.016s-.042-.071-.094-.092-.094-.014-.094.016S509.5,390.562,509.549,390.583Z" transform="translate(-491.119 -318.734)" fill="#e30c34"/>
        <path id="路径_14797" data-name="路径 14797" d="M497.049,383.432c.048.014.087,0,.087-.025s-.039-.062-.087-.077-.087,0-.087.025S497,383.417,497.049,383.432Z" transform="translate(-482.093 -313.576)" fill="#e30c34"/>
        <path id="路径_14798" data-name="路径 14798" d="M486.058,377.324c.044.009.079,0,.08-.032s-.036-.056-.08-.065-.079.005-.08.032S486.014,377.315,486.058,377.324Z" transform="translate(-474.158 -309.169)" fill="#e30c34"/>
        <path id="路径_14799" data-name="路径 14799" d="M476.669,371.851c.036,0,.066-.01.066-.034s-.029-.047-.066-.052-.065.01-.065.034S476.633,371.846,476.669,371.851Z" transform="translate(-467.385 -305.225)" fill="#e30c34"/>
        <path id="路径_14800" data-name="路径 14800" d="M468.831,366.632c.032,0,.059-.014.059-.037s-.026-.044-.059-.047-.058.014-.058.037S468.8,366.629,468.831,366.632Z" transform="translate(-461.727 -301.456)" fill="#e30c34"/>
        <path id="路径_14801" data-name="路径 14801" d="M462.473,361.395a.046.046,0,0,0,.052-.04.05.05,0,0,0-.052-.044.046.046,0,0,0-.052.04A.051.051,0,0,0,462.473,361.395Z" transform="translate(-457.138 -297.672)" fill="#e30c34"/>
        <path id="路径_14802" data-name="路径 14802" d="M457.453,355.957a.044.044,0,0,0,.046-.041.045.045,0,0,0-.046-.042.043.043,0,0,0-.046.041A.045.045,0,0,0,457.453,355.957Z" transform="translate(-453.516 -293.744)" fill="#e30c34"/>
        <path id="路径_14803" data-name="路径 14803" d="M453.585,350.227a.042.042,0,1,0-.043-.042A.043.043,0,0,0,453.585,350.227Z" transform="translate(-450.723 -289.604)" fill="#e30c34"/>
        <path id="路径_14804" data-name="路径 14804" d="M450.267,344.186a.045.045,0,0,0,.047-.042.044.044,0,0,0-.047-.041.045.045,0,0,0-.047.042A.044.044,0,0,0,450.267,344.186Z" transform="translate(-448.323 -285.239)" fill="#e30c34"/>
        <path id="路径_14805" data-name="路径 14805" d="M447.437,337.868a.043.043,0,0,0,.045-.038.041.041,0,0,0-.045-.037.043.043,0,0,0-.045.038A.041.041,0,0,0,447.437,337.868Z" transform="translate(-446.28 -280.681)" fill="#e30c34"/>
        <path id="路径_14806" data-name="路径 14806" d="M445.262,331.3a.044.044,0,0,0,.047-.038.043.043,0,0,0-.047-.037.044.044,0,0,0-.047.038A.043.043,0,0,0,445.262,331.3Z" transform="translate(-444.707 -275.939)" fill="#e30c34"/>
        <path id="路径_14807" data-name="路径 14807" d="M443.9,324.563a.045.045,0,0,0,.049-.038.044.044,0,0,0-.049-.037.045.045,0,0,0-.049.038A.044.044,0,0,0,443.9,324.563Z" transform="translate(-443.721 -271.068)" fill="#e30c34"/>
        <path id="路径_14808" data-name="路径 14808" d="M443.434,317.727a.039.039,0,1,0-.049-.038A.045.045,0,0,0,443.434,317.727Z" transform="translate(-443.385 -266.129)" fill="#e30c34"/>
        <path id="路径_14809" data-name="路径 14809" d="M443.9,310.889a.044.044,0,0,0,.049-.037.045.045,0,0,0-.049-.038.039.039,0,1,0,0,.075Z" transform="translate(-443.721 -261.189)" fill="#e30c34"/>
        <path id="路径_14810" data-name="路径 14810" d="M445.262,304.148a.043.043,0,0,0,.047-.037.044.044,0,0,0-.047-.038.043.043,0,0,0-.047.037A.044.044,0,0,0,445.262,304.148Z" transform="translate(-444.707 -256.319)" fill="#e30c34"/>
        <path id="路径_14811" data-name="路径 14811" d="M447.437,297.585a.041.041,0,0,0,.045-.037.043.043,0,0,0-.045-.038.041.041,0,0,0-.045.037A.043.043,0,0,0,447.437,297.585Z" transform="translate(-446.28 -251.578)" fill="#e30c34"/>
        <path id="路径_14812" data-name="路径 14812" d="M450.279,291.261a.04.04,0,0,0,.042-.037.041.041,0,0,0-.042-.038.04.04,0,0,0-.042.037A.041.041,0,0,0,450.279,291.261Z" transform="translate(-448.335 -247.009)" fill="#e30c34"/>
        <path id="路径_14813" data-name="路径 14813" d="M453.6,285.22a.038.038,0,0,0,.038-.037.038.038,0,1,0-.038.037Z" transform="translate(-450.735 -242.644)" fill="#e30c34"/>
        <path id="路径_14814" data-name="路径 14814" d="M457.464,279.49a.041.041,0,0,0,.042-.038.039.039,0,0,0-.042-.037.04.04,0,0,0-.041.038A.039.039,0,0,0,457.464,279.49Z" transform="translate(-453.527 -238.504)" fill="#e30c34"/>
        <path id="路径_14815" data-name="路径 14815" d="M462.487,274.051a.045.045,0,0,0,.047-.04.041.041,0,0,0-.047-.036.045.045,0,0,0-.047.04A.041.041,0,0,0,462.487,274.051Z" transform="translate(-457.152 -234.575)" fill="#e30c34"/>
        <path id="路径_14816" data-name="路径 14816" d="M468.846,268.811c.029,0,.053-.021.053-.042s-.024-.036-.053-.034-.052.021-.052.042S468.818,268.814,468.846,268.811Z" transform="translate(-461.742 -230.788)" fill="#e30c34"/>
        <path id="路径_14817" data-name="路径 14817" d="M476.687,263.586c.032,0,.059-.026.059-.047s-.026-.035-.059-.031-.059.026-.059.047S476.654,263.591,476.687,263.586Z" transform="translate(-467.402 -227.012)" fill="#e30c34"/>
        <path id="路径_14818" data-name="路径 14818" d="M486.1,258.093c.036-.007.065-.031.065-.053s-.029-.034-.065-.026-.065.031-.065.053S486.059,258.1,486.1,258.093Z" transform="translate(-474.195 -223.041)" fill="#e30c34"/>
        <path id="路径_14819" data-name="路径 14819" d="M497.09,251.962c.039-.012.071-.04.071-.063s-.032-.032-.071-.02-.071.04-.071.063S497.051,251.973,497.09,251.962Z" transform="translate(-482.134 -218.606)" fill="#e30c34"/>
        <path id="路径_14820" data-name="路径 14820" d="M509.593,244.771c.042-.017.077-.051.077-.075s-.034-.031-.077-.013-.077.051-.077.075S509.55,244.788,509.593,244.771Z" transform="translate(-491.163 -213.404)" fill="#e30c34"/>
        <path id="路径_14821" data-name="路径 14821" d="M523.429,236.125c.045-.024.081-.065.081-.091s-.036-.029-.081,0-.081.065-.081.091S523.385,236.149,523.429,236.125Z" transform="translate(-501.157 -207.147)" fill="#e30c34"/>
        <path id="路径_14822" data-name="路径 14822" d="M538.327,225.742a.181.181,0,0,0,.085-.11c0-.029-.038-.028-.085,0a.184.184,0,0,0-.085.11C538.242,225.775,538.28,225.774,538.327,225.742Z" transform="translate(-511.917 -199.632)" fill="#e30c34"/>
        <path id="路径_14823" data-name="路径 14823" d="M553.931,213.552a.228.228,0,0,0,.087-.132c0-.033-.039-.028-.087.012a.227.227,0,0,0-.087.132C553.844,213.6,553.883,213.591,553.931,213.552Z" transform="translate(-523.189 -190.809)" fill="#e30c34"/>
        <path id="路径_14824" data-name="路径 14824" d="M569.831,199.775a.287.287,0,0,0,.088-.155c0-.038-.039-.029-.088.019a.288.288,0,0,0-.088.155C569.743,199.831,569.782,199.823,569.831,199.775Z" transform="translate(-534.676 -180.837)" fill="#e30c34"/>
        <path id="路径_14825" data-name="路径 14825" d="M585.6,184.964a.351.351,0,0,0,.088-.18c0-.043-.039-.033-.088.023a.354.354,0,0,0-.088.18C585.509,185.03,585.548,185.02,585.6,184.964Z" transform="translate(-546.067 -170.116)" fill="#e30c34"/>
        <path id="路径_14826" data-name="路径 14826" d="M600.814,169.991a.424.424,0,0,0,.086-.2c0-.049-.038-.038-.086.025a.428.428,0,0,0-.086.2C600.728,170.065,600.766,170.054,600.814,169.991Z" transform="translate(-557.062 -159.279)" fill="#e30c34"/>
        <path id="路径_14827" data-name="路径 14827" d="M615.09,155.949a.564.564,0,0,0,.092-.252c0-.063-.041-.052-.092.025a.563.563,0,0,0-.092.251C615,156.036,615.039,156.025,615.09,155.949Z" transform="translate(-567.372 -149.091)" fill="#e30c34"/>
        <path id="路径_14828" data-name="路径 14828" d="M628.186,144.176a.644.644,0,0,0,.088-.274c0-.071-.039-.063-.088.018a.651.651,0,0,0-.088.274C628.1,144.264,628.137,144.256,628.186,144.176Z" transform="translate(-576.836 -140.563)" fill="#e30c34"/>
        <path id="路径_14829" data-name="路径 14829" d="M639.873,135.928a.732.732,0,0,0,.082-.294c0-.08-.037-.076-.082.007a.731.731,0,0,0-.083.294C639.79,136.014,639.827,136.011,639.873,135.928Z" transform="translate(-585.284 -134.584)" fill="#e30c34"/>
        <path id="路径_14830" data-name="路径 14830" d="M650.043,132.379a.81.81,0,0,0,.077-.311c0-.088-.035-.092-.077-.009a.814.814,0,0,0-.077.31C649.966,132.458,650,132.462,650.043,132.379Z" transform="translate(-592.636 -132)" fill="#e30c34"/>
        <path id="路径_14831" data-name="路径 14831" d="M658.674,134.481a.872.872,0,0,0,.072-.323c0-.1-.032-.109-.072-.028a.872.872,0,0,0-.072.322C658.6,134.549,658.634,134.562,658.674,134.481Z" transform="translate(-598.875 -133.5)" fill="#e30c34"/>
        <path id="路径_14832" data-name="路径 14832" d="M665.81,142.887a.926.926,0,0,0,.067-.331c0-.105-.03-.128-.067-.05a.916.916,0,0,0-.067.33C665.743,142.942,665.773,142.964,665.81,142.887Z" transform="translate(-604.034 -139.557)" fill="#e30c34"/>
        <path id="路径_14833" data-name="路径 14833" d="M671.528,157.875a1.024,1.024,0,0,0,.068-.367c0-.125-.03-.161-.068-.082a1.034,1.034,0,0,0-.068.367C671.46,157.916,671.491,157.953,671.528,157.875Z" transform="translate(-608.165 -150.339)" fill="#e30c34"/>
        <path id="路径_14834" data-name="路径 14834" d="M675.984,179.495a1,1,0,0,0,.064-.365c0-.132-.028-.183-.064-.113a1,1,0,0,0-.064.364C675.92,179.513,675.949,179.564,675.984,179.495Z" transform="translate(-611.387 -165.946)" fill="#e30c34"/>
        <path id="路径_14835" data-name="路径 14835" d="M679.286,207.305a.923.923,0,0,0,.06-.355c0-.139-.027-.2-.06-.147a.921.921,0,0,0-.06.355C679.226,207.3,679.253,207.362,679.286,207.305Z" transform="translate(-613.775 -186.028)" fill="#e30c34"/>
        <path id="路径_14836" data-name="路径 14836" d="M681.551,240.5a.777.777,0,0,0,.057-.337c0-.144-.026-.227-.057-.184a.777.777,0,0,0-.058.336C681.493,240.455,681.519,240.538,681.551,240.5Z" transform="translate(-615.413 -210.002)" fill="#e30c34"/>
        <path id="路径_14837" data-name="路径 14837" d="M682.871,277.771a.576.576,0,0,0,.056-.307c0-.148-.025-.249-.056-.226a.582.582,0,0,0-.056.307C682.815,277.691,682.84,277.793,682.871,277.771Z" transform="translate(-616.368 -236.929)" fill="#e30c34"/>
      </g>
    </g>
  </g>
  <text id="_3_000_" data-name=" $ 3,000 " transform="translate(250 50)" fill="#fff" font-size="64" font-family="Helvetica"><tspan x="-249.094" y="0" xml:space="preserve"> $ 3,000 </tspan></text>
</svg>
