<svg xmlns="http://www.w3.org/2000/svg" width="251" height="117.178"><defs><clipPath id="a"><path data-name="路径 13665" d="M266.14 1106.333a41.568 41.568 0 00-58.717-.118l-5.686 5.63 20.232 20.255 5.646-5.59a12.9 12.9 0 11-.035 18.244l-38.417-38.554a41.249 41.249 0 00-29.346-12.2h-.076a41.521 41.521 0 1029.3 70.951l5.753-5.688-20.211-20.275-5.729 5.663a12.9 12.9 0 11.034-18.246l29.691 29.8 8.73 8.757a41.531 41.531 0 1058.836-58.63z" transform="translate(-118.233 -1094)" fill="none"/></clipPath></defs><g data-name="组 4290"><g data-name="组 4250"><path data-name="路径 13294" d="M135.19 46.215l-5.686 5.63L149.736 72.1l5.646-5.59a12.9 12.9 0 11-.035 18.244L116.93 46.2A41.25 41.25 0 0087.583 34h-.076a41.521 41.521 0 1029.3 70.951l5.753-5.688-20.211-20.275-5.729 5.663a12.9 12.9 0 11.034-18.246l29.691 29.8 8.73 8.757a41.531 41.531 0 10.119-58.748z" fill="#4444fd"/></g><g data-name="组 4253"><g data-name="组 4252" clip-path="url(#a)" transform="translate(46 34)"><g data-name="组 4251" fill="#20f4ad"><path data-name="路径 13295" d="M110.277 59.021A4.965 4.965 0 00112.922 55c0-1.461-1.166-1.957-2.645-1.269a4.557 4.557 0 00-2.645 3.719 1.709 1.709 0 002.645 1.571z"/><path data-name="路径 13296" d="M106.253 57.588a3.931 3.931 0 002.634-3.533c0-1.455-1.165-2.142-2.634-1.735a3.535 3.535 0 00-2.634 3.19 2.038 2.038 0 002.634 2.078z"/><path data-name="路径 13297" d="M104.716 53.226a3.573 3.573 0 002.634-3.335 1.99 1.99 0 00-2.634-1.933 3.2 3.2 0 00-2.634 2.982 2.216 2.216 0 002.634 2.286z"/><path data-name="路径 13298" d="M116.496 58.963a5.844 5.844 0 002.4-4.128c0-1.325-1.063-1.593-2.4-.672a5.587 5.587 0 00-2.4 3.968c.002 1.326 1.086 1.737 2.4.832z"/><path data-name="路径 13299" d="M111.503 62.526a4.774 4.774 0 002.4-3.751c0-1.325-1.059-1.739-2.4-1.048a4.446 4.446 0 00-2.4 3.518c.001 1.325 1.088 1.958 2.4 1.281z"/><path data-name="路径 13300" d="M106.728 62.932a3.652 3.652 0 002.388-3.244c0-1.319-1.057-1.933-2.388-1.533a3.323 3.323 0 00-2.389 2.965 1.8 1.8 0 002.389 1.812z"/><path data-name="路径 13301" d="M102.997 60.345a2.889 2.889 0 002.388-2.8 1.992 1.992 0 00-2.388-1.975 2.6 2.6 0 00-2.389 2.5 2.211 2.211 0 002.389 2.275z"/><path data-name="路径 13302" d="M100.954 55.864a2.521 2.521 0 002.377-2.535 2.382 2.382 0 00-4.754.018 2.5 2.5 0 002.377 2.517z"/><path data-name="路径 13303" d="M100.954 50.844a2.522 2.522 0 002.377-2.535 2.382 2.382 0 00-4.754.018 2.5 2.5 0 002.377 2.517z"/><path data-name="路径 13304" d="M102.996 46.139a2.875 2.875 0 002.377-2.788 1.984 1.984 0 00-2.377-1.967 2.587 2.587 0 00-2.377 2.493 2.2 2.2 0 002.377 2.262z"/><path data-name="路径 13305" d="M128.868 37.559a5.707 5.707 0 002.143-3.8c0-1.184-.964-1.417-2.143-.488a5.807 5.807 0 00-2.143 3.856c-.002 1.186.952 1.367 2.143.432z"/><path data-name="路径 13306" d="M128.077 43.169a5.811 5.811 0 002.154-3.843c0-1.189-.968-1.41-2.154-.465a5.889 5.889 0 00-2.154 3.89c.001 1.19.961 1.369 2.154.418z"/><path data-name="路径 13307" d="M125.79 49.501a5.942 5.942 0 002.154-3.891c0-1.19-.965-1.381-2.154-.417a5.962 5.962 0 00-2.154 3.9c.001 1.192.965 1.373 2.154.408z"/><path data-name="路径 13308" d="M122.228 55.944a5.9 5.9 0 002.154-3.891c0-1.189-.961-1.369-2.154-.417a5.823 5.823 0 00-2.154 3.846c0 1.19.968 1.409 2.154.462z"/><path data-name="路径 13309" d="M117.74 61.667a5.431 5.431 0 002.154-3.76c0-1.19-.956-1.412-2.154-.548a5.249 5.249 0 00-2.154 3.648c.001 1.19.972 1.512 2.154.66z"/><path data-name="路径 13310" d="M112.765 65.673a4.51 4.51 0 002.143-3.439c0-1.184-.948-1.522-2.143-.846a4.257 4.257 0 00-2.143 3.266c.001 1.187.971 1.687 2.143 1.019z"/><path data-name="路径 13311" d="M107.79 67.194a3.475 3.475 0 002.143-3c0-1.184-.948-1.7-2.143-1.281a3.207 3.207 0 00-2.143 2.786 1.523 1.523 0 002.143 1.495z"/><path data-name="路径 13312" d="M103.302 65.991a2.629 2.629 0 002.143-2.534 1.765 1.765 0 00-2.143-1.752A2.392 2.392 0 00101.159 64a1.937 1.937 0 002.143 1.991z"/><path data-name="路径 13313" d="M99.74 62.537a2.083 2.083 0 002.132-2.123 2.188 2.188 0 00-2.132-2.14 1.9 1.9 0 00-2.132 1.885 2.407 2.407 0 002.132 2.378z"/><path data-name="路径 13314" d="M97.454 57.776a1.816 1.816 0 002.132-1.867 2.545 2.545 0 00-2.132-2.4 1.661 1.661 0 00-2.132 1.634 2.789 2.789 0 002.132 2.633z"/><path data-name="路径 13315" d="M96.665 52.632a1.727 1.727 0 002.121-1.77 2.667 2.667 0 00-2.121-2.471 1.586 1.586 0 00-2.121 1.542 2.916 2.916 0 002.121 2.699z"/><path data-name="路径 13316" d="M97.454 47.814a1.805 1.805 0 002.121-1.857 2.532 2.532 0 00-2.121-2.384 1.653 1.653 0 00-2.121 1.626 2.773 2.773 0 002.121 2.615z"/><path data-name="路径 13317" d="M99.74 43.6a2.071 2.071 0 002.121-2.111 2.177 2.177 0 00-2.121-2.13 1.885 1.885 0 00-2.121 1.875A2.394 2.394 0 0099.74 43.6z"/><path data-name="路径 13318" d="M103.302 39.918a2.6 2.6 0 002.121-2.506 1.748 1.748 0 00-2.121-1.735 2.368 2.368 0 00-2.121 2.272 1.916 1.916 0 002.121 1.969z"/><path data-name="路径 13319" d="M107.79 36.548a3.438 3.438 0 002.121-2.972c0-1.171-.939-1.685-2.121-1.269a3.174 3.174 0 00-2.121 2.759 1.506 1.506 0 002.121 1.482z"/><path data-name="路径 13320" d="M112.766 33.455a4.462 4.462 0 002.121-3.4c0-1.171-.938-1.507-2.121-.838a4.214 4.214 0 00-2.121 3.233c.001 1.168.96 1.661 2.121 1.005z"/><path data-name="路径 13321" d="M117.74 31.021a5.374 5.374 0 002.132-3.721c0-1.177-.946-1.4-2.132-.543a5.2 5.2 0 00-2.132 3.611c.001 1.178.962 1.496 2.132.653z"/><path data-name="路径 13322" d="M122.229 29.871a5.837 5.837 0 002.132-3.851c0-1.177-.951-1.355-2.132-.412a5.76 5.76 0 00-2.132 3.807c.001 1.177.958 1.39 2.132.456z"/><path data-name="路径 13323" d="M125.79 30.563a5.91 5.91 0 002.143-3.871c0-1.184-.96-1.374-2.143-.415a5.929 5.929 0 00-2.143 3.882c.001 1.185.959 1.365 2.143.404z"/><path data-name="路径 13324" d="M128.077 33.209a5.779 5.779 0 002.143-3.823c0-1.183-.963-1.4-2.143-.463a5.859 5.859 0 00-2.143 3.869c.001 1.184.956 1.362 2.143.417z"/><path data-name="路径 13325" d="M132.89 34.279a4.567 4.567 0 001.9-3.2c0-1.048-.856-1.338-1.9-.6a4.714 4.714 0 00-1.9 3.288c.004 1.054.846 1.261 1.9.512z"/><path data-name="路径 13326" d="M132.257 39.739a4.66 4.66 0 001.9-3.229c0-1.048-.855-1.321-1.9-.565a4.8 4.8 0 00-1.9 3.314c.004 1.047.846 1.244 1.9.48z"/><path data-name="路径 13327" d="M130.4 45.814a4.9 4.9 0 001.9-3.313c0-1.048-.854-1.279-1.9-.482a5.01 5.01 0 00-1.9 3.377c.004 1.051.847 1.223 1.9.418z"/><path data-name="路径 13328" d="M127.435 52.227a5.165 5.165 0 001.9-3.4c0-1.048-.851-1.231-1.9-.392a5.216 5.216 0 00-1.9 3.432c.004 1.046.85 1.203 1.9.36z"/><path data-name="路径 13329" d="M123.548 58.592a5.241 5.241 0 001.9-3.437c0-1.048-.848-1.205-1.9-.358a5.209 5.209 0 00-1.9 3.418c.004 1.046.854 1.223 1.9.377z"/><path data-name="路径 13330" d="M118.984 64.323a4.928 4.928 0 001.9-3.353c0-1.048-.844-1.231-1.9-.442a4.807 4.807 0 00-1.9 3.28c.004 1.047.858 1.296 1.9.515z"/><path data-name="路径 13331" d="M114.028 68.671a4.2 4.2 0 001.9-3.119c0-1.048-.841-1.322-1.9-.676a4.017 4.017 0 00-1.9 2.994c.004 1.048.861 1.434 1.9.801z"/><path data-name="路径 13332" d="M108.994 70.947a3.285 3.285 0 001.9-2.752c0-1.048-.841-1.473-1.9-1.043a3.072 3.072 0 00-1.9 2.588 1.274 1.274 0 001.9 1.207z"/><path data-name="路径 13333" d="M104.196 70.784a2.438 2.438 0 001.886-2.3 1.486 1.486 0 00-1.886-1.468 2.247 2.247 0 00-1.886 2.121 1.608 1.608 0 001.886 1.647z"/><path data-name="路径 13334" d="M99.937 68.346a1.856 1.856 0 001.886-1.886 1.922 1.922 0 00-1.886-1.886 1.705 1.705 0 00-1.886 1.7 2.092 2.092 0 001.886 2.072z"/><path data-name="路径 13335" d="M96.484 64.175a1.5 1.5 0 001.875-1.536 2.4 2.4 0 00-1.875-2.214 1.4 1.4 0 00-1.875 1.358 2.6 2.6 0 001.875 2.392z"/><path data-name="路径 13336" d="M94.053 59.048a1.331 1.331 0 001.875-1.307 2.806 2.806 0 00-1.875-2.443c-1.044-.363-1.874.1-1.875 1.14a3.012 3.012 0 001.875 2.61z"/><path data-name="路径 13337" d="M92.799 53.691a1.26 1.26 0 001.875-1.194 3.032 3.032 0 00-1.875-2.556c-1.044-.424-1.874 0-1.875 1.034a3.239 3.239 0 001.875 2.716z"/><path data-name="路径 13338" d="M92.799 48.643a1.26 1.26 0 001.875-1.194 3.032 3.032 0 00-1.875-2.556c-1.044-.424-1.874 0-1.875 1.034a3.239 3.239 0 001.875 2.716z"/><path data-name="路径 13339" d="M94.054 44.223a1.323 1.323 0 001.864-1.3 2.79 2.79 0 00-1.864-2.429c-1.038-.361-1.863.1-1.864 1.133a2.994 2.994 0 001.864 2.596z"/><path data-name="路径 13340" d="M96.484 40.506a1.5 1.5 0 001.864-1.526 2.386 2.386 0 00-1.864-2.2 1.388 1.388 0 00-1.864 1.351 2.579 2.579 0 001.864 2.375z"/><path data-name="路径 13341" d="M99.937 37.311a1.832 1.832 0 001.864-1.863 1.9 1.9 0 00-1.864-1.865 1.687 1.687 0 00-1.864 1.68 2.066 2.066 0 001.864 2.048z"/><path data-name="路径 13342" d="M104.197 34.343a2.407 2.407 0 001.864-2.276 1.469 1.469 0 00-1.864-1.452 2.221 2.221 0 00-1.864 2.1 1.589 1.589 0 001.864 1.628z"/><path data-name="路径 13343" d="M108.994 31.388a3.244 3.244 0 001.875-2.719c0-1.036-.831-1.457-1.875-1.031a3.037 3.037 0 00-1.875 2.559 1.258 1.258 0 001.875 1.191z"/><path data-name="路径 13344" d="M114.029 28.479a4.154 4.154 0 001.875-3.081c0-1.036-.831-1.307-1.875-.669a3.971 3.971 0 00-1.875 2.959c.001 1.036.847 1.423 1.875.791z"/><path data-name="路径 13345" d="M118.984 26.021a4.868 4.868 0 001.875-3.313c0-1.035-.834-1.217-1.875-.437a4.751 4.751 0 00-1.875 3.242c.001 1.035.845 1.28 1.875.508z"/><path data-name="路径 13346" d="M123.549 24.586a5.179 5.179 0 001.875-3.4c0-1.035-.838-1.191-1.875-.353a5.147 5.147 0 00-1.875 3.378c.001 1.039.837 1.211 1.875.375z"/><path data-name="路径 13347" d="M127.435 24.664a5.136 5.136 0 001.886-3.383c0-1.042-.847-1.224-1.886-.389a5.185 5.185 0 00-1.886 3.412c.001 1.04.842 1.197 1.886.36z"/><path data-name="路径 13348" d="M130.401 26.413a4.875 4.875 0 001.886-3.294c0-1.042-.849-1.271-1.886-.479a4.982 4.982 0 00-1.886 3.357c0 1.042.839 1.216 1.886.416z"/><path data-name="路径 13349" d="M132.257 29.729a4.661 4.661 0 001.9-3.229c0-1.048-.855-1.321-1.9-.565a4.8 4.8 0 00-1.9 3.314c.004 1.047.846 1.244 1.9.48z"/><path data-name="路径 13350" d="M136.915 31.4a3.362 3.362 0 001.64-2.549c0-.906-.741-1.258-1.64-.732a3.508 3.508 0 00-1.641 2.648c.001.906.729 1.167 1.641.633z"/><path data-name="路径 13351" d="M136.387 36.735a3.447 3.447 0 001.641-2.582c0-.906-.741-1.242-1.641-.7a3.59 3.59 0 00-1.641 2.677c.001.907.731 1.157 1.641.605z"/><path data-name="路径 13352" d="M134.827 42.52a3.686 3.686 0 001.641-2.673c0-.906-.74-1.2-1.641-.609a3.818 3.818 0 00-1.641 2.756c.001.907.728 1.123 1.641.526z"/><path data-name="路径 13353" d="M132.303 48.639a4.034 4.034 0 001.641-2.8c0-.906-.739-1.138-1.641-.485a4.139 4.139 0 00-1.641 2.86c.001.91.73 1.085 1.641.425z"/><path data-name="路径 13354" d="M128.924 54.956a4.376 4.376 0 001.641-2.913c0-.906-.737-1.08-1.641-.369a4.436 4.436 0 00-1.64 2.948c.001.907.732 1.049 1.64.334z"/><path data-name="路径 13355" d="M124.838 61.211a4.544 4.544 0 001.641-2.972c0-.906-.734-1.045-1.641-.309a4.538 4.538 0 00-1.641 2.97c.003.906.741 1.046 1.641.311z"/><path data-name="路径 13356" d="M120.227 66.947a4.364 4.364 0 001.641-2.928c0-.906-.731-1.055-1.641-.354a4.29 4.29 0 00-1.64 2.884c.001.906.738 1.094 1.64.398z"/><path data-name="路径 13357" d="M115.29 71.549a3.809 3.809 0 001.641-2.753c0-.906-.728-1.124-1.641-.528a3.678 3.678 0 00-1.641 2.669c.001.907.74 1.2 1.641.612z"/><path data-name="路径 13358" d="M110.245 74.395a3.029 3.029 0 001.641-2.458c0-.906-.728-1.246-1.641-.823a2.871 2.871 0 00-1.641 2.342c-.003.906.741 1.356 1.641.939z"/><path data-name="路径 13359" d="M105.302 75.074a2.263 2.263 0 001.641-2.085 1.225 1.225 0 00-1.641-1.2 2.113 2.113 0 00-1.641 1.949 1.308 1.308 0 001.641 1.336z"/><path data-name="路径 13360" d="M100.691 73.52a1.671 1.671 0 001.63-1.683 1.591 1.591 0 00-1.63-1.576 1.553 1.553 0 00-1.63 1.543 1.713 1.713 0 001.63 1.716z"/><path data-name="路径 13361" d="M96.605 70.07a1.309 1.309 0 001.63-1.335 2.08 2.08 0 00-1.63-1.924 1.226 1.226 0 00-1.629 1.2 2.227 2.227 0 001.629 2.059z"/><path data-name="路径 13362" d="M93.227 65.289a1.11 1.11 0 001.63-1.061 2.579 2.579 0 00-1.63-2.2c-.906-.35-1.629.038-1.629.938a2.736 2.736 0 001.629 2.323z"/><path data-name="路径 13363" d="M90.703 59.796c.894.445 1.629.026 1.63-.874a2.985 2.985 0 00-1.63-2.385c-.907-.452-1.629-.137-1.629.763a3.138 3.138 0 001.629 2.496z"/><path data-name="路径 13364" d="M89.144 54.155c.888.5 1.618.131 1.618-.762a3.216 3.216 0 00-1.618-2.474c-.9-.5-1.618-.231-1.618.662a3.361 3.361 0 001.618 2.574z"/><path data-name="路径 13365" d="M88.615 48.834c.888.515 1.618.165 1.618-.729a3.3 3.3 0 00-1.618-2.508c-.9-.522-1.618-.262-1.618.632a3.442 3.442 0 001.618 2.605z"/><path data-name="路径 13366" d="M89.144 44.113c.888.5 1.618.132 1.618-.762a3.216 3.216 0 00-1.618-2.474c-.9-.5-1.618-.231-1.618.662a3.362 3.362 0 001.618 2.574z"/><path data-name="路径 13367" d="M90.703 40.14c.888.442 1.618.026 1.619-.868a2.966 2.966 0 00-1.619-2.369c-.9-.448-1.618-.135-1.618.758a3.116 3.116 0 001.618 2.479z"/><path data-name="路径 13368" d="M93.227 36.887a1.1 1.1 0 001.618-1.054 2.562 2.562 0 00-1.618-2.183c-.9-.348-1.617.038-1.618.932a2.717 2.717 0 001.618 2.305z"/><path data-name="路径 13369" d="M96.605 34.17a1.3 1.3 0 001.618-1.325 2.066 2.066 0 00-1.618-1.912 1.218 1.218 0 00-1.618 1.192 2.211 2.211 0 001.618 2.045z"/><path data-name="路径 13370" d="M100.69 31.681a1.659 1.659 0 001.618-1.671 1.58 1.58 0 00-1.618-1.565 1.543 1.543 0 00-1.618 1.533 1.7 1.7 0 001.618 1.703z"/><path data-name="路径 13371" d="M105.302 29.116a2.232 2.232 0 001.618-2.056 1.209 1.209 0 00-1.618-1.181 2.085 2.085 0 00-1.618 1.923 1.29 1.29 0 001.618 1.314z"/><path data-name="路径 13372" d="M110.241 26.338a2.986 2.986 0 001.618-2.424c0-.894-.718-1.23-1.618-.812a2.833 2.833 0 00-1.618 2.311c0 .893.73 1.336 1.618.925z"/><path data-name="路径 13373" d="M115.289 23.491a3.755 3.755 0 001.618-2.715c0-.894-.719-1.109-1.618-.521a3.629 3.629 0 00-1.618 2.634c.001.893.73 1.182 1.618.602z"/><path data-name="路径 13374" d="M120.227 21a4.334 4.334 0 001.63-2.908c0-.9-.726-1.048-1.63-.351a4.261 4.261 0 00-1.629 2.864c.001.9.732 1.087 1.629.395z"/><path data-name="路径 13375" d="M124.84 19.371a4.512 4.512 0 001.63-2.952c0-.9-.729-1.038-1.63-.307a4.509 4.509 0 00-1.63 2.95c-.001.9.73 1.039 1.63.309z"/><path data-name="路径 13376" d="M128.924 19.052a4.346 4.346 0 001.63-2.893c0-.9-.732-1.072-1.63-.366a4.4 4.4 0 00-1.629 2.928c.001.9.727 1.041 1.629.331z"/><path data-name="路径 13377" d="M132.303 20.238a4.007 4.007 0 001.63-2.777c0-.9-.734-1.13-1.63-.482a4.111 4.111 0 00-1.63 2.841c.001.9.725 1.074 1.63.418z"/><path data-name="路径 13378" d="M134.827 22.875a3.686 3.686 0 001.641-2.672c0-.906-.74-1.2-1.641-.609a3.818 3.818 0 00-1.641 2.756c.001.906.728 1.122 1.641.525z"/><path data-name="路径 13379" d="M136.387 26.693a3.447 3.447 0 001.641-2.582c0-.906-.741-1.242-1.641-.7a3.59 3.59 0 00-1.641 2.677c.001.907.731 1.156 1.641.605z"/><path data-name="路径 13380" d="M140.94 29.112a2.3 2.3 0 001.384-1.92.913.913 0 00-1.384-.848 2.407 2.407 0 00-1.384 2.007c.001.764.615 1.083 1.384.761z"/><path data-name="路径 13381" d="M140.487 34.348a2.374 2.374 0 001.4-1.964c0-.77-.629-1.162-1.4-.826a2.49 2.49 0 00-1.4 2.051c.006.77.625 1.08 1.4.739z"/><path data-name="路径 13382" d="M139.143 39.847a2.561 2.561 0 001.4-2.047c0-.771-.629-1.123-1.4-.743a2.673 2.673 0 00-1.4 2.129c.006.77.62 1.042 1.4.661z"/><path data-name="路径 13383" d="M136.951 45.584a2.864 2.864 0 001.4-2.172c0-.77-.629-1.064-1.4-.618a2.97 2.97 0 00-1.4 2.244c.006.77.625.999 1.4.546z"/><path data-name="路径 13384" d="M133.983 51.553a3.248 3.248 0 001.4-2.316c0-.77-.628-1-1.4-.474a3.336 3.336 0 00-1.4 2.372c.006.77.625.945 1.4.418z"/><path data-name="路径 13385" d="M130.331 57.697a3.625 3.625 0 001.4-2.445c0-.77-.627-.933-1.4-.345a3.682 3.682 0 00-1.4 2.479c.006.771.627.903 1.4.311z"/><path data-name="路径 13386" d="M126.116 63.825a3.851 3.851 0 001.4-2.521c0-.771-.625-.893-1.4-.269a3.86 3.86 0 00-1.4 2.528c.006.771.629.887 1.4.262z"/><path data-name="路径 13387" d="M121.468 69.557a3.78 3.78 0 001.4-2.508c0-.77-.622-.892-1.4-.282a3.74 3.74 0 00-1.4 2.484c.009.77.634.913 1.4.306z"/><path data-name="路径 13388" d="M116.547 74.352a3.351 3.351 0 001.384-2.366c0-.764-.616-.933-1.384-.4a3.265 3.265 0 00-1.384 2.313c-.004.759.623.975 1.384.453z"/><path data-name="路径 13389" d="M111.501 77.649a2.715 2.715 0 001.384-2.137c0-.764-.615-1.028-1.384-.631a2.606 2.606 0 00-1.384 2.059c.001.765.624 1.101 1.384.709z"/><path data-name="路径 13390" d="M106.496 79.008a2.048 2.048 0 001.384-1.831.98.98 0 00-1.384-.937 1.937 1.937 0 00-1.384 1.737 1.032 1.032 0 001.384 1.031z"/><path data-name="路径 13391" d="M101.692 78.252a1.505 1.505 0 001.384-1.493 1.276 1.276 0 00-1.384-1.275 1.414 1.414 0 00-1.384 1.393 1.358 1.358 0 001.384 1.375z"/><path data-name="路径 13392" d="M97.244 75.528a1.146 1.146 0 001.384-1.17 1.7 1.7 0 00-1.384-1.6 1.082 1.082 0 00-1.384 1.072 1.807 1.807 0 001.384 1.698z"/><path data-name="路径 13393" d="M93.294 71.239a.942.942 0 001.384-.9 2.191 2.191 0 00-1.384-1.87c-.769-.295-1.383.044-1.384.808a2.305 2.305 0 001.384 1.962z"/><path data-name="路径 13394" d="M89.971 65.901c.754.4 1.372.072 1.373-.686a2.626 2.626 0 00-1.373-2.06c-.763-.4-1.372-.148-1.373.611a2.734 2.734 0 001.373 2.135z"/><path data-name="路径 13395" d="M87.381 60.068c.754.47 1.372.209 1.373-.549a2.973 2.973 0 00-1.373-2.2c-.763-.475-1.372-.273-1.373.485a3.07 3.07 0 001.373 2.264z"/><path data-name="路径 13396" d="M85.606 54.181c.755.512 1.372.291 1.373-.468a3.193 3.193 0 00-1.373-2.278c-.762-.518-1.372-.345-1.373.414a3.278 3.278 0 001.373 2.332z"/><path data-name="路径 13397" d="M84.704 48.583c.755.531 1.372.327 1.373-.431a3.3 3.3 0 00-1.373-2.314c-.762-.536-1.372-.377-1.373.382a3.375 3.375 0 001.373 2.363z"/><path data-name="路径 13398" d="M84.7 43.523c.749.527 1.361.324 1.362-.428a3.27 3.27 0 00-1.362-2.3c-.756-.532-1.361-.373-1.362.379a3.349 3.349 0 001.362 2.349z"/><path data-name="路径 13399" d="M85.606 39.178c.748.508 1.361.288 1.362-.464a3.167 3.167 0 00-1.362-2.26c-.756-.513-1.361-.342-1.362.411a3.252 3.252 0 001.362 2.313z"/><path data-name="路径 13400" d="M87.381 35.608c.748.467 1.361.208 1.362-.544a2.949 2.949 0 00-1.362-2.179c-.757-.472-1.361-.271-1.362.482a3.044 3.044 0 001.362 2.241z"/><path data-name="路径 13401" d="M89.972 32.77c.748.394 1.361.072 1.362-.68a2.605 2.605 0 00-1.362-2.043c-.757-.4-1.361-.146-1.362.606a2.711 2.711 0 001.362 2.117z"/><path data-name="路径 13402" d="M93.294 30.49a.926.926 0 001.362-.883 2.157 2.157 0 00-1.362-1.841c-.757-.29-1.361.044-1.362.8a2.267 2.267 0 001.362 1.924z"/><path data-name="路径 13403" d="M97.244 28.477a1.127 1.127 0 001.362-1.151 1.676 1.676 0 00-1.362-1.573 1.065 1.065 0 00-1.362 1.056 1.777 1.777 0 001.362 1.668z"/><path data-name="路径 13404" d="M101.692 26.414a1.48 1.48 0 001.362-1.469 1.256 1.256 0 00-1.362-1.255 1.392 1.392 0 00-1.362 1.371 1.335 1.335 0 001.362 1.353z"/><path data-name="路径 13405" d="M106.496 24.048a2.013 2.013 0 001.362-1.8.964.964 0 00-1.362-.922 1.907 1.907 0 00-1.362 1.71 1.014 1.014 0 001.362 1.012z"/><path data-name="路径 13406" d="M111.501 21.335a2.67 2.67 0 001.362-2.1c0-.752-.6-1.012-1.362-.621a2.566 2.566 0 00-1.362 2.027c-.001.749.614 1.076 1.362.694z"/><path data-name="路径 13407" d="M116.547 18.498a3.321 3.321 0 001.373-2.346c0-.758-.611-.926-1.373-.4a3.238 3.238 0 00-1.373 2.294c.001.758.618.973 1.373.452z"/><path data-name="路径 13408" d="M121.472 15.943a3.72 3.72 0 001.373-2.468c0-.758-.613-.878-1.373-.278a3.683 3.683 0 00-1.373 2.445c.001.759.612.898 1.373.301z"/><path data-name="路径 13409" d="M126.118 14.181a3.787 3.787 0 001.373-2.481c0-.758-.615-.878-1.373-.265a3.8 3.8 0 00-1.373 2.488c-.001.758.612.873 1.373.258z"/><path data-name="路径 13410" d="M130.332 13.62a3.565 3.565 0 001.373-2.406c0-.758-.617-.918-1.373-.339a3.62 3.62 0 00-1.373 2.439c.001.758.612.884 1.373.306z"/><path data-name="路径 13411" d="M133.983 14.456a3.2 3.2 0 001.373-2.279c0-.758-.618-.98-1.373-.467a3.283 3.283 0 00-1.373 2.333c.001.759.611.932 1.373.413z"/><path data-name="路径 13412" d="M136.952 16.671a2.842 2.842 0 001.384-2.155c0-.764-.624-1.055-1.384-.613a2.946 2.946 0 00-1.384 2.225c.001.765.615.991 1.384.543z"/><path data-name="路径 13413" d="M139.143 20.041a2.541 2.541 0 001.384-2.032c0-.764-.624-1.113-1.384-.736a2.652 2.652 0 00-1.384 2.111c.001.757.615 1.034 1.384.657z"/><path data-name="路径 13414" d="M140.487 24.275a2.356 2.356 0 001.384-1.949c0-.764-.624-1.152-1.384-.819a2.469 2.469 0 00-1.384 2.034c.001.764.614 1.072 1.384.734z"/><path data-name="路径 13415" d="M144.964 27.562a1.473 1.473 0 001.138-1.362.9.9 0 00-1.138-.915 1.546 1.546 0 00-1.138 1.427.862.862 0 001.138.85z"/><path data-name="路径 13416" d="M144.571 32.693a1.512 1.512 0 001.138-1.385.884.884 0 00-1.138-.892 1.584 1.584 0 00-1.138 1.45.845.845 0 001.138.827z"/><path data-name="路径 13417" d="M143.388 37.929a1.631 1.631 0 001.139-1.452.833.833 0 00-1.139-.824 1.706 1.706 0 00-1.138 1.516.8.8 0 001.138.76z"/><path data-name="路径 13418" d="M141.455 43.275a1.838 1.838 0 001.138-1.558.763.763 0 00-1.138-.718 1.916 1.916 0 00-1.138 1.619c.001.627.506.906 1.138.657z"/><path data-name="路径 13419" d="M138.815 48.782a2.136 2.136 0 001.138-1.693c0-.629-.513-.9-1.138-.584a2.211 2.211 0 00-1.138 1.746c.001.626.506.854 1.138.531z"/><path data-name="路径 13420" d="M135.533 54.508a2.5 2.5 0 001.138-1.837c0-.629-.512-.836-1.138-.44a2.565 2.565 0 00-1.138 1.88c-.004.629.506.797 1.138.397z"/><path data-name="路径 13421" d="M131.694 60.439a2.861 2.861 0 001.138-1.965c0-.629-.511-.775-1.138-.312a2.908 2.908 0 00-1.138 1.993c-.002.633.505.75 1.138.284z"/><path data-name="路径 13422" d="M127.383 66.424a3.111 3.111 0 001.138-2.047c0-.629-.51-.734-1.138-.23a3.127 3.127 0 00-1.138 2.058c0 .628.509.728 1.138.219z"/><path data-name="路径 13423" d="M122.715 72.137a3.125 3.125 0 001.138-2.057c0-.629-.509-.725-1.138-.22a3.108 3.108 0 00-1.138 2.046c.001.629.51.735 1.138.231z"/><path data-name="路径 13424" d="M117.803 77.098a2.856 2.856 0 001.138-1.977c0-.629-.507-.756-1.138-.3a2.806 2.806 0 00-1.139 1.946c.001.629.512.784 1.139.331z"/><path data-name="路径 13425" d="M112.766 80.772a2.367 2.367 0 001.138-1.807c0-.629-.506-.827-1.138-.47a2.3 2.3 0 00-1.138 1.758c0 .629.512.873 1.138.519z"/><path data-name="路径 13426" d="M107.727 82.703a1.807 1.807 0 001.139-1.567c0-.629-.507-.931-1.139-.71a1.731 1.731 0 00-1.138 1.5.8.8 0 001.138.777z"/><path data-name="路径 13427" d="M102.815 82.629a1.311 1.311 0 001.127-1.275.976.976 0 00-1.127-.98 1.247 1.247 0 00-1.127 1.209 1.026 1.026 0 001.127 1.046z"/><path data-name="路径 13428" d="M98.146 80.598a.978.978 0 001.127-1 1.314 1.314 0 00-1.127-1.256.932.932 0 00-1.127.933 1.381 1.381 0 001.127 1.323z"/><path data-name="路径 13429" d="M93.838 76.869a.782.782 0 001.127-.754 1.734 1.734 0 00-1.127-1.5c-.626-.224-1.127.07-1.127.693a1.81 1.81 0 001.127 1.561z"/><path data-name="路径 13430" d="M89.996 71.876c.619.326 1.127.064 1.127-.559a2.161 2.161 0 00-1.127-1.7c-.626-.33-1.127-.115-1.127.508a2.234 2.234 0 001.127 1.751z"/><path data-name="路径 13431" d="M86.715 66.09c.614.4 1.116.2 1.116-.415a2.492 2.492 0 00-1.116-1.817c-.619-.4-1.116-.241-1.116.375a2.555 2.555 0 001.116 1.857z"/><path data-name="路径 13432" d="M84.075 59.973c.614.442 1.116.289 1.116-.328a2.741 2.741 0 00-1.116-1.9c-.619-.445-1.116-.319-1.116.3a2.791 2.791 0 001.116 1.928z"/><path data-name="路径 13433" d="M82.141 53.87c.615.468 1.116.339 1.116-.278a2.89 2.89 0 00-1.116-1.954c-.618-.471-1.115-.362-1.116.255a2.926 2.926 0 001.116 1.977z"/><path data-name="路径 13434" d="M80.962 48.046c.615.48 1.116.363 1.116-.254a2.962 2.962 0 00-1.116-1.979c-.618-.482-1.116-.381-1.116.236a2.993 2.993 0 001.116 1.997z"/><path data-name="路径 13435" d="M80.565 42.698c.615.484 1.115.37 1.116-.247a2.984 2.984 0 00-1.116-1.985c-.618-.486-1.116-.386-1.116.23a3.01 3.01 0 001.116 2.002z"/><path data-name="路径 13436" d="M80.962 37.972c.615.48 1.116.363 1.116-.254a2.962 2.962 0 00-1.116-1.979c-.618-.482-1.116-.381-1.116.236a2.993 2.993 0 001.116 1.997z"/><path data-name="路径 13437" d="M82.141 33.97c.615.468 1.116.339 1.116-.278a2.89 2.89 0 00-1.116-1.954c-.618-.471-1.115-.362-1.116.255a2.926 2.926 0 001.116 1.977z"/><path data-name="路径 13438" d="M84.075 30.726c.608.438 1.1.286 1.1-.324a2.714 2.714 0 00-1.1-1.886c-.612-.441-1.1-.316-1.105.294a2.762 2.762 0 001.105 1.916z"/><path data-name="路径 13439" d="M86.715 28.227c.607.392 1.1.2 1.1-.411a2.469 2.469 0 00-1.1-1.8c-.613-.4-1.1-.238-1.105.372a2.529 2.529 0 001.105 1.839z"/><path data-name="路径 13440" d="M89.996 26.318c.608.32 1.1.063 1.105-.547a2.119 2.119 0 00-1.105-1.663c-.614-.323-1.1-.112-1.105.5a2.19 2.19 0 001.105 1.71z"/><path data-name="路径 13441" d="M93.839 24.746a.766.766 0 001.105-.738 1.7 1.7 0 00-1.105-1.472c-.613-.219-1.1.07-1.1.68a1.773 1.773 0 001.1 1.53z"/><path data-name="路径 13442" d="M98.147 23.198a.958.958 0 001.105-.978 1.289 1.289 0 00-1.105-1.232.914.914 0 00-1.1.915 1.352 1.352 0 001.1 1.295z"/><path data-name="路径 13443" d="M102.812 21.371a1.3 1.3 0 001.116-1.262.967.967 0 00-1.116-.97 1.235 1.235 0 00-1.116 1.2 1.015 1.015 0 001.116 1.032z"/><path data-name="路径 13444" d="M107.728 19.075a1.771 1.771 0 001.116-1.535c0-.616-.5-.913-1.116-.7a1.7 1.7 0 00-1.116 1.476.781.781 0 001.116.759z"/><path data-name="路径 13445" d="M112.765 16.351a2.319 2.319 0 001.116-1.771c0-.617-.5-.811-1.116-.461a2.252 2.252 0 00-1.116 1.724c.001.616.503.851 1.116.508z"/><path data-name="路径 13446" d="M117.802 13.469a2.8 2.8 0 001.116-1.938c0-.617-.5-.742-1.116-.294a2.75 2.75 0 00-1.116 1.908c0 .617.502.769 1.116.324z"/><path data-name="路径 13447" d="M122.715 10.867a3.064 3.064 0 001.116-2.016c0-.616-.5-.711-1.116-.216a3.048 3.048 0 00-1.116 2.007c.005.615.505.719 1.116.225z"/><path data-name="路径 13448" d="M127.383 9.022a3.05 3.05 0 001.116-2.007c0-.616-.5-.719-1.116-.225a3.066 3.066 0 00-1.116 2.017c.001.616.499.711 1.116.215z"/><path data-name="路径 13449" d="M131.692 8.317a2.807 2.807 0 001.116-1.927c0-.616-.5-.759-1.116-.306a2.852 2.852 0 00-1.116 1.954c.001.613.497.735 1.116.279z"/><path data-name="路径 13450" d="M135.533 8.963a2.475 2.475 0 001.127-1.819c0-.623-.508-.827-1.127-.436a2.54 2.54 0 00-1.127 1.861c.001.62.501.787 1.127.394z"/><path data-name="路径 13451" d="M138.82 10.918a2.115 2.115 0 001.127-1.676c0-.623-.508-.894-1.127-.578a2.189 2.189 0 00-1.127 1.729c-.004.622.496.845 1.127.525z"/><path data-name="路径 13452" d="M141.455 14.026a1.822 1.822 0 001.127-1.544.756.756 0 00-1.127-.711 1.9 1.9 0 00-1.127 1.6c.001.625.501.902 1.127.655z"/><path data-name="路径 13453" d="M143.389 18.017a1.615 1.615 0 001.127-1.438.824.824 0 00-1.127-.817 1.689 1.689 0 00-1.127 1.5.791.791 0 001.127.755z"/><path data-name="路径 13454" d="M144.571 22.618a1.512 1.512 0 001.138-1.385.884.884 0 00-1.138-.892 1.584 1.584 0 00-1.138 1.45.845.845 0 001.138.827z"/><path data-name="路径 13455" d="M148.993 26.817a.882.882 0 100-1.763.918.918 0 00-.882.916.848.848 0 00.882.847z"/><path data-name="路径 13456" d="M148.637 31.867a.9.9 0 00.882-.892.864.864 0 00-.882-.872.939.939 0 00-.882.933.83.83 0 00.882.831z"/><path data-name="路径 13457" d="M147.587 36.876a.966.966 0 00.882-.941.809.809 0 00-.882-.823 1 1 0 00-.882.981.778.778 0 00.882.783z"/><path data-name="路径 13458" d="M145.858 41.858a1.083 1.083 0 00.882-1.02.731.731 0 00-.882-.743 1.124 1.124 0 00-.882 1.06.7.7 0 00.882.703z"/><path data-name="路径 13459" d="M143.486 46.889a1.261 1.261 0 00.882-1.126.645.645 0 00-.882-.637 1.306 1.306 0 00-.882 1.164.624.624 0 00.882.599z"/><path data-name="路径 13460" d="M140.515 52.076a1.511 1.511 0 00.882-1.251c0-.487-.4-.725-.882-.513a1.558 1.558 0 00-.882 1.285c0 .488.393.693.882.479z"/><path data-name="路径 13461" d="M137.004 57.509a1.817 1.817 0 00.882-1.38c0-.487-.4-.665-.882-.384a1.86 1.86 0 00-.882 1.408c0 .489.393.64.882.356z"/><path data-name="路径 13462" d="M133.022 63.202a2.133 2.133 0 00.882-1.495c0-.487-.4-.612-.882-.269a2.166 2.166 0 00-.882 1.515c0 .487.393.594.882.249z"/><path data-name="路径 13463" d="M128.645 69.03a2.371 2.371 0 00.882-1.574c0-.487-.4-.574-.882-.189a2.389 2.389 0 00-.882 1.583c.001.487.394.565.882.18z"/><path data-name="路径 13464" d="M123.956 74.704a2.438 2.438 0 00.882-1.6c0-.487-.394-.561-.882-.166a2.433 2.433 0 00-.882 1.594c.004.49.399.566.882.172z"/><path data-name="路径 13465" d="M119.056 79.788a2.281 2.281 0 00.882-1.552c0-.487-.393-.578-.882-.212a2.255 2.255 0 00-.882 1.536c0 .488.396.598.882.228z"/><path data-name="路径 13466" d="M114.03 83.774a1.932 1.932 0 00.882-1.435c0-.487-.393-.628-.882-.329a1.892 1.892 0 00-.882 1.408c.001.489.397.652.882.356z"/><path data-name="路径 13467" d="M108.979 86.196a1.5 1.5 0 00.882-1.259c0-.487-.393-.7-.882-.5a1.453 1.453 0 00-.882 1.223.583.583 0 00.882.536z"/><path data-name="路径 13468" d="M104.002 86.751a1.1 1.1 0 00.882-1.046.717.717 0 00-.882-.718 1.06 1.06 0 00-.882 1.006.744.744 0 00.882.758z"/><path data-name="路径 13469" d="M99.196 85.371a.81.81 0 00.882-.824.965.965 0 00-.882-.94.779.779 0 00-.882.783 1 1 0 00.882.981z"/><path data-name="路径 13470" d="M94.65 82.221a.632.632 0 00.882-.619 1.3 1.3 0 00-.882-1.142.612.612 0 00-.882.581 1.341 1.341 0 00.882 1.18z"/><path data-name="路径 13471" d="M90.463 77.639c.479.243.87.037.871-.443a1.635 1.635 0 00-.871-1.3c-.483-.245-.87-.068-.871.412a1.678 1.678 0 00.871 1.331z"/><path data-name="路径 13472" d="M86.706 72.077c.479.309.87.16.871-.32a1.95 1.95 0 00-.871-1.425c-.483-.312-.87-.185-.871.3a1.988 1.988 0 00.871 1.445z"/><path data-name="路径 13473" d="M83.463 65.954c.48.352.87.241.871-.239a2.181 2.181 0 00-.871-1.5c-.482-.354-.87-.259-.871.222a2.211 2.211 0 00.871 1.517z"/><path data-name="路径 13474" d="M80.781 59.628c.48.376.87.287.871-.194a2.32 2.32 0 00-.871-1.547c-.482-.377-.87-.3-.871.183a2.341 2.341 0 00.871 1.558z"/><path data-name="路径 13475" d="M78.725 53.365c.475.382.859.3.859-.17a2.355 2.355 0 00-.859-1.549c-.475-.382-.859-.31-.859.165a2.364 2.364 0 00.859 1.554z"/><path data-name="路径 13476" d="M77.332 47.374c.475.385.859.312.859-.163a2.378 2.378 0 00-.859-1.556c-.475-.385-.859-.313-.859.161a2.38 2.38 0 00.859 1.558z"/><path data-name="路径 13477" d="M76.628 41.803c.475.385.859.313.859-.161a2.379 2.379 0 00-.859-1.557c-.475-.385-.859-.313-.859.161a2.38 2.38 0 00.859 1.557z"/><path data-name="路径 13478" d="M76.628 36.747c.475.385.859.313.859-.161a2.38 2.38 0 00-.859-1.557c-.475-.385-.859-.313-.859.161a2.381 2.381 0 00.859 1.557z"/><path data-name="路径 13479" d="M77.332 32.317c.475.385.859.312.859-.163a2.378 2.378 0 00-.859-1.556c-.475-.385-.859-.314-.859.161a2.38 2.38 0 00.859 1.558z"/><path data-name="路径 13480" d="M78.725 28.585c.475.382.859.3.859-.17a2.357 2.357 0 00-.859-1.549c-.475-.382-.859-.309-.859.165a2.366 2.366 0 00.859 1.554z"/><path data-name="路径 13481" d="M80.78 25.604c.474.371.859.283.859-.191a2.291 2.291 0 00-.859-1.528c-.475-.372-.859-.294-.859.181a2.309 2.309 0 00.859 1.538z"/><path data-name="路径 13482" d="M83.458 23.358c.474.348.859.239.859-.236a2.153 2.153 0 00-.859-1.482c-.476-.35-.859-.255-.859.219a2.18 2.18 0 00.859 1.499z"/><path data-name="路径 13483" d="M86.708 21.738c.473.306.859.159.859-.316a1.928 1.928 0 00-.859-1.4c-.477-.308-.859-.182-.859.292a1.961 1.961 0 00.859 1.424z"/><path data-name="路径 13484" d="M90.463 20.537c.473.24.859.037.859-.438a1.616 1.616 0 00-.859-1.281c-.477-.242-.859-.067-.859.408a1.657 1.657 0 00.859 1.311z"/><path data-name="路径 13485" d="M94.652 19.456a.616.616 0 00.859-.6 1.264 1.264 0 00-.859-1.116.6.6 0 00-.859.567 1.307 1.307 0 00.859 1.149z"/><path data-name="路径 13486" d="M99.195 18.174a.789.789 0 00.859-.8.94.94 0 00-.859-.916.76.76 0 00-.859.764.977.977 0 00.859.952z"/><path data-name="路径 13487" d="M104.001 16.432a1.073 1.073 0 00.859-1.019.7.7 0 00-.859-.7 1.034 1.034 0 00-.859.981.725.725 0 00.859.738z"/><path data-name="路径 13488" d="M108.978 14.121a1.461 1.461 0 00.859-1.226c0-.475-.383-.686-.859-.492a1.417 1.417 0 00-.859 1.193.568.568 0 00.859.525z"/><path data-name="路径 13489" d="M114.029 11.346a1.882 1.882 0 00.859-1.4c0-.475-.383-.612-.859-.321a1.844 1.844 0 00-.859 1.372c0 .477.386.636.859.349z"/><path data-name="路径 13490" d="M119.055 8.417a2.222 2.222 0 00.859-1.512c0-.475-.384-.564-.859-.207a2.2 2.2 0 00-.859 1.5c.001.472.386.575.859.219z"/><path data-name="路径 13491" d="M123.959 5.774a2.377 2.377 0 00.859-1.557c0-.475-.384-.547-.859-.162a2.371 2.371 0 00-.859 1.554c-.002.479.385.554.859.165z"/><path data-name="路径 13492" d="M128.645 3.901a2.343 2.343 0 00.871-1.554c0-.481-.39-.566-.871-.187a2.359 2.359 0 00-.871 1.563c.001.481.389.559.871.178z"/><path data-name="路径 13493" d="M133.022 3.127a2.106 2.106 0 00.871-1.476c0-.481-.391-.6-.871-.265a2.139 2.139 0 00-.871 1.5c.001.477.388.582.871.241z"/><path data-name="路径 13494" d="M137.004 3.659a1.8 1.8 0 00.871-1.362c0-.481-.391-.657-.871-.379a1.838 1.838 0 00-.871 1.391c.001.48.388.63.871.35z"/><path data-name="路径 13495" d="M140.515 5.496a1.492 1.492 0 00.871-1.235c0-.481-.392-.716-.871-.506a1.539 1.539 0 00-.871 1.269c.001.48.383.683.871.472z"/><path data-name="路径 13496" d="M143.486 8.486a1.246 1.246 0 00.871-1.112.636.636 0 00-.871-.629 1.291 1.291 0 00-.871 1.149.616.616 0 00.871.592z"/><path data-name="路径 13497" d="M145.858 12.379a1.068 1.068 0 00.87-1.007.721.721 0 00-.87-.734 1.109 1.109 0 00-.871 1.046.7.7 0 00.871.695z"/><path data-name="路径 13498" d="M147.587 16.907a.966.966 0 00.882-.94.809.809 0 00-.882-.823 1 1 0 00-.882.981.778.778 0 00.882.782z"/><path data-name="路径 13499" d="M148.637 21.784a.9.9 0 00.882-.892.863.863 0 00-.882-.872.939.939 0 00-.882.933.83.83 0 00.882.831z"/><path data-name="路径 13500" d="M153.015 26.922a.494.494 0 00.625-.494.808.808 0 00-.625-.756.507.507 0 00-.625.514.786.786 0 00.625.736z"/><path data-name="路径 13501" d="M152.697 31.907a.5.5 0 00.625-.5.791.791 0 00-.625-.746.516.516 0 00-.625.524.77.77 0 00.625.722z"/><path data-name="路径 13502" d="M151.75 36.738a.54.54 0 00.636-.544.757.757 0 00-.636-.729.555.555 0 00-.636.565.736.736 0 00.636.708z"/><path data-name="路径 13503" d="M150.188 41.407a.593.593 0 00.636-.6.683.683 0 00-.636-.677.61.61 0 00-.636.617.665.665 0 00.636.66z"/><path data-name="路径 13504" d="M148.036 46.001a.68.68 0 00.636-.668.6.6 0 00-.636-.6.7.7 0 00-.636.689.58.58 0 00.636.579z"/><path data-name="路径 13505" d="M145.328 50.639a.812.812 0 00.636-.757.509.509 0 00-.636-.515.835.835 0 00-.636.778.5.5 0 00.636.494z"/><path data-name="路径 13506" d="M142.106 55.459a1 1 0 00.636-.859.435.435 0 00-.636-.413 1.021 1.021 0 00-.636.878c.005.351.284.523.636.394z"/><path data-name="路径 13507" d="M138.421 60.571a1.228 1.228 0 00.636-.963c0-.352-.286-.494-.636-.309a1.251 1.251 0 00-.636.979c0 .351.282.478.636.293z"/><path data-name="路径 13508" d="M134.332 66.01a1.474 1.474 0 00.636-1.057c0-.351-.286-.45-.636-.216a1.493 1.493 0 00-.636 1.069c0 .347.284.435.636.204z"/><path data-name="路径 13509" d="M129.902 71.66a1.675 1.675 0 00.636-1.125c0-.351-.285-.419-.636-.148a1.688 1.688 0 00-.636 1.131c.001.352.284.414.636.142z"/><path data-name="路径 13510" d="M125.203 77.277a1.761 1.761 0 00.636-1.153c0-.351-.285-.4-.636-.119a1.763 1.763 0 00-.636 1.153c0 .354.285.404.636.119z"/><path data-name="路径 13511" d="M120.307 82.439a1.659 1.659 0 00.625-1.112c0-.345-.279-.406-.625-.138a1.647 1.647 0 00-.625 1.105c0 .345.28.411.625.145z"/><path data-name="路径 13512" d="M115.292 86.684a1.437 1.437 0 00.625-1.04c0-.345-.279-.436-.625-.21a1.418 1.418 0 00-.625 1.027c0 .346.283.446.625.223z"/><path data-name="路径 13513" d="M110.238 89.536a1.136 1.136 0 00.625-.923c0-.345-.279-.487-.625-.327a1.112 1.112 0 00-.625.906c-.004.344.281.501.625.344z"/><path data-name="路径 13514" d="M105.223 90.645a.84.84 0 00.625-.776.478.478 0 00-.625-.474.818.818 0 00-.625.756.49.49 0 00.625.494z"/><path data-name="路径 13515" d="M100.327 89.874a.612.612 0 00.625-.617.639.639 0 00-.625-.633.6.6 0 00-.625.6.657.657 0 00.625.65z"/><path data-name="路径 13516" d="M95.628 87.301a.468.468 0 00.625-.465.868.868 0 00-.625-.785.456.456 0 00-.625.445.891.891 0 00.625.805z"/><path data-name="路径 13517" d="M91.198 83.195c.344.164.625.01.625-.335a1.134 1.134 0 00-.625-.915c-.346-.165-.625-.027-.625.318a1.156 1.156 0 00.625.932z"/><path data-name="路径 13518" d="M87.109 77.924c.338.214.613.108.614-.231a1.358 1.358 0 00-.614-1c-.34-.215-.614-.12-.614.219a1.375 1.375 0 00.614 1.012z"/><path data-name="路径 13519" d="M83.425 71.932c.338.249.613.173.614-.167a1.544 1.544 0 00-.614-1.061c-.34-.25-.614-.181-.614.158a1.557 1.557 0 00.614 1.07z"/><path data-name="路径 13520" d="M80.203 65.568c.339.268.614.208.614-.13a1.654 1.654 0 00-.614-1.1c-.339-.268-.614-.213-.614.126a1.663 1.663 0 00.614 1.104z"/><path data-name="路径 13521" d="M77.494 59.123c.339.275.614.223.614-.116a1.7 1.7 0 00-.614-1.112c-.339-.275-.614-.224-.614.115a1.7 1.7 0 00.614 1.113z"/><path data-name="路径 13522" d="M75.342 52.803c.339.275.614.223.614-.116a1.7 1.7 0 00-.614-1.111c-.339-.274-.614-.221-.614.118a1.693 1.693 0 00.614 1.109z"/><path data-name="路径 13523" d="M73.78 46.739c.339.271.613.217.614-.122a1.676 1.676 0 00-.614-1.106c-.339-.27-.614-.213-.614.126a1.667 1.667 0 00.614 1.102z"/><path data-name="路径 13524" d="M72.828 41.012c.333.262.6.207.6-.126a1.623 1.623 0 00-.6-1.08c-.333-.262-.6-.2-.6.13a1.615 1.615 0 00.6 1.076z"/><path data-name="路径 13525" d="M72.516 35.718c.333.261.6.2.6-.128a1.616 1.616 0 00-.6-1.077c-.332-.26-.6-.2-.6.133a1.608 1.608 0 00.6 1.072z"/><path data-name="路径 13526" d="M72.828 30.923c.333.262.6.207.6-.126a1.623 1.623 0 00-.6-1.08c-.333-.262-.6-.2-.6.13a1.615 1.615 0 00.6 1.076z"/><path data-name="路径 13527" d="M73.78 26.709c.333.266.6.213.6-.12a1.645 1.645 0 00-.6-1.085c-.333-.265-.6-.21-.6.123a1.637 1.637 0 00.6 1.082z"/><path data-name="路径 13528" d="M75.342 23.158c.333.27.6.219.6-.114a1.666 1.666 0 00-.6-1.092c-.333-.269-.6-.217-.6.116a1.661 1.661 0 00.6 1.09z"/><path data-name="路径 13529" d="M77.493 20.332c.333.27.6.218.6-.114a1.666 1.666 0 00-.6-1.091c-.333-.27-.6-.219-.6.113a1.668 1.668 0 00.6 1.092z"/><path data-name="路径 13530" d="M80.203 18.241c.332.263.6.205.6-.128a1.624 1.624 0 00-.6-1.077c-.333-.264-.6-.209-.6.124a1.632 1.632 0 00.6 1.081z"/><path data-name="路径 13531" d="M83.425 16.816c.332.244.6.17.6-.163a1.517 1.517 0 00-.6-1.042c-.334-.245-.6-.177-.6.156a1.529 1.529 0 00.6 1.049z"/><path data-name="路径 13532" d="M87.109 15.89c.332.21.6.106.6-.227a1.333 1.333 0 00-.6-.978c-.334-.211-.6-.118-.6.215a1.352 1.352 0 00.6.99z"/><path data-name="路径 13533" d="M91.198 15.205c.332.158.6.01.6-.323a1.093 1.093 0 00-.6-.883c-.334-.159-.6-.026-.6.307a1.114 1.114 0 00.6.899z"/><path data-name="路径 13534" d="M95.628 14.44a.45.45 0 00.6-.448.837.837 0 00-.6-.757.44.44 0 00-.6.43.858.858 0 00.6.775z"/><path data-name="路径 13535" d="M100.328 13.292a.59.59 0 00.6-.594.617.617 0 00-.6-.611.574.574 0 00-.6.576.633.633 0 00.6.629z"/><path data-name="路径 13536" d="M105.223 11.55a.81.81 0 00.6-.748.461.461 0 00-.6-.457.79.79 0 00-.6.729.473.473 0 00.6.476z"/><path data-name="路径 13537" d="M110.237 9.171a1.094 1.094 0 00.6-.89c0-.333-.269-.47-.6-.316a1.072 1.072 0 00-.6.874c-.002.334.269.486.6.332z"/><path data-name="路径 13538" d="M115.293 6.332a1.413 1.413 0 00.614-1.021c0-.339-.274-.429-.614-.207a1.392 1.392 0 00-.614 1.009c0 .34.275.44.614.219z"/><path data-name="路径 13539" d="M120.307 3.354a1.628 1.628 0 00.614-1.092c0-.339-.274-.4-.614-.136a1.619 1.619 0 00-.614 1.086c0 .339.273.404.614.142z"/><path data-name="路径 13540" d="M125.203.696a1.7 1.7 0 00.614-1.113c0-.339-.274-.391-.614-.115a1.7 1.7 0 00-.614 1.113c0 .339.274.39.614.115z"/><path data-name="路径 13541" d="M129.903-1.2a1.618 1.618 0 00.614-1.085c0-.339-.275-.4-.614-.142a1.626 1.626 0 00-.614 1.092c-.003.338.274.397.614.135z"/><path data-name="路径 13542" d="M134.332-1.985a1.421 1.421 0 00.614-1.02c0-.339-.275-.435-.614-.208a1.439 1.439 0 00-.614 1.031c0 .339.274.424.614.197z"/><path data-name="路径 13543" d="M138.421-1.477a1.185 1.185 0 00.614-.93c0-.339-.276-.476-.614-.3a1.208 1.208 0 00-.614.945c.002.341.274.464.614.285z"/><path data-name="路径 13544" d="M142.106.342a.98.98 0 00.625-.844.427.427 0 00-.625-.406 1 1 0 00-.625.863c0 .345.279.513.625.387z"/><path data-name="路径 13545" d="M145.328 3.312a.8.8 0 00.625-.744.5.5 0 00-.625-.506.82.82 0 00-.625.764.488.488 0 00.625.486z"/><path data-name="路径 13546" d="M148.036 7.209a.668.668 0 00.625-.656.586.586 0 00-.625-.594.688.688 0 00-.625.677.57.57 0 00.625.573z"/><path data-name="路径 13547" d="M150.188 11.762a.583.583 0 00.625-.585.672.672 0 00-.625-.665.6.6 0 00-.625.606.653.653 0 00.625.644z"/><path data-name="路径 13548" d="M151.75 16.707a.531.531 0 00.625-.534.744.744 0 00-.625-.716.545.545 0 00-.625.554.723.723 0 00.625.696z"/><path data-name="路径 13549" d="M152.697 21.818a.5.5 0 00.625-.5.791.791 0 00-.625-.746.516.516 0 00-.625.524.77.77 0 00.625.722z"/><path data-name="路径 13550" d="M157.039 27.861c.21.082.379-.018.379-.228a.627.627 0 00-.379-.531.252.252 0 00-.379.234.617.617 0 00.379.525z"/><path data-name="路径 13551" d="M156.751 32.798c.21.079.379-.023.38-.232a.616.616 0 00-.38-.526.255.255 0 00-.379.24.607.607 0 00.379.518z"/><path data-name="路径 13552" d="M155.889 37.47a.261.261 0 00.379-.248.585.585 0 00-.379-.511.265.265 0 00-.379.255.576.576 0 00.379.504z"/><path data-name="路径 13553" d="M154.464 41.89a.28.28 0 00.38-.274.536.536 0 00-.38-.485.284.284 0 00-.379.282.526.526 0 00.379.477z"/><path data-name="路径 13554" d="M152.497 46.118a.311.311 0 00.38-.312.471.471 0 00-.38-.447.315.315 0 00-.379.319.464.464 0 00.379.44z"/><path data-name="路径 13555" d="M150.011 50.262a.36.36 0 00.38-.361.4.4 0 00-.38-.4.366.366 0 00-.379.369.394.394 0 00.379.392z"/><path data-name="路径 13556" d="M147.04 54.471a.436.436 0 00.379-.42.333.333 0 00-.379-.338.443.443 0 00-.38.428.328.328 0 00.38.33z"/><path data-name="路径 13557" d="M143.622 58.901a.544.544 0 00.379-.487.277.277 0 00-.379-.272.552.552 0 00-.38.494.273.273 0 00.38.265z"/><path data-name="路径 13558" d="M139.806 63.674a.683.683 0 00.38-.554c0-.21-.17-.3-.38-.2a.693.693 0 00-.379.561c-.005.205.165.292.379.193z"/><path data-name="路径 13559" d="M135.628 68.836a.836.836 0 00.379-.616c0-.209-.17-.274-.379-.143a.844.844 0 00-.379.621c0 .209.169.27.379.138z"/><path data-name="路径 13560" d="M131.157 74.302a.972.972 0 00.38-.663c0-.209-.17-.253-.38-.1a.979.979 0 00-.379.666c0 .213.17.254.379.097z"/><path data-name="路径 13561" d="M126.446 79.838a1.048 1.048 0 00.38-.686c0-.209-.17-.242-.38-.073a1.047 1.047 0 00-.379.687c0 .21.17.244.379.072z"/><path data-name="路径 13562" d="M121.557 85.07a1.027 1.027 0 00.38-.681c0-.21-.17-.244-.38-.078a1.023 1.023 0 00-.379.679c0 .209.17.246.379.08z"/><path data-name="路径 13563" d="M116.553 89.531a.911.911 0 00.38-.644c0-.21-.17-.26-.38-.115a.9.9 0 00-.379.64c0 .21.17.264.379.119z"/><path data-name="路径 13564" d="M111.5 92.755a.734.734 0 00.38-.578c0-.21-.17-.289-.38-.18a.726.726 0 00-.379.573c0 .209.17.294.379.185z"/><path data-name="路径 13565" d="M106.464 94.367a.55.55 0 00.38-.492.274.274 0 00-.38-.267.541.541 0 00-.379.485.278.278 0 00.379.274z"/><path data-name="路径 13566" d="M101.509 94.155a.387.387 0 00.368-.384.351.351 0 00-.368-.353.381.381 0 00-.368.377.357.357 0 00.368.36z"/><path data-name="路径 13567" d="M96.702 92.146a.29.29 0 00.368-.292.48.48 0 00-.368-.445.285.285 0 00-.368.285.487.487 0 00.368.452z"/><path data-name="路径 13568" d="M92.104 88.526c.2.089.368-.007.368-.21a.637.637 0 00-.368-.526c-.2-.089-.368 0-.369.2a.646.646 0 00.369.536z"/><path data-name="路径 13569" d="M87.774 83.63c.2.124.368.058.368-.146a.794.794 0 00-.368-.591c-.2-.124-.368-.062-.368.141a.8.8 0 00.368.596z"/><path data-name="路径 13570" d="M83.771 77.849c.2.148.368.1.368-.1a.919.919 0 00-.368-.635c-.2-.148-.368-.1-.368.1a.923.923 0 00.368.635z"/><path data-name="路径 13571" d="M80.146 71.557c.2.161.368.126.368-.077a.994.994 0 00-.368-.659c-.2-.161-.368-.128-.368.076a1 1 0 00.368.66z"/><path data-name="路径 13572" d="M76.946 65.067c.2.165.368.134.369-.069a1.02 1.02 0 00-.369-.667c-.2-.165-.368-.135-.368.069a1.022 1.022 0 00.368.667z"/><path data-name="路径 13573" d="M74.213 58.588c.2.158.357.127.357-.07a.979.979 0 00-.357-.644c-.2-.158-.357-.126-.357.071a.976.976 0 00.357.643z"/><path data-name="路径 13574" d="M71.982 52.292c.2.153.357.118.357-.079a.947.947 0 00-.357-.635c-.2-.153-.357-.116-.357.082a.945.945 0 00.357.632z"/><path data-name="路径 13575" d="M70.284 46.24c.2.146.357.107.357-.09a.913.913 0 00-.357-.624c-.2-.146-.357-.1-.357.093a.909.909 0 00.357.621z"/><path data-name="路径 13576" d="M69.139 40.479c.2.141.357.1.357-.1a.884.884 0 00-.357-.615c-.2-.141-.357-.095-.357.1a.88.88 0 00.357.615z"/><path data-name="路径 13577" d="M68.563 35.048c.2.139.357.093.357-.1a.87.87 0 00-.357-.61c-.2-.138-.357-.089-.357.108a.862.862 0 00.357.602z"/><path data-name="路径 13578" d="M68.563 29.992c.2.139.357.093.357-.1a.869.869 0 00-.357-.61c-.2-.138-.357-.089-.357.108a.862.862 0 00.357.602z"/><path data-name="路径 13579" d="M69.139 25.379c.2.141.357.1.357-.1a.882.882 0 00-.357-.615c-.2-.141-.357-.095-.357.1a.88.88 0 00.357.615z"/><path data-name="路径 13580" d="M70.284 21.281c.191.142.346.1.346-.087a.885.885 0 00-.346-.6c-.191-.142-.346-.1-.346.09a.879.879 0 00.346.597z"/><path data-name="路径 13581" d="M71.983 17.812c.191.148.346.114.346-.077a.918.918 0 00-.346-.615c-.191-.148-.346-.112-.346.079a.915.915 0 00.346.613z"/><path data-name="路径 13582" d="M74.213 15.037c.191.153.346.123.346-.068a.947.947 0 00-.346-.624c-.191-.153-.346-.122-.346.069a.944.944 0 00.346.623z"/><path data-name="路径 13583" d="M76.946 12.997c.191.155.346.126.346-.065a.957.957 0 00-.346-.627c-.191-.155-.346-.126-.346.065a.959.959 0 00.346.627z"/><path data-name="路径 13584" d="M80.146 11.66c.191.151.346.118.346-.073a.934.934 0 00-.346-.619c-.191-.151-.346-.12-.346.071a.939.939 0 00.346.621z"/><path data-name="路径 13585" d="M83.771 10.905c.191.139.346.1.346-.1a.865.865 0 00-.346-.6c-.191-.139-.346-.1-.346.093a.868.868 0 00.346.607z"/><path data-name="路径 13586" d="M87.775 10.513c.191.116.346.054.346-.137a.747.747 0 00-.346-.555c-.191-.116-.346-.058-.346.133a.753.753 0 00.346.559z"/><path data-name="路径 13587" d="M92.104 10.188c.191.083.346-.006.346-.2a.6.6 0 00-.346-.5c-.191-.084-.346 0-.346.192a.605.605 0 00.346.508z"/><path data-name="路径 13588" d="M96.702 9.61a.272.272 0 00.346-.274.451.451 0 00-.346-.418.268.268 0 00-.346.267.457.457 0 00.346.425z"/><path data-name="路径 13589" d="M101.51 8.491a.364.364 0 00.346-.361.33.33 0 00-.346-.331.358.358 0 00-.346.354.336.336 0 00.346.338z"/><path data-name="路径 13590" d="M106.464 6.698a.517.517 0 00.357-.463.258.258 0 00-.357-.251.509.509 0 00-.357.457.261.261 0 00.357.257z"/><path data-name="路径 13591" d="M111.501 4.22a.69.69 0 00.357-.544c0-.2-.16-.272-.357-.17a.684.684 0 00-.357.539c0 .197.16.277.357.175z"/><path data-name="路径 13592" d="M116.554 1.285a.856.856 0 00.357-.606c0-.2-.16-.245-.357-.109a.852.852 0 00-.357.6c0 .2.16.251.357.115z"/><path data-name="路径 13593" d="M121.557-1.737a.965.965 0 00.357-.641c0-.2-.16-.23-.357-.074a.964.964 0 00-.357.639c0 .198.16.232.357.076z"/><path data-name="路径 13594" d="M126.446-4.399a.984.984 0 00.357-.646c0-.2-.16-.228-.357-.068a.986.986 0 00-.357.646c0 .197.16.227.357.068z"/><path data-name="路径 13595" d="M131.157-6.268a.917.917 0 00.357-.624c0-.2-.16-.238-.357-.09a.919.919 0 00-.357.626c0 .197.16.236.357.088z"/><path data-name="路径 13596" d="M135.628-7.016a.789.789 0 00.357-.58c0-.2-.16-.258-.357-.135a.8.8 0 00-.357.584c0 .199.16.256.357.131z"/><path data-name="路径 13597" d="M139.801-6.458a.663.663 0 00.368-.538c0-.2-.165-.293-.368-.2a.671.671 0 00-.368.544c0 .204.165.289.368.194z"/><path data-name="路径 13598" d="M143.622-4.611a.528.528 0 00.368-.473.268.268 0 00-.368-.264.536.536 0 00-.368.479.265.265 0 00.368.258z"/><path data-name="路径 13599" d="M147.04-1.592a.423.423 0 00.368-.408.323.323 0 00-.368-.328.43.43 0 00-.369.415.318.318 0 00.369.321z"/><path data-name="路径 13600" d="M150.011 2.378a.349.349 0 00.368-.351.389.389 0 00-.368-.386.355.355 0 00-.368.358.383.383 0 00.368.379z"/><path data-name="路径 13601" d="M152.497 7.036a.3.3 0 00.369-.3.458.458 0 00-.369-.433.306.306 0 00-.368.31.45.45 0 00.368.423z"/><path data-name="路径 13602" d="M154.464 12.121a.271.271 0 00.368-.266.519.519 0 00-.368-.47.275.275 0 00-.368.273.512.512 0 00.368.463z"/><path data-name="路径 13603" d="M155.889 17.403a.254.254 0 00.368-.241.567.567 0 00-.368-.5.257.257 0 00-.368.247.559.559 0 00.368.494z"/><path data-name="路径 13604" d="M156.751 22.704c.21.079.379-.023.38-.233a.617.617 0 00-.38-.526.255.255 0 00-.379.24.607.607 0 00.379.519z"/><path data-name="路径 13605" d="M161.065 29.535c.068.038.123.015.123-.053a.25.25 0 00-.123-.192c-.068-.038-.123-.014-.123.054a.249.249 0 00.123.191z"/><path data-name="路径 13606" d="M160.8 34.433c.068.037.123.013.123-.055a.247.247 0 00-.123-.191c-.068-.037-.123-.012-.123.055a.248.248 0 00.123.191z"/><path data-name="路径 13607" d="M160.009 39.006c.068.035.123.009.123-.059a.237.237 0 00-.123-.187c-.068-.035-.123-.009-.123.059a.237.237 0 00.123.187z"/><path data-name="路径 13608" d="M158.701 43.244c.068.032.123 0 .123-.065a.222.222 0 00-.123-.18c-.068-.032-.123 0-.123.066a.221.221 0 00.123.179z"/><path data-name="路径 13609" d="M156.889 47.192c.068.026.123-.007.123-.076a.2.2 0 00-.123-.17c-.068-.026-.123.008-.123.076a.2.2 0 00.123.17z"/><path data-name="路径 13610" d="M154.594 50.938a.09.09 0 00.123-.089.174.174 0 00-.123-.157.091.091 0 00-.123.089.173.173 0 00.123.157z"/><path data-name="路径 13611" d="M151.84 54.616a.1.1 0 00.123-.106.145.145 0 00-.123-.14.105.105 0 00-.123.107.145.145 0 00.123.139z"/><path data-name="路径 13612" d="M148.659 58.384a.127.127 0 00.123-.127.118.118 0 00-.123-.119.128.128 0 00-.123.127.118.118 0 00.123.119z"/><path data-name="路径 13613" d="M145.085 62.413a.161.161 0 00.123-.149.1.1 0 00-.123-.1.162.162 0 00-.123.15.1.1 0 00.123.099z"/><path data-name="路径 13614" d="M141.155 66.837a.206.206 0 00.123-.173c0-.068-.055-.1-.123-.073a.207.207 0 00-.123.173c0 .068.055.101.123.073z"/><path data-name="路径 13615" d="M136.915 71.712a.257.257 0 00.123-.194c0-.068-.055-.091-.123-.051a.257.257 0 00-.123.195c0 .067.055.089.123.05z"/><path data-name="路径 13616" d="M132.411 76.972a.3.3 0 00.123-.211c0-.068-.055-.083-.123-.034a.3.3 0 00-.123.212c0 .067.055.082.123.033z"/><path data-name="路径 13617" d="M127.691 82.408a.335.335 0 00.123-.221c0-.068-.055-.079-.123-.025a.336.336 0 00-.123.221c-.002.069.055.08.123.025z"/><path data-name="路径 13618" d="M122.807 87.667a.336.336 0 00.123-.221c0-.068-.055-.078-.123-.024a.337.337 0 00-.123.221c0 .068.055.079.123.024z"/><path data-name="路径 13619" d="M117.814 92.31a.306.306 0 00.123-.212c0-.068-.055-.083-.123-.034a.3.3 0 00-.123.211c0 .065.055.08.123.035z"/><path data-name="路径 13620" d="M112.765 95.857a.251.251 0 00.123-.193c0-.068-.055-.091-.123-.053a.253.253 0 00-.123.192c0 .068.055.092.123.054z"/><path data-name="路径 13621" d="M107.716 97.923a.191.191 0 00.123-.166.084.084 0 00-.123-.08.191.191 0 00-.123.165.085.085 0 00.123.081z"/><path data-name="路径 13622" d="M102.723 98.254a.139.139 0 00.123-.135.109.109 0 00-.123-.11.138.138 0 00-.123.134.11.11 0 00.123.111z"/><path data-name="路径 13623" d="M97.84 96.792a.1.1 0 00.123-.1.149.149 0 00-.123-.142.1.1 0 00-.123.1.15.15 0 00.123.142z"/><path data-name="路径 13624" d="M93.12 93.669c.068.027.123-.007.123-.075a.2.2 0 00-.123-.171c-.068-.026-.123.007-.123.074a.2.2 0 00.123.172z"/><path data-name="路径 13625" d="M88.616 89.166c.068.039.123.016.123-.052a.256.256 0 00-.123-.194c-.068-.039-.123-.017-.123.051a.256.256 0 00.123.195z"/><path data-name="路径 13626" d="M84.376 83.641c.062.044.112.029.112-.032a.274.274 0 00-.112-.191c-.062-.044-.112-.03-.112.032a.275.275 0 00.112.191z"/><path data-name="路径 13627" d="M80.447 77.494c.062.049.112.038.112-.024a.3.3 0 00-.112-.2c-.062-.049-.112-.038-.112.024a.3.3 0 00.112.2z"/><path data-name="路径 13628" d="M76.872 71.045c.062.05.111.041.112-.021a.312.312 0 00-.112-.2c-.062-.05-.112-.041-.112.021a.31.31 0 00.112.2z"/><path data-name="路径 13629" d="M73.69 64.545c.062.049.112.039.112-.022a.3.3 0 00-.112-.2c-.062-.049-.112-.039-.112.022a.3.3 0 00.112.2z"/><path data-name="路径 13630" d="M70.937 58.16c.062.047.112.034.112-.027a.288.288 0 00-.112-.2c-.062-.047-.112-.034-.112.027a.29.29 0 00.112.2z"/><path data-name="路径 13631" d="M68.642 51.975c.062.043.112.029.112-.033a.271.271 0 00-.112-.19c-.062-.044-.112-.029-.112.033a.271.271 0 00.112.19z"/><path data-name="路径 13632" d="M66.83 46.014c.056.036.1.021.1-.035a.23.23 0 00-.1-.166c-.055-.036-.1-.02-.1.035a.229.229 0 00.1.166z"/><path data-name="路径 13633" d="M65.521 40.305c.056.034.1.016.1-.039a.218.218 0 00-.1-.162c-.056-.034-.1-.016-.1.04a.216.216 0 00.1.161z"/><path data-name="路径 13634" d="M64.73 34.841c.056.032.1.014.1-.042a.209.209 0 00-.1-.159c-.055-.032-.1-.013-.1.042a.208.208 0 00.1.159z"/><path data-name="路径 13635" d="M64.466 29.639c.055.032.1.013.1-.043a.208.208 0 00-.1-.158c-.056-.032-.1-.012-.1.043a.208.208 0 00.1.158z"/><path data-name="路径 13636" d="M64.73 24.748c.056.032.1.014.1-.042a.21.21 0 00-.1-.159c-.055-.032-.1-.013-.1.042a.209.209 0 00.1.159z"/><path data-name="路径 13637" d="M65.521 20.22c.056.034.1.016.1-.039a.217.217 0 00-.1-.162c-.056-.034-.1-.016-.1.039a.217.217 0 00.1.162z"/><path data-name="路径 13638" d="M66.83 16.163c.056.036.1.021.1-.035a.23.23 0 00-.1-.166c-.055-.036-.1-.02-.1.035a.229.229 0 00.1.166z"/><path data-name="路径 13639" d="M68.641 12.673c.056.039.1.026.1-.029a.244.244 0 00-.1-.171c-.055-.039-.1-.026-.1.03a.244.244 0 00.1.17z"/><path data-name="路径 13640" d="M70.936 9.848c.056.042.1.031.1-.024a.26.26 0 00-.1-.177c-.056-.042-.1-.031-.1.024a.262.262 0 00.1.177z"/><path data-name="路径 13641" d="M73.689 7.754c.056.044.1.035.1-.02a.273.273 0 00-.1-.181c-.055-.044-.1-.035-.1.021a.273.273 0 00.1.18z"/><path data-name="路径 13642" d="M76.872 6.396c.055.045.1.037.1-.019a.279.279 0 00-.1-.182c-.056-.045-.1-.037-.1.019a.279.279 0 00.1.182z"/><path data-name="路径 13643" d="M80.446 5.696c.056.044.1.034.1-.021a.269.269 0 00-.1-.179c-.056-.044-.1-.034-.1.021a.27.27 0 00.1.179z"/><path data-name="路径 13644" d="M84.372 5.48c.055.039.1.026.1-.029a.247.247 0 00-.1-.172c-.056-.04-.1-.027-.1.029a.247.247 0 00.1.172z"/><path data-name="路径 13645" d="M88.615 5.487c.056.032.1.013.1-.042a.209.209 0 00-.1-.159c-.056-.032-.1-.014-.1.042a.209.209 0 00.1.159z"/><path data-name="路径 13646" d="M93.12 5.398c.056.022.1-.006.1-.061a.164.164 0 00-.1-.14c-.056-.022-.1.005-.1.061a.165.165 0 00.1.14z"/><path data-name="路径 13647" d="M97.84 4.899a.084.084 0 00.1-.085.122.122 0 00-.1-.116.083.083 0 00-.1.084.123.123 0 00.1.117z"/><path data-name="路径 13648" d="M102.723 3.745a.114.114 0 00.1-.11.089.089 0 00-.1-.09.113.113 0 00-.1.11.09.09 0 00.1.09z"/><path data-name="路径 13649" d="M107.716 1.831a.156.156 0 00.1-.136.069.069 0 00-.1-.065.155.155 0 00-.1.135.069.069 0 00.1.066z"/><path data-name="路径 13650" d="M112.764-.765a.206.206 0 00.1-.158c0-.055-.045-.075-.1-.043a.2.2 0 00-.1.157c0 .06.046.075.1.044z"/><path data-name="路径 13651" d="M117.813-3.786a.25.25 0 00.1-.173c0-.056-.045-.068-.1-.028a.249.249 0 00-.1.173c0 .054.045.068.1.028z"/><path data-name="路径 13652" d="M122.807-6.843a.274.274 0 00.1-.181c0-.055-.045-.064-.1-.019a.273.273 0 00-.1.181c0 .055.045.064.1.019z"/><path data-name="路径 13653" d="M127.69-9.486a.274.274 0 00.1-.181c0-.055-.045-.064-.1-.02a.274.274 0 00-.1.181c0 .056.045.065.1.02z"/><path data-name="路径 13654" d="M132.411-11.287a.277.277 0 00.112-.192c0-.062-.05-.076-.112-.031a.278.278 0 00-.112.193c0 .062.051.075.112.03z"/><path data-name="路径 13655" d="M136.915-11.957a.234.234 0 00.112-.177c0-.062-.05-.083-.112-.047a.236.236 0 00-.112.177c0 .058.05.083.112.047z"/><path data-name="路径 13656" d="M141.155-11.325a.187.187 0 00.112-.157c0-.062-.05-.092-.112-.066a.187.187 0 00-.112.158c0 .061.05.09.112.065z"/><path data-name="路径 13657" d="M145.084-9.381a.147.147 0 00.112-.136.087.087 0 00-.112-.087.147.147 0 00-.112.136.087.087 0 00.112.087z"/><path data-name="路径 13658" d="M148.659-6.264a.116.116 0 00.112-.115.108.108 0 00-.112-.108.117.117 0 00-.112.116.108.108 0 00.112.107z"/><path data-name="路径 13659" d="M151.841-2.174a.1.1 0 00.112-.1.132.132 0 00-.112-.127.1.1 0 00-.112.1.131.131 0 00.112.127z"/><path data-name="路径 13660" d="M154.594 2.64a.09.09 0 00.123-.089.174.174 0 00-.123-.157.091.091 0 00-.123.09.173.173 0 00.123.156z"/><path data-name="路径 13661" d="M156.889 7.901c.068.026.123-.007.123-.075a.2.2 0 00-.123-.17.082.082 0 00-.123.076.2.2 0 00.123.169z"/><path data-name="路径 13662" d="M158.701 13.392c.068.032.123 0 .123-.065a.222.222 0 00-.123-.18c-.068-.032-.123 0-.123.066a.22.22 0 00.123.179z"/><path data-name="路径 13663" d="M160.009 18.919c.068.035.123.009.123-.059a.238.238 0 00-.123-.187c-.068-.035-.123-.009-.123.059a.237.237 0 00.123.187z"/><path data-name="路径 13664" d="M160.8 24.34c.068.037.123.013.123-.055a.248.248 0 00-.123-.191c-.068-.037-.123-.013-.123.056a.247.247 0 00.123.19z"/></g></g></g></g><text data-name="¥ 60,000" transform="translate(251 49)" fill="#fff" font-size="64" font-family="Helvetica"><tspan x="-249.125" y="0">¥ 60,000</tspan></text></svg>