<svg xmlns="http://www.w3.org/2000/svg" xmlns:xlink="http://www.w3.org/1999/xlink" width="286" height="117.178" viewBox="0 0 286 117.178">
  <defs>
    <clipPath id="clip-path">
      <path id="路径_14037" data-name="路径 14037" d="M1058.14,1106.333a41.568,41.568,0,0,0-58.717-.118l-5.686,5.63,20.232,20.255,5.646-5.59a12.9,12.9,0,1,1-.035,18.244h0L981.163,1106.2a41.249,41.249,0,0,0-29.346-12.2h-.076a41.521,41.521,0,1,0,29.3,70.951l5.753-5.688-20.211-20.275-5.729,5.663a12.9,12.9,0,1,1,.034-18.246l29.691,29.8,8.73,8.757a41.531,41.531,0,1,0,58.836-58.63Z" transform="translate(-910.233 -1094)" fill="none"/>
    </clipPath>
  </defs>
  <g id="组_4289" data-name="组 4289" transform="translate(-847.233 -1060)">
    <g id="组_4255" data-name="组 4255" transform="translate(910.233 1094)">
      <path id="路径_13666" data-name="路径 13666" d="M999.423,1106.214l-5.686,5.63,20.232,20.255,5.646-5.59a12.9,12.9,0,1,1-.035,18.244h0L981.163,1106.2a41.25,41.25,0,0,0-29.347-12.2h-.076a41.521,41.521,0,1,0,29.3,70.951l5.753-5.688-20.211-20.275-5.729,5.663a12.9,12.9,0,1,1,.034-18.246l29.691,29.8,8.73,8.757a41.531,41.531,0,1,0,.119-58.748Z" transform="translate(-910.233 -1094)" fill="#20f4ad"/>
    </g>
    <g id="组_4258" data-name="组 4258" transform="translate(910.233 1094)">
      <g id="组_4257" data-name="组 4257" clip-path="url(#clip-path)">
        <g id="组_4256" data-name="组 4256" transform="translate(64.365 -12.198)">
          <path id="路径_13667" data-name="路径 13667" d="M1300.713,1292.109a4.964,4.964,0,0,0,2.645-4.021c0-1.461-1.166-1.957-2.645-1.269a4.557,4.557,0,0,0-2.645,3.719A1.709,1.709,0,0,0,1300.713,1292.109Z" transform="translate(-1254.801 -1220.89)" fill="#4444fd"/>
          <path id="路径_13668" data-name="路径 13668" d="M1286.239,1287.5a3.931,3.931,0,0,0,2.634-3.533c0-1.455-1.165-2.142-2.634-1.735a3.536,3.536,0,0,0-2.634,3.19A2.038,2.038,0,0,0,1286.239,1287.5Z" transform="translate(-1244.351 -1217.714)" fill="#4444fd"/>
          <path id="路径_13669" data-name="路径 13669" d="M1280.7,1271.917a3.573,3.573,0,0,0,2.634-3.335,1.99,1.99,0,0,0-2.634-1.933,3.2,3.2,0,0,0-2.634,2.982A2.216,2.216,0,0,0,1280.7,1271.917Z" transform="translate(-1240.349 -1206.493)" fill="#4444fd"/>
          <path id="路径_13670" data-name="路径 13670" d="M1323.761,1292.557a5.843,5.843,0,0,0,2.4-4.128c0-1.325-1.063-1.592-2.4-.672a5.588,5.588,0,0,0-2.4,3.968C1321.363,1293.051,1322.448,1293.463,1323.761,1292.557Z" transform="translate(-1271.63 -1221.396)" fill="#4444fd"/>
          <path id="路径_13671" data-name="路径 13671" d="M1305.768,1305.951a4.774,4.774,0,0,0,2.4-3.752c0-1.325-1.059-1.739-2.4-1.048a4.445,4.445,0,0,0-2.4,3.518C1303.369,1306,1304.457,1306.628,1305.768,1305.951Z" transform="translate(-1258.63 -1231.227)" fill="#4444fd"/>
          <path id="路径_13672" data-name="路径 13672" d="M1288.59,1308.017a3.652,3.652,0,0,0,2.388-3.244c0-1.319-1.057-1.933-2.388-1.533a3.323,3.323,0,0,0-2.389,2.965A1.8,1.8,0,0,0,1288.59,1308.017Z" transform="translate(-1246.227 -1232.887)" fill="#4444fd"/>
          <path id="路径_13673" data-name="路径 13673" d="M1275.145,1298.965a2.889,2.889,0,0,0,2.388-2.8,1.992,1.992,0,0,0-2.388-1.975,2.6,2.6,0,0,0-2.389,2.5A2.212,2.212,0,0,0,1275.145,1298.965Z" transform="translate(-1236.513 -1226.422)" fill="#4444fd"/>
          <path id="路径_13674" data-name="路径 13674" d="M1267.815,1282.924a2.522,2.522,0,0,0,2.377-2.535,2.382,2.382,0,0,0-4.755.018A2.5,2.5,0,0,0,1267.815,1282.924Z" transform="translate(-1231.226 -1214.861)" fill="#4444fd"/>
          <path id="路径_13675" data-name="路径 13675" d="M1267.815,1264.831a2.522,2.522,0,0,0,2.377-2.535,2.382,2.382,0,0,0-4.755.018A2.5,2.5,0,0,0,1267.815,1264.831Z" transform="translate(-1231.226 -1201.789)" fill="#4444fd"/>
          <path id="路径_13676" data-name="路径 13676" d="M1275.174,1247.834a2.874,2.874,0,0,0,2.377-2.788,1.983,1.983,0,0,0-2.377-1.967,2.587,2.587,0,0,0-2.377,2.493A2.2,2.2,0,0,0,1275.174,1247.834Z" transform="translate(-1236.543 -1189.497)" fill="#4444fd"/>
          <path id="路径_13677" data-name="路径 13677" d="M1369,1216.694a5.708,5.708,0,0,0,2.143-3.8c0-1.183-.964-1.417-2.143-.489a5.808,5.808,0,0,0-2.143,3.856C1366.855,1217.448,1367.809,1217.629,1369,1216.694Z" transform="translate(-1304.497 -1166.937)" fill="#4444fd"/>
          <path id="路径_13678" data-name="路径 13678" d="M1366.129,1236.809a5.811,5.811,0,0,0,2.154-3.843c0-1.189-.968-1.41-2.154-.465a5.89,5.89,0,0,0-2.154,3.89C1363.976,1237.581,1364.936,1237.76,1366.129,1236.809Z" transform="translate(-1302.417 -1181.442)" fill="#4444fd"/>
          <path id="路径_13679" data-name="路径 13679" d="M1357.889,1259.553a5.942,5.942,0,0,0,2.154-3.891c0-1.19-.966-1.381-2.154-.417a5.961,5.961,0,0,0-2.154,3.9C1355.736,1260.337,1356.7,1260.518,1357.889,1259.553Z" transform="translate(-1296.464 -1197.854)" fill="#4444fd"/>
          <path id="路径_13680" data-name="路径 13680" d="M1345.054,1282.781a5.9,5.9,0,0,0,2.154-3.891c0-1.189-.961-1.369-2.154-.417a5.822,5.822,0,0,0-2.154,3.846C1342.9,1283.509,1343.868,1283.728,1345.054,1282.781Z" transform="translate(-1287.191 -1214.639)" fill="#4444fd"/>
          <path id="路径_13681" data-name="路径 13681" d="M1328.882,1303.632a5.431,5.431,0,0,0,2.154-3.76c0-1.19-.956-1.412-2.154-.548a5.249,5.249,0,0,0-2.154,3.648C1326.729,1304.162,1327.7,1304.484,1328.882,1303.632Z" transform="translate(-1275.507 -1229.767)" fill="#4444fd"/>
          <path id="路径_13682" data-name="路径 13682" d="M1310.984,1318.6a4.511,4.511,0,0,0,2.143-3.439c0-1.184-.948-1.522-2.143-.846a4.257,4.257,0,0,0-2.143,3.266C1308.842,1318.768,1309.812,1319.268,1310.984,1318.6Z" transform="translate(-1262.584 -1240.729)" fill="#4444fd"/>
          <path id="路径_13683" data-name="路径 13683" d="M1293.057,1324.592a3.475,3.475,0,0,0,2.143-3c0-1.183-.948-1.7-2.143-1.281a3.207,3.207,0,0,0-2.143,2.786A1.523,1.523,0,0,0,1293.057,1324.592Z" transform="translate(-1249.632 -1245.2)" fill="#4444fd"/>
          <path id="路径_13684" data-name="路径 13684" d="M1276.885,1320.58a2.629,2.629,0,0,0,2.143-2.534,1.765,1.765,0,0,0-2.143-1.752,2.392,2.392,0,0,0-2.143,2.295A1.937,1.937,0,0,0,1276.885,1320.58Z" transform="translate(-1237.948 -1242.391)" fill="#4444fd"/>
          <path id="路径_13685" data-name="路径 13685" d="M1264.08,1308.235a2.083,2.083,0,0,0,2.132-2.123,2.189,2.189,0,0,0-2.132-2.14,1.894,1.894,0,0,0-2.132,1.885A2.408,2.408,0,0,0,1264.08,1308.235Z" transform="translate(-1228.705 -1233.5)" fill="#4444fd"/>
          <path id="路径_13686" data-name="路径 13686" d="M1255.84,1290.986a1.816,1.816,0,0,0,2.132-1.867,2.545,2.545,0,0,0-2.132-2.4,1.661,1.661,0,0,0-2.132,1.634A2.789,2.789,0,0,0,1255.84,1290.986Z" transform="translate(-1222.751 -1221.012)" fill="#4444fd"/>
          <path id="路径_13687" data-name="路径 13687" d="M1253.029,1272.462a1.727,1.727,0,0,0,2.12-1.77,2.667,2.667,0,0,0-2.12-2.471,1.586,1.586,0,0,0-2.121,1.542A2.916,2.916,0,0,0,1253.029,1272.462Z" transform="translate(-1220.728 -1207.632)" fill="#4444fd"/>
          <path id="路径_13688" data-name="路径 13688" d="M1255.869,1255.15a1.806,1.806,0,0,0,2.121-1.857,2.532,2.532,0,0,0-2.121-2.384,1.652,1.652,0,0,0-2.12,1.626A2.773,2.773,0,0,0,1255.869,1255.15Z" transform="translate(-1222.78 -1195.138)" fill="#4444fd"/>
          <path id="路径_13689" data-name="路径 13689" d="M1264.109,1240.055a2.071,2.071,0,0,0,2.121-2.111,2.177,2.177,0,0,0-2.121-2.13,1.885,1.885,0,0,0-2.12,1.876A2.394,2.394,0,0,0,1264.109,1240.055Z" transform="translate(-1228.734 -1184.257)" fill="#4444fd"/>
          <path id="路径_13690" data-name="路径 13690" d="M1276.943,1226.749a2.6,2.6,0,0,0,2.12-2.506,1.748,1.748,0,0,0-2.12-1.735,2.368,2.368,0,0,0-2.121,2.272A1.916,1.916,0,0,0,1276.943,1226.749Z" transform="translate(-1238.006 -1174.633)" fill="#4444fd"/>
          <path id="路径_13691" data-name="路径 13691" d="M1293.116,1214.285a3.438,3.438,0,0,0,2.12-2.972c0-1.171-.939-1.685-2.12-1.269a3.174,3.174,0,0,0-2.121,2.758A1.506,1.506,0,0,0,1293.116,1214.285Z" transform="translate(-1249.69 -1165.539)" fill="#4444fd"/>
          <path id="路径_13692" data-name="路径 13692" d="M1311.043,1202.624a4.462,4.462,0,0,0,2.12-3.4c0-1.171-.938-1.507-2.12-.838a4.213,4.213,0,0,0-2.121,3.233C1308.923,1202.787,1309.882,1203.28,1311.043,1202.624Z" transform="translate(-1262.642 -1156.971)" fill="#4444fd"/>
          <path id="路径_13693" data-name="路径 13693" d="M1328.94,1193.335a5.374,5.374,0,0,0,2.132-3.721c0-1.177-.947-1.4-2.132-.543a5.2,5.2,0,0,0-2.132,3.611C1326.809,1193.86,1327.771,1194.178,1328.94,1193.335Z" transform="translate(-1275.565 -1150.116)" fill="#4444fd"/>
          <path id="路径_13694" data-name="路径 13694" d="M1345.112,1188.966a5.835,5.835,0,0,0,2.132-3.851c0-1.177-.951-1.355-2.132-.412a5.762,5.762,0,0,0-2.132,3.807C1342.982,1189.687,1343.939,1189.9,1345.112,1188.966Z" transform="translate(-1287.249 -1146.897)" fill="#4444fd"/>
          <path id="路径_13695" data-name="路径 13695" d="M1357.918,1191.38a5.911,5.911,0,0,0,2.143-3.871c0-1.184-.96-1.374-2.143-.415a5.929,5.929,0,0,0-2.143,3.882C1355.776,1192.16,1356.734,1192.341,1357.918,1191.38Z" transform="translate(-1296.493 -1148.619)" fill="#4444fd"/>
          <path id="路径_13696" data-name="路径 13696" d="M1366.158,1200.981a5.778,5.778,0,0,0,2.143-3.823c0-1.183-.963-1.4-2.143-.463a5.86,5.86,0,0,0-2.143,3.87C1364.016,1201.748,1364.971,1201.926,1366.158,1200.981Z" transform="translate(-1302.446 -1155.575)" fill="#4444fd"/>
          <path id="路径_13697" data-name="路径 13697" d="M1384.14,1206.569a4.567,4.567,0,0,0,1.9-3.2c0-1.048-.856-1.338-1.9-.6a4.714,4.714,0,0,0-1.9,3.288C1382.244,1207.111,1383.086,1207.318,1384.14,1206.569Z" transform="translate(-1315.615 -1160.092)" fill="#4444fd"/>
          <path id="路径_13698" data-name="路径 13698" d="M1381.862,1226.194a4.66,4.66,0,0,0,1.9-3.229c0-1.048-.855-1.321-1.9-.566a4.8,4.8,0,0,0-1.9,3.314C1379.965,1226.761,1380.807,1226.958,1381.862,1226.194Z" transform="translate(-1313.969 -1174.257)" fill="#4444fd"/>
          <path id="路径_13699" data-name="路径 13699" d="M1375.17,1247.967a4.9,4.9,0,0,0,1.9-3.313c0-1.048-.854-1.279-1.9-.482a5.01,5.01,0,0,0-1.9,3.377C1373.274,1248.6,1374.118,1248.772,1375.17,1247.967Z" transform="translate(-1309.135 -1189.955)" fill="#4444fd"/>
          <path id="路径_13700" data-name="路径 13700" d="M1364.485,1270.941a5.165,5.165,0,0,0,1.9-3.4c0-1.048-.851-1.231-1.9-.392a5.216,5.216,0,0,0-1.9,3.432C1362.589,1271.627,1363.435,1271.784,1364.485,1270.941Z" transform="translate(-1301.415 -1206.516)" fill="#4444fd"/>
          <path id="路径_13701" data-name="路径 13701" d="M1350.479,1293.831a5.241,5.241,0,0,0,1.9-3.437c0-1.048-.848-1.205-1.9-.358a5.21,5.21,0,0,0-1.9,3.418C1348.583,1294.5,1349.433,1294.677,1350.479,1293.831Z" transform="translate(-1291.296 -1223.041)" fill="#4444fd"/>
          <path id="路径_13702" data-name="路径 13702" d="M1334.032,1314.629a4.928,4.928,0,0,0,1.9-3.353c0-1.048-.844-1.231-1.9-.442a4.807,4.807,0,0,0-1.9,3.28C1332.136,1315.162,1332.99,1315.41,1334.032,1314.629Z" transform="translate(-1279.413 -1238.109)" fill="#4444fd"/>
          <path id="路径_13703" data-name="路径 13703" d="M1316.177,1330.667a4.2,4.2,0,0,0,1.9-3.119c0-1.048-.841-1.322-1.9-.676a4.016,4.016,0,0,0-1.9,2.994C1314.28,1330.914,1315.137,1331.3,1316.177,1330.667Z" transform="translate(-1266.513 -1249.798)" fill="#4444fd"/>
          <path id="路径_13704" data-name="路径 13704" d="M1298.035,1339.336a3.285,3.285,0,0,0,1.9-2.752c0-1.048-.841-1.473-1.9-1.043a3.072,3.072,0,0,0-1.9,2.588A1.274,1.274,0,0,0,1298.035,1339.336Z" transform="translate(-1253.406 -1256.19)" fill="#4444fd"/>
          <path id="路径_13705" data-name="路径 13705" d="M1280.776,1339.157a2.438,2.438,0,0,0,1.886-2.3,1.486,1.486,0,0,0-1.886-1.469,2.247,2.247,0,0,0-1.886,2.121A1.609,1.609,0,0,0,1280.776,1339.157Z" transform="translate(-1240.945 -1256.175)" fill="#4444fd"/>
          <path id="路径_13706" data-name="路径 13706" d="M1265.429,1330.449a1.855,1.855,0,0,0,1.886-1.886,1.922,1.922,0,0,0-1.886-1.886,1.705,1.705,0,0,0-1.886,1.7A2.092,2.092,0,0,0,1265.429,1330.449Z" transform="translate(-1229.857 -1249.904)" fill="#4444fd"/>
          <path id="路径_13707" data-name="路径 13707" d="M1253.015,1315.341a1.5,1.5,0,0,0,1.875-1.536,2.4,2.4,0,0,0-1.875-2.214,1.4,1.4,0,0,0-1.875,1.358A2.6,2.6,0,0,0,1253.015,1315.341Z" transform="translate(-1220.896 -1238.968)" fill="#4444fd"/>
          <path id="路径_13708" data-name="路径 13708" d="M1244.257,1296.7a1.33,1.33,0,0,0,1.875-1.307,2.806,2.806,0,0,0-1.875-2.443c-1.044-.363-1.875.1-1.875,1.14A3.012,3.012,0,0,0,1244.257,1296.7Z" transform="translate(-1214.569 -1225.454)" fill="#4444fd"/>
          <path id="路径_13709" data-name="路径 13709" d="M1239.737,1277.281a1.26,1.26,0,0,0,1.875-1.194,3.032,3.032,0,0,0-1.875-2.556c-1.044-.424-1.874,0-1.875,1.034A3.239,3.239,0,0,0,1239.737,1277.281Z" transform="translate(-1211.303 -1211.392)" fill="#4444fd"/>
          <path id="路径_13710" data-name="路径 13710" d="M1239.737,1259.1a1.26,1.26,0,0,0,1.875-1.194,3.032,3.032,0,0,0-1.875-2.556c-1.044-.424-1.874,0-1.875,1.034A3.239,3.239,0,0,0,1239.737,1259.1Z" transform="translate(-1211.303 -1198.259)" fill="#4444fd"/>
          <path id="路径_13711" data-name="路径 13711" d="M1244.286,1243.333a1.323,1.323,0,0,0,1.864-1.3,2.79,2.79,0,0,0-1.864-2.429c-1.038-.361-1.863.1-1.864,1.134A3,3,0,0,0,1244.286,1243.333Z" transform="translate(-1214.598 -1186.912)" fill="#4444fd"/>
          <path id="路径_13712" data-name="路径 13712" d="M1253.044,1230.112a1.5,1.5,0,0,0,1.864-1.526,2.386,2.386,0,0,0-1.864-2.2,1.388,1.388,0,0,0-1.864,1.351A2.58,2.58,0,0,0,1253.044,1230.112Z" transform="translate(-1220.925 -1177.408)" fill="#4444fd"/>
          <path id="路径_13713" data-name="路径 13713" d="M1265.487,1218.734a1.833,1.833,0,0,0,1.864-1.863,1.9,1.9,0,0,0-1.864-1.865,1.686,1.686,0,0,0-1.864,1.68A2.066,2.066,0,0,0,1265.487,1218.734Z" transform="translate(-1229.915 -1169.225)" fill="#4444fd"/>
          <path id="路径_13714" data-name="路径 13714" d="M1280.835,1207.964a2.407,2.407,0,0,0,1.864-2.276,1.469,1.469,0,0,0-1.864-1.452,2.221,2.221,0,0,0-1.864,2.1A1.588,1.588,0,0,0,1280.835,1207.964Z" transform="translate(-1241.003 -1161.423)" fill="#4444fd"/>
          <path id="路径_13715" data-name="路径 13715" d="M1298.093,1196.913a3.245,3.245,0,0,0,1.875-2.719c0-1.036-.831-1.457-1.875-1.031a3.036,3.036,0,0,0-1.875,2.559A1.258,1.258,0,0,0,1298.093,1196.913Z" transform="translate(-1253.464 -1153.327)" fill="#4444fd"/>
          <path id="路径_13716" data-name="路径 13716" d="M1316.235,1185.968a4.154,4.154,0,0,0,1.875-3.081c0-1.036-.831-1.307-1.875-.669a3.97,3.97,0,0,0-1.875,2.959C1314.361,1186.213,1315.207,1186.6,1316.235,1185.968Z" transform="translate(-1266.571 -1145.291)" fill="#4444fd"/>
          <path id="路径_13717" data-name="路径 13717" d="M1334.09,1176.746a4.867,4.867,0,0,0,1.875-3.313c0-1.035-.834-1.217-1.875-.437a4.751,4.751,0,0,0-1.875,3.242C1332.216,1177.273,1333.06,1177.518,1334.09,1176.746Z" transform="translate(-1279.471 -1138.527)" fill="#4444fd"/>
          <path id="路径_13718" data-name="路径 13718" d="M1350.538,1171.429a5.178,5.178,0,0,0,1.875-3.4c0-1.035-.838-1.191-1.875-.353a5.147,5.147,0,0,0-1.875,3.378C1348.664,1172.092,1349.5,1172.264,1350.538,1171.429Z" transform="translate(-1291.354 -1134.644)" fill="#4444fd"/>
          <path id="路径_13719" data-name="路径 13719" d="M1364.515,1171.685a5.136,5.136,0,0,0,1.886-3.383c0-1.042-.847-1.224-1.886-.389a5.184,5.184,0,0,0-1.886,3.411C1362.629,1172.366,1363.47,1172.523,1364.515,1171.685Z" transform="translate(-1301.444 -1134.824)" fill="#4444fd"/>
          <path id="路径_13720" data-name="路径 13720" d="M1375.2,1178.122a4.875,4.875,0,0,0,1.886-3.293c0-1.042-.849-1.271-1.886-.479a4.981,4.981,0,0,0-1.886,3.357C1373.314,1178.748,1374.153,1178.922,1375.2,1178.122Z" transform="translate(-1309.164 -1139.511)" fill="#4444fd"/>
          <path id="路径_13721" data-name="路径 13721" d="M1381.862,1190.126a4.661,4.661,0,0,0,1.9-3.229c0-1.048-.855-1.321-1.9-.566a4.8,4.8,0,0,0-1.9,3.314C1379.965,1190.693,1380.807,1190.89,1381.862,1190.126Z" transform="translate(-1313.969 -1148.199)" fill="#4444fd"/>
          <path id="路径_13722" data-name="路径 13722" d="M1399.312,1197.966a3.362,3.362,0,0,0,1.64-2.549c0-.906-.741-1.258-1.64-.732a3.507,3.507,0,0,0-1.641,2.647C1397.671,1198.238,1398.4,1198.5,1399.312,1197.966Z" transform="translate(-1326.762 -1154.368)" fill="#4444fd"/>
          <path id="路径_13723" data-name="路径 13723" d="M1397.41,1217.148a3.447,3.447,0,0,0,1.641-2.582c0-.906-.74-1.242-1.641-.7a3.59,3.59,0,0,0-1.641,2.677C1395.77,1217.45,1396.5,1217.7,1397.41,1217.148Z" transform="translate(-1325.388 -1168.215)" fill="#4444fd"/>
          <path id="路径_13724" data-name="路径 13724" d="M1391.788,1237.875a3.685,3.685,0,0,0,1.641-2.673c0-.906-.74-1.2-1.641-.609a3.818,3.818,0,0,0-1.641,2.756C1390.148,1238.256,1390.875,1238.472,1391.788,1237.875Z" transform="translate(-1321.326 -1183.157)" fill="#4444fd"/>
          <path id="路径_13725" data-name="路径 13725" d="M1382.692,1259.751a4.033,4.033,0,0,0,1.641-2.8c0-.906-.739-1.138-1.641-.485a4.139,4.139,0,0,0-1.641,2.86C1381.052,1260.236,1381.781,1260.411,1382.692,1259.751Z" transform="translate(-1314.754 -1198.914)" fill="#4444fd"/>
          <path id="路径_13726" data-name="路径 13726" d="M1370.519,1282.341a4.376,4.376,0,0,0,1.641-2.913c0-.906-.737-1.079-1.641-.369a4.435,4.435,0,0,0-1.64,2.948C1368.88,1282.914,1369.611,1283.056,1370.519,1282.341Z" transform="translate(-1305.96 -1215.187)" fill="#4444fd"/>
          <path id="路径_13727" data-name="路径 13727" d="M1355.8,1304.791a4.543,4.543,0,0,0,1.641-2.972c0-.906-.734-1.045-1.641-.309a4.538,4.538,0,0,0-1.641,2.97C1354.162,1305.386,1354.9,1305.526,1355.8,1304.791Z" transform="translate(-1295.327 -1231.382)" fill="#4444fd"/>
          <path id="路径_13728" data-name="路径 13728" d="M1339.182,1325.544a4.364,4.364,0,0,0,1.641-2.928c0-.906-.731-1.055-1.641-.354a4.29,4.29,0,0,0-1.641,2.884C1337.542,1326.052,1338.28,1326.24,1339.182,1325.544Z" transform="translate(-1283.32 -1246.399)" fill="#4444fd"/>
          <path id="路径_13729" data-name="路径 13729" d="M1321.388,1342.405a3.809,3.809,0,0,0,1.641-2.753c0-.906-.729-1.124-1.641-.528a3.679,3.679,0,0,0-1.641,2.669C1319.748,1342.7,1320.487,1342.993,1321.388,1342.405Z" transform="translate(-1270.463 -1258.658)" fill="#4444fd"/>
          <path id="路径_13730" data-name="路径 13730" d="M1303.2,1353.062a3.029,3.029,0,0,0,1.641-2.458c0-.906-.728-1.246-1.641-.823a2.871,2.871,0,0,0-1.641,2.342C1301.556,1353.029,1302.3,1353.479,1303.2,1353.062Z" transform="translate(-1257.32 -1266.469)" fill="#4444fd"/>
          <path id="路径_13731" data-name="路径 13731" d="M1285.4,1355.852a2.264,2.264,0,0,0,1.641-2.085,1.225,1.225,0,0,0-1.641-1.2,2.113,2.113,0,0,0-1.641,1.949A1.308,1.308,0,0,0,1285.4,1355.852Z" transform="translate(-1244.463 -1268.58)" fill="#4444fd"/>
          <path id="路径_13732" data-name="路径 13732" d="M1268.811,1350.434a1.671,1.671,0,0,0,1.63-1.683,1.591,1.591,0,0,0-1.63-1.576,1.553,1.553,0,0,0-1.63,1.543A1.713,1.713,0,0,0,1268.811,1350.434Z" transform="translate(-1232.485 -1264.716)" fill="#4444fd"/>
          <path id="路径_13733" data-name="路径 13733" d="M1254.093,1337.9a1.309,1.309,0,0,0,1.63-1.334,2.08,2.08,0,0,0-1.63-1.924,1.226,1.226,0,0,0-1.63,1.2A2.227,2.227,0,0,0,1254.093,1337.9Z" transform="translate(-1221.852 -1255.632)" fill="#4444fd"/>
          <path id="路径_13734" data-name="路径 13734" d="M1241.92,1320.441a1.11,1.11,0,0,0,1.63-1.061,2.579,2.579,0,0,0-1.63-2.2c-.906-.35-1.629.038-1.629.938A2.736,2.736,0,0,0,1241.92,1320.441Z" transform="translate(-1213.058 -1242.954)" fill="#4444fd"/>
          <path id="路径_13735" data-name="路径 13735" d="M1232.824,1300.449c.893.445,1.629.026,1.63-.874a2.985,2.985,0,0,0-1.63-2.385c-.907-.452-1.629-.137-1.63.763A3.138,3.138,0,0,0,1232.824,1300.449Z" transform="translate(-1206.486 -1228.455)" fill="#4444fd"/>
          <path id="路径_13736" data-name="路径 13736" d="M1227.231,1280.063c.888.5,1.618.132,1.618-.762a3.216,3.216,0,0,0-1.618-2.474c-.9-.5-1.618-.231-1.618.662A3.361,3.361,0,0,0,1227.231,1280.063Z" transform="translate(-1202.453 -1213.71)" fill="#4444fd"/>
          <path id="路径_13737" data-name="路径 13737" d="M1225.33,1260.844c.888.515,1.618.165,1.618-.729a3.3,3.3,0,0,0-1.618-2.508c-.9-.522-1.618-.262-1.618.632A3.442,3.442,0,0,0,1225.33,1260.844Z" transform="translate(-1201.08 -1199.812)" fill="#4444fd"/>
          <path id="路径_13738" data-name="路径 13738" d="M1227.231,1243.878c.888.5,1.618.132,1.618-.762a3.216,3.216,0,0,0-1.618-2.474c-.9-.5-1.618-.231-1.618.662A3.362,3.362,0,0,0,1227.231,1243.878Z" transform="translate(-1202.453 -1187.567)" fill="#4444fd"/>
          <path id="路径_13739" data-name="路径 13739" d="M1232.853,1229.683c.887.442,1.618.026,1.619-.868a2.966,2.966,0,0,0-1.619-2.369c-.9-.448-1.618-.135-1.618.759A3.117,3.117,0,0,0,1232.853,1229.683Z" transform="translate(-1206.515 -1177.345)" fill="#4444fd"/>
          <path id="路径_13740" data-name="路径 13740" d="M1241.949,1218.163a1.1,1.1,0,0,0,1.618-1.054,2.561,2.561,0,0,0-1.618-2.183c-.9-.348-1.618.038-1.618.932A2.717,2.717,0,0,0,1241.949,1218.163Z" transform="translate(-1213.087 -1169.078)" fill="#4444fd"/>
          <path id="路径_13741" data-name="路径 13741" d="M1254.122,1208.587a1.3,1.3,0,0,0,1.619-1.325,2.066,2.066,0,0,0-1.619-1.911,1.218,1.218,0,0,0-1.618,1.192A2.211,2.211,0,0,0,1254.122,1208.587Z" transform="translate(-1221.882 -1162.219)" fill="#4444fd"/>
          <path id="路径_13742" data-name="路径 13742" d="M1268.84,1199.73a1.659,1.659,0,0,0,1.618-1.671,1.58,1.58,0,0,0-1.618-1.566,1.543,1.543,0,0,0-1.618,1.533A1.7,1.7,0,0,0,1268.84,1199.73Z" transform="translate(-1232.515 -1155.851)" fill="#4444fd"/>
          <path id="路径_13743" data-name="路径 13743" d="M1285.459,1190.369a2.232,2.232,0,0,0,1.618-2.056,1.209,1.209,0,0,0-1.618-1.181,2.085,2.085,0,0,0-1.618,1.923A1.29,1.29,0,0,0,1285.459,1190.369Z" transform="translate(-1244.522 -1149.055)" fill="#4444fd"/>
          <path id="路径_13744" data-name="路径 13744" d="M1303.254,1180.019a2.986,2.986,0,0,0,1.618-2.424c0-.894-.718-1.23-1.618-.812a2.833,2.833,0,0,0-1.619,2.311C1301.636,1179.987,1302.366,1180.43,1303.254,1180.019Z" transform="translate(-1257.378 -1141.483)" fill="#4444fd"/>
          <path id="路径_13745" data-name="路径 13745" d="M1321.446,1169.367a3.755,3.755,0,0,0,1.618-2.716c0-.894-.718-1.109-1.618-.521a3.629,3.629,0,0,0-1.618,2.634C1319.829,1169.658,1320.558,1169.947,1321.446,1169.367Z" transform="translate(-1270.522 -1133.678)" fill="#4444fd"/>
          <path id="路径_13746" data-name="路径 13746" d="M1339.211,1160.048a4.333,4.333,0,0,0,1.63-2.908c0-.9-.726-1.049-1.63-.351a4.261,4.261,0,0,0-1.629,2.864C1337.583,1160.553,1338.314,1160.74,1339.211,1160.048Z" transform="translate(-1283.349 -1126.85)" fill="#4444fd"/>
          <path id="路径_13747" data-name="路径 13747" d="M1355.831,1154.1a4.512,4.512,0,0,0,1.63-2.952c0-.9-.729-1.038-1.63-.307a4.509,4.509,0,0,0-1.63,2.95C1354.2,1154.686,1354.931,1154.826,1355.831,1154.1Z" transform="translate(-1295.356 -1122.526)" fill="#4444fd"/>
          <path id="路径_13748" data-name="路径 13748" d="M1370.548,1153.031a4.346,4.346,0,0,0,1.63-2.893c0-.9-.732-1.072-1.63-.366a4.406,4.406,0,0,0-1.629,2.928C1368.92,1153.6,1369.646,1153.741,1370.548,1153.031Z" transform="translate(-1305.989 -1121.781)" fill="#4444fd"/>
          <path id="路径_13749" data-name="路径 13749" d="M1382.721,1157.477a4.006,4.006,0,0,0,1.63-2.777c0-.9-.734-1.13-1.63-.482a4.111,4.111,0,0,0-1.63,2.841C1381.092,1157.959,1381.816,1158.133,1382.721,1157.477Z" transform="translate(-1314.783 -1125.042)" fill="#4444fd"/>
          <path id="路径_13750" data-name="路径 13750" d="M1391.788,1167.087a3.685,3.685,0,0,0,1.641-2.672c0-.906-.74-1.2-1.641-.609a3.818,3.818,0,0,0-1.641,2.756C1390.148,1167.468,1390.875,1167.684,1391.788,1167.087Z" transform="translate(-1321.326 -1132.014)" fill="#4444fd"/>
          <path id="路径_13751" data-name="路径 13751" d="M1397.41,1180.963a3.447,3.447,0,0,0,1.641-2.582c0-.906-.74-1.242-1.641-.7a3.59,3.59,0,0,0-1.641,2.677C1395.77,1181.265,1396.5,1181.514,1397.41,1180.963Z" transform="translate(-1325.388 -1142.072)" fill="#4444fd"/>
          <path id="路径_13752" data-name="路径 13752" d="M1414.483,1191.41a2.294,2.294,0,0,0,1.384-1.92.912.912,0,0,0-1.384-.848,2.407,2.407,0,0,0-1.384,2.007C1413.1,1191.413,1413.714,1191.732,1414.483,1191.41Z" transform="translate(-1337.908 -1150.1)" fill="#4444fd"/>
          <path id="路径_13753" data-name="路径 13753" d="M1412.822,1210.19a2.374,2.374,0,0,0,1.4-1.964c0-.771-.629-1.162-1.4-.826a2.49,2.49,0,0,0-1.4,2.051C1411.428,1210.221,1412.047,1210.531,1412.822,1210.19Z" transform="translate(-1336.7 -1163.644)" fill="#4444fd"/>
          <path id="路径_13754" data-name="路径 13754" d="M1407.98,1229.919a2.561,2.561,0,0,0,1.4-2.047c0-.771-.629-1.123-1.4-.743a2.673,2.673,0,0,0-1.4,2.129C1406.586,1230.028,1407.2,1230.3,1407.98,1229.919Z" transform="translate(-1333.202 -1177.874)" fill="#4444fd"/>
          <path id="路径_13755" data-name="路径 13755" d="M1400.083,1250.447a2.863,2.863,0,0,0,1.4-2.172c0-.77-.629-1.064-1.4-.618a2.97,2.97,0,0,0-1.4,2.243C1398.688,1250.671,1399.308,1250.9,1400.083,1250.447Z" transform="translate(-1327.497 -1192.665)" fill="#4444fd"/>
          <path id="路径_13756" data-name="路径 13756" d="M1389.385,1271.767a3.248,3.248,0,0,0,1.4-2.316c0-.77-.628-1-1.4-.474a3.336,3.336,0,0,0-1.4,2.372C1387.991,1272.119,1388.61,1272.294,1389.385,1271.767Z" transform="translate(-1319.767 -1208.016)" fill="#4444fd"/>
          <path id="路径_13757" data-name="路径 13757" d="M1376.229,1293.719a3.625,3.625,0,0,0,1.4-2.445c0-.77-.627-.933-1.4-.345a3.681,3.681,0,0,0-1.4,2.479C1374.835,1294.179,1375.456,1294.311,1376.229,1293.719Z" transform="translate(-1310.262 -1223.824)" fill="#4444fd"/>
          <path id="路径_13758" data-name="路径 13758" d="M1361.04,1315.682a3.85,3.85,0,0,0,1.395-2.521c0-.771-.625-.893-1.395-.269a3.86,3.86,0,0,0-1.4,2.528C1359.645,1316.19,1360.268,1316.307,1361.04,1315.682Z" transform="translate(-1299.288 -1239.659)" fill="#4444fd"/>
          <path id="路径_13759" data-name="路径 13759" d="M1344.3,1336.365a3.78,3.78,0,0,0,1.4-2.508c0-.77-.623-.892-1.4-.282a3.741,3.741,0,0,0-1.4,2.484C1342.909,1336.829,1343.534,1336.972,1344.3,1336.365Z" transform="translate(-1287.197 -1254.61)" fill="#4444fd"/>
          <path id="路径_13760" data-name="路径 13760" d="M1326.588,1353.9a3.349,3.349,0,0,0,1.384-2.365c0-.764-.616-.933-1.384-.4a3.265,3.265,0,0,0-1.384,2.313C1325.2,1354.206,1325.827,1354.422,1326.588,1353.9Z" transform="translate(-1274.406 -1267.35)" fill="#4444fd"/>
          <path id="路径_13761" data-name="路径 13761" d="M1308.405,1366.115a2.715,2.715,0,0,0,1.384-2.137c0-.764-.615-1.028-1.384-.631a2.607,2.607,0,0,0-1.384,2.059C1307.022,1366.171,1307.645,1366.507,1308.405,1366.115Z" transform="translate(-1261.269 -1276.268)" fill="#4444fd"/>
          <path id="路径_13762" data-name="路径 13762" d="M1290.369,1371.326a2.047,2.047,0,0,0,1.384-1.831.98.98,0,0,0-1.384-.937,1.937,1.937,0,0,0-1.384,1.737A1.032,1.032,0,0,0,1290.369,1371.326Z" transform="translate(-1248.238 -1280.12)" fill="#4444fd"/>
          <path id="路径_13763" data-name="路径 13763" d="M1273.059,1368.757a1.5,1.5,0,0,0,1.384-1.493,1.276,1.276,0,0,0-1.384-1.275,1.414,1.414,0,0,0-1.384,1.393A1.357,1.357,0,0,0,1273.059,1368.757Z" transform="translate(-1235.732 -1278.308)" fill="#4444fd"/>
          <path id="路径_13764" data-name="路径 13764" d="M1257.031,1358.877a1.146,1.146,0,0,0,1.384-1.17,1.7,1.7,0,0,0-1.384-1.6,1.082,1.082,0,0,0-1.384,1.072A1.807,1.807,0,0,0,1257.031,1358.877Z" transform="translate(-1224.152 -1271.151)" fill="#4444fd"/>
          <path id="路径_13765" data-name="路径 13765" d="M1242.8,1343.217a.942.942,0,0,0,1.384-.9,2.191,2.191,0,0,0-1.384-1.87c-.769-.295-1.383.044-1.384.808A2.305,2.305,0,0,0,1242.8,1343.217Z" transform="translate(-1213.871 -1259.78)" fill="#4444fd"/>
          <path id="路径_13766" data-name="路径 13766" d="M1230.855,1323.824c.754.4,1.372.072,1.373-.686a2.626,2.626,0,0,0-1.373-2.059c-.763-.4-1.372-.148-1.373.61A2.734,2.734,0,0,0,1230.855,1323.824Z" transform="translate(-1205.249 -1245.725)" fill="#4444fd"/>
          <path id="路径_13767" data-name="路径 13767" d="M1221.52,1302.634c.754.47,1.372.209,1.373-.549a2.974,2.974,0,0,0-1.373-2.2c-.763-.475-1.372-.273-1.373.485A3.071,3.071,0,0,0,1221.52,1302.634Z" transform="translate(-1198.504 -1230.368)" fill="#4444fd"/>
          <path id="路径_13768" data-name="路径 13768" d="M1215.125,1281.312c.754.513,1.372.291,1.373-.468a3.193,3.193,0,0,0-1.373-2.278c-.762-.518-1.372-.345-1.373.413A3.279,3.279,0,0,0,1215.125,1281.312Z" transform="translate(-1193.884 -1214.933)" fill="#4444fd"/>
          <path id="路径_13769" data-name="路径 13769" d="M1211.875,1261.1c.755.531,1.372.327,1.373-.431a3.3,3.3,0,0,0-1.373-2.314c-.762-.536-1.372-.377-1.373.382A3.376,3.376,0,0,0,1211.875,1261.1Z" transform="translate(-1191.536 -1200.319)" fill="#4444fd"/>
          <path id="路径_13770" data-name="路径 13770" d="M1211.9,1242.927c.749.527,1.361.324,1.361-.428a3.269,3.269,0,0,0-1.361-2.3c-.756-.532-1.361-.373-1.362.379A3.349,3.349,0,0,0,1211.9,1242.927Z" transform="translate(-1191.565 -1187.206)" fill="#4444fd"/>
          <path id="路径_13771" data-name="路径 13771" d="M1215.154,1227.318c.748.508,1.361.288,1.362-.464a3.168,3.168,0,0,0-1.362-2.26c-.756-.513-1.361-.341-1.362.411A3.252,3.252,0,0,0,1215.154,1227.318Z" transform="translate(-1193.913 -1175.942)" fill="#4444fd"/>
          <path id="路径_13772" data-name="路径 13772" d="M1221.549,1214.559c.748.466,1.361.208,1.361-.544a2.948,2.948,0,0,0-1.361-2.179c-.756-.472-1.361-.271-1.362.481A3.044,3.044,0,0,0,1221.549,1214.559Z" transform="translate(-1198.533 -1166.753)" fill="#4444fd"/>
          <path id="路径_13773" data-name="路径 13773" d="M1230.885,1204.5c.748.394,1.361.072,1.362-.68a2.605,2.605,0,0,0-1.362-2.043c-.757-.4-1.361-.146-1.362.606A2.71,2.71,0,0,0,1230.885,1204.5Z" transform="translate(-1205.278 -1159.532)" fill="#4444fd"/>
          <path id="路径_13774" data-name="路径 13774" d="M1242.86,1196.5a.926.926,0,0,0,1.362-.883,2.157,2.157,0,0,0-1.362-1.841c-.757-.29-1.361.044-1.362.8A2.267,2.267,0,0,0,1242.86,1196.5Z" transform="translate(-1213.93 -1153.812)" fill="#4444fd"/>
          <path id="路径_13775" data-name="路径 13775" d="M1257.09,1189.457a1.127,1.127,0,0,0,1.362-1.151,1.676,1.676,0,0,0-1.362-1.573,1.065,1.065,0,0,0-1.362,1.056A1.776,1.776,0,0,0,1257.09,1189.457Z" transform="translate(-1224.211 -1148.782)" fill="#4444fd"/>
          <path id="路径_13776" data-name="路径 13776" d="M1273.117,1182.087a1.48,1.48,0,0,0,1.362-1.469,1.256,1.256,0,0,0-1.362-1.255,1.392,1.392,0,0,0-1.362,1.371A1.335,1.335,0,0,0,1273.117,1182.087Z" transform="translate(-1235.79 -1143.475)" fill="#4444fd"/>
          <path id="路径_13777" data-name="路径 13777" d="M1290.428,1173.409a2.013,2.013,0,0,0,1.361-1.8.964.964,0,0,0-1.361-.922,1.906,1.906,0,0,0-1.362,1.71A1.014,1.014,0,0,0,1290.428,1173.409Z" transform="translate(-1248.297 -1137.163)" fill="#4444fd"/>
          <path id="路径_13778" data-name="路径 13778" d="M1308.463,1163.318a2.671,2.671,0,0,0,1.361-2.1c0-.752-.6-1.012-1.361-.621a2.566,2.566,0,0,0-1.362,2.027C1307.1,1163.373,1307.715,1163.7,1308.463,1163.318Z" transform="translate(-1261.327 -1129.785)" fill="#4444fd"/>
          <path id="路径_13779" data-name="路径 13779" d="M1326.617,1152.713a3.32,3.32,0,0,0,1.373-2.346c0-.758-.61-.926-1.373-.4a3.238,3.238,0,0,0-1.373,2.294C1325.245,1153.02,1325.862,1153.234,1326.617,1152.713Z" transform="translate(-1274.435 -1122.017)" fill="#4444fd"/>
          <path id="路径_13780" data-name="路径 13780" d="M1344.361,1143.309a3.72,3.72,0,0,0,1.373-2.468c0-.758-.613-.878-1.373-.278a3.684,3.684,0,0,0-1.373,2.445C1342.989,1143.766,1343.6,1143.906,1344.361,1143.309Z" transform="translate(-1287.254 -1115.168)" fill="#4444fd"/>
          <path id="路径_13781" data-name="路径 13781" d="M1361.1,1136.933a3.788,3.788,0,0,0,1.373-2.481c0-.758-.615-.878-1.373-.265a3.8,3.8,0,0,0-1.373,2.488C1359.726,1137.433,1360.339,1137.548,1361.1,1136.933Z" transform="translate(-1299.346 -1110.554)" fill="#4444fd"/>
          <path id="路径_13782" data-name="路径 13782" d="M1376.288,1135.022a3.566,3.566,0,0,0,1.373-2.406c0-.758-.617-.918-1.373-.339a3.621,3.621,0,0,0-1.373,2.439C1374.916,1135.474,1375.527,1135.6,1376.288,1135.022Z" transform="translate(-1310.321 -1109.204)" fill="#4444fd"/>
          <path id="路径_13783" data-name="路径 13783" d="M1389.443,1138.222a3.2,3.2,0,0,0,1.373-2.279c0-.758-.618-.98-1.373-.467a3.283,3.283,0,0,0-1.373,2.333C1388.07,1138.568,1388.681,1138.741,1389.443,1138.222Z" transform="translate(-1319.825 -1111.568)" fill="#4444fd"/>
          <path id="路径_13784" data-name="路径 13784" d="M1400.112,1146.327a2.842,2.842,0,0,0,1.384-2.155c0-.764-.624-1.055-1.384-.613a2.945,2.945,0,0,0-1.384,2.225C1398.729,1146.549,1399.343,1146.775,1400.112,1146.327Z" transform="translate(-1327.525 -1117.458)" fill="#4444fd"/>
          <path id="路径_13785" data-name="路径 13785" d="M1408.009,1158.6a2.541,2.541,0,0,0,1.384-2.032c0-.764-.624-1.113-1.384-.736a2.653,2.653,0,0,0-1.384,2.111C1406.626,1158.7,1407.24,1158.977,1408.009,1158.6Z" transform="translate(-1333.231 -1126.361)" fill="#4444fd"/>
          <path id="路径_13786" data-name="路径 13786" d="M1412.852,1173.955a2.356,2.356,0,0,0,1.384-1.949c0-.764-.624-1.152-1.384-.819a2.47,2.47,0,0,0-1.384,2.034C1411.469,1173.985,1412.083,1174.293,1412.852,1173.955Z" transform="translate(-1336.73 -1137.482)" fill="#4444fd"/>
          <path id="路径_13787" data-name="路径 13787" d="M1429.625,1187.319a1.473,1.473,0,0,0,1.138-1.362.9.9,0,0,0-1.138-.915,1.545,1.545,0,0,0-1.139,1.427A.862.862,0,0,0,1429.625,1187.319Z" transform="translate(-1349.026 -1147.559)" fill="#4444fd"/>
          <path id="路径_13788" data-name="路径 13788" d="M1428.2,1205.793a1.512,1.512,0,0,0,1.138-1.385.884.884,0,0,0-1.138-.892,1.584,1.584,0,0,0-1.138,1.45A.845.845,0,0,0,1428.2,1205.793Z" transform="translate(-1347.994 -1160.903)" fill="#4444fd"/>
          <path id="路径_13789" data-name="路径 13789" d="M1423.947,1224.62a1.631,1.631,0,0,0,1.138-1.452.832.832,0,0,0-1.138-.824,1.705,1.705,0,0,0-1.138,1.515A.8.8,0,0,0,1423.947,1224.62Z" transform="translate(-1344.923 -1174.493)" fill="#4444fd"/>
          <path id="路径_13790" data-name="路径 13790" d="M1416.979,1243.795a1.838,1.838,0,0,0,1.138-1.558.763.763,0,0,0-1.138-.718,1.916,1.916,0,0,0-1.138,1.619C1415.842,1243.765,1416.347,1244.045,1416.979,1243.795Z" transform="translate(-1339.889 -1188.322)" fill="#4444fd"/>
          <path id="路径_13791" data-name="路径 13791" d="M1407.466,1263.505a2.136,2.136,0,0,0,1.138-1.693c0-.629-.513-.9-1.138-.584a2.211,2.211,0,0,0-1.138,1.746C1406.329,1263.6,1406.834,1263.828,1407.466,1263.505Z" transform="translate(-1333.016 -1202.525)" fill="#4444fd"/>
          <path id="路径_13792" data-name="路径 13792" d="M1395.642,1283.96a2.5,2.5,0,0,0,1.138-1.837c0-.629-.512-.836-1.138-.44a2.566,2.566,0,0,0-1.138,1.88C1394.5,1284.192,1395.01,1284.36,1395.642,1283.96Z" transform="translate(-1324.474 -1217.254)" fill="#4444fd"/>
          <path id="路径_13793" data-name="路径 13793" d="M1381.8,1305.151a2.86,2.86,0,0,0,1.138-1.965c0-.629-.511-.775-1.138-.312a2.908,2.908,0,0,0-1.138,1.993C1380.66,1305.5,1381.167,1305.617,1381.8,1305.151Z" transform="translate(-1314.471 -1232.513)" fill="#4444fd"/>
          <path id="路径_13794" data-name="路径 13794" d="M1366.274,1326.591a3.109,3.109,0,0,0,1.138-2.047c0-.629-.51-.734-1.138-.229a3.127,3.127,0,0,0-1.138,2.057C1365.136,1327,1365.645,1327.1,1366.274,1326.591Z" transform="translate(-1303.256 -1247.969)" fill="#4444fd"/>
          <path id="路径_13795" data-name="路径 13795" d="M1349.453,1347.165a3.126,3.126,0,0,0,1.138-2.057c0-.629-.509-.725-1.138-.22a3.109,3.109,0,0,0-1.138,2.047C1348.316,1347.563,1348.825,1347.669,1349.453,1347.165Z" transform="translate(-1291.103 -1262.83)" fill="#4444fd"/>
          <path id="路径_13796" data-name="路径 13796" d="M1331.75,1365.175a2.857,2.857,0,0,0,1.138-1.977c0-.629-.507-.756-1.138-.3a2.806,2.806,0,0,0-1.139,1.946C1330.612,1365.473,1331.123,1365.628,1331.75,1365.175Z" transform="translate(-1278.312 -1275.879)" fill="#4444fd"/>
          <path id="路径_13797" data-name="路径 13797" d="M1313.6,1378.664a2.366,2.366,0,0,0,1.139-1.807c0-.629-.506-.827-1.139-.47a2.3,2.3,0,0,0-1.138,1.758C1312.462,1378.774,1312.974,1379.018,1313.6,1378.664Z" transform="translate(-1265.199 -1285.694)" fill="#4444fd"/>
          <path id="路径_13798" data-name="路径 13798" d="M1295.448,1385.894a1.807,1.807,0,0,0,1.139-1.567c0-.629-.507-.93-1.139-.71a1.731,1.731,0,0,0-1.138,1.5A.8.8,0,0,0,1295.448,1385.894Z" transform="translate(-1252.086 -1290.993)" fill="#4444fd"/>
          <path id="路径_13799" data-name="路径 13799" d="M1277.774,1385.858a1.311,1.311,0,0,0,1.127-1.275.976.976,0,0,0-1.127-.979,1.246,1.246,0,0,0-1.127,1.208A1.026,1.026,0,0,0,1277.774,1385.858Z" transform="translate(-1239.324 -1291.031)" fill="#4444fd"/>
          <path id="路径_13800" data-name="路径 13800" d="M1260.953,1378.521a.978.978,0,0,0,1.127-1,1.314,1.314,0,0,0-1.127-1.256.932.932,0,0,0-1.127.933A1.381,1.381,0,0,0,1260.953,1378.521Z" transform="translate(-1227.172 -1285.725)" fill="#4444fd"/>
          <path id="路径_13801" data-name="路径 13801" d="M1245.429,1364.924a.782.782,0,0,0,1.127-.753,1.734,1.734,0,0,0-1.127-1.5c-.626-.224-1.127.071-1.127.693A1.81,1.81,0,0,0,1245.429,1364.924Z" transform="translate(-1215.956 -1275.857)" fill="#4444fd"/>
          <path id="路径_13802" data-name="路径 13802" d="M1231.585,1346.729c.619.326,1.127.064,1.127-.559a2.161,2.161,0,0,0-1.127-1.7c-.626-.33-1.127-.115-1.127.508A2.234,2.234,0,0,0,1231.585,1346.729Z" transform="translate(-1205.954 -1262.654)" fill="#4444fd"/>
          <path id="路径_13803" data-name="路径 13803" d="M1219.79,1325.766c.614.4,1.116.2,1.116-.415a2.493,2.493,0,0,0-1.116-1.817c-.619-.4-1.115-.241-1.116.376A2.555,2.555,0,0,0,1219.79,1325.766Z" transform="translate(-1197.44 -1247.478)" fill="#4444fd"/>
          <path id="路径_13804" data-name="路径 13804" d="M1210.277,1303.605c.614.442,1.116.289,1.116-.328a2.741,2.741,0,0,0-1.116-1.9c-.619-.445-1.116-.319-1.116.3A2.792,2.792,0,0,0,1210.277,1303.605Z" transform="translate(-1190.567 -1231.434)" fill="#4444fd"/>
          <path id="路径_13805" data-name="路径 13805" d="M1203.31,1281.544c.615.468,1.116.339,1.116-.278a2.89,2.89,0,0,0-1.116-1.954c-.618-.471-1.115-.362-1.116.255A2.926,2.926,0,0,0,1203.31,1281.544Z" transform="translate(-1185.534 -1215.476)" fill="#4444fd"/>
          <path id="路径_13806" data-name="路径 13806" d="M1199.059,1260.527c.615.48,1.116.363,1.116-.254a2.962,2.962,0,0,0-1.116-1.979c-.618-.482-1.116-.381-1.116.236A2.993,2.993,0,0,0,1199.059,1260.527Z" transform="translate(-1182.462 -1200.283)" fill="#4444fd"/>
          <path id="路径_13807" data-name="路径 13807" d="M1197.631,1241.247c.615.484,1.115.37,1.116-.247a2.983,2.983,0,0,0-1.116-1.985c-.618-.486-1.116-.386-1.116.23A3.01,3.01,0,0,0,1197.631,1241.247Z" transform="translate(-1181.431 -1186.351)" fill="#4444fd"/>
          <path id="路径_13808" data-name="路径 13808" d="M1199.059,1224.226c.615.48,1.116.363,1.116-.254a2.962,2.962,0,0,0-1.116-1.979c-.618-.482-1.116-.381-1.116.236A2.993,2.993,0,0,0,1199.059,1224.226Z" transform="translate(-1182.462 -1174.056)" fill="#4444fd"/>
          <path id="路径_13809" data-name="路径 13809" d="M1203.31,1209.836c.615.468,1.116.339,1.116-.278a2.89,2.89,0,0,0-1.116-1.954c-.618-.47-1.115-.362-1.116.255A2.926,2.926,0,0,0,1203.31,1209.836Z" transform="translate(-1185.534 -1163.668)" fill="#4444fd"/>
          <path id="路径_13810" data-name="路径 13810" d="M1210.306,1198.28c.608.438,1.1.286,1.1-.324a2.713,2.713,0,0,0-1.1-1.886c-.613-.441-1.1-.316-1.105.294A2.762,2.762,0,0,0,1210.306,1198.28Z" transform="translate(-1190.596 -1155.356)" fill="#4444fd"/>
          <path id="路径_13811" data-name="路径 13811" d="M1219.819,1189.393c.607.392,1.1.2,1.1-.411a2.469,2.469,0,0,0-1.1-1.8c-.613-.4-1.1-.238-1.105.372A2.53,2.53,0,0,0,1219.819,1189.393Z" transform="translate(-1197.469 -1148.968)" fill="#4444fd"/>
          <path id="路径_13812" data-name="路径 13812" d="M1231.643,1182.687c.608.32,1.1.063,1.105-.547a2.119,2.119,0,0,0-1.105-1.663c-.614-.323-1.1-.112-1.105.5A2.19,2.19,0,0,0,1231.643,1182.687Z" transform="translate(-1206.011 -1144.171)" fill="#4444fd"/>
          <path id="路径_13813" data-name="路径 13813" d="M1245.488,1177.229a.766.766,0,0,0,1.105-.738,1.7,1.7,0,0,0-1.105-1.472c-.613-.219-1.1.07-1.1.68A1.773,1.773,0,0,0,1245.488,1177.229Z" transform="translate(-1216.014 -1140.284)" fill="#4444fd"/>
          <path id="路径_13814" data-name="路径 13814" d="M1261.012,1171.8a.958.958,0,0,0,1.1-.978,1.289,1.289,0,0,0-1.1-1.232.914.914,0,0,0-1.1.915A1.352,1.352,0,0,0,1261.012,1171.8Z" transform="translate(-1227.23 -1136.404)" fill="#4444fd"/>
          <path id="路径_13815" data-name="路径 13815" d="M1277.8,1165.181a1.3,1.3,0,0,0,1.116-1.262.967.967,0,0,0-1.116-.97,1.234,1.234,0,0,0-1.116,1.2A1.015,1.015,0,0,0,1277.8,1165.181Z" transform="translate(-1239.353 -1131.612)" fill="#4444fd"/>
          <path id="路径_13816" data-name="路径 13816" d="M1295.507,1156.738a1.77,1.77,0,0,0,1.116-1.535c0-.616-.5-.913-1.116-.7a1.7,1.7,0,0,0-1.116,1.476A.78.78,0,0,0,1295.507,1156.738Z" transform="translate(-1252.144 -1125.466)" fill="#4444fd"/>
          <path id="路径_13817" data-name="路径 13817" d="M1313.657,1146.657a2.318,2.318,0,0,0,1.116-1.771c0-.617-.5-.812-1.116-.461a2.252,2.252,0,0,0-1.116,1.724C1312.542,1146.765,1313.044,1147,1313.657,1146.657Z" transform="translate(-1265.257 -1118.108)" fill="#4444fd"/>
          <path id="路径_13818" data-name="路径 13818" d="M1331.808,1136.029a2.8,2.8,0,0,0,1.116-1.937c0-.617-.5-.742-1.116-.294a2.75,2.75,0,0,0-1.116,1.908C1330.692,1136.322,1331.194,1136.473,1331.808,1136.029Z" transform="translate(-1278.371 -1110.362)" fill="#4444fd"/>
          <path id="路径_13819" data-name="路径 13819" d="M1349.511,1126.522a3.063,3.063,0,0,0,1.116-2.016c0-.616-.5-.711-1.116-.216a3.048,3.048,0,0,0-1.116,2.006C1348.4,1126.912,1348.9,1127.016,1349.511,1126.522Z" transform="translate(-1291.161 -1103.457)" fill="#4444fd"/>
          <path id="路径_13820" data-name="路径 13820" d="M1366.332,1119.883a3.05,3.05,0,0,0,1.116-2.007c0-.616-.5-.719-1.116-.225a3.065,3.065,0,0,0-1.116,2.017C1365.217,1120.284,1365.715,1120.379,1366.332,1119.883Z" transform="translate(-1303.314 -1098.663)" fill="#4444fd"/>
          <path id="路径_13821" data-name="路径 13821" d="M1381.856,1117.466a2.808,2.808,0,0,0,1.116-1.927c0-.616-.5-.759-1.116-.305a2.851,2.851,0,0,0-1.116,1.954C1380.741,1117.8,1381.237,1117.922,1381.856,1117.466Z" transform="translate(-1314.53 -1096.951)" fill="#4444fd"/>
          <path id="路径_13822" data-name="路径 13822" d="M1395.671,1119.9a2.476,2.476,0,0,0,1.127-1.819c0-.623-.508-.827-1.127-.435a2.54,2.54,0,0,0-1.127,1.861C1394.545,1120.126,1395.046,1120.293,1395.671,1119.9Z" transform="translate(-1324.503 -1098.739)" fill="#4444fd"/>
          <path id="路径_13823" data-name="路径 13823" d="M1407.5,1127.129a2.115,2.115,0,0,0,1.127-1.676c0-.623-.508-.894-1.127-.578a2.188,2.188,0,0,0-1.127,1.729C1406.369,1127.226,1406.87,1127.449,1407.5,1127.129Z" transform="translate(-1333.045 -1104.013)" fill="#4444fd"/>
          <path id="路径_13824" data-name="路径 13824" d="M1417.008,1138.465a1.821,1.821,0,0,0,1.127-1.544.756.756,0,0,0-1.127-.711,1.9,1.9,0,0,0-1.127,1.6C1415.882,1138.435,1416.383,1138.712,1417.008,1138.465Z" transform="translate(-1339.918 -1112.24)" fill="#4444fd"/>
          <path id="路径_13825" data-name="路径 13825" d="M1423.976,1152.931a1.615,1.615,0,0,0,1.127-1.438.824.824,0,0,0-1.127-.816,1.689,1.689,0,0,0-1.127,1.5A.791.791,0,0,0,1423.976,1152.931Z" transform="translate(-1344.953 -1122.715)" fill="#4444fd"/>
          <path id="路径_13826" data-name="路径 13826" d="M1428.2,1169.492a1.512,1.512,0,0,0,1.138-1.385.884.884,0,0,0-1.138-.892,1.584,1.584,0,0,0-1.138,1.45A.845.845,0,0,0,1428.2,1169.492Z" transform="translate(-1347.994 -1134.676)" fill="#4444fd"/>
          <path id="路径_13827" data-name="路径 13827" d="M1444.8,1186.041a.882.882,0,1,0,0-1.763.918.918,0,0,0-.882.916A.849.849,0,0,0,1444.8,1186.041Z" transform="translate(-1360.172 -1147.026)" fill="#4444fd"/>
          <path id="路径_13828" data-name="路径 13828" d="M1443.527,1204.238a.9.9,0,0,0,.882-.892.863.863,0,0,0-.882-.872.939.939,0,0,0-.882.933A.83.83,0,0,0,1443.527,1204.238Z" transform="translate(-1359.255 -1160.173)" fill="#4444fd"/>
          <path id="路径_13829" data-name="路径 13829" d="M1439.741,1222.279a.966.966,0,0,0,.882-.94.809.809,0,0,0-.882-.823,1,1,0,0,0-.882.981A.778.778,0,0,0,1439.741,1222.279Z" transform="translate(-1356.519 -1173.205)" fill="#4444fd"/>
          <path id="路径_13830" data-name="路径 13830" d="M1433.512,1240.205a1.082,1.082,0,0,0,.882-1.02.731.731,0,0,0-.882-.743,1.124,1.124,0,0,0-.882,1.06A.7.7,0,0,0,1433.512,1240.205Z" transform="translate(-1352.019 -1186.149)" fill="#4444fd"/>
          <path id="路径_13831" data-name="路径 13831" d="M1424.963,1258.273a1.262,1.262,0,0,0,.882-1.126.644.644,0,0,0-.882-.637,1.306,1.306,0,0,0-.882,1.164A.624.624,0,0,0,1424.963,1258.273Z" transform="translate(-1345.843 -1199.186)" fill="#4444fd"/>
          <path id="路径_13832" data-name="路径 13832" d="M1414.259,1276.857a1.511,1.511,0,0,0,.882-1.251c0-.487-.4-.725-.882-.513a1.559,1.559,0,0,0-.882,1.285C1413.377,1276.866,1413.77,1277.071,1414.259,1276.857Z" transform="translate(-1338.109 -1212.583)" fill="#4444fd"/>
          <path id="路径_13833" data-name="路径 13833" d="M1401.609,1296.288a1.818,1.818,0,0,0,.882-1.38c0-.487-.4-.665-.882-.384a1.86,1.86,0,0,0-.882,1.408C1400.727,1296.421,1401.12,1296.572,1401.609,1296.288Z" transform="translate(-1328.97 -1226.581)" fill="#4444fd"/>
          <path id="路径_13834" data-name="路径 13834" d="M1387.259,1316.642a2.132,2.132,0,0,0,.882-1.495c0-.487-.4-.612-.882-.269a2.167,2.167,0,0,0-.882,1.515C1386.377,1316.88,1386.77,1316.987,1387.259,1316.642Z" transform="translate(-1318.602 -1241.242)" fill="#4444fd"/>
          <path id="路径_13835" data-name="路径 13835" d="M1371.488,1337.522a2.371,2.371,0,0,0,.882-1.574c0-.487-.4-.574-.882-.189a2.389,2.389,0,0,0-.882,1.583C1370.607,1337.829,1371,1337.907,1371.488,1337.522Z" transform="translate(-1307.208 -1256.294)" fill="#4444fd"/>
          <path id="路径_13836" data-name="路径 13836" d="M1354.6,1357.934a2.438,2.438,0,0,0,.882-1.6c0-.487-.394-.561-.882-.166a2.434,2.434,0,0,0-.882,1.594C1353.722,1358.252,1354.117,1358.328,1354.6,1357.934Z" transform="translate(-1295.01 -1271.032)" fill="#4444fd"/>
          <path id="路径_13837" data-name="路径 13837" d="M1336.934,1376.33a2.279,2.279,0,0,0,.882-1.552c0-.487-.393-.578-.882-.212a2.255,2.255,0,0,0-.882,1.536C1336.052,1376.589,1336.448,1376.7,1336.934,1376.33Z" transform="translate(-1282.243 -1284.344)" fill="#4444fd"/>
          <path id="路径_13838" data-name="路径 13838" d="M1318.823,1390.867a1.932,1.932,0,0,0,.882-1.435c0-.487-.393-.628-.882-.329a1.892,1.892,0,0,0-.882,1.408C1317.941,1391,1318.338,1391.163,1318.823,1390.867Z" transform="translate(-1269.158 -1294.895)" fill="#4444fd"/>
          <path id="路径_13839" data-name="路径 13839" d="M1300.624,1399.811a1.5,1.5,0,0,0,.882-1.259c0-.487-.393-.7-.882-.5a1.453,1.453,0,0,0-.882,1.223A.583.583,0,0,0,1300.624,1399.811Z" transform="translate(-1256.01 -1301.418)" fill="#4444fd"/>
          <path id="路径_13840" data-name="路径 13840" d="M1282.69,1401.973a1.1,1.1,0,0,0,.882-1.046.717.717,0,0,0-.882-.718,1.06,1.06,0,0,0-.882,1.006A.744.744,0,0,0,1282.69,1401.973Z" transform="translate(-1243.053 -1303.024)" fill="#4444fd"/>
          <path id="路径_13841" data-name="路径 13841" d="M1265.371,1397.021a.81.81,0,0,0,.882-.824.965.965,0,0,0-.882-.94.779.779,0,0,0-.882.783A1,1,0,0,0,1265.371,1397.021Z" transform="translate(-1230.541 -1299.452)" fill="#4444fd"/>
          <path id="路径_13842" data-name="路径 13842" d="M1249,1385.562a.632.632,0,0,0,.882-.619,1.3,1.3,0,0,0-.882-1.145.612.612,0,0,0-.882.581A1.341,1.341,0,0,0,1249,1385.562Z" transform="translate(-1218.715 -1291.142)" fill="#4444fd"/>
          <path id="路径_13843" data-name="路径 13843" d="M1233.934,1368.941c.479.243.87.037.871-.444a1.635,1.635,0,0,0-.871-1.3c-.483-.245-.87-.068-.871.412A1.678,1.678,0,0,0,1233.934,1368.941Z" transform="translate(-1207.836 -1279.104)" fill="#4444fd"/>
          <path id="路径_13844" data-name="路径 13844" d="M1220.4,1348.745c.479.309.87.16.871-.32a1.951,1.951,0,0,0-.871-1.421c-.483-.312-.87-.185-.871.3A1.988,1.988,0,0,0,1220.4,1348.745Z" transform="translate(-1198.059 -1264.47)" fill="#4444fd"/>
          <path id="路径_13845" data-name="路径 13845" d="M1208.7,1326.566c.48.353.87.241.871-.239a2.18,2.18,0,0,0-.871-1.5c-.482-.354-.87-.259-.871.222A2.21,2.21,0,0,0,1208.7,1326.566Z" transform="translate(-1189.602 -1248.415)" fill="#4444fd"/>
          <path id="路径_13846" data-name="路径 13846" d="M1199.046,1303.711c.48.376.87.287.871-.194a2.32,2.32,0,0,0-.871-1.547c-.482-.377-.87-.3-.871.183A2.341,2.341,0,0,0,1199.046,1303.711Z" transform="translate(-1182.63 -1231.885)" fill="#4444fd"/>
          <path id="路径_13847" data-name="路径 13847" d="M1191.667,1281.179c.475.382.859.3.859-.17a2.354,2.354,0,0,0-.859-1.548c-.475-.383-.859-.31-.859.165A2.365,2.365,0,0,0,1191.667,1281.179Z" transform="translate(-1177.307 -1215.616)" fill="#4444fd"/>
          <path id="路径_13848" data-name="路径 13848" d="M1186.649,1259.6c.474.385.859.312.859-.163a2.378,2.378,0,0,0-.859-1.556c-.475-.385-.859-.313-.86.161A2.38,2.38,0,0,0,1186.649,1259.6Z" transform="translate(-1173.681 -1200.028)" fill="#4444fd"/>
          <path id="路径_13849" data-name="路径 13849" d="M1184.114,1239.513c.475.385.859.313.859-.161a2.378,2.378,0,0,0-.859-1.557c-.475-.386-.859-.313-.859.161A2.38,2.38,0,0,0,1184.114,1239.513Z" transform="translate(-1171.851 -1185.511)" fill="#4444fd"/>
          <path id="路径_13850" data-name="路径 13850" d="M1184.114,1221.3c.475.385.859.313.859-.162a2.38,2.38,0,0,0-.859-1.557c-.475-.385-.859-.313-.859.162A2.381,2.381,0,0,0,1184.114,1221.3Z" transform="translate(-1171.851 -1172.355)" fill="#4444fd"/>
          <path id="路径_13851" data-name="路径 13851" d="M1186.649,1205.328c.474.385.859.312.859-.163a2.378,2.378,0,0,0-.859-1.556c-.475-.385-.859-.314-.86.161A2.38,2.38,0,0,0,1186.649,1205.328Z" transform="translate(-1173.681 -1160.814)" fill="#4444fd"/>
          <path id="路径_13852" data-name="路径 13852" d="M1191.667,1191.891c.475.382.859.3.859-.17a2.355,2.355,0,0,0-.859-1.549c-.475-.382-.859-.309-.859.165A2.366,2.366,0,0,0,1191.667,1191.891Z" transform="translate(-1177.307 -1151.108)" fill="#4444fd"/>
          <path id="路径_13853" data-name="路径 13853" d="M1199.075,1181.177c.474.371.859.283.859-.191a2.291,2.291,0,0,0-.859-1.528c-.475-.372-.859-.294-.859.181A2.308,2.308,0,0,0,1199.075,1181.177Z" transform="translate(-1182.66 -1143.375)" fill="#4444fd"/>
          <path id="路径_13854" data-name="路径 13854" d="M1208.725,1173.145c.474.348.859.239.86-.236a2.154,2.154,0,0,0-.86-1.483c-.476-.35-.859-.255-.859.22A2.18,2.18,0,0,0,1208.725,1173.145Z" transform="translate(-1189.631 -1137.589)" fill="#4444fd"/>
          <path id="路径_13855" data-name="路径 13855" d="M1220.431,1167.421c.473.306.859.159.859-.316a1.927,1.927,0,0,0-.859-1.4c-.476-.308-.859-.182-.859.292A1.961,1.961,0,0,0,1220.431,1167.421Z" transform="translate(-1198.088 -1133.485)" fill="#4444fd"/>
          <path id="路径_13856" data-name="路径 13856" d="M1233.964,1163.245c.473.24.859.036.859-.438a1.615,1.615,0,0,0-.859-1.281c-.477-.242-.859-.067-.859.408A1.658,1.658,0,0,0,1233.964,1163.245Z" transform="translate(-1207.866 -1130.51)" fill="#4444fd"/>
          <path id="路径_13857" data-name="路径 13857" d="M1249.061,1159.516a.616.616,0,0,0,.859-.6,1.264,1.264,0,0,0-.859-1.116.6.6,0,0,0-.859.567A1.307,1.307,0,0,0,1249.061,1159.516Z" transform="translate(-1218.773 -1127.863)" fill="#4444fd"/>
          <path id="路径_13858" data-name="路径 13858" d="M1265.428,1155.007a.789.789,0,0,0,.859-.8.94.94,0,0,0-.859-.916.76.76,0,0,0-.859.764A.977.977,0,0,0,1265.428,1155.007Z" transform="translate(-1230.598 -1124.635)" fill="#4444fd"/>
          <path id="路径_13859" data-name="路径 13859" d="M1282.747,1148.706a1.073,1.073,0,0,0,.859-1.019.7.7,0,0,0-.859-.7,1.034,1.034,0,0,0-.859.981A.725.725,0,0,0,1282.747,1148.706Z" transform="translate(-1243.111 -1120.076)" fill="#4444fd"/>
          <path id="路径_13860" data-name="路径 13860" d="M1300.682,1140.223a1.461,1.461,0,0,0,.859-1.226c0-.474-.383-.686-.859-.492a1.417,1.417,0,0,0-.86,1.193A.568.568,0,0,0,1300.682,1140.223Z" transform="translate(-1256.068 -1113.904)" fill="#4444fd"/>
          <path id="路径_13861" data-name="路径 13861" d="M1318.881,1130.013a1.882,1.882,0,0,0,.859-1.4c0-.474-.383-.612-.859-.321a1.844,1.844,0,0,0-.859,1.372C1318.022,1130.141,1318.408,1130.3,1318.881,1130.013Z" transform="translate(-1269.217 -1106.469)" fill="#4444fd"/>
          <path id="路径_13862" data-name="路径 13862" d="M1336.991,1119.288a2.224,2.224,0,0,0,.86-1.512c0-.475-.384-.564-.86-.207a2.2,2.2,0,0,0-.86,1.5C1336.132,1119.541,1336.518,1119.644,1336.991,1119.288Z" transform="translate(-1282.301 -1098.673)" fill="#4444fd"/>
          <path id="路径_13863" data-name="路径 13863" d="M1354.662,1109.7a2.377,2.377,0,0,0,.859-1.557c0-.475-.384-.546-.859-.162a2.371,2.371,0,0,0-.86,1.554C1353.8,1110.014,1354.187,1110.089,1354.662,1109.7Z" transform="translate(-1295.067 -1091.728)" fill="#4444fd"/>
          <path id="路径_13864" data-name="路径 13864" d="M1371.517,1102.909a2.344,2.344,0,0,0,.87-1.554c0-.481-.39-.567-.87-.187a2.358,2.358,0,0,0-.871,1.563C1370.646,1103.212,1371.035,1103.29,1371.517,1102.909Z" transform="translate(-1307.237 -1086.81)" fill="#4444fd"/>
          <path id="路径_13865" data-name="路径 13865" d="M1387.288,1100.238a2.106,2.106,0,0,0,.871-1.476c0-.481-.391-.6-.871-.265a2.139,2.139,0,0,0-.871,1.5C1386.418,1100.474,1386.805,1100.579,1387.288,1100.238Z" transform="translate(-1318.631 -1084.913)" fill="#4444fd"/>
          <path id="路径_13866" data-name="路径 13866" d="M1401.638,1102.306a1.8,1.8,0,0,0,.871-1.362c0-.481-.391-.657-.871-.379a1.838,1.838,0,0,0-.871,1.391C1400.768,1102.436,1401.155,1102.586,1401.638,1102.306Z" transform="translate(-1328.999 -1086.449)" fill="#4444fd"/>
          <path id="路径_13867" data-name="路径 13867" d="M1414.288,1109.072a1.493,1.493,0,0,0,.871-1.235c0-.481-.392-.716-.871-.506a1.538,1.538,0,0,0-.871,1.269C1413.417,1109.08,1413.8,1109.283,1414.288,1109.072Z" transform="translate(-1338.138 -1091.378)" fill="#4444fd"/>
          <path id="路径_13868" data-name="路径 13868" d="M1424.992,1119.952a1.247,1.247,0,0,0,.871-1.112.636.636,0,0,0-.871-.629,1.291,1.291,0,0,0-.871,1.149A.616.616,0,0,0,1424.992,1119.952Z" transform="translate(-1345.871 -1099.268)" fill="#4444fd"/>
          <path id="路径_13869" data-name="路径 13869" d="M1433.542,1134.041a1.068,1.068,0,0,0,.87-1.007.721.721,0,0,0-.87-.734,1.109,1.109,0,0,0-.87,1.046A.7.7,0,0,0,1433.542,1134.041Z" transform="translate(-1352.049 -1109.464)" fill="#4444fd"/>
          <path id="路径_13870" data-name="路径 13870" d="M1439.741,1150.322a.966.966,0,0,0,.882-.941.809.809,0,0,0-.882-.823,1,1,0,0,0-.882.981A.778.778,0,0,0,1439.741,1150.322Z" transform="translate(-1356.519 -1121.217)" fill="#4444fd"/>
          <path id="路径_13871" data-name="路径 13871" d="M1443.527,1167.906a.9.9,0,0,0,.882-.892.863.863,0,0,0-.882-.872.939.939,0,0,0-.882.933A.83.83,0,0,0,1443.527,1167.906Z" transform="translate(-1359.255 -1133.924)" fill="#4444fd"/>
          <path id="路径_13872" data-name="路径 13872" d="M1459.969,1187.725a.494.494,0,0,0,.625-.494.808.808,0,0,0-.625-.756.507.507,0,0,0-.625.514A.786.786,0,0,0,1459.969,1187.725Z" transform="translate(-1371.319 -1148.605)" fill="#4444fd"/>
          <path id="路径_13873" data-name="路径 13873" d="M1458.825,1205.694a.5.5,0,0,0,.625-.5.791.791,0,0,0-.625-.746.516.516,0,0,0-.625.524A.77.77,0,0,0,1458.825,1205.694Z" transform="translate(-1370.493 -1161.589)" fill="#4444fd"/>
          <path id="路径_13874" data-name="路径 13874" d="M1455.383,1223.054a.54.54,0,0,0,.636-.544.757.757,0,0,0-.636-.729.555.555,0,0,0-.636.564A.736.736,0,0,0,1455.383,1223.054Z" transform="translate(-1367.998 -1174.119)" fill="#4444fd"/>
          <path id="路径_13875" data-name="路径 13875" d="M1449.755,1239.891a.593.593,0,0,0,.636-.6.684.684,0,0,0-.636-.677.61.61,0,0,0-.636.617A.664.664,0,0,0,1449.755,1239.891Z" transform="translate(-1363.932 -1186.286)" fill="#4444fd"/>
          <path id="路径_13876" data-name="路径 13876" d="M1442,1256.443a.68.68,0,0,0,.636-.668.6.6,0,0,0-.636-.6.7.7,0,0,0-.636.689A.58.58,0,0,0,1442,1256.443Z" transform="translate(-1358.329 -1198.244)" fill="#4444fd"/>
          <path id="路径_13877" data-name="路径 13877" d="M1432.241,1273.125a.812.812,0,0,0,.636-.757.509.509,0,0,0-.636-.515.835.835,0,0,0-.636.778A.5.5,0,0,0,1432.241,1273.125Z" transform="translate(-1351.278 -1210.288)" fill="#4444fd"/>
          <path id="路径_13878" data-name="路径 13878" d="M1420.631,1290.423a1,1,0,0,0,.636-.859.435.435,0,0,0-.636-.413,1.021,1.021,0,0,0-.636.878C1420,1290.38,1420.279,1290.552,1420.631,1290.423Z" transform="translate(-1342.89 -1222.766)" fill="#4444fd"/>
          <path id="路径_13879" data-name="路径 13879" d="M1407.354,1308.736a1.228,1.228,0,0,0,.636-.963c0-.352-.286-.494-.636-.309a1.252,1.252,0,0,0-.636.979C1406.718,1308.794,1407,1308.921,1407.354,1308.736Z" transform="translate(-1333.298 -1235.967)" fill="#4444fd"/>
          <path id="路径_13880" data-name="路径 13880" d="M1392.619,1328.2a1.475,1.475,0,0,0,.636-1.057c0-.351-.286-.45-.636-.216a1.493,1.493,0,0,0-.636,1.069C1391.983,1328.343,1392.267,1328.431,1392.619,1328.2Z" transform="translate(-1322.652 -1249.992)" fill="#4444fd"/>
          <path id="路径_13881" data-name="路径 13881" d="M1376.658,1348.472a1.675,1.675,0,0,0,.636-1.125c0-.351-.285-.419-.636-.148a1.688,1.688,0,0,0-.636,1.131C1376.023,1348.682,1376.307,1348.744,1376.658,1348.472Z" transform="translate(-1311.121 -1264.614)" fill="#4444fd"/>
          <path id="路径_13882" data-name="路径 13882" d="M1359.724,1368.665a1.761,1.761,0,0,0,.636-1.153c0-.351-.285-.4-.636-.119a1.763,1.763,0,0,0-.636,1.153C1359.088,1368.9,1359.373,1368.95,1359.724,1368.665Z" transform="translate(-1298.886 -1279.19)" fill="#4444fd"/>
          <path id="路径_13883" data-name="路径 13883" d="M1342.112,1387.368a1.658,1.658,0,0,0,.625-1.112c0-.345-.28-.406-.625-.138a1.648,1.648,0,0,0-.625,1.105C1341.487,1387.569,1341.767,1387.635,1342.112,1387.368Z" transform="translate(-1286.17 -1292.732)" fill="#4444fd"/>
          <path id="路径_13884" data-name="路径 13884" d="M1324.042,1402.777a1.438,1.438,0,0,0,.625-1.04c0-.345-.279-.436-.625-.21a1.417,1.417,0,0,0-.625,1.027C1323.417,1402.9,1323.7,1403,1324.042,1402.777Z" transform="translate(-1273.115 -1303.895)" fill="#4444fd"/>
          <path id="路径_13885" data-name="路径 13885" d="M1305.829,1413.2a1.135,1.135,0,0,0,.625-.923c0-.345-.279-.487-.625-.327a1.112,1.112,0,0,0-.625.906C1305.2,1413.2,1305.485,1413.357,1305.829,1413.2Z" transform="translate(-1259.956 -1311.466)" fill="#4444fd"/>
          <path id="路径_13886" data-name="路径 13886" d="M1287.759,1417.329a.84.84,0,0,0,.625-.776.478.478,0,0,0-.625-.474.819.819,0,0,0-.625.756A.49.49,0,0,0,1287.759,1417.329Z" transform="translate(-1246.901 -1314.486)" fill="#4444fd"/>
          <path id="路径_13887" data-name="路径 13887" d="M1270.118,1414.592a.612.612,0,0,0,.625-.617.639.639,0,0,0-.625-.633.6.6,0,0,0-.625.6A.658.658,0,0,0,1270.118,1414.592Z" transform="translate(-1234.156 -1312.52)" fill="#4444fd"/>
          <path id="路径_13888" data-name="路径 13888" d="M1253.184,1405.259a.467.467,0,0,0,.625-.465.868.868,0,0,0-.625-.785.456.456,0,0,0-.625.445A.891.891,0,0,0,1253.184,1405.259Z" transform="translate(-1221.921 -1305.76)" fill="#4444fd"/>
          <path id="路径_13889" data-name="路径 13889" d="M1237.223,1390.343c.344.164.625.01.625-.335a1.134,1.134,0,0,0-.625-.915c-.346-.165-.625-.027-.625.318A1.156,1.156,0,0,0,1237.223,1390.343Z" transform="translate(-1210.39 -1294.951)" fill="#4444fd"/>
          <path id="路径_13890" data-name="路径 13890" d="M1222.518,1371.3c.338.214.613.108.614-.231a1.357,1.357,0,0,0-.614-1c-.34-.215-.614-.12-.614.219A1.376,1.376,0,0,0,1222.518,1371.3Z" transform="translate(-1199.774 -1281.178)" fill="#4444fd"/>
          <path id="路径_13891" data-name="路径 13891" d="M1209.241,1349.61c.338.249.613.173.614-.167a1.544,1.544,0,0,0-.614-1.061c-.34-.25-.614-.181-.614.158A1.557,1.557,0,0,0,1209.241,1349.61Z" transform="translate(-1190.181 -1265.48)" fill="#4444fd"/>
          <path id="路径_13892" data-name="路径 13892" d="M1197.631,1326.626c.339.268.614.208.614-.13a1.654,1.654,0,0,0-.614-1.1c-.339-.268-.614-.213-.614.126A1.662,1.662,0,0,0,1197.631,1326.626Z" transform="translate(-1181.793 -1248.861)" fill="#4444fd"/>
          <path id="路径_13893" data-name="路径 13893" d="M1187.872,1303.388c.339.275.614.223.614-.116a1.7,1.7,0,0,0-.614-1.112c-.339-.275-.614-.224-.614.115A1.7,1.7,0,0,0,1187.872,1303.388Z" transform="translate(-1174.743 -1232.067)" fill="#4444fd"/>
          <path id="路径_13894" data-name="路径 13894" d="M1180.117,1280.616c.339.274.614.223.614-.116a1.7,1.7,0,0,0-.614-1.111c-.339-.274-.614-.221-.614.118A1.693,1.693,0,0,0,1180.117,1280.616Z" transform="translate(-1169.14 -1215.615)" fill="#4444fd"/>
          <path id="路径_13895" data-name="路径 13895" d="M1174.489,1258.778c.339.271.613.217.614-.122a1.676,1.676,0,0,0-.614-1.106c-.339-.27-.614-.213-.614.126A1.667,1.667,0,0,0,1174.489,1258.778Z" transform="translate(-1165.074 -1199.841)" fill="#4444fd"/>
          <path id="路径_13896" data-name="路径 13896" d="M1171.1,1238.218c.333.262.6.207.6-.126a1.622,1.622,0,0,0-.6-1.079c-.333-.262-.6-.2-.6.13A1.615,1.615,0,0,0,1171.1,1238.218Z" transform="translate(-1162.637 -1185.008)" fill="#4444fd"/>
          <path id="路径_13897" data-name="路径 13897" d="M1169.961,1219.146c.333.261.6.2.6-.128a1.617,1.617,0,0,0-.6-1.077c-.332-.26-.6-.2-.6.134A1.608,1.608,0,0,0,1169.961,1219.146Z" transform="translate(-1161.81 -1171.23)" fill="#4444fd"/>
          <path id="路径_13898" data-name="路径 13898" d="M1171.1,1201.863c.333.262.6.207.6-.126a1.623,1.623,0,0,0-.6-1.079c-.333-.262-.6-.2-.6.13A1.615,1.615,0,0,0,1171.1,1201.863Z" transform="translate(-1162.637 -1158.742)" fill="#4444fd"/>
          <path id="路径_13899" data-name="路径 13899" d="M1174.518,1186.668c.333.266.6.213.6-.12a1.645,1.645,0,0,0-.6-1.085c-.333-.265-.6-.21-.6.123A1.636,1.636,0,0,0,1174.518,1186.668Z" transform="translate(-1165.103 -1147.761)" fill="#4444fd"/>
          <path id="路径_13900" data-name="路径 13900" d="M1180.146,1173.862c.333.27.6.219.6-.114a1.666,1.666,0,0,0-.6-1.092c-.333-.269-.6-.217-.6.116A1.661,1.661,0,0,0,1180.146,1173.862Z" transform="translate(-1169.169 -1138.506)" fill="#4444fd"/>
          <path id="路径_13901" data-name="路径 13901" d="M1187.9,1163.675c.333.27.6.219.6-.114a1.666,1.666,0,0,0-.6-1.091c-.333-.27-.6-.219-.6.113A1.668,1.668,0,0,0,1187.9,1163.675Z" transform="translate(-1174.772 -1131.145)" fill="#4444fd"/>
          <path id="路径_13902" data-name="路径 13902" d="M1197.66,1156.156c.333.263.6.205.6-.128a1.625,1.625,0,0,0-.6-1.077c-.333-.264-.6-.209-.6.124A1.632,1.632,0,0,0,1197.66,1156.156Z" transform="translate(-1181.822 -1125.717)" fill="#4444fd"/>
          <path id="路径_13903" data-name="路径 13903" d="M1209.27,1151.072c.332.244.6.17.6-.163a1.516,1.516,0,0,0-.6-1.042c-.334-.245-.6-.177-.6.155A1.529,1.529,0,0,0,1209.27,1151.072Z" transform="translate(-1190.21 -1122.058)" fill="#4444fd"/>
          <path id="路径_13904" data-name="路径 13904" d="M1222.547,1147.827c.332.21.6.106.6-.227a1.335,1.335,0,0,0-.6-.978c-.334-.211-.6-.118-.6.215A1.352,1.352,0,0,0,1222.547,1147.827Z" transform="translate(-1199.802 -1119.739)" fill="#4444fd"/>
          <path id="路径_13905" data-name="路径 13905" d="M1237.281,1145.474c.332.158.6.01.6-.323a1.093,1.093,0,0,0-.6-.883c-.334-.159-.6-.026-.6.307A1.113,1.113,0,0,0,1237.281,1145.474Z" transform="translate(-1210.448 -1118.072)" fill="#4444fd"/>
          <path id="路径_13906" data-name="路径 13906" d="M1253.242,1142.837a.45.45,0,0,0,.6-.448.837.837,0,0,0-.6-.757.44.44,0,0,0-.6.43A.858.858,0,0,0,1253.242,1142.837Z" transform="translate(-1221.979 -1116.199)" fill="#4444fd"/>
          <path id="路径_13907" data-name="路径 13907" d="M1270.177,1138.759a.59.59,0,0,0,.6-.594.617.617,0,0,0-.6-.611.574.574,0,0,0-.6.576A.633.633,0,0,0,1270.177,1138.759Z" transform="translate(-1234.214 -1113.268)" fill="#4444fd"/>
          <path id="路径_13908" data-name="路径 13908" d="M1287.818,1132.439a.81.81,0,0,0,.6-.748.461.461,0,0,0-.6-.457.79.79,0,0,0-.6.73A.473.473,0,0,0,1287.818,1132.439Z" transform="translate(-1246.959 -1108.691)" fill="#4444fd"/>
          <path id="路径_13909" data-name="路径 13909" d="M1305.888,1123.746a1.1,1.1,0,0,0,.6-.89c0-.333-.269-.47-.6-.316a1.072,1.072,0,0,0-.6.874C1305.285,1123.748,1305.556,1123.9,1305.888,1123.746Z" transform="translate(-1260.015 -1102.377)" fill="#4444fd"/>
          <path id="路径_13910" data-name="路径 13910" d="M1324.072,1113.307a1.412,1.412,0,0,0,.614-1.021c0-.339-.274-.429-.614-.207a1.393,1.393,0,0,0-.614,1.009C1323.458,1113.428,1323.733,1113.528,1324.072,1113.307Z" transform="translate(-1273.144 -1094.776)" fill="#4444fd"/>
          <path id="路径_13911" data-name="路径 13911" d="M1342.141,1102.466a1.627,1.627,0,0,0,.614-1.092c0-.339-.274-.4-.614-.136a1.618,1.618,0,0,0-.614,1.086C1341.527,1102.663,1341.8,1102.728,1342.141,1102.466Z" transform="translate(-1286.199 -1086.914)" fill="#4444fd"/>
          <path id="路径_13912" data-name="路径 13912" d="M1359.782,1092.849a1.7,1.7,0,0,0,.614-1.113c0-.339-.274-.391-.614-.115a1.7,1.7,0,0,0-.614,1.112C1359.169,1093.073,1359.443,1093.124,1359.782,1092.849Z" transform="translate(-1298.945 -1079.956)" fill="#4444fd"/>
          <path id="路径_13913" data-name="路径 13913" d="M1376.717,1086.063a1.618,1.618,0,0,0,.614-1.085c0-.339-.275-.4-.614-.142a1.627,1.627,0,0,0-.614,1.092C1376.1,1086.266,1376.377,1086.325,1376.717,1086.063Z" transform="translate(-1311.179 -1075.065)" fill="#4444fd"/>
          <path id="路径_13914" data-name="路径 13914" d="M1392.678,1083.332a1.422,1.422,0,0,0,.614-1.02c0-.339-.275-.435-.614-.208a1.439,1.439,0,0,0-.614,1.031C1392.064,1083.474,1392.338,1083.559,1392.678,1083.332Z" transform="translate(-1322.711 -1073.119)" fill="#4444fd"/>
          <path id="路径_13915" data-name="路径 13915" d="M1407.412,1085.279a1.184,1.184,0,0,0,.614-.93c0-.339-.276-.476-.614-.3a1.207,1.207,0,0,0-.614.945C1406.8,1085.335,1407.072,1085.458,1407.412,1085.279Z" transform="translate(-1333.356 -1074.558)" fill="#4444fd"/>
          <path id="路径_13916" data-name="路径 13916" d="M1420.66,1091.879a.98.98,0,0,0,.625-.844.427.427,0,0,0-.625-.406,1,1,0,0,0-.625.863C1420.035,1091.837,1420.314,1092.005,1420.66,1091.879Z" transform="translate(-1342.919 -1079.339)" fill="#4444fd"/>
          <path id="路径_13917" data-name="路径 13917" d="M1432.27,1102.648a.8.8,0,0,0,.625-.744.5.5,0,0,0-.625-.506.82.82,0,0,0-.625.764A.488.488,0,0,0,1432.27,1102.648Z" transform="translate(-1351.307 -1087.138)" fill="#4444fd"/>
          <path id="路径_13918" data-name="路径 13918" d="M1442.029,1116.72a.668.668,0,0,0,.625-.656.586.586,0,0,0-.625-.594.688.688,0,0,0-.625.677A.57.57,0,0,0,1442.029,1116.72Z" transform="translate(-1358.358 -1097.313)" fill="#4444fd"/>
          <path id="路径_13919" data-name="路径 13919" d="M1449.784,1133.129a.583.583,0,0,0,.625-.585.672.672,0,0,0-.625-.665.6.6,0,0,0-.625.605A.654.654,0,0,0,1449.784,1133.129Z" transform="translate(-1363.961 -1109.169)" fill="#4444fd"/>
          <path id="路径_13920" data-name="路径 13920" d="M1455.412,1150.936a.531.531,0,0,0,.625-.534.744.744,0,0,0-.625-.716.545.545,0,0,0-.625.554A.723.723,0,0,0,1455.412,1150.936Z" transform="translate(-1368.027 -1122.031)" fill="#4444fd"/>
          <path id="路径_13921" data-name="路径 13921" d="M1458.825,1169.339a.5.5,0,0,0,.625-.5.791.791,0,0,0-.625-.746.516.516,0,0,0-.625.524A.77.77,0,0,0,1458.825,1169.339Z" transform="translate(-1370.493 -1135.323)" fill="#4444fd"/>
          <path id="路径_13922" data-name="路径 13922" d="M1475.111,1192.349c.21.082.379-.018.379-.228a.626.626,0,0,0-.379-.531.252.252,0,0,0-.379.234A.617.617,0,0,0,1475.111,1192.349Z" transform="translate(-1382.437 -1152.29)" fill="#4444fd"/>
          <path id="路径_13923" data-name="路径 13923" d="M1474.071,1210.14c.21.079.379-.023.38-.233a.616.616,0,0,0-.38-.526.255.255,0,0,0-.379.24A.607.607,0,0,0,1474.071,1210.14Z" transform="translate(-1381.685 -1165.144)" fill="#4444fd"/>
          <path id="路径_13924" data-name="路径 13924" d="M1470.965,1226.99a.261.261,0,0,0,.379-.248.585.585,0,0,0-.379-.511.265.265,0,0,0-.379.255A.576.576,0,0,0,1470.965,1226.99Z" transform="translate(-1379.441 -1177.322)" fill="#4444fd"/>
          <path id="路径_13925" data-name="路径 13925" d="M1465.833,1242.934a.28.28,0,0,0,.38-.275.535.535,0,0,0-.38-.484.283.283,0,0,0-.379.281A.527.527,0,0,0,1465.833,1242.934Z" transform="translate(-1375.734 -1188.846)" fill="#4444fd"/>
          <path id="路径_13926" data-name="路径 13926" d="M1458.742,1258.187a.311.311,0,0,0,.38-.312.472.472,0,0,0-.38-.447.315.315,0,0,0-.379.319A.464.464,0,0,0,1458.742,1258.187Z" transform="translate(-1370.61 -1199.872)" fill="#4444fd"/>
          <path id="路径_13927" data-name="路径 13927" d="M1449.785,1273.138a.36.36,0,0,0,.38-.361.4.4,0,0,0-.38-.4.366.366,0,0,0-.379.369A.394.394,0,0,0,1449.785,1273.138Z" transform="translate(-1364.139 -1210.678)" fill="#4444fd"/>
          <path id="路径_13928" data-name="路径 13928" d="M1439.079,1288.3a.435.435,0,0,0,.379-.42.333.333,0,0,0-.379-.338.443.443,0,0,0-.38.428A.328.328,0,0,0,1439.079,1288.3Z" transform="translate(-1356.404 -1221.631)" fill="#4444fd"/>
          <path id="路径_13929" data-name="路径 13929" d="M1426.762,1304.227a.544.544,0,0,0,.379-.487.277.277,0,0,0-.379-.272.552.552,0,0,0-.38.494A.273.273,0,0,0,1426.762,1304.227Z" transform="translate(-1347.505 -1233.128)" fill="#4444fd"/>
          <path id="路径_13930" data-name="路径 13930" d="M1413,1321.364a.683.683,0,0,0,.38-.554c0-.21-.17-.3-.38-.2a.693.693,0,0,0-.379.561C1412.616,1321.376,1412.786,1321.463,1413,1321.364Z" transform="translate(-1337.559 -1245.492)" fill="#4444fd"/>
          <path id="路径_13931" data-name="路径 13931" d="M1397.959,1339.886a.837.837,0,0,0,.379-.616c0-.21-.17-.275-.379-.143a.843.843,0,0,0-.379.621C1397.58,1339.957,1397.749,1340.018,1397.959,1339.886Z" transform="translate(-1326.696 -1258.852)" fill="#4444fd"/>
          <path id="路径_13932" data-name="路径 13932" d="M1381.848,1359.514a.972.972,0,0,0,.38-.663c0-.209-.17-.253-.38-.1a.979.979,0,0,0-.379.666C1381.469,1359.63,1381.638,1359.671,1381.848,1359.514Z" transform="translate(-1315.056 -1273.015)" fill="#4444fd"/>
          <path id="路径_13933" data-name="路径 13933" d="M1364.874,1379.429a1.049,1.049,0,0,0,.38-.686c0-.209-.17-.242-.38-.073a1.046,1.046,0,0,0-.379.687C1364.495,1379.566,1364.665,1379.6,1364.874,1379.429Z" transform="translate(-1302.793 -1287.392)" fill="#4444fd"/>
          <path id="路径_13934" data-name="路径 13934" d="M1347.257,1398.289a1.028,1.028,0,0,0,.38-.681c0-.21-.17-.244-.38-.078a1.024,1.024,0,0,0-.379.679C1346.878,1398.418,1347.048,1398.455,1347.257,1398.289Z" transform="translate(-1290.065 -1301.021)" fill="#4444fd"/>
          <path id="路径_13935" data-name="路径 13935" d="M1329.227,1414.423a.911.911,0,0,0,.38-.644c0-.21-.17-.26-.38-.115a.9.9,0,0,0-.379.64C1328.848,1414.514,1329.018,1414.568,1329.227,1414.423Z" transform="translate(-1277.038 -1312.694)" fill="#4444fd"/>
          <path id="路径_13936" data-name="路径 13936" d="M1311.019,1426.129a.735.735,0,0,0,.38-.578c0-.209-.17-.289-.38-.18a.726.726,0,0,0-.379.573C1310.64,1426.152,1310.81,1426.237,1311.019,1426.129Z" transform="translate(-1263.884 -1321.175)" fill="#4444fd"/>
          <path id="路径_13937" data-name="路径 13937" d="M1292.87,1432.023a.55.55,0,0,0,.38-.492.274.274,0,0,0-.38-.267.541.541,0,0,0-.379.485A.278.278,0,0,0,1292.87,1432.023Z" transform="translate(-1250.771 -1325.457)" fill="#4444fd"/>
          <path id="路径_13938" data-name="路径 13938" d="M1275.047,1431.355a.387.387,0,0,0,.368-.384.352.352,0,0,0-.368-.353.381.381,0,0,0-.368.377A.357.357,0,0,0,1275.047,1431.355Z" transform="translate(-1237.902 -1325.002)" fill="#4444fd"/>
          <path id="路径_13939" data-name="路径 13939" d="M1257.723,1424.092a.29.29,0,0,0,.368-.292.48.48,0,0,0-.368-.445.286.286,0,0,0-.368.285A.487.487,0,0,0,1257.723,1424.092Z" transform="translate(-1225.386 -1319.748)" fill="#4444fd"/>
          <path id="路径_13940" data-name="路径 13940" d="M1241.154,1410.984c.2.089.368-.007.368-.21a.637.637,0,0,0-.368-.526c-.2-.089-.368,0-.369.2A.646.646,0,0,0,1241.154,1410.984Z" transform="translate(-1213.415 -1310.26)" fill="#4444fd"/>
          <path id="路径_13941" data-name="路径 13941" d="M1225.555,1393.264c.2.124.368.058.368-.146a.794.794,0,0,0-.368-.591c-.2-.124-.368-.062-.368.141A.8.8,0,0,0,1225.555,1393.264Z" transform="translate(-1202.146 -1297.436)" fill="#4444fd"/>
          <path id="路径_13942" data-name="路径 13942" d="M1211.13,1372.369c.2.148.368.1.368-.1a.92.92,0,0,0-.368-.635c-.2-.148-.368-.1-.368.1A.923.923,0,0,0,1211.13,1372.369Z" transform="translate(-1191.724 -1282.322)" fill="#4444fd"/>
          <path id="路径_13943" data-name="路径 13943" d="M1198.067,1349.663c.2.161.368.126.368-.078a.994.994,0,0,0-.368-.659c-.2-.161-.368-.128-.368.076A1,1,0,0,0,1198.067,1349.663Z" transform="translate(-1182.286 -1265.908)" fill="#4444fd"/>
          <path id="路径_13944" data-name="路径 13944" d="M1186.536,1326.266c.2.165.368.134.369-.069a1.02,1.02,0,0,0-.369-.667c-.2-.165-.368-.135-.368.069A1.022,1.022,0,0,0,1186.536,1326.266Z" transform="translate(-1173.955 -1249.001)" fill="#4444fd"/>
          <path id="路径_13945" data-name="路径 13945" d="M1176.717,1303c.2.158.357.127.357-.07a.978.978,0,0,0-.357-.644c-.2-.158-.357-.126-.357.071A.976.976,0,0,0,1176.717,1303Z" transform="translate(-1166.869 -1232.214)" fill="#4444fd"/>
          <path id="路径_13946" data-name="路径 13946" d="M1168.68,1280.322c.2.153.357.118.357-.079a.948.948,0,0,0-.357-.635c-.2-.153-.357-.116-.357.082A.945.945,0,0,0,1168.68,1280.322Z" transform="translate(-1161.063 -1215.832)" fill="#4444fd"/>
          <path id="路径_13947" data-name="路径 13947" d="M1162.559,1258.531c.2.146.357.107.357-.09a.913.913,0,0,0-.357-.624c-.2-.147-.357-.1-.357.093A.911.911,0,0,0,1162.559,1258.531Z" transform="translate(-1156.64 -1200.093)" fill="#4444fd"/>
          <path id="路径_13948" data-name="路径 13948" d="M1158.433,1237.788c.2.142.357.1.357-.1a.883.883,0,0,0-.357-.615c-.2-.141-.357-.095-.357.1A.879.879,0,0,0,1158.433,1237.788Z" transform="translate(-1153.659 -1185.111)" fill="#4444fd"/>
          <path id="路径_13949" data-name="路径 13949" d="M1156.357,1218.225c.2.139.357.093.357-.1a.87.87,0,0,0-.357-.61c-.2-.138-.357-.089-.357.108A.863.863,0,0,0,1156.357,1218.225Z" transform="translate(-1152.159 -1170.979)" fill="#4444fd"/>
          <path id="路径_13950" data-name="路径 13950" d="M1156.357,1200.009c.2.139.357.093.357-.1a.869.869,0,0,0-.357-.61c-.2-.138-.357-.089-.357.108A.862.862,0,0,0,1156.357,1200.009Z" transform="translate(-1152.159 -1157.819)" fill="#4444fd"/>
          <path id="路径_13951" data-name="路径 13951" d="M1158.433,1183.379c.2.142.357.1.357-.1a.882.882,0,0,0-.357-.615c-.2-.141-.357-.095-.357.1A.88.88,0,0,0,1158.433,1183.379Z" transform="translate(-1153.659 -1145.802)" fill="#4444fd"/>
          <path id="路径_13952" data-name="路径 13952" d="M1162.588,1168.663c.191.142.346.1.346-.087a.884.884,0,0,0-.346-.6c-.191-.142-.346-.1-.346.09A.879.879,0,0,0,1162.588,1168.663Z" transform="translate(-1156.669 -1135.184)" fill="#4444fd"/>
          <path id="路径_13953" data-name="路径 13953" d="M1168.71,1156.143c.191.148.346.114.346-.077a.918.918,0,0,0-.346-.615c-.191-.148-.346-.112-.346.079A.914.914,0,0,0,1168.71,1156.143Z" transform="translate(-1161.092 -1126.133)" fill="#4444fd"/>
          <path id="路径_13954" data-name="路径 13954" d="M1176.747,1146.13c.191.153.346.123.346-.068a.947.947,0,0,0-.346-.624c-.191-.153-.346-.122-.346.069A.944.944,0,0,0,1176.747,1146.13Z" transform="translate(-1166.899 -1118.895)" fill="#4444fd"/>
          <path id="路径_13955" data-name="路径 13955" d="M1186.595,1138.772c.191.155.346.126.346-.065a.957.957,0,0,0-.346-.627c-.191-.155-.346-.126-.346.065A.958.958,0,0,0,1186.595,1138.772Z" transform="translate(-1174.014 -1113.578)" fill="#4444fd"/>
          <path id="路径_13956" data-name="路径 13956" d="M1198.125,1133.966c.191.151.346.118.346-.073a.935.935,0,0,0-.346-.62c-.191-.151-.346-.12-.346.071A.94.94,0,0,0,1198.125,1133.966Z" transform="translate(-1182.344 -1110.108)" fill="#4444fd"/>
          <path id="路径_13957" data-name="路径 13957" d="M1211.188,1131.279c.191.139.346.1.346-.1a.865.865,0,0,0-.346-.6c-.192-.139-.346-.1-.346.093A.868.868,0,0,0,1211.188,1131.279Z" transform="translate(-1191.782 -1108.176)" fill="#4444fd"/>
          <path id="路径_13958" data-name="路径 13958" d="M1225.613,1129.925c.191.116.346.054.346-.137a.746.746,0,0,0-.346-.555c-.191-.117-.346-.058-.346.133A.753.753,0,0,0,1225.613,1129.925Z" transform="translate(-1202.203 -1107.214)" fill="#4444fd"/>
          <path id="路径_13959" data-name="路径 13959" d="M1241.212,1128.827c.191.083.346-.006.346-.2a.6.6,0,0,0-.346-.5c-.192-.084-.346,0-.346.192A.605.605,0,0,0,1241.212,1128.827Z" transform="translate(-1213.473 -1106.441)" fill="#4444fd"/>
          <path id="路径_13960" data-name="路径 13960" d="M1257.781,1126.8a.272.272,0,0,0,.346-.274.451.451,0,0,0-.346-.418.269.269,0,0,0-.346.268A.458.458,0,0,0,1257.781,1126.8Z" transform="translate(-1225.444 -1104.992)" fill="#4444fd"/>
          <path id="路径_13961" data-name="路径 13961" d="M1275.105,1122.8a.364.364,0,0,0,.346-.361.33.33,0,0,0-.346-.331.358.358,0,0,0-.346.354A.336.336,0,0,0,1275.105,1122.8Z" transform="translate(-1237.96 -1102.111)" fill="#4444fd"/>
          <path id="路径_13962" data-name="路径 13962" d="M1292.929,1116.237a.517.517,0,0,0,.357-.463.258.258,0,0,0-.357-.251.509.509,0,0,0-.357.457A.261.261,0,0,0,1292.929,1116.237Z" transform="translate(-1250.83 -1097.341)" fill="#4444fd"/>
          <path id="路径_13963" data-name="路径 13963" d="M1311.077,1107.23a.691.691,0,0,0,.357-.544c0-.2-.16-.272-.357-.17a.684.684,0,0,0-.357.539C1310.72,1107.252,1310.88,1107.332,1311.077,1107.23Z" transform="translate(-1263.941 -1090.812)" fill="#4444fd"/>
          <path id="路径_13964" data-name="路径 13964" d="M1329.285,1096.57a.858.858,0,0,0,.357-.606c0-.2-.16-.245-.357-.109a.853.853,0,0,0-.357.6C1328.928,1096.655,1329.088,1096.706,1329.285,1096.57Z" transform="translate(-1277.096 -1083.087)" fill="#4444fd"/>
          <path id="路径_13965" data-name="路径 13965" d="M1347.315,1085.624a.965.965,0,0,0,.357-.641c0-.2-.16-.23-.357-.074a.964.964,0,0,0-.357.639C1346.958,1085.746,1347.118,1085.78,1347.315,1085.624Z" transform="translate(-1290.123 -1075.163)" fill="#4444fd"/>
          <path id="路径_13966" data-name="路径 13966" d="M1364.932,1076.025a.985.985,0,0,0,.357-.646c0-.2-.16-.228-.357-.068a.987.987,0,0,0-.357.646C1364.575,1076.154,1364.735,1076.184,1364.932,1076.025Z" transform="translate(-1302.851 -1068.226)" fill="#4444fd"/>
          <path id="路径_13967" data-name="路径 13967" d="M1381.907,1069.326a.917.917,0,0,0,.358-.624c0-.2-.16-.238-.358-.09a.919.919,0,0,0-.357.626C1381.55,1069.435,1381.71,1069.474,1381.907,1069.326Z" transform="translate(-1315.115 -1063.396)" fill="#4444fd"/>
          <path id="路径_13968" data-name="路径 13968" d="M1398.017,1066.694a.79.79,0,0,0,.357-.58c0-.2-.16-.258-.357-.135a.8.8,0,0,0-.357.584C1397.66,1066.762,1397.82,1066.819,1398.017,1066.694Z" transform="translate(-1326.754 -1061.512)" fill="#4444fd"/>
          <path id="路径_13969" data-name="路径 13969" d="M1413.024,1068.712a.663.663,0,0,0,.368-.538c0-.2-.165-.293-.368-.2a.671.671,0,0,0-.368.544C1412.656,1068.722,1412.821,1068.807,1413.024,1068.712Z" transform="translate(-1337.588 -1062.972)" fill="#4444fd"/>
          <path id="路径_13970" data-name="路径 13970" d="M1426.791,1075.429a.528.528,0,0,0,.368-.473.268.268,0,0,0-.368-.264.536.536,0,0,0-.368.479A.265.265,0,0,0,1426.791,1075.429Z" transform="translate(-1347.534 -1067.842)" fill="#4444fd"/>
          <path id="路径_13971" data-name="路径 13971" d="M1439.108,1086.342a.424.424,0,0,0,.369-.408.324.324,0,0,0-.369-.328.43.43,0,0,0-.369.415A.318.318,0,0,0,1439.108,1086.342Z" transform="translate(-1356.433 -1075.736)" fill="#4444fd"/>
          <path id="路径_13972" data-name="路径 13972" d="M1449.814,1100.653a.349.349,0,0,0,.368-.351.389.389,0,0,0-.368-.386.355.355,0,0,0-.368.358A.383.383,0,0,0,1449.814,1100.653Z" transform="translate(-1364.168 -1086.077)" fill="#4444fd"/>
          <path id="路径_13973" data-name="路径 13973" d="M1458.771,1117.424a.3.3,0,0,0,.369-.3.458.458,0,0,0-.369-.433.306.306,0,0,0-.368.31A.451.451,0,0,0,1458.771,1117.424Z" transform="translate(-1370.639 -1098.19)" fill="#4444fd"/>
          <path id="路径_13974" data-name="路径 13974" d="M1465.862,1135.729a.271.271,0,0,0,.368-.266.519.519,0,0,0-.368-.47.275.275,0,0,0-.368.273A.512.512,0,0,0,1465.862,1135.729Z" transform="translate(-1375.762 -1111.409)" fill="#4444fd"/>
          <path id="路径_13975" data-name="路径 13975" d="M1470.994,1154.741a.254.254,0,0,0,.368-.241.567.567,0,0,0-.368-.5.257.257,0,0,0-.368.247A.559.559,0,0,0,1470.994,1154.741Z" transform="translate(-1379.47 -1125.14)" fill="#4444fd"/>
          <path id="路径_13976" data-name="路径 13976" d="M1474.071,1173.768c.21.079.379-.023.38-.233a.617.617,0,0,0-.38-.526.255.255,0,0,0-.379.24A.607.607,0,0,0,1474.071,1173.768Z" transform="translate(-1381.685 -1138.866)" fill="#4444fd"/>
          <path id="路径_13977" data-name="路径 13977" d="M1490.283,1199.741c.068.038.123.014.123-.053a.25.25,0,0,0-.123-.192c-.068-.038-.123-.014-.123.054A.249.249,0,0,0,1490.283,1199.741Z" transform="translate(-1393.583 -1158.008)" fill="#4444fd"/>
          <path id="路径_13978" data-name="路径 13978" d="M1489.329,1217.4c.068.037.123.013.123-.055a.247.247,0,0,0-.123-.191c-.068-.037-.123-.012-.123.055A.248.248,0,0,0,1489.329,1217.4Z" transform="translate(-1392.894 -1170.769)" fill="#4444fd"/>
          <path id="路径_13979" data-name="路径 13979" d="M1486.48,1233.873c.068.035.123.009.123-.058a.237.237,0,0,0-.123-.187c-.068-.035-.123-.009-.123.059A.237.237,0,0,0,1486.48,1233.873Z" transform="translate(-1390.836 -1182.669)" fill="#4444fd"/>
          <path id="路径_13980" data-name="路径 13980" d="M1481.765,1249.15c.068.032.123,0,.123-.065a.222.222,0,0,0-.123-.18c-.068-.032-.123,0-.123.066A.221.221,0,0,0,1481.765,1249.15Z" transform="translate(-1387.429 -1193.708)" fill="#4444fd"/>
          <path id="路径_13981" data-name="路径 13981" d="M1475.236,1263.388c.068.026.123-.008.123-.075a.2.2,0,0,0-.123-.17c-.068-.026-.123.008-.123.076A.2.2,0,0,0,1475.236,1263.388Z" transform="translate(-1382.712 -1203.998)" fill="#4444fd"/>
          <path id="路径_13982" data-name="路径 13982" d="M1466.966,1276.9a.09.09,0,0,0,.123-.089.173.173,0,0,0-.123-.157.091.091,0,0,0-.123.089A.173.173,0,0,0,1466.966,1276.9Z" transform="translate(-1376.737 -1213.765)" fill="#4444fd"/>
          <path id="路径_13983" data-name="路径 13983" d="M1457.044,1290.16a.1.1,0,0,0,.123-.106.145.145,0,0,0-.123-.14.105.105,0,0,0-.123.107A.145.145,0,0,0,1457.044,1290.16Z" transform="translate(-1369.569 -1223.346)" fill="#4444fd"/>
          <path id="路径_13984" data-name="路径 13984" d="M1445.58,1303.742a.127.127,0,0,0,.123-.126.118.118,0,0,0-.123-.119.129.129,0,0,0-.123.128A.117.117,0,0,0,1445.58,1303.742Z" transform="translate(-1361.286 -1233.16)" fill="#4444fd"/>
          <path id="路径_13985" data-name="路径 13985" d="M1432.7,1318.251a.161.161,0,0,0,.123-.149.1.1,0,0,0-.123-.1.162.162,0,0,0-.123.15A.1.1,0,0,0,1432.7,1318.251Z" transform="translate(-1351.98 -1243.64)" fill="#4444fd"/>
          <path id="路径_13986" data-name="路径 13986" d="M1418.541,1334.172a.205.205,0,0,0,.123-.173c0-.068-.055-.1-.123-.073a.206.206,0,0,0-.123.173C1418.418,1334.168,1418.473,1334.2,1418.541,1334.172Z" transform="translate(-1341.751 -1255.137)" fill="#4444fd"/>
          <path id="路径_13987" data-name="路径 13987" d="M1403.263,1351.712a.257.257,0,0,0,.123-.194c0-.068-.055-.091-.123-.051a.257.257,0,0,0-.123.195C1403.14,1351.729,1403.195,1351.751,1403.263,1351.712Z" transform="translate(-1330.713 -1267.802)" fill="#4444fd"/>
          <path id="路径_13988" data-name="路径 13988" d="M1387.032,1370.644a.3.3,0,0,0,.123-.211c0-.068-.055-.083-.123-.034a.3.3,0,0,0-.123.212C1386.909,1370.678,1386.964,1370.693,1387.032,1370.644Z" transform="translate(-1318.986 -1281.474)" fill="#4444fd"/>
          <path id="路径_13989" data-name="路径 13989" d="M1370.024,1390.215a.335.335,0,0,0,.123-.221c0-.068-.055-.079-.123-.025a.338.338,0,0,0-.123.221C1369.9,1390.259,1369.956,1390.269,1370.024,1390.215Z" transform="translate(-1306.699 -1295.609)" fill="#4444fd"/>
          <path id="路径_13990" data-name="路径 13990" d="M1352.428,1409.167a.336.336,0,0,0,.123-.221c0-.068-.055-.078-.123-.024a.337.337,0,0,0-.123.222C1352.305,1409.211,1352.36,1409.222,1352.428,1409.167Z" transform="translate(-1293.986 -1309.302)" fill="#4444fd"/>
          <path id="路径_13991" data-name="路径 13991" d="M1334.436,1425.9a.306.306,0,0,0,.123-.212c0-.068-.055-.083-.123-.034a.305.305,0,0,0-.123.211C1334.313,1425.93,1334.368,1425.945,1334.436,1425.9Z" transform="translate(-1280.987 -1321.392)" fill="#4444fd"/>
          <path id="路径_13992" data-name="路径 13992" d="M1316.243,1438.718a.251.251,0,0,0,.123-.193c0-.068-.055-.091-.123-.053a.253.253,0,0,0-.123.192C1316.12,1438.732,1316.175,1438.756,1316.243,1438.718Z" transform="translate(-1267.843 -1330.663)" fill="#4444fd"/>
          <path id="路径_13993" data-name="路径 13993" d="M1298.051,1446.193a.19.19,0,0,0,.123-.166.084.084,0,0,0-.123-.08.191.191,0,0,0-.123.166A.085.085,0,0,0,1298.051,1446.193Z" transform="translate(-1254.699 -1336.072)" fill="#4444fd"/>
          <path id="路径_13994" data-name="路径 13994" d="M1280.059,1447.405a.139.139,0,0,0,.123-.135.109.109,0,0,0-.123-.11.138.138,0,0,0-.123.134A.11.11,0,0,0,1280.059,1447.405Z" transform="translate(-1241.701 -1336.953)" fill="#4444fd"/>
          <path id="路径_13995" data-name="路径 13995" d="M1262.462,1442.133a.1.1,0,0,0,.123-.1.149.149,0,0,0-.123-.142.1.1,0,0,0-.123.1A.15.15,0,0,0,1262.462,1442.133Z" transform="translate(-1228.987 -1333.143)" fill="#4444fd"/>
          <path id="路径_13996" data-name="路径 13996" d="M1245.455,1430.858c.068.027.123-.007.123-.075a.2.2,0,0,0-.123-.171c-.068-.027-.123.007-.123.074A.2.2,0,0,0,1245.455,1430.858Z" transform="translate(-1216.7 -1324.991)" fill="#4444fd"/>
          <path id="路径_13997" data-name="路径 13997" d="M1229.224,1414.609c.068.039.123.016.123-.052a.256.256,0,0,0-.123-.194c-.068-.039-.123-.017-.123.051A.257.257,0,0,0,1229.224,1414.609Z" transform="translate(-1204.973 -1313.245)" fill="#4444fd"/>
          <path id="路径_13998" data-name="路径 13998" d="M1213.974,1394.742c.062.044.112.029.112-.032a.274.274,0,0,0-.112-.191c-.062-.044-.111-.03-.111.032A.275.275,0,0,0,1213.974,1394.742Z" transform="translate(-1193.964 -1298.903)" fill="#4444fd"/>
          <path id="路径_13999" data-name="路径 13999" d="M1199.818,1372.577c.062.049.112.038.112-.024a.3.3,0,0,0-.112-.2c-.062-.049-.112-.038-.112.023A.3.3,0,0,0,1199.818,1372.577Z" transform="translate(-1183.736 -1282.885)" fill="#4444fd"/>
          <path id="路径_14000" data-name="路径 14000" d="M1186.936,1349.334c.062.05.111.041.112-.021a.312.312,0,0,0-.112-.2c-.062-.05-.112-.041-.112.021A.309.309,0,0,0,1186.936,1349.334Z" transform="translate(-1174.429 -1266.091)" fill="#4444fd"/>
          <path id="路径_14001" data-name="路径 14001" d="M1175.472,1325.918c.062.049.112.039.112-.022a.3.3,0,0,0-.112-.2c-.062-.049-.112-.039-.112.023A.3.3,0,0,0,1175.472,1325.918Z" transform="translate(-1166.147 -1249.175)" fill="#4444fd"/>
          <path id="路径_14002" data-name="路径 14002" d="M1165.55,1302.916c.062.047.112.034.112-.027a.287.287,0,0,0-.112-.2c-.062-.047-.112-.035-.112.027A.29.29,0,0,0,1165.55,1302.916Z" transform="translate(-1158.978 -1232.558)" fill="#4444fd"/>
          <path id="路径_14003" data-name="路径 14003" d="M1157.28,1280.638c.062.043.112.029.112-.033a.271.271,0,0,0-.112-.19c-.062-.044-.112-.029-.112.033A.271.271,0,0,0,1157.28,1280.638Z" transform="translate(-1153.003 -1216.465)" fill="#4444fd"/>
          <path id="路径_14004" data-name="路径 14004" d="M1150.78,1259.229c.055.036.1.021.1-.035a.23.23,0,0,0-.1-.166c-.056-.036-.1-.02-.1.035A.229.229,0,0,0,1150.78,1259.229Z" transform="translate(-1148.315 -1201.017)" fill="#4444fd"/>
          <path id="路径_14005" data-name="路径 14005" d="M1146.065,1238.664c.056.034.1.016.1-.039a.217.217,0,0,0-.1-.162c-.055-.034-.1-.016-.1.04A.216.216,0,0,0,1146.065,1238.664Z" transform="translate(-1144.909 -1186.161)" fill="#4444fd"/>
          <path id="路径_14006" data-name="路径 14006" d="M1143.215,1218.98c.056.032.1.014.1-.042a.209.209,0,0,0-.1-.159c-.056-.032-.1-.013-.1.042A.208.208,0,0,0,1143.215,1218.98Z" transform="translate(-1142.85 -1171.941)" fill="#4444fd"/>
          <path id="路径_14007" data-name="路径 14007" d="M1142.262,1200.24c.055.031.1.012.1-.043a.208.208,0,0,0-.1-.158c-.056-.032-.1-.012-.1.043A.208.208,0,0,0,1142.262,1200.24Z" transform="translate(-1142.161 -1158.403)" fill="#4444fd"/>
          <path id="路径_14008" data-name="路径 14008" d="M1143.215,1182.6c.056.032.1.014.1-.042a.21.21,0,0,0-.1-.159c-.056-.032-.1-.013-.1.042A.209.209,0,0,0,1143.215,1182.6Z" transform="translate(-1142.85 -1145.654)" fill="#4444fd"/>
          <path id="路径_14009" data-name="路径 14009" d="M1146.065,1166.294c.056.034.1.016.1-.039a.217.217,0,0,0-.1-.162c-.055-.034-.1-.016-.1.039A.217.217,0,0,0,1146.065,1166.294Z" transform="translate(-1144.909 -1133.876)" fill="#4444fd"/>
          <path id="路径_14010" data-name="路径 14010" d="M1150.78,1151.667c.055.036.1.021.1-.035a.231.231,0,0,0-.1-.166c-.056-.036-.1-.02-.1.035A.229.229,0,0,0,1150.78,1151.667Z" transform="translate(-1148.315 -1123.306)" fill="#4444fd"/>
          <path id="路径_14011" data-name="路径 14011" d="M1157.308,1139.086c.056.039.1.026.1-.029a.244.244,0,0,0-.1-.171c-.055-.039-.1-.026-.1.03A.244.244,0,0,0,1157.308,1139.086Z" transform="translate(-1153.032 -1114.215)" fill="#4444fd"/>
          <path id="路径_14012" data-name="路径 14012" d="M1165.578,1128.9c.056.042.1.031.1-.024a.259.259,0,0,0-.1-.177c-.055-.042-.1-.031-.1.025A.263.263,0,0,0,1165.578,1128.9Z" transform="translate(-1159.007 -1106.854)" fill="#4444fd"/>
          <path id="路径_14013" data-name="路径 14013" d="M1175.5,1121.348c.056.044.1.035.1-.02a.273.273,0,0,0-.1-.181c-.055-.044-.1-.035-.1.021A.273.273,0,0,0,1175.5,1121.348Z" transform="translate(-1166.176 -1101.396)" fill="#4444fd"/>
          <path id="路径_14014" data-name="路径 14014" d="M1186.965,1116.45c.055.045.1.037.1-.019a.279.279,0,0,0-.1-.182c-.056-.045-.1-.036-.1.019A.279.279,0,0,0,1186.965,1116.45Z" transform="translate(-1174.458 -1097.856)" fill="#4444fd"/>
          <path id="路径_14015" data-name="路径 14015" d="M1199.846,1113.93c.056.044.1.034.1-.021a.269.269,0,0,0-.1-.18c-.056-.044-.1-.034-.1.021A.27.27,0,0,0,1199.846,1113.93Z" transform="translate(-1183.765 -1096.036)" fill="#4444fd"/>
          <path id="路径_14016" data-name="路径 14016" d="M1214,1113.165c.056.04.1.026.1-.029a.246.246,0,0,0-.1-.172c-.056-.04-.1-.027-.1.028A.246.246,0,0,0,1214,1113.165Z" transform="translate(-1193.993 -1095.487)" fill="#4444fd"/>
          <path id="路径_14017" data-name="路径 14017" d="M1229.281,1113.209c.056.032.1.013.1-.042a.209.209,0,0,0-.1-.159c-.055-.032-.1-.014-.1.042A.21.21,0,0,0,1229.281,1113.209Z" transform="translate(-1205.031 -1095.524)" fill="#4444fd"/>
          <path id="路径_14018" data-name="路径 14018" d="M1245.514,1112.912c.055.022.1-.006.1-.061a.165.165,0,0,0-.1-.14c-.056-.022-.1.005-.1.061A.165.165,0,0,0,1245.514,1112.912Z" transform="translate(-1216.758 -1095.316)" fill="#4444fd"/>
          <path id="路径_14019" data-name="路径 14019" d="M1262.52,1111.127a.084.084,0,0,0,.1-.084.122.122,0,0,0-.1-.116.083.083,0,0,0-.1.084A.123.123,0,0,0,1262.52,1111.127Z" transform="translate(-1229.046 -1094.031)" fill="#4444fd"/>
          <path id="路径_14020" data-name="路径 14020" d="M1280.116,1106.969a.114.114,0,0,0,.1-.111.089.089,0,0,0-.1-.09.113.113,0,0,0-.1.11A.09.09,0,0,0,1280.116,1106.969Z" transform="translate(-1241.758 -1091.026)" fill="#4444fd"/>
          <path id="路径_14021" data-name="路径 14021" d="M1298.109,1100.06a.157.157,0,0,0,.1-.136.069.069,0,0,0-.1-.065.155.155,0,0,0-.1.135A.069.069,0,0,0,1298.109,1100.06Z" transform="translate(-1254.758 -1086.031)" fill="#4444fd"/>
          <path id="路径_14022" data-name="路径 14022" d="M1316.3,1090.684a.206.206,0,0,0,.1-.158c0-.055-.045-.075-.1-.043a.2.2,0,0,0-.1.157C1316.2,1090.7,1316.246,1090.715,1316.3,1090.684Z" transform="translate(-1267.901 -1079.251)" fill="#4444fd"/>
          <path id="路径_14023" data-name="路径 14023" d="M1334.493,1079.774a.25.25,0,0,0,.1-.173c0-.055-.045-.068-.1-.028a.249.249,0,0,0-.1.173C1334.393,1079.8,1334.438,1079.814,1334.493,1079.774Z" transform="translate(-1281.045 -1071.362)" fill="#4444fd"/>
          <path id="路径_14024" data-name="路径 14024" d="M1352.486,1068.747a.274.274,0,0,0,.1-.181c0-.055-.045-.064-.1-.02a.275.275,0,0,0-.1.181C1352.386,1068.783,1352.431,1068.792,1352.486,1068.747Z" transform="translate(-1294.044 -1063.392)" fill="#4444fd"/>
          <path id="路径_14025" data-name="路径 14025" d="M1370.083,1059.224a.274.274,0,0,0,.1-.181c0-.055-.045-.064-.1-.02a.274.274,0,0,0-.1.181C1369.982,1059.26,1370.027,1059.269,1370.083,1059.224Z" transform="translate(-1306.757 -1056.512)" fill="#4444fd"/>
          <path id="路径_14026" data-name="路径 14026" d="M1387.06,1052.682a.276.276,0,0,0,.112-.192c0-.062-.05-.076-.112-.031a.278.278,0,0,0-.112.193C1386.949,1052.714,1387,1052.727,1387.06,1052.682Z" transform="translate(-1319.015 -1051.771)" fill="#4444fd"/>
          <path id="路径_14027" data-name="路径 14027" d="M1403.292,1050.289a.234.234,0,0,0,.112-.177c0-.062-.05-.082-.112-.047a.236.236,0,0,0-.112.177C1403.18,1050.3,1403.23,1050.325,1403.292,1050.289Z" transform="translate(-1330.742 -1050.048)" fill="#4444fd"/>
          <path id="路径_14028" data-name="路径 14028" d="M1418.571,1052.59a.187.187,0,0,0,.111-.157c0-.062-.05-.092-.111-.066a.187.187,0,0,0-.112.158C1418.459,1052.586,1418.509,1052.615,1418.571,1052.59Z" transform="translate(-1341.781 -1051.717)" fill="#4444fd"/>
          <path id="路径_14029" data-name="路径 14029" d="M1432.728,1059.6a.147.147,0,0,0,.112-.136.087.087,0,0,0-.112-.088.148.148,0,0,0-.112.137A.087.087,0,0,0,1432.728,1059.6Z" transform="translate(-1352.009 -1056.783)" fill="#4444fd"/>
          <path id="路径_14030" data-name="路径 14030" d="M1445.609,1070.85a.116.116,0,0,0,.112-.115.108.108,0,0,0-.112-.108.117.117,0,0,0-.112.116A.108.108,0,0,0,1445.609,1070.85Z" transform="translate(-1361.315 -1064.916)" fill="#4444fd"/>
          <path id="路径_14031" data-name="路径 14031" d="M1457.074,1085.583a.1.1,0,0,0,.112-.1.132.132,0,0,0-.112-.127.1.1,0,0,0-.112.1A.131.131,0,0,0,1457.074,1085.583Z" transform="translate(-1369.598 -1075.559)" fill="#4444fd"/>
          <path id="路径_14032" data-name="路径 14032" d="M1466.966,1102.862a.09.09,0,0,0,.123-.089.174.174,0,0,0-.123-.157.091.091,0,0,0-.123.09A.173.173,0,0,0,1466.966,1102.862Z" transform="translate(-1376.737 -1088.024)" fill="#4444fd"/>
          <path id="路径_14033" data-name="路径 14033" d="M1475.236,1121.811c.068.026.123-.007.123-.075a.2.2,0,0,0-.123-.17.082.082,0,0,0-.123.076A.2.2,0,0,0,1475.236,1121.811Z" transform="translate(-1382.712 -1101.712)" fill="#4444fd"/>
          <path id="路径_14034" data-name="路径 14034" d="M1481.765,1141.587c.068.032.123,0,.123-.065a.222.222,0,0,0-.123-.18c-.068-.032-.123,0-.123.066A.22.22,0,0,0,1481.765,1141.587Z" transform="translate(-1387.429 -1115.997)" fill="#4444fd"/>
          <path id="路径_14035" data-name="路径 14035" d="M1486.48,1161.5c.068.035.123.009.123-.059a.238.238,0,0,0-.123-.187c-.068-.035-.123-.009-.123.059A.236.236,0,0,0,1486.48,1161.5Z" transform="translate(-1390.836 -1130.383)" fill="#4444fd"/>
          <path id="路径_14036" data-name="路径 14036" d="M1489.329,1181.02c.068.037.123.013.123-.055a.248.248,0,0,0-.123-.191c-.068-.037-.123-.012-.123.056A.247.247,0,0,0,1489.329,1181.02Z" transform="translate(-1392.894 -1144.482)" fill="#4444fd"/>
        </g>
      </g>
    </g>
  </g>
  <text id="_100_000" data-name="¥ 100,000" transform="translate(286 49)" fill="#fff" font-size="64" font-family="Helvetica"><tspan x="-284.719" y="0">¥ 100,000</tspan></text>
</svg>
