<svg xmlns="http://www.w3.org/2000/svg" xmlns:xlink="http://www.w3.org/1999/xlink" width="250" height="115.178" viewBox="0 0 250 115.178">
  <defs>
    <clipPath id="clip-path">
      <path id="路径_13665" data-name="路径 13665" d="M266.14,1106.333a41.568,41.568,0,0,0-58.717-.118l-5.686,5.63,20.232,20.255,5.646-5.59a12.9,12.9,0,1,1-.035,18.244h0L189.163,1106.2a41.249,41.249,0,0,0-29.346-12.2h-.076a41.521,41.521,0,1,0,29.3,70.951l5.753-5.688-20.211-20.275-5.729,5.663a12.9,12.9,0,1,1,.034-18.246l29.691,29.8,8.73,8.757a41.531,41.531,0,1,0,58.836-58.63Z" transform="translate(-118.233 -1094)" fill="none"/>
    </clipPath>
  </defs>
  <g id="组_4290" data-name="组 4290" transform="translate(-73.233 -1062)">
    <g id="组_4250" data-name="组 4250" transform="translate(118.233 1094)">
      <path id="路径_13294" data-name="路径 13294" d="M207.423,1106.215l-5.686,5.63,20.232,20.255,5.646-5.59a12.9,12.9,0,1,1-.035,18.244h0L189.163,1106.2a41.25,41.25,0,0,0-29.347-12.2h-.076a41.521,41.521,0,1,0,29.3,70.951l5.753-5.688-20.211-20.275-5.729,5.663a12.9,12.9,0,1,1,.034-18.246l29.691,29.8,8.73,8.757a41.531,41.531,0,1,0,.119-58.748Z" transform="translate(-118.233 -1094)" fill="#4444fd"/>
    </g>
    <g id="组_4253" data-name="组 4253" transform="translate(118.233 1094)">
      <g id="组_4252" data-name="组 4252" clip-path="url(#clip-path)">
        <g id="组_4251" data-name="组 4251" transform="translate(64.365 -12.198)">
          <path id="路径_13295" data-name="路径 13295" d="M508.713,1292.109a4.965,4.965,0,0,0,2.645-4.021c0-1.461-1.166-1.957-2.645-1.269a4.557,4.557,0,0,0-2.645,3.719A1.709,1.709,0,0,0,508.713,1292.109Z" transform="translate(-462.801 -1220.89)" fill="#20f4ad"/>
          <path id="路径_13296" data-name="路径 13296" d="M494.239,1287.5a3.931,3.931,0,0,0,2.634-3.533c0-1.455-1.165-2.142-2.634-1.735a3.535,3.535,0,0,0-2.634,3.19A2.038,2.038,0,0,0,494.239,1287.5Z" transform="translate(-452.351 -1217.714)" fill="#20f4ad"/>
          <path id="路径_13297" data-name="路径 13297" d="M488.7,1271.917a3.573,3.573,0,0,0,2.634-3.335,1.99,1.99,0,0,0-2.634-1.933,3.2,3.2,0,0,0-2.634,2.982A2.216,2.216,0,0,0,488.7,1271.917Z" transform="translate(-448.349 -1206.493)" fill="#20f4ad"/>
          <path id="路径_13298" data-name="路径 13298" d="M531.761,1292.557a5.844,5.844,0,0,0,2.4-4.128c0-1.325-1.063-1.593-2.4-.672a5.587,5.587,0,0,0-2.4,3.968C529.363,1293.051,530.447,1293.462,531.761,1292.557Z" transform="translate(-479.63 -1221.396)" fill="#20f4ad"/>
          <path id="路径_13299" data-name="路径 13299" d="M513.768,1305.951a4.774,4.774,0,0,0,2.4-3.751c0-1.325-1.059-1.739-2.4-1.048a4.446,4.446,0,0,0-2.4,3.518C511.369,1305.995,512.456,1306.628,513.768,1305.951Z" transform="translate(-466.63 -1231.227)" fill="#20f4ad"/>
          <path id="路径_13300" data-name="路径 13300" d="M496.59,1308.017a3.652,3.652,0,0,0,2.388-3.244c0-1.319-1.057-1.933-2.388-1.533a3.323,3.323,0,0,0-2.389,2.965A1.8,1.8,0,0,0,496.59,1308.017Z" transform="translate(-454.227 -1232.887)" fill="#20f4ad"/>
          <path id="路径_13301" data-name="路径 13301" d="M483.145,1298.965a2.889,2.889,0,0,0,2.388-2.8,1.992,1.992,0,0,0-2.388-1.975,2.6,2.6,0,0,0-2.389,2.5A2.211,2.211,0,0,0,483.145,1298.965Z" transform="translate(-444.513 -1226.422)" fill="#20f4ad"/>
          <path id="路径_13302" data-name="路径 13302" d="M475.815,1282.923a2.521,2.521,0,0,0,2.377-2.535,2.382,2.382,0,0,0-4.754.018A2.5,2.5,0,0,0,475.815,1282.923Z" transform="translate(-439.226 -1214.861)" fill="#20f4ad"/>
          <path id="路径_13303" data-name="路径 13303" d="M475.815,1264.831a2.522,2.522,0,0,0,2.377-2.535,2.382,2.382,0,0,0-4.754.018A2.5,2.5,0,0,0,475.815,1264.831Z" transform="translate(-439.226 -1201.789)" fill="#20f4ad"/>
          <path id="路径_13304" data-name="路径 13304" d="M483.174,1247.834a2.875,2.875,0,0,0,2.377-2.788,1.984,1.984,0,0,0-2.377-1.967,2.587,2.587,0,0,0-2.377,2.493A2.2,2.2,0,0,0,483.174,1247.834Z" transform="translate(-444.543 -1189.497)" fill="#20f4ad"/>
          <path id="路径_13305" data-name="路径 13305" d="M577,1216.694a5.707,5.707,0,0,0,2.143-3.8c0-1.184-.964-1.417-2.143-.488a5.807,5.807,0,0,0-2.143,3.856C574.855,1217.448,575.809,1217.629,577,1216.694Z" transform="translate(-512.497 -1166.937)" fill="#20f4ad"/>
          <path id="路径_13306" data-name="路径 13306" d="M574.129,1236.809a5.811,5.811,0,0,0,2.154-3.843c0-1.189-.968-1.41-2.154-.465a5.889,5.889,0,0,0-2.154,3.89C571.976,1237.581,572.936,1237.76,574.129,1236.809Z" transform="translate(-510.417 -1181.442)" fill="#20f4ad"/>
          <path id="路径_13307" data-name="路径 13307" d="M565.889,1259.553a5.942,5.942,0,0,0,2.154-3.891c0-1.19-.965-1.381-2.154-.417a5.962,5.962,0,0,0-2.154,3.9C563.736,1260.337,564.7,1260.518,565.889,1259.553Z" transform="translate(-504.464 -1197.854)" fill="#20f4ad"/>
          <path id="路径_13308" data-name="路径 13308" d="M553.054,1282.781a5.9,5.9,0,0,0,2.154-3.891c0-1.189-.961-1.369-2.154-.417a5.823,5.823,0,0,0-2.154,3.846C550.9,1283.509,551.868,1283.728,553.054,1282.781Z" transform="translate(-495.191 -1214.639)" fill="#20f4ad"/>
          <path id="路径_13309" data-name="路径 13309" d="M536.882,1303.632a5.431,5.431,0,0,0,2.154-3.76c0-1.19-.956-1.412-2.154-.548a5.249,5.249,0,0,0-2.154,3.648C534.729,1304.162,535.7,1304.484,536.882,1303.632Z" transform="translate(-483.507 -1229.767)" fill="#20f4ad"/>
          <path id="路径_13310" data-name="路径 13310" d="M518.984,1318.6a4.51,4.51,0,0,0,2.143-3.439c0-1.184-.948-1.522-2.143-.846a4.257,4.257,0,0,0-2.143,3.266C516.842,1318.768,517.812,1319.268,518.984,1318.6Z" transform="translate(-470.584 -1240.729)" fill="#20f4ad"/>
          <path id="路径_13311" data-name="路径 13311" d="M501.057,1324.592a3.475,3.475,0,0,0,2.143-3c0-1.184-.948-1.7-2.143-1.281a3.207,3.207,0,0,0-2.143,2.786A1.523,1.523,0,0,0,501.057,1324.592Z" transform="translate(-457.632 -1245.2)" fill="#20f4ad"/>
          <path id="路径_13312" data-name="路径 13312" d="M484.885,1320.58a2.629,2.629,0,0,0,2.143-2.534,1.765,1.765,0,0,0-2.143-1.752,2.392,2.392,0,0,0-2.143,2.295A1.937,1.937,0,0,0,484.885,1320.58Z" transform="translate(-445.948 -1242.391)" fill="#20f4ad"/>
          <path id="路径_13313" data-name="路径 13313" d="M472.08,1308.235a2.083,2.083,0,0,0,2.132-2.123,2.188,2.188,0,0,0-2.132-2.14,1.9,1.9,0,0,0-2.132,1.885A2.407,2.407,0,0,0,472.08,1308.235Z" transform="translate(-436.705 -1233.5)" fill="#20f4ad"/>
          <path id="路径_13314" data-name="路径 13314" d="M463.84,1290.986a1.816,1.816,0,0,0,2.132-1.867,2.545,2.545,0,0,0-2.132-2.4,1.661,1.661,0,0,0-2.132,1.634A2.789,2.789,0,0,0,463.84,1290.986Z" transform="translate(-430.751 -1221.012)" fill="#20f4ad"/>
          <path id="路径_13315" data-name="路径 13315" d="M461.029,1272.462a1.727,1.727,0,0,0,2.121-1.77,2.667,2.667,0,0,0-2.121-2.471,1.586,1.586,0,0,0-2.121,1.542A2.916,2.916,0,0,0,461.029,1272.462Z" transform="translate(-428.729 -1207.632)" fill="#20f4ad"/>
          <path id="路径_13316" data-name="路径 13316" d="M463.869,1255.15a1.805,1.805,0,0,0,2.121-1.857,2.532,2.532,0,0,0-2.121-2.384,1.653,1.653,0,0,0-2.121,1.626A2.773,2.773,0,0,0,463.869,1255.15Z" transform="translate(-430.78 -1195.138)" fill="#20f4ad"/>
          <path id="路径_13317" data-name="路径 13317" d="M472.109,1240.055a2.071,2.071,0,0,0,2.121-2.111,2.177,2.177,0,0,0-2.121-2.13,1.885,1.885,0,0,0-2.121,1.875A2.394,2.394,0,0,0,472.109,1240.055Z" transform="translate(-436.734 -1184.257)" fill="#20f4ad"/>
          <path id="路径_13318" data-name="路径 13318" d="M484.943,1226.749a2.6,2.6,0,0,0,2.121-2.506,1.748,1.748,0,0,0-2.121-1.735,2.368,2.368,0,0,0-2.121,2.272A1.916,1.916,0,0,0,484.943,1226.749Z" transform="translate(-446.006 -1174.633)" fill="#20f4ad"/>
          <path id="路径_13319" data-name="路径 13319" d="M501.116,1214.285a3.438,3.438,0,0,0,2.121-2.972c0-1.171-.939-1.685-2.121-1.269a3.174,3.174,0,0,0-2.121,2.759A1.506,1.506,0,0,0,501.116,1214.285Z" transform="translate(-457.691 -1165.539)" fill="#20f4ad"/>
          <path id="路径_13320" data-name="路径 13320" d="M519.043,1202.624a4.462,4.462,0,0,0,2.121-3.4c0-1.171-.938-1.507-2.121-.838a4.214,4.214,0,0,0-2.121,3.233C516.923,1202.787,517.882,1203.28,519.043,1202.624Z" transform="translate(-470.642 -1156.971)" fill="#20f4ad"/>
          <path id="路径_13321" data-name="路径 13321" d="M536.94,1193.335a5.374,5.374,0,0,0,2.132-3.721c0-1.177-.946-1.4-2.132-.543a5.2,5.2,0,0,0-2.132,3.611C534.809,1193.86,535.77,1194.178,536.94,1193.335Z" transform="translate(-483.565 -1150.116)" fill="#20f4ad"/>
          <path id="路径_13322" data-name="路径 13322" d="M553.113,1188.966a5.837,5.837,0,0,0,2.132-3.851c0-1.177-.951-1.355-2.132-.412a5.76,5.76,0,0,0-2.132,3.807C550.982,1189.687,551.939,1189.9,553.113,1188.966Z" transform="translate(-495.249 -1146.897)" fill="#20f4ad"/>
          <path id="路径_13323" data-name="路径 13323" d="M565.918,1191.38a5.91,5.91,0,0,0,2.143-3.871c0-1.184-.96-1.374-2.143-.415a5.929,5.929,0,0,0-2.143,3.882C563.776,1192.161,564.734,1192.341,565.918,1191.38Z" transform="translate(-504.493 -1148.619)" fill="#20f4ad"/>
          <path id="路径_13324" data-name="路径 13324" d="M574.158,1200.981a5.779,5.779,0,0,0,2.143-3.823c0-1.183-.963-1.4-2.143-.463a5.859,5.859,0,0,0-2.143,3.869C572.016,1201.748,572.971,1201.926,574.158,1200.981Z" transform="translate(-510.446 -1155.574)" fill="#20f4ad"/>
          <path id="路径_13325" data-name="路径 13325" d="M592.14,1206.569a4.567,4.567,0,0,0,1.9-3.2c0-1.048-.856-1.338-1.9-.6a4.714,4.714,0,0,0-1.9,3.288C590.244,1207.111,591.086,1207.318,592.14,1206.569Z" transform="translate(-523.615 -1160.092)" fill="#20f4ad"/>
          <path id="路径_13326" data-name="路径 13326" d="M589.861,1226.194a4.66,4.66,0,0,0,1.9-3.229c0-1.048-.855-1.321-1.9-.565a4.8,4.8,0,0,0-1.9,3.314C587.965,1226.761,588.807,1226.958,589.861,1226.194Z" transform="translate(-521.969 -1174.257)" fill="#20f4ad"/>
          <path id="路径_13327" data-name="路径 13327" d="M583.17,1247.967a4.9,4.9,0,0,0,1.9-3.313c0-1.048-.854-1.279-1.9-.482a5.01,5.01,0,0,0-1.9,3.377C581.274,1248.6,582.117,1248.772,583.17,1247.967Z" transform="translate(-517.135 -1189.955)" fill="#20f4ad"/>
          <path id="路径_13328" data-name="路径 13328" d="M572.485,1270.941a5.165,5.165,0,0,0,1.9-3.4c0-1.048-.851-1.231-1.9-.392a5.216,5.216,0,0,0-1.9,3.432C570.589,1271.627,571.435,1271.784,572.485,1270.941Z" transform="translate(-509.415 -1206.516)" fill="#20f4ad"/>
          <path id="路径_13329" data-name="路径 13329" d="M558.479,1293.831a5.241,5.241,0,0,0,1.9-3.437c0-1.048-.848-1.205-1.9-.358a5.209,5.209,0,0,0-1.9,3.418C556.583,1294.5,557.433,1294.677,558.479,1293.831Z" transform="translate(-499.296 -1223.041)" fill="#20f4ad"/>
          <path id="路径_13330" data-name="路径 13330" d="M542.032,1314.63a4.928,4.928,0,0,0,1.9-3.353c0-1.048-.844-1.231-1.9-.442a4.807,4.807,0,0,0-1.9,3.28C540.136,1315.162,540.99,1315.411,542.032,1314.63Z" transform="translate(-487.413 -1238.109)" fill="#20f4ad"/>
          <path id="路径_13331" data-name="路径 13331" d="M524.176,1330.667a4.2,4.2,0,0,0,1.9-3.119c0-1.048-.841-1.322-1.9-.676a4.017,4.017,0,0,0-1.9,2.994C522.28,1330.914,523.137,1331.3,524.176,1330.667Z" transform="translate(-474.513 -1249.798)" fill="#20f4ad"/>
          <path id="路径_13332" data-name="路径 13332" d="M506.035,1339.335a3.285,3.285,0,0,0,1.9-2.752c0-1.048-.841-1.473-1.9-1.043a3.072,3.072,0,0,0-1.9,2.588A1.274,1.274,0,0,0,506.035,1339.335Z" transform="translate(-461.406 -1256.19)" fill="#20f4ad"/>
          <path id="路径_13333" data-name="路径 13333" d="M488.776,1339.157a2.438,2.438,0,0,0,1.886-2.3,1.486,1.486,0,0,0-1.886-1.468,2.247,2.247,0,0,0-1.886,2.121A1.608,1.608,0,0,0,488.776,1339.157Z" transform="translate(-448.945 -1256.175)" fill="#20f4ad"/>
          <path id="路径_13334" data-name="路径 13334" d="M473.429,1330.448a1.856,1.856,0,0,0,1.886-1.886,1.922,1.922,0,0,0-1.886-1.886,1.705,1.705,0,0,0-1.886,1.7A2.092,2.092,0,0,0,473.429,1330.448Z" transform="translate(-437.857 -1249.904)" fill="#20f4ad"/>
          <path id="路径_13335" data-name="路径 13335" d="M461.015,1315.341a1.5,1.5,0,0,0,1.875-1.536,2.4,2.4,0,0,0-1.875-2.214,1.4,1.4,0,0,0-1.875,1.358A2.6,2.6,0,0,0,461.015,1315.341Z" transform="translate(-428.896 -1238.968)" fill="#20f4ad"/>
          <path id="路径_13336" data-name="路径 13336" d="M452.257,1296.7a1.331,1.331,0,0,0,1.875-1.307,2.806,2.806,0,0,0-1.875-2.443c-1.044-.363-1.874.1-1.875,1.14A3.012,3.012,0,0,0,452.257,1296.7Z" transform="translate(-422.569 -1225.454)" fill="#20f4ad"/>
          <path id="路径_13337" data-name="路径 13337" d="M447.737,1277.281a1.26,1.26,0,0,0,1.875-1.194,3.032,3.032,0,0,0-1.875-2.556c-1.044-.424-1.874,0-1.875,1.034A3.239,3.239,0,0,0,447.737,1277.281Z" transform="translate(-419.303 -1211.392)" fill="#20f4ad"/>
          <path id="路径_13338" data-name="路径 13338" d="M447.737,1259.1a1.26,1.26,0,0,0,1.875-1.194,3.032,3.032,0,0,0-1.875-2.556c-1.044-.424-1.874,0-1.875,1.034A3.239,3.239,0,0,0,447.737,1259.1Z" transform="translate(-419.303 -1198.259)" fill="#20f4ad"/>
          <path id="路径_13339" data-name="路径 13339" d="M452.287,1243.333a1.323,1.323,0,0,0,1.864-1.3,2.79,2.79,0,0,0-1.864-2.429c-1.038-.361-1.863.1-1.864,1.133A2.994,2.994,0,0,0,452.287,1243.333Z" transform="translate(-422.598 -1186.912)" fill="#20f4ad"/>
          <path id="路径_13340" data-name="路径 13340" d="M461.044,1230.112a1.5,1.5,0,0,0,1.864-1.526,2.386,2.386,0,0,0-1.864-2.2,1.388,1.388,0,0,0-1.864,1.351A2.579,2.579,0,0,0,461.044,1230.112Z" transform="translate(-428.925 -1177.408)" fill="#20f4ad"/>
          <path id="路径_13341" data-name="路径 13341" d="M473.487,1218.734a1.832,1.832,0,0,0,1.864-1.863,1.9,1.9,0,0,0-1.864-1.865,1.687,1.687,0,0,0-1.864,1.68A2.066,2.066,0,0,0,473.487,1218.734Z" transform="translate(-437.915 -1169.225)" fill="#20f4ad"/>
          <path id="路径_13342" data-name="路径 13342" d="M488.835,1207.964a2.407,2.407,0,0,0,1.864-2.276,1.469,1.469,0,0,0-1.864-1.452,2.221,2.221,0,0,0-1.864,2.1A1.589,1.589,0,0,0,488.835,1207.964Z" transform="translate(-449.003 -1161.423)" fill="#20f4ad"/>
          <path id="路径_13343" data-name="路径 13343" d="M506.093,1196.913a3.244,3.244,0,0,0,1.875-2.719c0-1.036-.831-1.457-1.875-1.031a3.037,3.037,0,0,0-1.875,2.559A1.258,1.258,0,0,0,506.093,1196.913Z" transform="translate(-461.464 -1153.327)" fill="#20f4ad"/>
          <path id="路径_13344" data-name="路径 13344" d="M524.235,1185.968a4.154,4.154,0,0,0,1.875-3.081c0-1.036-.831-1.307-1.875-.669a3.971,3.971,0,0,0-1.875,2.959C522.361,1186.213,523.207,1186.6,524.235,1185.968Z" transform="translate(-474.571 -1145.291)" fill="#20f4ad"/>
          <path id="路径_13345" data-name="路径 13345" d="M542.09,1176.746a4.868,4.868,0,0,0,1.875-3.313c0-1.035-.834-1.217-1.875-.437a4.751,4.751,0,0,0-1.875,3.242C540.216,1177.273,541.06,1177.518,542.09,1176.746Z" transform="translate(-487.471 -1138.527)" fill="#20f4ad"/>
          <path id="路径_13346" data-name="路径 13346" d="M558.538,1171.428a5.179,5.179,0,0,0,1.875-3.4c0-1.035-.838-1.191-1.875-.353a5.147,5.147,0,0,0-1.875,3.378C556.664,1172.092,557.5,1172.264,558.538,1171.428Z" transform="translate(-499.354 -1134.644)" fill="#20f4ad"/>
          <path id="路径_13347" data-name="路径 13347" d="M572.514,1171.686a5.136,5.136,0,0,0,1.886-3.383c0-1.042-.847-1.224-1.886-.389a5.185,5.185,0,0,0-1.886,3.412C570.629,1172.366,571.47,1172.523,572.514,1171.686Z" transform="translate(-509.444 -1134.824)" fill="#20f4ad"/>
          <path id="路径_13348" data-name="路径 13348" d="M583.2,1178.122a4.875,4.875,0,0,0,1.886-3.294c0-1.042-.849-1.271-1.886-.479a4.982,4.982,0,0,0-1.886,3.357C581.314,1178.748,582.153,1178.922,583.2,1178.122Z" transform="translate(-517.164 -1139.511)" fill="#20f4ad"/>
          <path id="路径_13349" data-name="路径 13349" d="M589.861,1190.126a4.661,4.661,0,0,0,1.9-3.229c0-1.048-.855-1.321-1.9-.565a4.8,4.8,0,0,0-1.9,3.314C587.965,1190.693,588.807,1190.89,589.861,1190.126Z" transform="translate(-521.969 -1148.199)" fill="#20f4ad"/>
          <path id="路径_13350" data-name="路径 13350" d="M607.312,1197.966a3.362,3.362,0,0,0,1.64-2.549c0-.906-.741-1.258-1.64-.732a3.508,3.508,0,0,0-1.641,2.648C605.672,1198.239,606.4,1198.5,607.312,1197.966Z" transform="translate(-534.762 -1154.368)" fill="#20f4ad"/>
          <path id="路径_13351" data-name="路径 13351" d="M605.41,1217.148a3.447,3.447,0,0,0,1.641-2.582c0-.906-.741-1.242-1.641-.7a3.59,3.59,0,0,0-1.641,2.677C603.77,1217.45,604.5,1217.7,605.41,1217.148Z" transform="translate(-533.388 -1168.215)" fill="#20f4ad"/>
          <path id="路径_13352" data-name="路径 13352" d="M599.788,1237.875a3.686,3.686,0,0,0,1.641-2.673c0-.906-.74-1.2-1.641-.609a3.818,3.818,0,0,0-1.641,2.756C598.148,1238.256,598.875,1238.472,599.788,1237.875Z" transform="translate(-529.326 -1183.157)" fill="#20f4ad"/>
          <path id="路径_13353" data-name="路径 13353" d="M590.692,1259.751a4.034,4.034,0,0,0,1.641-2.8c0-.906-.739-1.138-1.641-.485a4.139,4.139,0,0,0-1.641,2.86C589.052,1260.236,589.781,1260.411,590.692,1259.751Z" transform="translate(-522.754 -1198.914)" fill="#20f4ad"/>
          <path id="路径_13354" data-name="路径 13354" d="M578.519,1282.341a4.376,4.376,0,0,0,1.641-2.913c0-.906-.737-1.08-1.641-.369a4.436,4.436,0,0,0-1.64,2.948C576.88,1282.914,577.611,1283.056,578.519,1282.341Z" transform="translate(-513.96 -1215.187)" fill="#20f4ad"/>
          <path id="路径_13355" data-name="路径 13355" d="M563.8,1304.791a4.544,4.544,0,0,0,1.641-2.972c0-.906-.734-1.045-1.641-.309a4.538,4.538,0,0,0-1.641,2.97C562.162,1305.386,562.9,1305.526,563.8,1304.791Z" transform="translate(-503.327 -1231.382)" fill="#20f4ad"/>
          <path id="路径_13356" data-name="路径 13356" d="M547.182,1325.544a4.364,4.364,0,0,0,1.641-2.928c0-.906-.731-1.055-1.641-.354a4.29,4.29,0,0,0-1.64,2.884C545.543,1326.052,546.28,1326.24,547.182,1325.544Z" transform="translate(-491.32 -1246.399)" fill="#20f4ad"/>
          <path id="路径_13357" data-name="路径 13357" d="M529.388,1342.405a3.809,3.809,0,0,0,1.641-2.753c0-.906-.728-1.124-1.641-.528a3.678,3.678,0,0,0-1.641,2.669C527.748,1342.7,528.487,1342.993,529.388,1342.405Z" transform="translate(-478.463 -1258.658)" fill="#20f4ad"/>
          <path id="路径_13358" data-name="路径 13358" d="M511.2,1353.062a3.029,3.029,0,0,0,1.641-2.458c0-.906-.728-1.246-1.641-.823a2.871,2.871,0,0,0-1.641,2.342C509.556,1353.029,510.3,1353.479,511.2,1353.062Z" transform="translate(-465.32 -1266.469)" fill="#20f4ad"/>
          <path id="路径_13359" data-name="路径 13359" d="M493.4,1355.852a2.263,2.263,0,0,0,1.641-2.085,1.225,1.225,0,0,0-1.641-1.2,2.113,2.113,0,0,0-1.641,1.949A1.308,1.308,0,0,0,493.4,1355.852Z" transform="translate(-452.463 -1268.58)" fill="#20f4ad"/>
          <path id="路径_13360" data-name="路径 13360" d="M476.811,1350.434a1.671,1.671,0,0,0,1.63-1.683,1.591,1.591,0,0,0-1.63-1.576,1.553,1.553,0,0,0-1.63,1.543A1.713,1.713,0,0,0,476.811,1350.434Z" transform="translate(-440.485 -1264.716)" fill="#20f4ad"/>
          <path id="路径_13361" data-name="路径 13361" d="M462.093,1337.9a1.309,1.309,0,0,0,1.63-1.335,2.08,2.08,0,0,0-1.63-1.924,1.226,1.226,0,0,0-1.629,1.2A2.227,2.227,0,0,0,462.093,1337.9Z" transform="translate(-429.853 -1255.632)" fill="#20f4ad"/>
          <path id="路径_13362" data-name="路径 13362" d="M449.92,1320.441a1.11,1.11,0,0,0,1.63-1.061,2.579,2.579,0,0,0-1.63-2.2c-.906-.35-1.629.038-1.629.938A2.736,2.736,0,0,0,449.92,1320.441Z" transform="translate(-421.058 -1242.954)" fill="#20f4ad"/>
          <path id="路径_13363" data-name="路径 13363" d="M440.824,1300.449c.894.445,1.629.026,1.63-.874a2.985,2.985,0,0,0-1.63-2.385c-.907-.452-1.629-.137-1.629.763A3.138,3.138,0,0,0,440.824,1300.449Z" transform="translate(-414.486 -1228.455)" fill="#20f4ad"/>
          <path id="路径_13364" data-name="路径 13364" d="M435.232,1280.063c.888.5,1.618.131,1.618-.762a3.216,3.216,0,0,0-1.618-2.474c-.9-.5-1.618-.231-1.618.662A3.361,3.361,0,0,0,435.232,1280.063Z" transform="translate(-410.453 -1213.71)" fill="#20f4ad"/>
          <path id="路径_13365" data-name="路径 13365" d="M433.33,1260.844c.888.515,1.618.165,1.618-.729a3.3,3.3,0,0,0-1.618-2.508c-.9-.522-1.618-.262-1.618.632A3.442,3.442,0,0,0,433.33,1260.844Z" transform="translate(-409.08 -1199.812)" fill="#20f4ad"/>
          <path id="路径_13366" data-name="路径 13366" d="M435.232,1243.878c.888.5,1.618.132,1.618-.762a3.216,3.216,0,0,0-1.618-2.474c-.9-.5-1.618-.231-1.618.662A3.362,3.362,0,0,0,435.232,1243.878Z" transform="translate(-410.453 -1187.567)" fill="#20f4ad"/>
          <path id="路径_13367" data-name="路径 13367" d="M440.853,1229.683c.888.442,1.618.026,1.619-.868a2.966,2.966,0,0,0-1.619-2.369c-.9-.448-1.618-.135-1.618.758A3.116,3.116,0,0,0,440.853,1229.683Z" transform="translate(-414.515 -1177.345)" fill="#20f4ad"/>
          <path id="路径_13368" data-name="路径 13368" d="M449.949,1218.163a1.1,1.1,0,0,0,1.618-1.054,2.562,2.562,0,0,0-1.618-2.183c-.9-.348-1.617.038-1.618.932A2.717,2.717,0,0,0,449.949,1218.163Z" transform="translate(-421.087 -1169.078)" fill="#20f4ad"/>
          <path id="路径_13369" data-name="路径 13369" d="M462.122,1208.587a1.3,1.3,0,0,0,1.618-1.325,2.066,2.066,0,0,0-1.618-1.912,1.218,1.218,0,0,0-1.618,1.192A2.211,2.211,0,0,0,462.122,1208.587Z" transform="translate(-429.882 -1162.219)" fill="#20f4ad"/>
          <path id="路径_13370" data-name="路径 13370" d="M476.84,1199.73a1.659,1.659,0,0,0,1.618-1.671,1.58,1.58,0,0,0-1.618-1.565,1.543,1.543,0,0,0-1.618,1.533A1.7,1.7,0,0,0,476.84,1199.73Z" transform="translate(-440.515 -1155.851)" fill="#20f4ad"/>
          <path id="路径_13371" data-name="路径 13371" d="M493.459,1190.369a2.232,2.232,0,0,0,1.618-2.056,1.209,1.209,0,0,0-1.618-1.181,2.085,2.085,0,0,0-1.618,1.923A1.29,1.29,0,0,0,493.459,1190.369Z" transform="translate(-452.522 -1149.055)" fill="#20f4ad"/>
          <path id="路径_13372" data-name="路径 13372" d="M511.254,1180.019a2.986,2.986,0,0,0,1.618-2.424c0-.894-.718-1.23-1.618-.812a2.833,2.833,0,0,0-1.618,2.311C509.636,1179.987,510.366,1180.43,511.254,1180.019Z" transform="translate(-465.378 -1141.483)" fill="#20f4ad"/>
          <path id="路径_13373" data-name="路径 13373" d="M529.446,1169.367a3.755,3.755,0,0,0,1.618-2.715c0-.894-.719-1.109-1.618-.521a3.629,3.629,0,0,0-1.618,2.634C527.829,1169.658,528.558,1169.947,529.446,1169.367Z" transform="translate(-478.522 -1133.678)" fill="#20f4ad"/>
          <path id="路径_13374" data-name="路径 13374" d="M547.211,1160.048a4.334,4.334,0,0,0,1.63-2.908c0-.9-.726-1.048-1.63-.351a4.261,4.261,0,0,0-1.629,2.864C545.583,1160.553,546.314,1160.74,547.211,1160.048Z" transform="translate(-491.349 -1126.85)" fill="#20f4ad"/>
          <path id="路径_13375" data-name="路径 13375" d="M563.831,1154.095a4.512,4.512,0,0,0,1.63-2.952c0-.9-.729-1.038-1.63-.307a4.509,4.509,0,0,0-1.63,2.95C562.2,1154.686,562.931,1154.825,563.831,1154.095Z" transform="translate(-503.356 -1122.526)" fill="#20f4ad"/>
          <path id="路径_13376" data-name="路径 13376" d="M578.548,1153.031a4.346,4.346,0,0,0,1.63-2.893c0-.9-.732-1.072-1.63-.366a4.4,4.4,0,0,0-1.629,2.928C576.92,1153.6,577.646,1153.741,578.548,1153.031Z" transform="translate(-513.989 -1121.781)" fill="#20f4ad"/>
          <path id="路径_13377" data-name="路径 13377" d="M590.721,1157.477a4.007,4.007,0,0,0,1.63-2.777c0-.9-.734-1.13-1.63-.482a4.111,4.111,0,0,0-1.63,2.841C589.092,1157.959,589.816,1158.133,590.721,1157.477Z" transform="translate(-522.783 -1125.041)" fill="#20f4ad"/>
          <path id="路径_13378" data-name="路径 13378" d="M599.788,1167.087a3.686,3.686,0,0,0,1.641-2.672c0-.906-.74-1.2-1.641-.609a3.818,3.818,0,0,0-1.641,2.756C598.148,1167.468,598.875,1167.684,599.788,1167.087Z" transform="translate(-529.326 -1132.014)" fill="#20f4ad"/>
          <path id="路径_13379" data-name="路径 13379" d="M605.41,1180.963a3.447,3.447,0,0,0,1.641-2.582c0-.906-.741-1.242-1.641-.7a3.59,3.59,0,0,0-1.641,2.677C603.77,1181.265,604.5,1181.514,605.41,1180.963Z" transform="translate(-533.388 -1142.072)" fill="#20f4ad"/>
          <path id="路径_13380" data-name="路径 13380" d="M622.483,1191.41a2.3,2.3,0,0,0,1.384-1.92.913.913,0,0,0-1.384-.848,2.407,2.407,0,0,0-1.384,2.007C621.1,1191.413,621.714,1191.732,622.483,1191.41Z" transform="translate(-545.908 -1150.1)" fill="#20f4ad"/>
          <path id="路径_13381" data-name="路径 13381" d="M620.822,1210.19a2.374,2.374,0,0,0,1.4-1.964c0-.77-.629-1.162-1.4-.826a2.49,2.49,0,0,0-1.4,2.051C619.428,1210.221,620.047,1210.531,620.822,1210.19Z" transform="translate(-544.7 -1163.644)" fill="#20f4ad"/>
          <path id="路径_13382" data-name="路径 13382" d="M615.98,1229.919a2.561,2.561,0,0,0,1.4-2.047c0-.771-.629-1.123-1.4-.743a2.673,2.673,0,0,0-1.4,2.129C614.586,1230.028,615.2,1230.3,615.98,1229.919Z" transform="translate(-541.202 -1177.874)" fill="#20f4ad"/>
          <path id="路径_13383" data-name="路径 13383" d="M608.083,1250.447a2.864,2.864,0,0,0,1.4-2.172c0-.77-.629-1.064-1.4-.618a2.97,2.97,0,0,0-1.4,2.244C606.689,1250.671,607.308,1250.9,608.083,1250.447Z" transform="translate(-535.497 -1192.665)" fill="#20f4ad"/>
          <path id="路径_13384" data-name="路径 13384" d="M597.385,1271.767a3.248,3.248,0,0,0,1.4-2.316c0-.77-.628-1-1.4-.474a3.336,3.336,0,0,0-1.4,2.372C595.991,1272.119,596.61,1272.294,597.385,1271.767Z" transform="translate(-527.767 -1208.016)" fill="#20f4ad"/>
          <path id="路径_13385" data-name="路径 13385" d="M584.229,1293.719a3.625,3.625,0,0,0,1.4-2.445c0-.77-.627-.933-1.4-.345a3.682,3.682,0,0,0-1.4,2.479C582.835,1294.179,583.456,1294.311,584.229,1293.719Z" transform="translate(-518.263 -1223.824)" fill="#20f4ad"/>
          <path id="路径_13386" data-name="路径 13386" d="M569.039,1315.682a3.851,3.851,0,0,0,1.4-2.521c0-.771-.625-.893-1.4-.269a3.86,3.86,0,0,0-1.4,2.528C567.645,1316.191,568.268,1316.307,569.039,1315.682Z" transform="translate(-507.288 -1239.659)" fill="#20f4ad"/>
          <path id="路径_13387" data-name="路径 13387" d="M552.3,1336.365a3.78,3.78,0,0,0,1.4-2.508c0-.77-.622-.892-1.4-.282a3.74,3.74,0,0,0-1.4,2.484C550.909,1336.829,551.534,1336.972,552.3,1336.365Z" transform="translate(-495.197 -1254.61)" fill="#20f4ad"/>
          <path id="路径_13388" data-name="路径 13388" d="M534.588,1353.9a3.351,3.351,0,0,0,1.384-2.366c0-.764-.616-.933-1.384-.4a3.265,3.265,0,0,0-1.384,2.313C533.2,1354.206,533.827,1354.422,534.588,1353.9Z" transform="translate(-482.406 -1267.35)" fill="#20f4ad"/>
          <path id="路径_13389" data-name="路径 13389" d="M516.405,1366.115a2.715,2.715,0,0,0,1.384-2.137c0-.764-.615-1.028-1.384-.631a2.606,2.606,0,0,0-1.384,2.059C515.022,1366.171,515.645,1366.507,516.405,1366.115Z" transform="translate(-469.269 -1276.268)" fill="#20f4ad"/>
          <path id="路径_13390" data-name="路径 13390" d="M498.369,1371.326a2.048,2.048,0,0,0,1.384-1.831.98.98,0,0,0-1.384-.937,1.937,1.937,0,0,0-1.384,1.737A1.032,1.032,0,0,0,498.369,1371.326Z" transform="translate(-456.238 -1280.12)" fill="#20f4ad"/>
          <path id="路径_13391" data-name="路径 13391" d="M481.059,1368.758a1.505,1.505,0,0,0,1.384-1.493,1.276,1.276,0,0,0-1.384-1.275,1.414,1.414,0,0,0-1.384,1.393A1.358,1.358,0,0,0,481.059,1368.758Z" transform="translate(-443.732 -1278.308)" fill="#20f4ad"/>
          <path id="路径_13392" data-name="路径 13392" d="M465.031,1358.877a1.146,1.146,0,0,0,1.384-1.17,1.7,1.7,0,0,0-1.384-1.6,1.082,1.082,0,0,0-1.384,1.072A1.807,1.807,0,0,0,465.031,1358.877Z" transform="translate(-432.152 -1271.151)" fill="#20f4ad"/>
          <path id="路径_13393" data-name="路径 13393" d="M450.8,1343.217a.942.942,0,0,0,1.384-.9,2.191,2.191,0,0,0-1.384-1.87c-.769-.295-1.383.044-1.384.808A2.305,2.305,0,0,0,450.8,1343.217Z" transform="translate(-421.871 -1259.78)" fill="#20f4ad"/>
          <path id="路径_13394" data-name="路径 13394" d="M438.855,1323.824c.754.4,1.372.072,1.373-.686a2.626,2.626,0,0,0-1.373-2.06c-.763-.4-1.372-.148-1.373.611A2.734,2.734,0,0,0,438.855,1323.824Z" transform="translate(-413.249 -1245.725)" fill="#20f4ad"/>
          <path id="路径_13395" data-name="路径 13395" d="M429.52,1302.634c.754.47,1.372.209,1.373-.549a2.973,2.973,0,0,0-1.373-2.2c-.763-.475-1.372-.273-1.373.485A3.07,3.07,0,0,0,429.52,1302.634Z" transform="translate(-406.504 -1230.368)" fill="#20f4ad"/>
          <path id="路径_13396" data-name="路径 13396" d="M423.125,1281.312c.755.512,1.372.291,1.373-.468a3.193,3.193,0,0,0-1.373-2.278c-.762-.518-1.372-.345-1.373.414A3.278,3.278,0,0,0,423.125,1281.312Z" transform="translate(-401.884 -1214.933)" fill="#20f4ad"/>
          <path id="路径_13397" data-name="路径 13397" d="M419.875,1261.1c.755.531,1.372.327,1.373-.431a3.3,3.3,0,0,0-1.373-2.314c-.762-.536-1.372-.377-1.373.382A3.375,3.375,0,0,0,419.875,1261.1Z" transform="translate(-399.536 -1200.319)" fill="#20f4ad"/>
          <path id="路径_13398" data-name="路径 13398" d="M419.9,1242.927c.749.527,1.361.324,1.362-.428a3.27,3.27,0,0,0-1.362-2.3c-.756-.532-1.361-.373-1.362.379A3.349,3.349,0,0,0,419.9,1242.927Z" transform="translate(-399.565 -1187.206)" fill="#20f4ad"/>
          <path id="路径_13399" data-name="路径 13399" d="M423.154,1227.318c.748.508,1.361.288,1.362-.464a3.167,3.167,0,0,0-1.362-2.26c-.756-.513-1.361-.342-1.362.411A3.252,3.252,0,0,0,423.154,1227.318Z" transform="translate(-401.913 -1175.942)" fill="#20f4ad"/>
          <path id="路径_13400" data-name="路径 13400" d="M429.549,1214.559c.748.467,1.361.208,1.362-.544a2.949,2.949,0,0,0-1.362-2.179c-.757-.472-1.361-.271-1.362.482A3.044,3.044,0,0,0,429.549,1214.559Z" transform="translate(-406.533 -1166.753)" fill="#20f4ad"/>
          <path id="路径_13401" data-name="路径 13401" d="M438.885,1204.5c.748.394,1.361.072,1.362-.68a2.605,2.605,0,0,0-1.362-2.043c-.757-.4-1.361-.146-1.362.606A2.711,2.711,0,0,0,438.885,1204.5Z" transform="translate(-413.278 -1159.532)" fill="#20f4ad"/>
          <path id="路径_13402" data-name="路径 13402" d="M450.859,1196.5a.926.926,0,0,0,1.362-.883,2.157,2.157,0,0,0-1.362-1.841c-.757-.29-1.361.044-1.362.8A2.267,2.267,0,0,0,450.859,1196.5Z" transform="translate(-421.93 -1153.812)" fill="#20f4ad"/>
          <path id="路径_13403" data-name="路径 13403" d="M465.09,1189.457a1.127,1.127,0,0,0,1.362-1.151,1.676,1.676,0,0,0-1.362-1.573,1.065,1.065,0,0,0-1.362,1.056A1.777,1.777,0,0,0,465.09,1189.457Z" transform="translate(-432.211 -1148.782)" fill="#20f4ad"/>
          <path id="路径_13404" data-name="路径 13404" d="M481.117,1182.087a1.48,1.48,0,0,0,1.362-1.469,1.256,1.256,0,0,0-1.362-1.255,1.392,1.392,0,0,0-1.362,1.371A1.335,1.335,0,0,0,481.117,1182.087Z" transform="translate(-443.79 -1143.475)" fill="#20f4ad"/>
          <path id="路径_13405" data-name="路径 13405" d="M498.428,1173.409a2.013,2.013,0,0,0,1.362-1.8.964.964,0,0,0-1.362-.922,1.907,1.907,0,0,0-1.362,1.71A1.014,1.014,0,0,0,498.428,1173.409Z" transform="translate(-456.297 -1137.163)" fill="#20f4ad"/>
          <path id="路径_13406" data-name="路径 13406" d="M516.463,1163.318a2.67,2.67,0,0,0,1.362-2.1c0-.752-.6-1.012-1.362-.621a2.566,2.566,0,0,0-1.362,2.027C515.1,1163.373,515.715,1163.7,516.463,1163.318Z" transform="translate(-469.327 -1129.785)" fill="#20f4ad"/>
          <path id="路径_13407" data-name="路径 13407" d="M534.617,1152.713a3.321,3.321,0,0,0,1.373-2.346c0-.758-.611-.926-1.373-.4a3.238,3.238,0,0,0-1.373,2.294C533.245,1153.019,533.862,1153.234,534.617,1152.713Z" transform="translate(-482.435 -1122.017)" fill="#20f4ad"/>
          <path id="路径_13408" data-name="路径 13408" d="M552.361,1143.309a3.72,3.72,0,0,0,1.373-2.468c0-.758-.613-.878-1.373-.278a3.683,3.683,0,0,0-1.373,2.445C550.989,1143.767,551.6,1143.906,552.361,1143.309Z" transform="translate(-495.254 -1115.168)" fill="#20f4ad"/>
          <path id="路径_13409" data-name="路径 13409" d="M569.1,1136.933a3.787,3.787,0,0,0,1.373-2.481c0-.758-.615-.878-1.373-.265a3.8,3.8,0,0,0-1.373,2.488C567.726,1137.433,568.339,1137.548,569.1,1136.933Z" transform="translate(-507.347 -1110.554)" fill="#20f4ad"/>
          <path id="路径_13410" data-name="路径 13410" d="M584.288,1135.022a3.565,3.565,0,0,0,1.373-2.406c0-.758-.617-.918-1.373-.339a3.62,3.62,0,0,0-1.373,2.439C582.916,1135.474,583.527,1135.6,584.288,1135.022Z" transform="translate(-518.321 -1109.204)" fill="#20f4ad"/>
          <path id="路径_13411" data-name="路径 13411" d="M597.443,1138.222a3.2,3.2,0,0,0,1.373-2.279c0-.758-.618-.98-1.373-.467a3.283,3.283,0,0,0-1.373,2.333C596.071,1138.568,596.681,1138.741,597.443,1138.222Z" transform="translate(-527.825 -1111.568)" fill="#20f4ad"/>
          <path id="路径_13412" data-name="路径 13412" d="M608.112,1146.327a2.842,2.842,0,0,0,1.384-2.155c0-.764-.624-1.055-1.384-.613a2.946,2.946,0,0,0-1.384,2.225C606.729,1146.549,607.343,1146.775,608.112,1146.327Z" transform="translate(-535.525 -1117.458)" fill="#20f4ad"/>
          <path id="路径_13413" data-name="路径 13413" d="M616.009,1158.6a2.541,2.541,0,0,0,1.384-2.032c0-.764-.624-1.113-1.384-.736a2.652,2.652,0,0,0-1.384,2.111C614.626,1158.7,615.24,1158.977,616.009,1158.6Z" transform="translate(-541.231 -1126.361)" fill="#20f4ad"/>
          <path id="路径_13414" data-name="路径 13414" d="M620.852,1173.955a2.356,2.356,0,0,0,1.384-1.949c0-.764-.624-1.152-1.384-.819a2.469,2.469,0,0,0-1.384,2.034C619.469,1173.985,620.082,1174.293,620.852,1173.955Z" transform="translate(-544.73 -1137.482)" fill="#20f4ad"/>
          <path id="路径_13415" data-name="路径 13415" d="M637.625,1187.319a1.473,1.473,0,0,0,1.138-1.362.9.9,0,0,0-1.138-.915,1.546,1.546,0,0,0-1.138,1.427A.862.862,0,0,0,637.625,1187.319Z" transform="translate(-557.026 -1147.559)" fill="#20f4ad"/>
          <path id="路径_13416" data-name="路径 13416" d="M636.2,1205.793a1.512,1.512,0,0,0,1.138-1.385.884.884,0,0,0-1.138-.892,1.584,1.584,0,0,0-1.138,1.45A.845.845,0,0,0,636.2,1205.793Z" transform="translate(-555.994 -1160.902)" fill="#20f4ad"/>
          <path id="路径_13417" data-name="路径 13417" d="M631.946,1224.62a1.631,1.631,0,0,0,1.139-1.452.833.833,0,0,0-1.139-.824,1.706,1.706,0,0,0-1.138,1.516A.8.8,0,0,0,631.946,1224.62Z" transform="translate(-552.923 -1174.493)" fill="#20f4ad"/>
          <path id="路径_13418" data-name="路径 13418" d="M624.979,1243.795a1.838,1.838,0,0,0,1.138-1.558.763.763,0,0,0-1.138-.718,1.916,1.916,0,0,0-1.138,1.619C623.842,1243.765,624.347,1244.044,624.979,1243.795Z" transform="translate(-547.889 -1188.322)" fill="#20f4ad"/>
          <path id="路径_13419" data-name="路径 13419" d="M615.466,1263.505a2.136,2.136,0,0,0,1.138-1.693c0-.629-.513-.9-1.138-.584a2.211,2.211,0,0,0-1.138,1.746C614.329,1263.6,614.834,1263.828,615.466,1263.505Z" transform="translate(-541.016 -1202.525)" fill="#20f4ad"/>
          <path id="路径_13420" data-name="路径 13420" d="M603.642,1283.96a2.5,2.5,0,0,0,1.138-1.837c0-.629-.512-.836-1.138-.44a2.565,2.565,0,0,0-1.138,1.88C602.5,1284.192,603.01,1284.36,603.642,1283.96Z" transform="translate(-532.474 -1217.254)" fill="#20f4ad"/>
          <path id="路径_13421" data-name="路径 13421" d="M589.8,1305.151a2.861,2.861,0,0,0,1.138-1.965c0-.629-.511-.775-1.138-.312a2.908,2.908,0,0,0-1.138,1.993C588.66,1305.5,589.167,1305.617,589.8,1305.151Z" transform="translate(-522.471 -1232.514)" fill="#20f4ad"/>
          <path id="路径_13422" data-name="路径 13422" d="M574.274,1326.591a3.111,3.111,0,0,0,1.138-2.047c0-.629-.51-.734-1.138-.23a3.127,3.127,0,0,0-1.138,2.058C573.136,1327,573.645,1327.1,574.274,1326.591Z" transform="translate(-511.256 -1247.969)" fill="#20f4ad"/>
          <path id="路径_13423" data-name="路径 13423" d="M557.453,1347.165a3.125,3.125,0,0,0,1.138-2.057c0-.629-.509-.725-1.138-.22a3.108,3.108,0,0,0-1.138,2.046C556.316,1347.563,556.825,1347.669,557.453,1347.165Z" transform="translate(-499.103 -1262.83)" fill="#20f4ad"/>
          <path id="路径_13424" data-name="路径 13424" d="M539.75,1365.175a2.856,2.856,0,0,0,1.138-1.977c0-.629-.507-.756-1.138-.3a2.806,2.806,0,0,0-1.139,1.946C538.612,1365.473,539.123,1365.628,539.75,1365.175Z" transform="translate(-486.312 -1275.879)" fill="#20f4ad"/>
          <path id="路径_13425" data-name="路径 13425" d="M521.6,1378.664a2.367,2.367,0,0,0,1.138-1.807c0-.629-.506-.827-1.138-.47a2.3,2.3,0,0,0-1.138,1.758C520.462,1378.774,520.974,1379.018,521.6,1378.664Z" transform="translate(-473.199 -1285.694)" fill="#20f4ad"/>
          <path id="路径_13426" data-name="路径 13426" d="M503.448,1385.894a1.807,1.807,0,0,0,1.139-1.567c0-.629-.507-.931-1.139-.71a1.731,1.731,0,0,0-1.138,1.5A.8.8,0,0,0,503.448,1385.894Z" transform="translate(-460.086 -1290.993)" fill="#20f4ad"/>
          <path id="路径_13427" data-name="路径 13427" d="M485.774,1385.858a1.311,1.311,0,0,0,1.127-1.275.976.976,0,0,0-1.127-.98,1.247,1.247,0,0,0-1.127,1.209A1.026,1.026,0,0,0,485.774,1385.858Z" transform="translate(-447.324 -1291.031)" fill="#20f4ad"/>
          <path id="路径_13428" data-name="路径 13428" d="M468.953,1378.521a.978.978,0,0,0,1.127-1,1.314,1.314,0,0,0-1.127-1.256.932.932,0,0,0-1.127.933A1.381,1.381,0,0,0,468.953,1378.521Z" transform="translate(-435.172 -1285.725)" fill="#20f4ad"/>
          <path id="路径_13429" data-name="路径 13429" d="M453.429,1364.924a.782.782,0,0,0,1.127-.754,1.734,1.734,0,0,0-1.127-1.5c-.626-.224-1.127.07-1.127.693A1.81,1.81,0,0,0,453.429,1364.924Z" transform="translate(-423.956 -1275.857)" fill="#20f4ad"/>
          <path id="路径_13430" data-name="路径 13430" d="M439.585,1346.728c.619.326,1.127.064,1.127-.559a2.161,2.161,0,0,0-1.127-1.7c-.626-.33-1.127-.115-1.127.508A2.234,2.234,0,0,0,439.585,1346.728Z" transform="translate(-413.954 -1262.654)" fill="#20f4ad"/>
          <path id="路径_13431" data-name="路径 13431" d="M427.79,1325.766c.614.4,1.116.2,1.116-.415a2.492,2.492,0,0,0-1.116-1.817c-.619-.4-1.116-.241-1.116.375A2.555,2.555,0,0,0,427.79,1325.766Z" transform="translate(-405.44 -1247.478)" fill="#20f4ad"/>
          <path id="路径_13432" data-name="路径 13432" d="M418.277,1303.605c.614.442,1.116.289,1.116-.328a2.741,2.741,0,0,0-1.116-1.9c-.619-.445-1.116-.319-1.116.3A2.791,2.791,0,0,0,418.277,1303.605Z" transform="translate(-398.567 -1231.434)" fill="#20f4ad"/>
          <path id="路径_13433" data-name="路径 13433" d="M411.31,1281.544c.615.468,1.116.339,1.116-.278a2.89,2.89,0,0,0-1.116-1.954c-.618-.471-1.115-.362-1.116.255A2.926,2.926,0,0,0,411.31,1281.544Z" transform="translate(-393.534 -1215.476)" fill="#20f4ad"/>
          <path id="路径_13434" data-name="路径 13434" d="M407.059,1260.527c.615.48,1.116.363,1.116-.254a2.962,2.962,0,0,0-1.116-1.979c-.618-.482-1.116-.381-1.116.236A2.993,2.993,0,0,0,407.059,1260.527Z" transform="translate(-390.462 -1200.283)" fill="#20f4ad"/>
          <path id="路径_13435" data-name="路径 13435" d="M405.631,1241.247c.615.484,1.115.37,1.116-.247a2.984,2.984,0,0,0-1.116-1.985c-.618-.486-1.116-.386-1.116.23A3.01,3.01,0,0,0,405.631,1241.247Z" transform="translate(-389.431 -1186.351)" fill="#20f4ad"/>
          <path id="路径_13436" data-name="路径 13436" d="M407.059,1224.226c.615.48,1.116.363,1.116-.254a2.962,2.962,0,0,0-1.116-1.979c-.618-.482-1.116-.381-1.116.236A2.993,2.993,0,0,0,407.059,1224.226Z" transform="translate(-390.462 -1174.056)" fill="#20f4ad"/>
          <path id="路径_13437" data-name="路径 13437" d="M411.31,1209.836c.615.468,1.116.339,1.116-.278a2.89,2.89,0,0,0-1.116-1.954c-.618-.471-1.115-.362-1.116.255A2.926,2.926,0,0,0,411.31,1209.836Z" transform="translate(-393.534 -1163.668)" fill="#20f4ad"/>
          <path id="路径_13438" data-name="路径 13438" d="M418.306,1198.28c.608.438,1.1.286,1.1-.324a2.714,2.714,0,0,0-1.1-1.886c-.612-.441-1.1-.316-1.105.294A2.762,2.762,0,0,0,418.306,1198.28Z" transform="translate(-398.596 -1155.356)" fill="#20f4ad"/>
          <path id="路径_13439" data-name="路径 13439" d="M427.819,1189.393c.607.392,1.1.2,1.1-.411a2.469,2.469,0,0,0-1.1-1.8c-.613-.4-1.1-.238-1.105.372A2.529,2.529,0,0,0,427.819,1189.393Z" transform="translate(-405.469 -1148.968)" fill="#20f4ad"/>
          <path id="路径_13440" data-name="路径 13440" d="M439.643,1182.687c.608.32,1.1.063,1.105-.547a2.119,2.119,0,0,0-1.105-1.663c-.614-.323-1.1-.112-1.105.5A2.19,2.19,0,0,0,439.643,1182.687Z" transform="translate(-414.012 -1144.171)" fill="#20f4ad"/>
          <path id="路径_13441" data-name="路径 13441" d="M453.488,1177.229a.766.766,0,0,0,1.105-.738,1.7,1.7,0,0,0-1.105-1.472c-.613-.219-1.1.07-1.1.68A1.773,1.773,0,0,0,453.488,1177.229Z" transform="translate(-424.014 -1140.285)" fill="#20f4ad"/>
          <path id="路径_13442" data-name="路径 13442" d="M469.012,1171.8a.958.958,0,0,0,1.105-.978,1.289,1.289,0,0,0-1.105-1.232.914.914,0,0,0-1.1.915A1.352,1.352,0,0,0,469.012,1171.8Z" transform="translate(-435.23 -1136.404)" fill="#20f4ad"/>
          <path id="路径_13443" data-name="路径 13443" d="M485.8,1165.181a1.3,1.3,0,0,0,1.116-1.262.967.967,0,0,0-1.116-.97,1.235,1.235,0,0,0-1.116,1.2A1.015,1.015,0,0,0,485.8,1165.181Z" transform="translate(-447.353 -1131.612)" fill="#20f4ad"/>
          <path id="路径_13444" data-name="路径 13444" d="M503.507,1156.739a1.771,1.771,0,0,0,1.116-1.535c0-.616-.5-.913-1.116-.7a1.7,1.7,0,0,0-1.116,1.476A.781.781,0,0,0,503.507,1156.739Z" transform="translate(-460.144 -1125.466)" fill="#20f4ad"/>
          <path id="路径_13445" data-name="路径 13445" d="M521.657,1146.657a2.319,2.319,0,0,0,1.116-1.771c0-.617-.5-.811-1.116-.461a2.252,2.252,0,0,0-1.116,1.724C520.542,1146.765,521.044,1147,521.657,1146.657Z" transform="translate(-473.257 -1118.108)" fill="#20f4ad"/>
          <path id="路径_13446" data-name="路径 13446" d="M539.808,1136.029a2.8,2.8,0,0,0,1.116-1.938c0-.617-.5-.742-1.116-.294a2.75,2.75,0,0,0-1.116,1.908C538.692,1136.322,539.194,1136.474,539.808,1136.029Z" transform="translate(-486.371 -1110.362)" fill="#20f4ad"/>
          <path id="路径_13447" data-name="路径 13447" d="M557.511,1126.522a3.064,3.064,0,0,0,1.116-2.016c0-.616-.5-.711-1.116-.216a3.048,3.048,0,0,0-1.116,2.007C556.4,1126.912,556.9,1127.016,557.511,1126.522Z" transform="translate(-499.161 -1103.457)" fill="#20f4ad"/>
          <path id="路径_13448" data-name="路径 13448" d="M574.332,1119.883a3.05,3.05,0,0,0,1.116-2.007c0-.616-.5-.719-1.116-.225a3.066,3.066,0,0,0-1.116,2.017C573.217,1120.284,573.715,1120.379,574.332,1119.883Z" transform="translate(-511.314 -1098.663)" fill="#20f4ad"/>
          <path id="路径_13449" data-name="路径 13449" d="M589.856,1117.466a2.807,2.807,0,0,0,1.116-1.927c0-.616-.5-.759-1.116-.306a2.852,2.852,0,0,0-1.116,1.954C588.741,1117.8,589.237,1117.922,589.856,1117.466Z" transform="translate(-522.529 -1096.951)" fill="#20f4ad"/>
          <path id="路径_13450" data-name="路径 13450" d="M603.671,1119.9a2.475,2.475,0,0,0,1.127-1.819c0-.623-.508-.827-1.127-.436a2.54,2.54,0,0,0-1.127,1.861C602.545,1120.126,603.045,1120.293,603.671,1119.9Z" transform="translate(-532.503 -1098.739)" fill="#20f4ad"/>
          <path id="路径_13451" data-name="路径 13451" d="M615.5,1127.129a2.115,2.115,0,0,0,1.127-1.676c0-.623-.508-.894-1.127-.578a2.189,2.189,0,0,0-1.127,1.729C614.369,1127.226,614.869,1127.449,615.5,1127.129Z" transform="translate(-541.045 -1104.013)" fill="#20f4ad"/>
          <path id="路径_13452" data-name="路径 13452" d="M625.008,1138.465a1.822,1.822,0,0,0,1.127-1.544.756.756,0,0,0-1.127-.711,1.9,1.9,0,0,0-1.127,1.6C623.882,1138.435,624.382,1138.712,625.008,1138.465Z" transform="translate(-547.918 -1112.241)" fill="#20f4ad"/>
          <path id="路径_13453" data-name="路径 13453" d="M631.976,1152.93a1.615,1.615,0,0,0,1.127-1.438.824.824,0,0,0-1.127-.817,1.689,1.689,0,0,0-1.127,1.5A.791.791,0,0,0,631.976,1152.93Z" transform="translate(-552.952 -1122.715)" fill="#20f4ad"/>
          <path id="路径_13454" data-name="路径 13454" d="M636.2,1169.492a1.512,1.512,0,0,0,1.138-1.385.884.884,0,0,0-1.138-.892,1.584,1.584,0,0,0-1.138,1.45A.845.845,0,0,0,636.2,1169.492Z" transform="translate(-555.994 -1134.676)" fill="#20f4ad"/>
          <path id="路径_13455" data-name="路径 13455" d="M652.8,1186.041a.882.882,0,1,0,0-1.763.918.918,0,0,0-.882.916A.848.848,0,0,0,652.8,1186.041Z" transform="translate(-568.172 -1147.026)" fill="#20f4ad"/>
          <path id="路径_13456" data-name="路径 13456" d="M651.527,1204.238a.9.9,0,0,0,.882-.892.864.864,0,0,0-.882-.872.939.939,0,0,0-.882.933A.83.83,0,0,0,651.527,1204.238Z" transform="translate(-567.255 -1160.173)" fill="#20f4ad"/>
          <path id="路径_13457" data-name="路径 13457" d="M647.741,1222.279a.966.966,0,0,0,.882-.941.809.809,0,0,0-.882-.823,1,1,0,0,0-.882.981A.778.778,0,0,0,647.741,1222.279Z" transform="translate(-564.519 -1173.205)" fill="#20f4ad"/>
          <path id="路径_13458" data-name="路径 13458" d="M641.512,1240.205a1.083,1.083,0,0,0,.882-1.02.731.731,0,0,0-.882-.743,1.124,1.124,0,0,0-.882,1.06A.7.7,0,0,0,641.512,1240.205Z" transform="translate(-560.019 -1186.149)" fill="#20f4ad"/>
          <path id="路径_13459" data-name="路径 13459" d="M632.963,1258.273a1.261,1.261,0,0,0,.882-1.126.645.645,0,0,0-.882-.637,1.306,1.306,0,0,0-.882,1.164A.624.624,0,0,0,632.963,1258.273Z" transform="translate(-553.842 -1199.186)" fill="#20f4ad"/>
          <path id="路径_13460" data-name="路径 13460" d="M622.259,1276.857a1.511,1.511,0,0,0,.882-1.251c0-.487-.4-.725-.882-.513a1.558,1.558,0,0,0-.882,1.285C621.377,1276.866,621.77,1277.071,622.259,1276.857Z" transform="translate(-546.109 -1212.583)" fill="#20f4ad"/>
          <path id="路径_13461" data-name="路径 13461" d="M609.609,1296.288a1.817,1.817,0,0,0,.882-1.38c0-.487-.4-.665-.882-.384a1.86,1.86,0,0,0-.882,1.408C608.727,1296.421,609.12,1296.572,609.609,1296.288Z" transform="translate(-536.97 -1226.581)" fill="#20f4ad"/>
          <path id="路径_13462" data-name="路径 13462" d="M595.259,1316.642a2.133,2.133,0,0,0,.882-1.495c0-.487-.4-.612-.882-.269a2.166,2.166,0,0,0-.882,1.515C594.377,1316.88,594.77,1316.987,595.259,1316.642Z" transform="translate(-526.602 -1241.242)" fill="#20f4ad"/>
          <path id="路径_13463" data-name="路径 13463" d="M579.488,1337.522a2.371,2.371,0,0,0,.882-1.574c0-.487-.4-.574-.882-.189a2.389,2.389,0,0,0-.882,1.583C578.607,1337.829,579,1337.907,579.488,1337.522Z" transform="translate(-515.208 -1256.294)" fill="#20f4ad"/>
          <path id="路径_13464" data-name="路径 13464" d="M562.6,1357.934a2.438,2.438,0,0,0,.882-1.6c0-.487-.394-.561-.882-.166a2.433,2.433,0,0,0-.882,1.594C561.722,1358.252,562.117,1358.328,562.6,1357.934Z" transform="translate(-503.009 -1271.032)" fill="#20f4ad"/>
          <path id="路径_13465" data-name="路径 13465" d="M544.934,1376.33a2.281,2.281,0,0,0,.882-1.552c0-.487-.393-.578-.882-.212a2.255,2.255,0,0,0-.882,1.536C544.052,1376.59,544.448,1376.7,544.934,1376.33Z" transform="translate(-490.243 -1284.344)" fill="#20f4ad"/>
          <path id="路径_13466" data-name="路径 13466" d="M526.823,1390.867a1.932,1.932,0,0,0,.882-1.435c0-.487-.393-.628-.882-.329a1.892,1.892,0,0,0-.882,1.408C525.942,1391,526.338,1391.163,526.823,1390.867Z" transform="translate(-477.158 -1294.895)" fill="#20f4ad"/>
          <path id="路径_13467" data-name="路径 13467" d="M508.624,1399.811a1.5,1.5,0,0,0,.882-1.259c0-.487-.393-.7-.882-.5a1.453,1.453,0,0,0-.882,1.223A.583.583,0,0,0,508.624,1399.811Z" transform="translate(-464.01 -1301.417)" fill="#20f4ad"/>
          <path id="路径_13468" data-name="路径 13468" d="M490.69,1401.973a1.1,1.1,0,0,0,.882-1.046.717.717,0,0,0-.882-.718,1.06,1.06,0,0,0-.882,1.006A.744.744,0,0,0,490.69,1401.973Z" transform="translate(-451.053 -1303.024)" fill="#20f4ad"/>
          <path id="路径_13469" data-name="路径 13469" d="M473.371,1397.021a.81.81,0,0,0,.882-.824.965.965,0,0,0-.882-.94.779.779,0,0,0-.882.783A1,1,0,0,0,473.371,1397.021Z" transform="translate(-438.54 -1299.452)" fill="#20f4ad"/>
          <path id="路径_13470" data-name="路径 13470" d="M457,1385.561a.632.632,0,0,0,.882-.619A1.3,1.3,0,0,0,457,1383.8a.612.612,0,0,0-.882.581A1.341,1.341,0,0,0,457,1385.561Z" transform="translate(-426.715 -1291.142)" fill="#20f4ad"/>
          <path id="路径_13471" data-name="路径 13471" d="M441.935,1368.941c.479.243.87.037.871-.443a1.635,1.635,0,0,0-.871-1.3c-.483-.245-.87-.068-.871.412A1.678,1.678,0,0,0,441.935,1368.941Z" transform="translate(-415.837 -1279.104)" fill="#20f4ad"/>
          <path id="路径_13472" data-name="路径 13472" d="M428.4,1348.745c.479.309.87.16.871-.32A1.95,1.95,0,0,0,428.4,1347c-.483-.312-.87-.185-.871.3A1.988,1.988,0,0,0,428.4,1348.745Z" transform="translate(-406.059 -1264.47)" fill="#20f4ad"/>
          <path id="路径_13473" data-name="路径 13473" d="M416.7,1326.567c.48.352.87.241.871-.239a2.181,2.181,0,0,0-.871-1.5c-.482-.354-.87-.259-.871.222A2.211,2.211,0,0,0,416.7,1326.567Z" transform="translate(-397.602 -1248.415)" fill="#20f4ad"/>
          <path id="路径_13474" data-name="路径 13474" d="M407.046,1303.711c.48.376.87.287.871-.194a2.32,2.32,0,0,0-.871-1.547c-.482-.377-.87-.3-.871.183A2.341,2.341,0,0,0,407.046,1303.711Z" transform="translate(-390.63 -1231.885)" fill="#20f4ad"/>
          <path id="路径_13475" data-name="路径 13475" d="M399.667,1281.179c.475.382.859.3.859-.17a2.355,2.355,0,0,0-.859-1.549c-.475-.382-.859-.31-.859.165A2.364,2.364,0,0,0,399.667,1281.179Z" transform="translate(-385.307 -1215.616)" fill="#20f4ad"/>
          <path id="路径_13476" data-name="路径 13476" d="M394.648,1259.6c.475.385.859.312.859-.163a2.378,2.378,0,0,0-.859-1.556c-.475-.385-.859-.313-.859.161A2.38,2.38,0,0,0,394.648,1259.6Z" transform="translate(-381.681 -1200.028)" fill="#20f4ad"/>
          <path id="路径_13477" data-name="路径 13477" d="M392.114,1239.513c.475.385.859.313.859-.161a2.379,2.379,0,0,0-.859-1.557c-.475-.385-.859-.313-.859.161A2.38,2.38,0,0,0,392.114,1239.513Z" transform="translate(-379.851 -1185.512)" fill="#20f4ad"/>
          <path id="路径_13478" data-name="路径 13478" d="M392.114,1221.3c.475.385.859.313.859-.161a2.38,2.38,0,0,0-.859-1.557c-.475-.385-.859-.313-.859.161A2.381,2.381,0,0,0,392.114,1221.3Z" transform="translate(-379.851 -1172.355)" fill="#20f4ad"/>
          <path id="路径_13479" data-name="路径 13479" d="M394.648,1205.328c.475.385.859.312.859-.163a2.378,2.378,0,0,0-.859-1.556c-.475-.385-.859-.314-.859.161A2.38,2.38,0,0,0,394.648,1205.328Z" transform="translate(-381.681 -1160.813)" fill="#20f4ad"/>
          <path id="路径_13480" data-name="路径 13480" d="M399.667,1191.891c.475.382.859.3.859-.17a2.357,2.357,0,0,0-.859-1.549c-.475-.382-.859-.309-.859.165A2.366,2.366,0,0,0,399.667,1191.891Z" transform="translate(-385.307 -1151.108)" fill="#20f4ad"/>
          <path id="路径_13481" data-name="路径 13481" d="M407.075,1181.177c.474.371.859.283.859-.191a2.291,2.291,0,0,0-.859-1.528c-.475-.372-.859-.294-.859.181A2.309,2.309,0,0,0,407.075,1181.177Z" transform="translate(-390.66 -1143.375)" fill="#20f4ad"/>
          <path id="路径_13482" data-name="路径 13482" d="M416.725,1173.145c.474.348.859.239.859-.236a2.153,2.153,0,0,0-.859-1.482c-.476-.35-.859-.255-.859.219A2.18,2.18,0,0,0,416.725,1173.145Z" transform="translate(-397.632 -1137.589)" fill="#20f4ad"/>
          <path id="路径_13483" data-name="路径 13483" d="M428.431,1167.421c.473.306.859.159.859-.316a1.928,1.928,0,0,0-.859-1.4c-.477-.308-.859-.182-.859.292A1.961,1.961,0,0,0,428.431,1167.421Z" transform="translate(-406.088 -1133.485)" fill="#20f4ad"/>
          <path id="路径_13484" data-name="路径 13484" d="M441.963,1163.245c.473.24.859.037.859-.438a1.616,1.616,0,0,0-.859-1.281c-.477-.242-.859-.067-.859.408A1.657,1.657,0,0,0,441.963,1163.245Z" transform="translate(-415.865 -1130.51)" fill="#20f4ad"/>
          <path id="路径_13485" data-name="路径 13485" d="M457.06,1159.517a.616.616,0,0,0,.859-.6,1.264,1.264,0,0,0-.859-1.116.6.6,0,0,0-.859.567A1.307,1.307,0,0,0,457.06,1159.517Z" transform="translate(-426.773 -1127.863)" fill="#20f4ad"/>
          <path id="路径_13486" data-name="路径 13486" d="M473.428,1155.007a.789.789,0,0,0,.859-.8.94.94,0,0,0-.859-.916.76.76,0,0,0-.859.764A.977.977,0,0,0,473.428,1155.007Z" transform="translate(-438.598 -1124.635)" fill="#20f4ad"/>
          <path id="路径_13487" data-name="路径 13487" d="M490.747,1148.706a1.073,1.073,0,0,0,.859-1.019.7.7,0,0,0-.859-.7,1.034,1.034,0,0,0-.859.981A.725.725,0,0,0,490.747,1148.706Z" transform="translate(-451.111 -1120.076)" fill="#20f4ad"/>
          <path id="路径_13488" data-name="路径 13488" d="M508.681,1140.223a1.461,1.461,0,0,0,.859-1.226c0-.475-.383-.686-.859-.492a1.417,1.417,0,0,0-.859,1.193A.568.568,0,0,0,508.681,1140.223Z" transform="translate(-464.068 -1113.904)" fill="#20f4ad"/>
          <path id="路径_13489" data-name="路径 13489" d="M526.881,1130.013a1.882,1.882,0,0,0,.859-1.4c0-.475-.383-.612-.859-.321a1.844,1.844,0,0,0-.859,1.372C526.022,1130.141,526.408,1130.3,526.881,1130.013Z" transform="translate(-477.217 -1106.469)" fill="#20f4ad"/>
          <path id="路径_13490" data-name="路径 13490" d="M544.991,1119.288a2.222,2.222,0,0,0,.859-1.512c0-.475-.384-.564-.859-.207a2.2,2.2,0,0,0-.859,1.5C544.133,1119.541,544.518,1119.644,544.991,1119.288Z" transform="translate(-490.301 -1098.673)" fill="#20f4ad"/>
          <path id="路径_13491" data-name="路径 13491" d="M562.661,1109.7a2.377,2.377,0,0,0,.859-1.557c0-.475-.384-.547-.859-.162a2.371,2.371,0,0,0-.859,1.554C561.8,1110.014,562.187,1110.089,562.661,1109.7Z" transform="translate(-503.067 -1091.728)" fill="#20f4ad"/>
          <path id="路径_13492" data-name="路径 13492" d="M579.517,1102.909a2.343,2.343,0,0,0,.871-1.554c0-.481-.39-.566-.871-.187a2.359,2.359,0,0,0-.871,1.563C578.647,1103.212,579.035,1103.29,579.517,1102.909Z" transform="translate(-515.237 -1086.81)" fill="#20f4ad"/>
          <path id="路径_13493" data-name="路径 13493" d="M595.288,1100.238a2.106,2.106,0,0,0,.871-1.476c0-.481-.391-.6-.871-.265a2.139,2.139,0,0,0-.871,1.5C594.418,1100.474,594.805,1100.579,595.288,1100.238Z" transform="translate(-526.631 -1084.913)" fill="#20f4ad"/>
          <path id="路径_13494" data-name="路径 13494" d="M609.638,1102.306a1.8,1.8,0,0,0,.871-1.362c0-.481-.391-.657-.871-.379a1.838,1.838,0,0,0-.871,1.391C608.768,1102.436,609.155,1102.586,609.638,1102.306Z" transform="translate(-536.999 -1086.449)" fill="#20f4ad"/>
          <path id="路径_13495" data-name="路径 13495" d="M622.288,1109.072a1.492,1.492,0,0,0,.871-1.235c0-.481-.392-.716-.871-.506a1.539,1.539,0,0,0-.871,1.269C621.418,1109.08,621.8,1109.283,622.288,1109.072Z" transform="translate(-546.138 -1091.378)" fill="#20f4ad"/>
          <path id="路径_13496" data-name="路径 13496" d="M632.992,1119.952a1.246,1.246,0,0,0,.871-1.112.636.636,0,0,0-.871-.629,1.291,1.291,0,0,0-.871,1.149A.616.616,0,0,0,632.992,1119.952Z" transform="translate(-553.871 -1099.268)" fill="#20f4ad"/>
          <path id="路径_13497" data-name="路径 13497" d="M641.542,1134.041a1.068,1.068,0,0,0,.87-1.007.721.721,0,0,0-.87-.734,1.109,1.109,0,0,0-.871,1.046A.7.7,0,0,0,641.542,1134.041Z" transform="translate(-560.049 -1109.464)" fill="#20f4ad"/>
          <path id="路径_13498" data-name="路径 13498" d="M647.741,1150.322a.966.966,0,0,0,.882-.94.809.809,0,0,0-.882-.823,1,1,0,0,0-.882.981A.778.778,0,0,0,647.741,1150.322Z" transform="translate(-564.519 -1121.217)" fill="#20f4ad"/>
          <path id="路径_13499" data-name="路径 13499" d="M651.527,1167.906a.9.9,0,0,0,.882-.892.863.863,0,0,0-.882-.872.939.939,0,0,0-.882.933A.83.83,0,0,0,651.527,1167.906Z" transform="translate(-567.255 -1133.924)" fill="#20f4ad"/>
          <path id="路径_13500" data-name="路径 13500" d="M667.969,1187.725a.494.494,0,0,0,.625-.494.808.808,0,0,0-.625-.756.507.507,0,0,0-.625.514A.786.786,0,0,0,667.969,1187.725Z" transform="translate(-579.319 -1148.605)" fill="#20f4ad"/>
          <path id="路径_13501" data-name="路径 13501" d="M666.825,1205.694a.5.5,0,0,0,.625-.5.791.791,0,0,0-.625-.746.516.516,0,0,0-.625.524A.77.77,0,0,0,666.825,1205.694Z" transform="translate(-578.493 -1161.589)" fill="#20f4ad"/>
          <path id="路径_13502" data-name="路径 13502" d="M663.383,1223.054a.54.54,0,0,0,.636-.544.757.757,0,0,0-.636-.729.555.555,0,0,0-.636.565A.736.736,0,0,0,663.383,1223.054Z" transform="translate(-575.998 -1174.118)" fill="#20f4ad"/>
          <path id="路径_13503" data-name="路径 13503" d="M657.755,1239.891a.593.593,0,0,0,.636-.6.683.683,0,0,0-.636-.677.61.61,0,0,0-.636.617A.665.665,0,0,0,657.755,1239.891Z" transform="translate(-571.932 -1186.286)" fill="#20f4ad"/>
          <path id="路径_13504" data-name="路径 13504" d="M650,1256.443a.68.68,0,0,0,.636-.668.6.6,0,0,0-.636-.6.7.7,0,0,0-.636.689A.58.58,0,0,0,650,1256.443Z" transform="translate(-566.329 -1198.244)" fill="#20f4ad"/>
          <path id="路径_13505" data-name="路径 13505" d="M640.241,1273.125a.812.812,0,0,0,.636-.757.509.509,0,0,0-.636-.515.835.835,0,0,0-.636.778A.5.5,0,0,0,640.241,1273.125Z" transform="translate(-559.278 -1210.288)" fill="#20f4ad"/>
          <path id="路径_13506" data-name="路径 13506" d="M628.631,1290.423a1,1,0,0,0,.636-.859.435.435,0,0,0-.636-.413,1.021,1.021,0,0,0-.636.878C628,1290.38,628.279,1290.552,628.631,1290.423Z" transform="translate(-550.89 -1222.766)" fill="#20f4ad"/>
          <path id="路径_13507" data-name="路径 13507" d="M615.354,1308.736a1.228,1.228,0,0,0,.636-.963c0-.352-.286-.494-.636-.309a1.251,1.251,0,0,0-.636.979C614.718,1308.794,615,1308.921,615.354,1308.736Z" transform="translate(-541.298 -1235.967)" fill="#20f4ad"/>
          <path id="路径_13508" data-name="路径 13508" d="M600.619,1328.2a1.474,1.474,0,0,0,.636-1.057c0-.351-.286-.45-.636-.216a1.493,1.493,0,0,0-.636,1.069C599.983,1328.343,600.267,1328.431,600.619,1328.2Z" transform="translate(-530.652 -1249.992)" fill="#20f4ad"/>
          <path id="路径_13509" data-name="路径 13509" d="M584.658,1348.472a1.675,1.675,0,0,0,.636-1.125c0-.351-.285-.419-.636-.148a1.688,1.688,0,0,0-.636,1.131C584.023,1348.682,584.306,1348.744,584.658,1348.472Z" transform="translate(-519.121 -1264.614)" fill="#20f4ad"/>
          <path id="路径_13510" data-name="路径 13510" d="M567.724,1368.665a1.761,1.761,0,0,0,.636-1.153c0-.351-.285-.4-.636-.119a1.763,1.763,0,0,0-.636,1.153C567.088,1368.9,567.373,1368.95,567.724,1368.665Z" transform="translate(-506.886 -1279.19)" fill="#20f4ad"/>
          <path id="路径_13511" data-name="路径 13511" d="M550.112,1387.369a1.659,1.659,0,0,0,.625-1.112c0-.345-.279-.406-.625-.138a1.647,1.647,0,0,0-.625,1.105C549.487,1387.569,549.767,1387.635,550.112,1387.369Z" transform="translate(-494.17 -1292.732)" fill="#20f4ad"/>
          <path id="路径_13512" data-name="路径 13512" d="M532.042,1402.777a1.437,1.437,0,0,0,.625-1.04c0-.345-.279-.436-.625-.21a1.418,1.418,0,0,0-.625,1.027C531.417,1402.9,531.7,1403,532.042,1402.777Z" transform="translate(-481.115 -1303.895)" fill="#20f4ad"/>
          <path id="路径_13513" data-name="路径 13513" d="M513.829,1413.2a1.136,1.136,0,0,0,.625-.923c0-.345-.279-.487-.625-.327a1.112,1.112,0,0,0-.625.906C513.2,1413.2,513.485,1413.357,513.829,1413.2Z" transform="translate(-467.956 -1311.466)" fill="#20f4ad"/>
          <path id="路径_13514" data-name="路径 13514" d="M495.759,1417.329a.84.84,0,0,0,.625-.776.478.478,0,0,0-.625-.474.818.818,0,0,0-.625.756A.49.49,0,0,0,495.759,1417.329Z" transform="translate(-454.901 -1314.486)" fill="#20f4ad"/>
          <path id="路径_13515" data-name="路径 13515" d="M478.118,1414.592a.612.612,0,0,0,.625-.617.639.639,0,0,0-.625-.633.6.6,0,0,0-.625.6A.657.657,0,0,0,478.118,1414.592Z" transform="translate(-442.156 -1312.52)" fill="#20f4ad"/>
          <path id="路径_13516" data-name="路径 13516" d="M461.184,1405.259a.468.468,0,0,0,.625-.465.868.868,0,0,0-.625-.785.456.456,0,0,0-.625.445A.891.891,0,0,0,461.184,1405.259Z" transform="translate(-429.921 -1305.76)" fill="#20f4ad"/>
          <path id="路径_13517" data-name="路径 13517" d="M445.223,1390.343c.344.164.625.01.625-.335a1.134,1.134,0,0,0-.625-.915c-.346-.165-.625-.027-.625.318A1.156,1.156,0,0,0,445.223,1390.343Z" transform="translate(-418.39 -1294.95)" fill="#20f4ad"/>
          <path id="路径_13518" data-name="路径 13518" d="M430.518,1371.3c.338.214.613.108.614-.231a1.358,1.358,0,0,0-.614-1c-.34-.215-.614-.12-.614.219A1.375,1.375,0,0,0,430.518,1371.3Z" transform="translate(-407.774 -1281.178)" fill="#20f4ad"/>
          <path id="路径_13519" data-name="路径 13519" d="M417.241,1349.61c.338.249.613.173.614-.167a1.544,1.544,0,0,0-.614-1.061c-.34-.25-.614-.181-.614.158A1.557,1.557,0,0,0,417.241,1349.61Z" transform="translate(-398.181 -1265.48)" fill="#20f4ad"/>
          <path id="路径_13520" data-name="路径 13520" d="M405.631,1326.626c.339.268.614.208.614-.13a1.654,1.654,0,0,0-.614-1.1c-.339-.268-.614-.213-.614.126A1.663,1.663,0,0,0,405.631,1326.626Z" transform="translate(-389.793 -1248.86)" fill="#20f4ad"/>
          <path id="路径_13521" data-name="路径 13521" d="M395.872,1303.388c.339.275.614.223.614-.116a1.7,1.7,0,0,0-.614-1.112c-.339-.275-.614-.224-.614.115A1.7,1.7,0,0,0,395.872,1303.388Z" transform="translate(-382.743 -1232.067)" fill="#20f4ad"/>
          <path id="路径_13522" data-name="路径 13522" d="M388.117,1280.616c.339.275.614.223.614-.116a1.7,1.7,0,0,0-.614-1.111c-.339-.274-.614-.221-.614.118A1.693,1.693,0,0,0,388.117,1280.616Z" transform="translate(-377.14 -1215.615)" fill="#20f4ad"/>
          <path id="路径_13523" data-name="路径 13523" d="M382.489,1258.778c.339.271.613.217.614-.122a1.676,1.676,0,0,0-.614-1.106c-.339-.27-.614-.213-.614.126A1.667,1.667,0,0,0,382.489,1258.778Z" transform="translate(-373.074 -1199.841)" fill="#20f4ad"/>
          <path id="路径_13524" data-name="路径 13524" d="M379.1,1238.218c.333.262.6.207.6-.126a1.623,1.623,0,0,0-.6-1.08c-.333-.262-.6-.2-.6.13A1.615,1.615,0,0,0,379.1,1238.218Z" transform="translate(-370.637 -1185.008)" fill="#20f4ad"/>
          <path id="路径_13525" data-name="路径 13525" d="M377.961,1219.146c.333.261.6.2.6-.128a1.616,1.616,0,0,0-.6-1.077c-.332-.26-.6-.2-.6.133A1.608,1.608,0,0,0,377.961,1219.146Z" transform="translate(-369.81 -1171.23)" fill="#20f4ad"/>
          <path id="路径_13526" data-name="路径 13526" d="M379.1,1201.863c.333.262.6.207.6-.126a1.623,1.623,0,0,0-.6-1.08c-.333-.262-.6-.2-.6.13A1.615,1.615,0,0,0,379.1,1201.863Z" transform="translate(-370.637 -1158.742)" fill="#20f4ad"/>
          <path id="路径_13527" data-name="路径 13527" d="M382.518,1186.668c.333.266.6.213.6-.12a1.645,1.645,0,0,0-.6-1.085c-.333-.265-.6-.21-.6.123A1.637,1.637,0,0,0,382.518,1186.668Z" transform="translate(-373.103 -1147.761)" fill="#20f4ad"/>
          <path id="路径_13528" data-name="路径 13528" d="M388.146,1173.862c.333.27.6.219.6-.114a1.666,1.666,0,0,0-.6-1.092c-.333-.269-.6-.217-.6.116A1.661,1.661,0,0,0,388.146,1173.862Z" transform="translate(-377.169 -1138.506)" fill="#20f4ad"/>
          <path id="路径_13529" data-name="路径 13529" d="M395.9,1163.675c.333.27.6.218.6-.114a1.666,1.666,0,0,0-.6-1.091c-.333-.27-.6-.219-.6.113A1.668,1.668,0,0,0,395.9,1163.675Z" transform="translate(-382.772 -1131.145)" fill="#20f4ad"/>
          <path id="路径_13530" data-name="路径 13530" d="M405.66,1156.156c.332.263.6.205.6-.128a1.624,1.624,0,0,0-.6-1.077c-.333-.264-.6-.209-.6.124A1.632,1.632,0,0,0,405.66,1156.156Z" transform="translate(-389.822 -1125.717)" fill="#20f4ad"/>
          <path id="路径_13531" data-name="路径 13531" d="M417.27,1151.072c.332.244.6.17.6-.163a1.517,1.517,0,0,0-.6-1.042c-.334-.245-.6-.177-.6.156A1.529,1.529,0,0,0,417.27,1151.072Z" transform="translate(-398.21 -1122.058)" fill="#20f4ad"/>
          <path id="路径_13532" data-name="路径 13532" d="M430.547,1147.827c.332.21.6.106.6-.227a1.333,1.333,0,0,0-.6-.978c-.334-.211-.6-.118-.6.215A1.352,1.352,0,0,0,430.547,1147.827Z" transform="translate(-407.803 -1119.739)" fill="#20f4ad"/>
          <path id="路径_13533" data-name="路径 13533" d="M445.281,1145.475c.332.158.6.01.6-.323a1.093,1.093,0,0,0-.6-.883c-.334-.159-.6-.026-.6.307A1.114,1.114,0,0,0,445.281,1145.475Z" transform="translate(-418.448 -1118.072)" fill="#20f4ad"/>
          <path id="路径_13534" data-name="路径 13534" d="M461.242,1142.837a.45.45,0,0,0,.6-.448.837.837,0,0,0-.6-.757.44.44,0,0,0-.6.43A.858.858,0,0,0,461.242,1142.837Z" transform="translate(-429.979 -1116.199)" fill="#20f4ad"/>
          <path id="路径_13535" data-name="路径 13535" d="M478.177,1138.759a.59.59,0,0,0,.6-.594.617.617,0,0,0-.6-.611.574.574,0,0,0-.6.576A.633.633,0,0,0,478.177,1138.759Z" transform="translate(-442.214 -1113.269)" fill="#20f4ad"/>
          <path id="路径_13536" data-name="路径 13536" d="M495.818,1132.439a.81.81,0,0,0,.6-.748.461.461,0,0,0-.6-.457.79.79,0,0,0-.6.729A.473.473,0,0,0,495.818,1132.439Z" transform="translate(-454.96 -1108.691)" fill="#20f4ad"/>
          <path id="路径_13537" data-name="路径 13537" d="M513.887,1123.746a1.094,1.094,0,0,0,.6-.89c0-.333-.269-.47-.6-.316a1.072,1.072,0,0,0-.6.874C513.285,1123.748,513.556,1123.9,513.887,1123.746Z" transform="translate(-468.015 -1102.377)" fill="#20f4ad"/>
          <path id="路径_13538" data-name="路径 13538" d="M532.072,1113.307a1.413,1.413,0,0,0,.614-1.021c0-.339-.274-.429-.614-.207a1.392,1.392,0,0,0-.614,1.009C531.458,1113.428,531.733,1113.528,532.072,1113.307Z" transform="translate(-481.144 -1094.777)" fill="#20f4ad"/>
          <path id="路径_13539" data-name="路径 13539" d="M550.141,1102.466a1.628,1.628,0,0,0,.614-1.092c0-.339-.274-.4-.614-.136a1.619,1.619,0,0,0-.614,1.086C549.527,1102.663,549.8,1102.728,550.141,1102.466Z" transform="translate(-494.199 -1086.914)" fill="#20f4ad"/>
          <path id="路径_13540" data-name="路径 13540" d="M567.783,1092.849a1.7,1.7,0,0,0,.614-1.113c0-.339-.274-.391-.614-.115a1.7,1.7,0,0,0-.614,1.113C567.169,1093.073,567.443,1093.124,567.783,1092.849Z" transform="translate(-506.945 -1079.955)" fill="#20f4ad"/>
          <path id="路径_13541" data-name="路径 13541" d="M584.717,1086.063a1.618,1.618,0,0,0,.614-1.085c0-.339-.275-.4-.614-.142a1.626,1.626,0,0,0-.614,1.092C584.1,1086.266,584.377,1086.325,584.717,1086.063Z" transform="translate(-519.179 -1075.065)" fill="#20f4ad"/>
          <path id="路径_13542" data-name="路径 13542" d="M600.678,1083.332a1.421,1.421,0,0,0,.614-1.02c0-.339-.275-.435-.614-.208a1.439,1.439,0,0,0-.614,1.031C600.064,1083.474,600.338,1083.559,600.678,1083.332Z" transform="translate(-530.711 -1073.119)" fill="#20f4ad"/>
          <path id="路径_13543" data-name="路径 13543" d="M615.412,1085.279a1.185,1.185,0,0,0,.614-.93c0-.339-.276-.476-.614-.3a1.208,1.208,0,0,0-.614.945C614.8,1085.335,615.072,1085.458,615.412,1085.279Z" transform="translate(-541.356 -1074.558)" fill="#20f4ad"/>
          <path id="路径_13544" data-name="路径 13544" d="M628.66,1091.879a.98.98,0,0,0,.625-.844.427.427,0,0,0-.625-.406,1,1,0,0,0-.625.863C628.035,1091.837,628.314,1092.005,628.66,1091.879Z" transform="translate(-550.919 -1079.339)" fill="#20f4ad"/>
          <path id="路径_13545" data-name="路径 13545" d="M640.27,1102.648a.8.8,0,0,0,.625-.744.5.5,0,0,0-.625-.506.82.82,0,0,0-.625.764A.488.488,0,0,0,640.27,1102.648Z" transform="translate(-559.307 -1087.138)" fill="#20f4ad"/>
          <path id="路径_13546" data-name="路径 13546" d="M650.029,1116.72a.668.668,0,0,0,.625-.656.586.586,0,0,0-.625-.594.688.688,0,0,0-.625.677A.57.57,0,0,0,650.029,1116.72Z" transform="translate(-566.358 -1097.313)" fill="#20f4ad"/>
          <path id="路径_13547" data-name="路径 13547" d="M657.784,1133.129a.583.583,0,0,0,.625-.585.672.672,0,0,0-.625-.665.6.6,0,0,0-.625.606A.653.653,0,0,0,657.784,1133.129Z" transform="translate(-571.961 -1109.169)" fill="#20f4ad"/>
          <path id="路径_13548" data-name="路径 13548" d="M663.412,1150.936a.531.531,0,0,0,.625-.534.744.744,0,0,0-.625-.716.545.545,0,0,0-.625.554A.723.723,0,0,0,663.412,1150.936Z" transform="translate(-576.027 -1122.031)" fill="#20f4ad"/>
          <path id="路径_13549" data-name="路径 13549" d="M666.825,1169.339a.5.5,0,0,0,.625-.5.791.791,0,0,0-.625-.746.516.516,0,0,0-.625.524A.77.77,0,0,0,666.825,1169.339Z" transform="translate(-578.493 -1135.323)" fill="#20f4ad"/>
          <path id="路径_13550" data-name="路径 13550" d="M683.111,1192.349c.21.082.379-.018.379-.228a.627.627,0,0,0-.379-.531.252.252,0,0,0-.379.234A.617.617,0,0,0,683.111,1192.349Z" transform="translate(-590.437 -1152.29)" fill="#20f4ad"/>
          <path id="路径_13551" data-name="路径 13551" d="M682.071,1210.14c.21.079.379-.023.38-.232a.616.616,0,0,0-.38-.526.255.255,0,0,0-.379.24A.607.607,0,0,0,682.071,1210.14Z" transform="translate(-589.685 -1165.144)" fill="#20f4ad"/>
          <path id="路径_13552" data-name="路径 13552" d="M678.965,1226.99a.261.261,0,0,0,.379-.248.585.585,0,0,0-.379-.511.265.265,0,0,0-.379.255A.576.576,0,0,0,678.965,1226.99Z" transform="translate(-587.441 -1177.322)" fill="#20f4ad"/>
          <path id="路径_13553" data-name="路径 13553" d="M673.833,1242.934a.28.28,0,0,0,.38-.274.536.536,0,0,0-.38-.485.284.284,0,0,0-.379.282A.526.526,0,0,0,673.833,1242.934Z" transform="translate(-583.734 -1188.846)" fill="#20f4ad"/>
          <path id="路径_13554" data-name="路径 13554" d="M666.742,1258.188a.311.311,0,0,0,.38-.312.471.471,0,0,0-.38-.447.315.315,0,0,0-.379.319A.464.464,0,0,0,666.742,1258.188Z" transform="translate(-578.61 -1199.872)" fill="#20f4ad"/>
          <path id="路径_13555" data-name="路径 13555" d="M657.785,1273.138a.36.36,0,0,0,.38-.361.4.4,0,0,0-.38-.4.366.366,0,0,0-.379.369A.394.394,0,0,0,657.785,1273.138Z" transform="translate(-572.139 -1210.678)" fill="#20f4ad"/>
          <path id="路径_13556" data-name="路径 13556" d="M647.079,1288.3a.436.436,0,0,0,.379-.42.333.333,0,0,0-.379-.338.443.443,0,0,0-.38.428A.328.328,0,0,0,647.079,1288.3Z" transform="translate(-564.404 -1221.631)" fill="#20f4ad"/>
          <path id="路径_13557" data-name="路径 13557" d="M634.762,1304.227a.544.544,0,0,0,.379-.487.277.277,0,0,0-.379-.272.552.552,0,0,0-.38.494A.273.273,0,0,0,634.762,1304.227Z" transform="translate(-555.505 -1233.128)" fill="#20f4ad"/>
          <path id="路径_13558" data-name="路径 13558" d="M621,1321.364a.683.683,0,0,0,.38-.554c0-.21-.17-.3-.38-.2a.693.693,0,0,0-.379.561C620.616,1321.376,620.786,1321.463,621,1321.364Z" transform="translate(-545.559 -1245.492)" fill="#20f4ad"/>
          <path id="路径_13559" data-name="路径 13559" d="M605.959,1339.886a.836.836,0,0,0,.379-.616c0-.209-.17-.274-.379-.143a.844.844,0,0,0-.379.621C605.58,1339.957,605.749,1340.018,605.959,1339.886Z" transform="translate(-534.696 -1258.852)" fill="#20f4ad"/>
          <path id="路径_13560" data-name="路径 13560" d="M589.848,1359.514a.972.972,0,0,0,.38-.663c0-.209-.17-.253-.38-.1a.979.979,0,0,0-.379.666C589.469,1359.63,589.639,1359.671,589.848,1359.514Z" transform="translate(-523.056 -1273.014)" fill="#20f4ad"/>
          <path id="路径_13561" data-name="路径 13561" d="M572.874,1379.428a1.048,1.048,0,0,0,.38-.686c0-.209-.17-.242-.38-.073a1.047,1.047,0,0,0-.379.687C572.495,1379.566,572.665,1379.6,572.874,1379.428Z" transform="translate(-510.793 -1287.392)" fill="#20f4ad"/>
          <path id="路径_13562" data-name="路径 13562" d="M555.257,1398.289a1.027,1.027,0,0,0,.38-.681c0-.21-.17-.244-.38-.078a1.023,1.023,0,0,0-.379.679C554.878,1398.418,555.048,1398.455,555.257,1398.289Z" transform="translate(-498.065 -1301.021)" fill="#20f4ad"/>
          <path id="路径_13563" data-name="路径 13563" d="M537.227,1414.423a.911.911,0,0,0,.38-.644c0-.21-.17-.26-.38-.115a.9.9,0,0,0-.379.64C536.848,1414.514,537.018,1414.568,537.227,1414.423Z" transform="translate(-485.039 -1312.694)" fill="#20f4ad"/>
          <path id="路径_13564" data-name="路径 13564" d="M519.019,1426.128a.734.734,0,0,0,.38-.578c0-.21-.17-.289-.38-.18a.726.726,0,0,0-.379.573C518.64,1426.152,518.81,1426.237,519.019,1426.128Z" transform="translate(-471.884 -1321.175)" fill="#20f4ad"/>
          <path id="路径_13565" data-name="路径 13565" d="M500.87,1432.023a.55.55,0,0,0,.38-.492.274.274,0,0,0-.38-.267.541.541,0,0,0-.379.485A.278.278,0,0,0,500.87,1432.023Z" transform="translate(-458.771 -1325.458)" fill="#20f4ad"/>
          <path id="路径_13566" data-name="路径 13566" d="M483.047,1431.355a.387.387,0,0,0,.368-.384.351.351,0,0,0-.368-.353.381.381,0,0,0-.368.377A.357.357,0,0,0,483.047,1431.355Z" transform="translate(-445.903 -1325.002)" fill="#20f4ad"/>
          <path id="路径_13567" data-name="路径 13567" d="M465.723,1424.092a.29.29,0,0,0,.368-.292.48.48,0,0,0-.368-.445.285.285,0,0,0-.368.285A.487.487,0,0,0,465.723,1424.092Z" transform="translate(-433.386 -1319.748)" fill="#20f4ad"/>
          <path id="路径_13568" data-name="路径 13568" d="M449.154,1410.984c.2.089.368-.007.368-.21a.637.637,0,0,0-.368-.526c-.2-.089-.368,0-.369.2A.646.646,0,0,0,449.154,1410.984Z" transform="translate(-421.415 -1310.26)" fill="#20f4ad"/>
          <path id="路径_13569" data-name="路径 13569" d="M433.555,1393.264c.2.124.368.058.368-.146a.794.794,0,0,0-.368-.591c-.2-.124-.368-.062-.368.141A.8.8,0,0,0,433.555,1393.264Z" transform="translate(-410.146 -1297.436)" fill="#20f4ad"/>
          <path id="路径_13570" data-name="路径 13570" d="M419.13,1372.369c.2.148.368.1.368-.1a.919.919,0,0,0-.368-.635c-.2-.148-.368-.1-.368.1A.923.923,0,0,0,419.13,1372.369Z" transform="translate(-399.724 -1282.322)" fill="#20f4ad"/>
          <path id="路径_13571" data-name="路径 13571" d="M406.067,1349.663c.2.161.368.126.368-.077a.994.994,0,0,0-.368-.659c-.2-.161-.368-.128-.368.076A1,1,0,0,0,406.067,1349.663Z" transform="translate(-390.286 -1265.908)" fill="#20f4ad"/>
          <path id="路径_13572" data-name="路径 13572" d="M394.536,1326.266c.2.165.368.134.369-.069a1.02,1.02,0,0,0-.369-.667c-.2-.165-.368-.135-.368.069A1.022,1.022,0,0,0,394.536,1326.266Z" transform="translate(-381.955 -1249.001)" fill="#20f4ad"/>
          <path id="路径_13573" data-name="路径 13573" d="M384.717,1303c.2.158.357.127.357-.07a.979.979,0,0,0-.357-.644c-.2-.158-.357-.126-.357.071A.976.976,0,0,0,384.717,1303Z" transform="translate(-374.869 -1232.214)" fill="#20f4ad"/>
          <path id="路径_13574" data-name="路径 13574" d="M376.68,1280.322c.2.153.357.118.357-.079a.947.947,0,0,0-.357-.635c-.2-.153-.357-.116-.357.082A.945.945,0,0,0,376.68,1280.322Z" transform="translate(-369.063 -1215.832)" fill="#20f4ad"/>
          <path id="路径_13575" data-name="路径 13575" d="M370.559,1258.531c.2.146.357.107.357-.09a.913.913,0,0,0-.357-.624c-.2-.146-.357-.1-.357.093A.909.909,0,0,0,370.559,1258.531Z" transform="translate(-364.64 -1200.093)" fill="#20f4ad"/>
          <path id="路径_13576" data-name="路径 13576" d="M366.433,1237.788c.2.141.357.1.357-.1a.884.884,0,0,0-.357-.615c-.2-.141-.357-.095-.357.1A.88.88,0,0,0,366.433,1237.788Z" transform="translate(-361.659 -1185.111)" fill="#20f4ad"/>
          <path id="路径_13577" data-name="路径 13577" d="M364.357,1218.225c.2.139.357.093.357-.1a.87.87,0,0,0-.357-.61c-.2-.138-.357-.089-.357.108A.862.862,0,0,0,364.357,1218.225Z" transform="translate(-360.159 -1170.979)" fill="#20f4ad"/>
          <path id="路径_13578" data-name="路径 13578" d="M364.357,1200.009c.2.139.357.093.357-.1a.869.869,0,0,0-.357-.61c-.2-.138-.357-.089-.357.108A.862.862,0,0,0,364.357,1200.009Z" transform="translate(-360.159 -1157.819)" fill="#20f4ad"/>
          <path id="路径_13579" data-name="路径 13579" d="M366.433,1183.379c.2.141.357.1.357-.1a.882.882,0,0,0-.357-.615c-.2-.141-.357-.095-.357.1A.88.88,0,0,0,366.433,1183.379Z" transform="translate(-361.659 -1145.802)" fill="#20f4ad"/>
          <path id="路径_13580" data-name="路径 13580" d="M370.588,1168.663c.191.142.346.1.346-.087a.885.885,0,0,0-.346-.6c-.191-.142-.346-.1-.346.09A.879.879,0,0,0,370.588,1168.663Z" transform="translate(-364.669 -1135.184)" fill="#20f4ad"/>
          <path id="路径_13581" data-name="路径 13581" d="M376.71,1156.143c.191.148.346.114.346-.077a.918.918,0,0,0-.346-.615c-.191-.148-.346-.112-.346.079A.915.915,0,0,0,376.71,1156.143Z" transform="translate(-369.092 -1126.133)" fill="#20f4ad"/>
          <path id="路径_13582" data-name="路径 13582" d="M384.747,1146.13c.191.153.346.123.346-.068a.947.947,0,0,0-.346-.624c-.191-.153-.346-.122-.346.069A.944.944,0,0,0,384.747,1146.13Z" transform="translate(-374.899 -1118.895)" fill="#20f4ad"/>
          <path id="路径_13583" data-name="路径 13583" d="M394.595,1138.772c.191.155.346.126.346-.065a.957.957,0,0,0-.346-.627c-.191-.155-.346-.126-.346.065A.959.959,0,0,0,394.595,1138.772Z" transform="translate(-382.014 -1113.577)" fill="#20f4ad"/>
          <path id="路径_13584" data-name="路径 13584" d="M406.125,1133.966c.191.151.346.118.346-.073a.934.934,0,0,0-.346-.619c-.191-.151-.346-.12-.346.071A.939.939,0,0,0,406.125,1133.966Z" transform="translate(-390.344 -1110.108)" fill="#20f4ad"/>
          <path id="路径_13585" data-name="路径 13585" d="M419.188,1131.28c.191.139.346.1.346-.1a.865.865,0,0,0-.346-.6c-.191-.139-.346-.1-.346.093A.868.868,0,0,0,419.188,1131.28Z" transform="translate(-399.782 -1108.177)" fill="#20f4ad"/>
          <path id="路径_13586" data-name="路径 13586" d="M433.613,1129.925c.191.116.346.054.346-.137a.747.747,0,0,0-.346-.555c-.191-.116-.346-.058-.346.133A.753.753,0,0,0,433.613,1129.925Z" transform="translate(-410.203 -1107.214)" fill="#20f4ad"/>
          <path id="路径_13587" data-name="路径 13587" d="M449.212,1128.827c.191.083.346-.006.346-.2a.6.6,0,0,0-.346-.5c-.191-.084-.346,0-.346.192A.605.605,0,0,0,449.212,1128.827Z" transform="translate(-421.473 -1106.441)" fill="#20f4ad"/>
          <path id="路径_13588" data-name="路径 13588" d="M465.781,1126.8a.272.272,0,0,0,.346-.274.451.451,0,0,0-.346-.418.268.268,0,0,0-.346.267A.457.457,0,0,0,465.781,1126.8Z" transform="translate(-433.444 -1104.992)" fill="#20f4ad"/>
          <path id="路径_13589" data-name="路径 13589" d="M483.105,1122.8a.364.364,0,0,0,.346-.361.33.33,0,0,0-.346-.331.358.358,0,0,0-.346.354A.336.336,0,0,0,483.105,1122.8Z" transform="translate(-445.96 -1102.111)" fill="#20f4ad"/>
          <path id="路径_13590" data-name="路径 13590" d="M500.929,1116.237a.517.517,0,0,0,.357-.463.258.258,0,0,0-.357-.251.509.509,0,0,0-.357.457A.261.261,0,0,0,500.929,1116.237Z" transform="translate(-458.83 -1097.341)" fill="#20f4ad"/>
          <path id="路径_13591" data-name="路径 13591" d="M519.077,1107.23a.69.69,0,0,0,.357-.544c0-.2-.16-.272-.357-.17a.684.684,0,0,0-.357.539C518.72,1107.252,518.88,1107.332,519.077,1107.23Z" transform="translate(-471.941 -1090.812)" fill="#20f4ad"/>
          <path id="路径_13592" data-name="路径 13592" d="M537.285,1096.57a.856.856,0,0,0,.357-.606c0-.2-.16-.245-.357-.109a.852.852,0,0,0-.357.6C536.928,1096.655,537.088,1096.706,537.285,1096.57Z" transform="translate(-485.096 -1083.087)" fill="#20f4ad"/>
          <path id="路径_13593" data-name="路径 13593" d="M555.315,1085.624a.965.965,0,0,0,.357-.641c0-.2-.16-.23-.357-.074a.964.964,0,0,0-.357.639C554.958,1085.746,555.118,1085.78,555.315,1085.624Z" transform="translate(-498.123 -1075.163)" fill="#20f4ad"/>
          <path id="路径_13594" data-name="路径 13594" d="M572.932,1076.025a.984.984,0,0,0,.357-.646c0-.2-.16-.228-.357-.068a.986.986,0,0,0-.357.646C572.575,1076.154,572.735,1076.184,572.932,1076.025Z" transform="translate(-510.851 -1068.226)" fill="#20f4ad"/>
          <path id="路径_13595" data-name="路径 13595" d="M589.907,1069.326a.917.917,0,0,0,.357-.624c0-.2-.16-.238-.357-.09a.919.919,0,0,0-.357.626C589.55,1069.435,589.71,1069.474,589.907,1069.326Z" transform="translate(-523.115 -1063.396)" fill="#20f4ad"/>
          <path id="路径_13596" data-name="路径 13596" d="M606.017,1066.694a.789.789,0,0,0,.357-.58c0-.2-.16-.258-.357-.135a.8.8,0,0,0-.357.584C605.66,1066.762,605.82,1066.819,606.017,1066.694Z" transform="translate(-534.754 -1061.512)" fill="#20f4ad"/>
          <path id="路径_13597" data-name="路径 13597" d="M621.024,1068.712a.663.663,0,0,0,.368-.538c0-.2-.165-.293-.368-.2a.671.671,0,0,0-.368.544C620.656,1068.722,620.821,1068.807,621.024,1068.712Z" transform="translate(-545.588 -1062.972)" fill="#20f4ad"/>
          <path id="路径_13598" data-name="路径 13598" d="M634.791,1075.429a.528.528,0,0,0,.368-.473.268.268,0,0,0-.368-.264.536.536,0,0,0-.368.479A.265.265,0,0,0,634.791,1075.429Z" transform="translate(-555.534 -1067.842)" fill="#20f4ad"/>
          <path id="路径_13599" data-name="路径 13599" d="M647.108,1086.342a.423.423,0,0,0,.368-.408.323.323,0,0,0-.368-.328.43.43,0,0,0-.369.415A.318.318,0,0,0,647.108,1086.342Z" transform="translate(-564.433 -1075.736)" fill="#20f4ad"/>
          <path id="路径_13600" data-name="路径 13600" d="M657.814,1100.653a.349.349,0,0,0,.368-.351.389.389,0,0,0-.368-.386.355.355,0,0,0-.368.358A.383.383,0,0,0,657.814,1100.653Z" transform="translate(-572.168 -1086.077)" fill="#20f4ad"/>
          <path id="路径_13601" data-name="路径 13601" d="M666.771,1117.424a.3.3,0,0,0,.369-.3.458.458,0,0,0-.369-.433.306.306,0,0,0-.368.31A.45.45,0,0,0,666.771,1117.424Z" transform="translate(-578.639 -1098.19)" fill="#20f4ad"/>
          <path id="路径_13602" data-name="路径 13602" d="M673.862,1135.729a.271.271,0,0,0,.368-.266.519.519,0,0,0-.368-.47.275.275,0,0,0-.368.273A.512.512,0,0,0,673.862,1135.729Z" transform="translate(-583.763 -1111.41)" fill="#20f4ad"/>
          <path id="路径_13603" data-name="路径 13603" d="M678.994,1154.741a.254.254,0,0,0,.368-.241.567.567,0,0,0-.368-.5.257.257,0,0,0-.368.247A.559.559,0,0,0,678.994,1154.741Z" transform="translate(-587.47 -1125.14)" fill="#20f4ad"/>
          <path id="路径_13604" data-name="路径 13604" d="M682.071,1173.768c.21.079.379-.023.38-.233a.617.617,0,0,0-.38-.526.255.255,0,0,0-.379.24A.607.607,0,0,0,682.071,1173.768Z" transform="translate(-589.685 -1138.866)" fill="#20f4ad"/>
          <path id="路径_13605" data-name="路径 13605" d="M698.283,1199.741c.068.038.123.015.123-.053a.25.25,0,0,0-.123-.192c-.068-.038-.123-.014-.123.054A.249.249,0,0,0,698.283,1199.741Z" transform="translate(-601.583 -1158.008)" fill="#20f4ad"/>
          <path id="路径_13606" data-name="路径 13606" d="M697.329,1217.4c.068.037.123.013.123-.055a.247.247,0,0,0-.123-.191c-.068-.037-.123-.012-.123.055A.248.248,0,0,0,697.329,1217.4Z" transform="translate(-600.894 -1170.769)" fill="#20f4ad"/>
          <path id="路径_13607" data-name="路径 13607" d="M694.48,1233.873c.068.035.123.009.123-.059a.237.237,0,0,0-.123-.187c-.068-.035-.123-.009-.123.059A.237.237,0,0,0,694.48,1233.873Z" transform="translate(-598.836 -1182.669)" fill="#20f4ad"/>
          <path id="路径_13608" data-name="路径 13608" d="M689.765,1249.15c.068.032.123,0,.123-.065a.222.222,0,0,0-.123-.18c-.068-.032-.123,0-.123.066A.221.221,0,0,0,689.765,1249.15Z" transform="translate(-595.429 -1193.708)" fill="#20f4ad"/>
          <path id="路径_13609" data-name="路径 13609" d="M683.236,1263.388c.068.026.123-.007.123-.076a.2.2,0,0,0-.123-.17c-.068-.026-.123.008-.123.076A.2.2,0,0,0,683.236,1263.388Z" transform="translate(-590.712 -1203.998)" fill="#20f4ad"/>
          <path id="路径_13610" data-name="路径 13610" d="M674.966,1276.9a.09.09,0,0,0,.123-.089.174.174,0,0,0-.123-.157.091.091,0,0,0-.123.089A.173.173,0,0,0,674.966,1276.9Z" transform="translate(-584.737 -1213.764)" fill="#20f4ad"/>
          <path id="路径_13611" data-name="路径 13611" d="M665.044,1290.16a.1.1,0,0,0,.123-.106.145.145,0,0,0-.123-.14.105.105,0,0,0-.123.107A.145.145,0,0,0,665.044,1290.16Z" transform="translate(-577.569 -1223.346)" fill="#20f4ad"/>
          <path id="路径_13612" data-name="路径 13612" d="M653.58,1303.742a.127.127,0,0,0,.123-.127.118.118,0,0,0-.123-.119.128.128,0,0,0-.123.127A.118.118,0,0,0,653.58,1303.742Z" transform="translate(-569.286 -1233.16)" fill="#20f4ad"/>
          <path id="路径_13613" data-name="路径 13613" d="M640.7,1318.251a.161.161,0,0,0,.123-.149.1.1,0,0,0-.123-.1.162.162,0,0,0-.123.15A.1.1,0,0,0,640.7,1318.251Z" transform="translate(-559.98 -1243.64)" fill="#20f4ad"/>
          <path id="路径_13614" data-name="路径 13614" d="M626.541,1334.172a.206.206,0,0,0,.123-.173c0-.068-.055-.1-.123-.073a.207.207,0,0,0-.123.173C626.418,1334.167,626.473,1334.2,626.541,1334.172Z" transform="translate(-549.751 -1255.137)" fill="#20f4ad"/>
          <path id="路径_13615" data-name="路径 13615" d="M611.263,1351.712a.257.257,0,0,0,.123-.194c0-.068-.055-.091-.123-.051a.257.257,0,0,0-.123.195C611.14,1351.729,611.195,1351.751,611.263,1351.712Z" transform="translate(-538.713 -1267.802)" fill="#20f4ad"/>
          <path id="路径_13616" data-name="路径 13616" d="M595.032,1370.644a.3.3,0,0,0,.123-.211c0-.068-.055-.083-.123-.034a.3.3,0,0,0-.123.212C594.909,1370.678,594.964,1370.693,595.032,1370.644Z" transform="translate(-526.986 -1281.474)" fill="#20f4ad"/>
          <path id="路径_13617" data-name="路径 13617" d="M578.025,1390.215a.335.335,0,0,0,.123-.221c0-.068-.055-.079-.123-.025a.336.336,0,0,0-.123.221C577.9,1390.259,577.957,1390.27,578.025,1390.215Z" transform="translate(-514.699 -1295.609)" fill="#20f4ad"/>
          <path id="路径_13618" data-name="路径 13618" d="M560.428,1409.167a.336.336,0,0,0,.123-.221c0-.068-.055-.078-.123-.024a.337.337,0,0,0-.123.221C560.305,1409.211,560.36,1409.222,560.428,1409.167Z" transform="translate(-501.986 -1309.302)" fill="#20f4ad"/>
          <path id="路径_13619" data-name="路径 13619" d="M542.436,1425.9a.306.306,0,0,0,.123-.212c0-.068-.055-.083-.123-.034a.3.3,0,0,0-.123.211C542.313,1425.93,542.368,1425.945,542.436,1425.9Z" transform="translate(-488.987 -1321.392)" fill="#20f4ad"/>
          <path id="路径_13620" data-name="路径 13620" d="M524.243,1438.718a.251.251,0,0,0,.123-.193c0-.068-.055-.091-.123-.053a.253.253,0,0,0-.123.192C524.12,1438.732,524.175,1438.756,524.243,1438.718Z" transform="translate(-475.843 -1330.663)" fill="#20f4ad"/>
          <path id="路径_13621" data-name="路径 13621" d="M506.051,1446.193a.191.191,0,0,0,.123-.166.084.084,0,0,0-.123-.08.191.191,0,0,0-.123.165A.085.085,0,0,0,506.051,1446.193Z" transform="translate(-462.7 -1336.072)" fill="#20f4ad"/>
          <path id="路径_13622" data-name="路径 13622" d="M488.059,1447.405a.139.139,0,0,0,.123-.135.109.109,0,0,0-.123-.11.138.138,0,0,0-.123.134A.11.11,0,0,0,488.059,1447.405Z" transform="translate(-449.701 -1336.953)" fill="#20f4ad"/>
          <path id="路径_13623" data-name="路径 13623" d="M470.462,1442.133a.1.1,0,0,0,.123-.1.149.149,0,0,0-.123-.142.1.1,0,0,0-.123.1A.15.15,0,0,0,470.462,1442.133Z" transform="translate(-436.987 -1333.143)" fill="#20f4ad"/>
          <path id="路径_13624" data-name="路径 13624" d="M453.455,1430.858c.068.027.123-.007.123-.075a.2.2,0,0,0-.123-.171c-.068-.026-.123.007-.123.074A.2.2,0,0,0,453.455,1430.858Z" transform="translate(-424.7 -1324.991)" fill="#20f4ad"/>
          <path id="路径_13625" data-name="路径 13625" d="M437.224,1414.609c.068.039.123.016.123-.052a.256.256,0,0,0-.123-.194c-.068-.039-.123-.017-.123.051A.256.256,0,0,0,437.224,1414.609Z" transform="translate(-412.973 -1313.245)" fill="#20f4ad"/>
          <path id="路径_13626" data-name="路径 13626" d="M421.975,1394.742c.062.044.112.029.112-.032a.274.274,0,0,0-.112-.191c-.062-.044-.112-.03-.112.032A.275.275,0,0,0,421.975,1394.742Z" transform="translate(-401.964 -1298.903)" fill="#20f4ad"/>
          <path id="路径_13627" data-name="路径 13627" d="M407.818,1372.577c.062.049.112.038.112-.024a.3.3,0,0,0-.112-.2c-.062-.049-.112-.038-.112.024A.3.3,0,0,0,407.818,1372.577Z" transform="translate(-391.736 -1282.885)" fill="#20f4ad"/>
          <path id="路径_13628" data-name="路径 13628" d="M394.936,1349.334c.062.05.111.041.112-.021a.312.312,0,0,0-.112-.2c-.062-.05-.112-.041-.112.021A.31.31,0,0,0,394.936,1349.334Z" transform="translate(-382.429 -1266.091)" fill="#20f4ad"/>
          <path id="路径_13629" data-name="路径 13629" d="M383.472,1325.918c.062.049.112.039.112-.022a.3.3,0,0,0-.112-.2c-.062-.049-.112-.039-.112.022A.3.3,0,0,0,383.472,1325.918Z" transform="translate(-374.147 -1249.175)" fill="#20f4ad"/>
          <path id="路径_13630" data-name="路径 13630" d="M373.55,1302.916c.062.047.112.034.112-.027a.288.288,0,0,0-.112-.2c-.062-.047-.112-.034-.112.027A.29.29,0,0,0,373.55,1302.916Z" transform="translate(-366.978 -1232.558)" fill="#20f4ad"/>
          <path id="路径_13631" data-name="路径 13631" d="M365.28,1280.638c.062.043.112.029.112-.033a.271.271,0,0,0-.112-.19c-.062-.044-.112-.029-.112.033A.271.271,0,0,0,365.28,1280.638Z" transform="translate(-361.003 -1216.465)" fill="#20f4ad"/>
          <path id="路径_13632" data-name="路径 13632" d="M358.78,1259.229c.056.036.1.021.1-.035a.23.23,0,0,0-.1-.166c-.055-.036-.1-.02-.1.035A.229.229,0,0,0,358.78,1259.229Z" transform="translate(-356.315 -1201.017)" fill="#20f4ad"/>
          <path id="路径_13633" data-name="路径 13633" d="M354.065,1238.664c.056.034.1.016.1-.039a.218.218,0,0,0-.1-.162c-.056-.034-.1-.016-.1.04A.216.216,0,0,0,354.065,1238.664Z" transform="translate(-352.909 -1186.161)" fill="#20f4ad"/>
          <path id="路径_13634" data-name="路径 13634" d="M351.215,1218.98c.056.032.1.014.1-.042a.209.209,0,0,0-.1-.159c-.055-.032-.1-.013-.1.042A.208.208,0,0,0,351.215,1218.98Z" transform="translate(-350.85 -1171.941)" fill="#20f4ad"/>
          <path id="路径_13635" data-name="路径 13635" d="M350.262,1200.24c.055.032.1.013.1-.043a.208.208,0,0,0-.1-.158c-.056-.032-.1-.012-.1.043A.208.208,0,0,0,350.262,1200.24Z" transform="translate(-350.161 -1158.403)" fill="#20f4ad"/>
          <path id="路径_13636" data-name="路径 13636" d="M351.215,1182.6c.056.032.1.014.1-.042a.21.21,0,0,0-.1-.159c-.055-.032-.1-.013-.1.042A.209.209,0,0,0,351.215,1182.6Z" transform="translate(-350.85 -1145.654)" fill="#20f4ad"/>
          <path id="路径_13637" data-name="路径 13637" d="M354.065,1166.294c.056.034.1.016.1-.039a.217.217,0,0,0-.1-.162c-.056-.034-.1-.016-.1.039A.217.217,0,0,0,354.065,1166.294Z" transform="translate(-352.909 -1133.876)" fill="#20f4ad"/>
          <path id="路径_13638" data-name="路径 13638" d="M358.78,1151.667c.056.036.1.021.1-.035a.23.23,0,0,0-.1-.166c-.055-.036-.1-.02-.1.035A.229.229,0,0,0,358.78,1151.667Z" transform="translate(-356.315 -1123.306)" fill="#20f4ad"/>
          <path id="路径_13639" data-name="路径 13639" d="M365.308,1139.086c.056.039.1.026.1-.029a.244.244,0,0,0-.1-.171c-.055-.039-.1-.026-.1.03A.244.244,0,0,0,365.308,1139.086Z" transform="translate(-361.032 -1114.215)" fill="#20f4ad"/>
          <path id="路径_13640" data-name="路径 13640" d="M373.578,1128.9c.056.042.1.031.1-.024a.26.26,0,0,0-.1-.177c-.056-.042-.1-.031-.1.024A.262.262,0,0,0,373.578,1128.9Z" transform="translate(-367.007 -1106.854)" fill="#20f4ad"/>
          <path id="路径_13641" data-name="路径 13641" d="M383.5,1121.348c.056.044.1.035.1-.02a.273.273,0,0,0-.1-.181c-.055-.044-.1-.035-.1.021A.273.273,0,0,0,383.5,1121.348Z" transform="translate(-374.176 -1101.396)" fill="#20f4ad"/>
          <path id="路径_13642" data-name="路径 13642" d="M394.965,1116.45c.055.045.1.037.1-.019a.279.279,0,0,0-.1-.182c-.056-.045-.1-.037-.1.019A.279.279,0,0,0,394.965,1116.45Z" transform="translate(-382.458 -1097.856)" fill="#20f4ad"/>
          <path id="路径_13643" data-name="路径 13643" d="M407.846,1113.93c.056.044.1.034.1-.021a.269.269,0,0,0-.1-.179c-.056-.044-.1-.034-.1.021A.27.27,0,0,0,407.846,1113.93Z" transform="translate(-391.765 -1096.036)" fill="#20f4ad"/>
          <path id="路径_13644" data-name="路径 13644" d="M422,1113.165c.055.039.1.026.1-.029a.247.247,0,0,0-.1-.172c-.056-.04-.1-.027-.1.029A.247.247,0,0,0,422,1113.165Z" transform="translate(-401.993 -1095.487)" fill="#20f4ad"/>
          <path id="路径_13645" data-name="路径 13645" d="M437.281,1113.209c.056.032.1.013.1-.042a.209.209,0,0,0-.1-.159c-.056-.032-.1-.014-.1.042A.209.209,0,0,0,437.281,1113.209Z" transform="translate(-413.031 -1095.524)" fill="#20f4ad"/>
          <path id="路径_13646" data-name="路径 13646" d="M453.513,1112.912c.056.022.1-.006.1-.061a.164.164,0,0,0-.1-.14c-.056-.022-.1.005-.1.061A.165.165,0,0,0,453.513,1112.912Z" transform="translate(-424.758 -1095.316)" fill="#20f4ad"/>
          <path id="路径_13647" data-name="路径 13647" d="M470.521,1111.128a.084.084,0,0,0,.1-.085.122.122,0,0,0-.1-.116.083.083,0,0,0-.1.084A.123.123,0,0,0,470.521,1111.128Z" transform="translate(-437.046 -1094.031)" fill="#20f4ad"/>
          <path id="路径_13648" data-name="路径 13648" d="M488.116,1106.969a.114.114,0,0,0,.1-.11.089.089,0,0,0-.1-.09.113.113,0,0,0-.1.11A.09.09,0,0,0,488.116,1106.969Z" transform="translate(-449.758 -1091.026)" fill="#20f4ad"/>
          <path id="路径_13649" data-name="路径 13649" d="M506.109,1100.06a.156.156,0,0,0,.1-.136.069.069,0,0,0-.1-.065.155.155,0,0,0-.1.135A.069.069,0,0,0,506.109,1100.06Z" transform="translate(-462.758 -1086.031)" fill="#20f4ad"/>
          <path id="路径_13650" data-name="路径 13650" d="M524.3,1090.684a.206.206,0,0,0,.1-.158c0-.055-.045-.075-.1-.043a.2.2,0,0,0-.1.157C524.2,1090.7,524.246,1090.715,524.3,1090.684Z" transform="translate(-475.901 -1079.251)" fill="#20f4ad"/>
          <path id="路径_13651" data-name="路径 13651" d="M542.493,1079.774a.25.25,0,0,0,.1-.173c0-.056-.045-.068-.1-.028a.249.249,0,0,0-.1.173C542.393,1079.8,542.438,1079.814,542.493,1079.774Z" transform="translate(-489.045 -1071.362)" fill="#20f4ad"/>
          <path id="路径_13652" data-name="路径 13652" d="M560.486,1068.747a.274.274,0,0,0,.1-.181c0-.055-.045-.064-.1-.019a.273.273,0,0,0-.1.181C560.386,1068.783,560.431,1068.792,560.486,1068.747Z" transform="translate(-502.044 -1063.392)" fill="#20f4ad"/>
          <path id="路径_13653" data-name="路径 13653" d="M578.082,1059.224a.274.274,0,0,0,.1-.181c0-.055-.045-.064-.1-.02a.274.274,0,0,0-.1.181C577.982,1059.26,578.027,1059.269,578.082,1059.224Z" transform="translate(-514.757 -1056.512)" fill="#20f4ad"/>
          <path id="路径_13654" data-name="路径 13654" d="M595.061,1052.682a.277.277,0,0,0,.112-.192c0-.062-.05-.076-.112-.031a.278.278,0,0,0-.112.193C594.949,1052.714,595,1052.727,595.061,1052.682Z" transform="translate(-527.015 -1051.771)" fill="#20f4ad"/>
          <path id="路径_13655" data-name="路径 13655" d="M611.292,1050.289a.234.234,0,0,0,.112-.177c0-.062-.05-.083-.112-.047a.236.236,0,0,0-.112.177C611.18,1050.3,611.23,1050.325,611.292,1050.289Z" transform="translate(-538.742 -1050.048)" fill="#20f4ad"/>
          <path id="路径_13656" data-name="路径 13656" d="M626.571,1052.59a.187.187,0,0,0,.112-.157c0-.062-.05-.092-.112-.066a.187.187,0,0,0-.112.158C626.459,1052.586,626.509,1052.615,626.571,1052.59Z" transform="translate(-549.781 -1051.717)" fill="#20f4ad"/>
          <path id="路径_13657" data-name="路径 13657" d="M640.728,1059.6a.147.147,0,0,0,.112-.136.087.087,0,0,0-.112-.087.147.147,0,0,0-.112.136A.087.087,0,0,0,640.728,1059.6Z" transform="translate(-560.009 -1056.783)" fill="#20f4ad"/>
          <path id="路径_13658" data-name="路径 13658" d="M653.609,1070.85a.116.116,0,0,0,.112-.115.108.108,0,0,0-.112-.108.117.117,0,0,0-.112.116A.108.108,0,0,0,653.609,1070.85Z" transform="translate(-569.315 -1064.916)" fill="#20f4ad"/>
          <path id="路径_13659" data-name="路径 13659" d="M665.074,1085.583a.1.1,0,0,0,.112-.1.132.132,0,0,0-.112-.127.1.1,0,0,0-.112.1A.131.131,0,0,0,665.074,1085.583Z" transform="translate(-577.598 -1075.559)" fill="#20f4ad"/>
          <path id="路径_13660" data-name="路径 13660" d="M674.966,1102.862a.09.09,0,0,0,.123-.089.174.174,0,0,0-.123-.157.091.091,0,0,0-.123.09A.173.173,0,0,0,674.966,1102.862Z" transform="translate(-584.737 -1088.024)" fill="#20f4ad"/>
          <path id="路径_13661" data-name="路径 13661" d="M683.236,1121.811c.068.026.123-.007.123-.075a.2.2,0,0,0-.123-.17.082.082,0,0,0-.123.076A.2.2,0,0,0,683.236,1121.811Z" transform="translate(-590.712 -1101.712)" fill="#20f4ad"/>
          <path id="路径_13662" data-name="路径 13662" d="M689.765,1141.587c.068.032.123,0,.123-.065a.222.222,0,0,0-.123-.18c-.068-.032-.123,0-.123.066A.22.22,0,0,0,689.765,1141.587Z" transform="translate(-595.429 -1115.997)" fill="#20f4ad"/>
          <path id="路径_13663" data-name="路径 13663" d="M694.48,1161.5c.068.035.123.009.123-.059a.238.238,0,0,0-.123-.187c-.068-.035-.123-.009-.123.059A.237.237,0,0,0,694.48,1161.5Z" transform="translate(-598.836 -1130.383)" fill="#20f4ad"/>
          <path id="路径_13664" data-name="路径 13664" d="M697.329,1181.02c.068.037.123.013.123-.055a.248.248,0,0,0-.123-.191c-.068-.037-.123-.013-.123.056A.247.247,0,0,0,697.329,1181.02Z" transform="translate(-600.894 -1144.482)" fill="#20f4ad"/>
        </g>
      </g>
    </g>
  </g>
  <text id="_9_000_" data-name=" $ 9,000 " transform="translate(125 50)" fill="#fff" font-size="64" font-family="Helvetica"><tspan x="-124.547" y="0" xml:space="preserve"> $ 9,000 </tspan></text>
</svg>
