<svg xmlns="http://www.w3.org/2000/svg" xmlns:xlink="http://www.w3.org/1999/xlink" viewBox="0 0 188.54 135.92"><defs><style>.cls-1{fill:none;}.cls-2{fill:#4444fd;}.cls-3{clip-path:url(#clip-path);}.cls-4{fill:#20f4ad;}.cls-5{isolation:isolate;}.cls-6{fill:#fff;}</style><clipPath id="clip-path"><path class="cls-1" d="M162.1,50a41.58,41.58,0,0,0-58.72-.12L97.7,55.51l20.23,20.26,5.64-5.59a12.9,12.9,0,1,1,0,18.24h0L85.12,49.87a41.21,41.21,0,0,0-29.34-12.2H55.7a41.52,41.52,0,1,0,29.3,71l5.75-5.69L70.54,82.66l-5.73,5.66a12.9,12.9,0,1,1,0-18.25l29.69,29.8,8.73,8.76a41.53,41.53,0,1,0,59.1-58.36L162.1,50Z"/></clipPath></defs><g id="图层_2" data-name="图层 2"><g id="图层_1-2" data-name="图层 1"><g id="组_4290" data-name="组 4290"><g id="组_4250" data-name="组 4250"><path id="路径_13294" data-name="路径 13294" class="cls-2" d="M103.38,49.88,97.7,55.51l20.23,20.26,5.64-5.59a12.9,12.9,0,1,1,0,18.24h0L85.12,49.87a41.21,41.21,0,0,0-29.35-12.2H55.7a41.52,41.52,0,1,0,29.3,71l5.75-5.69L70.54,82.66l-5.73,5.66a12.9,12.9,0,1,1,0-18.25l29.69,29.8,8.73,8.76a41.53,41.53,0,1,0,.12-58.75Z"/></g><g id="组_4253" data-name="组 4253"><g class="cls-3"><g id="组_4252" data-name="组 4252"><g id="组_4251" data-name="组 4251"><path id="路径_13295" data-name="路径 13295" class="cls-4" d="M124.47,96.69a5,5,0,0,0,2.64-4c0-1.46-1.16-2-2.64-1.27a4.56,4.56,0,0,0-2.65,3.72A1.71,1.71,0,0,0,123.38,97,1.75,1.75,0,0,0,124.47,96.69Z"/><path id="路径_13296" data-name="路径 13296" class="cls-4" d="M120.44,95.26a3.93,3.93,0,0,0,2.64-3.54c0-1.45-1.17-2.14-2.64-1.73a3.53,3.53,0,0,0-2.63,3.19,2,2,0,0,0,1.9,2.16A2,2,0,0,0,120.44,95.26Z"/><path id="路径_13297" data-name="路径 13297" class="cls-4" d="M118.91,90.89a3.57,3.57,0,0,0,2.63-3.33,2,2,0,0,0-1.94-2,1.82,1.82,0,0,0-.69.11,3.19,3.19,0,0,0-2.64,3,2.21,2.21,0,0,0,2.11,2.32A1.93,1.93,0,0,0,118.91,90.89Z"/><path id="路径_13298" data-name="路径 13298" class="cls-4" d="M130.69,96.63a5.85,5.85,0,0,0,2.4-4.13c0-1.32-1.07-1.59-2.4-.67a5.55,5.55,0,0,0-2.4,4C128.29,97.12,129.37,97.54,130.69,96.63Z"/><path id="路径_13299" data-name="路径 13299" class="cls-4" d="M125.69,100.19a4.75,4.75,0,0,0,2.4-3.75c0-1.32-1-1.74-2.4-1a4.44,4.44,0,0,0-2.4,3.51C123.3,100.24,124.38,100.87,125.69,100.19Z"/><path id="路径_13300" data-name="路径 13300" class="cls-4" d="M120.92,100.6a3.66,3.66,0,0,0,2.39-3.24c0-1.32-1.06-1.94-2.39-1.54a3.34,3.34,0,0,0-2.39,3,1.81,1.81,0,0,0,1.68,1.91A1.91,1.91,0,0,0,120.92,100.6Z"/><path id="路径_13301" data-name="路径 13301" class="cls-4" d="M117.19,98a2.9,2.9,0,0,0,2.39-2.8,2,2,0,0,0-2.39-2,2.59,2.59,0,0,0-2.39,2.5A2.21,2.21,0,0,0,116.94,98Z"/><path id="路径_13302" data-name="路径 13302" class="cls-4" d="M115.15,93.53A2.51,2.51,0,0,0,117.52,91a2.38,2.38,0,0,0-4.75,0A2.49,2.49,0,0,0,115.15,93.53Z"/><path id="路径_13303" data-name="路径 13303" class="cls-4" d="M115.15,88.51A2.52,2.52,0,0,0,117.52,86a2.38,2.38,0,0,0-4.75,0A2.49,2.49,0,0,0,115.15,88.51Z"/><path id="路径_13304" data-name="路径 13304" class="cls-4" d="M117.19,83.81A2.87,2.87,0,0,0,119.56,81a2,2,0,0,0-2-2,1.84,1.84,0,0,0-.41,0,2.59,2.59,0,0,0-2.38,2.5,2.2,2.2,0,0,0,2.13,2.26Z"/><path id="路径_13305" data-name="路径 13305" class="cls-4" d="M143.06,75.23a5.71,5.71,0,0,0,2.14-3.8c0-1.19-1-1.42-2.14-.49a5.82,5.82,0,0,0-2.14,3.85C140.91,76,141.87,76.16,143.06,75.23Z"/><path id="路径_13306" data-name="路径 13306" class="cls-4" d="M142.27,80.84A5.81,5.81,0,0,0,144.42,77c0-1.19-1-1.41-2.15-.46a5.91,5.91,0,0,0-2.16,3.89C140.12,81.61,141.08,81.79,142.27,80.84Z"/><path id="路径_13307" data-name="路径 13307" class="cls-4" d="M140,87.17a6,6,0,0,0,2.16-3.89c0-1.19-1-1.38-2.16-.42a5.94,5.94,0,0,0-2.15,3.9C137.83,88,138.79,88.13,140,87.17Z"/><path id="路径_13308" data-name="路径 13308" class="cls-4" d="M136.42,93.61a5.85,5.85,0,0,0,2.15-3.89c0-1.19-1-1.37-2.15-.42a5.83,5.83,0,0,0-2.15,3.85C134.27,94.34,135.23,94.56,136.42,93.61Z"/><path id="路径_13309" data-name="路径 13309" class="cls-4" d="M131.93,99.33a5.45,5.45,0,0,0,2.16-3.76c0-1.18-1-1.41-2.16-.54a5.22,5.22,0,0,0-2.15,3.64C129.78,99.86,130.75,100.19,131.93,99.33Z"/><path id="路径_13310" data-name="路径 13310" class="cls-4" d="M127,103.34a4.53,4.53,0,0,0,2.14-3.44c0-1.18-.95-1.52-2.14-.84a4.26,4.26,0,0,0-2.15,3.26C124.81,103.51,125.78,104,127,103.34Z"/><path id="路径_13311" data-name="路径 13311" class="cls-4" d="M122,104.86a3.47,3.47,0,0,0,2.14-3c0-1.18-.94-1.7-2.14-1.28a3.21,3.21,0,0,0-2.14,2.79,1.52,1.52,0,0,0,2.14,1.49Z"/><path id="路径_13312" data-name="路径 13312" class="cls-4" d="M117.49,103.66a2.64,2.64,0,0,0,2.15-2.54,1.78,1.78,0,0,0-1.74-1.79,1.9,1.9,0,0,0-.41,0,2.41,2.41,0,0,0-2.14,2.3,1.93,1.93,0,0,0,1.87,2Z"/><path id="路径_13313" data-name="路径 13313" class="cls-4" d="M113.93,100.2a2.07,2.07,0,0,0,2.13-2v-.09a2.18,2.18,0,0,0-2.13-2.14,1.9,1.9,0,0,0-2.12,1.66,1.69,1.69,0,0,0,0,.23A2.4,2.4,0,0,0,113.93,100.2Z"/><path id="路径_13314" data-name="路径 13314" class="cls-4" d="M111.65,95.44a1.81,1.81,0,0,0,2.1-1.47,2.43,2.43,0,0,0-2.1-2.79,1.67,1.67,0,0,0-2.07,1.12,1.75,1.75,0,0,0-.07.51A2.78,2.78,0,0,0,111.65,95.44Z"/><path id="路径_13315" data-name="路径 13315" class="cls-4" d="M110.86,90.3A1.73,1.73,0,0,0,112.93,89a1.63,1.63,0,0,0,0-.49,2.68,2.68,0,0,0-2.12-2.47,1.58,1.58,0,0,0-2,1,1.41,1.41,0,0,0-.09.58A2.9,2.9,0,0,0,110.86,90.3Z"/><path id="路径_13316" data-name="路径 13316" class="cls-4" d="M111.65,85.48A1.8,1.8,0,0,0,113.74,84a2.6,2.6,0,0,0,0-.4,2.54,2.54,0,0,0-2.12-2.38,1.66,1.66,0,0,0-2.06,1.12,1.7,1.7,0,0,0-.07.51A2.77,2.77,0,0,0,111.65,85.48Z"/><path id="路径_13317" data-name="路径 13317" class="cls-4" d="M113.93,81.27a2.07,2.07,0,0,0,2.12-2v-.09A2.17,2.17,0,0,0,113.93,77a1.88,1.88,0,0,0-2.1,1.63,1.94,1.94,0,0,0,0,.24A2.41,2.41,0,0,0,113.93,81.27Z"/><path id="路径_13318" data-name="路径 13318" class="cls-4" d="M117.49,77.59a2.6,2.6,0,0,0,2.12-2.51,1.75,1.75,0,0,0-1.72-1.78,2.85,2.85,0,0,0-.4,0,2.38,2.38,0,0,0-2.12,2.28,1.93,1.93,0,0,0,1.85,2Z"/><path id="路径_13319" data-name="路径 13319" class="cls-4" d="M122,74.22a3.45,3.45,0,0,0,2.12-3c0-1.17-.94-1.68-2.12-1.27a3.19,3.19,0,0,0-2.12,2.76,1.52,1.52,0,0,0,1.39,1.62A1.66,1.66,0,0,0,122,74.22Z"/><path id="路径_13320" data-name="路径 13320" class="cls-4" d="M127,71.12a4.46,4.46,0,0,0,2.12-3.4c0-1.17-.94-1.5-2.12-.83a4.2,4.2,0,0,0-2.12,3.23C124.84,71.29,125.8,71.78,127,71.12Z"/><path id="路径_13321" data-name="路径 13321" class="cls-4" d="M131.93,68.69A5.35,5.35,0,0,0,134.06,65c0-1.18-.94-1.4-2.13-.54A5.21,5.21,0,0,0,129.8,68C129.8,69.21,130.76,69.53,131.93,68.69Z"/><path id="路径_13322" data-name="路径 13322" class="cls-4" d="M136.42,67.54a5.83,5.83,0,0,0,2.13-3.85c0-1.18-1-1.36-2.13-.41a5.73,5.73,0,0,0-2.13,3.8C134.29,68.26,135.25,68.47,136.42,67.54Z"/><path id="路径_13323" data-name="路径 13323" class="cls-4" d="M140,68.23a5.86,5.86,0,0,0,2.14-3.87c0-1.18-1-1.37-2.14-.42a5.91,5.91,0,0,0-2.14,3.89C137.84,69,138.8,69.19,140,68.23Z"/><path id="路径_13324" data-name="路径 13324" class="cls-4" d="M142.27,70.88a5.77,5.77,0,0,0,2.14-3.83c0-1.18-1-1.4-2.14-.46a5.86,5.86,0,0,0-2.14,3.87C140.13,71.64,141.08,71.82,142.27,70.88Z"/><path id="路径_13325" data-name="路径 13325" class="cls-4" d="M147.08,72a4.56,4.56,0,0,0,1.9-3.2c0-1-.85-1.34-1.9-.6a4.75,4.75,0,0,0-1.9,3.28C145.19,72.49,146,72.7,147.08,72Z"/><path id="路径_13326" data-name="路径 13326" class="cls-4" d="M146.45,77.41a4.7,4.7,0,0,0,1.9-3.23c0-1.05-.86-1.32-1.9-.57a4.81,4.81,0,0,0-1.9,3.32C144.55,78,145.39,78.17,146.45,77.41Z"/><path id="路径_13327" data-name="路径 13327" class="cls-4" d="M144.59,83.48a4.89,4.89,0,0,0,1.9-3.31c0-1-.85-1.28-1.9-.48a5,5,0,0,0-1.9,3.37C142.7,84.11,143.54,84.29,144.59,83.48Z"/><path id="路径_13328" data-name="路径 13328" class="cls-4" d="M141.63,89.9a5.23,5.23,0,0,0,1.9-3.41c0-1-.85-1.23-1.9-.39a5.22,5.22,0,0,0-1.9,3.44C139.73,90.58,140.58,90.74,141.63,89.9Z"/><path id="路径_13329" data-name="路径 13329" class="cls-4" d="M137.74,96.26a5.26,5.26,0,0,0,1.9-3.44c0-1-.85-1.2-1.9-.36a5.21,5.21,0,0,0-1.9,3.42C135.84,96.93,136.69,97.11,137.74,96.26Z"/><path id="路径_13330" data-name="路径 13330" class="cls-4" d="M133.18,102a5,5,0,0,0,1.9-3.35c0-1-.85-1.23-1.9-.44a4.75,4.75,0,0,0-1.9,3.28C131.28,102.52,132.13,102.77,133.18,102Z"/><path id="路径_13331" data-name="路径 13331" class="cls-4" d="M128.22,106.34a4.19,4.19,0,0,0,1.9-3.12c0-1-.84-1.32-1.9-.68a4,4,0,0,0-1.9,3C126.32,106.59,127.18,107,128.22,106.34Z"/><path id="路径_13332" data-name="路径 13332" class="cls-4" d="M123.19,108.61a3.3,3.3,0,0,0,1.9-2.75c0-1-.85-1.47-1.9-1a3.07,3.07,0,0,0-1.9,2.59,1.27,1.27,0,0,0,1.9,1.2Z"/><path id="路径_13333" data-name="路径 13333" class="cls-4" d="M118.39,108.45a2.42,2.42,0,0,0,1.88-2.3,1.48,1.48,0,0,0-1.45-1.52,1.58,1.58,0,0,0-.43.05,2.26,2.26,0,0,0-1.89,2.12,1.62,1.62,0,0,0,1.54,1.68A2.07,2.07,0,0,0,118.39,108.45Z"/><path id="路径_13334" data-name="路径 13334" class="cls-4" d="M114.13,106a1.85,1.85,0,0,0,1.88-1.82v-.06a1.91,1.91,0,0,0-1.88-1.89,1.71,1.71,0,0,0-1.88,1.52c0,.06,0,.12,0,.18A2.09,2.09,0,0,0,114.13,106Z"/><path id="路径_13335" data-name="路径 13335" class="cls-4" d="M110.68,101.84a1.49,1.49,0,0,0,1.82-1.07,1.44,1.44,0,0,0,0-.46,2.41,2.41,0,0,0-1.87-2.22,1.42,1.42,0,0,0-1.8.84,1.53,1.53,0,0,0-.08.52A2.6,2.6,0,0,0,110.68,101.84Z"/><path id="路径_13336" data-name="路径 13336" class="cls-4" d="M108.24,96.72a1.35,1.35,0,0,0,1.77-.67,1.28,1.28,0,0,0,.11-.64A2.78,2.78,0,0,0,108.24,93c-1-.37-1.87.1-1.87,1.14A3,3,0,0,0,108.24,96.72Z"/><path id="路径_13337" data-name="路径 13337" class="cls-4" d="M107,91.36a1.26,1.26,0,0,0,1.72-.48,1.37,1.37,0,0,0,.16-.71A3,3,0,0,0,107,87.61c-1-.42-1.87,0-1.87,1A3.25,3.25,0,0,0,107,91.36Z"/><path id="路径_13338" data-name="路径 13338" class="cls-4" d="M107,86.31a1.26,1.26,0,0,0,1.72-.48,1.35,1.35,0,0,0,.16-.71A3,3,0,0,0,107,82.56c-1-.42-1.87,0-1.87,1A3.24,3.24,0,0,0,107,86.31Z"/><path id="路径_13339" data-name="路径 13339" class="cls-4" d="M108.25,81.89a1.32,1.32,0,0,0,1.75-.66,1.28,1.28,0,0,0,.11-.64,2.79,2.79,0,0,0-1.86-2.43c-1-.36-1.87.1-1.87,1.14A3,3,0,0,0,108.25,81.89Z"/><path id="路径_13340" data-name="路径 13340" class="cls-4" d="M110.68,78.17a1.5,1.5,0,0,0,1.82-1.08,1.64,1.64,0,0,0,0-.44,2.39,2.39,0,0,0-1.86-2.2,1.4,1.4,0,0,0-1.87,1.35A2.58,2.58,0,0,0,110.68,78.17Z"/><path id="路径_13341" data-name="路径 13341" class="cls-4" d="M114.13,75a1.83,1.83,0,0,0,1.86-1.8v-.06a1.9,1.9,0,0,0-1.86-1.87,1.69,1.69,0,0,0-1.86,1.5c0,.06,0,.12,0,.18A2.07,2.07,0,0,0,114.13,75Z"/><path id="路径_13342" data-name="路径 13342" class="cls-4" d="M118.39,72a2.4,2.4,0,0,0,1.86-2.28,1.46,1.46,0,0,0-1.43-1.5,1.58,1.58,0,0,0-.43,0,2.24,2.24,0,0,0-1.87,2.1A1.59,1.59,0,0,0,118.05,72,1.3,1.3,0,0,0,118.39,72Z"/><path id="路径_13343" data-name="路径 13343" class="cls-4" d="M123.19,69.06a3.25,3.25,0,0,0,1.87-2.72c0-1-.83-1.46-1.87-1a3,3,0,0,0-1.88,2.55,1.27,1.27,0,0,0,1.16,1.36A1.29,1.29,0,0,0,123.19,69.06Z"/><path id="路径_13344" data-name="路径 13344" class="cls-4" d="M128.22,66.15a4.2,4.2,0,0,0,1.88-3.08c0-1-.84-1.31-1.88-.67a3.94,3.94,0,0,0-1.87,3C126.35,66.39,127.19,66.78,128.22,66.15Z"/><path id="路径_13345" data-name="路径 13345" class="cls-4" d="M133.18,63.69a4.91,4.91,0,0,0,1.87-3.31c0-1-.83-1.22-1.87-.44a4.75,4.75,0,0,0-1.88,3.24C131.3,64.22,132.15,64.46,133.18,63.69Z"/><path id="路径_13346" data-name="路径 13346" class="cls-4" d="M137.74,62.25a5.16,5.16,0,0,0,1.88-3.4c0-1-.84-1.19-1.88-.35a5.13,5.13,0,0,0-1.87,3.38C135.87,62.92,136.7,63.09,137.74,62.25Z"/><path id="路径_13347" data-name="路径 13347" class="cls-4" d="M141.63,62.33A5.14,5.14,0,0,0,143.51,59c0-1-.84-1.23-1.88-.39A5.18,5.18,0,0,0,139.74,62C139.74,63,140.58,63.17,141.63,62.33Z"/><path id="路径_13348" data-name="路径 13348" class="cls-4" d="M144.59,64.08a4.89,4.89,0,0,0,1.89-3.29c0-1-.85-1.27-1.89-.48a5,5,0,0,0-1.88,3.36C142.71,64.71,143.55,64.88,144.59,64.08Z"/><path id="路径_13349" data-name="路径 13349" class="cls-4" d="M146.45,67.4a4.7,4.7,0,0,0,1.9-3.23c0-1.05-.86-1.32-1.9-.57a4.81,4.81,0,0,0-1.9,3.32C144.55,68,145.39,68.16,146.45,67.4Z"/><path id="路径_13350" data-name="路径 13350" class="cls-4" d="M151.11,69.07a3.36,3.36,0,0,0,1.64-2.55c0-.91-.74-1.26-1.64-.73a3.47,3.47,0,0,0-1.64,2.64C149.47,69.34,150.19,69.6,151.11,69.07Z"/><path id="路径_13351" data-name="路径 13351" class="cls-4" d="M150.58,74.4a3.42,3.42,0,0,0,1.64-2.58c0-.91-.74-1.24-1.64-.7a3.56,3.56,0,0,0-1.64,2.68C148.94,74.7,149.67,75,150.58,74.4Z"/><path id="路径_13352" data-name="路径 13352" class="cls-4" d="M149,80.19a3.66,3.66,0,0,0,1.64-2.67c0-.91-.74-1.2-1.64-.61a3.77,3.77,0,0,0-1.64,2.75C147.38,80.57,148.11,80.79,149,80.19Z"/><path id="路径_13353" data-name="路径 13353" class="cls-4" d="M146.49,86.31a4.08,4.08,0,0,0,1.65-2.8c0-.91-.74-1.14-1.65-.49a4.19,4.19,0,0,0-1.64,2.86C144.85,86.79,145.58,87,146.49,86.31Z"/><path id="路径_13354" data-name="路径 13354" class="cls-4" d="M143.12,92.62a4.36,4.36,0,0,0,1.64-2.91c0-.91-.74-1.08-1.64-.37a4.39,4.39,0,0,0-1.64,3C141.48,93.2,142.21,93.34,143.12,92.62Z"/><path id="路径_13355" data-name="路径 13355" class="cls-4" d="M139,98.88a4.54,4.54,0,0,0,1.64-3c0-.91-.73-1-1.64-.31a4.52,4.52,0,0,0-1.64,3C137.39,99.47,138.13,99.61,139,98.88Z"/><path id="路径_13356" data-name="路径 13356" class="cls-4" d="M134.42,104.61a4.38,4.38,0,0,0,1.64-2.92c0-.91-.73-1.06-1.64-.36a4.32,4.32,0,0,0-1.64,2.89C132.78,105.12,133.52,105.31,134.42,104.61Z"/><path id="路径_13357" data-name="路径 13357" class="cls-4" d="M129.48,109.22a3.78,3.78,0,0,0,1.64-2.76c0-.9-.73-1.12-1.64-.52a3.66,3.66,0,0,0-1.64,2.66C127.84,109.51,128.58,109.81,129.48,109.22Z"/><path id="路径_13358" data-name="路径 13358" class="cls-4" d="M124.44,112.06a3.06,3.06,0,0,0,1.64-2.46c0-.9-.73-1.24-1.64-.82a2.87,2.87,0,0,0-1.64,2.34C122.79,112,123.54,112.48,124.44,112.06Z"/><path id="路径_13359" data-name="路径 13359" class="cls-4" d="M119.49,112.74a2.25,2.25,0,0,0,1.64-2.08,1.21,1.21,0,0,0-1.17-1.27,1.08,1.08,0,0,0-.47.07,2.11,2.11,0,0,0-1.64,2,1.31,1.31,0,0,0,1.24,1.37A1.09,1.09,0,0,0,119.49,112.74Z"/><path id="路径_13360" data-name="路径 13360" class="cls-4" d="M114.88,111.19a1.67,1.67,0,0,0,1.63-1.68,1.59,1.59,0,0,0-1.6-1.58h0a1.57,1.57,0,0,0-1.63,1.47v.07A1.72,1.72,0,0,0,114.88,111.19Z"/><path id="路径_13361" data-name="路径 13361" class="cls-4" d="M110.8,107.74a1.31,1.31,0,0,0,1.59-.95,1.67,1.67,0,0,0,0-.39,2.09,2.09,0,0,0-1.63-1.92,1.22,1.22,0,0,0-1.56.75,1.18,1.18,0,0,0-.07.45A2.22,2.22,0,0,0,110.8,107.74Z"/><path id="路径_13362" data-name="路径 13362" class="cls-4" d="M107.42,103a1.11,1.11,0,0,0,1.5-.46,1.12,1.12,0,0,0,.13-.6,2.58,2.58,0,0,0-1.63-2.2c-.91-.35-1.63,0-1.63.93A2.75,2.75,0,0,0,107.42,103Z"/><path id="路径_13363" data-name="路径 13363" class="cls-4" d="M104.89,97.46c.9.45,1.63,0,1.63-.87a3,3,0,0,0-1.63-2.39c-.9-.45-1.62-.13-1.62.77A3.12,3.12,0,0,0,104.89,97.46Z"/><path id="路径_13364" data-name="路径 13364" class="cls-4" d="M103.34,91.82c.88.5,1.61.13,1.61-.76a3.2,3.2,0,0,0-1.61-2.47c-.9-.5-1.62-.23-1.62.66A3.35,3.35,0,0,0,103.34,91.82Z"/><path id="路径_13365" data-name="路径 13365" class="cls-4" d="M102.81,86.5c.88.52,1.61.17,1.61-.73a3.32,3.32,0,0,0-1.61-2.51c-.9-.52-1.62-.26-1.62.64A3.42,3.42,0,0,0,102.81,86.5Z"/><path id="路径_13366" data-name="路径 13366" class="cls-4" d="M103.34,81.78c.88.5,1.61.13,1.61-.76a3.2,3.2,0,0,0-1.61-2.47c-.9-.5-1.62-.24-1.62.66A3.37,3.37,0,0,0,103.34,81.78Z"/><path id="路径_13367" data-name="路径 13367" class="cls-4" d="M104.89,77.81c.89.44,1.62,0,1.62-.87a2.93,2.93,0,0,0-1.62-2.37c-.9-.45-1.61-.13-1.61.76A3.09,3.09,0,0,0,104.89,77.81Z"/><path id="路径_13368" data-name="路径 13368" class="cls-4" d="M107.42,74.55a1.1,1.1,0,0,0,1.49-.44,1.18,1.18,0,0,0,.13-.61,2.57,2.57,0,0,0-1.62-2.18c-.9-.35-1.62,0-1.62.93A2.7,2.7,0,0,0,107.42,74.55Z"/><path id="路径_13369" data-name="路径 13369" class="cls-4" d="M110.8,71.84a1.31,1.31,0,0,0,1.58-.94,1.29,1.29,0,0,0,0-.39,2.06,2.06,0,0,0-1.61-1.91,1.22,1.22,0,0,0-1.55.75,1.1,1.1,0,0,0-.07.44A2.22,2.22,0,0,0,110.8,71.84Z"/><path id="路径_13370" data-name="路径 13370" class="cls-4" d="M114.88,69.35a1.66,1.66,0,0,0,1.62-1.67,1.59,1.59,0,0,0-1.6-1.57h0a1.54,1.54,0,0,0-1.61,1.47.15.15,0,0,0,0,.07A1.7,1.7,0,0,0,114.88,69.35Z"/><path id="路径_13371" data-name="路径 13371" class="cls-4" d="M119.49,66.78a2.22,2.22,0,0,0,1.62-2A1.2,1.2,0,0,0,120,63.48a1,1,0,0,0-.46.07,2.07,2.07,0,0,0-1.61,1.92,1.26,1.26,0,0,0,1.61,1.31Z"/><path id="路径_13372" data-name="路径 13372" class="cls-4" d="M124.43,64a3,3,0,0,0,1.62-2.43c0-.89-.72-1.23-1.62-.81a2.84,2.84,0,0,0-1.62,2.31C122.81,64,123.54,64.42,124.43,64Z"/><path id="路径_13373" data-name="路径 13373" class="cls-4" d="M129.48,61.16a3.79,3.79,0,0,0,1.62-2.72c0-.89-.72-1.11-1.62-.52a3.66,3.66,0,0,0-1.62,2.64C127.86,61.45,128.59,61.74,129.48,61.16Z"/><path id="路径_13374" data-name="路径 13374" class="cls-4" d="M134.42,58.67a4.37,4.37,0,0,0,1.63-2.91c0-.9-.73-1-1.63-.35a4.26,4.26,0,0,0-1.63,2.86C132.79,59.17,133.52,59.36,134.42,58.67Z"/><path id="路径_13375" data-name="路径 13375" class="cls-4" d="M139,57a4.5,4.5,0,0,0,1.63-2.95c0-.9-.73-1-1.63-.31a4.52,4.52,0,0,0-1.63,2.95C137.4,57.63,138.13,57.77,139,57Z"/><path id="路径_13376" data-name="路径 13376" class="cls-4" d="M143.12,56.72a4.37,4.37,0,0,0,1.63-2.89c0-.9-.74-1.07-1.63-.37a4.37,4.37,0,0,0-1.63,2.93C141.49,57.29,142.21,57.43,143.12,56.72Z"/><path id="路径_13377" data-name="路径 13377" class="cls-4" d="M146.49,57.91a4,4,0,0,0,1.63-2.78c0-.9-.73-1.13-1.63-.48a4.14,4.14,0,0,0-1.63,2.84C144.87,58.39,145.59,58.56,146.49,57.91Z"/><path id="路径_13378" data-name="路径 13378" class="cls-4" d="M149,60.54a3.66,3.66,0,0,0,1.64-2.67c0-.91-.74-1.2-1.64-.61A3.79,3.79,0,0,0,147.38,60C147.38,60.92,148.11,61.14,149,60.54Z"/><path id="路径_13379" data-name="路径 13379" class="cls-4" d="M150.58,64.36a3.43,3.43,0,0,0,1.64-2.58c0-.91-.74-1.24-1.64-.7a3.56,3.56,0,0,0-1.64,2.68C148.94,64.66,149.67,64.91,150.58,64.36Z"/><path id="路径_13380" data-name="路径 13380" class="cls-4" d="M155.13,66.78a2.32,2.32,0,0,0,1.39-1.92.92.92,0,0,0-1.39-.85,2.41,2.41,0,0,0-1.38,2C153.75,66.78,154.36,67.1,155.13,66.78Z"/><path id="路径_13381" data-name="路径 13381" class="cls-4" d="M154.68,72a2.4,2.4,0,0,0,1.4-2c0-.77-.63-1.16-1.4-.82a2.47,2.47,0,0,0-1.4,2C153.28,72.05,153.9,72.36,154.68,72Z"/><path id="路径_13382" data-name="路径 13382" class="cls-4" d="M153.33,77.51a2.53,2.53,0,0,0,1.4-2c0-.77-.62-1.13-1.4-.75a2.7,2.7,0,0,0-1.4,2.13C151.94,77.62,152.55,77.9,153.33,77.51Z"/><path id="路径_13383" data-name="路径 13383" class="cls-4" d="M151.14,83.25a2.83,2.83,0,0,0,1.4-2.17c0-.77-.63-1.06-1.4-.62a3,3,0,0,0-1.4,2.25C149.75,83.48,150.37,83.7,151.14,83.25Z"/><path id="路径_13384" data-name="路径 13384" class="cls-4" d="M148.17,89.22a3.2,3.2,0,0,0,1.4-2.32c0-.77-.62-1-1.4-.47a3.38,3.38,0,0,0-1.4,2.37C146.78,89.57,147.4,89.75,148.17,89.22Z"/><path id="路径_13385" data-name="路径 13385" class="cls-4" d="M144.52,95.36a3.61,3.61,0,0,0,1.4-2.44c0-.77-.62-.93-1.4-.34a3.67,3.67,0,0,0-1.4,2.47C143.13,95.82,143.75,96,144.52,95.36Z"/><path id="路径_13386" data-name="路径 13386" class="cls-4" d="M140.31,101.49a3.89,3.89,0,0,0,1.4-2.52c0-.77-.63-.89-1.4-.27a3.85,3.85,0,0,0-1.4,2.53C138.91,102,139.54,102.12,140.31,101.49Z"/><path id="路径_13387" data-name="路径 13387" class="cls-4" d="M135.66,107.22a3.76,3.76,0,0,0,1.4-2.5c0-.77-.62-.9-1.4-.29a3.76,3.76,0,0,0-1.4,2.49C134.27,107.69,134.89,107.83,135.66,107.22Z"/><path id="路径_13388" data-name="路径 13388" class="cls-4" d="M130.74,112a3.35,3.35,0,0,0,1.38-2.37c0-.76-.61-.93-1.38-.4a3.3,3.3,0,0,0-1.39,2.32C129.35,112.33,130,112.54,130.74,112Z"/><path id="路径_13389" data-name="路径 13389" class="cls-4" d="M125.69,115.32a2.72,2.72,0,0,0,1.39-2.14c0-.76-.62-1-1.39-.63a2.59,2.59,0,0,0-1.38,2.06C124.31,115.37,124.93,115.71,125.69,115.32Z"/><path id="路径_13390" data-name="路径 13390" class="cls-4" d="M120.69,116.68a2,2,0,0,0,1.38-1.84,1,1,0,0,0-.93-1,.87.87,0,0,0-.45.09,1.94,1.94,0,0,0-1.39,1.74,1,1,0,0,0,1,1.09A1.22,1.22,0,0,0,120.69,116.68Z"/><path id="路径_13391" data-name="路径 13391" class="cls-4" d="M115.88,115.92a1.51,1.51,0,0,0,1.39-1.49,1.27,1.27,0,0,0-1.27-1.28h-.12a1.41,1.41,0,0,0-1.38,1.39,1.36,1.36,0,0,0,1.34,1.38Z"/><path id="路径_13392" data-name="路径 13392" class="cls-4" d="M111.44,113.2a1.16,1.16,0,0,0,1.36-.89,1.32,1.32,0,0,0,0-.28,1.7,1.7,0,0,0-1.38-1.6,1.09,1.09,0,0,0-1.35.73,1.27,1.27,0,0,0,0,.34A1.81,1.81,0,0,0,111.44,113.2Z"/><path id="路径_13393" data-name="路径 13393" class="cls-4" d="M107.49,108.91a.94.94,0,0,0,1.27-.39,1,1,0,0,0,.11-.51,2.19,2.19,0,0,0-1.38-1.87c-.77-.3-1.39,0-1.39.8A2.31,2.31,0,0,0,107.49,108.91Z"/><path id="路径_13394" data-name="路径 13394" class="cls-4" d="M104.16,103.57c.76.4,1.37.07,1.38-.69a2.64,2.64,0,0,0-1.38-2.06c-.76-.4-1.37-.15-1.37.61A2.73,2.73,0,0,0,104.16,103.57Z"/><path id="路径_13395" data-name="路径 13395" class="cls-4" d="M101.57,97.74c.76.47,1.37.2,1.38-.55a3,3,0,0,0-1.38-2.2c-.76-.48-1.37-.28-1.37.48A3.08,3.08,0,0,0,101.57,97.74Z"/><path id="路径_13396" data-name="路径 13396" class="cls-4" d="M99.8,91.85c.75.51,1.37.29,1.37-.47A3.22,3.22,0,0,0,99.8,89.1c-.76-.51-1.37-.34-1.38.42A3.31,3.31,0,0,0,99.8,91.85Z"/><path id="路径_13397" data-name="路径 13397" class="cls-4" d="M98.9,86.25c.75.53,1.37.33,1.37-.43a3.31,3.31,0,0,0-1.37-2.31c-.77-.54-1.38-.38-1.38.38A3.41,3.41,0,0,0,98.9,86.25Z"/><path id="路径_13398" data-name="路径 13398" class="cls-4" d="M98.89,81.19c.75.53,1.36.32,1.36-.43a3.27,3.27,0,0,0-1.36-2.3c-.75-.53-1.36-.37-1.36.38A3.35,3.35,0,0,0,98.89,81.19Z"/><path id="路径_13399" data-name="路径 13399" class="cls-4" d="M99.8,76.85c.75.5,1.36.28,1.36-.47a3.17,3.17,0,0,0-1.36-2.26c-.76-.51-1.36-.34-1.36.41A3.25,3.25,0,0,0,99.8,76.85Z"/><path id="路径_13400" data-name="路径 13400" class="cls-4" d="M101.57,73.28c.75.46,1.36.2,1.36-.55a2.92,2.92,0,0,0-1.36-2.18c-.75-.47-1.36-.27-1.36.49A3,3,0,0,0,101.57,73.28Z"/><path id="路径_13401" data-name="路径 13401" class="cls-4" d="M104.16,70.44c.75.39,1.36.07,1.37-.68a2.64,2.64,0,0,0-1.37-2.05c-.75-.4-1.36-.14-1.36.61A2.72,2.72,0,0,0,104.16,70.44Z"/><path id="路径_13402" data-name="路径 13402" class="cls-4" d="M107.49,68.16a.92.92,0,0,0,1.25-.38,1,1,0,0,0,.11-.51,2.19,2.19,0,0,0-1.36-1.84c-.76-.29-1.37,0-1.37.8A2.28,2.28,0,0,0,107.49,68.16Z"/><path id="路径_13403" data-name="路径 13403" class="cls-4" d="M111.44,66.15a1.12,1.12,0,0,0,1.33-.87,1.36,1.36,0,0,0,0-.29,1.69,1.69,0,0,0-1.36-1.57,1.06,1.06,0,0,0-1.32.73.91.91,0,0,0-.05.33A1.79,1.79,0,0,0,111.44,66.15Z"/><path id="路径_13404" data-name="路径 13404" class="cls-4" d="M115.88,64.08a1.49,1.49,0,0,0,1.37-1.47A1.27,1.27,0,0,0,116,61.35h-.11a1.38,1.38,0,0,0-1.36,1.37,1.33,1.33,0,0,0,1.32,1.35Z"/><path id="路径_13405" data-name="路径 13405" class="cls-4" d="M120.69,61.72a2,2,0,0,0,1.36-1.8,1,1,0,0,0-1.36-.93,1.9,1.9,0,0,0-1.36,1.71,1,1,0,0,0,1,1.08A1.4,1.4,0,0,0,120.69,61.72Z"/><path id="路径_13406" data-name="路径 13406" class="cls-4" d="M125.69,59a2.63,2.63,0,0,0,1.36-2.1c0-.75-.6-1-1.36-.62a2.58,2.58,0,0,0-1.36,2C124.33,59.06,124.94,59.38,125.69,59Z"/><path id="路径_13407" data-name="路径 13407" class="cls-4" d="M130.74,56.17a3.33,3.33,0,0,0,1.37-2.35c0-.76-.61-.93-1.37-.4a3.21,3.21,0,0,0-1.37,2.29C129.37,56.47,130,56.69,130.74,56.17Z"/><path id="路径_13408" data-name="路径 13408" class="cls-4" d="M135.66,53.61A3.73,3.73,0,0,0,137,51.14c0-.76-.62-.88-1.38-.28a3.74,3.74,0,0,0-1.37,2.45C134.29,54.07,134.9,54.21,135.66,53.61Z"/><path id="路径_13409" data-name="路径 13409" class="cls-4" d="M140.31,51.85a3.8,3.8,0,0,0,1.37-2.48c0-.76-.61-.88-1.37-.27a3.83,3.83,0,0,0-1.37,2.49C138.94,52.35,139.55,52.46,140.31,51.85Z"/><path id="路径_13410" data-name="路径 13410" class="cls-4" d="M144.52,51.29a3.58,3.58,0,0,0,1.38-2.41c0-.76-.62-.92-1.38-.34A3.65,3.65,0,0,0,143.15,51C143.15,51.74,143.76,51.87,144.52,51.29Z"/><path id="路径_13411" data-name="路径 13411" class="cls-4" d="M148.17,52.12a3.19,3.19,0,0,0,1.38-2.28c0-.75-.62-1-1.38-.46a3.27,3.27,0,0,0-1.37,2.33C146.8,52.47,147.41,52.64,148.17,52.12Z"/><path id="路径_13412" data-name="路径 13412" class="cls-4" d="M151.14,54.34a2.87,2.87,0,0,0,1.39-2.16c0-.76-.63-1-1.39-.61a3,3,0,0,0-1.38,2.23C149.76,54.56,150.37,54.79,151.14,54.34Z"/><path id="路径_13413" data-name="路径 13413" class="cls-4" d="M153.33,57.71a2.55,2.55,0,0,0,1.39-2c0-.77-.63-1.12-1.39-.74A2.69,2.69,0,0,0,152,57.05C152,57.81,152.57,58.09,153.33,57.71Z"/><path id="路径_13414" data-name="路径 13414" class="cls-4" d="M154.68,61.94A2.34,2.34,0,0,0,156.06,60c0-.76-.62-1.15-1.38-.82a2.5,2.5,0,0,0-1.39,2C153.3,62,153.91,62.28,154.68,61.94Z"/><path id="路径_13415" data-name="路径 13415" class="cls-4" d="M159.16,65.23a1.46,1.46,0,0,0,1.13-1.36.9.9,0,0,0-.85-.95,1.33,1.33,0,0,0-.28,0A1.56,1.56,0,0,0,158,64.38a.85.85,0,0,0,.83.89A.83.83,0,0,0,159.16,65.23Z"/><path id="路径_13416" data-name="路径 13416" class="cls-4" d="M158.76,70.36A1.5,1.5,0,0,0,159.9,69a.88.88,0,0,0-.84-.93.77.77,0,0,0-.3,0,1.59,1.59,0,0,0-1.14,1.45.85.85,0,0,0,.81.88A.72.72,0,0,0,158.76,70.36Z"/><path id="路径_13417" data-name="路径 13417" class="cls-4" d="M157.58,75.6a1.64,1.64,0,0,0,1.14-1.46.84.84,0,0,0-.78-.88,1,1,0,0,0-.36.06,1.72,1.72,0,0,0-1.14,1.52.8.8,0,0,0,.77.83A.81.81,0,0,0,157.58,75.6Z"/><path id="路径_13418" data-name="路径 13418" class="cls-4" d="M155.65,80.94a1.82,1.82,0,0,0,1.13-1.55.76.76,0,0,0-.7-.82.72.72,0,0,0-.43.1,1.91,1.91,0,0,0-1.14,1.62C154.51,80.91,155,81.19,155.65,80.94Z"/><path id="路径_13419" data-name="路径 13419" class="cls-4" d="M153,86.45a2.12,2.12,0,0,0,1.13-1.69c0-.63-.51-.9-1.13-.59a2.2,2.2,0,0,0-1.14,1.75C151.87,86.54,152.37,86.77,153,86.45Z"/><path id="路径_13420" data-name="路径 13420" class="cls-4" d="M149.72,92.18a2.51,2.51,0,0,0,1.14-1.84c0-.63-.51-.84-1.14-.44a2.52,2.52,0,0,0-1.13,1.88C148.58,92.41,149.09,92.58,149.72,92.18Z"/><path id="路径_13421" data-name="路径 13421" class="cls-4" d="M145.89,98.11a2.86,2.86,0,0,0,1.13-2c0-.63-.51-.77-1.13-.31a2.9,2.9,0,0,0-1.14,2C144.75,98.46,145.25,98.57,145.89,98.11Z"/><path id="路径_13422" data-name="路径 13422" class="cls-4" d="M141.57,104.09a3.08,3.08,0,0,0,1.14-2c0-.62-.51-.73-1.14-.23a3.12,3.12,0,0,0-1.13,2.06C140.44,104.5,141,104.6,141.57,104.09Z"/><path id="路径_13423" data-name="路径 13423" class="cls-4" d="M136.91,109.81a3.12,3.12,0,0,0,1.13-2.06c0-.63-.5-.73-1.13-.22a3.13,3.13,0,0,0-1.14,2C135.77,110.2,136.28,110.31,136.91,109.81Z"/><path id="路径_13424" data-name="路径 13424" class="cls-4" d="M132,114.77a2.87,2.87,0,0,0,1.14-2c0-.63-.5-.76-1.14-.3a2.82,2.82,0,0,0-1.13,1.94C130.86,115.06,131.37,115.22,132,114.77Z"/><path id="路径_13425" data-name="路径 13425" class="cls-4" d="M127,118.44a2.42,2.42,0,0,0,1.14-1.81c0-.63-.51-.82-1.14-.47a2.3,2.3,0,0,0-1.14,1.76C125.82,118.55,126.33,118.79,127,118.44Z"/><path id="路径_13426" data-name="路径 13426" class="cls-4" d="M121.92,120.37a1.83,1.83,0,0,0,1.14-1.57c0-.63-.51-.93-1.14-.71a1.75,1.75,0,0,0-1.14,1.5.8.8,0,0,0,.75.85A.75.75,0,0,0,121.92,120.37Z"/><path id="路径_13427" data-name="路径 13427" class="cls-4" d="M117,120.3a1.31,1.31,0,0,0,1.12-1.28,1,1,0,0,0-1-1H117a1.25,1.25,0,0,0-1.13,1.21,1,1,0,0,0,1,1Z"/><path id="路径_13428" data-name="路径 13428" class="cls-4" d="M112.34,118.27a1,1,0,0,0,1.11-.82.55.55,0,0,0,0-.18,1.31,1.31,0,0,0-1.12-1.26.93.93,0,0,0-1.11.72,1.49,1.49,0,0,0,0,.21A1.4,1.4,0,0,0,112.34,118.27Z"/><path id="路径_13429" data-name="路径 13429" class="cls-4" d="M108,114.54a.79.79,0,0,0,1.13-.76,1.75,1.75,0,0,0-1.13-1.5c-.63-.22-1.13.07-1.13.7A1.83,1.83,0,0,0,108,114.54Z"/><path id="路径_13430" data-name="路径 13430" class="cls-4" d="M104.19,109.54c.62.33,1.12.07,1.12-.56a2.14,2.14,0,0,0-1.12-1.69c-.63-.33-1.13-.12-1.13.5A2.22,2.22,0,0,0,104.19,109.54Z"/><path id="路径_13431" data-name="路径 13431" class="cls-4" d="M100.91,103.76c.61.4,1.11.2,1.11-.42a2.47,2.47,0,0,0-1.11-1.81c-.62-.4-1.12-.25-1.12.37A2.57,2.57,0,0,0,100.91,103.76Z"/><path id="路径_13432" data-name="路径 13432" class="cls-4" d="M98.27,97.64c.61.44,1.11.29,1.11-.33a2.74,2.74,0,0,0-1.11-1.9c-.62-.44-1.12-.32-1.12.3A2.78,2.78,0,0,0,98.27,97.64Z"/><path id="路径_13433" data-name="路径 13433" class="cls-4" d="M96.33,91.54c.62.47,1.12.34,1.12-.28a2.86,2.86,0,0,0-1.12-2c-.62-.47-1.11-.37-1.11.25A2.93,2.93,0,0,0,96.33,91.54Z"/><path id="路径_13434" data-name="路径 13434" class="cls-4" d="M95.15,85.71c.62.48,1.12.37,1.12-.25a3,3,0,0,0-1.12-2C94.54,83,94,83.1,94,83.72A3,3,0,0,0,95.15,85.71Z"/><path id="路径_13435" data-name="路径 13435" class="cls-4" d="M94.76,80.37c.61.48,1.11.37,1.11-.25a3,3,0,0,0-1.11-2c-.62-.48-1.12-.38-1.12.23A3,3,0,0,0,94.76,80.37Z"/><path id="路径_13436" data-name="路径 13436" class="cls-4" d="M95.15,75.64c.62.48,1.12.36,1.12-.25a2.92,2.92,0,0,0-1.12-2c-.61-.49-1.11-.38-1.11.23A3,3,0,0,0,95.15,75.64Z"/><path id="路径_13437" data-name="路径 13437" class="cls-4" d="M96.33,71.64c.62.47,1.12.34,1.12-.28a2.86,2.86,0,0,0-1.12-2c-.62-.47-1.11-.37-1.11.25A2.93,2.93,0,0,0,96.33,71.64Z"/><path id="路径_13438" data-name="路径 13438" class="cls-4" d="M98.27,68.39c.6.44,1.1.29,1.1-.32a2.77,2.77,0,0,0-1.1-1.89c-.62-.44-1.1-.31-1.11.3A2.76,2.76,0,0,0,98.27,68.39Z"/><path id="路径_13439" data-name="路径 13439" class="cls-4" d="M100.91,65.89c.6.4,1.1.2,1.1-.41a2.51,2.51,0,0,0-1.1-1.8c-.62-.4-1.1-.23-1.11.38A2.5,2.5,0,0,0,100.91,65.89Z"/><path id="路径_13440" data-name="路径 13440" class="cls-4" d="M104.19,64c.61.32,1.1.06,1.1-.55a2.1,2.1,0,0,0-1.1-1.66c-.62-.33-1.1-.12-1.11.5A2.22,2.22,0,0,0,104.19,64Z"/><path id="路径_13441" data-name="路径 13441" class="cls-4" d="M108,62.41a.77.77,0,0,0,1-.34.88.88,0,0,0,.08-.39A1.72,1.72,0,0,0,108,60.2c-.61-.22-1.1.07-1.1.68A1.76,1.76,0,0,0,108,62.41Z"/><path id="路径_13442" data-name="路径 13442" class="cls-4" d="M112.34,60.87a1,1,0,0,0,1.09-.8.55.55,0,0,0,0-.18,1.27,1.27,0,0,0-1.1-1.23.9.9,0,0,0-1.08.7.75.75,0,0,0,0,.21A1.35,1.35,0,0,0,112.34,60.87Z"/><path id="路径_13443" data-name="路径 13443" class="cls-4" d="M117,59a1.31,1.31,0,0,0,1.12-1.26,1,1,0,0,0-1-1,.49.49,0,0,0-.17,0,1.22,1.22,0,0,0-1.11,1.2,1,1,0,0,0,1,1Z"/><path id="路径_13444" data-name="路径 13444" class="cls-4" d="M121.92,56.74A1.78,1.78,0,0,0,123,55.21c0-.62-.5-.91-1.12-.7A1.7,1.7,0,0,0,120.8,56a.79.79,0,0,0,.73.84A.76.76,0,0,0,121.92,56.74Z"/><path id="路径_13445" data-name="路径 13445" class="cls-4" d="M127,54a2.33,2.33,0,0,0,1.11-1.77c0-.62-.5-.81-1.11-.46a2.23,2.23,0,0,0-1.12,1.72C125.84,54.13,126.34,54.36,127,54Z"/><path id="路径_13446" data-name="路径 13446" class="cls-4" d="M132,51.14a2.82,2.82,0,0,0,1.12-1.94c0-.62-.5-.74-1.12-.29a2.74,2.74,0,0,0-1.11,1.9C130.88,51.43,131.38,51.58,132,51.14Z"/><path id="路径_13447" data-name="路径 13447" class="cls-4" d="M136.91,48.53a3,3,0,0,0,1.11-2c0-.62-.5-.71-1.11-.22a3.08,3.08,0,0,0-1.12,2C135.8,48.92,136.3,49,136.91,48.53Z"/><path id="路径_13448" data-name="路径 13448" class="cls-4" d="M141.57,46.69a3.08,3.08,0,0,0,1.12-2c0-.61-.5-.72-1.12-.22a3,3,0,0,0-1.11,2C140.46,47.09,141,47.19,141.57,46.69Z"/><path id="路径_13449" data-name="路径 13449" class="cls-4" d="M145.88,46A2.76,2.76,0,0,0,147,44.06c0-.62-.5-.76-1.12-.31a2.87,2.87,0,0,0-1.11,2C144.77,46.32,145.26,46.44,145.88,46Z"/><path id="路径_13450" data-name="路径 13450" class="cls-4" d="M149.72,46.63a2.44,2.44,0,0,0,1.13-1.82c0-.62-.51-.83-1.13-.43a2.55,2.55,0,0,0-1.12,1.86C148.6,46.86,149.1,47,149.72,46.63Z"/><path id="路径_13451" data-name="路径 13451" class="cls-4" d="M153,48.59a2.14,2.14,0,0,0,1.13-1.68c0-.62-.51-.89-1.13-.58a2.21,2.21,0,0,0-1.13,1.73C151.88,48.68,152.38,48.91,153,48.59Z"/><path id="路径_13452" data-name="路径 13452" class="cls-4" d="M155.65,51.69a1.81,1.81,0,0,0,1.12-1.54.75.75,0,0,0-.7-.81.77.77,0,0,0-.42.1,1.88,1.88,0,0,0-1.13,1.6C154.52,51.66,155,51.94,155.65,51.69Z"/><path id="路径_13453" data-name="路径 13453" class="cls-4" d="M157.58,55.69a1.63,1.63,0,0,0,1.13-1.44.83.83,0,0,0-.77-.88,1.09,1.09,0,0,0-.36.06,1.71,1.71,0,0,0-1.13,1.5.79.79,0,0,0,.75.83A.83.83,0,0,0,157.58,55.69Z"/><path id="路径_13454" data-name="路径 13454" class="cls-4" d="M158.76,60.29a1.52,1.52,0,0,0,1.14-1.39.88.88,0,0,0-.84-.93,1,1,0,0,0-.3,0,1.58,1.58,0,0,0-1.14,1.45.85.85,0,0,0,.81.88A1.14,1.14,0,0,0,158.76,60.29Z"/><path id="路径_13455" data-name="路径 13455" class="cls-4" d="M163.18,64.48a.88.88,0,0,0,.92-.85.9.9,0,0,0-.85-.91h-.07a.92.92,0,0,0-.88.92.85.85,0,0,0,.85.85Z"/><path id="路径_13456" data-name="路径 13456" class="cls-4" d="M162.83,69.54a.9.9,0,0,0,.88-.9.87.87,0,0,0-.86-.87h0a.93.93,0,0,0-.88.93.83.83,0,0,0,.82.84Z"/><path id="路径_13457" data-name="路径 13457" class="cls-4" d="M161.78,74.54a1,1,0,0,0,.88-.94.8.8,0,0,0-.79-.82h-.09a1,1,0,0,0-.88,1,.77.77,0,0,0,.76.79Z"/><path id="路径_13458" data-name="路径 13458" class="cls-4" d="M160.05,79.53a1.09,1.09,0,0,0,.88-1,.72.72,0,0,0-.7-.76h-.18a1.12,1.12,0,0,0-.88,1.06.7.7,0,0,0,.67.73Z"/><path id="路径_13459" data-name="路径 13459" class="cls-4" d="M157.68,84.56a1.27,1.27,0,0,0,.88-1.13.65.65,0,0,0-.61-.68.63.63,0,0,0-.27,0A1.3,1.3,0,0,0,156.8,84a.61.61,0,0,0,.59.65A.58.58,0,0,0,157.68,84.56Z"/><path id="路径_13460" data-name="路径 13460" class="cls-4" d="M154.71,89.74a1.5,1.5,0,0,0,.88-1.25c0-.48-.4-.72-.88-.51a1.57,1.57,0,0,0-.89,1.29C153.82,89.75,154.22,90,154.71,89.74Z"/><path id="路径_13461" data-name="路径 13461" class="cls-4" d="M151.2,95.18a1.85,1.85,0,0,0,.88-1.38c0-.49-.4-.67-.88-.39a1.89,1.89,0,0,0-.89,1.41C150.31,95.31,150.71,95.46,151.2,95.18Z"/><path id="路径_13462" data-name="路径 13462" class="cls-4" d="M147.21,100.87a2.11,2.11,0,0,0,.89-1.5c0-.48-.4-.61-.89-.26a2.15,2.15,0,0,0-.88,1.51C146.33,101.11,146.72,101.22,147.21,100.87Z"/><path id="路径_13463" data-name="路径 13463" class="cls-4" d="M142.84,106.7a2.41,2.41,0,0,0,.88-1.58c0-.48-.4-.57-.88-.18a2.42,2.42,0,0,0-.89,1.58C142,107,142.35,107.08,142.84,106.7Z"/><path id="路径_13464" data-name="路径 13464" class="cls-4" d="M138.15,112.37a2.45,2.45,0,0,0,.88-1.6c0-.49-.39-.56-.88-.16a2.37,2.37,0,0,0-.88,1.59C137.27,112.69,137.66,112.77,138.15,112.37Z"/><path id="路径_13465" data-name="路径 13465" class="cls-4" d="M133.25,117.46a2.3,2.3,0,0,0,.88-1.56c0-.48-.39-.57-.88-.21a2.26,2.26,0,0,0-.88,1.54C132.37,117.72,132.76,117.83,133.25,117.46Z"/><path id="路径_13466" data-name="路径 13466" class="cls-4" d="M128.22,121.44a1.93,1.93,0,0,0,.88-1.43c0-.49-.39-.63-.88-.33a1.91,1.91,0,0,0-.88,1.41C127.34,121.57,127.74,121.74,128.22,121.44Z"/><path id="路径_13467" data-name="路径 13467" class="cls-4" d="M123.17,123.86a1.5,1.5,0,0,0,.88-1.26c0-.48-.39-.69-.88-.5a1.47,1.47,0,0,0-.88,1.23.58.58,0,0,0,.54.62A.67.67,0,0,0,123.17,123.86Z"/><path id="路径_13468" data-name="路径 13468" class="cls-4" d="M118.19,124.42a1.12,1.12,0,0,0,.89-1,.72.72,0,0,0-.7-.73.61.61,0,0,0-.19,0,1.08,1.08,0,0,0-.88,1,.75.75,0,0,0,.72.77Z"/><path id="路径_13469" data-name="路径 13469" class="cls-4" d="M113.39,123a.82.82,0,0,0,.88-.74v-.09a1,1,0,0,0-.88-.93.78.78,0,0,0-.88.66v.12A1,1,0,0,0,113.39,123Z"/><path id="路径_13470" data-name="路径 13470" class="cls-4" d="M108.84,119.89a.63.63,0,0,0,.83-.33.58.58,0,0,0,0-.29,1.29,1.29,0,0,0-.88-1.14.61.61,0,0,0-.82.28.6.6,0,0,0-.06.3A1.34,1.34,0,0,0,108.84,119.89Z"/><path id="路径_13471" data-name="路径 13471" class="cls-4" d="M104.65,115.31c.48.24.87,0,.88-.45a1.66,1.66,0,0,0-.88-1.3c-.48-.24-.87-.06-.87.42A1.7,1.7,0,0,0,104.65,115.31Z"/><path id="路径_13472" data-name="路径 13472" class="cls-4" d="M100.9,109.74c.48.31.87.17.87-.31a1.93,1.93,0,0,0-.87-1.43c-.49-.31-.87-.19-.87.3A2,2,0,0,0,100.9,109.74Z"/><path id="路径_13473" data-name="路径 13473" class="cls-4" d="M97.65,103.62c.48.35.87.24.88-.24a2.17,2.17,0,0,0-.88-1.5c-.48-.35-.87-.26-.87.22A2.22,2.22,0,0,0,97.65,103.62Z"/><path id="路径_13474" data-name="路径 13474" class="cls-4" d="M95,97.3c.48.37.87.28.87-.2A2.25,2.25,0,0,0,95,95.56c-.48-.38-.87-.3-.87.18A2.37,2.37,0,0,0,95,97.3Z"/><path id="路径_13475" data-name="路径 13475" class="cls-4" d="M92.92,91c.47.38.86.3.86-.17a2.42,2.42,0,0,0-.86-1.55c-.48-.38-.86-.31-.86.17A2.32,2.32,0,0,0,92.92,91Z"/><path id="路径_13476" data-name="路径 13476" class="cls-4" d="M91.52,85c.48.39.86.31.86-.16a2.36,2.36,0,0,0-.86-1.56c-.47-.38-.86-.31-.86.16A2.45,2.45,0,0,0,91.52,85Z"/><path id="路径_13477" data-name="路径 13477" class="cls-4" d="M90.82,79.47c.47.39.86.31.86-.16a2.4,2.4,0,0,0-.86-1.56c-.48-.38-.86-.31-.86.16A2.36,2.36,0,0,0,90.82,79.47Z"/><path id="路径_13478" data-name="路径 13478" class="cls-4" d="M90.82,74.42c.47.38.86.31.86-.17a2.38,2.38,0,0,0-.86-1.55c-.48-.39-.86-.32-.86.16A2.4,2.4,0,0,0,90.82,74.42Z"/><path id="路径_13479" data-name="路径 13479" class="cls-4" d="M91.52,70c.48.39.86.32.86-.16a2.32,2.32,0,0,0-.86-1.55c-.47-.39-.86-.32-.86.16A2.4,2.4,0,0,0,91.52,70Z"/><path id="路径_13480" data-name="路径 13480" class="cls-4" d="M92.92,66.25c.47.38.86.3.86-.17a2.42,2.42,0,0,0-.86-1.55c-.48-.38-.86-.31-.86.17A2.32,2.32,0,0,0,92.92,66.25Z"/><path id="路径_13481" data-name="路径 13481" class="cls-4" d="M95,63.27c.48.37.86.28.86-.19A2.29,2.29,0,0,0,95,61.55c-.47-.37-.86-.29-.86.18A2.29,2.29,0,0,0,95,63.27Z"/><path id="路径_13482" data-name="路径 13482" class="cls-4" d="M97.65,61c.47.34.86.24.86-.24a2.14,2.14,0,0,0-.86-1.48c-.48-.35-.86-.26-.86.22A2.21,2.21,0,0,0,97.65,61Z"/><path id="路径_13483" data-name="路径 13483" class="cls-4" d="M100.9,59.41c.47.3.86.16.86-.32a1.93,1.93,0,0,0-.86-1.4c-.48-.31-.86-.18-.86.29A2,2,0,0,0,100.9,59.41Z"/><path id="路径_13484" data-name="路径 13484" class="cls-4" d="M104.65,58.2c.48.24.86,0,.86-.43a1.59,1.59,0,0,0-.86-1.28c-.47-.25-.85-.07-.85.4A1.63,1.63,0,0,0,104.65,58.2Z"/><path id="路径_13485" data-name="路径 13485" class="cls-4" d="M108.84,57.12a.61.61,0,0,0,.81-.32.54.54,0,0,0,0-.28,1.25,1.25,0,0,0-.86-1.11.59.59,0,0,0-.8.28A.71.71,0,0,0,108,56,1.31,1.31,0,0,0,108.84,57.12Z"/><path id="路径_13486" data-name="路径 13486" class="cls-4" d="M113.39,55.84a.78.78,0,0,0,.85-.71.28.28,0,0,0,0-.09.94.94,0,0,0-.86-.91.76.76,0,0,0-.86.65v.11A1,1,0,0,0,113.39,55.84Z"/><path id="路径_13487" data-name="路径 13487" class="cls-4" d="M118.19,54.1a1.07,1.07,0,0,0,.86-1,.7.7,0,0,0-.68-.72l-.18,0a1,1,0,0,0-.86,1,.73.73,0,0,0,.7.75Z"/><path id="路径_13488" data-name="路径 13488" class="cls-4" d="M123.17,51.79a1.46,1.46,0,0,0,.86-1.23c0-.47-.38-.68-.86-.49a1.42,1.42,0,0,0-.86,1.19.57.57,0,0,0,.53.61A.56.56,0,0,0,123.17,51.79Z"/><path id="路径_13489" data-name="路径 13489" class="cls-4" d="M128.22,49a1.87,1.87,0,0,0,.86-1.4c0-.47-.38-.61-.86-.32a1.86,1.86,0,0,0-.86,1.37C127.36,49.14,127.75,49.3,128.22,49Z"/><path id="路径_13490" data-name="路径 13490" class="cls-4" d="M133.25,46.08a2.21,2.21,0,0,0,.86-1.51c0-.47-.39-.56-.86-.2a2.19,2.19,0,0,0-.86,1.5C132.39,46.34,132.77,46.44,133.25,46.08Z"/><path id="路径_13491" data-name="路径 13491" class="cls-4" d="M138.15,43.44a2.34,2.34,0,0,0,.86-1.56c0-.47-.38-.54-.86-.16a2.4,2.4,0,0,0-.86,1.56C137.29,43.76,137.68,43.83,138.15,43.44Z"/><path id="路径_13492" data-name="路径 13492" class="cls-4" d="M142.84,41.57a2.37,2.37,0,0,0,.87-1.55c0-.49-.39-.57-.87-.19a2.31,2.31,0,0,0-.87,1.56C142,41.87,142.35,42,142.84,41.57Z"/><path id="路径_13493" data-name="路径 13493" class="cls-4" d="M147.21,40.8a2.09,2.09,0,0,0,.87-1.48c0-.48-.39-.6-.87-.27a2.16,2.16,0,0,0-.87,1.5C146.34,41,146.73,41.14,147.21,40.8Z"/><path id="路径_13494" data-name="路径 13494" class="cls-4" d="M151.2,41.33a1.83,1.83,0,0,0,.87-1.37c0-.48-.39-.65-.87-.37a1.83,1.83,0,0,0-.88,1.39C150.33,41.46,150.71,41.61,151.2,41.33Z"/><path id="路径_13495" data-name="路径 13495" class="cls-4" d="M154.71,43.16a1.49,1.49,0,0,0,.87-1.23c0-.48-.39-.72-.87-.51a1.53,1.53,0,0,0-.87,1.27C153.84,43.17,154.22,43.37,154.71,43.16Z"/><path id="路径_13496" data-name="路径 13496" class="cls-4" d="M157.68,46.15a1.23,1.23,0,0,0,.87-1.11.64.64,0,0,0-.6-.67.61.61,0,0,0-.27,0,1.29,1.29,0,0,0-.87,1.15.62.62,0,0,0,.58.65A.58.58,0,0,0,157.68,46.15Z"/><path id="路径_13497" data-name="路径 13497" class="cls-4" d="M160.05,50.05a1.07,1.07,0,0,0,.87-1,.72.72,0,0,0-.69-.75.55.55,0,0,0-.18,0,1.1,1.1,0,0,0-.87,1,.7.7,0,0,0,.68.72Z"/><path id="路径_13498" data-name="路径 13498" class="cls-4" d="M161.78,54.57a1,1,0,0,0,.88-.93.81.81,0,0,0-.79-.83h-.09a1,1,0,0,0-.88,1,.77.77,0,0,0,.76.79Z"/><path id="路径_13499" data-name="路径 13499" class="cls-4" d="M162.83,59.45a.89.89,0,0,0,.88-.89.85.85,0,0,0-.85-.87h0a.93.93,0,0,0-.88.93.83.83,0,0,0,.82.83Z"/><path id="路径_13500" data-name="路径 13500" class="cls-4" d="M167.21,64.59a.49.49,0,0,0,.6-.34.39.39,0,0,0,0-.15.8.8,0,0,0-.62-.76.49.49,0,0,0-.61.37.36.36,0,0,0,0,.14A.79.79,0,0,0,167.21,64.59Z"/><path id="路径_13501" data-name="路径 13501" class="cls-4" d="M166.89,69.57a.5.5,0,0,0,.61-.35.38.38,0,0,0,0-.15.78.78,0,0,0-.62-.74.53.53,0,0,0-.62.39s0,.09,0,.13A.77.77,0,0,0,166.89,69.57Z"/><path id="路径_13502" data-name="路径 13502" class="cls-4" d="M165.94,74.41a.55.55,0,0,0,.63-.44.41.41,0,0,0,0-.11.77.77,0,0,0-.64-.73.57.57,0,0,0-.63.47.34.34,0,0,0,0,.1A.73.73,0,0,0,165.94,74.41Z"/><path id="路径_13503" data-name="路径 13503" class="cls-4" d="M164.38,79.07a.58.58,0,0,0,.63-.54.13.13,0,0,0,0-.06.69.69,0,0,0-.64-.67.61.61,0,0,0-.64.58v0A.67.67,0,0,0,164.38,79.07Z"/><path id="路径_13504" data-name="路径 13504" class="cls-4" d="M162.23,83.67a.67.67,0,0,0,.63-.67.6.6,0,0,0-.6-.6h0a.7.7,0,0,0-.64.69.58.58,0,0,0,.58.58Z"/><path id="路径_13505" data-name="路径 13505" class="cls-4" d="M159.52,88.31a.82.82,0,0,0,.64-.76.51.51,0,0,0-.49-.53.39.39,0,0,0-.15,0,.83.83,0,0,0-.64.77.51.51,0,0,0,.49.52Z"/><path id="路径_13506" data-name="路径 13506" class="cls-4" d="M156.3,93.13a1,1,0,0,0,.63-.86.42.42,0,0,0-.4-.46.45.45,0,0,0-.23,0,1,1,0,0,0-.64.88A.43.43,0,0,0,156.3,93.13Z"/><path id="路径_13507" data-name="路径 13507" class="cls-4" d="M152.61,98.24a1.25,1.25,0,0,0,.64-1c0-.36-.29-.5-.64-.31a1.22,1.22,0,0,0-.63,1C152,98.3,152.26,98.42,152.61,98.24Z"/><path id="路径_13508" data-name="路径 13508" class="cls-4" d="M148.52,103.68a1.47,1.47,0,0,0,.64-1.06c0-.35-.29-.45-.64-.21a1.46,1.46,0,0,0-.63,1.06C147.89,103.82,148.17,103.91,148.52,103.68Z"/><path id="路径_13509" data-name="路径 13509" class="cls-4" d="M144.09,109.33a1.66,1.66,0,0,0,.64-1.13c0-.35-.29-.42-.64-.14a1.66,1.66,0,0,0-.63,1.13C143.46,109.54,143.74,109.6,144.09,109.33Z"/><path id="路径_13510" data-name="路径 13510" class="cls-4" d="M139.39,115a1.74,1.74,0,0,0,.64-1.16c0-.35-.28-.4-.64-.12a1.75,1.75,0,0,0-.63,1.16C138.76,115.18,139,115.23,139.39,115Z"/><path id="路径_13511" data-name="路径 13511" class="cls-4" d="M134.5,120.11a1.67,1.67,0,0,0,.62-1.12c0-.34-.28-.4-.62-.13a1.66,1.66,0,0,0-.63,1.1C133.87,120.31,134.15,120.37,134.5,120.11Z"/><path id="路径_13512" data-name="路径 13512" class="cls-4" d="M129.48,124.35a1.44,1.44,0,0,0,.63-1c0-.34-.28-.43-.63-.21a1.39,1.39,0,0,0-.62,1C128.86,124.47,129.14,124.57,129.48,124.35Z"/><path id="路径_13513" data-name="路径 13513" class="cls-4" d="M124.43,127.2a1.12,1.12,0,0,0,.62-.92c0-.34-.27-.49-.62-.33a1.15,1.15,0,0,0-.63.91C123.8,127.2,124.09,127.36,124.43,127.2Z"/><path id="路径_13514" data-name="路径 13514" class="cls-4" d="M119.41,128.31a.84.84,0,0,0,.63-.77.48.48,0,0,0-.46-.5l-.17,0a.83.83,0,0,0-.62.76.49.49,0,0,0,.47.51A.39.39,0,0,0,119.41,128.31Z"/><path id="路径_13515" data-name="路径 13515" class="cls-4" d="M114.52,127.54a.6.6,0,0,0,.62-.6h0a.64.64,0,0,0-.62-.64.62.62,0,0,0-.63.58v0A.66.66,0,0,0,114.52,127.54Z"/><path id="路径_13516" data-name="路径 13516" class="cls-4" d="M109.82,125a.47.47,0,0,0,.6-.28.4.4,0,0,0,0-.19.87.87,0,0,0-.62-.78.46.46,0,0,0-.59.25.43.43,0,0,0,0,.19A.89.89,0,0,0,109.82,125Z"/><path id="路径_13517" data-name="路径 13517" class="cls-4" d="M105.39,120.86c.34.17.62,0,.62-.33a1.14,1.14,0,0,0-.62-.92c-.35-.16-.63,0-.63.32A1.16,1.16,0,0,0,105.39,120.86Z"/><path id="路径_13518" data-name="路径 13518" class="cls-4" d="M101.3,115.59c.34.22.61.11.61-.23a1.33,1.33,0,0,0-.61-1c-.34-.21-.61-.12-.61.22A1.36,1.36,0,0,0,101.3,115.59Z"/><path id="路径_13519" data-name="路径 13519" class="cls-4" d="M97.62,109.6c.33.25.61.17.61-.17a1.57,1.57,0,0,0-.61-1.06c-.34-.25-.62-.18-.62.16A1.54,1.54,0,0,0,97.62,109.6Z"/><path id="路径_13520" data-name="路径 13520" class="cls-4" d="M94.39,103.24c.34.26.62.2.62-.13a1.61,1.61,0,0,0-.62-1.1c-.33-.27-.61-.22-.61.12A1.68,1.68,0,0,0,94.39,103.24Z"/><path id="路径_13521" data-name="路径 13521" class="cls-4" d="M91.69,96.79c.33.28.61.22.61-.12a1.7,1.7,0,0,0-.61-1.11c-.34-.27-.62-.22-.62.12A1.67,1.67,0,0,0,91.69,96.79Z"/><path id="路径_13522" data-name="路径 13522" class="cls-4" d="M89.53,90.47c.34.28.62.22.62-.12a1.76,1.76,0,0,0-.62-1.11c-.34-.27-.61-.22-.61.12A1.68,1.68,0,0,0,89.53,90.47Z"/><path id="路径_13523" data-name="路径 13523" class="cls-4" d="M88,84.41c.34.27.61.21.62-.12A1.71,1.71,0,0,0,88,83.18c-.34-.27-.61-.21-.61.13A1.68,1.68,0,0,0,88,84.41Z"/><path id="路径_13524" data-name="路径 13524" class="cls-4" d="M87,78.68c.33.26.6.21.6-.13a1.66,1.66,0,0,0-.6-1.08c-.33-.26-.6-.2-.6.13A1.64,1.64,0,0,0,87,78.68Z"/><path id="路径_13525" data-name="路径 13525" class="cls-4" d="M86.71,73.39c.33.26.6.2.6-.13a1.64,1.64,0,0,0-.6-1.08c-.33-.26-.6-.2-.6.13A1.6,1.6,0,0,0,86.71,73.39Z"/><path id="路径_13526" data-name="路径 13526" class="cls-4" d="M87,68.59c.33.26.6.21.6-.12a1.62,1.62,0,0,0-.6-1.08c-.33-.27-.6-.2-.6.13A1.62,1.62,0,0,0,87,68.59Z"/><path id="路径_13527" data-name="路径 13527" class="cls-4" d="M88,64.38c.33.26.6.21.6-.12a1.62,1.62,0,0,0-.6-1.09c-.33-.26-.6-.21-.6.13A1.66,1.66,0,0,0,88,64.38Z"/><path id="路径_13528" data-name="路径 13528" class="cls-4" d="M89.53,60.83c.34.27.6.22.6-.12a1.62,1.62,0,0,0-.6-1.09c-.33-.27-.6-.22-.6.12A1.71,1.71,0,0,0,89.53,60.83Z"/><path id="路径_13529" data-name="路径 13529" class="cls-4" d="M91.68,58c.34.27.6.22.6-.11a1.62,1.62,0,0,0-.6-1.09c-.33-.27-.6-.22-.6.11A1.7,1.7,0,0,0,91.68,58Z"/><path id="路径_13530" data-name="路径 13530" class="cls-4" d="M94.39,55.91c.34.26.6.2.6-.13a1.62,1.62,0,0,0-.6-1.08c-.33-.26-.6-.21-.6.13A1.71,1.71,0,0,0,94.39,55.91Z"/><path id="路径_13531" data-name="路径 13531" class="cls-4" d="M97.62,54.48c.33.25.6.17.6-.16a1.55,1.55,0,0,0-.6-1c-.34-.25-.6-.18-.6.16A1.48,1.48,0,0,0,97.62,54.48Z"/><path id="路径_13532" data-name="路径 13532" class="cls-4" d="M101.3,53.56c.33.21.6.1.6-.23a1.32,1.32,0,0,0-.6-1c-.33-.21-.6-.12-.6.22A1.36,1.36,0,0,0,101.3,53.56Z"/><path id="路径_13533" data-name="路径 13533" class="cls-4" d="M105.39,52.87c.33.16.6,0,.6-.32a1.08,1.08,0,0,0-.6-.88c-.33-.16-.6,0-.6.3A1.1,1.1,0,0,0,105.39,52.87Z"/><path id="路径_13534" data-name="路径 13534" class="cls-4" d="M109.82,52.11a.45.45,0,0,0,.57-.28.47.47,0,0,0,0-.17.85.85,0,0,0-.6-.76.44.44,0,0,0-.57.25.57.57,0,0,0,0,.18A.87.87,0,0,0,109.82,52.11Z"/><path id="路径_13535" data-name="路径 13535" class="cls-4" d="M114.52,51a.58.58,0,0,0,.6-.58h0a.6.6,0,0,0-.6-.61.56.56,0,0,0-.6.54v0A.63.63,0,0,0,114.52,51Z"/><path id="路径_13536" data-name="路径 13536" class="cls-4" d="M119.41,49.22a.8.8,0,0,0,.6-.75.46.46,0,0,0-.44-.48l-.16,0a.81.81,0,0,0-.6.73.48.48,0,0,0,.46.49A.32.32,0,0,0,119.41,49.22Z"/><path id="路径_13537" data-name="路径 13537" class="cls-4" d="M124.43,46.84A1.1,1.1,0,0,0,125,46c0-.33-.27-.47-.6-.32a1.08,1.08,0,0,0-.6.88C123.83,46.84,124.1,47,124.43,46.84Z"/><path id="路径_13538" data-name="路径 13538" class="cls-4" d="M129.48,44a1.42,1.42,0,0,0,.62-1c0-.34-.28-.43-.62-.21a1.42,1.42,0,0,0-.61,1C128.87,44.12,129.15,44.22,129.48,44Z"/><path id="路径_13539" data-name="路径 13539" class="cls-4" d="M134.5,41a1.63,1.63,0,0,0,.61-1.09c0-.34-.27-.4-.61-.14a1.69,1.69,0,0,0-.62,1.09C133.88,41.22,134.16,41.28,134.5,41Z"/><path id="路径_13540" data-name="路径 13540" class="cls-4" d="M139.39,38.36a1.63,1.63,0,0,0,.62-1.11c0-.34-.28-.39-.62-.11a1.65,1.65,0,0,0-.61,1.11C138.78,38.59,139.05,38.64,139.39,38.36Z"/><path id="路径_13541" data-name="路径 13541" class="cls-4" d="M144.09,36.47a1.61,1.61,0,0,0,.62-1.09c0-.34-.28-.4-.62-.14a1.63,1.63,0,0,0-.61,1.09C143.48,36.67,143.75,36.73,144.09,36.47Z"/><path id="路径_13542" data-name="路径 13542" class="cls-4" d="M148.52,35.68a1.4,1.4,0,0,0,.62-1c0-.34-.28-.43-.62-.21a1.45,1.45,0,0,0-.61,1C147.91,35.82,148.18,35.91,148.52,35.68Z"/><path id="路径_13543" data-name="路径 13543" class="cls-4" d="M152.61,36.19a1.2,1.2,0,0,0,.62-.93c0-.34-.28-.47-.62-.3a1.2,1.2,0,0,0-.61.95C152,36.25,152.27,36.37,152.61,36.19Z"/><path id="路径_13544" data-name="路径 13544" class="cls-4" d="M156.3,38a1,1,0,0,0,.62-.84.43.43,0,0,0-.4-.46.44.44,0,0,0-.22,0,1,1,0,0,0-.63.86C155.67,38,156,38.14,156.3,38Z"/><path id="路径_13545" data-name="路径 13545" class="cls-4" d="M159.52,41a.79.79,0,0,0,.62-.74.5.5,0,0,0-.47-.53l-.15,0a.83.83,0,0,0-.63.76.5.5,0,0,0,.47.51Z"/><path id="路径_13546" data-name="路径 13546" class="cls-4" d="M162.23,44.88a.67.67,0,0,0,.62-.66.57.57,0,0,0-.57-.59h-.05a.69.69,0,0,0-.63.67.57.57,0,0,0,.57.58Z"/><path id="路径_13547" data-name="路径 13547" class="cls-4" d="M164.38,49.43a.58.58,0,0,0,.62-.54v0a.66.66,0,0,0-.62-.67.59.59,0,0,0-.62.57.08.08,0,0,0,0,0A.66.66,0,0,0,164.38,49.43Z"/><path id="路径_13548" data-name="路径 13548" class="cls-4" d="M165.94,54.37a.52.52,0,0,0,.62-.42s0-.07,0-.11a.76.76,0,0,0-.63-.72.56.56,0,0,0-.62.46v.1A.71.71,0,0,0,165.94,54.37Z"/><path id="路径_13549" data-name="路径 13549" class="cls-4" d="M166.89,59.49a.51.51,0,0,0,.61-.36.34.34,0,0,0,0-.14.79.79,0,0,0-.62-.75.53.53,0,0,0-.62.39s0,.09,0,.13A.79.79,0,0,0,166.89,59.49Z"/><path id="路径_13550" data-name="路径 13550" class="cls-4" d="M171.23,65.53c.21.08.38,0,.38-.23a.63.63,0,0,0-.38-.53.25.25,0,0,0-.34.09.23.23,0,0,0,0,.14A.63.63,0,0,0,171.23,65.53Z"/><path id="路径_13551" data-name="路径 13551" class="cls-4" d="M170.94,70.47c.21.07.38,0,.38-.24a.6.6,0,0,0-.38-.52.24.24,0,0,0-.34.1.23.23,0,0,0,0,.14A.63.63,0,0,0,170.94,70.47Z"/><path id="路径_13552" data-name="路径 13552" class="cls-4" d="M170.08,75.14a.26.26,0,0,0,.35-.12.28.28,0,0,0,0-.13.57.57,0,0,0-.38-.51.26.26,0,0,0-.35.12.31.31,0,0,0,0,.13A.6.6,0,0,0,170.08,75.14Z"/><path id="路径_13553" data-name="路径 13553" class="cls-4" d="M168.66,79.56a.29.29,0,0,0,.36-.16.5.5,0,0,0,0-.12.55.55,0,0,0-.38-.48.29.29,0,0,0-.37.17.21.21,0,0,0,0,.11A.52.52,0,0,0,168.66,79.56Z"/><path id="路径_13554" data-name="路径 13554" class="cls-4" d="M166.69,83.79a.32.32,0,0,0,.37-.24.19.19,0,0,0,0-.08.47.47,0,0,0-.38-.44.3.3,0,0,0-.37.24.22.22,0,0,0,0,.08A.47.47,0,0,0,166.69,83.79Z"/><path id="路径_13555" data-name="路径 13555" class="cls-4" d="M164.2,87.93a.36.36,0,0,0,.38-.34v0a.4.4,0,0,0-.38-.4.37.37,0,0,0-.38.35v0A.4.4,0,0,0,164.2,87.93Z"/><path id="路径_13556" data-name="路径 13556" class="cls-4" d="M161.23,92.14a.45.45,0,0,0,.38-.42.33.33,0,0,0-.32-.34h-.06a.45.45,0,0,0-.38.43.32.32,0,0,0,.32.33Z"/><path id="路径_13557" data-name="路径 13557" class="cls-4" d="M157.81,96.57a.53.53,0,0,0,.38-.49.28.28,0,0,0-.26-.29l-.12,0a.57.57,0,0,0-.38.49.28.28,0,0,0,.26.29A.23.23,0,0,0,157.81,96.57Z"/><path id="路径_13558" data-name="路径 13558" class="cls-4" d="M154,101.34a.68.68,0,0,0,.38-.55c0-.21-.17-.3-.38-.2a.68.68,0,0,0-.38.56C153.61,101.35,153.78,101.44,154,101.34Z"/><path id="路径_13559" data-name="路径 13559" class="cls-4" d="M149.82,106.5a.84.84,0,0,0,.38-.61c0-.21-.17-.28-.38-.15a.88.88,0,0,0-.38.63C149.44,106.57,149.61,106.64,149.82,106.5Z"/><path id="路径_13560" data-name="路径 13560" class="cls-4" d="M145.35,112a1,1,0,0,0,.38-.66c0-.21-.17-.26-.38-.1a1,1,0,0,0-.38.66C145,112.09,145.14,112.13,145.35,112Z"/><path id="路径_13561" data-name="路径 13561" class="cls-4" d="M140.64,117.51a1.09,1.09,0,0,0,.38-.69c0-.21-.17-.24-.38-.07a1,1,0,0,0-.38.68C140.26,117.64,140.43,117.68,140.64,117.51Z"/><path id="路径_13562" data-name="路径 13562" class="cls-4" d="M135.75,122.74a1,1,0,0,0,.38-.68c0-.21-.17-.25-.38-.08a1,1,0,0,0-.38.68C135.37,122.87,135.54,122.9,135.75,122.74Z"/><path id="路径_13563" data-name="路径 13563" class="cls-4" d="M130.74,127.2a.87.87,0,0,0,.38-.65c0-.21-.17-.26-.38-.11a.87.87,0,0,0-.37.64C130.37,127.29,130.54,127.34,130.74,127.2Z"/><path id="路径_13564" data-name="路径 13564" class="cls-4" d="M125.69,130.42a.7.7,0,0,0,.38-.58c0-.2-.17-.28-.38-.18a.76.76,0,0,0-.38.58C125.31,130.45,125.48,130.53,125.69,130.42Z"/><path id="路径_13565" data-name="路径 13565" class="cls-4" d="M120.66,132a.55.55,0,0,0,.38-.49.28.28,0,0,0-.26-.29.24.24,0,0,0-.12,0,.52.52,0,0,0-.38.48.27.27,0,0,0,.26.29A.17.17,0,0,0,120.66,132Z"/><path id="路径_13566" data-name="路径 13566" class="cls-4" d="M115.7,131.82a.38.38,0,0,0,.37-.38.35.35,0,0,0-.35-.35h0a.38.38,0,0,0-.37.37.36.36,0,0,0,.36.36Z"/><path id="路径_13567" data-name="路径 13567" class="cls-4" d="M110.89,129.81a.29.29,0,0,0,.37-.29.48.48,0,0,0-.37-.44.27.27,0,0,0-.35.19.14.14,0,0,0,0,.09A.46.46,0,0,0,110.89,129.81Z"/><path id="路径_13568" data-name="路径 13568" class="cls-4" d="M106.3,126.19c.2.09.36,0,.36-.21a.64.64,0,0,0-.36-.52c-.2-.09-.37,0-.37.2A.61.61,0,0,0,106.3,126.19Z"/><path id="路径_13569" data-name="路径 13569" class="cls-4" d="M102,121.3c.2.12.36.06.36-.15a.79.79,0,0,0-.36-.59c-.2-.12-.37-.06-.37.14A.78.78,0,0,0,102,121.3Z"/><path id="路径_13570" data-name="路径 13570" class="cls-4" d="M98,115.52c.2.14.37.1.37-.1a.9.9,0,0,0-.37-.64c-.2-.15-.37-.1-.37.1A.94.94,0,0,0,98,115.52Z"/><path id="路径_13571" data-name="路径 13571" class="cls-4" d="M94.34,109.22c.2.17.37.13.37-.07a1,1,0,0,0-.37-.66c-.2-.16-.37-.13-.37.07A1,1,0,0,0,94.34,109.22Z"/><path id="路径_13572" data-name="路径 13572" class="cls-4" d="M91.14,102.73c.2.17.37.14.37-.06a1.07,1.07,0,0,0-.37-.67c-.2-.17-.37-.14-.37.07A1,1,0,0,0,91.14,102.73Z"/><path id="路径_13573" data-name="路径 13573" class="cls-4" d="M88.4,96.26c.2.15.36.12.36-.07a1,1,0,0,0-.36-.65c-.2-.16-.35-.12-.35.07A1,1,0,0,0,88.4,96.26Z"/><path id="路径_13574" data-name="路径 13574" class="cls-4" d="M86.17,90c.2.15.36.12.36-.08a.93.93,0,0,0-.36-.63c-.2-.16-.35-.12-.35.08A1,1,0,0,0,86.17,90Z"/><path id="路径_13575" data-name="路径 13575" class="cls-4" d="M84.48,83.91c.2.14.35.11.35-.09a1,1,0,0,0-.35-.63c-.2-.14-.36-.1-.36.1A.93.93,0,0,0,84.48,83.91Z"/><path id="路径_13576" data-name="路径 13576" class="cls-4" d="M83.33,78.15c.2.14.36.1.36-.1a.91.91,0,0,0-.36-.62c-.2-.14-.36-.09-.36.1A.91.91,0,0,0,83.33,78.15Z"/><path id="路径_13577" data-name="路径 13577" class="cls-4" d="M82.75,72.72c.2.13.36.09.36-.1a.86.86,0,0,0-.36-.61c-.2-.14-.35-.09-.35.1A.91.91,0,0,0,82.75,72.72Z"/><path id="路径_13578" data-name="路径 13578" class="cls-4" d="M82.75,67.66c.2.14.36.09.36-.1a.88.88,0,0,0-.36-.61c-.2-.14-.35-.09-.35.11A.89.89,0,0,0,82.75,67.66Z"/><path id="路径_13579" data-name="路径 13579" class="cls-4" d="M83.33,63.05c.2.14.36.1.36-.1a.91.91,0,0,0-.36-.62c-.2-.14-.36-.09-.36.1A.91.91,0,0,0,83.33,63.05Z"/><path id="路径_13580" data-name="路径 13580" class="cls-4" d="M84.48,59c.19.14.34.1.34-.09a.9.9,0,0,0-.34-.6c-.2-.14-.35-.1-.35.09A.85.85,0,0,0,84.48,59Z"/><path id="路径_13581" data-name="路径 13581" class="cls-4" d="M86.17,55.48c.2.15.35.11.35-.08a.89.89,0,0,0-.35-.61c-.19-.15-.34-.11-.34.08A.92.92,0,0,0,86.17,55.48Z"/><path id="路径_13582" data-name="路径 13582" class="cls-4" d="M88.4,52.7c.2.16.35.13.35-.06A.94.94,0,0,0,88.4,52c-.19-.15-.34-.12-.34.07A.92.92,0,0,0,88.4,52.7Z"/><path id="路径_13583" data-name="路径 13583" class="cls-4" d="M91.14,50.66c.19.16.34.13.34-.06a1,1,0,0,0-.34-.63c-.19-.15-.35-.12-.35.07A1,1,0,0,0,91.14,50.66Z"/><path id="路径_13584" data-name="路径 13584" class="cls-4" d="M94.34,49.33c.19.15.34.12.34-.08a.92.92,0,0,0-.34-.61c-.19-.16-.35-.12-.35.07A1,1,0,0,0,94.34,49.33Z"/><path id="路径_13585" data-name="路径 13585" class="cls-4" d="M98,48.57c.19.14.35.1.35-.1a.87.87,0,0,0-.35-.6c-.19-.14-.34-.1-.34.1A.84.84,0,0,0,98,48.57Z"/><path id="路径_13586" data-name="路径 13586" class="cls-4" d="M102,48.18c.19.12.34,0,.34-.14a.74.74,0,0,0-.34-.55c-.19-.12-.35-.06-.35.13A.73.73,0,0,0,102,48.18Z"/><path id="路径_13587" data-name="路径 13587" class="cls-4" d="M106.3,47.86c.19.08.34,0,.34-.2a.59.59,0,0,0-.34-.5c-.2-.09-.35,0-.35.19A.61.61,0,0,0,106.3,47.86Z"/><path id="路径_13588" data-name="路径 13588" class="cls-4" d="M110.89,47.28a.27.27,0,0,0,.34-.19.28.28,0,0,0,0-.09.44.44,0,0,0-.35-.41.25.25,0,0,0-.33.17.28.28,0,0,0,0,.09A.46.46,0,0,0,110.89,47.28Z"/><path id="路径_13589" data-name="路径 13589" class="cls-4" d="M115.7,46.16a.37.37,0,0,0,.35-.36.33.33,0,0,0-.33-.33h0a.35.35,0,0,0-.34.35.32.32,0,0,0,.33.34Z"/><path id="路径_13590" data-name="路径 13590" class="cls-4" d="M120.66,44.37a.52.52,0,0,0,.35-.47.26.26,0,0,0-.24-.27l-.11,0a.51.51,0,0,0-.36.46.25.25,0,0,0,.24.27A.25.25,0,0,0,120.66,44.37Z"/><path id="路径_13591" data-name="路径 13591" class="cls-4" d="M125.69,41.89a.71.71,0,0,0,.36-.55c0-.2-.16-.27-.36-.17a.68.68,0,0,0-.35.54C125.34,41.91,125.5,42,125.69,41.89Z"/><path id="路径_13592" data-name="路径 13592" class="cls-4" d="M130.75,39a.82.82,0,0,0,.35-.6c0-.2-.16-.25-.35-.11a.86.86,0,0,0-.36.6C130.39,39,130.55,39.09,130.75,39Z"/><path id="路径_13593" data-name="路径 13593" class="cls-4" d="M135.75,35.93a1,1,0,0,0,.36-.64c0-.2-.16-.23-.36-.07a.93.93,0,0,0-.36.64C135.39,36.05,135.55,36.09,135.75,35.93Z"/><path id="路径_13594" data-name="路径 13594" class="cls-4" d="M140.64,33.27a1,1,0,0,0,.35-.65c0-.2-.16-.22-.35-.06a1,1,0,0,0-.36.64C140.28,33.4,140.44,33.43,140.64,33.27Z"/><path id="路径_13595" data-name="路径 13595" class="cls-4" d="M145.35,31.4a.93.93,0,0,0,.36-.62c0-.2-.16-.24-.36-.09a.91.91,0,0,0-.36.62C145,31.51,145.15,31.55,145.35,31.4Z"/><path id="路径_13596" data-name="路径 13596" class="cls-4" d="M149.82,30.65a.81.81,0,0,0,.36-.58c0-.2-.16-.26-.36-.13a.81.81,0,0,0-.36.58C149.46,30.72,149.62,30.78,149.82,30.65Z"/><path id="路径_13597" data-name="路径 13597" class="cls-4" d="M154,31.21a.66.66,0,0,0,.37-.54c0-.2-.16-.29-.37-.2a.68.68,0,0,0-.37.55C153.62,31.22,153.79,31.3,154,31.21Z"/><path id="路径_13598" data-name="路径 13598" class="cls-4" d="M157.81,33.06a.54.54,0,0,0,.37-.48.27.27,0,0,0-.25-.28.25.25,0,0,0-.12,0,.53.53,0,0,0-.36.48.27.27,0,0,0,.25.28Z"/><path id="路径_13599" data-name="路径 13599" class="cls-4" d="M161.23,36.08a.43.43,0,0,0,.37-.41.32.32,0,0,0-.32-.33h-.05a.44.44,0,0,0-.37.42.32.32,0,0,0,.31.32Z"/><path id="路径_13600" data-name="路径 13600" class="cls-4" d="M164.2,40.05a.35.35,0,0,0,.37-.33v0a.38.38,0,0,0-.37-.38.36.36,0,0,0-.37.34v0A.4.4,0,0,0,164.2,40.05Z"/><path id="路径_13601" data-name="路径 13601" class="cls-4" d="M166.69,44.7a.3.3,0,0,0,.36-.22.19.19,0,0,0,0-.08.46.46,0,0,0-.37-.43.3.3,0,0,0-.36.24.17.17,0,0,0,0,.07A.44.44,0,0,0,166.69,44.7Z"/><path id="路径_13602" data-name="路径 13602" class="cls-4" d="M168.66,49.79a.28.28,0,0,0,.35-.16.2.2,0,0,0,0-.11.53.53,0,0,0-.36-.47.29.29,0,0,0-.36.17.37.37,0,0,0,0,.11A.51.51,0,0,0,168.66,49.79Z"/><path id="路径_13603" data-name="路径 13603" class="cls-4" d="M170.08,55.07a.26.26,0,0,0,.34-.11.31.31,0,0,0,0-.13.56.56,0,0,0-.37-.5.25.25,0,0,0-.34.12.28.28,0,0,0,0,.13A.58.58,0,0,0,170.08,55.07Z"/><path id="路径_13604" data-name="路径 13604" class="cls-4" d="M170.94,60.37c.21.08.38,0,.38-.23a.61.61,0,0,0-.38-.53.25.25,0,0,0-.34.1.23.23,0,0,0,0,.14A.62.62,0,0,0,170.94,60.37Z"/><path id="路径_13605" data-name="路径 13605" class="cls-4" d="M175.26,67.2c.06,0,.12,0,.12,0a.25.25,0,0,0-.12-.19c-.07,0-.13,0-.13.05A.26.26,0,0,0,175.26,67.2Z"/><path id="路径_13606" data-name="路径 13606" class="cls-4" d="M175,72.1c.07,0,.12,0,.12,0a.24.24,0,0,0-.12-.2c-.07,0-.12,0-.12.06A.25.25,0,0,0,175,72.1Z"/><path id="路径_13607" data-name="路径 13607" class="cls-4" d="M174.2,76.67c.07,0,.12,0,.12,0a.22.22,0,0,0-.12-.19c-.07,0-.12,0-.12.06A.2.2,0,0,0,174.2,76.67Z"/><path id="路径_13608" data-name="路径 13608" class="cls-4" d="M172.89,80.91c.07,0,.13,0,.13-.06a.23.23,0,0,0-.13-.18c-.07,0-.12,0-.12.06A.22.22,0,0,0,172.89,80.91Z"/><path id="路径_13609" data-name="路径 13609" class="cls-4" d="M171.08,84.86a.08.08,0,0,0,.12-.08.19.19,0,0,0-.12-.17c-.07,0-.12,0-.12.08A.18.18,0,0,0,171.08,84.86Z"/><path id="路径_13610" data-name="路径 13610" class="cls-4" d="M168.79,88.61a.1.1,0,0,0,.11,0,.08.08,0,0,0,0,0,.17.17,0,0,0-.12-.16.1.1,0,0,0-.12,0,.06.06,0,0,0,0,0A.21.21,0,0,0,168.79,88.61Z"/><path id="路径_13611" data-name="路径 13611" class="cls-4" d="M166,92.28a.09.09,0,0,0,.12-.07s0,0,0,0A.14.14,0,0,0,166,92a.1.1,0,0,0-.12.08v0A.13.13,0,0,0,166,92.28Z"/><path id="路径_13612" data-name="路径 13612" class="cls-4" d="M162.85,96.05a.12.12,0,0,0,.12-.13.11.11,0,0,0-.11-.11h0a.12.12,0,0,0-.12.12.11.11,0,0,0,.11.12Z"/><path id="路径_13613" data-name="路径 13613" class="cls-4" d="M159.28,100.08a.16.16,0,0,0,.12-.15.1.1,0,0,0-.1-.1h0a.18.18,0,0,0-.13.15.1.1,0,0,0,.1.1Z"/><path id="路径_13614" data-name="路径 13614" class="cls-4" d="M155.35,104.51a.23.23,0,0,0,.12-.18.08.08,0,0,0-.12-.07.23.23,0,0,0-.13.17C155.22,104.5,155.28,104.53,155.35,104.51Z"/><path id="路径_13615" data-name="路径 13615" class="cls-4" d="M151.11,109.38a.25.25,0,0,0,.12-.19c0-.07-.06-.09-.12,0a.26.26,0,0,0-.13.19C151,109.4,151,109.42,151.11,109.38Z"/><path id="路径_13616" data-name="路径 13616" class="cls-4" d="M146.6,114.64a.32.32,0,0,0,.13-.21c0-.07-.06-.08-.13,0a.3.3,0,0,0-.12.22C146.48,114.67,146.53,114.69,146.6,114.64Z"/><path id="路径_13617" data-name="路径 13617" class="cls-4" d="M141.88,120.08a.36.36,0,0,0,.13-.23c0-.06-.06-.07-.13,0a.3.3,0,0,0-.12.22C141.76,120.12,141.81,120.13,141.88,120.08Z"/><path id="路径_13618" data-name="路径 13618" class="cls-4" d="M137,125.33a.3.3,0,0,0,.12-.22c0-.06-.05-.07-.12,0a.3.3,0,0,0-.12.22C136.88,125.38,136.93,125.39,137,125.33Z"/><path id="路径_13619" data-name="路径 13619" class="cls-4" d="M132,130a.35.35,0,0,0,.12-.21c0-.07-.06-.09-.12,0a.32.32,0,0,0-.13.21C131.88,130,131.94,130,132,130Z"/><path id="路径_13620" data-name="路径 13620" class="cls-4" d="M127,133.53a.28.28,0,0,0,.12-.2c0-.07-.06-.09-.12-.05a.26.26,0,0,0-.13.19C126.83,133.54,126.89,133.56,127,133.53Z"/><path id="路径_13621" data-name="路径 13621" class="cls-4" d="M121.91,135.59a.18.18,0,0,0,.12-.17.08.08,0,0,0-.08-.08h0a.23.23,0,0,0-.13.17.09.09,0,0,0,.08.09Z"/><path id="路径_13622" data-name="路径 13622" class="cls-4" d="M116.91,135.92a.14.14,0,0,0,.13-.13.11.11,0,0,0-.11-.11h0a.13.13,0,0,0-.12.13.11.11,0,0,0,.11.11Z"/><path id="路径_13623" data-name="路径 13623" class="cls-4" d="M112,134.46a.1.1,0,0,0,.12-.07v0a.14.14,0,0,0-.12-.14.1.1,0,0,0-.12.07v0A.14.14,0,0,0,112,134.46Z"/><path id="路径_13624" data-name="路径 13624" class="cls-4" d="M107.31,131.34c.07,0,.12,0,.12-.08a.19.19,0,0,0-.12-.17c-.07,0-.12,0-.12.08A.19.19,0,0,0,107.31,131.34Z"/><path id="路径_13625" data-name="路径 13625" class="cls-4" d="M102.81,126.83c.07,0,.12,0,.12,0a.25.25,0,0,0-.12-.19c-.07,0-.13,0-.13,0A.26.26,0,0,0,102.81,126.83Z"/><path id="路径_13626" data-name="路径 13626" class="cls-4" d="M98.57,121.31c.06,0,.11,0,.11,0a.27.27,0,0,0-.11-.19c-.06,0-.11,0-.11,0A.27.27,0,0,0,98.57,121.31Z"/><path id="路径_13627" data-name="路径 13627" class="cls-4" d="M94.64,115.16c.06,0,.11,0,.11,0a.31.31,0,0,0-.11-.2c-.06,0-.11,0-.11,0A.31.31,0,0,0,94.64,115.16Z"/><path id="路径_13628" data-name="路径 13628" class="cls-4" d="M91.06,108.71c.07.05.11,0,.12,0a.37.37,0,0,0-.12-.2c-.06,0-.11,0-.11,0A.31.31,0,0,0,91.06,108.71Z"/><path id="路径_13629" data-name="路径 13629" class="cls-4" d="M87.88,102.21c.06.05.11,0,.11,0a.31.31,0,0,0-.11-.2c-.06,0-.11,0-.11,0A.31.31,0,0,0,87.88,102.21Z"/><path id="路径_13630" data-name="路径 13630" class="cls-4" d="M85.13,95.83c.06,0,.11,0,.11,0a.31.31,0,0,0-.11-.2c-.06,0-.11,0-.11,0A.27.27,0,0,0,85.13,95.83Z"/><path id="路径_13631" data-name="路径 13631" class="cls-4" d="M82.83,89.64c.07,0,.12,0,.12,0a.25.25,0,0,0-.12-.19c-.06,0-.11,0-.11,0A.27.27,0,0,0,82.83,89.64Z"/><path id="路径_13632" data-name="路径 13632" class="cls-4" d="M81,83.68c.06,0,.1,0,.1,0a.23.23,0,0,0-.1-.17s-.1,0-.1,0A.27.27,0,0,0,81,83.68Z"/><path id="路径_13633" data-name="路径 13633" class="cls-4" d="M79.71,78c.06,0,.1,0,.1,0a.2.2,0,0,0-.1-.16s-.1,0-.1,0A.23.23,0,0,0,79.71,78Z"/><path id="路径_13634" data-name="路径 13634" class="cls-4" d="M78.92,72.51c.06,0,.1,0,.1,0a.18.18,0,0,0-.1-.16s-.1,0-.1,0A.21.21,0,0,0,78.92,72.51Z"/><path id="路径_13635" data-name="路径 13635" class="cls-4" d="M78.66,67.31s.1,0,.1,0a.23.23,0,0,0-.1-.15c-.06,0-.1,0-.1,0A.2.2,0,0,0,78.66,67.31Z"/><path id="路径_13636" data-name="路径 13636" class="cls-4" d="M78.92,62.42c.06,0,.1,0,.1-.05a.2.2,0,0,0-.1-.16s-.1,0-.1,0A.23.23,0,0,0,78.92,62.42Z"/><path id="路径_13637" data-name="路径 13637" class="cls-4" d="M79.71,57.89c.06,0,.1,0,.1,0a.18.18,0,0,0-.1-.16s-.1,0-.1,0A.27.27,0,0,0,79.71,57.89Z"/><path id="路径_13638" data-name="路径 13638" class="cls-4" d="M81,53.83c.06,0,.1,0,.1,0a.23.23,0,0,0-.1-.17s-.1,0-.1,0A.27.27,0,0,0,81,53.83Z"/><path id="路径_13639" data-name="路径 13639" class="cls-4" d="M82.83,50.34c.06,0,.1,0,.1,0a.23.23,0,0,0-.1-.17s-.1,0-.1,0A.27.27,0,0,0,82.83,50.34Z"/><path id="路径_13640" data-name="路径 13640" class="cls-4" d="M85.13,47.52c.05,0,.1,0,.1,0a.32.32,0,0,0-.1-.18c-.06,0-.1,0-.1,0A.27.27,0,0,0,85.13,47.52Z"/><path id="路径_13641" data-name="路径 13641" class="cls-4" d="M87.88,45.42c.06,0,.1,0,.1,0a.27.27,0,0,0-.1-.18s-.1,0-.1,0A.25.25,0,0,0,87.88,45.42Z"/><path id="路径_13642" data-name="路径 13642" class="cls-4" d="M91.06,44.06c.06,0,.1,0,.1,0a.27.27,0,0,0-.1-.18s-.1,0-.1,0A.29.29,0,0,0,91.06,44.06Z"/><path id="路径_13643" data-name="路径 13643" class="cls-4" d="M94.64,43.36s.1,0,.1,0a.32.32,0,0,0-.1-.18c-.06,0-.1,0-.1,0A.23.23,0,0,0,94.64,43.36Z"/><path id="路径_13644" data-name="路径 13644" class="cls-4" d="M98.56,43.15c.06,0,.1,0,.1,0a.21.21,0,0,0-.1-.17s-.1,0-.1,0A.3.3,0,0,0,98.56,43.15Z"/><path id="路径_13645" data-name="路径 13645" class="cls-4" d="M102.81,43.15s.1,0,.1,0a.27.27,0,0,0-.1-.16c-.06,0-.1,0-.1,0A.18.18,0,0,0,102.81,43.15Z"/><path id="路径_13646" data-name="路径 13646" class="cls-4" d="M107.31,43.07a.07.07,0,0,0,.1-.07.16.16,0,0,0-.1-.14.07.07,0,0,0-.1.07A.18.18,0,0,0,107.31,43.07Z"/><path id="路径_13647" data-name="路径 13647" class="cls-4" d="M112,42.57a.08.08,0,0,0,.1-.07v0a.11.11,0,0,0-.1-.11.09.09,0,0,0-.1.06v0A.12.12,0,0,0,112,42.57Z"/><path id="路径_13648" data-name="路径 13648" class="cls-4" d="M116.91,41.41a.1.1,0,0,0,.1-.11.08.08,0,0,0-.08-.09h0a.14.14,0,0,0-.1.11.09.09,0,0,0,.09.09Z"/><path id="路径_13649" data-name="路径 13649" class="cls-4" d="M121.91,39.5a.19.19,0,0,0,.1-.14.07.07,0,0,0-.07-.07h0a.14.14,0,0,0-.1.13.08.08,0,0,0,.06.08Z"/><path id="路径_13650" data-name="路径 13650" class="cls-4" d="M127,36.9a.23.23,0,0,0,.1-.16c0-.05,0-.07-.1,0a.18.18,0,0,0-.1.16C126.86,36.92,126.9,36.93,127,36.9Z"/><path id="路径_13651" data-name="路径 13651" class="cls-4" d="M132,33.88a.21.21,0,0,0,.1-.17c0-.06,0-.07-.1,0a.27.27,0,0,0-.1.17C131.9,33.91,132,33.92,132,33.88Z"/><path id="路径_13652" data-name="路径 13652" class="cls-4" d="M137,30.82a.29.29,0,0,0,.1-.18c0-.05,0-.06-.1,0a.27.27,0,0,0-.1.19C136.9,30.86,136.94,30.87,137,30.82Z"/><path id="路径_13653" data-name="路径 13653" class="cls-4" d="M141.88,28.18A.25.25,0,0,0,142,28c0-.05,0-.06-.1,0a.32.32,0,0,0-.1.18C141.78,28.22,141.83,28.23,141.88,28.18Z"/><path id="路径_13654" data-name="路径 13654" class="cls-4" d="M146.6,26.38a.24.24,0,0,0,.11-.19c0-.06-.05-.08-.11,0a.27.27,0,0,0-.11.19C146.49,26.41,146.54,26.43,146.6,26.38Z"/><path id="路径_13655" data-name="路径 13655" class="cls-4" d="M151.11,25.71a.25.25,0,0,0,.11-.18c0-.06-.05-.08-.11,0a.23.23,0,0,0-.12.17C151,25.72,151,25.75,151.11,25.71Z"/><path id="路径_13656" data-name="路径 13656" class="cls-4" d="M155.35,26.34a.19.19,0,0,0,.11-.15c0-.07-.05-.1-.11-.07a.2.2,0,0,0-.12.16C155.23,26.34,155.28,26.37,155.35,26.34Z"/><path id="路径_13657" data-name="路径 13657" class="cls-4" d="M159.28,28.29a.16.16,0,0,0,.11-.14.09.09,0,0,0-.09-.09h0a.16.16,0,0,0-.12.14.09.09,0,0,0,.09.09Z"/><path id="路径_13658" data-name="路径 13658" class="cls-4" d="M162.85,31.4a.11.11,0,0,0,0-.22h0a.11.11,0,0,0-.11.12.1.1,0,0,0,.11.1Z"/><path id="路径_13659" data-name="路径 13659" class="cls-4" d="M166,35.49a.09.09,0,0,0,.11-.08v0a.12.12,0,0,0-.11-.12.1.1,0,0,0-.11.08v0A.13.13,0,0,0,166,35.49Z"/><path id="路径_13660" data-name="路径 13660" class="cls-4" d="M168.79,40.31a.09.09,0,0,0,.11-.05.06.06,0,0,0,0,0,.19.19,0,0,0-.12-.16.1.1,0,0,0-.12,0,.08.08,0,0,0,0,0A.2.2,0,0,0,168.79,40.31Z"/><path id="路径_13661" data-name="路径 13661" class="cls-4" d="M171.08,45.57c.07,0,.12,0,.12-.08a.19.19,0,0,0-.12-.17.08.08,0,0,0-.11,0,.09.09,0,0,0,0,0A.19.19,0,0,0,171.08,45.57Z"/><path id="路径_13662" data-name="路径 13662" class="cls-4" d="M172.89,51.06c.07,0,.13,0,.13-.06a.23.23,0,0,0-.13-.18c-.07,0-.12,0-.12.06A.22.22,0,0,0,172.89,51.06Z"/><path id="路径_13663" data-name="路径 13663" class="cls-4" d="M174.2,56.59c.07,0,.12,0,.12-.06a.22.22,0,0,0-.12-.19c-.07,0-.12,0-.12.06A.22.22,0,0,0,174.2,56.59Z"/><path id="路径_13664" data-name="路径 13664" class="cls-4" d="M175,62c.07,0,.12,0,.12-.06a.22.22,0,0,0-.12-.19c-.07,0-.12,0-.12.06A.25.25,0,0,0,175,62Z"/></g></g></g></g></g><g id="_9_000" data-name=" 9 000" class="cls-5"><g class="cls-5"><path class="cls-6" d="M16.7,50.81v7.11H10.62V50.81C4.1,49.15.38,44.73,0,38H6.66c.38,4.16,2.75,7.17,7.1,7.17s6.4-3.27,6.4-7.24c0-5-4.16-6.33-8.19-7.42C5.82,28.73,1.86,25.92,1.86,18.88c0-5.57,3.26-10.3,8.76-11.71V0H16.7V7.17c6,.7,9.28,5.25,9.47,11.07H19.52c-.26-3.39-2.18-5.38-5.63-5.38s-5.38,2.88-5.38,6c0,4.61,4,5.31,7.62,6.27,6.52,1.73,10.68,5.44,10.68,12.67C26.81,44.28,23.42,49.72,16.7,50.81Z"/><path class="cls-6" d="M61.37,31.87,48.19,52.67H40.32l10-15.55a19.8,19.8,0,0,1-2.76.25c-8.89,0-15.29-7.29-15.29-16,0-9.15,6.85-17,16.25-17A15.89,15.89,0,0,1,63.49,14,16.36,16.36,0,0,1,65,20.48,21.26,21.26,0,0,1,61.37,31.87ZM48.64,10.5C43.07,10.5,39,15.36,39,20.73s4,10.56,9.59,10.56a10.12,10.12,0,0,0,9.8-10.11C58.37,15.61,54.53,10.5,48.64,10.5Z"/><path class="cls-6" d="M72.25,60.79v-4c2.12-.77,2.37-2,2.37-4.16H72.25V44.86h6.66V52C78.91,56.64,77.12,59.84,72.25,60.79Z"/><path class="cls-6" d="M117.5,37.44c0,4.28-.58,7.29-3.46,10.68a15.61,15.61,0,0,1-12,5.44,15.32,15.32,0,0,1-12-5.76c-2.69-3.45-3.26-6.65-3.26-10.88V20.41c0-6.72,3.07-12.22,9.4-14.84a16.61,16.61,0,0,1,6.08-1.22c8.77,0,15.17,7,15.17,15.62ZM110.85,20c0-5.38-2.95-9.54-8.58-9.54S93.5,14.53,93.5,20V37.44c0,5.63,3,10,8.83,10a8.48,8.48,0,0,0,6.4-3c2-2.24,2.12-4.1,2.12-6.91Z"/><path class="cls-6" d="M153,37.44c0,4.28-.58,7.29-3.46,10.68a15.61,15.61,0,0,1-12,5.44,15.32,15.32,0,0,1-12-5.76c-2.69-3.45-3.26-6.65-3.26-10.88V20.41c0-6.72,3.07-12.22,9.4-14.84a16.61,16.61,0,0,1,6.08-1.22c8.77,0,15.17,7,15.17,15.62ZM146.37,20c0-5.38-3-9.54-8.58-9.54S129,14.53,129,20V37.44c0,5.63,2.95,10,8.83,10a8.48,8.48,0,0,0,6.4-3c2-2.24,2.12-4.1,2.12-6.91Z"/><path class="cls-6" d="M188.54,37.44c0,4.28-.58,7.29-3.46,10.68a15.61,15.61,0,0,1-12,5.44,15.32,15.32,0,0,1-12-5.76c-2.69-3.45-3.26-6.65-3.26-10.88V20.41c0-6.72,3.07-12.22,9.4-14.84a16.61,16.61,0,0,1,6.08-1.22c8.77,0,15.17,7,15.17,15.62ZM181.88,20c0-5.38-2.94-9.54-8.57-9.54s-8.77,4.1-8.77,9.54V37.44c0,5.63,3,10,8.83,10a8.48,8.48,0,0,0,6.4-3c2-2.24,2.11-4.1,2.11-6.91Z"/></g></g></g></g></svg>