<svg xmlns="http://www.w3.org/2000/svg" width="251" height="130.118"><g data-name="组 4294"><g data-name="组 4293"><g data-name="组 4291"><path data-name="路径 14446" d="M135.19 45.875l-5.686 5.63 20.232 20.255 5.646-5.59a12.9 12.9 0 11-.035 18.244L116.93 45.86a41.249 41.249 0 00-29.346-12.2h-.076a41.521 41.521 0 1029.3 70.951l5.753-5.688-20.211-20.275-5.729 5.663a12.9 12.9 0 11.034-18.246l29.691 29.8 8.73 8.757a41.531 41.531 0 10.119-58.748z" fill="#172d72"/></g><g data-name="组 4292" fill="#e30c34"><path data-name="路径 14447" d="M166.978 80.259c1.369.065 2.481-.692 2.482-1.7s-1.114-1.767-2.482-1.7-2.456.824-2.457 1.7 1.094 1.633 2.457 1.7z"/><path data-name="路径 14448" d="M170.493 80.434a1.953 1.953 0 100-3.756c-1.371.078-2.479.914-2.48 1.878s1.111 1.801 2.48 1.878z"/><path data-name="路径 14449" d="M168.06 82.666c1.369.162 2.479-.531 2.48-1.57a2.3 2.3 0 00-2.48-1.926c-1.362-.023-2.459.689-2.46 1.589s1.098 1.745 2.46 1.907z"/><path data-name="路径 14450" d="M164.17 81.433c1.345.1 2.441-.55 2.442-1.476s-1.1-1.668-2.442-1.659-2.4.675-2.4 1.488 1.068 1.543 2.4 1.647z"/><path data-name="路径 14451" d="M164.17 78.811c1.339.008 2.431-.73 2.432-1.653s-1.093-1.573-2.432-1.469-2.392.832-2.393 1.642 1.066 1.471 2.393 1.48z"/><path data-name="路径 14452" d="M168.06 77.945a2.3 2.3 0 002.48-1.927c0-1.039-1.111-1.731-2.48-1.569s-2.459 1.007-2.46 1.908 1.098 1.612 2.46 1.588z"/><path data-name="路径 14453" d="M174.024 80.506a1.979 1.979 0 100-3.9 1.98 1.98 0 100 3.9z"/><path data-name="路径 14454" d="M172.676 83.783a1.815 1.815 0 002.328-1.63 2.317 2.317 0 00-2.328-2.129c-1.287-.057-2.33.685-2.331 1.653s1.044 1.9 2.331 2.106z"/><path data-name="路径 14455" d="M169.146 85.121c1.286.247 2.327-.341 2.328-1.342a2.387 2.387 0 00-2.328-2.04c-1.281-.118-2.314.5-2.315 1.376s1.036 1.759 2.315 2.006z"/><path data-name="路径 14456" d="M164.829 84.356c1.26.2 2.285-.328 2.286-1.2s-1.026-1.676-2.286-1.774-2.253.462-2.254 1.237 1.008 1.538 2.254 1.737z"/><path data-name="路径 14457" d="M161.415 82.346c1.224.117 2.223-.416 2.224-1.209s-1-1.466-2.224-1.5-2.177.518-2.178 1.227.969 1.365 2.178 1.482z"/><path data-name="路径 14458" d="M160.138 79.87c1.208.038 2.2-.546 2.2-1.312s-.99-1.35-2.2-1.312c-1.193.039-2.146.624-2.147 1.312s.954 1.273 2.147 1.312z"/><path data-name="路径 14459" d="M161.415 77.474c1.218-.034 2.214-.7 2.215-1.494s-1-1.32-2.215-1.2-2.168.77-2.169 1.476.965 1.251 2.169 1.218z"/><path data-name="路径 14460" d="M164.833 75.724c1.249-.1 2.266-.89 2.266-1.759s-1.017-1.392-2.266-1.194-2.234.96-2.235 1.728.992 1.321 2.235 1.225z"/><path data-name="路径 14461" d="M169.151 75.36a2.368 2.368 0 002.308-2.024c0-.992-1.033-1.574-2.308-1.329s-2.3 1.123-2.3 1.99 1.026 1.479 2.3 1.363z"/><path data-name="路径 14462" d="M172.676 77.08a2.309 2.309 0 002.318-2.121 1.807 1.807 0 00-2.318-1.622c-1.281.205-2.32 1.135-2.321 2.1s1.039 1.7 2.321 1.643z"/><path data-name="路径 14463" d="M177.534 80.53a1.978 1.978 0 100-3.952 1.979 1.979 0 100 3.952z"/><path data-name="路径 14464" d="M176.628 84.404a1.659 1.659 0 002.078-1.651 2.235 2.235 0 00-2.078-2.187 1.828 1.828 0 00-2.095 1.67 2.463 2.463 0 002.095 2.168z"/><path data-name="路径 14465" d="M174.05 86.95c1.161.3 2.1-.279 2.1-1.323a2.425 2.425 0 00-2.1-2.219c-1.162-.173-2.1.441-2.1 1.358a2.652 2.652 0 002.1 2.184z"/><path data-name="路径 14466" d="M170.236 87.682c1.164.315 2.1-.156 2.105-1.084a2.425 2.425 0 00-2.105-2.071c-1.16-.205-2.1.308-2.1 1.127s.941 1.713 2.1 2.028z"/><path data-name="路径 14467" d="M165.885 86.909c1.15.268 2.082-.151 2.083-.967s-.934-1.636-2.083-1.815-2.06.283-2.061 1.009.921 1.507 2.061 1.773z"/><path data-name="路径 14468" d="M161.813 85.232c1.113.19 2.021-.221 2.022-.944s-.909-1.417-2.022-1.538-1.984.326-1.985.978.885 1.314 1.985 1.504z"/><path data-name="路径 14469" d="M158.73 83.126c1.078.115 1.96-.317 1.961-.983s-.883-1.259-1.961-1.317-1.913.4-1.914 1 .851 1.185 1.914 1.3z"/><path data-name="路径 14470" d="M157.09 80.825c1.05.052 1.911-.414 1.912-1.05s-.862-1.153-1.912-1.154c-1.034 0-1.859.472-1.86 1.057s.826 1.094 1.86 1.147z"/><path data-name="路径 14471" d="M157.09 78.497c1.05 0 1.911-.519 1.912-1.155s-.862-1.1-1.912-1.05c-1.034.053-1.859.563-1.86 1.148s.826 1.058 1.86 1.057z"/><path data-name="路径 14472" d="M158.73 76.286c1.073-.058 1.951-.648 1.952-1.311s-.879-1.093-1.952-.979-1.9.685-1.906 1.29.848 1.056 1.906 1z"/><path data-name="路径 14473" d="M161.81 74.356c1.108-.12 2.011-.812 2.012-1.531s-.9-1.129-2.012-.939-1.975.849-1.976 1.5.883 1.093 1.976.97z"/><path data-name="路径 14474" d="M165.882 72.974c1.138-.178 2.063-.992 2.064-1.8s-.924-1.222-2.064-.957-2.041 1.038-2.042 1.758.915 1.175 2.042.999z"/><path data-name="路径 14475" d="M170.235 72.571a2.4 2.4 0 002.086-2.052c0-.919-.932-1.385-2.086-1.073s-2.078 1.2-2.079 2.01.93 1.319 2.079 1.115z"/><path data-name="路径 14476" d="M174.05 73.696a2.416 2.416 0 002.088-2.21c0-1.039-.931-1.616-2.088-1.316a2.64 2.64 0 00-2.1 2.175c.006.913.944 1.524 2.1 1.351z"/><path data-name="路径 14477" d="M176.626 76.537a2.227 2.227 0 002.068-2.18 1.651 1.651 0 00-2.068-1.642 2.452 2.452 0 00-2.085 2.16 1.818 1.818 0 002.085 1.662z"/><path data-name="路径 14478" d="M180.987 80.527a1.981 1.981 0 000-3.945 1.978 1.978 0 000 3.945z"/><path data-name="路径 14479" d="M180.317 84.975a1.524 1.524 0 001.823-1.665 2.163 2.163 0 00-1.823-2.215 1.673 1.673 0 00-1.847 1.681 2.373 2.373 0 001.847 2.199z"/><path data-name="路径 14480" d="M178.36 88.375a1.325 1.325 0 001.848-1.33 2.433 2.433 0 00-1.848-2.312 1.445 1.445 0 00-1.867 1.36 2.656 2.656 0 001.867 2.282z"/><path data-name="路径 14481" d="M175.261 90.187c1.041.378 1.876-.076 1.877-1.043a2.543 2.543 0 00-1.877-2.259c-1.04-.27-1.885.224-1.886 1.084a2.756 2.756 0 001.886 2.218z"/><path data-name="路径 14482" d="M171.326 90.418c1.047.373 1.889.008 1.89-.848a2.477 2.477 0 00-1.89-2.078c-1.042-.279-1.887.131-1.888.894s.848 1.661 1.888 2.032z"/><path data-name="路径 14483" d="M166.978 89.463c1.032.319 1.867 0 1.867-.748s-.836-1.569-1.867-1.814-1.852.122-1.853.794.83 1.45 1.853 1.768z"/><path data-name="路径 14484" d="M162.708 87.84c1.007.245 1.824-.071 1.825-.732s-.82-1.362-1.825-1.547-1.8.171-1.8.772.809 1.263 1.8 1.507z"/><path data-name="路径 14485" d="M158.979 85.904c.97.169 1.762-.162 1.763-.761s-.793-1.193-1.763-1.315-1.725.241-1.726.792.768 1.117 1.726 1.284z"/><path data-name="路径 14486" d="M156.132 83.826c.928.1 1.688-.25 1.689-.8s-.761-1.065-1.689-1.131-1.644.308-1.645.825.733 1.006 1.645 1.106z"/><path data-name="路径 14487" d="M154.372 81.671c.9.055 1.64-.326 1.641-.859s-.74-.986-1.641-1.008-1.591.369-1.592.869.703.944 1.592.998z"/><path data-name="路径 14488" d="M153.777 79.477c.886.015 1.614-.395 1.615-.918s-.729-.933-1.615-.918c-.871.016-1.564.426-1.564.918s.694.907 1.564.918z"/><path data-name="路径 14489" d="M154.372 77.309c.9-.023 1.632-.473 1.632-1s-.737-.909-1.632-.854c-.881.055-1.583.5-1.584.993s.703.883 1.584.861z"/><path data-name="路径 14490" d="M156.134 75.224c.923-.066 1.68-.574 1.68-1.126s-.757-.9-1.68-.8-1.635.592-1.636 1.106.727.885 1.636.82z"/><path data-name="路径 14491" d="M158.979 73.278c.959-.121 1.743-.71 1.744-1.3s-.784-.92-1.744-.753-1.707.726-1.708 1.271.76.9 1.708.782z"/><path data-name="路径 14492" d="M162.707 71.543c1-.184 1.805-.878 1.806-1.531s-.81-.966-1.806-.724-1.779.9-1.779 1.492.794.942 1.779.763z"/><path data-name="路径 14493" d="M166.978 70.2c1.02-.243 1.847-1.057 1.848-1.8s-.827-1.057-1.848-.74-1.833 1.085-1.834 1.751.82 1.03 1.834.789z"/><path data-name="路径 14494" d="M171.327 69.605a2.453 2.453 0 001.871-2.057c0-.846-.835-1.208-1.871-.838s-1.868 1.255-1.869 2.011.838 1.162 1.869.884z"/><path data-name="路径 14495" d="M175.261 70.207a2.519 2.519 0 001.855-2.24c0-.957-.827-1.405-1.857-1.032a2.729 2.729 0 00-1.867 2.2c.003.852.84 1.34 1.869 1.072z"/><path data-name="路径 14496" d="M178.356 72.366a2.423 2.423 0 001.839-2.3 1.317 1.317 0 00-1.839-1.322 2.644 2.644 0 00-1.858 2.272 1.436 1.436 0 001.858 1.35z"/><path data-name="路径 14497" d="M180.317 76.003a2.153 2.153 0 001.814-2.2 1.516 1.516 0 00-1.814-1.655 2.362 2.362 0 00-1.837 2.189 1.663 1.663 0 001.837 1.666z"/><path data-name="路径 14498" d="M184.349 80.504c.856.055 1.543-.817 1.543-1.953s-.687-2.007-1.543-1.952a2 2 0 000 3.9z"/><path data-name="路径 14499" d="M183.829 85.53c.862.2 1.552-.531 1.553-1.648a2.085 2.085 0 00-1.553-2.19 1.521 1.521 0 00-1.58 1.66 2.273 2.273 0 001.58 2.178z"/><path data-name="路径 14500" d="M182.282 89.689c.878.322 1.579-.26 1.579-1.321a2.415 2.415 0 00-1.579-2.324 1.271 1.271 0 00-1.6 1.346 2.622 2.622 0 001.6 2.299z"/><path data-name="路径 14501" d="M179.766 92.422a1.048 1.048 0 001.614-1.021 2.614 2.614 0 00-1.614-2.336 1.126 1.126 0 00-1.632 1.055 2.824 2.824 0 001.632 2.302z"/><path data-name="路径 14502" d="M176.412 93.565c.914.432 1.645.095 1.646-.783a2.639 2.639 0 00-1.646-2.233c-.912-.344-1.656.034-1.656.825a2.834 2.834 0 001.656 2.191z"/><path data-name="路径 14503" d="M172.418 93.328c.922.414 1.663.147 1.664-.628a2.509 2.509 0 00-1.664-2.036c-.918-.338-1.664-.026-1.665.674a2.673 2.673 0 001.665 1.99z"/><path data-name="路径 14504" d="M168.078 92.119c.917.359 1.658.124 1.658-.555a2.283 2.283 0 00-1.658-1.786c-.911-.295-1.649-.017-1.65.6s.74 1.384 1.65 1.741z"/><path data-name="路径 14505" d="M163.73 90.395c.9.285 1.626.052 1.626-.547s-.729-1.291-1.626-1.527-1.607.039-1.607.588.719 1.203 1.607 1.486z"/><path data-name="路径 14506" d="M159.71 88.463c.861.207 1.562-.041 1.562-.575s-.7-1.116-1.562-1.285-1.534.114-1.535.609.685 1.043 1.535 1.251z"/><path data-name="路径 14507" d="M156.288 86.483c.823.14 1.5-.13 1.5-.621s-.674-.987-1.5-1.1-1.461.187-1.461.647.65.936 1.461 1.074z"/><path data-name="路径 14508" d="M153.638 84.476c.781.087 1.421-.2 1.421-.665s-.641-.891-1.421-.955-1.382.246-1.382.682.617.852 1.382.938z"/><path data-name="路径 14509" d="M151.858 82.44c.752.049 1.369-.264 1.37-.707s-.619-.831-1.37-.861-1.326.294-1.327.718.589.801 1.327.85z"/><path data-name="路径 14510" d="M150.965 80.371c.736.021 1.341-.312 1.342-.749s-.606-.793-1.342-.8-1.3.334-1.3.752.578.776 1.3.797z"/><path data-name="路径 14511" d="M150.965 78.293c.736 0 1.341-.36 1.342-.8s-.606-.77-1.342-.749-1.3.375-1.3.793.578.756 1.3.756z"/><path data-name="路径 14512" d="M151.858 76.24c.747-.03 1.361-.414 1.362-.856s-.615-.752-1.362-.7-1.319.424-1.319.845.585.74 1.319.711z"/><path data-name="路径 14513" d="M153.641 74.256c.776-.064 1.412-.492 1.413-.949s-.637-.747-1.413-.66-1.373.5-1.374.932.61.739 1.374.677z"/><path data-name="路径 14514" d="M156.288 72.343c.813-.109 1.478-.6 1.478-1.085s-.665-.752-1.478-.614-1.444.6-1.444 1.059.642.747 1.444.64z"/><path data-name="路径 14515" d="M159.71 70.502c.85-.167 1.543-.743 1.544-1.27s-.693-.772-1.544-.568-1.516.747-1.517 1.236.676.766 1.517.602z"/><path data-name="路径 14516" d="M163.731 68.781c.887-.233 1.606-.918 1.607-1.509s-.72-.822-1.607-.54-1.588.926-1.589 1.468.71.811 1.589.581z"/><path data-name="路径 14517" d="M168.077 67.322a2.258 2.258 0 001.639-1.766c0-.67-.732-.9-1.639-.548s-1.629 1.111-1.63 1.721.73.885 1.63.593z"/><path data-name="路径 14518" d="M172.418 66.437a2.482 2.482 0 001.645-2.013c0-.765-.733-1.029-1.645-.62a2.643 2.643 0 00-1.645 1.968c.001.692.738.999 1.645.665z"/><path data-name="路径 14519" d="M176.413 66.543a2.612 2.612 0 001.627-2.207c0-.866-.724-1.2-1.627-.773a2.8 2.8 0 00-1.637 2.166c.001.782.735 1.155 1.637.814z"/><path data-name="路径 14520" d="M179.77 68.033a2.6 2.6 0 001.6-2.324 1.041 1.041 0 00-1.6-1.014 2.81 2.81 0 00-1.622 2.29 1.119 1.119 0 001.622 1.048z"/><path data-name="路径 14521" d="M182.283 71.052a2.4 2.4 0 001.57-2.311c0-1.054-.7-1.632-1.57-1.312a2.609 2.609 0 00-1.593 2.287 1.262 1.262 0 001.593 1.336z"/><path data-name="路径 14522" d="M183.829 75.41a2.087 2.087 0 001.553-2.191c0-1.116-.691-1.847-1.553-1.646a2.275 2.275 0 00-1.58 2.178 1.52 1.52 0 001.58 1.659z"/><path data-name="路径 14523" d="M187.585 80.436c.708.045 1.276-.8 1.276-1.886s-.568-1.931-1.276-1.885-1.3.89-1.3 1.886.584 1.838 1.3 1.885z"/><path data-name="路径 14524" d="M187.165 86.097c.714.185 1.284-.526 1.285-1.6s-.572-2.023-1.285-2.117-1.31.628-1.31 1.609a2.174 2.174 0 001.31 2.108z"/><path data-name="路径 14525" d="M185.924 90.995c.728.307 1.308-.263 1.309-1.292a2.392 2.392 0 00-1.309-2.27c-.732-.221-1.332.371-1.332 1.311a2.574 2.574 0 001.332 2.251z"/><path data-name="路径 14526" d="M183.866 94.586c.748.4 1.343-.037 1.344-1a2.663 2.663 0 00-1.344-2.326c-.749-.318-1.363.147-1.364 1.024a2.856 2.856 0 001.364 2.302z"/><path data-name="路径 14527" d="M181.038 96.615c.769.453 1.382.131 1.383-.743a2.771 2.771 0 00-1.383-2.283c-.768-.377-1.4-.021-1.4.777a2.961 2.961 0 001.4 2.249z"/><path data-name="路径 14528" d="M177.534 97.127c.787.465 1.416.229 1.416-.552a2.71 2.71 0 00-1.416-2.15c-.785-.4-1.425-.122-1.426.591a2.883 2.883 0 001.426 2.111z"/><path data-name="路径 14529" d="M173.509 96.418c.8.438 1.436.256 1.437-.432a2.521 2.521 0 00-1.437-1.95c-.793-.377-1.439-.156-1.44.473a2.663 2.663 0 001.44 1.909z"/><path data-name="路径 14530" d="M169.179 94.903c.8.381 1.436.223 1.437-.38a2.256 2.256 0 00-1.437-1.711c-.79-.33-1.432-.133-1.433.421a2.365 2.365 0 001.433 1.67z"/><path data-name="路径 14531" d="M164.797 92.989c.782.309 1.414.148 1.414-.382s-.633-1.194-1.414-1.464-1.4-.07-1.4.42.626 1.119 1.4 1.426z"/><path data-name="路径 14532" d="M160.623 90.964c.756.233 1.37.056 1.37-.417s-.615-1.034-1.37-1.237-1.35.009-1.351.451.608.971 1.351 1.203z"/><path data-name="路径 14533" d="M156.881 88.964c.717.164 1.3-.036 1.3-.464s-.585-.9-1.3-1.04-1.276.087-1.277.491.569.851 1.277 1.013z"/><path data-name="路径 14534" d="M153.733 87.027c.679.11 1.235-.115 1.236-.514s-.557-.8-1.236-.9-1.205.153-1.206.534.536.772 1.206.88z"/><path data-name="路径 14535" d="M151.268 85.111c.644.069 1.171-.176 1.172-.556s-.529-.738-1.172-.793-1.138.2-1.139.57.506.711 1.139.779z"/><path data-name="路径 14536" d="M149.518 83.175c.614.04 1.119-.221 1.12-.59s-.506-.694-1.12-.724-1.084.241-1.084.6.481.674 1.084.714z"/><path data-name="路径 14537" d="M148.48 81.197c.591.02 1.078-.253 1.078-.614s-.487-.662-1.078-.672-1.041.267-1.042.617.462.649 1.042.669z"/><path data-name="路径 14538" d="M148.136 79.199c.584 0 1.066-.282 1.066-.64s-.482-.645-1.066-.64-1.029.291-1.03.64.456.635 1.03.64z"/><path data-name="路径 14539" d="M148.48 77.207c.591-.011 1.078-.312 1.078-.673s-.487-.633-1.078-.613-1.041.318-1.042.669.462.627 1.042.617z"/><path data-name="路径 14540" d="M149.519 75.253c.61-.029 1.111-.352 1.112-.719s-.5-.626-1.112-.586-1.076.355-1.077.71.478.623 1.077.595z"/><path data-name="路径 14541" d="M151.263 73.348c.639-.055 1.163-.41 1.164-.788s-.525-.62-1.164-.552-1.13.41-1.131.774.507.624 1.131.566z"/><path data-name="路径 14542" d="M153.733 71.495c.674-.091 1.227-.494 1.227-.89s-.553-.619-1.227-.51-1.2.492-1.2.87.535.62 1.2.53z"/><path data-name="路径 14543" d="M156.881 69.653c.712-.14 1.292-.609 1.293-1.033s-.581-.624-1.293-.461-1.267.605-1.268 1.007.565.624 1.268.487z"/><path data-name="路径 14544" d="M160.623 67.796c.745-.2 1.351-.754 1.352-1.22s-.606-.642-1.352-.411-1.332.752-1.333 1.188.595.641 1.333.443z"/><path data-name="路径 14545" d="M164.797 65.96c.77-.267 1.395-.922 1.4-1.444s-.624-.681-1.4-.376-1.383.922-1.383 1.407.619.677 1.383.413z"/><path data-name="路径 14546" d="M169.179 64.286a2.228 2.228 0 001.418-1.688c0-.594-.633-.751-1.418-.374a2.333 2.333 0 00-1.41 1.647c0 .547.631.741 1.41.415z"/><path data-name="路径 14547" d="M173.509 63.067a2.505 2.505 0 001.427-1.937c0-.683-.635-.863-1.427-.428a2.647 2.647 0 00-1.43 1.9c.001.621.642.84 1.43.465z"/><path data-name="路径 14548" d="M177.534 62.675a2.7 2.7 0 001.407-2.136c0-.775-.625-1.009-1.407-.547a2.864 2.864 0 00-1.417 2.1c.002.706.638.977 1.417.583z"/><path data-name="路径 14549" d="M181.037 63.511a2.755 2.755 0 001.373-2.268c0-.868-.61-1.188-1.373-.737a2.941 2.941 0 00-1.388 2.234c.001.79.625 1.143 1.388.771z"/><path data-name="路径 14550" d="M183.866 65.83a2.648 2.648 0 001.335-2.311c0-.953-.592-1.387-1.335-.989a2.838 2.838 0 00-1.355 2.284c.001.872.61 1.332 1.355 1.016z"/><path data-name="路径 14551" d="M185.924 69.671a2.4 2.4 0 001.309-2.269c0-1.028-.581-1.6-1.309-1.291a2.578 2.578 0 00-1.332 2.252c.001.939.6 1.53 1.332 1.308z"/><path data-name="路径 14552" d="M187.165 74.722c.713-.1 1.284-1.045 1.285-2.119s-.571-1.784-1.285-1.6a2.176 2.176 0 00-1.31 2.109c.005.984.594 1.704 1.31 1.61z"/><path data-name="路径 14553" d="M190.666 80.318c.565.035 1.017-.757 1.018-1.773s-.453-1.808-1.018-1.773-1.039.83-1.04 1.774.468 1.739 1.04 1.772z"/><path data-name="路径 14554" d="M190.328 86.683c.574.166 1.033-.512 1.034-1.524s-.46-1.912-1.034-2.007-1.055.592-1.055 1.532a2.089 2.089 0 001.055 1.999z"/><path data-name="路径 14555" d="M189.312 92.338c.587.285 1.054-.265 1.054-1.241a2.376 2.376 0 00-1.054-2.165c-.591-.216-1.075.35-1.075 1.256a2.533 2.533 0 001.075 2.15z"/><path data-name="路径 14556" d="M187.614 96.778c.605.382 1.086-.043 1.086-.963a2.707 2.707 0 00-1.086-2.246c-.607-.315-1.1.131-1.105.984a2.877 2.877 0 001.105 2.225z"/><path data-name="路径 14557" d="M185.244 99.69c.626.447 1.125.136 1.125-.713a2.885 2.885 0 00-1.125-2.246c-.626-.385-1.141-.048-1.141.738a3.059 3.059 0 001.141 2.221z"/><path data-name="路径 14558" d="M182.225 101.01c.648.48 1.164.261 1.164-.506a2.9 2.9 0 00-1.164-2.169c-.646-.421-1.176-.174-1.177.537a3.06 3.06 0 001.177 2.138z"/><path data-name="路径 14559" d="M178.637 100.908c.666.478 1.2.327 1.2-.356a2.754 2.754 0 00-1.2-2.024c-.663-.425-1.205-.243-1.206.39a2.9 2.9 0 001.206 1.99z"/><path data-name="路径 14560" d="M174.599 99.719c.677.445 1.219.335 1.219-.266a2.508 2.508 0 00-1.219-1.829c-.673-.4-1.222-.256-1.222.3a2.63 2.63 0 001.222 1.795z"/><path data-name="路径 14561" d="M170.278 97.844c.673.386 1.213.292 1.214-.23a2.194 2.194 0 00-1.214-1.59c-.668-.347-1.211-.221-1.212.265a2.283 2.283 0 001.212 1.555z"/><path data-name="路径 14562" d="M165.883 95.674c.664.317 1.2.218 1.2-.24a1.891 1.891 0 00-1.2-1.364c-.658-.285-1.191-.155-1.192.273s.535 1.016 1.192 1.331z"/><path data-name="路径 14563" d="M161.618 93.472c.644.246 1.165.128 1.166-.279s-.522-.929-1.166-1.151-1.153-.075-1.153.309.516.878 1.153 1.121z"/><path data-name="路径 14564" d="M157.678 91.382c.615.179 1.116.037 1.116-.331s-.5-.808-1.116-.969-1.1.006-1.1.356.492.767 1.1.944z"/><path data-name="路径 14565" d="M154.213 89.429c.582.123 1.057-.043 1.057-.384s-.475-.714-1.057-.825-1.036.077-1.036.4.462.682 1.036.809z"/><path data-name="路径 14566" d="M151.315 87.571c.546.081.994-.107.994-.429s-.448-.646-.994-.717-.97.132-.97.444.432.622.97.702z"/><path data-name="路径 14567" d="M149.027 85.737c.51.05.927-.153.928-.461s-.418-.6-.928-.638-.9.172-.9.471.399.579.9.628z"/><path data-name="路径 14568" d="M147.347 83.887c.482.029.878-.186.878-.487s-.4-.565-.878-.589-.851.2-.851.493.378.553.851.583z"/><path data-name="路径 14569" d="M146.252 81.993c.462.016.843-.209.843-.506s-.381-.546-.843-.558-.815.218-.815.509.361.539.815.555z"/><path data-name="路径 14570" d="M145.713 80.061c.452.006.824-.226.825-.521s-.373-.535-.825-.537-.8.232-.8.522.357.529.8.536z"/><path data-name="路径 14571" d="M145.713 78.111c.448 0 .818-.24.818-.532s-.37-.523-.818-.517-.789.244-.79.531.35.519.79.518z"/><path data-name="路径 14572" d="M146.252 76.184c.458-.011.836-.259.836-.553s-.378-.517-.836-.5-.808.261-.808.549.359.515.808.504z"/><path data-name="路径 14573" d="M147.347 74.303c.478-.024.871-.287.871-.584s-.393-.512-.871-.483-.844.286-.844.578.375.512.844.489z"/><path data-name="路径 14574" d="M149.027 72.476c.505-.042.92-.328.92-.633s-.415-.507-.92-.457-.894.325-.895.622.397.51.895.468z"/><path data-name="路径 14575" d="M151.315 70.685c.538-.07.978-.389.978-.706s-.441-.5-.978-.422-.955.385-.955.692.421.508.955.436z"/><path data-name="路径 14576" d="M154.213 68.887c.572-.109 1.039-.476 1.04-.811s-.467-.5-1.04-.378-1.019.47-1.02.792.454.504 1.02.397z"/><path data-name="路径 14577" d="M157.679 67.03c.6-.159 1.1-.591 1.1-.954s-.493-.5-1.1-.326-1.081.585-1.082.93.483.502 1.082.35z"/><path data-name="路径 14578" d="M161.619 65.063c.633-.219 1.146-.732 1.147-1.133s-.513-.516-1.147-.275-1.134.727-1.135 1.1.507.524 1.135.308z"/><path data-name="路径 14579" d="M165.883 63.032a1.861 1.861 0 001.18-1.342c0-.451-.527-.548-1.18-.236s-1.172.889-1.173 1.31.525.549 1.173.268z"/><path data-name="路径 14580" d="M170.28 61.084a2.177 2.177 0 001.2-1.579c0-.518-.537-.611-1.2-.228a2.266 2.266 0 00-1.2 1.545c-.001.481.538.606 1.2.262z"/><path data-name="路径 14581" d="M174.599 59.469a2.471 2.471 0 001.2-1.8c0-.591-.534-.7-1.2-.262a2.589 2.589 0 00-1.2 1.766c-.002.549.538.689 1.2.296z"/><path data-name="路径 14582" d="M178.636 58.562a2.712 2.712 0 001.179-1.992c0-.672-.523-.82-1.179-.35a2.856 2.856 0 00-1.186 1.96c.001.623.534.801 1.186.382z"/><path data-name="路径 14583" d="M182.225 58.747a2.853 2.853 0 001.146-2.135c0-.755-.508-.97-1.146-.5a3.012 3.012 0 00-1.158 2.106c.001.704.522.947 1.158.529z"/><path data-name="路径 14584" d="M185.242 60.349a2.843 2.843 0 001.107-2.211c0-.835-.491-1.141-1.107-.7a3.01 3.01 0 00-1.123 2.186c0 .774.506 1.104 1.123.725z"/><path data-name="路径 14585" d="M187.614 63.52a2.688 2.688 0 001.078-2.229c0-.913-.478-1.333-1.078-.955a2.856 2.856 0 00-1.1 2.209c.005.847.499 1.288 1.1.975z"/><path data-name="路径 14586" d="M189.311 68.151a2.36 2.36 0 001.046-2.148c0-.969-.464-1.514-1.046-1.231a2.515 2.515 0 00-1.066 2.134c.001.902.481 1.463 1.066 1.245z"/><path data-name="路径 14587" d="M190.328 73.934c.569-.1 1.025-.988 1.025-1.992s-.455-1.676-1.025-1.511a2.074 2.074 0 00-1.047 1.985c.001.932.475 1.613 1.047 1.518z"/><path data-name="路径 14588" d="M193.561 80.171c.434.026.782-.7.782-1.623s-.348-1.649-.782-1.622-.8.753-.8 1.623.361 1.595.8 1.622z"/><path data-name="路径 14589" d="M193.286 87.26c.438.143.788-.477.788-1.391s-.35-1.73-.788-1.821-.8.535-.8 1.4.358 1.667.8 1.812z"/><path data-name="路径 14590" d="M192.451 93.711c.448.251.8-.256.805-1.142a2.32 2.32 0 00-.805-1.972c-.451-.2-.821.318-.821 1.152a2.444 2.444 0 00.821 1.962z"/><path data-name="路径 14591" d="M191.047 99.016c.464.343.831-.052.832-.894a2.692 2.692 0 00-.832-2.063c-.465-.294-.847.117-.847.909a2.83 2.83 0 00.847 2.048z"/><path data-name="路径 14592" d="M189.06 102.828c.483.412.866.12.866-.664a2.925 2.925 0 00-.866-2.091c-.482-.365-.879-.055-.879.682a3.067 3.067 0 00.879 2.073z"/><path data-name="路径 14593" d="M186.491 105.007c.5.455.9.253.9-.465a2.991 2.991 0 00-.9-2.055c-.5-.411-.915-.189-.915.486a3.135 3.135 0 00.915 2.034z"/><path data-name="路径 14594" d="M183.359 105.62c.523.471.939.341.94-.305a2.907 2.907 0 00-.94-1.962c-.521-.43-.949-.277-.949.329a3.04 3.04 0 00.949 1.938z"/><path data-name="路径 14595" d="M179.725 104.907c.54.46.971.38.971-.193a2.7 2.7 0 00-.971-1.819c-.537-.423-.977-.319-.977.219a2.815 2.815 0 00.977 1.793z"/><path data-name="路径 14596" d="M175.686 103.224c.551.426.992.375.992-.129a2.412 2.412 0 00-.992-1.639c-.547-.393-.994-.317-.995.156a2.506 2.506 0 00.995 1.612z"/><path data-name="路径 14597" d="M171.381 100.965c.554.374 1 .331 1-.11a2.093 2.093 0 00-1-1.439c-.55-.345-1-.278-1 .137a2.165 2.165 0 001 1.412z"/><path data-name="路径 14598" d="M166.978 98.486c.548.311.99.261.99-.126a1.779 1.779 0 00-.99-1.235c-.544-.287-.986-.214-.987.152a1.829 1.829 0 00.987 1.209z"/><path data-name="路径 14599" d="M162.655 96.05c.534.245.966.176.966-.166s-.433-.815-.966-1.043-.958-.136-.958.19.429.78.958 1.019z"/><path data-name="路径 14600" d="M158.583 93.792c.507.181.918.089.919-.216s-.412-.7-.919-.866-.907-.056-.908.236.406.667.908.846z"/><path data-name="路径 14601" d="M154.9 91.756c.48.128.87.012.87-.269s-.391-.611-.87-.729-.856.014-.857.285.382.583.857.713z"/><path data-name="路径 14602" d="M151.703 89.893c.449.086.815-.052.816-.315s-.367-.546-.816-.625-.8.072-.8.328.357.526.8.612z"/><path data-name="路径 14603" d="M149.042 88.126c.418.055.76-.1.76-.352s-.342-.5-.76-.55-.743.115-.743.362.333.486.743.54z"/><path data-name="路径 14604" d="M146.931 86.376c.385.033.7-.133.7-.375s-.316-.465-.7-.5-.683.144-.683.382.304.46.683.493z"/><path data-name="路径 14605" d="M145.345 84.6c.361.019.657-.156.658-.394s-.3-.446-.658-.463-.638.163-.639.4.284.439.639.457z"/><path data-name="路径 14606" d="M144.251 82.771c.342.011.624-.171.624-.406s-.282-.434-.624-.443-.6.175-.6.409.263.429.6.44z"/><path data-name="路径 14607" d="M143.612 80.891c.331 0 .6-.18.6-.415s-.273-.427-.6-.431-.584.183-.584.416.259.425.584.43z"/><path data-name="路径 14608" d="M143.403 78.982c.327 0 .6-.188.6-.422s-.27-.423-.6-.422-.577.19-.577.422.256.421.577.422z"/><path data-name="路径 14609" d="M143.612 77.074c.331 0 .6-.2.6-.431s-.273-.42-.6-.415-.584.2-.584.43.259.419.584.416z"/><path data-name="路径 14610" d="M144.251 75.198c.342-.008.624-.207.624-.443s-.282-.417-.624-.406-.6.207-.6.44.263.417.6.409z"/><path data-name="路径 14611" d="M145.345 73.372c.357-.017.651-.223.651-.458s-.294-.409-.651-.39-.632.221-.632.454.281.412.632.394z"/><path data-name="路径 14612" d="M146.932 71.609c.381-.03.694-.25.694-.49s-.313-.4-.694-.372-.676.247-.677.483.301.408.677.379z"/><path data-name="路径 14613" d="M149.043 69.883c.41-.049.745-.293.745-.539s-.335-.4-.745-.345-.728.288-.728.53.324.406.728.354z"/><path data-name="路径 14614" d="M151.703 68.157c.44-.078.8-.355.8-.613s-.359-.393-.8-.309-.784.349-.784.6.349.398.784.322z"/><path data-name="路径 14615" d="M154.9 66.35c.47-.116.852-.44.853-.715s-.383-.389-.853-.263-.839.433-.84.7.375.393.84.278z"/><path data-name="路径 14616" d="M158.583 64.4c.5-.167.909-.555.909-.857s-.407-.393-.909-.214-.9.548-.9.838.403.398.9.233z"/><path data-name="路径 14617" d="M162.656 62.258c.523-.224.947-.687.947-1.022s-.423-.4-.947-.163-.939.68-.94 1 .421.412.94.185z"/><path data-name="路径 14618" d="M166.978 59.976a1.747 1.747 0 00.971-1.211c0-.379-.434-.428-.971-.124a1.8 1.8 0 00-.967 1.186c.001.359.434.431.967.149z"/><path data-name="路径 14619" d="M171.381 57.681a2.055 2.055 0 00.98-1.411c0-.432-.437-.474-.98-.107a2.125 2.125 0 00-.979 1.385c.004.407.44.473.979.133z"/><path data-name="路径 14620" d="M175.689 55.637a2.367 2.367 0 00.973-1.607c0-.494-.433-.544-.973-.126a2.459 2.459 0 00-.975 1.581c-.002.464.436.538.975.152z"/><path data-name="路径 14621" d="M179.728 54.193a2.65 2.65 0 00.952-1.783c0-.562-.423-.64-.952-.189a2.76 2.76 0 00-.958 1.758c-.003.524.429.629.958.214z"/><path data-name="路径 14622" d="M183.36 53.73a2.854 2.854 0 00.922-1.924c0-.633-.409-.761-.922-.3a2.98 2.98 0 00-.93 1.9c-.001.597.419.746.93.324z"/><path data-name="路径 14623" d="M186.491 54.603a2.966 2.966 0 00.895-2.036c0-.71-.4-.91-.895-.459a3.107 3.107 0 00-.906 2.015c.001.668.409.888.906.48z"/><path data-name="路径 14624" d="M189.061 57.014a2.9 2.9 0 00.858-2.071c0-.776-.38-1.065-.858-.657a3.04 3.04 0 00-.871 2.053c0 .731.393 1.038.871.675z"/><path data-name="路径 14625" d="M191.048 61.026a2.67 2.67 0 00.824-2.044c0-.833-.365-1.224-.824-.885a2.8 2.8 0 00-.839 2.03c0 .785.378 1.191.839.899z"/><path data-name="路径 14626" d="M192.451 66.484a2.3 2.3 0 00.8-1.953c0-.877-.354-1.378-.8-1.13a2.422 2.422 0 00-.813 1.943c0 .826.367 1.339.813 1.14z"/><path data-name="路径 14627" d="M193.286 73.048c.437-.092.788-.909.788-1.822s-.35-1.533-.788-1.39-.8.956-.8 1.817.357 1.484.8 1.395z"/><path data-name="路径 14628" d="M196.248 79.944c.31.017.558-.607.558-1.4s-.248-1.413-.558-1.4-.569.643-.57 1.4.256 1.38.57 1.4z"/><path data-name="路径 14629" d="M196.021 87.836c.313.116.563-.419.563-1.2s-.251-1.484-.563-1.566-.574.458-.574 1.2.256 1.452.574 1.566z"/><path data-name="路径 14630" d="M195.336 95.138c.321.21.576-.232.576-.993a2.209 2.209 0 00-.576-1.7c-.322-.176-.586.273-.586 1a2.3 2.3 0 00.586 1.693z"/><path data-name="路径 14631" d="M194.177 101.336c.332.29.6-.058.6-.785a2.6 2.6 0 00-.6-1.789c-.333-.258-.607.1-.607.8a2.7 2.7 0 00.607 1.774z"/><path data-name="路径 14632" d="M192.521 106.074c.348.354.624.094.624-.589a2.866 2.866 0 00-.624-1.829c-.347-.323-.633-.051-.634.6a2.971 2.971 0 00.634 1.818z"/><path data-name="路径 14633" d="M190.348 109.159c.365.4.655.219.656-.413a2.974 2.974 0 00-.656-1.821c-.364-.37-.664-.176-.664.427a3.082 3.082 0 00.664 1.807z"/><path data-name="路径 14634" d="M187.656 110.577c.383.425.688.311.688-.264a2.932 2.932 0 00-.688-1.768c-.382-.4-.7-.268-.7.279a3.038 3.038 0 00.7 1.753z"/><path data-name="路径 14635" d="M184.457 110.479c.4.429.72.367.72-.148a2.768 2.768 0 00-.72-1.673c-.4-.4-.726-.326-.726.165a2.865 2.865 0 00.726 1.656z"/><path data-name="路径 14636" d="M180.801 109.15c.415.414.746.387.747-.069a2.518 2.518 0 00-.747-1.544c-.413-.39-.75-.347-.751.087a2.6 2.6 0 00.751 1.526z"/><path data-name="路径 14637" d="M176.77 106.951c.425.382.765.374.765-.027a2.211 2.211 0 00-.765-1.39c-.422-.361-.767-.336-.768.046a2.279 2.279 0 00.768 1.371z"/><path data-name="路径 14638" d="M172.481 104.266c.429.336.773.332.774-.019a1.9 1.9 0 00-.774-1.221c-.426-.317-.773-.3-.774.038a1.945 1.945 0 00.774 1.202z"/><path data-name="路径 14639" d="M168.078 101.437c.426.282.77.269.77-.038a1.589 1.589 0 00-.77-1.05c-.423-.267-.767-.238-.768.056a1.623 1.623 0 00.768 1.032z"/><path data-name="路径 14640" d="M163.717 98.717c.417.225.753.2.754-.076s-.337-.672-.754-.887-.749-.168-.749.093.336.646.749.87z"/><path data-name="路径 14641" d="M159.551 96.249c.4.171.725.119.726-.124s-.325-.579-.726-.742-.72-.1-.72.138.322.558.72.728z"/><path data-name="路径 14642" d="M155.709 94.071c.38.124.689.049.689-.173s-.309-.5-.689-.621-.68-.031-.681.185.302.486.681.609z"/><path data-name="路径 14643" d="M152.291 92.146c.355.085.645-.011.645-.218s-.29-.445-.645-.525-.636.025-.636.228.284.431.636.515z"/><path data-name="路径 14644" d="M149.356 90.388c.326.054.591-.056.591-.251s-.266-.4-.591-.449-.581.067-.581.259.259.388.581.441z"/><path data-name="路径 14645" d="M146.927 88.712c.3.033.545-.09.545-.278s-.246-.369-.545-.4-.534.1-.535.284.238.361.535.394z"/><path data-name="路径 14646" d="M144.99 87.041c.276.019.5-.113.5-.3s-.227-.35-.5-.369-.491.118-.491.3.219.35.491.369z"/><path data-name="路径 14647" d="M143.516 85.328c.256.011.467-.127.467-.31s-.211-.339-.467-.349-.455.13-.455.312.202.336.455.347z"/><path data-name="路径 14648" d="M142.462 83.547c.237.005.432-.134.432-.313s-.2-.329-.432-.334a.371.371 0 00-.42.315.391.391 0 00.42.332z"/><path data-name="路径 14649" d="M141.786 81.709a.372.372 0 00.413-.318.382.382 0 00-.413-.327.363.363 0 00-.4.319.372.372 0 00.4.326z"/><path data-name="路径 14650" d="M141.458 79.829a.33.33 0 100-.644.328.328 0 100 .644z"/><path data-name="路径 14651" d="M141.458 77.934a.33.33 0 100-.644.328.328 0 100 .644z"/><path data-name="路径 14652" d="M141.786 76.055a.382.382 0 00.413-.327.418.418 0 00-.813.009.363.363 0 00.4.318z"/><path data-name="路径 14653" d="M142.462 74.219c.237 0 .432-.155.432-.334s-.2-.319-.432-.313a.391.391 0 00-.42.332.372.372 0 00.42.315z"/><path data-name="路径 14654" d="M143.516 72.446c.253-.01.46-.165.461-.345s-.208-.317-.461-.306-.449.163-.449.342.2.319.449.309z"/><path data-name="路径 14655" d="M144.99 70.74c.273-.018.5-.182.5-.364s-.224-.313-.5-.293-.485.18-.485.361.22.313.485.296z"/><path data-name="路径 14656" d="M146.927 69.081c.3-.031.538-.209.538-.4s-.242-.308-.538-.275-.528.206-.528.39.235.316.528.285z"/><path data-name="路径 14657" d="M149.356 67.427c.321-.05.583-.251.583-.443s-.262-.3-.583-.248-.573.247-.573.436.256.305.573.255z"/><path data-name="路径 14658" d="M152.291 65.701c.346-.078.629-.309.629-.512s-.283-.295-.629-.212-.62.3-.62.5.277.305.62.224z"/><path data-name="路径 14659" d="M155.709 63.83c.37-.115.671-.388.671-.6s-.3-.289-.671-.169-.664.382-.664.593.297.289.664.176z"/><path data-name="路径 14660" d="M159.551 61.723c.39-.159.707-.486.707-.723s-.317-.288-.707-.121-.7.48-.7.709.312.293.7.135z"/><path data-name="路径 14661" d="M163.717 59.35c.406-.21.734-.6.735-.864s-.328-.294-.735-.074-.73.595-.73.849.323.297.73.089z"/><path data-name="路径 14662" d="M168.078 56.751a1.55 1.55 0 00.75-1.023c0-.3-.335-.312-.75-.037a1.584 1.584 0 00-.748 1.007c0 .285.336.313.748.053z"/><path data-name="路径 14663" d="M172.48 54.07a1.848 1.848 0 00.754-1.191c0-.342-.336-.346-.754-.018a1.9 1.9 0 00-.754 1.173c0 .326.339.346.754.036z"/><path data-name="路径 14664" d="M176.769 51.558a2.158 2.158 0 00.746-1.355c0-.39-.332-.4-.746-.026a2.222 2.222 0 00-.748 1.337c0 .373.336.396.748.044z"/><path data-name="路径 14665" d="M180.8 49.561a2.486 2.486 0 00.737-1.525c0-.451-.328-.477-.737-.068a2.568 2.568 0 00-.741 1.507c.005.43.334.472.741.086z"/><path data-name="路径 14666" d="M184.457 48.435a2.736 2.736 0 00.711-1.652c0-.509-.316-.57-.711-.146a2.83 2.83 0 00-.717 1.636c0 .485.323.561.717.162z"/><path data-name="路径 14667" d="M187.655 48.543a2.9 2.9 0 00.68-1.746c0-.567-.3-.68-.68-.26a3 3 0 00-.687 1.731c0 .541.309.667.687.275z"/><path data-name="路径 14668" d="M190.348 50.16a2.938 2.938 0 00.647-1.8c0-.623-.287-.8-.647-.407a3.045 3.045 0 00-.656 1.785c.001.596.292.787.656.422z"/><path data-name="路径 14669" d="M192.521 53.428a2.832 2.832 0 00.616-1.806c0-.675-.273-.931-.616-.581a2.936 2.936 0 00-.625 1.795c-.001.64.282.908.625.592z"/><path data-name="路径 14670" d="M194.173 58.316a2.572 2.572 0 00.589-1.766c0-.718-.261-1.061-.589-.775a2.671 2.671 0 00-.6 1.757c0 .686.275 1.039.6.784z"/><path data-name="路径 14671" d="M195.336 64.648a2.211 2.211 0 00.576-1.7c0-.761-.255-1.2-.576-.992a2.3 2.3 0 00-.586 1.693c0 .727.265 1.176.586.999z"/><path data-name="路径 14672" d="M196.021 72.019c.312-.083.563-.785.563-1.567s-.25-1.317-.563-1.2-.574.816-.574 1.563.256 1.287.574 1.204z"/><path data-name="路径 14673" d="M198.704 79.643c.2.009.359-.482.359-1.1s-.16-1.108-.359-1.1-.366.5-.366 1.1.164 1.09.366 1.1z"/><path data-name="路径 14674" d="M198.519 88.428c.2.088.362-.334.362-.946s-.161-1.164-.362-1.233-.368.356-.369.949.166 1.141.369 1.23z"/><path data-name="路径 14675" d="M197.958 96.654c.211.164.378-.192.378-.8a2.032 2.032 0 00-.378-1.365c-.211-.145-.384.216-.384.8a2.091 2.091 0 00.384 1.365z"/><path data-name="路径 14676" d="M197.004 103.79c.219.23.393-.054.393-.637a2.417 2.417 0 00-.393-1.441c-.219-.211-.4.079-.4.644a2.482 2.482 0 00.4 1.434z"/><path data-name="路径 14677" d="M195.631 109.484c.23.283.413.069.413-.483a2.677 2.677 0 00-.413-1.482c-.229-.264-.418-.043-.418.491a2.747 2.747 0 00.418 1.474z"/><path data-name="路径 14678" d="M193.809 113.512c.243.323.436.172.436-.343a2.8 2.8 0 00-.436-1.488c-.242-.305-.441-.147-.442.351a2.87 2.87 0 00.442 1.48z"/><path data-name="路径 14679" d="M191.525 115.805c.257.349.462.253.462-.22a2.788 2.788 0 00-.462-1.462c-.256-.332-.467-.228-.467.228a2.86 2.86 0 00.467 1.454z"/><path data-name="路径 14680" d="M188.759 116.438c.271.361.488.31.488-.118a2.666 2.666 0 00-.488-1.405c-.271-.345-.492-.286-.493.127a2.732 2.732 0 00.493 1.396z"/><path data-name="路径 14681" d="M185.524 115.62c.285.358.513.342.513-.04a2.454 2.454 0 00-.513-1.322c-.284-.344-.516-.319-.516.05a2.516 2.516 0 00.516 1.312z"/><path data-name="路径 14682" d="M181.863 113.66c.3.342.534.349.534.011a2.188 2.188 0 00-.534-1.216c-.3-.329-.536-.327-.537 0a2.242 2.242 0 00.537 1.205z"/><path data-name="路径 14683" d="M177.848 110.922c.3.315.549.333.55.036a1.9 1.9 0 00-.55-1.094c-.3-.3-.551-.312-.551-.025a1.94 1.94 0 00.551 1.083z"/><path data-name="路径 14684" d="M173.578 107.769c.3.273.548.291.548.036a1.575 1.575 0 00-.548-.945c-.3-.263-.548-.273-.548-.026a1.606 1.606 0 00.548.935z"/><path data-name="路径 14685" d="M169.181 104.549c.3.231.547.241.547.018a1.307 1.307 0 00-.547-.814c-.3-.223-.546-.224-.546-.007a1.327 1.327 0 00.546.803z"/><path data-name="路径 14686" d="M164.798 101.501c.3.187.538.183.538-.014a1.069 1.069 0 00-.538-.689c-.3-.18-.535-.167-.536.024a1.083 1.083 0 00.536.679z"/><path data-name="路径 14687" d="M160.558 98.77c.287.144.519.122.52-.054s-.233-.435-.52-.575-.516-.109-.517.062.231.421.517.567z"/><path data-name="路径 14688" d="M156.594 96.404c.273.106.494.065.494-.095s-.221-.376-.494-.479-.49-.055-.49.1.223.368.49.474z"/><path data-name="路径 14689" d="M153.005 94.366c.256.074.464.016.464-.132s-.208-.329-.464-.4-.459-.008-.459.138.205.32.459.394z"/><path data-name="路径 14690" d="M149.855 92.576c.237.049.429-.023.429-.164s-.193-.295-.429-.342-.424.03-.424.169.189.289.424.337z"/><path data-name="路径 14691" d="M147.177 90.927c.213.03.387-.052.387-.185s-.174-.266-.387-.295-.382.057-.382.189.167.261.382.291z"/><path data-name="路径 14692" d="M144.97 89.338c.195.017.353-.073.353-.2s-.159-.25-.353-.267-.347.076-.347.205.155.244.347.262z"/><path data-name="路径 14693" d="M143.211 87.732c.177.009.322-.086.322-.214s-.145-.241-.322-.25-.316.088-.316.216.143.239.316.248z"/><path data-name="路径 14694" d="M141.864 86.07a.26.26 0 00.3-.222.279.279 0 00-.3-.239.256.256 0 00-.289.223.273.273 0 00.289.238z"/><path data-name="路径 14695" d="M140.878 84.334a.251.251 0 00.274-.226.259.259 0 00-.274-.234.246.246 0 00-.267.226.254.254 0 00.267.234z"/><path data-name="路径 14696" d="M140.21 82.53a.244.244 0 00.258-.228.247.247 0 00-.258-.231.239.239 0 00-.251.228.242.242 0 00.251.231z"/><path data-name="路径 14697" d="M139.823 80.669a.226.226 0 100-.45.226.226 0 100 .45z"/><path data-name="路径 14698" d="M139.7 78.784a.226.226 0 100-.45.225.225 0 100 .45z"/><path data-name="路径 14699" d="M139.823 76.9a.226.226 0 100-.45.226.226 0 100 .45z"/><path data-name="路径 14700" d="M140.21 75.044a.242.242 0 00.253-.227.251.251 0 00-.5 0 .235.235 0 00.247.227z"/><path data-name="路径 14701" d="M140.878 73.239a.255.255 0 00.269-.23.246.246 0 00-.269-.222.25.25 0 00-.262.229.242.242 0 00.262.223z"/><path data-name="路径 14702" d="M141.864 71.506a.274.274 0 00.29-.235.255.255 0 00-.29-.218.268.268 0 00-.284.234.251.251 0 00.284.219z"/><path data-name="路径 14703" d="M143.213 69.843c.174-.009.316-.119.316-.245s-.142-.22-.316-.211-.311.118-.311.243.138.226.311.213z"/><path data-name="路径 14704" d="M144.97 68.248c.191-.017.347-.134.347-.262s-.156-.216-.347-.2-.341.133-.341.26.152.218.341.202z"/><path data-name="路径 14705" d="M147.177 66.667c.209-.028.38-.159.38-.289s-.171-.211-.38-.182-.375.157-.375.286.167.213.375.185z"/><path data-name="路径 14706" d="M149.855 65.04c.228-.046.414-.194.414-.33s-.186-.205-.414-.158-.409.191-.409.326.183.207.409.162z"/><path data-name="路径 14707" d="M153.005 63.276c.246-.069.447-.243.447-.387s-.2-.2-.447-.128-.442.24-.443.381.198.202.443.134z"/><path data-name="路径 14708" d="M156.594 61.278c.263-.1.476-.307.477-.462s-.214-.193-.477-.091-.473.3-.473.455.212.196.473.098z"/><path data-name="路径 14709" d="M160.557 58.964c.277-.135.5-.385.5-.555s-.224-.191-.5-.052-.5.382-.5.547.225.194.5.06z"/><path data-name="路径 14710" d="M164.794 56.305a1.032 1.032 0 00.518-.664c0-.19-.232-.194-.518-.014a1.045 1.045 0 00-.516.656c0 .184.231.195.516.022z"/><path data-name="路径 14711" d="M169.181 53.353a1.285 1.285 0 00.537-.8c0-.22-.24-.21-.537.017a1.3 1.3 0 00-.537.79c.001.214.237.212.537-.007z"/><path data-name="路径 14712" d="M173.578 50.243a1.548 1.548 0 00.538-.929c0-.251-.24-.233-.538.036a1.578 1.578 0 00-.538.919c-.004.242.242.233.538-.026z"/><path data-name="路径 14713" d="M177.849 47.223a1.832 1.832 0 00.53-1.056c0-.287-.236-.269-.53.035a1.872 1.872 0 00-.532 1.046c0 .281.239.275.532-.025z"/><path data-name="路径 14714" d="M181.864 44.631a2.115 2.115 0 00.516-1.174c0-.327-.229-.32-.516.011a2.166 2.166 0 00-.518 1.164c0 .316.233.317.518-.001z"/><path data-name="路径 14715" d="M185.524 42.822a2.369 2.369 0 00.5-1.276c0-.369-.22-.384-.5-.039a2.429 2.429 0 00-.5 1.267c.002.357.227.38.5.048z"/><path data-name="路径 14716" d="M188.756 42.159a2.575 2.575 0 00.471-1.356c0-.413-.21-.462-.471-.114a2.636 2.636 0 00-.475 1.348c.002.4.216.456.475.122z"/><path data-name="路径 14717" d="M191.525 42.961a2.742 2.742 0 00.454-1.437c0-.464-.2-.558-.454-.215a2.812 2.812 0 00-.459 1.428c0 .45.207.55.459.224z"/><path data-name="路径 14718" d="M193.813 45.398a2.756 2.756 0 00.428-1.463c0-.505-.19-.654-.428-.336a2.825 2.825 0 00-.434 1.455c0 .489.196.644.434.344z"/><path data-name="路径 14719" d="M195.631 49.558a2.631 2.631 0 00.405-1.457c0-.542-.18-.752-.405-.474a2.7 2.7 0 00-.411 1.449c0 .525.185.745.411.482z"/><path data-name="路径 14720" d="M197.004 55.362a2.376 2.376 0 00.386-1.416c0-.573-.171-.851-.386-.626a2.438 2.438 0 00-.392 1.41c0 .554.176.839.392.632z"/><path data-name="路径 14721" d="M197.957 62.582a2 2 0 00.372-1.342c0-.6-.165-.946-.372-.785a2.054 2.054 0 00-.377 1.337c0 .578.17.932.377.79z"/><path data-name="路径 14722" d="M198.519 70.839c.2-.069.362-.622.362-1.234s-.161-1.033-.362-.946-.368.639-.369 1.231.166 1.018.369.949z"/><path data-name="路径 14723" d="M200.911 79.283c.108 0 .195-.328.195-.742s-.087-.745-.195-.741-.2.336-.2.742.092.737.2.741z"/><path data-name="路径 14724" d="M200.761 89.064c.109.059.2-.225.2-.636s-.088-.785-.2-.836-.2.235-.2.637.091.776.2.835z"/><path data-name="路径 14725" d="M200.306 98.266c.112.109.2-.126.2-.527a1.625 1.625 0 00-.2-.911c-.112-.1-.2.137-.2.53a1.655 1.655 0 00.2.908z"/><path data-name="路径 14726" d="M199.528 106.396c.117.152.21-.036.21-.422a1.947 1.947 0 00-.21-.964c-.117-.145-.213.046-.213.425a1.974 1.974 0 00.213.961z"/><path data-name="路径 14727" d="M198.398 113.082c.124.188.222.044.222-.323a2.149 2.149 0 00-.222-.993c-.123-.18-.224-.033-.224.327a2.179 2.179 0 00.224.989z"/><path data-name="路径 14728" d="M196.893 118.086c.131.215.236.112.236-.233a2.242 2.242 0 00-.236-1c-.131-.208-.238-.1-.238.236a2.283 2.283 0 00.238.997z"/><path data-name="路径 14729" d="M194.974 121.304c.14.234.252.167.252-.152a2.242 2.242 0 00-.252-.991c-.14-.227-.254-.157-.254.155a2.269 2.269 0 00.254.988z"/><path data-name="路径 14730" d="M192.617 122.756c.149.245.269.209.269-.082a2.143 2.143 0 00-.269-.962c-.149-.239-.271-.2-.271.085a2.172 2.172 0 00.271.959z"/><path data-name="路径 14731" d="M189.812 122.587c.159.248.286.238.286-.025a1.991 1.991 0 00-.286-.918c-.158-.243-.288-.229-.288.029a2.02 2.02 0 00.288.914z"/><path data-name="路径 14732" d="M186.567 121.038c.167.244.3.253.3.018a1.8 1.8 0 00-.3-.86c-.167-.238-.3-.244-.3-.014a1.822 1.822 0 00.3.856z"/><path data-name="路径 14733" d="M182.916 118.431c.175.231.316.253.316.045a1.577 1.577 0 00-.316-.789c-.175-.226-.317-.244-.317-.041a1.6 1.6 0 00.317.785z"/><path data-name="路径 14734" d="M178.921 115.129c.181.213.326.239.326.057a1.351 1.351 0 00-.326-.71c-.18-.208-.327-.231-.327-.052a1.367 1.367 0 00.327.705z"/><path data-name="路径 14735" d="M174.674 111.494c.184.188.332.213.332.054a1.13 1.13 0 00-.332-.625c-.183-.184-.332-.206-.332-.05a1.138 1.138 0 00.332.621z"/><path data-name="路径 14736" d="M170.286 107.846c.184.16.332.179.332.04a.922.922 0 00-.332-.539c-.184-.157-.332-.172-.333-.036a.934.934 0 00.333.535z"/><path data-name="路径 14737" d="M165.883 104.432c.181.131.328.14.328.017a.748.748 0 00-.328-.457c-.181-.129-.327-.134-.328-.013a.754.754 0 00.328.453z"/><path data-name="路径 14738" d="M161.591 101.393c.176.1.318.1.318-.01s-.143-.281-.318-.382-.317-.094-.318.014.143.275.318.378z"/><path data-name="路径 14739" d="M157.533 98.785c.163.074.295.058.295-.038s-.132-.234-.295-.307-.294-.054-.294.04.133.231.294.305z"/><path data-name="路径 14740" d="M153.805 96.59c.153.053.277.025.277-.064s-.124-.2-.277-.255-.276-.022-.276.066.123.201.276.253z"/><path data-name="路径 14741" d="M150.479 94.721c.142.035.257 0 .257-.086s-.115-.18-.257-.215-.255.005-.255.088.113.176.255.213z"/><path data-name="路径 14742" d="M147.596 93.066c.13.022.235-.024.235-.1s-.105-.163-.235-.186-.233.026-.233.105.104.159.233.181z"/><path data-name="路径 14743" d="M145.169 91.526c.118.013.213-.039.213-.117s-.1-.152-.213-.165-.211.04-.211.118.094.15.211.164z"/><path data-name="路径 14744" d="M143.183 90.011c.106.007.192-.049.192-.126s-.086-.145-.192-.152-.19.05-.19.127.085.144.19.151z"/><path data-name="路径 14745" d="M141.606 88.459a.152.152 0 00.173-.132.165.165 0 00-.173-.144.151.151 0 00-.171.132.164.164 0 00.171.144z"/><path data-name="路径 14746" d="M140.392 86.833a.141.141 0 00.152-.132.146.146 0 00-.152-.136.14.14 0 00-.15.132.145.145 0 00.15.136z"/><path data-name="路径 14747" d="M139.493 85.131a.134.134 0 100-.267.134.134 0 100 .267z"/><path data-name="路径 14748" d="M138.846 83.353a.134.134 0 100-.267.134.134 0 100 .267z"/><path data-name="路径 14749" d="M138.387 81.515a.141.141 0 00.146-.134.139.139 0 00-.146-.133.134.134 0 100 .267z"/><path data-name="路径 14750" d="M138.147 79.638a.134.134 0 100-.267.135.135 0 100 .267z"/><path data-name="路径 14751" d="M138.147 77.748a.135.135 0 10-.151-.134.144.144 0 00.151.134z"/><path data-name="路径 14752" d="M138.387 75.866a.134.134 0 10-.148-.134.142.142 0 00.148.134z"/><path data-name="路径 14753" d="M138.846 74.029a.13.13 0 100-.259.13.13 0 100 .259z"/><path data-name="路径 14754" d="M139.493 72.251a.13.13 0 100-.259.13.13 0 100 .259z"/><path data-name="路径 14755" d="M140.392 70.549a.142.142 0 00.147-.132.137.137 0 00-.147-.127.14.14 0 00-.145.131.136.136 0 00.145.128z"/><path data-name="路径 14756" d="M141.606 68.928a.155.155 0 00.162-.135.143.143 0 00-.162-.124.153.153 0 00-.161.135.142.142 0 00.161.124z"/><path data-name="路径 14757" d="M143.183 67.379c.1-.006.181-.07.181-.143s-.081-.125-.181-.119-.178.07-.178.142.08.126.178.12z"/><path data-name="路径 14758" d="M145.169 65.867c.11-.012.2-.082.2-.155s-.09-.122-.2-.11-.2.081-.2.154.091.123.2.111z"/><path data-name="路径 14759" d="M147.596 64.33c.122-.021.221-.1.221-.174s-.1-.119-.221-.1-.219.1-.219.173.098.124.219.101z"/><path data-name="路径 14760" d="M150.478 62.692c.133-.033.241-.124.241-.2s-.108-.114-.241-.081-.24.122-.24.2.108.113.24.081z"/><path data-name="路径 14761" d="M153.804 60.837c.143-.049.26-.157.26-.24s-.117-.109-.26-.06-.259.155-.259.238.116.111.259.062z"/><path data-name="路径 14762" d="M157.533 58.667c.153-.069.277-.2.277-.289s-.124-.105-.277-.036-.276.2-.276.286.124.107.276.039z"/><path data-name="路径 14763" d="M161.592 56.104c.165-.1.3-.257.3-.359s-.134-.106-.3-.01-.3.255-.3.356.135.108.3.013z"/><path data-name="路径 14764" d="M165.882 53.112a.7.7 0 00.309-.43c0-.115-.138-.107-.309.016a.711.711 0 00-.308.427c0 .113.138.108.308-.013z"/><path data-name="路径 14765" d="M170.286 49.751a.871.871 0 00.313-.508c0-.131-.14-.114-.313.037a.877.877 0 00-.313.5c0 .139.14.119.313-.029z"/><path data-name="路径 14766" d="M174.675 46.171a1.061 1.061 0 00.312-.588c0-.15-.139-.127-.312.051a1.074 1.074 0 00-.313.584c0 .147.136.126.313-.047z"/><path data-name="路径 14767" d="M178.921 42.614a1.271 1.271 0 00.307-.668c0-.172-.137-.147-.307.053a1.283 1.283 0 00-.307.664c0 .168.138.147.307-.049z"/><path data-name="路径 14768" d="M182.915 39.397a1.484 1.484 0 00.3-.743c0-.2-.133-.176-.3.042a1.5 1.5 0 00-.3.739c.002.192.136.175.3-.038z"/><path data-name="路径 14769" d="M186.567 36.882a1.69 1.69 0 00.284-.809c0-.221-.127-.213-.284.017a1.714 1.714 0 00-.286.806c0 .216.128.211.286-.014z"/><path data-name="路径 14770" d="M189.812 35.443a1.935 1.935 0 00.278-.891c0-.255-.124-.265-.278-.024a1.959 1.959 0 00-.279.888c0 .249.125.262.279.027z"/><path data-name="路径 14771" d="M192.617 35.369a2.084 2.084 0 00.261-.934c0-.283-.116-.317-.261-.079a2.113 2.113 0 00-.263.931c.002.275.118.314.263.082z"/><path data-name="路径 14772" d="M194.978 36.916a2.173 2.173 0 00.245-.962c0-.309-.109-.374-.245-.147a2.2 2.2 0 00-.247.958c-.004.304.107.372.247.151z"/><path data-name="路径 14773" d="M196.893 40.221a2.181 2.181 0 00.229-.972c0-.334-.1-.434-.229-.225a2.209 2.209 0 00-.231.969c0 .327.104.43.231.228z"/><path data-name="路径 14774" d="M198.402 45.303a2.093 2.093 0 00.215-.964c0-.356-.1-.5-.215-.313a2.118 2.118 0 00-.218.961c-.003.349.097.496.218.316z"/><path data-name="路径 14775" d="M199.528 52.056a1.891 1.891 0 00.2-.936c0-.375-.091-.557-.2-.409a1.912 1.912 0 00-.206.932c-.004.369.096.554.206.413z"/><path data-name="路径 14776" d="M200.306 60.237a1.578 1.578 0 00.2-.884c0-.389-.087-.617-.2-.511a1.6 1.6 0 00-.2.882c.002.381.091.612.2.513z"/><path data-name="路径 14777" d="M200.761 69.492c.109-.051.2-.426.2-.836s-.087-.694-.2-.635-.2.432-.2.835.09.686.2.636z"/><path data-name="路径 14778" d="M202.855 78.808c.031 0 .055-.12.055-.269s-.025-.269-.055-.269-.055.121-.055.269.028.268.055.269z"/><path data-name="路径 14779" d="M202.739 89.771c.031.023.056-.078.056-.226a.576.576 0 00-.056-.307c-.031-.022-.056.08-.056.226a.58.58 0 00.056.307z"/><path data-name="路径 14780" d="M202.374 100.107c.032.042.057-.04.057-.185a.775.775 0 00-.057-.337c-.032-.041-.058.042-.058.185a.778.778 0 00.058.337z"/><path data-name="路径 14781" d="M201.747 109.307c.033.058.06-.008.06-.147a.923.923 0 00-.06-.355c-.033-.057-.06.009-.06.147a.918.918 0 00.06.355z"/><path data-name="路径 14782" d="M200.833 117.013c.035.07.064.019.064-.113a1 1 0 00-.064-.365c-.035-.069-.064-.018-.064.114a1 1 0 00.064.364z"/><path data-name="路径 14783" d="M199.599 123.001c.038.079.068.042.068-.083a1.021 1.021 0 00-.068-.367c-.038-.078-.068-.041-.068.083a1.034 1.034 0 00.068.367z"/><path data-name="路径 14784" d="M198.012 127.159c.041.086.073.061.073-.055a1 1 0 00-.073-.363c-.041-.085-.074-.06-.074.056a1.008 1.008 0 00.074.362z"/><path data-name="路径 14785" d="M196.035 129.48c.044.09.079.076.079-.031a.959.959 0 00-.079-.355c-.044-.089-.079-.075-.079.031a.954.954 0 00.079.355z"/><path data-name="路径 14786" d="M193.644 130.052c.047.092.085.088.085-.009a.883.883 0 00-.085-.342c-.047-.091-.085-.087-.085.01a.89.89 0 00.085.341z"/><path data-name="路径 14787" d="M190.825 129.056c.05.092.091.1.091.007a.808.808 0 00-.091-.324c-.051-.091-.091-.094-.091-.007a.8.8 0 00.091.324z"/><path data-name="路径 14788" d="M187.586 126.76c.053.089.1.1.1.02a.713.713 0 00-.1-.3c-.053-.089-.1-.1-.1-.019a.713.713 0 00.1.299z"/><path data-name="路径 14789" d="M183.954 123.486c.056.084.1.1.1.027a.613.613 0 00-.1-.277c-.056-.084-.1-.1-.1-.027a.618.618 0 00.1.277z"/><path data-name="路径 14790" d="M179.988 119.592c.058.077.1.091.1.03a.52.52 0 00-.1-.249c-.058-.077-.1-.09-.1-.03a.522.522 0 00.1.249z"/><path data-name="路径 14791" d="M175.766 115.437c.059.069.107.081.107.028a.431.431 0 00-.107-.22c-.059-.068-.107-.08-.107-.028a.432.432 0 00.107.22z"/><path data-name="路径 14792" d="M171.391 111.326c.059.059.107.069.108.023a.351.351 0 00-.108-.19c-.06-.059-.108-.069-.108-.022a.35.35 0 00.108.189z"/><path data-name="路径 14793" d="M166.978 107.508c.059.049.107.055.107.015a.28.28 0 00-.107-.161c-.059-.048-.107-.054-.107-.014a.279.279 0 00.107.16z"/><path data-name="路径 14794" d="M162.646 104.124c.057.038.1.041.1 0a.221.221 0 00-.1-.135c-.057-.038-.1-.04-.1 0a.223.223 0 00.1.135z"/><path data-name="路径 14795" d="M158.509 101.246c.055.029.1.026.1-.006s-.045-.083-.1-.112-.1-.026-.1.006.045.083.1.112z"/><path data-name="路径 14796" d="M154.666 98.849c.052.021.094.014.094-.016s-.042-.071-.094-.092-.094-.014-.094.016.045.071.094.092z"/><path data-name="路径 14797" d="M151.192 96.856c.048.014.087 0 .087-.025s-.039-.062-.087-.077-.087 0-.087.025.038.062.087.077z"/><path data-name="路径 14798" d="M148.136 95.155c.044.009.079 0 .08-.032s-.036-.056-.08-.065-.079.005-.08.032.036.056.08.065z"/><path data-name="路径 14799" d="M145.52 93.626c.036 0 .066-.01.066-.034s-.029-.047-.066-.052-.065.01-.065.034.029.047.065.052z"/><path data-name="路径 14800" d="M143.34 92.176c.032 0 .059-.014.059-.037s-.026-.044-.059-.047-.058.014-.058.037.027.044.058.047z"/><path data-name="路径 14801" d="M141.571 90.723a.046.046 0 00.052-.04.05.05 0 00-.052-.044.046.046 0 00-.052.04.051.051 0 00.052.044z"/><path data-name="路径 14802" d="M140.173 89.213a.044.044 0 00.046-.041.045.045 0 00-.046-.042.043.043 0 00-.046.041.045.045 0 00.046.042z"/><path data-name="路径 14803" d="M139.098 87.623a.042.042 0 10-.043-.042.043.043 0 00.043.042z"/><path data-name="路径 14804" d="M138.18 85.947a.045.045 0 00.047-.042.044.044 0 00-.047-.041.045.045 0 00-.047.042.044.044 0 00.047.041z"/><path data-name="路径 14805" d="M137.393 84.187a.043.043 0 00.045-.038.041.041 0 00-.045-.037.043.043 0 00-.045.038.041.041 0 00.045.037z"/><path data-name="路径 14806" d="M136.791 82.361a.044.044 0 00.047-.038.043.043 0 00-.047-.037.044.044 0 00-.047.038.043.043 0 00.047.037z"/><path data-name="路径 14807" d="M136.415 80.495a.045.045 0 00.049-.038.044.044 0 00-.049-.037.045.045 0 00-.049.038.044.044 0 00.049.037z"/><path data-name="路径 14808" d="M136.285 78.598a.039.039 0 10-.049-.038.045.045 0 00.049.038z"/><path data-name="路径 14809" d="M136.415 76.7a.044.044 0 00.049-.037.045.045 0 00-.049-.038.039.039 0 100 .075z"/><path data-name="路径 14810" d="M136.791 74.829a.043.043 0 00.047-.037.044.044 0 00-.047-.038.043.043 0 00-.047.037.044.044 0 00.047.038z"/><path data-name="路径 14811" d="M137.393 73.007a.041.041 0 00.045-.037.043.043 0 00-.045-.038.041.041 0 00-.045.037.043.043 0 00.045.038z"/><path data-name="路径 14812" d="M138.18 71.252a.04.04 0 00.042-.037.041.041 0 00-.042-.038.04.04 0 00-.042.037.041.041 0 00.042.038z"/><path data-name="路径 14813" d="M139.101 69.576a.038.038 0 00.038-.037.038.038 0 10-.038.037z"/><path data-name="路径 14814" d="M140.173 67.986a.041.041 0 00.042-.038.039.039 0 00-.042-.037.04.04 0 00-.041.038.039.039 0 00.041.037z"/><path data-name="路径 14815" d="M141.571 66.476a.045.045 0 00.047-.04.041.041 0 00-.047-.036.045.045 0 00-.047.04.041.041 0 00.047.036z"/><path data-name="路径 14816" d="M143.34 65.023c.029 0 .053-.021.053-.042s-.024-.036-.053-.034-.052.021-.052.042.024.037.052.034z"/><path data-name="路径 14817" d="M145.521 63.574c.032 0 .059-.026.059-.047s-.026-.035-.059-.031-.059.026-.059.047.026.036.059.031z"/><path data-name="路径 14818" d="M148.141 62.052c.036-.007.065-.031.065-.053s-.029-.034-.065-.026-.065.031-.065.053.024.033.065.026z"/><path data-name="路径 14819" d="M151.192 60.356c.039-.012.071-.04.071-.063s-.032-.032-.071-.02-.071.04-.071.063.032.031.071.02z"/><path data-name="路径 14820" d="M154.666 58.367c.042-.017.077-.051.077-.075s-.034-.031-.077-.013-.077.051-.077.075.034.03.077.013z"/><path data-name="路径 14821" d="M158.508 55.978c.045-.024.081-.065.081-.091s-.036-.029-.081 0-.081.065-.081.091.037.024.081 0z"/><path data-name="路径 14822" d="M162.646 53.11a.181.181 0 00.085-.11c0-.029-.038-.028-.085 0a.184.184 0 00-.085.11c0 .033.038.032.085 0z"/><path data-name="路径 14823" d="M166.978 49.743a.228.228 0 00.087-.132c0-.033-.039-.028-.087.012a.227.227 0 00-.087.132c0 .036.039.027.087-.012z"/><path data-name="路径 14824" d="M171.391 45.938a.287.287 0 00.088-.155c0-.038-.039-.029-.088.019a.288.288 0 00-.088.155c0 .037.039.029.088-.019z"/><path data-name="路径 14825" d="M175.769 41.848a.351.351 0 00.088-.18c0-.043-.039-.033-.088.023a.354.354 0 00-.088.18c-.003.043.036.033.088-.023z"/><path data-name="路径 14826" d="M179.988 37.712a.424.424 0 00.086-.2c0-.049-.038-.038-.086.025a.428.428 0 00-.086.2c0 .049.038.038.086-.025z"/><path data-name="路径 14827" d="M183.954 33.858a.564.564 0 00.092-.252c0-.063-.041-.052-.092.025a.563.563 0 00-.092.251c.002.063.041.052.092-.024z"/><path data-name="路径 14828" d="M187.586 30.613a.644.644 0 00.088-.274c0-.071-.039-.063-.088.018a.651.651 0 00-.088.274c.002.07.039.062.088-.018z"/><path data-name="路径 14829" d="M190.825 28.344a.732.732 0 00.082-.294c0-.08-.037-.076-.082.007a.731.731 0 00-.083.294c0 .079.037.076.083-.007z"/><path data-name="路径 14830" d="M193.643 27.379a.81.81 0 00.077-.311c0-.088-.035-.092-.077-.009a.814.814 0 00-.077.31c0 .089.034.093.077.01z"/><path data-name="路径 14831" d="M196.035 27.981a.872.872 0 00.072-.323c0-.1-.032-.109-.072-.028a.872.872 0 00-.072.322c-.002.097.032.11.072.029z"/><path data-name="路径 14832" d="M198.012 30.33a.926.926 0 00.067-.331c0-.105-.03-.128-.067-.05a.916.916 0 00-.067.33c0 .106.03.128.067.051z"/><path data-name="路径 14833" d="M199.599 34.536a1.024 1.024 0 00.068-.367c0-.125-.03-.161-.068-.082a1.034 1.034 0 00-.068.367c0 .123.031.16.068.082z"/><path data-name="路径 14834" d="M200.833 40.549a1 1 0 00.064-.365c0-.132-.028-.183-.064-.113a1 1 0 00-.064.364c0 .132.029.183.064.114z"/><path data-name="路径 14835" d="M201.747 48.277a.923.923 0 00.06-.355c0-.139-.027-.2-.06-.147a.921.921 0 00-.06.355c0 .142.027.204.06.147z"/><path data-name="路径 14836" d="M202.374 57.498a.777.777 0 00.057-.337c0-.144-.026-.227-.057-.184a.777.777 0 00-.058.336c0 .14.026.223.058.185z"/><path data-name="路径 14837" d="M202.739 67.842a.576.576 0 00.056-.307c0-.148-.025-.249-.056-.226a.582.582 0 00-.056.307c0 .146.025.248.056.226z"/></g></g></g><text data-name="¥ 20,000" transform="translate(251 49)" fill="#fff" font-size="64" font-family="Helvetica"><tspan x="-249.125" y="0">¥ 20,000</tspan></text></svg>