<svg xmlns="http://www.w3.org/2000/svg" viewBox="0 0 188.54 133.79"><defs><style>.cls-1{fill:#172d72;}.cls-2{fill:#e30c34;}.cls-3{isolation:isolate;}.cls-4{fill:#fff;}</style></defs><g id="图层_2" data-name="图层 2"><g id="图层_1-2" data-name="图层 1"><g id="组_4294" data-name="组 4294"><g id="组_4293" data-name="组 4293"><g id="组_4291" data-name="组 4291"><path id="路径_14446" data-name="路径 14446" class="cls-1" d="M103.45,49.54l-5.69,5.63L118,75.43l5.65-5.59a12.9,12.9,0,1,1,0,18.24h0L85.19,49.53a41.21,41.21,0,0,0-29.35-12.2h-.07a41.52,41.52,0,1,0,29.3,71l5.75-5.69L70.61,82.32,64.88,88a12.9,12.9,0,1,1,0-18.25L94.6,99.53l8.73,8.76a41.53,41.53,0,1,0,.12-58.75Z"/></g><g id="组_4292" data-name="组 4292"><path id="路径_14447" data-name="路径 14447" class="cls-2" d="M135.24,83.93c1.36.06,2.48-.7,2.48-1.7s-1.12-1.77-2.48-1.7-2.46.82-2.46,1.7S133.87,83.86,135.24,83.93Z"/><path id="路径_14448" data-name="路径 14448" class="cls-2" d="M138.75,84.1a1.95,1.95,0,1,0,0-3.75c-1.37.07-2.48.91-2.48,1.87S137.38,84,138.75,84.1Z"/><path id="路径_14449" data-name="路径 14449" class="cls-2" d="M136.32,86.33c1.37.17,2.48-.53,2.48-1.57a2.3,2.3,0,0,0-2.48-1.92c-1.36,0-2.46.69-2.46,1.59S135,86.17,136.32,86.33Z"/><path id="路径_14450" data-name="路径 14450" class="cls-2" d="M132.43,85.1c1.34.1,2.44-.55,2.44-1.48S133.77,82,132.43,82s-2.4.67-2.4,1.48S131.1,85,132.43,85.1Z"/><path id="路径_14451" data-name="路径 14451" class="cls-2" d="M132.43,82.48c1.34,0,2.43-.73,2.43-1.65s-1.09-1.58-2.43-1.47S130,80.19,130,81,131.1,82.47,132.43,82.48Z"/><path id="路径_14452" data-name="路径 14452" class="cls-2" d="M136.32,81.61a2.3,2.3,0,0,0,2.48-1.92c0-1-1.11-1.74-2.48-1.57s-2.46,1-2.46,1.9S135,81.64,136.32,81.61Z"/><path id="路径_14453" data-name="路径 14453" class="cls-2" d="M142.28,84.17a2,2,0,0,0,.68-3.9,1.94,1.94,0,0,0-.68,0,2,2,0,0,0-.69,3.9A2,2,0,0,0,142.28,84.17Z"/><path id="路径_14454" data-name="路径 14454" class="cls-2" d="M140.93,87.45a1.82,1.82,0,0,0,2.26-1.22,2,2,0,0,0,.07-.41,2.32,2.32,0,0,0-2.33-2.13c-1.28-.06-2.33.69-2.33,1.65S139.65,87.24,140.93,87.45Z"/><path id="路径_14455" data-name="路径 14455" class="cls-2" d="M137.4,88.79c1.29.25,2.33-.34,2.33-1.34a2.38,2.38,0,0,0-2.33-2c-1.28-.12-2.31.5-2.31,1.37S136.12,88.54,137.4,88.79Z"/><path id="路径_14456" data-name="路径 14456" class="cls-2" d="M133.09,88c1.26.2,2.28-.32,2.28-1.2s-1-1.67-2.28-1.77-2.26.46-2.26,1.24S131.84,87.82,133.09,88Z"/><path id="路径_14457" data-name="路径 14457" class="cls-2" d="M129.67,86c1.23.12,2.23-.41,2.23-1.21s-1-1.46-2.23-1.5-2.17.52-2.18,1.23S128.46,85.9,129.67,86Z"/><path id="路径_14458" data-name="路径 14458" class="cls-2" d="M128.4,83.54c1.2,0,2.2-.55,2.2-1.31s-1-1.35-2.2-1.32-2.15.63-2.15,1.32S127.2,83.5,128.4,83.54Z"/><path id="路径_14459" data-name="路径 14459" class="cls-2" d="M129.67,81.14c1.22,0,2.22-.7,2.22-1.49s-1-1.32-2.22-1.2-2.17.77-2.17,1.47S128.47,81.17,129.67,81.14Z"/><path id="路径_14460" data-name="路径 14460" class="cls-2" d="M133.09,79.39c1.25-.1,2.27-.89,2.27-1.76s-1-1.39-2.27-1.19-2.23,1-2.23,1.73S131.85,79.49,133.09,79.39Z"/><path id="路径_14461" data-name="路径 14461" class="cls-2" d="M137.41,79a2.38,2.38,0,0,0,2.31-2c0-1-1-1.57-2.31-1.33s-2.3,1.13-2.3,2S136.13,79.14,137.41,79Z"/><path id="路径_14462" data-name="路径 14462" class="cls-2" d="M140.93,80.75a2.31,2.31,0,0,0,2.32-2.12,1.81,1.81,0,0,0-1.91-1.7,2.93,2.93,0,0,0-.41.07c-1.28.21-2.32,1.14-2.32,2.1S139.65,80.8,140.93,80.75Z"/><path id="路径_14463" data-name="路径 14463" class="cls-2" d="M145.79,84.2a2,2,0,1,0,.18-4,.54.54,0,0,0-.18,0,2,2,0,0,0-.22,4Z"/><path id="路径_14464" data-name="路径 14464" class="cls-2" d="M144.89,88.07a1.66,1.66,0,0,0,2-1.18,1.51,1.51,0,0,0,.05-.47,2.23,2.23,0,0,0-2.07-2.19,1.83,1.83,0,0,0-2.08,1.54.59.59,0,0,0,0,.13A2.45,2.45,0,0,0,144.89,88.07Z"/><path id="路径_14465" data-name="路径 14465" class="cls-2" d="M142.31,90.62c1.16.3,2.1-.28,2.1-1.33a2.43,2.43,0,0,0-2.1-2.21c-1.16-.18-2.1.44-2.1,1.35A2.65,2.65,0,0,0,142.31,90.62Z"/><path id="路径_14466" data-name="路径 14466" class="cls-2" d="M138.49,91.35c1.17.31,2.1-.16,2.11-1.08a2.44,2.44,0,0,0-2.11-2.08c-1.16-.2-2.1.31-2.1,1.13S137.33,91,138.49,91.35Z"/><path id="路径_14467" data-name="路径 14467" class="cls-2" d="M134.14,90.58c1.15.26,2.08-.15,2.09-1s-.94-1.64-2.09-1.82-2.06.29-2.06,1S133,90.31,134.14,90.58Z"/><path id="路径_14468" data-name="路径 14468" class="cls-2" d="M130.07,88.9c1.11.19,2-.22,2-.94s-.91-1.42-2-1.54-2,.32-2,1S129,88.71,130.07,88.9Z"/><path id="路径_14469" data-name="路径 14469" class="cls-2" d="M127,86.79c1.08.12,2-.31,2-1s-.88-1.26-2-1.32-1.92.4-1.92,1S125.92,86.68,127,86.79Z"/><path id="路径_14470" data-name="路径 14470" class="cls-2" d="M125.35,84.49c1.05.05,1.91-.41,1.91-1s-.86-1.15-1.91-1.15-1.86.47-1.86,1.06S124.31,84.44,125.35,84.49Z"/><path id="路径_14471" data-name="路径 14471" class="cls-2" d="M125.35,82.16c1.05,0,1.91-.51,1.91-1.15s-.86-1.1-1.91-1.05-1.86.56-1.86,1.15S124.31,82.17,125.35,82.16Z"/><path id="路径_14472" data-name="路径 14472" class="cls-2" d="M127,80c1.07,0,2-.64,2-1.31s-.88-1.09-2-1-1.9.69-1.91,1.29S125.93,80,127,80Z"/><path id="路径_14473" data-name="路径 14473" class="cls-2" d="M130.07,78c1.11-.12,2-.81,2-1.53s-.9-1.13-2-.94-2,.85-2,1.5S129,78.15,130.07,78Z"/><path id="路径_14474" data-name="路径 14474" class="cls-2" d="M134.14,76.64c1.14-.18,2.06-1,2.06-1.8s-.92-1.22-2.06-1-2,1-2,1.76S133,76.82,134.14,76.64Z"/><path id="路径_14475" data-name="路径 14475" class="cls-2" d="M138.49,76.24a2.41,2.41,0,0,0,2.09-2c0-.92-.93-1.39-2.09-1.08s-2.08,1.2-2.08,2S137.34,76.44,138.49,76.24Z"/><path id="路径_14476" data-name="路径 14476" class="cls-2" d="M142.31,77.36a2.42,2.42,0,0,0,2.09-2.21c0-1-.94-1.61-2.09-1.31a2.63,2.63,0,0,0-2.1,2.17C140.21,76.93,141.15,77.54,142.31,77.36Z"/><path id="路径_14477" data-name="路径 14477" class="cls-2" d="M144.88,80.2A2.22,2.22,0,0,0,147,78a1.64,1.64,0,0,0-1.6-1.69,1.83,1.83,0,0,0-.47,0,2.45,2.45,0,0,0-2.08,2.16,1.82,1.82,0,0,0,1.95,1.68Z"/><path id="路径_14478" data-name="路径 14478" class="cls-2" d="M149.24,84.19a2,2,0,1,0-1.82-1.82A2,2,0,0,0,149.24,84.19Z"/><path id="路径_14479" data-name="路径 14479" class="cls-2" d="M148.57,88.64a1.53,1.53,0,0,0,1.81-1.18,1.55,1.55,0,0,0,0-.48,2.16,2.16,0,0,0-1.83-2.22,1.67,1.67,0,0,0-1.83,1.49,1.28,1.28,0,0,0,0,.19A2.37,2.37,0,0,0,148.57,88.64Z"/><path id="路径_14480" data-name="路径 14480" class="cls-2" d="M146.62,92a1.32,1.32,0,0,0,1.74-.68,1.46,1.46,0,0,0,.11-.65,2.43,2.43,0,0,0-1.85-2.31,1.46,1.46,0,0,0-1.81,1,1.34,1.34,0,0,0-.06.4A2.64,2.64,0,0,0,146.62,92Z"/><path id="路径_14481" data-name="路径 14481" class="cls-2" d="M143.52,93.85c1,.38,1.87-.07,1.88-1a2.56,2.56,0,0,0-1.88-2.26c-1-.27-1.89.23-1.89,1.09A2.77,2.77,0,0,0,143.52,93.85Z"/><path id="路径_14482" data-name="路径 14482" class="cls-2" d="M139.58,94.09c1,.37,1.89,0,1.89-.85a2.46,2.46,0,0,0-1.89-2.08c-1-.28-1.88.13-1.88.89S138.54,93.71,139.58,94.09Z"/><path id="路径_14483" data-name="路径 14483" class="cls-2" d="M135.24,93.13c1,.32,1.86,0,1.86-.75s-.83-1.57-1.86-1.81-1.86.12-1.86.79S134.21,92.81,135.24,93.13Z"/><path id="路径_14484" data-name="路径 14484" class="cls-2" d="M131,91.51c1,.24,1.82-.07,1.82-.73S132,89.41,131,89.23s-1.8.17-1.8.77S130,91.26,131,91.51Z"/><path id="路径_14485" data-name="路径 14485" class="cls-2" d="M127.24,89.57c1,.17,1.76-.16,1.76-.76s-.79-1.19-1.76-1.31-1.73.24-1.73.79S126.28,89.4,127.24,89.57Z"/><path id="路径_14486" data-name="路径 14486" class="cls-2" d="M124.39,87.49c.93.1,1.69-.25,1.69-.8s-.76-1.06-1.69-1.13-1.64.31-1.65.83S123.48,87.39,124.39,87.49Z"/><path id="路径_14487" data-name="路径 14487" class="cls-2" d="M122.63,85.34c.9,0,1.64-.33,1.64-.86s-.74-1-1.64-1-1.59.37-1.59.87S121.74,85.28,122.63,85.34Z"/><path id="路径_14488" data-name="路径 14488" class="cls-2" d="M122,83.14c.89,0,1.62-.39,1.62-.91s-.73-.94-1.62-.92-1.56.42-1.56.92S121.16,83.13,122,83.14Z"/><path id="路径_14489" data-name="路径 14489" class="cls-2" d="M122.63,81c.9,0,1.63-.48,1.63-1s-.74-.91-1.63-.86-1.58.5-1.58,1S121.75,81,122.63,81Z"/><path id="路径_14490" data-name="路径 14490" class="cls-2" d="M124.39,78.89c.92-.06,1.68-.57,1.68-1.12s-.76-.9-1.68-.8-1.63.59-1.63,1.1S123.48,79,124.39,78.89Z"/><path id="路径_14491" data-name="路径 14491" class="cls-2" d="M127.24,77c1-.13,1.74-.71,1.74-1.3s-.78-.92-1.74-.76-1.71.73-1.71,1.27S126.29,77.06,127.24,77Z"/><path id="路径_14492" data-name="路径 14492" class="cls-2" d="M131,75.21c1-.18,1.81-.88,1.81-1.53s-.81-1-1.81-.72-1.77.9-1.77,1.49S130,75.39,131,75.21Z"/><path id="路径_14493" data-name="路径 14493" class="cls-2" d="M135.24,73.87c1-.25,1.84-1.06,1.84-1.8s-.82-1.06-1.84-.74-1.84,1.08-1.84,1.75S134.22,74.11,135.24,73.87Z"/><path id="路径_14494" data-name="路径 14494" class="cls-2" d="M139.58,73.27a2.46,2.46,0,0,0,1.88-2c0-.85-.84-1.21-1.88-.84s-1.86,1.25-1.86,2S138.55,73.55,139.58,73.27Z"/><path id="路径_14495" data-name="路径 14495" class="cls-2" d="M143.52,73.87a2.5,2.5,0,0,0,1.85-2.24c0-.95-.82-1.4-1.85-1a2.73,2.73,0,0,0-1.87,2.2C141.65,73.65,142.49,74.14,143.52,73.87Z"/><path id="路径_14496" data-name="路径 14496" class="cls-2" d="M146.61,76a2.4,2.4,0,0,0,1.84-2.3,1.3,1.3,0,0,0-1.19-1.42,1.33,1.33,0,0,0-.65.1,2.63,2.63,0,0,0-1.85,2.27,1.43,1.43,0,0,0,1.45,1.42A1.76,1.76,0,0,0,146.61,76Z"/><path id="路径_14497" data-name="路径 14497" class="cls-2" d="M148.57,79.67a2.15,2.15,0,0,0,1.82-2.2,1.53,1.53,0,0,0-1.34-1.68,1.55,1.55,0,0,0-.48,0A2.35,2.35,0,0,0,146.74,78a1.66,1.66,0,0,0,1.65,1.68Z"/><path id="路径_14498" data-name="路径 14498" class="cls-2" d="M152.61,84.17c.85.06,1.54-.82,1.54-2s-.69-2-1.54-2a2,2,0,0,0,0,3.9Z"/><path id="路径_14499" data-name="路径 14499" class="cls-2" d="M152.09,89.2c.86.2,1.55-.53,1.55-1.65a2.08,2.08,0,0,0-1.55-2.19,1.52,1.52,0,0,0-1.59,1.45,1.48,1.48,0,0,0,0,.21A2.27,2.27,0,0,0,152.09,89.2Z"/><path id="路径_14500" data-name="路径 14500" class="cls-2" d="M150.54,93.36c.88.32,1.58-.26,1.58-1.32a2.42,2.42,0,0,0-1.58-2.33,1.28,1.28,0,0,0-1.56.89,1.41,1.41,0,0,0,0,.46A2.63,2.63,0,0,0,150.54,93.36Z"/><path id="路径_14501" data-name="路径 14501" class="cls-2" d="M148,96.09a1.06,1.06,0,0,0,1.46-.3,1.07,1.07,0,0,0,.16-.72A2.63,2.63,0,0,0,148,92.73a1.13,1.13,0,0,0-1.51.5,1.07,1.07,0,0,0-.12.56A2.85,2.85,0,0,0,148,96.09Z"/><path id="路径_14502" data-name="路径 14502" class="cls-2" d="M144.67,97.23c.91.43,1.64.1,1.65-.78a2.64,2.64,0,0,0-1.65-2.23c-.91-.35-1.66,0-1.66.82A2.83,2.83,0,0,0,144.67,97.23Z"/><path id="路径_14503" data-name="路径 14503" class="cls-2" d="M140.68,97c.92.41,1.66.14,1.66-.63a2.52,2.52,0,0,0-1.66-2c-.92-.34-1.67,0-1.67.68A2.68,2.68,0,0,0,140.68,97Z"/><path id="路径_14504" data-name="路径 14504" class="cls-2" d="M136.34,95.79c.91.36,1.65.12,1.65-.56a2.26,2.26,0,0,0-1.65-1.78c-.92-.3-1.65,0-1.65.6S135.43,95.43,136.34,95.79Z"/><path id="路径_14505" data-name="路径 14505" class="cls-2" d="M132,94.06c.9.29,1.62,0,1.62-.54s-.73-1.3-1.62-1.53-1.61,0-1.61.59S131.1,93.78,132,94.06Z"/><path id="路径_14506" data-name="路径 14506" class="cls-2" d="M128,92.13c.86.21,1.56,0,1.56-.57s-.7-1.12-1.56-1.29-1.54.11-1.54.61S127.12,91.92,128,92.13Z"/><path id="路径_14507" data-name="路径 14507" class="cls-2" d="M124.55,90.15c.82.14,1.5-.13,1.5-.62s-.68-1-1.5-1.1-1.47.19-1.47.65S123.73,90,124.55,90.15Z"/><path id="路径_14508" data-name="路径 14508" class="cls-2" d="M121.9,88.14c.78.09,1.42-.2,1.42-.66s-.64-.89-1.42-1-1.39.25-1.39.69S121.13,88.06,121.9,88.14Z"/><path id="路径_14509" data-name="路径 14509" class="cls-2" d="M120.12,86.11c.75,0,1.36-.27,1.37-.71s-.62-.83-1.37-.86-1.33.29-1.33.72S119.38,86.06,120.12,86.11Z"/><path id="路径_14510" data-name="路径 14510" class="cls-2" d="M119.22,84c.74,0,1.34-.31,1.34-.75s-.6-.79-1.34-.8-1.3.33-1.3.75S118.5,84,119.22,84Z"/><path id="路径_14511" data-name="路径 14511" class="cls-2" d="M119.22,82c.74,0,1.34-.36,1.34-.8s-.6-.77-1.34-.75-1.3.38-1.3.79S118.5,82,119.22,82Z"/><path id="路径_14512" data-name="路径 14512" class="cls-2" d="M120.12,79.91c.74,0,1.36-.42,1.36-.86s-.62-.75-1.36-.7-1.32.43-1.32.85S119.38,79.94,120.12,79.91Z"/><path id="路径_14513" data-name="路径 14513" class="cls-2" d="M121.9,77.92c.77-.06,1.41-.49,1.41-1s-.64-.74-1.41-.66-1.37.5-1.38.94S121.13,78,121.9,77.92Z"/><path id="路径_14514" data-name="路径 14514" class="cls-2" d="M124.55,76c.81-.11,1.47-.6,1.47-1.08s-.66-.76-1.47-.62-1.45.6-1.45,1.06S123.74,76.12,124.55,76Z"/><path id="路径_14515" data-name="路径 14515" class="cls-2" d="M128,74.17c.85-.17,1.54-.74,1.54-1.27s-.69-.77-1.54-.57-1.52.75-1.52,1.24S127.13,74.33,128,74.17Z"/><path id="路径_14516" data-name="路径 14516" class="cls-2" d="M132,72.45c.89-.23,1.6-.92,1.61-1.51s-.72-.82-1.61-.54-1.59.93-1.59,1.47S131.11,72.68,132,72.45Z"/><path id="路径_14517" data-name="路径 14517" class="cls-2" d="M136.33,71A2.24,2.24,0,0,0,138,69.22c0-.67-.73-.9-1.64-.54s-1.62,1.11-1.63,1.72S135.43,71.28,136.33,71Z"/><path id="路径_14518" data-name="路径 14518" class="cls-2" d="M140.68,70.1a2.46,2.46,0,0,0,1.64-2c0-.76-.73-1-1.64-.62a2.63,2.63,0,0,0-1.65,2C139,70.13,139.77,70.44,140.68,70.1Z"/><path id="路径_14519" data-name="路径 14519" class="cls-2" d="M144.67,70.21A2.6,2.6,0,0,0,146.3,68c0-.86-.73-1.2-1.63-.77A2.82,2.82,0,0,0,143,69.4C143,70.18,143.77,70.55,144.67,70.21Z"/><path id="路径_14520" data-name="路径 14520" class="cls-2" d="M148,71.7a2.6,2.6,0,0,0,1.6-2.32,1,1,0,0,0-.89-1.18,1.1,1.1,0,0,0-.71.16,2.8,2.8,0,0,0-1.62,2.29,1.12,1.12,0,0,0,1.06,1.17A1.07,1.07,0,0,0,148,71.7Z"/><path id="路径_14521" data-name="路径 14521" class="cls-2" d="M150.54,74.72a2.4,2.4,0,0,0,1.57-2.31c0-1.06-.7-1.63-1.57-1.31A2.59,2.59,0,0,0,149,73.38a1.26,1.26,0,0,0,1.13,1.38A1.41,1.41,0,0,0,150.54,74.72Z"/><path id="路径_14522" data-name="路径 14522" class="cls-2" d="M152.09,79.08a2.09,2.09,0,0,0,1.55-2.19c0-1.12-.69-1.85-1.55-1.65a2.27,2.27,0,0,0-1.58,2.18,1.51,1.51,0,0,0,1.37,1.65Z"/><path id="路径_14523" data-name="路径 14523" class="cls-2" d="M155.84,84.1c.71.05,1.28-.8,1.28-1.88s-.57-1.93-1.28-1.89-1.3.89-1.3,1.89S155.13,84.06,155.84,84.1Z"/><path id="路径_14524" data-name="路径 14524" class="cls-2" d="M155.42,89.76c.72.19,1.29-.52,1.29-1.6s-.57-2-1.29-2.11-1.31.63-1.31,1.61A2.19,2.19,0,0,0,155.42,89.76Z"/><path id="路径_14525" data-name="路径 14525" class="cls-2" d="M154.18,94.66c.73.31,1.31-.26,1.31-1.29a2.4,2.4,0,0,0-1.31-2.27c-.73-.22-1.33.37-1.33,1.31A2.56,2.56,0,0,0,154.18,94.66Z"/><path id="路径_14526" data-name="路径 14526" class="cls-2" d="M152.12,98.25c.75.4,1.35,0,1.35-1a2.65,2.65,0,0,0-1.35-2.32c-.75-.32-1.36.14-1.36,1A2.85,2.85,0,0,0,152.12,98.25Z"/><path id="路径_14527" data-name="路径 14527" class="cls-2" d="M149.3,100.28c.76.46,1.38.13,1.38-.74a2.76,2.76,0,0,0-1.38-2.28c-.77-.38-1.4,0-1.4.77A2.92,2.92,0,0,0,149.3,100.28Z"/><path id="路径_14528" data-name="路径 14528" class="cls-2" d="M145.79,100.79c.79.47,1.42.23,1.42-.55a2.7,2.7,0,0,0-1.42-2.15c-.78-.4-1.42-.12-1.42.59A2.85,2.85,0,0,0,145.79,100.79Z"/><path id="路径_14529" data-name="路径 14529" class="cls-2" d="M141.77,100.09c.8.43,1.43.25,1.43-.44a2.52,2.52,0,0,0-1.43-2c-.8-.37-1.44-.15-1.44.48A2.68,2.68,0,0,0,141.77,100.09Z"/><path id="路径_14530" data-name="路径 14530" class="cls-2" d="M137.44,98.57c.8.38,1.43.22,1.43-.38a2.27,2.27,0,0,0-1.43-1.71c-.79-.33-1.44-.13-1.44.42A2.38,2.38,0,0,0,137.44,98.57Z"/><path id="路径_14531" data-name="路径 14531" class="cls-2" d="M133.05,96.66c.79.31,1.42.14,1.42-.39s-.63-1.19-1.42-1.46-1.4-.07-1.4.42S132.28,96.35,133.05,96.66Z"/><path id="路径_14532" data-name="路径 14532" class="cls-2" d="M128.88,94.63c.76.23,1.37.06,1.37-.42s-.61-1-1.37-1.23-1.35,0-1.35.45S128.14,94.4,128.88,94.63Z"/><path id="路径_14533" data-name="路径 14533" class="cls-2" d="M125.14,92.63c.72.17,1.3,0,1.3-.46s-.59-.9-1.3-1-1.28.08-1.28.49S124.43,92.47,125.14,92.63Z"/><path id="路径_14534" data-name="路径 14534" class="cls-2" d="M122,90.69c.68.11,1.24-.11,1.24-.51s-.56-.8-1.24-.9-1.2.15-1.21.53S121.32,90.59,122,90.69Z"/><path id="路径_14535" data-name="路径 14535" class="cls-2" d="M119.53,88.78c.64.07,1.17-.18,1.17-.56s-.53-.74-1.17-.79-1.14.2-1.14.57S118.89,88.71,119.53,88.78Z"/><path id="路径_14536" data-name="路径 14536" class="cls-2" d="M117.78,86.84c.61,0,1.11-.22,1.12-.59s-.51-.69-1.12-.72-1.09.24-1.09.6S117.17,86.8,117.78,86.84Z"/><path id="路径_14537" data-name="路径 14537" class="cls-2" d="M116.74,84.86c.59,0,1.08-.25,1.08-.61s-.49-.66-1.08-.67-1,.27-1,.62S116.16,84.84,116.74,84.86Z"/><path id="路径_14538" data-name="路径 14538" class="cls-2" d="M116.39,82.87c.59,0,1.07-.29,1.07-.64s-.48-.65-1.07-.64-1,.29-1,.64S115.82,82.86,116.39,82.87Z"/><path id="路径_14539" data-name="路径 14539" class="cls-2" d="M116.74,80.87c.59,0,1.08-.31,1.08-.67s-.49-.63-1.08-.61-1,.32-1,.67S116.16,80.88,116.74,80.87Z"/><path id="路径_14540" data-name="路径 14540" class="cls-2" d="M117.78,78.92c.61,0,1.11-.35,1.11-.72s-.5-.62-1.11-.58-1.08.35-1.08.71S117.18,79,117.78,78.92Z"/><path id="路径_14541" data-name="路径 14541" class="cls-2" d="M119.52,77c.64-.06,1.16-.41,1.16-.79s-.52-.62-1.16-.55-1.13.41-1.13.77S118.9,77.07,119.52,77Z"/><path id="路径_14542" data-name="路径 14542" class="cls-2" d="M122,75.16c.67-.09,1.23-.49,1.23-.89s-.56-.62-1.23-.51-1.2.49-1.2.87S121.33,75.25,122,75.16Z"/><path id="路径_14543" data-name="路径 14543" class="cls-2" d="M125.14,73.32c.71-.14,1.29-.61,1.29-1s-.58-.63-1.29-.46-1.27.6-1.27,1S124.44,73.46,125.14,73.32Z"/><path id="路径_14544" data-name="路径 14544" class="cls-2" d="M128.88,71.46c.75-.2,1.35-.75,1.35-1.22s-.6-.64-1.35-.41-1.33.75-1.33,1.19S128.14,71.66,128.88,71.46Z"/><path id="路径_14545" data-name="路径 14545" class="cls-2" d="M133.05,69.63c.77-.27,1.4-.92,1.4-1.45s-.62-.68-1.4-.37-1.38.92-1.38,1.4S132.29,69.89,133.05,69.63Z"/><path id="路径_14546" data-name="路径 14546" class="cls-2" d="M137.44,68a2.22,2.22,0,0,0,1.41-1.68c0-.6-.63-.76-1.41-.38A2.32,2.32,0,0,0,136,67.54C136,68.09,136.66,68.28,137.44,68Z"/><path id="路径_14547" data-name="路径 14547" class="cls-2" d="M141.77,66.73a2.5,2.5,0,0,0,1.42-1.93c0-.69-.63-.87-1.42-.43a2.65,2.65,0,0,0-1.43,1.9C140.34,66.89,141,67.11,141.77,66.73Z"/><path id="路径_14548" data-name="路径 14548" class="cls-2" d="M145.79,66.34a2.69,2.69,0,0,0,1.41-2.13c0-.78-.63-1-1.41-.55a2.88,2.88,0,0,0-1.42,2.1C144.38,66.47,145,66.74,145.79,66.34Z"/><path id="路径_14549" data-name="路径 14549" class="cls-2" d="M149.29,67.18a2.75,2.75,0,0,0,1.38-2.27c0-.87-.61-1.19-1.38-.74a3,3,0,0,0-1.38,2.24C147.91,67.2,148.53,67.55,149.29,67.18Z"/><path id="路径_14550" data-name="路径 14550" class="cls-2" d="M152.12,69.5a2.67,2.67,0,0,0,1.34-2.31c0-1-.59-1.39-1.34-1a2.82,2.82,0,0,0-1.35,2.28C150.77,69.35,151.38,69.81,152.12,69.5Z"/><path id="路径_14551" data-name="路径 14551" class="cls-2" d="M154.18,73.34a2.4,2.4,0,0,0,1.31-2.27c0-1-.58-1.6-1.31-1.29A2.56,2.56,0,0,0,152.85,72C152.85,73,153.45,73.56,154.18,73.34Z"/><path id="路径_14552" data-name="路径 14552" class="cls-2" d="M155.42,78.39c.72-.1,1.29-1,1.29-2.12s-.57-1.78-1.29-1.6a2.19,2.19,0,0,0-1.31,2.11C154.12,77.76,154.71,78.48,155.42,78.39Z"/><path id="路径_14553" data-name="路径 14553" class="cls-2" d="M158.92,84c.57,0,1-.76,1-1.78s-.45-1.81-1-1.77-1,.83-1,1.77S158.35,84,158.92,84Z"/><path id="路径_14554" data-name="路径 14554" class="cls-2" d="M158.59,90.35c.57.17,1-.51,1-1.52s-.46-1.92-1-2-1.06.59-1.06,1.53A2.08,2.08,0,0,0,158.59,90.35Z"/><path id="路径_14555" data-name="路径 14555" class="cls-2" d="M157.57,96c.59.28,1.05-.27,1.05-1.25a2.37,2.37,0,0,0-1.05-2.16c-.59-.22-1.08.35-1.08,1.26A2.55,2.55,0,0,0,157.57,96Z"/><path id="路径_14556" data-name="路径 14556" class="cls-2" d="M155.87,100.45c.61.38,1.09,0,1.09-1a2.69,2.69,0,0,0-1.09-2.24c-.61-.32-1.1.13-1.1,1A2.9,2.9,0,0,0,155.87,100.45Z"/><path id="路径_14557" data-name="路径 14557" class="cls-2" d="M153.5,103.36c.63.44,1.13.13,1.13-.72a2.9,2.9,0,0,0-1.13-2.24c-.62-.39-1.14-.05-1.14.74A3.07,3.07,0,0,0,153.5,103.36Z"/><path id="路径_14558" data-name="路径 14558" class="cls-2" d="M150.48,104.68c.65.48,1.17.26,1.17-.51a2.93,2.93,0,0,0-1.17-2.17c-.64-.42-1.17-.17-1.17.54A3,3,0,0,0,150.48,104.68Z"/><path id="路径_14559" data-name="路径 14559" class="cls-2" d="M146.89,104.58c.67.47,1.2.32,1.2-.36a2.7,2.7,0,0,0-1.2-2c-.66-.43-1.2-.25-1.2.39A2.93,2.93,0,0,0,146.89,104.58Z"/><path id="路径_14560" data-name="路径 14560" class="cls-2" d="M142.86,103.39c.67.44,1.22.33,1.22-.27a2.56,2.56,0,0,0-1.22-1.83c-.68-.4-1.23-.25-1.23.3A2.65,2.65,0,0,0,142.86,103.39Z"/><path id="路径_14561" data-name="路径 14561" class="cls-2" d="M138.54,101.51c.67.39,1.21.29,1.21-.23a2.24,2.24,0,0,0-1.21-1.59c-.67-.35-1.22-.22-1.22.27A2.3,2.3,0,0,0,138.54,101.51Z"/><path id="路径_14562" data-name="路径 14562" class="cls-2" d="M134.14,99.34c.66.32,1.2.22,1.2-.24a1.88,1.88,0,0,0-1.2-1.36c-.66-.29-1.19-.16-1.19.27S133.48,99,134.14,99.34Z"/><path id="路径_14563" data-name="路径 14563" class="cls-2" d="M129.88,97.14c.64.25,1.16.13,1.16-.28s-.52-.93-1.16-1.15-1.16-.08-1.16.31S129.24,96.9,129.88,97.14Z"/><path id="路径_14564" data-name="路径 14564" class="cls-2" d="M125.94,95.05c.61.18,1.11,0,1.11-.33s-.5-.81-1.11-1-1.1,0-1.1.36S125.33,94.87,125.94,95.05Z"/><path id="路径_14565" data-name="路径 14565" class="cls-2" d="M122.47,93.1c.58.12,1.06,0,1.06-.39s-.48-.71-1.06-.82-1,.07-1,.4S121.9,93,122.47,93.1Z"/><path id="路径_14566" data-name="路径 14566" class="cls-2" d="M119.57,91.24c.55.08,1-.11,1-.43s-.45-.65-1-.72-1,.13-1,.45S119,91.16,119.57,91.24Z"/><path id="路径_14567" data-name="路径 14567" class="cls-2" d="M117.28,89.4c.51,0,.93-.15.93-.46s-.42-.6-.93-.63-.9.17-.9.47S116.78,89.36,117.28,89.4Z"/><path id="路径_14568" data-name="路径 14568" class="cls-2" d="M115.6,87.55c.49,0,.88-.18.88-.48s-.4-.57-.88-.59-.85.2-.85.49S115.13,87.52,115.6,87.55Z"/><path id="路径_14569" data-name="路径 14569" class="cls-2" d="M114.51,85.66c.46,0,.84-.21.84-.51s-.38-.54-.84-.55-.82.21-.82.51S114.06,85.64,114.51,85.66Z"/><path id="路径_14570" data-name="路径 14570" class="cls-2" d="M114,83.73c.45,0,.82-.23.83-.52s-.38-.54-.83-.54-.8.23-.8.52S113.53,83.72,114,83.73Z"/><path id="路径_14571" data-name="路径 14571" class="cls-2" d="M114,81.78c.45,0,.82-.24.82-.53s-.37-.53-.82-.52-.79.24-.79.53S113.53,81.78,114,81.78Z"/><path id="路径_14572" data-name="路径 14572" class="cls-2" d="M114.51,79.85c.46,0,.84-.26.84-.55s-.38-.52-.84-.5-.81.26-.81.55S114.06,79.86,114.51,79.85Z"/><path id="路径_14573" data-name="路径 14573" class="cls-2" d="M115.6,78c.48,0,.88-.29.88-.58s-.4-.52-.88-.49-.84.29-.84.58S115.14,78,115.6,78Z"/><path id="路径_14574" data-name="路径 14574" class="cls-2" d="M117.28,76.14c.51,0,.92-.32.92-.63s-.41-.51-.92-.46-.89.33-.89.63S116.79,76.19,117.28,76.14Z"/><path id="路径_14575" data-name="路径 14575" class="cls-2" d="M119.57,74.35c.54-.07,1-.39,1-.7s-.44-.5-1-.43-.95.39-.95.7S119,74.42,119.57,74.35Z"/><path id="路径_14576" data-name="路径 14576" class="cls-2" d="M122.47,72.55c.57-.1,1-.47,1-.81s-.47-.5-1-.37-1,.47-1,.79S121.9,72.66,122.47,72.55Z"/><path id="路径_14577" data-name="路径 14577" class="cls-2" d="M125.94,70.7c.6-.16,1.1-.59,1.1-1s-.5-.5-1.1-.32-1.08.58-1.09.93S125.34,70.85,125.94,70.7Z"/><path id="路径_14578" data-name="路径 14578" class="cls-2" d="M129.88,68.73c.63-.22,1.14-.73,1.14-1.13s-.51-.52-1.14-.28-1.14.73-1.14,1.1S129.25,69,129.88,68.73Z"/><path id="路径_14579" data-name="路径 14579" class="cls-2" d="M134.14,66.7a1.86,1.86,0,0,0,1.18-1.34c0-.45-.53-.55-1.18-.24S133,66,133,66.43,133.49,67,134.14,66.7Z"/><path id="路径_14580" data-name="路径 14580" class="cls-2" d="M138.54,64.75a2.19,2.19,0,0,0,1.2-1.58c0-.52-.54-.61-1.2-.23a2.25,2.25,0,0,0-1.2,1.55C137.34,65,137.88,65.1,138.54,64.75Z"/><path id="路径_14581" data-name="路径 14581" class="cls-2" d="M142.86,63.14a2.53,2.53,0,0,0,1.2-1.8c0-.59-.54-.7-1.2-.27a2.57,2.57,0,0,0-1.2,1.77C141.65,63.39,142.19,63.53,142.86,63.14Z"/><path id="路径_14582" data-name="路径 14582" class="cls-2" d="M146.89,62.23a2.72,2.72,0,0,0,1.18-2c0-.67-.52-.82-1.18-.35a2.84,2.84,0,0,0-1.18,2C145.71,62.47,146.24,62.65,146.89,62.23Z"/><path id="路径_14583" data-name="路径 14583" class="cls-2" d="M150.48,62.41a2.85,2.85,0,0,0,1.15-2.13c0-.76-.51-1-1.15-.5a3,3,0,0,0-1.16,2.11C149.33,62.59,149.85,62.83,150.48,62.41Z"/><path id="路径_14584" data-name="路径 14584" class="cls-2" d="M153.5,64a2.87,2.87,0,0,0,1.11-2.21c0-.84-.49-1.15-1.11-.7a3,3,0,0,0-1.12,2.18C152.38,64.07,152.88,64.4,153.5,64Z"/><path id="路径_14585" data-name="路径 14585" class="cls-2" d="M155.87,67.19A2.72,2.72,0,0,0,157,65c0-.91-.48-1.33-1.08-1a2.88,2.88,0,0,0-1.1,2.21C154.78,67.06,155.27,67.5,155.87,67.19Z"/><path id="路径_14586" data-name="路径 14586" class="cls-2" d="M157.57,71.82a2.36,2.36,0,0,0,1-2.15c0-1-.46-1.51-1-1.23a2.54,2.54,0,0,0-1.07,2.13C156.5,71.48,157,72,157.57,71.82Z"/><path id="路径_14587" data-name="路径 14587" class="cls-2" d="M158.59,77.6c.56-.1,1-1,1-2s-.45-1.68-1-1.51a2.07,2.07,0,0,0-1.05,2C157.54,77,158,77.7,158.59,77.6Z"/><path id="路径_14588" data-name="路径 14588" class="cls-2" d="M161.82,83.84c.43,0,.78-.7.78-1.62s-.35-1.65-.78-1.63-.8.76-.8,1.63S161.38,83.81,161.82,83.84Z"/><path id="路径_14589" data-name="路径 14589" class="cls-2" d="M161.54,90.93c.44.14.79-.48.79-1.39s-.35-1.73-.79-1.82-.8.53-.8,1.4S161.1,90.78,161.54,90.93Z"/><path id="路径_14590" data-name="路径 14590" class="cls-2" d="M160.71,97.38c.45.25.8-.26.8-1.14a2.33,2.33,0,0,0-.8-2c-.45-.2-.82.32-.82,1.16A2.45,2.45,0,0,0,160.71,97.38Z"/><path id="路径_14591" data-name="路径 14591" class="cls-2" d="M159.3,102.68c.47.35.84-.05.84-.89a2.66,2.66,0,0,0-.84-2.06c-.46-.3-.84.11-.84.91A2.85,2.85,0,0,0,159.3,102.68Z"/><path id="路径_14592" data-name="路径 14592" class="cls-2" d="M157.32,106.5c.48.41.86.12.86-.67a2.89,2.89,0,0,0-.86-2.09c-.48-.36-.88,0-.88.68A3.07,3.07,0,0,0,157.32,106.5Z"/><path id="路径_14593" data-name="路径 14593" class="cls-2" d="M154.75,108.67c.5.46.9.26.9-.46a3,3,0,0,0-.9-2.06c-.5-.41-.92-.18-.92.49A3.11,3.11,0,0,0,154.75,108.67Z"/><path id="路径_14594" data-name="路径 14594" class="cls-2" d="M151.62,109.29c.52.47.94.34.94-.31a2.94,2.94,0,0,0-.94-2c-.52-.43-1-.28-1,.33A3,3,0,0,0,151.62,109.29Z"/><path id="路径_14595" data-name="路径 14595" class="cls-2" d="M148,108.57c.54.46,1,.38,1-.19a2.72,2.72,0,0,0-1-1.82c-.53-.42-1-.32-1,.22A2.78,2.78,0,0,0,148,108.57Z"/><path id="路径_14596" data-name="路径 14596" class="cls-2" d="M143.94,106.89c.55.43,1,.38,1-.13a2.41,2.41,0,0,0-1-1.64c-.54-.39-1-.31-1,.16A2.48,2.48,0,0,0,143.94,106.89Z"/><path id="路径_14597" data-name="路径 14597" class="cls-2" d="M139.64,104.63c.55.38,1,.33,1-.11a2.1,2.1,0,0,0-1-1.44c-.55-.34-1-.27-1,.14A2.13,2.13,0,0,0,139.64,104.63Z"/><path id="路径_14598" data-name="路径 14598" class="cls-2" d="M135.24,102.15c.54.31,1,.26,1-.12a1.8,1.8,0,0,0-1-1.24c-.55-.28-1-.21-1,.15A1.8,1.8,0,0,0,135.24,102.15Z"/><path id="路径_14599" data-name="路径 14599" class="cls-2" d="M130.91,99.72c.54.24,1,.17,1-.17s-.43-.81-1-1-1-.14-1,.19S130.38,99.48,130.91,99.72Z"/><path id="路径_14600" data-name="路径 14600" class="cls-2" d="M126.84,97.46c.51.18.92.09.92-.22s-.41-.7-.92-.86-.91-.06-.91.23S126.34,97.28,126.84,97.46Z"/><path id="路径_14601" data-name="路径 14601" class="cls-2" d="M123.16,95.42c.48.13.87,0,.87-.27s-.39-.61-.87-.72-.86,0-.86.28S122.68,95.29,123.16,95.42Z"/><path id="路径_14602" data-name="路径 14602" class="cls-2" d="M120,93.56c.45.09.82,0,.82-.31s-.37-.55-.82-.63-.8.07-.8.33S119.52,93.47,120,93.56Z"/><path id="路径_14603" data-name="路径 14603" class="cls-2" d="M117.3,91.79c.42.06.76-.1.76-.35s-.34-.5-.76-.55-.74.12-.74.36S116.89,91.74,117.3,91.79Z"/><path id="路径_14604" data-name="路径 14604" class="cls-2" d="M115.19,90c.38,0,.7-.13.7-.37s-.32-.47-.7-.5-.68.14-.68.38S114.81,90,115.19,90Z"/><path id="路径_14605" data-name="路径 14605" class="cls-2" d="M113.6,88.27c.36,0,.66-.16.66-.4s-.3-.44-.66-.46-.64.16-.64.4S113.25,88.25,113.6,88.27Z"/><path id="路径_14606" data-name="路径 14606" class="cls-2" d="M112.51,86.44c.34,0,.62-.17.62-.41s-.28-.43-.62-.44-.6.17-.6.41S112.17,86.43,112.51,86.44Z"/><path id="路径_14607" data-name="路径 14607" class="cls-2" d="M111.87,84.56c.33,0,.6-.18.6-.42s-.27-.42-.6-.43-.58.19-.58.42S111.54,84.55,111.87,84.56Z"/><path id="路径_14608" data-name="路径 14608" class="cls-2" d="M111.66,82.65c.33,0,.6-.19.6-.42s-.27-.43-.6-.42-.58.19-.58.42S111.34,82.65,111.66,82.65Z"/><path id="路径_14609" data-name="路径 14609" class="cls-2" d="M111.87,80.74c.33,0,.6-.2.6-.43s-.27-.42-.6-.41-.58.2-.58.43S111.54,80.74,111.87,80.74Z"/><path id="路径_14610" data-name="路径 14610" class="cls-2" d="M112.51,78.87c.34,0,.62-.21.62-.45s-.28-.41-.62-.4-.6.2-.6.44S112.17,78.87,112.51,78.87Z"/><path id="路径_14611" data-name="路径 14611" class="cls-2" d="M113.6,77c.36,0,.65-.22.65-.46s-.29-.41-.65-.39-.63.22-.63.46S113.25,77.06,113.6,77Z"/><path id="路径_14612" data-name="路径 14612" class="cls-2" d="M115.19,75.28c.38,0,.69-.25.69-.49s-.31-.4-.69-.38-.68.25-.68.49S114.81,75.31,115.19,75.28Z"/><path id="路径_14613" data-name="路径 14613" class="cls-2" d="M117.3,73.55c.41,0,.75-.29.75-.54s-.34-.4-.75-.34-.73.28-.73.53S116.9,73.6,117.3,73.55Z"/><path id="路径_14614" data-name="路径 14614" class="cls-2" d="M120,71.82c.44-.07.8-.35.8-.61s-.36-.39-.8-.31-.78.35-.78.6S119.53,71.9,120,71.82Z"/><path id="路径_14615" data-name="路径 14615" class="cls-2" d="M123.16,70c.47-.12.85-.44.85-.72s-.38-.39-.85-.26-.84.43-.84.7S122.69,70.13,123.16,70Z"/><path id="路径_14616" data-name="路径 14616" class="cls-2" d="M126.84,68.07c.5-.17.91-.56.91-.86s-.41-.39-.91-.21-.9.54-.9.83S126.34,68.23,126.84,68.07Z"/><path id="路径_14617" data-name="路径 14617" class="cls-2" d="M130.91,65.93c.53-.23,1-.69,1-1s-.42-.4-1-.16-.94.68-.94,1S130.39,66.15,130.91,65.93Z"/><path id="路径_14618" data-name="路径 14618" class="cls-2" d="M135.24,63.64a1.75,1.75,0,0,0,1-1.21c0-.38-.44-.43-1-.12a1.77,1.77,0,0,0-1,1.18C134.27,63.85,134.7,63.93,135.24,63.64Z"/><path id="路径_14619" data-name="路径 14619" class="cls-2" d="M139.64,61.35a2.07,2.07,0,0,0,1-1.41c0-.43-.44-.48-1-.11a2.12,2.12,0,0,0-1,1.39C138.66,61.62,139.1,61.69,139.64,61.35Z"/><path id="路径_14620" data-name="路径 14620" class="cls-2" d="M144,59.3a2.36,2.36,0,0,0,1-1.6c0-.5-.43-.55-1-.13a2.49,2.49,0,0,0-1,1.58C143,59.62,143.41,59.69,144,59.3Z"/><path id="路径_14621" data-name="路径 14621" class="cls-2" d="M148,57.86a2.65,2.65,0,0,0,.95-1.78c0-.56-.43-.64-.95-.19a2.74,2.74,0,0,0-1,1.76C147,58.17,147.46,58.28,148,57.86Z"/><path id="路径_14622" data-name="路径 14622" class="cls-2" d="M151.62,57.4a2.9,2.9,0,0,0,.92-1.93c0-.63-.41-.76-.92-.3a3,3,0,0,0-.93,1.9C150.69,57.67,151.11,57.82,151.62,57.4Z"/><path id="路径_14623" data-name="路径 14623" class="cls-2" d="M154.75,58.27a3,3,0,0,0,.89-2c0-.71-.4-.91-.89-.45a3.1,3.1,0,0,0-.91,2C153.84,58.46,154.25,58.68,154.75,58.27Z"/><path id="路径_14624" data-name="路径 14624" class="cls-2" d="M157.32,60.68a2.92,2.92,0,0,0,.86-2.07c0-.78-.38-1.06-.86-.66a3.06,3.06,0,0,0-.87,2.06C156.45,60.74,156.84,61,157.32,60.68Z"/><path id="路径_14625" data-name="路径 14625" class="cls-2" d="M159.31,64.69a2.68,2.68,0,0,0,.82-2c0-.83-.37-1.22-.82-.89a2.79,2.79,0,0,0-.84,2C158.47,64.58,158.84,65,159.31,64.69Z"/><path id="路径_14626" data-name="路径 14626" class="cls-2" d="M160.71,70.15a2.3,2.3,0,0,0,.8-2c0-.88-.36-1.38-.8-1.13A2.42,2.42,0,0,0,159.9,69C159.9,69.84,160.26,70.35,160.71,70.15Z"/><path id="路径_14627" data-name="路径 14627" class="cls-2" d="M161.54,76.72c.44-.1.79-.91.79-1.83s-.35-1.53-.79-1.39-.8,1-.8,1.82S161.1,76.8,161.54,76.72Z"/><path id="路径_14628" data-name="路径 14628" class="cls-2" d="M164.51,83.61c.31,0,.55-.61.55-1.4s-.24-1.41-.55-1.4-.57.64-.57,1.4S164.19,83.59,164.51,83.61Z"/><path id="路径_14629" data-name="路径 14629" class="cls-2" d="M164.28,91.5c.31.12.56-.42.56-1.2s-.25-1.48-.56-1.56-.58.46-.58,1.2S164,91.39,164.28,91.5Z"/><path id="路径_14630" data-name="路径 14630" class="cls-2" d="M163.59,98.81c.32.21.58-.24.58-1a2.18,2.18,0,0,0-.58-1.7c-.32-.17-.58.28-.58,1A2.36,2.36,0,0,0,163.59,98.81Z"/><path id="路径_14631" data-name="路径 14631" class="cls-2" d="M162.43,105c.34.29.6,0,.6-.78a2.55,2.55,0,0,0-.6-1.79c-.33-.26-.6.1-.6.8A2.71,2.71,0,0,0,162.43,105Z"/><path id="路径_14632" data-name="路径 14632" class="cls-2" d="M160.78,109.74c.35.36.62.1.62-.59a2.89,2.89,0,0,0-.62-1.83c-.35-.32-.63,0-.64.6A3,3,0,0,0,160.78,109.74Z"/><path id="路径_14633" data-name="路径 14633" class="cls-2" d="M158.61,112.83c.36.4.65.22.65-.42a3,3,0,0,0-.65-1.82c-.37-.37-.67-.17-.67.43A3.07,3.07,0,0,0,158.61,112.83Z"/><path id="路径_14634" data-name="路径 14634" class="cls-2" d="M155.91,114.24c.39.43.69.32.69-.26a3,3,0,0,0-.69-1.77c-.38-.4-.7-.27-.7.28A3,3,0,0,0,155.91,114.24Z"/><path id="路径_14635" data-name="路径 14635" class="cls-2" d="M152.71,114.15c.4.43.72.36.72-.15a2.69,2.69,0,0,0-.72-1.67c-.4-.4-.72-.33-.72.16A2.91,2.91,0,0,0,152.71,114.15Z"/><path id="路径_14636" data-name="路径 14636" class="cls-2" d="M149.06,112.82c.41.41.74.38.75-.07a2.56,2.56,0,0,0-.75-1.55c-.41-.39-.75-.34-.75.09A2.56,2.56,0,0,0,149.06,112.82Z"/><path id="路径_14637" data-name="路径 14637" class="cls-2" d="M145,110.62c.42.38.76.37.76,0a2.18,2.18,0,0,0-.76-1.39c-.42-.36-.77-.33-.77,0A2.31,2.31,0,0,0,145,110.62Z"/><path id="路径_14638" data-name="路径 14638" class="cls-2" d="M140.74,107.93c.43.34.77.34.77,0a1.87,1.87,0,0,0-.77-1.22c-.43-.31-.77-.3-.78,0A1.93,1.93,0,0,0,140.74,107.93Z"/><path id="路径_14639" data-name="路径 14639" class="cls-2" d="M136.34,105.1c.42.29.77.27.77,0a1.6,1.6,0,0,0-.77-1c-.43-.27-.77-.24-.77,0A1.58,1.58,0,0,0,136.34,105.1Z"/><path id="路径_14640" data-name="路径 14640" class="cls-2" d="M132,102.38c.42.23.76.2.76-.07s-.34-.67-.76-.89-.74-.17-.74.09S131.56,102.16,132,102.38Z"/><path id="路径_14641" data-name="路径 14641" class="cls-2" d="M127.81,99.92c.4.17.72.12.72-.13s-.32-.58-.72-.74-.72-.1-.72.14S127.41,99.75,127.81,99.92Z"/><path id="路径_14642" data-name="路径 14642" class="cls-2" d="M124,97.74c.38.12.69.05.69-.17s-.31-.5-.69-.63-.68,0-.68.19S123.59,97.62,124,97.74Z"/><path id="路径_14643" data-name="路径 14643" class="cls-2" d="M120.55,95.81c.35.09.64,0,.64-.21s-.29-.45-.64-.53-.64,0-.64.23S120.2,95.73,120.55,95.81Z"/><path id="路径_14644" data-name="路径 14644" class="cls-2" d="M117.61,94.06c.33,0,.59-.06.59-.26s-.26-.4-.59-.44-.58.06-.58.25S117.29,94,117.61,94.06Z"/><path id="路径_14645" data-name="路径 14645" class="cls-2" d="M115.18,92.38c.3,0,.55-.09.55-.28s-.25-.37-.55-.4-.53.1-.53.29S114.89,92.35,115.18,92.38Z"/><path id="路径_14646" data-name="路径 14646" class="cls-2" d="M113.25,90.71c.27,0,.5-.11.5-.3s-.23-.35-.5-.37-.49.12-.49.3S113,90.69,113.25,90.71Z"/><path id="路径_14647" data-name="路径 14647" class="cls-2" d="M111.77,89c.26,0,.47-.13.47-.31s-.21-.34-.47-.35-.45.13-.45.31S111.52,89,111.77,89Z"/><path id="路径_14648" data-name="路径 14648" class="cls-2" d="M110.72,87.21c.24,0,.43-.13.43-.31s-.2-.33-.43-.33a.37.37,0,0,0-.42.31h0A.38.38,0,0,0,110.72,87.21Z"/><path id="路径_14649" data-name="路径 14649" class="cls-2" d="M110,85.38a.38.38,0,0,0,.42-.32.39.39,0,0,0-.42-.33.37.37,0,0,0-.4.32A.38.38,0,0,0,110,85.38Z"/><path id="路径_14650" data-name="路径 14650" class="cls-2" d="M109.72,83.5a.33.33,0,0,0,.14-.65h-.14a.33.33,0,1,0-.13.65Z"/><path id="路径_14651" data-name="路径 14651" class="cls-2" d="M109.72,81.6a.33.33,0,0,0,.39-.25.32.32,0,0,0-.25-.39h-.14a.33.33,0,1,0-.13.64A.28.28,0,0,0,109.72,81.6Z"/><path id="路径_14652" data-name="路径 14652" class="cls-2" d="M110,79.72a.38.38,0,0,0,.42-.32.43.43,0,0,0-.51-.31.44.44,0,0,0-.31.31A.37.37,0,0,0,110,79.72Z"/><path id="路径_14653" data-name="路径 14653" class="cls-2" d="M110.72,77.89a.4.4,0,0,0,.43-.34c0-.18-.2-.32-.43-.31a.39.39,0,0,0-.42.33A.38.38,0,0,0,110.72,77.89Z"/><path id="路径_14654" data-name="路径 14654" class="cls-2" d="M111.77,76.11c.26,0,.46-.16.46-.34s-.2-.32-.46-.31-.45.17-.45.34S111.52,76.12,111.77,76.11Z"/><path id="路径_14655" data-name="路径 14655" class="cls-2" d="M113.25,74.41c.27,0,.5-.18.5-.37s-.23-.31-.5-.29-.49.18-.49.36S113,74.42,113.25,74.41Z"/><path id="路径_14656" data-name="路径 14656" class="cls-2" d="M115.18,72.75c.3,0,.54-.21.54-.4s-.24-.31-.54-.28-.52.21-.52.39S114.89,72.78,115.18,72.75Z"/><path id="路径_14657" data-name="路径 14657" class="cls-2" d="M117.61,71.09c.32,0,.59-.25.59-.44s-.27-.3-.59-.25-.57.25-.57.44S117.3,71.14,117.61,71.09Z"/><path id="路径_14658" data-name="路径 14658" class="cls-2" d="M120.55,69.37c.34-.08.63-.31.63-.51s-.29-.3-.63-.22-.62.3-.62.5S120.21,69.45,120.55,69.37Z"/><path id="路径_14659" data-name="路径 14659" class="cls-2" d="M124,67.5c.37-.12.67-.39.67-.6s-.3-.29-.67-.17-.67.38-.67.59S123.6,67.61,124,67.5Z"/><path id="路径_14660" data-name="路径 14660" class="cls-2" d="M127.81,65.39c.39-.16.71-.49.71-.72s-.32-.29-.71-.12-.7.48-.7.71S127.42,65.55,127.81,65.39Z"/><path id="路径_14661" data-name="路径 14661" class="cls-2" d="M132,63c.41-.21.74-.6.74-.87s-.33-.29-.74-.07-.73.59-.73.85S131.57,63.23,132,63Z"/><path id="路径_14662" data-name="路径 14662" class="cls-2" d="M136.34,60.42a1.59,1.59,0,0,0,.75-1c0-.3-.34-.32-.75,0a1.57,1.57,0,0,0-.75,1C135.59,60.65,135.92,60.68,136.34,60.42Z"/><path id="路径_14663" data-name="路径 14663" class="cls-2" d="M140.74,57.74a1.82,1.82,0,0,0,.75-1.19c0-.35-.33-.35-.75,0A1.94,1.94,0,0,0,140,57.7C140,58,140.32,58.05,140.74,57.74Z"/><path id="路径_14664" data-name="路径 14664" class="cls-2" d="M145,55.23a2.2,2.2,0,0,0,.74-1.36c0-.39-.33-.4-.74,0a2.24,2.24,0,0,0-.75,1.34C144.28,55.55,144.61,55.58,145,55.23Z"/><path id="路径_14665" data-name="路径 14665" class="cls-2" d="M149.06,53.23a2.48,2.48,0,0,0,.73-1.53c0-.45-.32-.47-.73-.06a2.52,2.52,0,0,0-.74,1.5C148.32,53.57,148.65,53.61,149.06,53.23Z"/><path id="路径_14666" data-name="路径 14666" class="cls-2" d="M152.71,52.1a2.73,2.73,0,0,0,.72-1.65c0-.51-.32-.57-.72-.15a2.87,2.87,0,0,0-.71,1.64C152,52.43,152.32,52.5,152.71,52.1Z"/><path id="路径_14667" data-name="路径 14667" class="cls-2" d="M155.91,52.21a2.81,2.81,0,0,0,.68-1.75c0-.56-.3-.68-.68-.26a3.06,3.06,0,0,0-.68,1.74C155.23,52.48,155.53,52.6,155.91,52.21Z"/><path id="路径_14668" data-name="路径 14668" class="cls-2" d="M158.61,53.83a3,3,0,0,0,.64-1.8c0-.63-.28-.8-.64-.41a3,3,0,0,0-.66,1.79C158,54,158.24,54.19,158.61,53.83Z"/><path id="路径_14669" data-name="路径 14669" class="cls-2" d="M160.78,57.1a2.85,2.85,0,0,0,.61-1.81c0-.68-.27-.93-.61-.58a3,3,0,0,0-.63,1.79C160.15,57.14,160.44,57.41,160.78,57.1Z"/><path id="路径_14670" data-name="路径 14670" class="cls-2" d="M162.43,62a2.56,2.56,0,0,0,.59-1.76c0-.72-.26-1.06-.59-.78a2.69,2.69,0,0,0-.6,1.76C161.83,61.89,162.11,62.24,162.43,62Z"/><path id="路径_14671" data-name="路径 14671" class="cls-2" d="M163.59,68.32a2.18,2.18,0,0,0,.58-1.7c0-.77-.26-1.2-.58-1a2.36,2.36,0,0,0-.58,1.7C163,68,163.27,68.49,163.59,68.32Z"/><path id="路径_14672" data-name="路径 14672" class="cls-2" d="M164.28,75.69c.31-.09.56-.79.56-1.57s-.25-1.32-.56-1.2-.58.82-.58,1.56S164,75.77,164.28,75.69Z"/><path id="路径_14673" data-name="路径 14673" class="cls-2" d="M167,83.31c.2,0,.36-.48.36-1.1s-.16-1.11-.36-1.1-.36.5-.36,1.1S166.76,83.3,167,83.31Z"/><path id="路径_14674" data-name="路径 14674" class="cls-2" d="M166.78,92.1c.2.08.36-.34.36-.95s-.16-1.16-.36-1.23-.37.35-.37,1S166.57,92,166.78,92.1Z"/><path id="路径_14675" data-name="路径 14675" class="cls-2" d="M166.22,100.32c.21.17.37-.19.37-.8a2,2,0,0,0-.37-1.36c-.22-.15-.39.21-.39.8A2.07,2.07,0,0,0,166.22,100.32Z"/><path id="路径_14676" data-name="路径 14676" class="cls-2" d="M165.26,107.46c.22.23.39-.06.39-.64a2.38,2.38,0,0,0-.39-1.44c-.22-.21-.4.08-.4.64A2.53,2.53,0,0,0,165.26,107.46Z"/><path id="路径_14677" data-name="路径 14677" class="cls-2" d="M163.89,113.15c.23.28.41.07.41-.48a2.65,2.65,0,0,0-.41-1.48c-.23-.27-.42,0-.42.49A2.73,2.73,0,0,0,163.89,113.15Z"/><path id="路径_14678" data-name="路径 14678" class="cls-2" d="M162.07,117.18c.24.32.43.17.43-.34a2.78,2.78,0,0,0-.43-1.49c-.25-.31-.44-.15-.45.35A2.89,2.89,0,0,0,162.07,117.18Z"/><path id="路径_14679" data-name="路径 14679" class="cls-2" d="M159.78,119.47c.26.35.46.26.46-.22a2.74,2.74,0,0,0-.46-1.46c-.25-.33-.46-.23-.46.23A2.86,2.86,0,0,0,159.78,119.47Z"/><path id="路径_14680" data-name="路径 14680" class="cls-2" d="M157,120.11c.27.36.48.31.48-.12a2.65,2.65,0,0,0-.48-1.41c-.27-.34-.5-.28-.5.13A2.86,2.86,0,0,0,157,120.11Z"/><path id="路径_14681" data-name="路径 14681" class="cls-2" d="M153.78,119.29c.29.36.51.34.51,0a2.37,2.37,0,0,0-.51-1.32c-.28-.35-.51-.32-.51,0A2.53,2.53,0,0,0,153.78,119.29Z"/><path id="路径_14682" data-name="路径 14682" class="cls-2" d="M150.12,117.33c.3.34.53.35.53,0a2.14,2.14,0,0,0-.53-1.22c-.3-.33-.54-.32-.54,0A2.27,2.27,0,0,0,150.12,117.33Z"/><path id="路径_14683" data-name="路径 14683" class="cls-2" d="M146.11,114.59c.3.31.54.33.55,0a2,2,0,0,0-.55-1.1c-.3-.3-.56-.31-.56,0A2,2,0,0,0,146.11,114.59Z"/><path id="路径_14684" data-name="路径 14684" class="cls-2" d="M141.84,111.44c.3.27.54.29.54,0a1.53,1.53,0,0,0-.54-.94c-.3-.27-.55-.28-.55,0A1.6,1.6,0,0,0,141.84,111.44Z"/><path id="路径_14685" data-name="路径 14685" class="cls-2" d="M137.44,108.22c.3.23.55.24.55,0a1.31,1.31,0,0,0-.55-.81c-.3-.22-.55-.22-.55,0A1.35,1.35,0,0,0,137.44,108.22Z"/><path id="路径_14686" data-name="路径 14686" class="cls-2" d="M133.06,105.17c.3.19.53.18.53,0a1,1,0,0,0-.53-.68c-.3-.18-.54-.17-.54,0A1.08,1.08,0,0,0,133.06,105.17Z"/><path id="路径_14687" data-name="路径 14687" class="cls-2" d="M128.82,102.44c.28.14.51.12.52-.06s-.24-.43-.52-.57-.52-.11-.52.06S128.53,102.29,128.82,102.44Z"/><path id="路径_14688" data-name="路径 14688" class="cls-2" d="M124.85,100.07c.27.11.5.07.5-.09s-.23-.38-.5-.48-.49-.06-.49.1S124.58,100,124.85,100.07Z"/><path id="路径_14689" data-name="路径 14689" class="cls-2" d="M121.26,98c.26.08.47,0,.47-.13s-.21-.33-.47-.4-.46,0-.46.14S121,98,121.26,98Z"/><path id="路径_14690" data-name="路径 14690" class="cls-2" d="M118.11,96.24c.24.05.43,0,.43-.16s-.19-.3-.43-.34-.42,0-.42.17S117.88,96.2,118.11,96.24Z"/><path id="路径_14691" data-name="路径 14691" class="cls-2" d="M115.43,94.59c.22,0,.39,0,.39-.18s-.17-.27-.39-.3-.38.06-.38.19S115.22,94.56,115.43,94.59Z"/><path id="路径_14692" data-name="路径 14692" class="cls-2" d="M113.23,93c.19,0,.35-.08.35-.2s-.16-.25-.35-.27-.35.07-.35.2S113,93,113.23,93Z"/><path id="路径_14693" data-name="路径 14693" class="cls-2" d="M111.47,91.4c.18,0,.32-.09.32-.21a.3.3,0,0,0-.32-.25c-.18,0-.32.08-.32.21S111.3,91.39,111.47,91.4Z"/><path id="路径_14694" data-name="路径 14694" class="cls-2" d="M110.12,89.74a.27.27,0,0,0,.3-.22h0a.27.27,0,0,0-.3-.24.26.26,0,0,0-.29.22h0A.28.28,0,0,0,110.12,89.74Z"/><path id="路径_14695" data-name="路径 14695" class="cls-2" d="M109.14,88a.25.25,0,0,0,.27-.22h0a.26.26,0,0,0-.27-.24.25.25,0,0,0-.27.22h0A.25.25,0,0,0,109.14,88Z"/><path id="路径_14696" data-name="路径 14696" class="cls-2" d="M108.47,86.2a.25.25,0,0,0,.26-.23.25.25,0,0,0-.26-.23.23.23,0,0,0-.25.22h0A.24.24,0,0,0,108.47,86.2Z"/><path id="路径_14697" data-name="路径 14697" class="cls-2" d="M108.08,84.34a.23.23,0,0,0,.25-.21.22.22,0,0,0-.21-.24h0a.23.23,0,0,0-.25.2.24.24,0,0,0,.21.25Z"/><path id="路径_14698" data-name="路径 14698" class="cls-2" d="M108,82.45a.22.22,0,0,0,.24-.2A.22.22,0,0,0,108,82h0a.23.23,0,1,0,0,.45Z"/><path id="路径_14699" data-name="路径 14699" class="cls-2" d="M108.08,80.57a.23.23,0,0,0,.25-.21.22.22,0,0,0-.21-.24h0a.24.24,0,0,0-.25.2.23.23,0,0,0,.21.25Z"/><path id="路径_14700" data-name="路径 14700" class="cls-2" d="M108.47,78.71a.24.24,0,0,0,.25-.23.24.24,0,0,0-.27-.22.25.25,0,0,0-.23.22.23.23,0,0,0,.24.23Z"/><path id="路径_14701" data-name="路径 14701" class="cls-2" d="M109.14,76.91a.26.26,0,0,0,.26-.23.25.25,0,0,0-.26-.23h0a.26.26,0,0,0-.27.23.25.25,0,0,0,.26.23Z"/><path id="路径_14702" data-name="路径 14702" class="cls-2" d="M110.12,75.17a.27.27,0,0,0,.29-.23.26.26,0,0,0-.29-.22h0a.26.26,0,0,0-.28.23.24.24,0,0,0,.28.22Z"/><path id="路径_14703" data-name="路径 14703" class="cls-2" d="M111.47,73.51c.17,0,.32-.12.32-.24s-.15-.22-.32-.22-.31.12-.31.25S111.3,73.52,111.47,73.51Z"/><path id="路径_14704" data-name="路径 14704" class="cls-2" d="M113.23,71.92c.19,0,.34-.14.34-.27s-.15-.21-.34-.2-.34.14-.34.26S113,71.93,113.23,71.92Z"/><path id="路径_14705" data-name="路径 14705" class="cls-2" d="M115.43,70.33c.21,0,.38-.15.38-.28s-.17-.22-.38-.19-.37.16-.37.29S115.23,70.36,115.43,70.33Z"/><path id="路径_14706" data-name="路径 14706" class="cls-2" d="M118.11,68.71c.23,0,.42-.2.42-.33s-.19-.21-.42-.16-.41.19-.41.33S117.89,68.75,118.11,68.71Z"/><path id="路径_14707" data-name="路径 14707" class="cls-2" d="M121.26,66.94c.25-.07.45-.24.45-.38s-.2-.2-.45-.13-.44.24-.44.38S121,67,121.26,66.94Z"/><path id="路径_14708" data-name="路径 14708" class="cls-2" d="M124.85,65c.26-.1.48-.31.48-.47s-.22-.19-.48-.09-.47.3-.47.46S124.59,65,124.85,65Z"/><path id="路径_14709" data-name="路径 14709" class="cls-2" d="M128.81,62.63c.28-.13.5-.38.5-.55s-.22-.19-.5-.06-.5.39-.5.55S128.54,62.77,128.81,62.63Z"/><path id="路径_14710" data-name="路径 14710" class="cls-2" d="M133.05,60a1,1,0,0,0,.52-.66c0-.19-.23-.2-.52,0a1.06,1.06,0,0,0-.51.66C132.54,60.13,132.77,60.15,133.05,60Z"/><path id="路径_14711" data-name="路径 14711" class="cls-2" d="M137.44,57a1.32,1.32,0,0,0,.54-.8c0-.22-.24-.21-.54,0a1.3,1.3,0,0,0-.54.79C136.9,57.24,137.14,57.24,137.44,57Z"/><path id="路径_14712" data-name="路径 14712" class="cls-2" d="M141.84,53.91a1.54,1.54,0,0,0,.53-.93c0-.25-.24-.23-.53,0a1.58,1.58,0,0,0-.54.92C141.29,54.18,141.54,54.17,141.84,53.91Z"/><path id="路径_14713" data-name="路径 14713" class="cls-2" d="M146.11,50.89a1.82,1.82,0,0,0,.53-1.06c0-.28-.24-.26-.53,0a1.9,1.9,0,0,0-.54,1.05C145.57,51.2,145.81,51.19,146.11,50.89Z"/><path id="路径_14714" data-name="路径 14714" class="cls-2" d="M150.12,48.3a2.15,2.15,0,0,0,.52-1.18c0-.32-.23-.32-.52,0a2.24,2.24,0,0,0-.52,1.16C149.6,48.62,149.84,48.62,150.12,48.3Z"/><path id="路径_14715" data-name="路径 14715" class="cls-2" d="M153.78,46.49a2.39,2.39,0,0,0,.5-1.28c0-.37-.22-.38-.5,0a2.47,2.47,0,0,0-.5,1.27C153.28,46.8,153.51,46.82,153.78,46.49Z"/><path id="路径_14716" data-name="路径 14716" class="cls-2" d="M157,45.83a2.48,2.48,0,0,0,.47-1.36c0-.41-.21-.46-.47-.11a2.58,2.58,0,0,0-.47,1.34C156.54,46.1,156.75,46.16,157,45.83Z"/><path id="路径_14717" data-name="路径 14717" class="cls-2" d="M159.78,46.63a2.76,2.76,0,0,0,.46-1.44c0-.46-.2-.56-.46-.21a2.78,2.78,0,0,0-.46,1.42C159.32,46.85,159.53,47,159.78,46.63Z"/><path id="路径_14718" data-name="路径 14718" class="cls-2" d="M162.07,49.07a2.74,2.74,0,0,0,.43-1.47c0-.5-.19-.65-.43-.33a2.85,2.85,0,0,0-.43,1.45C161.64,49.21,161.83,49.37,162.07,49.07Z"/><path id="路径_14719" data-name="路径 14719" class="cls-2" d="M163.89,53.23a2.7,2.7,0,0,0,.4-1.46c0-.54-.18-.75-.4-.48a2.68,2.68,0,0,0-.41,1.45C163.48,53.27,163.66,53.49,163.89,53.23Z"/><path id="路径_14720" data-name="路径 14720" class="cls-2" d="M165.26,59a2.39,2.39,0,0,0,.39-1.42c0-.57-.17-.85-.39-.62a2.43,2.43,0,0,0-.39,1.41C164.87,59,165.05,59.24,165.26,59Z"/><path id="路径_14721" data-name="路径 14721" class="cls-2" d="M166.21,66.25a2,2,0,0,0,.38-1.34c0-.6-.17-.95-.38-.79a2.06,2.06,0,0,0-.37,1.34C165.84,66,166,66.39,166.21,66.25Z"/><path id="路径_14722" data-name="路径 14722" class="cls-2" d="M166.78,74.51c.2-.07.36-.63.36-1.24s-.16-1-.36-.94-.37.64-.37,1.23S166.57,74.58,166.78,74.51Z"/><path id="路径_14723" data-name="路径 14723" class="cls-2" d="M169.17,83c.11,0,.19-.33.19-.74s-.08-.75-.19-.74-.2.33-.2.74S169.06,83,169.17,83Z"/><path id="路径_14724" data-name="路径 14724" class="cls-2" d="M169,92.73c.11.06.2-.22.2-.63s-.09-.79-.2-.84-.2.23-.2.64S168.91,92.67,169,92.73Z"/><path id="路径_14725" data-name="路径 14725" class="cls-2" d="M168.56,101.93c.12.11.2-.12.2-.52a1.51,1.51,0,0,0-.2-.91c-.11-.1-.2.13-.2.53A1.66,1.66,0,0,0,168.56,101.93Z"/><path id="路径_14726" data-name="路径 14726" class="cls-2" d="M167.79,110.06c.11.16.21,0,.21-.42a2,2,0,0,0-.21-1c-.12-.15-.22,0-.22.42A1.86,1.86,0,0,0,167.79,110.06Z"/><path id="路径_14727" data-name="路径 14727" class="cls-2" d="M166.66,116.75c.12.19.22,0,.22-.32a2.28,2.28,0,0,0-.22-1c-.13-.18-.23,0-.23.33A2.15,2.15,0,0,0,166.66,116.75Z"/><path id="路径_14728" data-name="路径 14728" class="cls-2" d="M165.15,121.75c.13.22.24.12.24-.23a2.17,2.17,0,0,0-.24-1c-.13-.21-.24-.1-.24.24A2.44,2.44,0,0,0,165.15,121.75Z"/><path id="路径_14729" data-name="路径 14729" class="cls-2" d="M163.23,125c.14.24.25.17.25-.15a2.11,2.11,0,0,0-.25-1c-.14-.23-.25-.16-.25.15A2.23,2.23,0,0,0,163.23,125Z"/><path id="路径_14730" data-name="路径 14730" class="cls-2" d="M160.87,126.42c.15.25.27.21.27-.08a2,2,0,0,0-.27-1c-.14-.24-.27-.2-.27.08A2.26,2.26,0,0,0,160.87,126.42Z"/><path id="路径_14731" data-name="路径 14731" class="cls-2" d="M158.07,126.25c.16.25.29.24.29,0a2,2,0,0,0-.29-.92c-.16-.24-.29-.23-.29,0A2,2,0,0,0,158.07,126.25Z"/><path id="路径_14732" data-name="路径 14732" class="cls-2" d="M154.82,124.71c.17.24.3.25.3,0a1.71,1.71,0,0,0-.3-.86c-.16-.23-.3-.24-.3,0A1.89,1.89,0,0,0,154.82,124.71Z"/><path id="路径_14733" data-name="路径 14733" class="cls-2" d="M151.17,122.1c.18.23.32.25.32,0a1.56,1.56,0,0,0-.32-.79c-.17-.22-.31-.24-.31,0A1.61,1.61,0,0,0,151.17,122.1Z"/><path id="路径_14734" data-name="路径 14734" class="cls-2" d="M147.18,118.8c.18.21.32.24.32,0a1.36,1.36,0,0,0-.32-.71c-.18-.2-.33-.23-.33,0A1.37,1.37,0,0,0,147.18,118.8Z"/><path id="路径_14735" data-name="路径 14735" class="cls-2" d="M142.93,115.16c.19.19.33.21.33.06a1.11,1.11,0,0,0-.33-.63c-.18-.18-.33-.21-.33,0A1.14,1.14,0,0,0,142.93,115.16Z"/><path id="路径_14736" data-name="路径 14736" class="cls-2" d="M138.54,111.51c.19.16.34.18.34,0a1,1,0,0,0-.34-.54c-.18-.15-.33-.17-.33,0A.93.93,0,0,0,138.54,111.51Z"/><path id="路径_14737" data-name="路径 14737" class="cls-2" d="M134.14,108.1c.18.13.33.14.33,0a.74.74,0,0,0-.33-.46c-.18-.13-.33-.13-.33,0A.79.79,0,0,0,134.14,108.1Z"/><path id="路径_14738" data-name="路径 14738" class="cls-2" d="M129.85,105.06c.17.1.32.1.32,0s-.15-.28-.32-.38-.32-.1-.32,0S129.67,105,129.85,105.06Z"/><path id="路径_14739" data-name="路径 14739" class="cls-2" d="M125.79,102.45c.16.08.3.06.3,0s-.14-.23-.3-.3-.29-.06-.29,0S125.63,102.38,125.79,102.45Z"/><path id="路径_14740" data-name="路径 14740" class="cls-2" d="M122.06,100.26c.16,0,.28,0,.28-.07s-.12-.2-.28-.25-.27,0-.27.06S121.91,100.21,122.06,100.26Z"/><path id="路径_14741" data-name="路径 14741" class="cls-2" d="M118.74,98.39c.14,0,.25,0,.25-.09s-.11-.18-.25-.21-.26,0-.26.09S118.59,98.35,118.74,98.39Z"/><path id="路径_14742" data-name="路径 14742" class="cls-2" d="M115.85,96.73c.13,0,.24,0,.24-.1s-.11-.16-.24-.18-.23,0-.23.1S115.72,96.71,115.85,96.73Z"/><path id="路径_14743" data-name="路径 14743" class="cls-2" d="M113.43,95.19c.11,0,.21,0,.21-.11s-.1-.16-.21-.17-.21,0-.21.12S113.31,95.18,113.43,95.19Z"/><path id="路径_14744" data-name="路径 14744" class="cls-2" d="M111.44,93.68c.11,0,.19-.05.19-.13s-.08-.14-.19-.15-.19,0-.19.13S111.34,93.67,111.44,93.68Z"/><path id="路径_14745" data-name="路径 14745" class="cls-2" d="M109.86,92.13A.17.17,0,0,0,110,92h0a.18.18,0,0,0-.18-.14.16.16,0,0,0-.17.13h0A.17.17,0,0,0,109.86,92.13Z"/><path id="路径_14746" data-name="路径 14746" class="cls-2" d="M108.65,90.5a.13.13,0,0,0,.15-.13h0a.15.15,0,0,0-.15-.14.14.14,0,0,0-.15.13h0A.15.15,0,0,0,108.65,90.5Z"/><path id="路径_14747" data-name="路径 14747" class="cls-2" d="M107.75,88.8a.15.15,0,0,0,.15-.12.14.14,0,0,0-.13-.15h0a.13.13,0,0,0-.14.12.13.13,0,0,0,.12.15Z"/><path id="路径_14748" data-name="路径 14748" class="cls-2" d="M107.1,87a.13.13,0,0,0,.14-.13.14.14,0,0,0-.14-.14.14.14,0,0,0-.14.13.13.13,0,0,0,.12.14Z"/><path id="路径_14749" data-name="路径 14749" class="cls-2" d="M106.64,85.18a.13.13,0,0,0,.15-.13.13.13,0,0,0-.14-.13h0a.13.13,0,1,0,0,.26Z"/><path id="路径_14750" data-name="路径 14750" class="cls-2" d="M106.4,83.31a.14.14,0,0,0,.15-.13.13.13,0,0,0-.12-.14h0a.13.13,0,0,0-.15.11.14.14,0,0,0,.11.16Z"/><path id="路径_14751" data-name="路径 14751" class="cls-2" d="M106.4,81.42a.13.13,0,0,0,.12-.15.14.14,0,0,0-.27,0A.16.16,0,0,0,106.4,81.42Z"/><path id="路径_14752" data-name="路径 14752" class="cls-2" d="M106.64,79.53a.13.13,0,0,0,0-.26.12.12,0,0,0-.12.13A.13.13,0,0,0,106.64,79.53Z"/><path id="路径_14753" data-name="路径 14753" class="cls-2" d="M107.1,77.7a.13.13,0,1,0-.14-.14.14.14,0,0,0,.12.14Z"/><path id="路径_14754" data-name="路径 14754" class="cls-2" d="M107.75,75.92a.13.13,0,1,0,0-.26h0a.13.13,0,0,0,0,.26Z"/><path id="路径_14755" data-name="路径 14755" class="cls-2" d="M108.65,74.22a.15.15,0,0,0,.15-.14.14.14,0,0,0-.15-.12h0a.14.14,0,0,0-.15.13.15.15,0,0,0,.15.13Z"/><path id="路径_14756" data-name="路径 14756" class="cls-2" d="M109.86,72.6a.17.17,0,0,0,.17-.14.14.14,0,0,0-.16-.12h0a.13.13,0,1,0,0,.26Z"/><path id="路径_14757" data-name="路径 14757" class="cls-2" d="M111.44,71.05c.1,0,.18-.07.18-.15s-.08-.12-.18-.12-.18.07-.18.15S111.34,71.05,111.44,71.05Z"/><path id="路径_14758" data-name="路径 14758" class="cls-2" d="M113.43,69.53c.11,0,.2-.08.2-.15s-.09-.12-.2-.11-.2.08-.2.15S113.32,69.55,113.43,69.53Z"/><path id="路径_14759" data-name="路径 14759" class="cls-2" d="M115.85,68c.13,0,.22-.1.22-.18s-.1-.12-.22-.1-.22.1-.22.18S115.73,68,115.85,68Z"/><path id="路径_14760" data-name="路径 14760" class="cls-2" d="M118.74,66.36c.13,0,.24-.12.24-.2s-.11-.11-.24-.08-.24.12-.24.2S118.6,66.39,118.74,66.36Z"/><path id="路径_14761" data-name="路径 14761" class="cls-2" d="M122.06,64.5c.14,0,.26-.15.26-.24s-.12-.1-.26-.06-.26.16-.26.24S121.92,64.55,122.06,64.5Z"/><path id="路径_14762" data-name="路径 14762" class="cls-2" d="M125.79,62.33c.15-.06.28-.2.28-.28s-.13-.11-.28,0-.28.2-.28.29S125.64,62.4,125.79,62.33Z"/><path id="路径_14763" data-name="路径 14763" class="cls-2" d="M129.85,59.77c.16-.1.3-.26.3-.36s-.13-.1-.3,0-.3.26-.3.36S129.68,59.87,129.85,59.77Z"/><path id="路径_14764" data-name="路径 14764" class="cls-2" d="M134.14,56.78a.68.68,0,0,0,.31-.43c0-.12-.14-.11-.31,0a.73.73,0,0,0-.31.42C133.83,56.91,134,56.9,134.14,56.78Z"/><path id="路径_14765" data-name="路径 14765" class="cls-2" d="M138.54,53.42a.9.9,0,0,0,.32-.51c0-.13-.14-.11-.32,0a.83.83,0,0,0-.31.5C138.23,53.59,138.37,53.57,138.54,53.42Z"/><path id="路径_14766" data-name="路径 14766" class="cls-2" d="M142.93,49.84a1,1,0,0,0,.31-.59c0-.15-.13-.13-.31,0a1.09,1.09,0,0,0-.31.59C142.62,50,142.76,50,142.93,49.84Z"/><path id="路径_14767" data-name="路径 14767" class="cls-2" d="M147.18,46.28a1.38,1.38,0,0,0,.31-.67c0-.17-.14-.14-.31.06a1.23,1.23,0,0,0-.31.66C146.87,46.5,147,46.48,147.18,46.28Z"/><path id="路径_14768" data-name="路径 14768" class="cls-2" d="M151.17,43.06a1.42,1.42,0,0,0,.3-.74c0-.2-.13-.17-.3,0a1.55,1.55,0,0,0-.3.74C150.87,43.29,151,43.28,151.17,43.06Z"/><path id="路径_14769" data-name="路径 14769" class="cls-2" d="M154.82,40.55a1.59,1.59,0,0,0,.29-.81c0-.22-.13-.21-.29,0a1.64,1.64,0,0,0-.28.8C154.54,40.78,154.67,40.77,154.82,40.55Z"/><path id="路径_14770" data-name="路径 14770" class="cls-2" d="M158.07,39.11a2,2,0,0,0,.28-.89c0-.26-.13-.27-.28,0a1.94,1.94,0,0,0-.28.88C157.79,39.33,157.92,39.35,158.07,39.11Z"/><path id="路径_14771" data-name="路径 14771" class="cls-2" d="M160.87,39a2.22,2.22,0,0,0,.27-.94c0-.28-.12-.31-.27-.08a2.36,2.36,0,0,0-.26.93C160.61,39.23,160.73,39.27,160.87,39Z"/><path id="路径_14772" data-name="路径 14772" class="cls-2" d="M163.24,40.58a2.23,2.23,0,0,0,.24-1c0-.31-.11-.37-.24-.15a2.18,2.18,0,0,0-.25,1C163,40.74,163.1,40.8,163.24,40.58Z"/><path id="路径_14773" data-name="路径 14773" class="cls-2" d="M165.15,43.89a2.2,2.2,0,0,0,.23-1c0-.34-.1-.44-.23-.23a2.16,2.16,0,0,0-.23,1C164.92,44,165,44.09,165.15,43.89Z"/><path id="路径_14774" data-name="路径 14774" class="cls-2" d="M166.66,49a2,2,0,0,0,.21-1c0-.36-.1-.5-.21-.32a2.14,2.14,0,0,0-.22,1C166.44,49,166.54,49.15,166.66,49Z"/><path id="路径_14775" data-name="路径 14775" class="cls-2" d="M167.79,55.72a2,2,0,0,0,.2-.93c0-.38-.1-.56-.2-.41a1.89,1.89,0,0,0-.21.93C167.58,55.68,167.68,55.86,167.79,55.72Z"/><path id="路径_14776" data-name="路径 14776" class="cls-2" d="M168.56,63.9a1.49,1.49,0,0,0,.2-.88c0-.39-.08-.62-.2-.51a1.59,1.59,0,0,0-.2.88C168.37,63.77,168.45,64,168.56,63.9Z"/><path id="路径_14777" data-name="路径 14777" class="cls-2" d="M169,73.16c.11,0,.2-.43.2-.84s-.09-.69-.2-.63-.2.43-.2.83S168.91,73.21,169,73.16Z"/><path id="路径_14778" data-name="路径 14778" class="cls-2" d="M171.11,82.48s.06-.12.06-.27,0-.27-.06-.27-.05.12-.05.27A.52.52,0,0,0,171.11,82.48Z"/><path id="路径_14779" data-name="路径 14779" class="cls-2" d="M171,93.44s.05-.08.05-.23a.61.61,0,0,0-.05-.3s-.06.08-.06.22A.56.56,0,0,0,171,93.44Z"/><path id="路径_14780" data-name="路径 14780" class="cls-2" d="M170.63,103.77s.06,0,.06-.18a.79.79,0,0,0-.06-.34s-.06,0-.06.19A.92.92,0,0,0,170.63,103.77Z"/><path id="路径_14781" data-name="路径 14781" class="cls-2" d="M170,113c0,.06.06,0,.06-.14a.76.76,0,0,0-.06-.36s-.06,0-.06.15A1,1,0,0,0,170,113Z"/><path id="路径_14782" data-name="路径 14782" class="cls-2" d="M169.09,120.68c0,.07.06,0,.06-.11a.93.93,0,0,0-.06-.37c0-.07-.06,0-.06.12A1.13,1.13,0,0,0,169.09,120.68Z"/><path id="路径_14783" data-name="路径 14783" class="cls-2" d="M167.86,126.67c0,.08.06,0,.06-.08a1.15,1.15,0,0,0-.06-.37c0-.08-.07,0-.07.08A.94.94,0,0,0,167.86,126.67Z"/><path id="路径_14784" data-name="路径 14784" class="cls-2" d="M166.27,130.83c0,.08.07.06.07-.06a.89.89,0,0,0-.07-.36c0-.09-.07-.06-.07.05A.94.94,0,0,0,166.27,130.83Z"/><path id="路径_14785" data-name="路径 14785" class="cls-2" d="M164.29,133.15c.05.09.08.07.08,0a.86.86,0,0,0-.08-.36c0-.09-.08-.07-.08,0A1.11,1.11,0,0,0,164.29,133.15Z"/><path id="路径_14786" data-name="路径 14786" class="cls-2" d="M161.9,133.72c0,.09.09.09.09,0a1,1,0,0,0-.09-.34c-.05-.09-.08-.09-.08,0A.81.81,0,0,0,161.9,133.72Z"/><path id="路径_14787" data-name="路径 14787" class="cls-2" d="M159.08,132.72c0,.1.09.1.09,0a.62.62,0,0,0-.09-.32c-.05-.09-.09-.1-.09,0A.9.9,0,0,0,159.08,132.72Z"/><path id="路径_14788" data-name="路径 14788" class="cls-2" d="M155.84,130.43c.06.09.1.1.1,0a.63.63,0,0,0-.1-.3c-.05-.09-.1-.1-.1,0A.82.82,0,0,0,155.84,130.43Z"/><path id="路径_14789" data-name="路径 14789" class="cls-2" d="M152.21,127.15c.06.09.1.1.1,0a.59.59,0,0,0-.1-.28c-.05-.08-.1-.1-.1,0A.63.63,0,0,0,152.21,127.15Z"/><path id="路径_14790" data-name="路径 14790" class="cls-2" d="M148.25,123.26c.05.08.1.09.1,0a.69.69,0,0,0-.1-.25c-.06-.08-.1-.09-.1,0A.46.46,0,0,0,148.25,123.26Z"/><path id="路径_14791" data-name="路径 14791" class="cls-2" d="M144,119.1c.06.07.11.09.11,0a.39.39,0,0,0-.11-.22c-.06-.07-.1-.08-.1,0A.41.41,0,0,0,144,119.1Z"/><path id="路径_14792" data-name="路径 14792" class="cls-2" d="M139.65,115c.06.06.11.07.11,0a.4.4,0,0,0-.11-.19c-.06-.06-.11-.07-.11,0A.33.33,0,0,0,139.65,115Z"/><path id="路径_14793" data-name="路径 14793" class="cls-2" d="M135.24,111.18s.1,0,.1,0a.27.27,0,0,0-.1-.16c-.06,0-.11,0-.11,0A.25.25,0,0,0,135.24,111.18Z"/><path id="路径_14794" data-name="路径 14794" class="cls-2" d="M130.9,107.79c.06,0,.1,0,.1,0a.21.21,0,0,0-.1-.13c-.05,0-.1,0-.1,0A.26.26,0,0,0,130.9,107.79Z"/><path id="路径_14795" data-name="路径 14795" class="cls-2" d="M126.77,104.91s.1,0,.1,0a.17.17,0,0,0-.1-.11c-.06,0-.1,0-.1,0S126.71,104.88,126.77,104.91Z"/><path id="路径_14796" data-name="路径 14796" class="cls-2" d="M122.92,102.52c.06,0,.1,0,.1,0s0-.07-.1-.09-.09,0-.09,0A.14.14,0,0,0,122.92,102.52Z"/><path id="路径_14797" data-name="路径 14797" class="cls-2" d="M119.45,100.52s.09,0,.09,0,0-.06-.09-.08-.09,0-.09,0S119.4,100.51,119.45,100.52Z"/><path id="路径_14798" data-name="路径 14798" class="cls-2" d="M116.39,98.82s.08,0,.08,0,0-.06-.08-.06-.08,0-.08,0S116.35,98.81,116.39,98.82Z"/><path id="路径_14799" data-name="路径 14799" class="cls-2" d="M113.78,97.29s.06,0,.06,0a.06.06,0,0,0-.06-.05s-.07,0-.07,0S113.74,97.29,113.78,97.29Z"/><path id="路径_14800" data-name="路径 14800" class="cls-2" d="M111.6,95.84s.06,0,.06,0a.06.06,0,0,0-.06,0s-.06,0-.06,0S111.57,95.84,111.6,95.84Z"/><path id="路径_14801" data-name="路径 14801" class="cls-2" d="M109.83,94.39s0,0,0,0h0s0,0,0,0,0,0,0,0h0A0,0,0,0,0,109.83,94.39Z"/><path id="路径_14802" data-name="路径 14802" class="cls-2" d="M108.43,92.88s0,0,0,0,0,0,0,0a.05.05,0,0,0-.05,0h0A.07.07,0,0,0,108.43,92.88Z"/><path id="路径_14803" data-name="路径 14803" class="cls-2" d="M107.36,91.29a0,0,0,0,0,0,0s0,0-.05,0a0,0,0,0,0,0,0A0,0,0,0,0,107.36,91.29Z"/><path id="路径_14804" data-name="路径 14804" class="cls-2" d="M106.44,89.61s0,0,0,0a0,0,0,0,0,0,0h0a0,0,0,0,0,0,0s0,.05,0,0Z"/><path id="路径_14805" data-name="路径 14805" class="cls-2" d="M105.65,87.85s0,0,0,0a.05.05,0,0,0,0,0h0a0,0,0,0,0,0,0s0,0,0,0Z"/><path id="路径_14806" data-name="路径 14806" class="cls-2" d="M105.05,86a0,0,0,1,0,0-.08s0,0,0,0S105,86,105.05,86Z"/><path id="路径_14807" data-name="路径 14807" class="cls-2" d="M104.67,84.16s0,0,0,0a0,0,0,0,0,0,0,.05.05,0,0,0,0,0S104.65,84.17,104.67,84.16Z"/><path id="路径_14808" data-name="路径 14808" class="cls-2" d="M104.54,82.27s0,0,0,0,0,0,0,0a0,0,0,0,0,0,0A.07.07,0,0,0,104.54,82.27Z"/><path id="路径_14809" data-name="路径 14809" class="cls-2" d="M104.67,80.37a0,0,0,1,0,0-.08,0,0,0,0,0,0,.08Z"/><path id="路径_14810" data-name="路径 14810" class="cls-2" d="M105.05,78.5a0,0,0,1,0,0-.08s0,0,0,0S105,78.5,105.05,78.5Z"/><path id="路径_14811" data-name="路径 14811" class="cls-2" d="M105.65,76.67s0,0,0,0h0a.05.05,0,0,0,0,0,0,0,0,0,0,0,0h0S105.63,76.68,105.65,76.67Z"/><path id="路径_14812" data-name="路径 14812" class="cls-2" d="M106.44,74.92a0,0,0,1,0,0-.08,0,0,0,0,0,0,.08A0,0,0,0,0,106.44,74.92Z"/><path id="路径_14813" data-name="路径 14813" class="cls-2" d="M107.36,73.24s0,0,0,0a0,0,0,0,0,0,0s0,0,0,0a0,0,0,0,0,0,0Z"/><path id="路径_14814" data-name="路径 14814" class="cls-2" d="M108.43,71.65s0,0,0,0a0,0,0,0,0,0,0h0a0,0,0,0,0,0,0s0,0,0,0Z"/><path id="路径_14815" data-name="路径 14815" class="cls-2" d="M109.83,70.14a.05.05,0,0,0,0,0s0,0,0,0h0s0,0,0,0a0,0,0,0,0,0,0Z"/><path id="路径_14816" data-name="路径 14816" class="cls-2" d="M111.6,68.69a0,0,0,1,0,0-.08s0,0,0,0S111.57,68.69,111.6,68.69Z"/><path id="路径_14817" data-name="路径 14817" class="cls-2" d="M113.78,67.24a.06.06,0,0,0,.06,0s0,0-.06,0-.06,0-.06,0S113.75,67.25,113.78,67.24Z"/><path id="路径_14818" data-name="路径 14818" class="cls-2" d="M116.4,65.72s.06,0,.06,0,0,0-.06,0-.07,0-.07,0S116.36,65.73,116.4,65.72Z"/><path id="路径_14819" data-name="路径 14819" class="cls-2" d="M119.45,64s.07,0,.07-.06,0,0-.07,0-.07,0-.07.06S119.41,64,119.45,64Z"/><path id="路径_14820" data-name="路径 14820" class="cls-2" d="M122.92,62A.1.1,0,0,0,123,62s0,0-.08,0a.1.1,0,0,0-.07.07S122.88,62.05,122.92,62Z"/><path id="路径_14821" data-name="路径 14821" class="cls-2" d="M126.77,59.65s.08-.07.08-.1,0,0-.08,0-.09.07-.09.1S126.72,59.67,126.77,59.65Z"/><path id="路径_14822" data-name="路径 14822" class="cls-2" d="M130.9,56.78a.19.19,0,0,0,.09-.11s0,0-.09,0a.15.15,0,0,0-.08.11S130.86,56.81,130.9,56.78Z"/><path id="路径_14823" data-name="路径 14823" class="cls-2" d="M135.24,53.41a.22.22,0,0,0,.08-.13s0,0-.08,0a.2.2,0,0,0-.09.13S135.19,53.45,135.24,53.41Z"/><path id="路径_14824" data-name="路径 14824" class="cls-2" d="M139.65,49.61a.51.51,0,0,0,.09-.16s0,0-.09,0a.24.24,0,0,0-.09.15S139.6,49.65,139.65,49.61Z"/><path id="路径_14825" data-name="路径 14825" class="cls-2" d="M144,45.52a.42.42,0,0,0,.08-.18c0-.05,0,0-.08,0a.31.31,0,0,0-.09.18S144,45.57,144,45.52Z"/><path id="路径_14826" data-name="路径 14826" class="cls-2" d="M148.25,41.38a.5.5,0,0,0,.08-.2s0,0-.08,0a.4.4,0,0,0-.09.2C148.16,41.45,148.2,41.44,148.25,41.38Z"/><path id="路径_14827" data-name="路径 14827" class="cls-2" d="M152.21,37.53a.62.62,0,0,0,.09-.26c0-.06,0-.05-.09,0a.54.54,0,0,0-.09.25C152.12,37.61,152.16,37.6,152.21,37.53Z"/><path id="路径_14828" data-name="路径 14828" class="cls-2" d="M155.84,34.28a.66.66,0,0,0,.09-.27c0-.07,0-.07-.09,0a.57.57,0,0,0-.08.28C155.76,34.37,155.79,34.36,155.84,34.28Z"/><path id="路径_14829" data-name="路径 14829" class="cls-2" d="M159.08,32a.6.6,0,0,0,.08-.29c0-.08,0-.08-.08,0a.84.84,0,0,0-.08.3C159,32.1,159,32.09,159.08,32Z"/><path id="路径_14830" data-name="路径 14830" class="cls-2" d="M161.9,31.05a.89.89,0,0,0,.08-.31c0-.09,0-.1-.08,0a.79.79,0,0,0-.08.31C161.82,31.13,161.86,31.13,161.9,31.05Z"/><path id="路径_14831" data-name="路径 14831" class="cls-2" d="M164.29,31.65a.71.71,0,0,0,.07-.32c0-.1,0-.11-.07,0a.88.88,0,0,0-.07.32C164.22,31.72,164.25,31.73,164.29,31.65Z"/><path id="路径_14832" data-name="路径 14832" class="cls-2" d="M166.27,34a1.3,1.3,0,0,0,.07-.33c0-.11,0-.13-.07-.05a.88.88,0,0,0-.07.33C166.2,34.05,166.23,34.07,166.27,34Z"/><path id="路径_14833" data-name="路径 14833" class="cls-2" d="M167.86,38.2a1.09,1.09,0,0,0,.06-.36c0-.13,0-.16-.06-.09a1,1,0,0,0-.07.37C167.79,38.24,167.82,38.28,167.86,38.2Z"/><path id="路径_14834" data-name="路径 14834" class="cls-2" d="M169.09,44.22a.93.93,0,0,0,.06-.37c0-.13,0-.18-.06-.11a1.09,1.09,0,0,0-.06.36C169,44.23,169.06,44.29,169.09,44.22Z"/><path id="路径_14835" data-name="路径 14835" class="cls-2" d="M170,51.94a.7.7,0,0,0,.06-.35c0-.14,0-.2-.06-.15a1.13,1.13,0,0,0-.06.36C169.94,51.94,170,52,170,51.94Z"/><path id="路径_14836" data-name="路径 14836" class="cls-2" d="M170.63,61.17a.82.82,0,0,0,.06-.34c0-.15,0-.23-.06-.19a1,1,0,0,0-.06.34C170.57,61.12,170.6,61.2,170.63,61.17Z"/><path id="路径_14837" data-name="路径 14837" class="cls-2" d="M171,71.51a.65.65,0,0,0,.05-.31c0-.15,0-.25-.05-.22a.52.52,0,0,0-.06.3C170.94,71.43,171,71.53,171,71.51Z"/></g></g></g><g id="_3_000" data-name=" 3 000" class="cls-3"><g class="cls-3"><path class="cls-4" d="M16.7,50.81v7.11H10.62V50.81C4.1,49.15.38,44.73,0,38H6.66c.38,4.16,2.75,7.17,7.1,7.17s6.4-3.27,6.4-7.24c0-5-4.16-6.33-8.19-7.42C5.82,28.73,1.86,25.92,1.86,18.88c0-5.57,3.26-10.31,8.76-11.71V0H16.7V7.17c6,.7,9.28,5.24,9.47,11.07H19.52c-.26-3.39-2.18-5.38-5.63-5.38s-5.38,2.88-5.38,6c0,4.61,4,5.31,7.62,6.27,6.52,1.73,10.68,5.44,10.68,12.67C26.81,44.28,23.42,49.72,16.7,50.81Z"/><path class="cls-4" d="M47.87,53.56A15.07,15.07,0,0,1,32.58,38.72h6.65c.26,5.18,3.65,8.76,8.83,8.76a8.67,8.67,0,0,0,8.51-8.7,8.5,8.5,0,0,0-8.83-8.51H45.31V23.61h2.3c4,0,6.92-2.56,6.92-6.59a6.36,6.36,0,0,0-6.34-6.53c-4,0-5.95,2.95-6.34,6.66H35.2c.32-5.57,3.07-9.86,8.38-11.84a15.61,15.61,0,0,1,4.8-.9c7.55,0,12.8,5.64,12.8,13.12,0,4.23-1.34,6.47-4.35,9.22a13.69,13.69,0,0,1,6.4,11.78C63.23,47.48,56.7,53.56,47.87,53.56Z"/><path class="cls-4" d="M72.25,60.79v-4c2.12-.77,2.37-2,2.37-4.16H72.25V44.86h6.66V52C78.91,56.63,77.12,59.84,72.25,60.79Z"/><path class="cls-4" d="M117.5,37.44c0,4.28-.58,7.29-3.46,10.68a15.61,15.61,0,0,1-12,5.44,15.32,15.32,0,0,1-12-5.76c-2.69-3.45-3.26-6.65-3.26-10.88V20.41c0-6.72,3.07-12.22,9.4-14.84a16.61,16.61,0,0,1,6.08-1.22c8.77,0,15.17,7,15.17,15.62ZM110.85,20c0-5.38-2.95-9.54-8.58-9.54S93.5,14.53,93.5,20V37.44c0,5.63,3,10,8.83,10a8.48,8.48,0,0,0,6.4-3c2-2.24,2.12-4.1,2.12-6.92Z"/><path class="cls-4" d="M153,37.44c0,4.28-.58,7.29-3.46,10.68a15.61,15.61,0,0,1-12,5.44,15.32,15.32,0,0,1-12-5.76c-2.69-3.45-3.26-6.65-3.26-10.88V20.41c0-6.72,3.07-12.22,9.4-14.84a16.61,16.61,0,0,1,6.08-1.22c8.77,0,15.17,7,15.17,15.62ZM146.37,20c0-5.38-3-9.54-8.58-9.54S129,14.53,129,20V37.44c0,5.63,2.95,10,8.83,10a8.48,8.48,0,0,0,6.4-3c2-2.24,2.12-4.1,2.12-6.92Z"/><path class="cls-4" d="M188.54,37.44c0,4.28-.58,7.29-3.46,10.68a15.61,15.61,0,0,1-12,5.44,15.32,15.32,0,0,1-12-5.76c-2.69-3.45-3.26-6.65-3.26-10.88V20.41c0-6.72,3.07-12.22,9.4-14.84a16.61,16.61,0,0,1,6.08-1.22c8.77,0,15.17,7,15.17,15.62ZM181.88,20c0-5.38-2.94-9.54-8.57-9.54s-8.77,4.1-8.77,9.54V37.44c0,5.63,3,10,8.83,10a8.48,8.48,0,0,0,6.4-3c2-2.24,2.11-4.1,2.11-6.92Z"/></g></g></g></g></svg>