<svg xmlns="http://www.w3.org/2000/svg" width="250" height="115.178"><defs><clipPath id="a"><path data-name="路径 14037" d="M1058.14 1106.333a41.568 41.568 0 00-58.717-.118l-5.686 5.63 20.232 20.255 5.646-5.59a12.9 12.9 0 11-.035 18.244l-38.417-38.554a41.249 41.249 0 00-29.346-12.2h-.076a41.521 41.521 0 1029.3 70.951l5.753-5.688-20.211-20.275-5.729 5.663a12.9 12.9 0 11.034-18.246l29.691 29.8 8.73 8.757a41.531 41.531 0 1058.836-58.63z" transform="translate(-910.233 -1094)" fill="none"/></clipPath></defs><g data-name="组 4289"><g data-name="组 4255"><path data-name="路径 13666" d="M134.19 44.214l-5.686 5.63 20.232 20.255 5.646-5.59a12.9 12.9 0 11-.035 18.244L115.93 44.2A41.25 41.25 0 0086.583 32h-.076a41.521 41.521 0 1029.3 70.951l5.753-5.688-20.211-20.275-5.729 5.663a12.9 12.9 0 11.034-18.246l29.691 29.8 8.73 8.757a41.531 41.531 0 10.119-58.748z" fill="#20f4ad"/></g><g data-name="组 4258"><g data-name="组 4257" clip-path="url(#a)" transform="translate(45 32)"><g data-name="组 4256" fill="#4444fd"><path data-name="路径 13667" d="M110.277 59.021A4.964 4.964 0 00112.922 55c0-1.461-1.166-1.957-2.645-1.269a4.557 4.557 0 00-2.645 3.719 1.709 1.709 0 002.645 1.571z"/><path data-name="路径 13668" d="M106.253 57.588a3.931 3.931 0 002.634-3.533c0-1.455-1.165-2.142-2.634-1.735a3.536 3.536 0 00-2.634 3.19 2.038 2.038 0 002.634 2.078z"/><path data-name="路径 13669" d="M104.716 53.226a3.573 3.573 0 002.634-3.335 1.99 1.99 0 00-2.634-1.933 3.2 3.2 0 00-2.634 2.982 2.216 2.216 0 002.634 2.286z"/><path data-name="路径 13670" d="M116.496 58.963a5.843 5.843 0 002.4-4.128c0-1.325-1.063-1.592-2.4-.672a5.588 5.588 0 00-2.4 3.968c.002 1.326 1.087 1.738 2.4.832z"/><path data-name="路径 13671" d="M111.503 62.526a4.774 4.774 0 002.4-3.752c0-1.325-1.059-1.739-2.4-1.048a4.445 4.445 0 00-2.4 3.518c.001 1.331 1.089 1.959 2.4 1.282z"/><path data-name="路径 13672" d="M106.728 62.932a3.652 3.652 0 002.388-3.244c0-1.319-1.057-1.933-2.388-1.533a3.323 3.323 0 00-2.389 2.965 1.8 1.8 0 002.389 1.812z"/><path data-name="路径 13673" d="M102.997 60.345a2.889 2.889 0 002.388-2.8 1.992 1.992 0 00-2.388-1.975 2.6 2.6 0 00-2.389 2.5 2.212 2.212 0 002.389 2.275z"/><path data-name="路径 13674" d="M100.954 55.865a2.522 2.522 0 002.377-2.535 2.382 2.382 0 00-4.755.018 2.5 2.5 0 002.378 2.517z"/><path data-name="路径 13675" d="M100.954 50.844a2.522 2.522 0 002.377-2.535 2.382 2.382 0 00-4.755.018 2.5 2.5 0 002.378 2.517z"/><path data-name="路径 13676" d="M102.996 46.139a2.874 2.874 0 002.377-2.788 1.983 1.983 0 00-2.377-1.967 2.587 2.587 0 00-2.377 2.493 2.2 2.2 0 002.377 2.262z"/><path data-name="路径 13677" d="M128.868 37.559a5.708 5.708 0 002.143-3.8c0-1.183-.964-1.417-2.143-.489a5.808 5.808 0 00-2.143 3.856c-.002 1.187.952 1.368 2.143.433z"/><path data-name="路径 13678" d="M128.077 43.169a5.811 5.811 0 002.154-3.843c0-1.189-.968-1.41-2.154-.465a5.89 5.89 0 00-2.154 3.89c.001 1.19.961 1.369 2.154.418z"/><path data-name="路径 13679" d="M125.79 49.501a5.942 5.942 0 002.154-3.891c0-1.19-.966-1.381-2.154-.417a5.961 5.961 0 00-2.154 3.9c.001 1.192.965 1.373 2.154.408z"/><path data-name="路径 13680" d="M122.228 55.944a5.9 5.9 0 002.154-3.891c0-1.189-.961-1.369-2.154-.417a5.822 5.822 0 00-2.154 3.846c0 1.19.968 1.409 2.154.462z"/><path data-name="路径 13681" d="M117.74 61.667a5.431 5.431 0 002.154-3.76c0-1.19-.956-1.412-2.154-.548a5.249 5.249 0 00-2.154 3.648c.001 1.19.972 1.512 2.154.66z"/><path data-name="路径 13682" d="M112.765 65.673a4.511 4.511 0 002.143-3.439c0-1.184-.948-1.522-2.143-.846a4.257 4.257 0 00-2.143 3.266c.001 1.187.971 1.687 2.143 1.019z"/><path data-name="路径 13683" d="M107.79 67.194a3.475 3.475 0 002.143-3c0-1.183-.948-1.7-2.143-1.281a3.207 3.207 0 00-2.143 2.786 1.523 1.523 0 002.143 1.495z"/><path data-name="路径 13684" d="M103.302 65.991a2.629 2.629 0 002.143-2.534 1.765 1.765 0 00-2.143-1.752A2.392 2.392 0 00101.159 64a1.937 1.937 0 002.143 1.991z"/><path data-name="路径 13685" d="M99.74 62.537a2.083 2.083 0 002.132-2.123 2.189 2.189 0 00-2.132-2.14 1.894 1.894 0 00-2.132 1.885 2.408 2.408 0 002.132 2.378z"/><path data-name="路径 13686" d="M97.454 57.776a1.816 1.816 0 002.132-1.867 2.545 2.545 0 00-2.132-2.4 1.661 1.661 0 00-2.132 1.634 2.789 2.789 0 002.132 2.633z"/><path data-name="路径 13687" d="M96.666 52.632a1.727 1.727 0 002.12-1.77 2.667 2.667 0 00-2.12-2.471 1.586 1.586 0 00-2.121 1.542 2.916 2.916 0 002.121 2.699z"/><path data-name="路径 13688" d="M97.454 47.814a1.806 1.806 0 002.121-1.857 2.532 2.532 0 00-2.121-2.384 1.652 1.652 0 00-2.12 1.626 2.773 2.773 0 002.12 2.615z"/><path data-name="路径 13689" d="M99.74 43.6a2.071 2.071 0 002.121-2.111 2.177 2.177 0 00-2.121-2.13 1.885 1.885 0 00-2.12 1.876 2.394 2.394 0 002.12 2.365z"/><path data-name="路径 13690" d="M103.302 39.918a2.6 2.6 0 002.12-2.506 1.748 1.748 0 00-2.12-1.735 2.368 2.368 0 00-2.121 2.272 1.916 1.916 0 002.121 1.969z"/><path data-name="路径 13691" d="M107.791 36.548a3.438 3.438 0 002.12-2.972c0-1.171-.939-1.685-2.12-1.269a3.174 3.174 0 00-2.121 2.758 1.506 1.506 0 002.121 1.483z"/><path data-name="路径 13692" d="M112.766 33.455a4.462 4.462 0 002.12-3.4c0-1.171-.938-1.507-2.12-.838a4.213 4.213 0 00-2.121 3.233c.001 1.168.96 1.661 2.121 1.005z"/><path data-name="路径 13693" d="M117.74 31.021a5.374 5.374 0 002.132-3.721c0-1.177-.947-1.4-2.132-.543a5.2 5.2 0 00-2.132 3.611c.001 1.178.963 1.496 2.132.653z"/><path data-name="路径 13694" d="M122.228 29.871a5.835 5.835 0 002.132-3.851c0-1.177-.951-1.355-2.132-.412a5.762 5.762 0 00-2.132 3.807c.002 1.177.959 1.39 2.132.456z"/><path data-name="路径 13695" d="M125.79 30.563a5.911 5.911 0 002.143-3.871c0-1.184-.96-1.374-2.143-.415a5.929 5.929 0 00-2.143 3.882c.001 1.184.959 1.365 2.143.404z"/><path data-name="路径 13696" d="M128.077 33.208a5.778 5.778 0 002.143-3.823c0-1.183-.963-1.4-2.143-.463a5.86 5.86 0 00-2.143 3.87c.001 1.183.956 1.361 2.143.416z"/><path data-name="路径 13697" d="M132.89 34.279a4.567 4.567 0 001.9-3.2c0-1.048-.856-1.338-1.9-.6a4.714 4.714 0 00-1.9 3.288c.004 1.054.846 1.261 1.9.512z"/><path data-name="路径 13698" d="M132.258 39.739a4.66 4.66 0 001.9-3.229c0-1.048-.855-1.321-1.9-.566a4.8 4.8 0 00-1.9 3.314c.003 1.048.845 1.245 1.9.481z"/><path data-name="路径 13699" d="M130.4 45.814a4.9 4.9 0 001.9-3.313c0-1.048-.854-1.279-1.9-.482a5.01 5.01 0 00-1.9 3.377c.004 1.051.848 1.223 1.9.418z"/><path data-name="路径 13700" d="M127.435 52.227a5.165 5.165 0 001.9-3.4c0-1.048-.851-1.231-1.9-.392a5.216 5.216 0 00-1.9 3.432c.004 1.046.85 1.203 1.9.36z"/><path data-name="路径 13701" d="M123.548 58.592a5.241 5.241 0 001.9-3.437c0-1.048-.848-1.205-1.9-.358a5.21 5.21 0 00-1.9 3.418c.004 1.046.854 1.223 1.9.377z"/><path data-name="路径 13702" d="M118.984 64.322a4.928 4.928 0 001.9-3.353c0-1.048-.844-1.231-1.9-.442a4.807 4.807 0 00-1.9 3.28c.004 1.048.858 1.296 1.9.515z"/><path data-name="路径 13703" d="M114.029 68.671a4.2 4.2 0 001.9-3.119c0-1.048-.841-1.322-1.9-.676a4.016 4.016 0 00-1.9 2.994c.003 1.048.86 1.434 1.9.801z"/><path data-name="路径 13704" d="M108.994 70.948a3.285 3.285 0 001.9-2.752c0-1.048-.841-1.473-1.9-1.043a3.072 3.072 0 00-1.9 2.588 1.274 1.274 0 001.9 1.207z"/><path data-name="路径 13705" d="M104.196 70.784a2.438 2.438 0 001.886-2.3 1.486 1.486 0 00-1.886-1.469 2.247 2.247 0 00-1.886 2.121 1.609 1.609 0 001.886 1.648z"/><path data-name="路径 13706" d="M99.937 68.347a1.855 1.855 0 001.886-1.886 1.922 1.922 0 00-1.886-1.886 1.705 1.705 0 00-1.886 1.7 2.092 2.092 0 001.886 2.072z"/><path data-name="路径 13707" d="M96.484 64.175a1.5 1.5 0 001.875-1.536 2.4 2.4 0 00-1.875-2.214 1.4 1.4 0 00-1.875 1.358 2.6 2.6 0 001.875 2.392z"/><path data-name="路径 13708" d="M94.053 59.048a1.33 1.33 0 001.875-1.307 2.806 2.806 0 00-1.875-2.443c-1.044-.363-1.875.1-1.875 1.14a3.012 3.012 0 001.875 2.61z"/><path data-name="路径 13709" d="M92.799 53.691a1.26 1.26 0 001.875-1.194 3.032 3.032 0 00-1.875-2.556c-1.044-.424-1.874 0-1.875 1.034a3.239 3.239 0 001.875 2.716z"/><path data-name="路径 13710" d="M92.799 48.643a1.26 1.26 0 001.875-1.194 3.032 3.032 0 00-1.875-2.556c-1.044-.424-1.874 0-1.875 1.034a3.239 3.239 0 001.875 2.716z"/><path data-name="路径 13711" d="M94.053 44.223a1.323 1.323 0 001.864-1.3 2.79 2.79 0 00-1.864-2.429c-1.038-.361-1.863.1-1.864 1.134a3 3 0 001.864 2.595z"/><path data-name="路径 13712" d="M96.484 40.506a1.5 1.5 0 001.864-1.526 2.386 2.386 0 00-1.864-2.2 1.388 1.388 0 00-1.864 1.351 2.58 2.58 0 001.864 2.375z"/><path data-name="路径 13713" d="M99.937 37.311a1.833 1.833 0 001.864-1.863 1.9 1.9 0 00-1.864-1.865 1.686 1.686 0 00-1.864 1.68 2.066 2.066 0 001.864 2.048z"/><path data-name="路径 13714" d="M104.197 34.343a2.407 2.407 0 001.864-2.276 1.469 1.469 0 00-1.864-1.452 2.221 2.221 0 00-1.864 2.1 1.588 1.588 0 001.864 1.628z"/><path data-name="路径 13715" d="M108.994 31.388a3.245 3.245 0 001.875-2.719c0-1.036-.831-1.457-1.875-1.031a3.036 3.036 0 00-1.875 2.559 1.258 1.258 0 001.875 1.191z"/><path data-name="路径 13716" d="M114.029 28.479a4.154 4.154 0 001.875-3.081c0-1.036-.831-1.307-1.875-.669a3.97 3.97 0 00-1.875 2.959c.001 1.036.847 1.423 1.875.791z"/><path data-name="路径 13717" d="M118.984 26.021a4.867 4.867 0 001.875-3.313c0-1.035-.834-1.217-1.875-.437a4.751 4.751 0 00-1.875 3.242c.001 1.035.845 1.28 1.875.508z"/><path data-name="路径 13718" d="M123.549 24.587a5.178 5.178 0 001.875-3.4c0-1.035-.838-1.191-1.875-.353a5.147 5.147 0 00-1.875 3.378c.001 1.038.837 1.21 1.875.375z"/><path data-name="路径 13719" d="M127.436 24.663a5.136 5.136 0 001.886-3.383c0-1.042-.847-1.224-1.886-.389a5.184 5.184 0 00-1.886 3.411c0 1.042.841 1.199 1.886.361z"/><path data-name="路径 13720" d="M130.401 26.413a4.875 4.875 0 001.886-3.293c0-1.042-.849-1.271-1.886-.479a4.981 4.981 0 00-1.886 3.357c0 1.041.839 1.215 1.886.415z"/><path data-name="路径 13721" d="M132.258 29.729a4.661 4.661 0 001.9-3.229c0-1.048-.855-1.321-1.9-.566a4.8 4.8 0 00-1.9 3.314c.003 1.048.845 1.245 1.9.481z"/><path data-name="路径 13722" d="M136.915 31.4a3.362 3.362 0 001.64-2.549c0-.906-.741-1.258-1.64-.732a3.507 3.507 0 00-1.641 2.647c0 .906.729 1.168 1.641.634z"/><path data-name="路径 13723" d="M136.387 36.735a3.447 3.447 0 001.641-2.582c0-.906-.74-1.242-1.641-.7a3.59 3.59 0 00-1.641 2.677c.001.907.731 1.157 1.641.605z"/><path data-name="路径 13724" d="M134.827 42.52a3.685 3.685 0 001.641-2.673c0-.906-.74-1.2-1.641-.609a3.818 3.818 0 00-1.641 2.756c.001.907.728 1.123 1.641.526z"/><path data-name="路径 13725" d="M132.303 48.639a4.033 4.033 0 001.641-2.8c0-.906-.739-1.138-1.641-.485a4.139 4.139 0 00-1.641 2.86c.001.91.73 1.085 1.641.425z"/><path data-name="路径 13726" d="M128.924 54.956a4.376 4.376 0 001.641-2.913c0-.906-.737-1.079-1.641-.369a4.435 4.435 0 00-1.64 2.948c.001.907.732 1.049 1.64.334z"/><path data-name="路径 13727" d="M124.838 61.211a4.543 4.543 0 001.641-2.972c0-.906-.734-1.045-1.641-.309a4.538 4.538 0 00-1.641 2.97c.003.906.741 1.046 1.641.311z"/><path data-name="路径 13728" d="M120.227 66.947a4.364 4.364 0 001.641-2.928c0-.906-.731-1.055-1.641-.354a4.29 4.29 0 00-1.641 2.884c.001.906.739 1.094 1.641.398z"/><path data-name="路径 13729" d="M115.29 71.549a3.809 3.809 0 001.641-2.753c0-.906-.729-1.124-1.641-.528a3.679 3.679 0 00-1.641 2.669c.001.907.74 1.2 1.641.612z"/><path data-name="路径 13730" d="M110.245 74.395a3.029 3.029 0 001.641-2.458c0-.906-.728-1.246-1.641-.823a2.871 2.871 0 00-1.641 2.342c-.003.906.741 1.356 1.641.939z"/><path data-name="路径 13731" d="M105.302 75.074a2.264 2.264 0 001.641-2.085 1.225 1.225 0 00-1.641-1.2 2.113 2.113 0 00-1.641 1.949 1.308 1.308 0 001.641 1.336z"/><path data-name="路径 13732" d="M100.691 73.52a1.671 1.671 0 001.63-1.683 1.591 1.591 0 00-1.63-1.576 1.553 1.553 0 00-1.63 1.543 1.713 1.713 0 001.63 1.716z"/><path data-name="路径 13733" d="M96.606 70.07a1.309 1.309 0 001.63-1.334 2.08 2.08 0 00-1.63-1.924 1.226 1.226 0 00-1.63 1.2 2.227 2.227 0 001.63 2.058z"/><path data-name="路径 13734" d="M93.227 65.289a1.11 1.11 0 001.63-1.061 2.579 2.579 0 00-1.63-2.2c-.906-.35-1.629.038-1.629.938a2.736 2.736 0 001.629 2.323z"/><path data-name="路径 13735" d="M90.703 59.796c.893.445 1.629.026 1.63-.874a2.985 2.985 0 00-1.63-2.385c-.907-.452-1.629-.137-1.63.763a3.138 3.138 0 001.63 2.496z"/><path data-name="路径 13736" d="M89.143 54.155c.888.5 1.618.132 1.618-.762a3.216 3.216 0 00-1.618-2.474c-.9-.5-1.618-.231-1.618.662a3.361 3.361 0 001.618 2.574z"/><path data-name="路径 13737" d="M88.615 48.834c.888.515 1.618.165 1.618-.729a3.3 3.3 0 00-1.618-2.508c-.9-.522-1.618-.262-1.618.632a3.442 3.442 0 001.618 2.605z"/><path data-name="路径 13738" d="M89.143 44.113c.888.5 1.618.132 1.618-.762a3.216 3.216 0 00-1.618-2.474c-.9-.5-1.618-.231-1.618.662a3.362 3.362 0 001.618 2.574z"/><path data-name="路径 13739" d="M90.703 40.14c.887.442 1.618.026 1.619-.868a2.966 2.966 0 00-1.619-2.369c-.9-.448-1.618-.135-1.618.759a3.117 3.117 0 001.618 2.478z"/><path data-name="路径 13740" d="M93.227 36.887a1.1 1.1 0 001.618-1.054 2.561 2.561 0 00-1.618-2.183c-.9-.348-1.618.038-1.618.932a2.717 2.717 0 001.618 2.305z"/><path data-name="路径 13741" d="M96.605 34.17a1.3 1.3 0 001.619-1.325 2.066 2.066 0 00-1.619-1.911 1.218 1.218 0 00-1.618 1.192 2.211 2.211 0 001.618 2.044z"/><path data-name="路径 13742" d="M100.69 31.681a1.659 1.659 0 001.618-1.671 1.58 1.58 0 00-1.618-1.566 1.543 1.543 0 00-1.618 1.533 1.7 1.7 0 001.618 1.704z"/><path data-name="路径 13743" d="M105.302 29.116a2.232 2.232 0 001.618-2.056 1.209 1.209 0 00-1.618-1.181 2.085 2.085 0 00-1.618 1.923 1.29 1.29 0 001.618 1.314z"/><path data-name="路径 13744" d="M110.241 26.338a2.986 2.986 0 001.618-2.424c0-.894-.718-1.23-1.618-.812a2.833 2.833 0 00-1.619 2.311c.001.893.731 1.336 1.619.925z"/><path data-name="路径 13745" d="M115.289 23.491a3.755 3.755 0 001.618-2.716c0-.894-.718-1.109-1.618-.521a3.629 3.629 0 00-1.618 2.634c.001.894.73 1.183 1.618.603z"/><path data-name="路径 13746" d="M120.227 21a4.333 4.333 0 001.63-2.908c0-.9-.726-1.049-1.63-.351a4.261 4.261 0 00-1.629 2.864c.001.9.732 1.087 1.629.395z"/><path data-name="路径 13747" d="M124.84 19.376a4.512 4.512 0 001.63-2.952c0-.9-.729-1.038-1.63-.307a4.509 4.509 0 00-1.63 2.95c-.001.895.73 1.035 1.63.309z"/><path data-name="路径 13748" d="M128.924 19.052a4.346 4.346 0 001.63-2.893c0-.9-.732-1.072-1.63-.366a4.406 4.406 0 00-1.629 2.928c.001.9.727 1.041 1.629.331z"/><path data-name="路径 13749" d="M132.303 20.237a4.006 4.006 0 001.63-2.777c0-.9-.734-1.13-1.63-.482a4.111 4.111 0 00-1.63 2.841c.001.9.725 1.074 1.63.418z"/><path data-name="路径 13750" d="M134.827 22.875a3.685 3.685 0 001.641-2.672c0-.906-.74-1.2-1.641-.609a3.818 3.818 0 00-1.641 2.756c.001.906.728 1.122 1.641.525z"/><path data-name="路径 13751" d="M136.387 26.693a3.447 3.447 0 001.641-2.582c0-.906-.74-1.242-1.641-.7a3.59 3.59 0 00-1.641 2.677c.001.907.731 1.156 1.641.605z"/><path data-name="路径 13752" d="M140.94 29.112a2.294 2.294 0 001.384-1.92.912.912 0 00-1.384-.848 2.407 2.407 0 00-1.384 2.007c.001.764.615 1.083 1.384.761z"/><path data-name="路径 13753" d="M140.487 34.348a2.374 2.374 0 001.4-1.964c0-.771-.629-1.162-1.4-.826a2.49 2.49 0 00-1.4 2.051c.006.77.625 1.08 1.4.739z"/><path data-name="路径 13754" d="M139.143 39.847a2.561 2.561 0 001.4-2.047c0-.771-.629-1.123-1.4-.743a2.673 2.673 0 00-1.4 2.129c.006.77.62 1.042 1.4.661z"/><path data-name="路径 13755" d="M136.951 45.584a2.863 2.863 0 001.4-2.172c0-.77-.629-1.064-1.4-.618a2.97 2.97 0 00-1.4 2.243c.005.771.625 1 1.4.547z"/><path data-name="路径 13756" d="M133.983 51.553a3.248 3.248 0 001.4-2.316c0-.77-.628-1-1.4-.474a3.336 3.336 0 00-1.4 2.372c.006.77.625.945 1.4.418z"/><path data-name="路径 13757" d="M130.332 57.697a3.625 3.625 0 001.4-2.445c0-.77-.627-.933-1.4-.345a3.681 3.681 0 00-1.4 2.479c.006.771.627.903 1.4.311z"/><path data-name="路径 13758" d="M126.117 63.825a3.85 3.85 0 001.395-2.521c0-.771-.625-.893-1.395-.269a3.86 3.86 0 00-1.4 2.528c.005.77.628.887 1.4.262z"/><path data-name="路径 13759" d="M121.468 69.557a3.78 3.78 0 001.4-2.508c0-.77-.623-.892-1.4-.282a3.741 3.741 0 00-1.4 2.484c.009.77.634.913 1.4.306z"/><path data-name="路径 13760" d="M116.547 74.352a3.349 3.349 0 001.384-2.365c0-.764-.616-.933-1.384-.4a3.265 3.265 0 00-1.384 2.313c-.004.758.623.974 1.384.452z"/><path data-name="路径 13761" d="M111.501 77.649a2.715 2.715 0 001.384-2.137c0-.764-.615-1.028-1.384-.631a2.607 2.607 0 00-1.384 2.059c.001.765.624 1.101 1.384.709z"/><path data-name="路径 13762" d="M106.496 79.008a2.047 2.047 0 001.384-1.831.98.98 0 00-1.384-.937 1.937 1.937 0 00-1.384 1.737 1.032 1.032 0 001.384 1.031z"/><path data-name="路径 13763" d="M101.692 78.251a1.5 1.5 0 001.384-1.493 1.276 1.276 0 00-1.384-1.275 1.414 1.414 0 00-1.384 1.393 1.357 1.357 0 001.384 1.375z"/><path data-name="路径 13764" d="M97.244 75.528a1.146 1.146 0 001.384-1.17 1.7 1.7 0 00-1.384-1.6 1.082 1.082 0 00-1.384 1.072 1.807 1.807 0 001.384 1.698z"/><path data-name="路径 13765" d="M93.294 71.239a.942.942 0 001.384-.9 2.191 2.191 0 00-1.384-1.87c-.769-.295-1.383.044-1.384.808a2.305 2.305 0 001.384 1.962z"/><path data-name="路径 13766" d="M89.971 65.901c.754.4 1.372.072 1.373-.686a2.626 2.626 0 00-1.373-2.059c-.763-.4-1.372-.148-1.373.61a2.734 2.734 0 001.373 2.135z"/><path data-name="路径 13767" d="M87.381 60.068c.754.47 1.372.209 1.373-.549a2.974 2.974 0 00-1.373-2.2c-.763-.475-1.372-.273-1.373.485a3.071 3.071 0 001.373 2.264z"/><path data-name="路径 13768" d="M85.606 54.181c.754.513 1.372.291 1.373-.468a3.193 3.193 0 00-1.373-2.278c-.762-.518-1.372-.345-1.373.413a3.279 3.279 0 001.373 2.333z"/><path data-name="路径 13769" d="M84.704 48.583c.755.531 1.372.327 1.373-.431a3.3 3.3 0 00-1.373-2.314c-.762-.536-1.372-.377-1.373.382a3.376 3.376 0 001.373 2.363z"/><path data-name="路径 13770" d="M84.7 43.523c.749.527 1.361.324 1.361-.428a3.269 3.269 0 00-1.361-2.3c-.756-.532-1.361-.373-1.362.379a3.349 3.349 0 001.362 2.349z"/><path data-name="路径 13771" d="M85.606 39.178c.748.508 1.361.288 1.362-.464a3.168 3.168 0 00-1.362-2.26c-.756-.513-1.361-.341-1.362.411a3.252 3.252 0 001.362 2.313z"/><path data-name="路径 13772" d="M87.381 35.608c.748.466 1.361.208 1.361-.544a2.948 2.948 0 00-1.361-2.179c-.756-.472-1.361-.271-1.362.481a3.044 3.044 0 001.362 2.242z"/><path data-name="路径 13773" d="M89.972 32.77c.748.394 1.361.072 1.362-.68a2.605 2.605 0 00-1.362-2.043c-.757-.4-1.361-.146-1.362.606a2.71 2.71 0 001.362 2.117z"/><path data-name="路径 13774" d="M93.295 30.49a.926.926 0 001.362-.883 2.157 2.157 0 00-1.362-1.841c-.757-.29-1.361.044-1.362.8a2.267 2.267 0 001.362 1.924z"/><path data-name="路径 13775" d="M97.244 28.477a1.127 1.127 0 001.362-1.151 1.676 1.676 0 00-1.362-1.573 1.065 1.065 0 00-1.362 1.056 1.776 1.776 0 001.362 1.668z"/><path data-name="路径 13776" d="M101.692 26.414a1.48 1.48 0 001.362-1.469 1.256 1.256 0 00-1.362-1.255 1.392 1.392 0 00-1.362 1.371 1.335 1.335 0 001.362 1.353z"/><path data-name="路径 13777" d="M106.496 24.048a2.013 2.013 0 001.361-1.8.964.964 0 00-1.361-.922 1.906 1.906 0 00-1.362 1.71 1.014 1.014 0 001.362 1.012z"/><path data-name="路径 13778" d="M111.501 21.335a2.671 2.671 0 001.361-2.1c0-.752-.6-1.012-1.361-.621a2.566 2.566 0 00-1.362 2.027c-.001.749.614 1.076 1.362.694z"/><path data-name="路径 13779" d="M116.547 18.498a3.32 3.32 0 001.373-2.346c0-.758-.61-.926-1.373-.4a3.238 3.238 0 00-1.373 2.294c.001.759.618.973 1.373.452z"/><path data-name="路径 13780" d="M121.472 15.943a3.72 3.72 0 001.373-2.468c0-.758-.613-.878-1.373-.278a3.684 3.684 0 00-1.373 2.445c.001.758.612.898 1.373.301z"/><path data-name="路径 13781" d="M126.119 14.181a3.788 3.788 0 001.373-2.481c0-.758-.615-.878-1.373-.265a3.8 3.8 0 00-1.373 2.488c-.001.758.612.873 1.373.258z"/><path data-name="路径 13782" d="M130.332 13.62a3.566 3.566 0 001.373-2.406c0-.758-.617-.918-1.373-.339a3.621 3.621 0 00-1.373 2.439c.001.758.612.884 1.373.306z"/><path data-name="路径 13783" d="M133.983 14.456a3.2 3.2 0 001.373-2.279c0-.758-.618-.98-1.373-.467a3.283 3.283 0 00-1.373 2.333c0 .759.611.932 1.373.413z"/><path data-name="路径 13784" d="M136.952 16.671a2.842 2.842 0 001.384-2.155c0-.764-.624-1.055-1.384-.613a2.945 2.945 0 00-1.384 2.225c.001.765.615.991 1.384.543z"/><path data-name="路径 13785" d="M139.143 20.041a2.541 2.541 0 001.384-2.032c0-.764-.624-1.113-1.384-.736a2.653 2.653 0 00-1.384 2.111c.001.757.615 1.034 1.384.657z"/><path data-name="路径 13786" d="M140.487 24.275a2.356 2.356 0 001.384-1.949c0-.764-.624-1.152-1.384-.819a2.47 2.47 0 00-1.384 2.034c.001.764.615 1.072 1.384.734z"/><path data-name="路径 13787" d="M144.964 27.562a1.473 1.473 0 001.138-1.362.9.9 0 00-1.138-.915 1.545 1.545 0 00-1.139 1.427.862.862 0 001.139.85z"/><path data-name="路径 13788" d="M144.571 32.692a1.512 1.512 0 001.138-1.385.884.884 0 00-1.138-.892 1.584 1.584 0 00-1.138 1.45.845.845 0 001.138.827z"/><path data-name="路径 13789" d="M143.389 37.929a1.631 1.631 0 001.138-1.452.832.832 0 00-1.138-.824 1.705 1.705 0 00-1.138 1.515.8.8 0 001.138.761z"/><path data-name="路径 13790" d="M141.455 43.275a1.838 1.838 0 001.138-1.558.763.763 0 00-1.138-.718 1.916 1.916 0 00-1.138 1.619c.001.627.506.907 1.138.657z"/><path data-name="路径 13791" d="M138.815 48.782a2.136 2.136 0 001.138-1.693c0-.629-.513-.9-1.138-.584a2.211 2.211 0 00-1.138 1.746c.001.626.506.854 1.138.531z"/><path data-name="路径 13792" d="M135.533 54.508a2.5 2.5 0 001.138-1.837c0-.629-.512-.836-1.138-.44a2.566 2.566 0 00-1.138 1.88c-.004.629.506.797 1.138.397z"/><path data-name="路径 13793" d="M131.694 60.44a2.86 2.86 0 001.138-1.965c0-.629-.511-.775-1.138-.312a2.908 2.908 0 00-1.138 1.993c-.002.633.505.75 1.138.284z"/><path data-name="路径 13794" d="M127.383 66.424a3.109 3.109 0 001.138-2.047c0-.629-.51-.734-1.138-.229a3.127 3.127 0 00-1.138 2.057c0 .628.509.728 1.138.219z"/><path data-name="路径 13795" d="M122.715 72.137a3.126 3.126 0 001.138-2.057c0-.629-.509-.725-1.138-.22a3.109 3.109 0 00-1.138 2.047c.001.628.51.734 1.138.23z"/><path data-name="路径 13796" d="M117.803 77.098a2.857 2.857 0 001.138-1.977c0-.629-.507-.756-1.138-.3a2.806 2.806 0 00-1.139 1.946c.001.629.512.784 1.139.331z"/><path data-name="路径 13797" d="M112.766 80.772a2.366 2.366 0 001.139-1.807c0-.629-.506-.827-1.139-.47a2.3 2.3 0 00-1.138 1.758c0 .629.512.873 1.138.519z"/><path data-name="路径 13798" d="M107.727 82.703a1.807 1.807 0 001.139-1.567c0-.629-.507-.93-1.139-.71a1.731 1.731 0 00-1.138 1.5.8.8 0 001.138.777z"/><path data-name="路径 13799" d="M102.815 82.629a1.311 1.311 0 001.127-1.275.976.976 0 00-1.127-.979 1.246 1.246 0 00-1.127 1.208 1.026 1.026 0 001.127 1.046z"/><path data-name="路径 13800" d="M98.146 80.598a.978.978 0 001.127-1 1.314 1.314 0 00-1.127-1.256.932.932 0 00-1.127.933 1.381 1.381 0 001.127 1.323z"/><path data-name="路径 13801" d="M93.838 76.869a.782.782 0 001.127-.753 1.734 1.734 0 00-1.127-1.5c-.626-.224-1.127.071-1.127.693a1.81 1.81 0 001.127 1.56z"/><path data-name="路径 13802" d="M89.996 71.877c.619.326 1.127.064 1.127-.559a2.161 2.161 0 00-1.127-1.7c-.626-.33-1.127-.115-1.127.508a2.234 2.234 0 001.127 1.751z"/><path data-name="路径 13803" d="M86.715 66.09c.614.4 1.116.2 1.116-.415a2.493 2.493 0 00-1.116-1.817c-.619-.4-1.115-.241-1.116.376a2.555 2.555 0 001.116 1.856z"/><path data-name="路径 13804" d="M84.075 59.973c.614.442 1.116.289 1.116-.328a2.741 2.741 0 00-1.116-1.9c-.619-.445-1.116-.319-1.116.3a2.792 2.792 0 001.116 1.928z"/><path data-name="路径 13805" d="M82.141 53.87c.615.468 1.116.339 1.116-.278a2.89 2.89 0 00-1.116-1.954c-.618-.471-1.115-.362-1.116.255a2.926 2.926 0 001.116 1.977z"/><path data-name="路径 13806" d="M80.962 48.046c.615.48 1.116.363 1.116-.254a2.962 2.962 0 00-1.116-1.979c-.618-.482-1.116-.381-1.116.236a2.993 2.993 0 001.116 1.997z"/><path data-name="路径 13807" d="M80.565 42.698c.615.484 1.115.37 1.116-.247a2.983 2.983 0 00-1.116-1.985c-.618-.486-1.116-.386-1.116.23a3.01 3.01 0 001.116 2.002z"/><path data-name="路径 13808" d="M80.962 37.972c.615.48 1.116.363 1.116-.254a2.962 2.962 0 00-1.116-1.979c-.618-.482-1.116-.381-1.116.236a2.993 2.993 0 001.116 1.997z"/><path data-name="路径 13809" d="M82.141 33.97c.615.468 1.116.339 1.116-.278a2.89 2.89 0 00-1.116-1.954c-.618-.47-1.115-.362-1.116.255a2.926 2.926 0 001.116 1.977z"/><path data-name="路径 13810" d="M84.075 30.726c.608.438 1.1.286 1.1-.324a2.713 2.713 0 00-1.1-1.886c-.613-.441-1.1-.316-1.105.294a2.762 2.762 0 001.105 1.916z"/><path data-name="路径 13811" d="M86.715 28.227c.607.392 1.1.2 1.1-.411a2.469 2.469 0 00-1.1-1.8c-.613-.4-1.1-.238-1.105.372a2.53 2.53 0 001.105 1.839z"/><path data-name="路径 13812" d="M89.997 26.318c.608.32 1.1.063 1.105-.547a2.119 2.119 0 00-1.105-1.663c-.614-.323-1.1-.112-1.105.5a2.19 2.19 0 001.105 1.71z"/><path data-name="路径 13813" d="M93.839 24.747a.766.766 0 001.105-.738 1.7 1.7 0 00-1.105-1.472c-.613-.219-1.1.07-1.1.68a1.773 1.773 0 001.1 1.53z"/><path data-name="路径 13814" d="M98.147 23.198a.958.958 0 001.1-.978 1.289 1.289 0 00-1.1-1.232.914.914 0 00-1.1.915 1.352 1.352 0 001.1 1.295z"/><path data-name="路径 13815" d="M102.812 21.371a1.3 1.3 0 001.116-1.262.967.967 0 00-1.116-.97 1.234 1.234 0 00-1.116 1.2 1.015 1.015 0 001.116 1.032z"/><path data-name="路径 13816" d="M107.728 19.074a1.77 1.77 0 001.116-1.535c0-.616-.5-.913-1.116-.7a1.7 1.7 0 00-1.116 1.476.78.78 0 001.116.759z"/><path data-name="路径 13817" d="M112.765 16.351a2.318 2.318 0 001.116-1.771c0-.617-.5-.812-1.116-.461a2.252 2.252 0 00-1.116 1.724c.001.616.503.851 1.116.508z"/><path data-name="路径 13818" d="M117.802 13.469a2.8 2.8 0 001.116-1.937c0-.617-.5-.742-1.116-.294a2.75 2.75 0 00-1.116 1.908c0 .616.502.767 1.116.323z"/><path data-name="路径 13819" d="M122.715 10.867a3.063 3.063 0 001.116-2.016c0-.616-.5-.711-1.116-.216a3.048 3.048 0 00-1.116 2.006c.005.616.505.72 1.116.226z"/><path data-name="路径 13820" d="M127.383 9.022a3.05 3.05 0 001.116-2.007c0-.616-.5-.719-1.116-.225a3.065 3.065 0 00-1.116 2.017c.001.616.499.711 1.116.215z"/><path data-name="路径 13821" d="M131.691 8.317a2.808 2.808 0 001.116-1.927c0-.616-.5-.759-1.116-.305a2.851 2.851 0 00-1.116 1.954c.001.612.497.734 1.116.278z"/><path data-name="路径 13822" d="M135.533 8.963a2.476 2.476 0 001.127-1.819c0-.623-.508-.827-1.127-.435a2.54 2.54 0 00-1.127 1.861c.001.619.502.786 1.127.393z"/><path data-name="路径 13823" d="M138.82 10.918a2.115 2.115 0 001.127-1.676c0-.623-.508-.894-1.127-.578a2.188 2.188 0 00-1.127 1.729c-.004.622.497.845 1.127.525z"/><path data-name="路径 13824" d="M141.455 14.027a1.821 1.821 0 001.127-1.544.756.756 0 00-1.127-.711 1.9 1.9 0 00-1.127 1.6c.001.625.502.902 1.127.655z"/><path data-name="路径 13825" d="M143.388 18.018a1.615 1.615 0 001.127-1.438.824.824 0 00-1.127-.816 1.689 1.689 0 00-1.127 1.5.791.791 0 001.127.754z"/><path data-name="路径 13826" d="M144.571 22.618a1.512 1.512 0 001.138-1.385.884.884 0 00-1.138-.892 1.584 1.584 0 00-1.138 1.45.845.845 0 001.138.827z"/><path data-name="路径 13827" d="M148.993 26.817a.882.882 0 100-1.763.918.918 0 00-.882.916.849.849 0 00.882.847z"/><path data-name="路径 13828" d="M148.637 31.867a.9.9 0 00.882-.892.863.863 0 00-.882-.872.939.939 0 00-.882.933.83.83 0 00.882.831z"/><path data-name="路径 13829" d="M147.587 36.876a.966.966 0 00.882-.94.809.809 0 00-.882-.823 1 1 0 00-.882.981.778.778 0 00.882.782z"/><path data-name="路径 13830" d="M145.858 41.858a1.082 1.082 0 00.882-1.02.731.731 0 00-.882-.743 1.124 1.124 0 00-.882 1.06.7.7 0 00.882.703z"/><path data-name="路径 13831" d="M143.485 46.889a1.262 1.262 0 00.882-1.126.644.644 0 00-.882-.637 1.306 1.306 0 00-.882 1.164.624.624 0 00.882.599z"/><path data-name="路径 13832" d="M140.515 52.076a1.511 1.511 0 00.882-1.251c0-.487-.4-.725-.882-.513a1.559 1.559 0 00-.882 1.285c0 .488.393.693.882.479z"/><path data-name="路径 13833" d="M137.004 57.509a1.818 1.818 0 00.882-1.38c0-.487-.4-.665-.882-.384a1.86 1.86 0 00-.882 1.408c0 .489.393.64.882.356z"/><path data-name="路径 13834" d="M133.022 63.202a2.132 2.132 0 00.882-1.495c0-.487-.4-.612-.882-.269a2.167 2.167 0 00-.882 1.515c0 .487.393.594.882.249z"/><path data-name="路径 13835" d="M128.645 69.03a2.371 2.371 0 00.882-1.574c0-.487-.4-.574-.882-.189a2.389 2.389 0 00-.882 1.583c.001.487.394.565.882.18z"/><path data-name="路径 13836" d="M123.955 74.704a2.438 2.438 0 00.882-1.6c0-.487-.394-.561-.882-.166a2.434 2.434 0 00-.882 1.594c.004.49.399.566.882.172z"/><path data-name="路径 13837" d="M119.056 79.788a2.279 2.279 0 00.882-1.552c0-.487-.393-.578-.882-.212a2.255 2.255 0 00-.882 1.536c0 .487.396.598.882.228z"/><path data-name="路径 13838" d="M114.03 83.774a1.932 1.932 0 00.882-1.435c0-.487-.393-.628-.882-.329a1.892 1.892 0 00-.882 1.408c0 .489.397.652.882.356z"/><path data-name="路径 13839" d="M108.979 86.195a1.5 1.5 0 00.882-1.259c0-.487-.393-.7-.882-.5a1.453 1.453 0 00-.882 1.223.583.583 0 00.882.536z"/><path data-name="路径 13840" d="M104.002 86.751a1.1 1.1 0 00.882-1.046.717.717 0 00-.882-.718 1.06 1.06 0 00-.882 1.006.744.744 0 00.882.758z"/><path data-name="路径 13841" d="M99.195 85.371a.81.81 0 00.882-.824.965.965 0 00-.882-.94.779.779 0 00-.882.783 1 1 0 00.882.981z"/><path data-name="路径 13842" d="M94.65 82.222a.632.632 0 00.882-.619 1.3 1.3 0 00-.882-1.145.612.612 0 00-.882.581 1.341 1.341 0 00.882 1.183z"/><path data-name="路径 13843" d="M90.463 77.639c.479.243.87.037.871-.444a1.635 1.635 0 00-.871-1.3c-.483-.245-.87-.068-.871.412a1.678 1.678 0 00.871 1.332z"/><path data-name="路径 13844" d="M86.706 72.077c.479.309.87.16.871-.32a1.951 1.951 0 00-.871-1.421c-.483-.312-.87-.185-.871.3a1.988 1.988 0 00.871 1.441z"/><path data-name="路径 13845" d="M83.463 65.953c.48.353.87.241.871-.239a2.18 2.18 0 00-.871-1.5c-.482-.354-.87-.259-.871.222a2.21 2.21 0 00.871 1.517z"/><path data-name="路径 13846" d="M80.781 59.628c.48.376.87.287.871-.194a2.32 2.32 0 00-.871-1.547c-.482-.377-.87-.3-.871.183a2.341 2.341 0 00.871 1.558z"/><path data-name="路径 13847" d="M78.725 53.365c.475.382.859.3.859-.17a2.354 2.354 0 00-.859-1.548c-.475-.383-.859-.31-.859.165a2.365 2.365 0 00.859 1.553z"/><path data-name="路径 13848" d="M77.333 47.374c.474.385.859.312.859-.163a2.378 2.378 0 00-.859-1.556c-.475-.385-.859-.313-.86.161a2.38 2.38 0 00.86 1.558z"/><path data-name="路径 13849" d="M76.628 41.804c.475.385.859.313.859-.161a2.378 2.378 0 00-.859-1.557c-.475-.386-.859-.313-.859.161a2.38 2.38 0 00.859 1.557z"/><path data-name="路径 13850" d="M76.628 36.747c.475.385.859.313.859-.162a2.38 2.38 0 00-.859-1.557c-.475-.385-.859-.313-.859.162a2.381 2.381 0 00.859 1.557z"/><path data-name="路径 13851" d="M77.333 32.316c.474.385.859.312.859-.163a2.378 2.378 0 00-.859-1.556c-.475-.385-.859-.314-.86.161a2.38 2.38 0 00.86 1.558z"/><path data-name="路径 13852" d="M78.725 28.585c.475.382.859.3.859-.17a2.355 2.355 0 00-.859-1.549c-.475-.382-.859-.309-.859.165a2.366 2.366 0 00.859 1.554z"/><path data-name="路径 13853" d="M80.78 25.604c.474.371.859.283.859-.191a2.291 2.291 0 00-.859-1.528c-.475-.372-.859-.294-.859.181a2.308 2.308 0 00.859 1.538z"/><path data-name="路径 13854" d="M83.459 23.358c.474.348.859.239.86-.236a2.154 2.154 0 00-.86-1.483c-.476-.35-.859-.255-.859.22a2.18 2.18 0 00.859 1.499z"/><path data-name="路径 13855" d="M86.708 21.738c.473.306.859.159.859-.316a1.927 1.927 0 00-.859-1.4c-.476-.308-.859-.182-.859.292a1.961 1.961 0 00.859 1.424z"/><path data-name="路径 13856" d="M90.463 20.537c.473.24.859.036.859-.438a1.615 1.615 0 00-.859-1.281c-.477-.242-.859-.067-.859.408a1.658 1.658 0 00.859 1.311z"/><path data-name="路径 13857" d="M94.653 19.455a.616.616 0 00.859-.6 1.264 1.264 0 00-.859-1.116.6.6 0 00-.859.567 1.307 1.307 0 00.859 1.149z"/><path data-name="路径 13858" d="M99.195 18.174a.789.789 0 00.859-.8.94.94 0 00-.859-.916.76.76 0 00-.859.764.977.977 0 00.859.952z"/><path data-name="路径 13859" d="M104.001 16.432a1.073 1.073 0 00.859-1.019.7.7 0 00-.859-.7 1.034 1.034 0 00-.859.981.725.725 0 00.859.738z"/><path data-name="路径 13860" d="M108.979 14.121a1.461 1.461 0 00.859-1.226c0-.474-.383-.686-.859-.492a1.417 1.417 0 00-.86 1.193.568.568 0 00.86.525z"/><path data-name="路径 13861" d="M114.029 11.346a1.882 1.882 0 00.859-1.4c0-.474-.383-.612-.859-.321a1.844 1.844 0 00-.859 1.372c0 .477.386.636.859.349z"/><path data-name="路径 13862" d="M119.055 8.417a2.224 2.224 0 00.86-1.512c0-.475-.384-.564-.86-.207a2.2 2.2 0 00-.86 1.5c.001.472.387.575.86.219z"/><path data-name="路径 13863" d="M123.96 5.774a2.377 2.377 0 00.859-1.557c0-.475-.384-.546-.859-.162a2.371 2.371 0 00-.86 1.554c-.002.479.385.554.86.165z"/><path data-name="路径 13864" d="M128.645 3.901a2.344 2.344 0 00.87-1.554c0-.481-.39-.567-.87-.187a2.358 2.358 0 00-.871 1.563c0 .481.389.559.871.178z"/><path data-name="路径 13865" d="M133.022 3.127a2.106 2.106 0 00.871-1.476c0-.481-.391-.6-.871-.265a2.139 2.139 0 00-.871 1.5c.001.477.388.582.871.241z"/><path data-name="路径 13866" d="M137.004 3.659a1.8 1.8 0 00.871-1.362c0-.481-.391-.657-.871-.379a1.838 1.838 0 00-.871 1.391c.001.48.388.63.871.35z"/><path data-name="路径 13867" d="M140.515 5.496a1.493 1.493 0 00.871-1.235c0-.481-.392-.716-.871-.506a1.538 1.538 0 00-.871 1.269c0 .48.383.683.871.472z"/><path data-name="路径 13868" d="M143.486 8.486a1.247 1.247 0 00.871-1.112.636.636 0 00-.871-.629 1.291 1.291 0 00-.871 1.149.616.616 0 00.871.592z"/><path data-name="路径 13869" d="M145.858 12.379a1.068 1.068 0 00.87-1.007.721.721 0 00-.87-.734 1.109 1.109 0 00-.87 1.046.7.7 0 00.87.695z"/><path data-name="路径 13870" d="M147.587 16.907a.966.966 0 00.882-.941.809.809 0 00-.882-.823 1 1 0 00-.882.981.778.778 0 00.882.783z"/><path data-name="路径 13871" d="M148.637 21.784a.9.9 0 00.882-.892.863.863 0 00-.882-.872.939.939 0 00-.882.933.83.83 0 00.882.831z"/><path data-name="路径 13872" d="M153.015 26.922a.494.494 0 00.625-.494.808.808 0 00-.625-.756.507.507 0 00-.625.514.786.786 0 00.625.736z"/><path data-name="路径 13873" d="M152.697 31.907a.5.5 0 00.625-.5.791.791 0 00-.625-.746.516.516 0 00-.625.524.77.77 0 00.625.722z"/><path data-name="路径 13874" d="M151.75 36.737a.54.54 0 00.636-.544.757.757 0 00-.636-.729.555.555 0 00-.636.564.736.736 0 00.636.709z"/><path data-name="路径 13875" d="M150.188 41.407a.593.593 0 00.636-.6.684.684 0 00-.636-.677.61.61 0 00-.636.617.664.664 0 00.636.66z"/><path data-name="路径 13876" d="M148.036 46.001a.68.68 0 00.636-.668.6.6 0 00-.636-.6.7.7 0 00-.636.689.58.58 0 00.636.579z"/><path data-name="路径 13877" d="M145.328 50.639a.812.812 0 00.636-.757.509.509 0 00-.636-.515.835.835 0 00-.636.778.5.5 0 00.636.494z"/><path data-name="路径 13878" d="M142.106 55.459a1 1 0 00.636-.859.435.435 0 00-.636-.413 1.021 1.021 0 00-.636.878c.005.351.284.523.636.394z"/><path data-name="路径 13879" d="M138.421 60.571a1.228 1.228 0 00.636-.963c0-.352-.286-.494-.636-.309a1.252 1.252 0 00-.636.979c0 .351.282.478.636.293z"/><path data-name="路径 13880" d="M134.332 66.01a1.475 1.475 0 00.636-1.057c0-.351-.286-.45-.636-.216a1.493 1.493 0 00-.636 1.069c0 .347.284.435.636.204z"/><path data-name="路径 13881" d="M129.902 71.66a1.675 1.675 0 00.636-1.125c0-.351-.285-.419-.636-.148a1.688 1.688 0 00-.636 1.131c.001.352.285.414.636.142z"/><path data-name="路径 13882" d="M125.203 77.277a1.761 1.761 0 00.636-1.153c0-.351-.285-.4-.636-.119a1.763 1.763 0 00-.636 1.153c0 .354.285.404.636.119z"/><path data-name="路径 13883" d="M120.307 82.438a1.658 1.658 0 00.625-1.112c0-.345-.28-.406-.625-.138a1.648 1.648 0 00-.625 1.105c0 .346.28.412.625.145z"/><path data-name="路径 13884" d="M115.292 86.684a1.438 1.438 0 00.625-1.04c0-.345-.279-.436-.625-.21a1.417 1.417 0 00-.625 1.027c0 .346.283.446.625.223z"/><path data-name="路径 13885" d="M110.238 89.536a1.135 1.135 0 00.625-.923c0-.345-.279-.487-.625-.327a1.112 1.112 0 00-.625.906c-.004.344.281.501.625.344z"/><path data-name="路径 13886" d="M105.223 90.645a.84.84 0 00.625-.776.478.478 0 00-.625-.474.819.819 0 00-.625.756.49.49 0 00.625.494z"/><path data-name="路径 13887" d="M100.327 89.874a.612.612 0 00.625-.617.639.639 0 00-.625-.633.6.6 0 00-.625.6.658.658 0 00.625.65z"/><path data-name="路径 13888" d="M95.628 87.301a.467.467 0 00.625-.465.868.868 0 00-.625-.785.456.456 0 00-.625.445.891.891 0 00.625.805z"/><path data-name="路径 13889" d="M91.198 83.194c.344.164.625.01.625-.335a1.134 1.134 0 00-.625-.915c-.346-.165-.625-.027-.625.318a1.156 1.156 0 00.625.932z"/><path data-name="路径 13890" d="M87.109 77.924c.338.214.613.108.614-.231a1.357 1.357 0 00-.614-1c-.34-.215-.614-.12-.614.219a1.376 1.376 0 00.614 1.012z"/><path data-name="路径 13891" d="M83.425 71.932c.338.249.613.173.614-.167a1.544 1.544 0 00-.614-1.061c-.34-.25-.614-.181-.614.158a1.557 1.557 0 00.614 1.07z"/><path data-name="路径 13892" d="M80.203 65.567c.339.268.614.208.614-.13a1.654 1.654 0 00-.614-1.1c-.339-.268-.614-.213-.614.126a1.662 1.662 0 00.614 1.104z"/><path data-name="路径 13893" d="M77.494 59.123c.339.275.614.223.614-.116a1.7 1.7 0 00-.614-1.112c-.339-.275-.614-.224-.614.115a1.7 1.7 0 00.614 1.113z"/><path data-name="路径 13894" d="M75.342 52.803c.339.274.614.223.614-.116a1.7 1.7 0 00-.614-1.111c-.339-.274-.614-.221-.614.118a1.693 1.693 0 00.614 1.109z"/><path data-name="路径 13895" d="M73.78 46.739c.339.271.613.217.614-.122a1.676 1.676 0 00-.614-1.106c-.339-.27-.614-.213-.614.126a1.667 1.667 0 00.614 1.102z"/><path data-name="路径 13896" d="M72.828 41.012c.333.262.6.207.6-.126a1.622 1.622 0 00-.6-1.079c-.333-.262-.6-.2-.6.13a1.615 1.615 0 00.6 1.075z"/><path data-name="路径 13897" d="M72.516 35.718c.333.261.6.2.6-.128a1.617 1.617 0 00-.6-1.077c-.332-.26-.6-.2-.6.134a1.608 1.608 0 00.6 1.071z"/><path data-name="路径 13898" d="M72.828 30.923c.333.262.6.207.6-.126a1.623 1.623 0 00-.6-1.079c-.333-.262-.6-.2-.6.13a1.615 1.615 0 00.6 1.075z"/><path data-name="路径 13899" d="M73.78 26.709c.333.266.6.213.6-.12a1.645 1.645 0 00-.6-1.085c-.333-.265-.6-.21-.6.123a1.636 1.636 0 00.6 1.082z"/><path data-name="路径 13900" d="M75.342 23.158c.333.27.6.219.6-.114a1.666 1.666 0 00-.6-1.092c-.333-.269-.6-.217-.6.116a1.661 1.661 0 00.6 1.09z"/><path data-name="路径 13901" d="M77.493 20.332c.333.27.6.219.6-.114a1.666 1.666 0 00-.6-1.091c-.333-.27-.6-.219-.6.113a1.668 1.668 0 00.6 1.092z"/><path data-name="路径 13902" d="M80.203 18.241c.333.263.6.205.6-.128a1.625 1.625 0 00-.6-1.077c-.333-.264-.6-.209-.6.124a1.632 1.632 0 00.6 1.081z"/><path data-name="路径 13903" d="M83.425 16.816c.332.244.6.17.6-.163a1.516 1.516 0 00-.6-1.042c-.334-.245-.6-.177-.6.155a1.529 1.529 0 00.6 1.05z"/><path data-name="路径 13904" d="M87.11 15.89c.332.21.6.106.6-.227a1.335 1.335 0 00-.6-.978c-.334-.211-.6-.118-.6.215a1.352 1.352 0 00.6.99z"/><path data-name="路径 13905" d="M91.198 15.204c.332.158.6.01.6-.323a1.093 1.093 0 00-.6-.883c-.334-.159-.6-.026-.6.307a1.113 1.113 0 00.6.899z"/><path data-name="路径 13906" d="M95.628 14.44a.45.45 0 00.6-.448.837.837 0 00-.6-.757.44.44 0 00-.6.43.858.858 0 00.6.775z"/><path data-name="路径 13907" d="M100.328 13.293a.59.59 0 00.6-.594.617.617 0 00-.6-.611.574.574 0 00-.6.576.633.633 0 00.6.629z"/><path data-name="路径 13908" d="M105.224 11.55a.81.81 0 00.6-.748.461.461 0 00-.6-.457.79.79 0 00-.6.73.473.473 0 00.6.475z"/><path data-name="路径 13909" d="M110.238 9.171a1.1 1.1 0 00.6-.89c0-.333-.269-.47-.6-.316a1.072 1.072 0 00-.6.874c-.003.334.268.486.6.332z"/><path data-name="路径 13910" d="M115.293 6.333a1.412 1.412 0 00.614-1.021c0-.339-.274-.429-.614-.207a1.393 1.393 0 00-.614 1.009c0 .34.275.44.614.219z"/><path data-name="路径 13911" d="M120.307 3.354a1.627 1.627 0 00.614-1.092c0-.339-.274-.4-.614-.136a1.618 1.618 0 00-.614 1.086c0 .339.273.404.614.142z"/><path data-name="路径 13912" d="M125.202.695a1.7 1.7 0 00.614-1.113c0-.339-.274-.391-.614-.115a1.7 1.7 0 00-.614 1.112c.001.34.275.391.614.116z"/><path data-name="路径 13913" d="M129.903-1.2a1.618 1.618 0 00.614-1.085c0-.339-.275-.4-.614-.142a1.627 1.627 0 00-.614 1.092c-.003.338.274.397.614.135z"/><path data-name="路径 13914" d="M134.332-1.985a1.422 1.422 0 00.614-1.02c0-.339-.275-.435-.614-.208a1.439 1.439 0 00-.614 1.031c0 .339.274.424.614.197z"/><path data-name="路径 13915" d="M138.421-1.477a1.184 1.184 0 00.614-.93c0-.339-.276-.476-.614-.3a1.207 1.207 0 00-.614.945c.002.341.274.464.614.285z"/><path data-name="路径 13916" d="M142.106.342a.98.98 0 00.625-.844.427.427 0 00-.625-.406 1 1 0 00-.625.863c0 .345.279.513.625.387z"/><path data-name="路径 13917" d="M145.328 3.312a.8.8 0 00.625-.744.5.5 0 00-.625-.506.82.82 0 00-.625.764.488.488 0 00.625.486z"/><path data-name="路径 13918" d="M148.036 7.209a.668.668 0 00.625-.656.586.586 0 00-.625-.594.688.688 0 00-.625.677.57.57 0 00.625.573z"/><path data-name="路径 13919" d="M150.188 11.762a.583.583 0 00.625-.585.672.672 0 00-.625-.665.6.6 0 00-.625.605.654.654 0 00.625.645z"/><path data-name="路径 13920" d="M151.75 16.707a.531.531 0 00.625-.534.744.744 0 00-.625-.716.545.545 0 00-.625.554.723.723 0 00.625.696z"/><path data-name="路径 13921" d="M152.697 21.818a.5.5 0 00.625-.5.791.791 0 00-.625-.746.516.516 0 00-.625.524.77.77 0 00.625.722z"/><path data-name="路径 13922" d="M157.039 27.861c.21.082.379-.018.379-.228a.626.626 0 00-.379-.531.252.252 0 00-.379.234.617.617 0 00.379.525z"/><path data-name="路径 13923" d="M156.751 32.798c.21.079.379-.023.38-.233a.616.616 0 00-.38-.526.255.255 0 00-.379.24.607.607 0 00.379.519z"/><path data-name="路径 13924" d="M155.889 37.47a.261.261 0 00.379-.248.585.585 0 00-.379-.511.265.265 0 00-.379.255.576.576 0 00.379.504z"/><path data-name="路径 13925" d="M154.464 41.89a.28.28 0 00.38-.275.535.535 0 00-.38-.484.283.283 0 00-.379.281.527.527 0 00.379.478z"/><path data-name="路径 13926" d="M152.497 46.117a.311.311 0 00.38-.312.472.472 0 00-.38-.447.315.315 0 00-.379.319.464.464 0 00.379.44z"/><path data-name="路径 13927" d="M150.011 50.262a.36.36 0 00.38-.361.4.4 0 00-.38-.4.366.366 0 00-.379.369.394.394 0 00.379.392z"/><path data-name="路径 13928" d="M147.04 54.471a.435.435 0 00.379-.42.333.333 0 00-.379-.338.443.443 0 00-.38.428.328.328 0 00.38.33z"/><path data-name="路径 13929" d="M143.622 58.901a.544.544 0 00.379-.487.277.277 0 00-.379-.272.552.552 0 00-.38.494.273.273 0 00.38.265z"/><path data-name="路径 13930" d="M139.806 63.674a.683.683 0 00.38-.554c0-.21-.17-.3-.38-.2a.693.693 0 00-.379.561c-.005.205.165.292.379.193z"/><path data-name="路径 13931" d="M135.628 68.836a.837.837 0 00.379-.616c0-.21-.17-.275-.379-.143a.843.843 0 00-.379.621c0 .209.169.27.379.138z"/><path data-name="路径 13932" d="M131.157 74.301a.972.972 0 00.38-.663c0-.209-.17-.253-.38-.1a.979.979 0 00-.379.666c0 .213.169.254.379.097z"/><path data-name="路径 13933" d="M126.446 79.839a1.049 1.049 0 00.38-.686c0-.209-.17-.242-.38-.073a1.046 1.046 0 00-.379.687c0 .209.17.243.379.072z"/><path data-name="路径 13934" d="M121.557 85.07a1.028 1.028 0 00.38-.681c0-.21-.17-.244-.38-.078a1.024 1.024 0 00-.379.679c0 .209.17.246.379.08z"/><path data-name="路径 13935" d="M116.554 89.531a.911.911 0 00.38-.644c0-.21-.17-.26-.38-.115a.9.9 0 00-.379.64c0 .21.17.264.379.119z"/><path data-name="路径 13936" d="M111.5 92.756a.735.735 0 00.38-.578c0-.209-.17-.289-.38-.18a.726.726 0 00-.379.573c0 .208.17.293.379.185z"/><path data-name="路径 13937" d="M106.464 94.368a.55.55 0 00.38-.492.274.274 0 00-.38-.267.541.541 0 00-.379.485.278.278 0 00.379.274z"/><path data-name="路径 13938" d="M101.51 94.155a.387.387 0 00.368-.384.352.352 0 00-.368-.353.381.381 0 00-.368.377.357.357 0 00.368.36z"/><path data-name="路径 13939" d="M96.702 92.146a.29.29 0 00.368-.292.48.48 0 00-.368-.445.286.286 0 00-.368.285.487.487 0 00.368.452z"/><path data-name="路径 13940" d="M92.104 88.526c.2.089.368-.007.368-.21a.637.637 0 00-.368-.526c-.2-.089-.368 0-.369.2a.646.646 0 00.369.536z"/><path data-name="路径 13941" d="M87.774 83.63c.2.124.368.058.368-.146a.794.794 0 00-.368-.591c-.2-.124-.368-.062-.368.141a.8.8 0 00.368.596z"/><path data-name="路径 13942" d="M83.771 77.849c.2.148.368.1.368-.1a.92.92 0 00-.368-.635c-.2-.148-.368-.1-.368.1a.923.923 0 00.368.635z"/><path data-name="路径 13943" d="M80.146 71.557c.2.161.368.126.368-.078a.994.994 0 00-.368-.659c-.2-.161-.368-.128-.368.076a1 1 0 00.368.661z"/><path data-name="路径 13944" d="M76.946 65.067c.2.165.368.134.369-.069a1.02 1.02 0 00-.369-.667c-.2-.165-.368-.135-.368.069a1.022 1.022 0 00.368.667z"/><path data-name="路径 13945" d="M74.213 58.588c.2.158.357.127.357-.07a.978.978 0 00-.357-.644c-.2-.158-.357-.126-.357.071a.976.976 0 00.357.643z"/><path data-name="路径 13946" d="M71.982 52.292c.2.153.357.118.357-.079a.948.948 0 00-.357-.635c-.2-.153-.357-.116-.357.082a.945.945 0 00.357.632z"/><path data-name="路径 13947" d="M70.284 46.24c.2.146.357.107.357-.09a.913.913 0 00-.357-.624c-.2-.147-.357-.1-.357.093a.911.911 0 00.357.621z"/><path data-name="路径 13948" d="M69.139 40.479c.2.142.357.1.357-.1a.883.883 0 00-.357-.615c-.2-.141-.357-.095-.357.1a.879.879 0 00.357.615z"/><path data-name="路径 13949" d="M68.563 35.048c.2.139.357.093.357-.1a.87.87 0 00-.357-.61c-.2-.138-.357-.089-.357.108a.863.863 0 00.357.602z"/><path data-name="路径 13950" d="M68.563 29.992c.2.139.357.093.357-.1a.869.869 0 00-.357-.61c-.2-.138-.357-.089-.357.108a.862.862 0 00.357.602z"/><path data-name="路径 13951" d="M69.139 25.379c.2.142.357.1.357-.1a.882.882 0 00-.357-.615c-.2-.141-.357-.095-.357.1a.88.88 0 00.357.615z"/><path data-name="路径 13952" d="M70.284 21.281c.191.142.346.1.346-.087a.884.884 0 00-.346-.6c-.191-.142-.346-.1-.346.09a.879.879 0 00.346.597z"/><path data-name="路径 13953" d="M71.983 17.812c.191.148.346.114.346-.077a.918.918 0 00-.346-.615c-.191-.148-.346-.112-.346.079a.914.914 0 00.346.613z"/><path data-name="路径 13954" d="M74.213 15.037c.191.153.346.123.346-.068a.947.947 0 00-.346-.624c-.191-.153-.346-.122-.346.069a.944.944 0 00.346.623z"/><path data-name="路径 13955" d="M76.946 12.996c.191.155.346.126.346-.065a.957.957 0 00-.346-.627c-.191-.155-.346-.126-.346.065a.958.958 0 00.346.627z"/><path data-name="路径 13956" d="M80.146 11.66c.191.151.346.118.346-.073a.935.935 0 00-.346-.62c-.191-.151-.346-.12-.346.071a.94.94 0 00.346.622z"/><path data-name="路径 13957" d="M83.771 10.905c.191.139.346.1.346-.1a.865.865 0 00-.346-.6c-.192-.139-.346-.1-.346.093a.868.868 0 00.346.607z"/><path data-name="路径 13958" d="M87.775 10.513c.191.116.346.054.346-.137a.746.746 0 00-.346-.555c-.191-.117-.346-.058-.346.133a.753.753 0 00.346.559z"/><path data-name="路径 13959" d="M92.104 10.188c.191.083.346-.006.346-.2a.6.6 0 00-.346-.5c-.192-.084-.346 0-.346.192a.605.605 0 00.346.508z"/><path data-name="路径 13960" d="M96.702 9.61a.272.272 0 00.346-.274.451.451 0 00-.346-.418.269.269 0 00-.346.268.458.458 0 00.346.424z"/><path data-name="路径 13961" d="M101.51 8.491a.364.364 0 00.346-.361.33.33 0 00-.346-.331.358.358 0 00-.346.354.336.336 0 00.346.338z"/><path data-name="路径 13962" d="M106.464 6.698a.517.517 0 00.357-.463.258.258 0 00-.357-.251.509.509 0 00-.357.457.261.261 0 00.357.257z"/><path data-name="路径 13963" d="M111.501 4.22a.691.691 0 00.357-.544c0-.2-.16-.272-.357-.17a.684.684 0 00-.357.539c0 .197.16.277.357.175z"/><path data-name="路径 13964" d="M116.554 1.285a.858.858 0 00.357-.606c0-.2-.16-.245-.357-.109a.853.853 0 00-.357.6c0 .2.16.251.357.115z"/><path data-name="路径 13965" d="M121.557-1.737a.965.965 0 00.357-.641c0-.2-.16-.23-.357-.074a.964.964 0 00-.357.639c0 .198.16.232.357.076z"/><path data-name="路径 13966" d="M126.446-4.399a.985.985 0 00.357-.646c0-.2-.16-.228-.357-.068a.987.987 0 00-.357.646c0 .197.16.227.357.068z"/><path data-name="路径 13967" d="M131.157-6.268a.917.917 0 00.358-.624c0-.2-.16-.238-.358-.09a.919.919 0 00-.357.626c0 .197.16.236.357.088z"/><path data-name="路径 13968" d="M135.628-7.016a.79.79 0 00.357-.58c0-.2-.16-.258-.357-.135a.8.8 0 00-.357.584c0 .199.16.256.357.131z"/><path data-name="路径 13969" d="M139.801-6.458a.663.663 0 00.368-.538c0-.2-.165-.293-.368-.2a.671.671 0 00-.368.544c0 .204.165.289.368.194z"/><path data-name="路径 13970" d="M143.622-4.611a.528.528 0 00.368-.473.268.268 0 00-.368-.264.536.536 0 00-.368.479.265.265 0 00.368.258z"/><path data-name="路径 13971" d="M147.04-1.592a.424.424 0 00.369-.408.324.324 0 00-.369-.328.43.43 0 00-.369.415.318.318 0 00.369.321z"/><path data-name="路径 13972" d="M150.011 2.378a.349.349 0 00.368-.351.389.389 0 00-.368-.386.355.355 0 00-.368.358.383.383 0 00.368.379z"/><path data-name="路径 13973" d="M152.497 7.036a.3.3 0 00.369-.3.458.458 0 00-.369-.433.306.306 0 00-.368.31.451.451 0 00.368.423z"/><path data-name="路径 13974" d="M154.465 12.122a.271.271 0 00.368-.266.519.519 0 00-.368-.47.275.275 0 00-.368.273.512.512 0 00.368.463z"/><path data-name="路径 13975" d="M155.889 17.403a.254.254 0 00.368-.241.567.567 0 00-.368-.5.257.257 0 00-.368.247.559.559 0 00.368.494z"/><path data-name="路径 13976" d="M156.751 22.704c.21.079.379-.023.38-.233a.617.617 0 00-.38-.526.255.255 0 00-.379.24.607.607 0 00.379.519z"/><path data-name="路径 13977" d="M161.065 29.535c.068.038.123.014.123-.053a.25.25 0 00-.123-.192c-.068-.038-.123-.014-.123.054a.249.249 0 00.123.191z"/><path data-name="路径 13978" d="M160.8 34.433c.068.037.123.013.123-.055a.247.247 0 00-.123-.191c-.068-.037-.123-.012-.123.055a.248.248 0 00.123.191z"/><path data-name="路径 13979" d="M160.009 39.006c.068.035.123.009.123-.058a.237.237 0 00-.123-.187c-.068-.035-.123-.009-.123.059a.237.237 0 00.123.186z"/><path data-name="路径 13980" d="M158.701 43.244c.068.032.123 0 .123-.065a.222.222 0 00-.123-.18c-.068-.032-.123 0-.123.066a.221.221 0 00.123.179z"/><path data-name="路径 13981" d="M156.889 47.192c.068.026.123-.008.123-.075a.2.2 0 00-.123-.17c-.068-.026-.123.008-.123.076a.2.2 0 00.123.169z"/><path data-name="路径 13982" d="M154.594 50.937a.09.09 0 00.123-.089.173.173 0 00-.123-.157.091.091 0 00-.123.089.173.173 0 00.123.157z"/><path data-name="路径 13983" d="M151.84 54.616a.1.1 0 00.123-.106.145.145 0 00-.123-.14.105.105 0 00-.123.107.145.145 0 00.123.139z"/><path data-name="路径 13984" d="M148.659 58.384a.127.127 0 00.123-.126.118.118 0 00-.123-.119.129.129 0 00-.123.128.117.117 0 00.123.117z"/><path data-name="路径 13985" d="M145.085 62.413a.161.161 0 00.123-.149.1.1 0 00-.123-.1.162.162 0 00-.123.15.1.1 0 00.123.099z"/><path data-name="路径 13986" d="M141.155 66.837a.205.205 0 00.123-.173c0-.068-.055-.1-.123-.073a.206.206 0 00-.123.173c0 .069.055.101.123.073z"/><path data-name="路径 13987" d="M136.915 71.712a.257.257 0 00.123-.194c0-.068-.055-.091-.123-.051a.257.257 0 00-.123.195c0 .067.055.089.123.05z"/><path data-name="路径 13988" d="M132.411 76.972a.3.3 0 00.123-.211c0-.068-.055-.083-.123-.034a.3.3 0 00-.123.212c0 .067.055.082.123.033z"/><path data-name="路径 13989" d="M127.69 82.408a.335.335 0 00.123-.221c0-.068-.055-.079-.123-.025a.338.338 0 00-.123.221c-.001.069.055.079.123.025z"/><path data-name="路径 13990" d="M122.807 87.667a.336.336 0 00.123-.221c0-.068-.055-.078-.123-.024a.337.337 0 00-.123.222c0 .067.055.078.123.023z"/><path data-name="路径 13991" d="M117.814 92.31a.306.306 0 00.123-.212c0-.068-.055-.083-.123-.034a.305.305 0 00-.123.211c0 .065.055.08.123.035z"/><path data-name="路径 13992" d="M112.765 95.857a.251.251 0 00.123-.193c0-.068-.055-.091-.123-.053a.253.253 0 00-.123.192c0 .068.055.092.123.054z"/><path data-name="路径 13993" d="M107.717 97.923a.19.19 0 00.123-.166.084.084 0 00-.123-.08.191.191 0 00-.123.166.085.085 0 00.123.08z"/><path data-name="路径 13994" d="M102.723 98.254a.139.139 0 00.123-.135.109.109 0 00-.123-.11.138.138 0 00-.123.134.11.11 0 00.123.111z"/><path data-name="路径 13995" d="M97.84 96.792a.1.1 0 00.123-.1.149.149 0 00-.123-.142.1.1 0 00-.123.1.15.15 0 00.123.142z"/><path data-name="路径 13996" d="M93.12 93.669c.068.027.123-.007.123-.075a.2.2 0 00-.123-.171c-.068-.027-.123.007-.123.074a.2.2 0 00.123.172z"/><path data-name="路径 13997" d="M88.616 89.166c.068.039.123.016.123-.052a.256.256 0 00-.123-.194c-.068-.039-.123-.017-.123.051a.257.257 0 00.123.195z"/><path data-name="路径 13998" d="M84.375 83.641c.062.044.112.029.112-.032a.274.274 0 00-.112-.191c-.062-.044-.111-.03-.111.032a.275.275 0 00.111.191z"/><path data-name="路径 13999" d="M80.447 77.494c.062.049.112.038.112-.024a.3.3 0 00-.112-.2c-.062-.049-.112-.038-.112.023a.3.3 0 00.112.201z"/><path data-name="路径 14000" d="M76.872 71.045c.062.05.111.041.112-.021a.312.312 0 00-.112-.2c-.062-.05-.112-.041-.112.021a.309.309 0 00.112.2z"/><path data-name="路径 14001" d="M73.69 64.545c.062.049.112.039.112-.022a.3.3 0 00-.112-.2c-.062-.049-.112-.039-.112.023a.3.3 0 00.112.199z"/><path data-name="路径 14002" d="M70.937 58.16c.062.047.112.034.112-.027a.287.287 0 00-.112-.2c-.062-.047-.112-.035-.112.027a.29.29 0 00.112.2z"/><path data-name="路径 14003" d="M68.642 51.975c.062.043.112.029.112-.033a.271.271 0 00-.112-.19c-.062-.044-.112-.029-.112.033a.271.271 0 00.112.19z"/><path data-name="路径 14004" d="M66.83 46.014c.055.036.1.021.1-.035a.23.23 0 00-.1-.166c-.056-.036-.1-.02-.1.035a.229.229 0 00.1.166z"/><path data-name="路径 14005" d="M65.521 40.305c.056.034.1.016.1-.039a.217.217 0 00-.1-.162c-.055-.034-.1-.016-.1.04a.216.216 0 00.1.161z"/><path data-name="路径 14006" d="M64.73 34.841c.056.032.1.014.1-.042a.209.209 0 00-.1-.159c-.056-.032-.1-.013-.1.042a.208.208 0 00.1.159z"/><path data-name="路径 14007" d="M64.466 29.639c.055.031.1.012.1-.043a.208.208 0 00-.1-.158c-.056-.032-.1-.012-.1.043a.208.208 0 00.1.158z"/><path data-name="路径 14008" d="M64.73 24.748c.056.032.1.014.1-.042a.21.21 0 00-.1-.159c-.056-.032-.1-.013-.1.042a.209.209 0 00.1.159z"/><path data-name="路径 14009" d="M65.521 20.22c.056.034.1.016.1-.039a.217.217 0 00-.1-.162c-.055-.034-.1-.016-.1.039a.217.217 0 00.1.162z"/><path data-name="路径 14010" d="M66.83 16.163c.055.036.1.021.1-.035a.231.231 0 00-.1-.166c-.056-.036-.1-.02-.1.035a.229.229 0 00.1.166z"/><path data-name="路径 14011" d="M68.641 12.673c.056.039.1.026.1-.029a.244.244 0 00-.1-.171c-.055-.039-.1-.026-.1.03a.244.244 0 00.1.17z"/><path data-name="路径 14012" d="M70.936 9.848c.056.042.1.031.1-.024a.259.259 0 00-.1-.177c-.055-.042-.1-.031-.1.025a.263.263 0 00.1.176z"/><path data-name="路径 14013" d="M73.689 7.754c.056.044.1.035.1-.02a.273.273 0 00-.1-.181c-.055-.044-.1-.035-.1.021a.273.273 0 00.1.18z"/><path data-name="路径 14014" d="M76.872 6.396c.055.045.1.037.1-.019a.279.279 0 00-.1-.182c-.056-.045-.1-.036-.1.019a.279.279 0 00.1.182z"/><path data-name="路径 14015" d="M80.446 5.696c.056.044.1.034.1-.021a.269.269 0 00-.1-.18c-.056-.044-.1-.034-.1.021a.27.27 0 00.1.18z"/><path data-name="路径 14016" d="M84.372 5.48c.056.04.1.026.1-.029a.246.246 0 00-.1-.172c-.056-.04-.1-.027-.1.028a.246.246 0 00.1.173z"/><path data-name="路径 14017" d="M88.615 5.487c.056.032.1.013.1-.042a.209.209 0 00-.1-.159c-.055-.032-.1-.014-.1.042a.21.21 0 00.1.159z"/><path data-name="路径 14018" d="M93.121 5.398c.055.022.1-.006.1-.061a.165.165 0 00-.1-.14c-.056-.022-.1.005-.1.061a.165.165 0 00.1.14z"/><path data-name="路径 14019" d="M97.839 4.898a.084.084 0 00.1-.084.122.122 0 00-.1-.116.083.083 0 00-.1.084.123.123 0 00.1.116z"/><path data-name="路径 14020" d="M102.723 3.745a.114.114 0 00.1-.111.089.089 0 00-.1-.09.113.113 0 00-.1.11.09.09 0 00.1.091z"/><path data-name="路径 14021" d="M107.716 1.831a.157.157 0 00.1-.136.069.069 0 00-.1-.065.155.155 0 00-.1.135.069.069 0 00.1.066z"/><path data-name="路径 14022" d="M112.764-.765a.206.206 0 00.1-.158c0-.055-.045-.075-.1-.043a.2.2 0 00-.1.157c0 .06.046.075.1.044z"/><path data-name="路径 14023" d="M117.813-3.786a.25.25 0 00.1-.173c0-.055-.045-.068-.1-.028a.249.249 0 00-.1.173c0 .054.045.068.1.028z"/><path data-name="路径 14024" d="M122.807-6.843a.274.274 0 00.1-.181c0-.055-.045-.064-.1-.02a.275.275 0 00-.1.181c0 .056.045.065.1.02z"/><path data-name="路径 14025" d="M127.691-9.486a.274.274 0 00.1-.181c0-.055-.045-.064-.1-.02a.274.274 0 00-.1.181c-.001.056.044.065.1.02z"/><path data-name="路径 14026" d="M132.41-11.287a.276.276 0 00.112-.192c0-.062-.05-.076-.112-.031a.278.278 0 00-.112.193c.001.062.052.075.112.03z"/><path data-name="路径 14027" d="M136.915-11.957a.234.234 0 00.112-.177c0-.062-.05-.082-.112-.047a.236.236 0 00-.112.177c0 .058.05.083.112.047z"/><path data-name="路径 14028" d="M141.155-11.325a.187.187 0 00.111-.157c0-.062-.05-.092-.111-.066a.187.187 0 00-.112.158c0 .061.05.09.112.065z"/><path data-name="路径 14029" d="M145.084-9.381a.147.147 0 00.112-.136.087.087 0 00-.112-.088.148.148 0 00-.112.137.087.087 0 00.112.087z"/><path data-name="路径 14030" d="M148.659-6.264a.116.116 0 00.112-.115.108.108 0 00-.112-.108.117.117 0 00-.112.116.108.108 0 00.112.107z"/><path data-name="路径 14031" d="M151.841-2.174a.1.1 0 00.112-.1.132.132 0 00-.112-.127.1.1 0 00-.112.1.131.131 0 00.112.127z"/><path data-name="路径 14032" d="M154.594 2.64a.09.09 0 00.123-.089.174.174 0 00-.123-.157.091.091 0 00-.123.09.173.173 0 00.123.156z"/><path data-name="路径 14033" d="M156.889 7.901c.068.026.123-.007.123-.075a.2.2 0 00-.123-.17.082.082 0 00-.123.076.2.2 0 00.123.169z"/><path data-name="路径 14034" d="M158.701 13.392c.068.032.123 0 .123-.065a.222.222 0 00-.123-.18c-.068-.032-.123 0-.123.066a.22.22 0 00.123.179z"/><path data-name="路径 14035" d="M160.009 18.919c.068.035.123.009.123-.059a.238.238 0 00-.123-.187c-.068-.035-.123-.009-.123.059a.236.236 0 00.123.187z"/><path data-name="路径 14036" d="M160.8 24.34c.068.037.123.013.123-.055a.248.248 0 00-.123-.191c-.068-.037-.123-.012-.123.056a.247.247 0 00.123.19z"/></g></g></g></g><text data-name="$ 15,000" transform="translate(250 50)" fill="#fff" font-size="64" font-family="Helvetica"><tspan x="-249.125" y="0">$ 15,000</tspan></text></svg>